<svg width="64" height="64" viewBox="0 0 64 64" fill="none" xmlns="http://www.w3.org/2000/svg">
<circle cx="32" cy="32" r="27" fill="white"/>
<path d="M31.987 59C46.7854 59 59 46.7854 59 31.987C59 17.2146 46.7593 5 31.9608 5C17.1885 5 5 17.2146 5 31.987C5 46.7854 17.2146 59 31.987 59ZM29.4553 43.6796C28.6723 43.6796 28.0981 43.3664 27.3412 42.6878L16.014 32.0653C15.4398 31.5433 15.231 30.943 15.231 30.3949C15.231 29.8207 15.4398 29.2465 16.014 28.7245L27.3412 18.1542C28.1764 17.3973 28.6723 17.0841 29.4292 17.0841C30.5776 17.0841 31.3867 17.9715 31.3867 19.0677V24.2093H31.7521C41.6177 24.2093 46.2112 30.5254 46.2112 40.9391C46.2112 42.7139 45.4282 43.6274 44.4364 43.6274C43.6796 43.6274 43.001 43.3925 42.4529 42.3485C40.2083 38.1464 36.9981 36.6327 31.7521 36.6327H31.3867V41.7743C31.3867 42.8705 30.5776 43.6796 29.4553 43.6796Z" fill="#FDAC41"/>
</svg>
