<svg width="112" height="99" viewBox="0 0 112 99" fill="none" xmlns="http://www.w3.org/2000/svg">
<rect x="1.5" y="1.5" width="109" height="96" rx="14.5" fill="white" stroke="#ADC6F7" stroke-width="3"/>
<path d="M56.0327 36.8355C53.458 36.8355 51.3685 33.2864 51.3685 28.9092C51.3685 24.5321 53.458 20.9849 56.0327 20.9849C58.6073 20.9849 60.6937 24.5321 60.6937 28.9092C60.6937 33.2864 58.6073 36.8355 56.0327 36.8355ZM56.0327 18.9374C52.9525 18.9374 50.4561 23.1809 50.4561 28.4143C50.4561 31.1279 51.1275 33.5743 52.2012 35.3037H52.2027H52.2043L52.209 35.3131C53.2076 36.9126 54.5536 37.8931 56.0327 37.8931C57.5117 37.8931 58.8577 36.9107 59.8579 35.3112L59.8594 35.3056V35.3037C60.9363 33.5762 61.6077 31.1298 61.6077 28.4143C61.6077 23.1809 59.1113 18.9374 56.0327 18.9374Z" fill="#EDEBE3"/>
<path d="M60.6933 28.9092C60.6933 33.2863 58.607 36.8354 56.0323 36.8354C53.4576 36.8354 51.3682 33.2863 51.3682 28.9092C51.3682 24.5321 53.4576 20.9849 56.0323 20.9849C58.607 20.9849 60.6933 24.5321 60.6933 28.9092Z" fill="#E5E0D7"/>
<path d="M56.0325 68.9375C51.1539 66.7941 54.0714 50.4241 54.7866 45.9906C54.8665 45.4825 54.8884 44.9348 54.8633 44.3609H57.2001C57.175 44.9348 57.1954 45.4825 57.2783 45.9906C57.9905 50.4241 60.9095 66.7941 56.0325 68.9375Z" fill="#6396E5"/>
<path d="M59.8578 35.3111C58.9673 37.2419 57.3458 41.173 57.2002 44.3608H54.8635C54.7179 41.173 53.098 37.2476 52.209 35.3149C53.2075 36.9126 54.5536 37.893 56.0326 37.893C57.5117 37.893 58.8577 36.9107 59.8578 35.3111Z" fill="#D3D1CB"/>
<path d="M52.209 31.1353C52.209 31.1353 51.8568 22.3867 56.0326 22.2625C56.0326 22.2625 53.2561 25.2056 52.209 31.1353Z" fill="#F5F3EF"/>
<path d="M41.3564 85.1543C42.0596 85.1543 42.665 85.043 43.1729 84.8203C43.6846 84.5938 44.0771 84.2773 44.3506 83.8711C44.6279 83.4609 44.7666 82.9766 44.7666 82.418V82.4121C44.7666 81.752 44.5615 81.2324 44.1514 80.8535C43.7451 80.4746 43.0947 80.1934 42.2002 80.0098L41.3037 79.8281C40.8076 79.7266 40.4482 79.5898 40.2256 79.418C40.0068 79.2422 39.8975 79.0176 39.8975 78.7441V78.7383C39.8975 78.5273 39.958 78.3457 40.0791 78.1934C40.2002 78.0371 40.3701 77.916 40.5889 77.8301C40.8076 77.7441 41.0615 77.7012 41.3506 77.7012C41.6475 77.7012 41.9072 77.7461 42.1299 77.8359C42.3564 77.9219 42.5361 78.041 42.6689 78.1934C42.8057 78.3457 42.8916 78.5234 42.9268 78.7266L42.9385 78.7969H44.6025L44.5967 78.7207C44.5615 78.248 44.4111 77.8281 44.1455 77.4609C43.8799 77.0898 43.5107 76.7988 43.0381 76.5879C42.5693 76.373 42.0068 76.2656 41.3506 76.2656C40.7256 76.2656 40.1709 76.375 39.6865 76.5938C39.2021 76.8086 38.8213 77.1113 38.5439 77.502C38.2666 77.8926 38.1279 78.3496 38.1279 78.873V78.8789C38.1279 79.5195 38.3271 80.0449 38.7256 80.4551C39.124 80.8652 39.7627 81.1602 40.6416 81.3398L41.5322 81.5215C42.0596 81.6309 42.4346 81.7695 42.6572 81.9375C42.8838 82.1055 42.9971 82.3281 42.9971 82.6055V82.6113C42.9971 82.8262 42.9287 83.0176 42.792 83.1855C42.6592 83.3496 42.4736 83.4785 42.2354 83.5723C41.9971 83.666 41.7197 83.7129 41.4033 83.7129C41.0752 83.7129 40.7842 83.668 40.5303 83.5781C40.2764 83.4883 40.0732 83.3652 39.9209 83.209C39.7725 83.0488 39.6865 82.8633 39.6631 82.6523L39.6572 82.5938H37.9521L37.958 82.6875C37.9932 83.1875 38.1514 83.623 38.4326 83.9941C38.7178 84.3613 39.1084 84.6465 39.6045 84.8496C40.1006 85.0527 40.6846 85.1543 41.3564 85.1543ZM46.2725 87.0762H47.9834V83.9062H48.0889C48.1982 84.1406 48.3467 84.3418 48.5342 84.5098C48.7256 84.6777 48.9463 84.8086 49.1963 84.9023C49.4502 84.9922 49.7256 85.0371 50.0225 85.0371C50.5654 85.0371 51.0322 84.9043 51.4229 84.6387C51.8135 84.373 52.1143 83.9922 52.3252 83.4961C52.5361 83 52.6416 82.4062 52.6416 81.7148V81.7031C52.6416 81.0156 52.5342 80.4258 52.3193 79.9336C52.1084 79.4375 51.8076 79.0547 51.417 78.7852C51.0264 78.5156 50.5615 78.3809 50.0225 78.3809C49.7178 78.3809 49.4404 78.4258 49.1904 78.5156C48.9404 78.6016 48.7217 78.7266 48.5342 78.8906C48.3506 79.0547 48.2021 79.252 48.0889 79.4824H47.9834V78.4863H46.2725V87.0762ZM49.4365 83.6191C49.1396 83.6191 48.8799 83.543 48.6572 83.3906C48.4385 83.2383 48.2686 83.0195 48.1475 82.7344C48.0264 82.4453 47.9658 82.1055 47.9658 81.7148V81.7031C47.9658 81.3047 48.0244 80.9648 48.1416 80.6836C48.2627 80.3984 48.4326 80.1797 48.6514 80.0273C48.874 79.875 49.1357 79.7988 49.4365 79.7988C49.7412 79.7988 50.001 79.875 50.2158 80.0273C50.4346 80.1797 50.6025 80.3984 50.7197 80.6836C50.8408 80.9688 50.9014 81.3086 50.9014 81.7031V81.7148C50.9014 82.1094 50.8408 82.4492 50.7197 82.7344C50.6025 83.0195 50.4346 83.2383 50.2158 83.3906C50.001 83.543 49.7412 83.6191 49.4365 83.6191ZM56.9072 85.0723C57.5713 85.0723 58.1396 84.9395 58.6123 84.6738C59.0889 84.4043 59.4541 84.0195 59.708 83.5195C59.9619 83.0156 60.0889 82.4141 60.0889 81.7148V81.7031C60.0889 81.0078 59.96 80.4102 59.7021 79.9102C59.4443 79.4062 59.0771 79.0195 58.6006 78.75C58.1279 78.4805 57.5635 78.3457 56.9072 78.3457C56.251 78.3457 55.6846 78.4824 55.208 78.7559C54.7354 79.0254 54.3701 79.4102 54.1123 79.9102C53.8545 80.4102 53.7256 81.0078 53.7256 81.7031V81.7148C53.7256 82.4141 53.8525 83.0156 54.1064 83.5195C54.3604 84.0195 54.7256 84.4043 55.2021 84.6738C55.6787 84.9395 56.2471 85.0723 56.9072 85.0723ZM56.9072 83.7305C56.6025 83.7305 56.3428 83.6523 56.1279 83.4961C55.917 83.3359 55.7549 83.1055 55.6416 82.8047C55.5322 82.5039 55.4775 82.1406 55.4775 81.7148V81.7031C55.4775 81.2812 55.5342 80.9219 55.6475 80.625C55.7607 80.3242 55.9229 80.0938 56.1338 79.9336C56.3486 79.7695 56.6064 79.6875 56.9072 79.6875C57.208 79.6875 57.4639 79.7695 57.6748 79.9336C57.8896 80.0938 58.0537 80.3242 58.167 80.625C58.2803 80.9219 58.3369 81.2812 58.3369 81.7031V81.7148C58.3369 82.1367 58.2803 82.498 58.167 82.7988C58.0537 83.0996 57.8916 83.3301 57.6807 83.4902C57.4697 83.6504 57.2119 83.7305 56.9072 83.7305ZM64.3486 85.0723C65.0127 85.0723 65.5811 84.9395 66.0537 84.6738C66.5303 84.4043 66.8955 84.0195 67.1494 83.5195C67.4033 83.0156 67.5303 82.4141 67.5303 81.7148V81.7031C67.5303 81.0078 67.4014 80.4102 67.1436 79.9102C66.8857 79.4062 66.5186 79.0195 66.042 78.75C65.5693 78.4805 65.0049 78.3457 64.3486 78.3457C63.6924 78.3457 63.126 78.4824 62.6494 78.7559C62.1768 79.0254 61.8115 79.4102 61.5537 79.9102C61.2959 80.4102 61.167 81.0078 61.167 81.7031V81.7148C61.167 82.4141 61.2939 83.0156 61.5479 83.5195C61.8018 84.0195 62.167 84.4043 62.6436 84.6738C63.1201 84.9395 63.6885 85.0723 64.3486 85.0723ZM64.3486 83.7305C64.0439 83.7305 63.7842 83.6523 63.5693 83.4961C63.3584 83.3359 63.1963 83.1055 63.083 82.8047C62.9736 82.5039 62.9189 82.1406 62.9189 81.7148V81.7031C62.9189 81.2812 62.9756 80.9219 63.0889 80.625C63.2021 80.3242 63.3643 80.0938 63.5752 79.9336C63.79 79.7695 64.0479 79.6875 64.3486 79.6875C64.6494 79.6875 64.9053 79.7695 65.1162 79.9336C65.3311 80.0938 65.4951 80.3242 65.6084 80.625C65.7217 80.9219 65.7783 81.2812 65.7783 81.7031V81.7148C65.7783 82.1367 65.7217 82.498 65.6084 82.7988C65.4951 83.0996 65.333 83.3301 65.1221 83.4902C64.9111 83.6504 64.6533 83.7305 64.3486 83.7305ZM68.9248 84.9375H70.6357V81.2051C70.6357 80.9121 70.6865 80.6582 70.7881 80.4434C70.8936 80.2285 71.04 80.0625 71.2275 79.9453C71.4189 79.8242 71.6455 79.7637 71.9072 79.7637C72.3135 79.7637 72.6123 79.8809 72.8037 80.1152C72.9951 80.3496 73.0908 80.6953 73.0908 81.1523V84.9375H74.8018V80.7656C74.8018 79.9922 74.6123 79.3965 74.2334 78.9785C73.8584 78.5566 73.3115 78.3457 72.5928 78.3457C72.1318 78.3457 71.7451 78.4473 71.4326 78.6504C71.1201 78.8535 70.8896 79.1309 70.7412 79.4824H70.6357V78.4863H68.9248V84.9375Z" fill="black"/>
</svg>
