<svg width="112" height="99" viewBox="0 0 112 99" fill="none" xmlns="http://www.w3.org/2000/svg">
<rect x="1.5" y="1.5" width="109" height="96" rx="14.5" fill="white" stroke="#ADC6F7" stroke-width="3"/>
<path d="M50.5832 68.1663C50.5832 68.5927 50.2898 68.9375 49.926 68.9375H47.6045C47.2412 68.9375 46.9458 68.5927 46.9458 68.1663L47.5395 66.5416C47.5395 66.1153 47.8334 65.7704 48.1972 65.7704H49.3332C49.6966 65.7704 49.9909 66.1153 49.9909 66.5416L50.5832 68.1663Z" fill="#26A2BD"/>
<path d="M62.375 68.1663C62.375 68.5927 62.6689 68.9375 63.0327 68.9375H65.3547C65.7185 68.9375 66.0124 68.5927 66.0124 68.1663L65.4186 66.5416C65.4186 66.1153 65.1243 65.7704 64.7609 65.7704H63.6259C63.2626 65.7704 62.9682 66.1153 62.9682 66.5416L62.375 68.1663Z" fill="#26A2BD"/>
<path d="M47.5391 66.5414L46.9854 68.0567C47.0768 68.3136 47.3177 68.499 47.6041 68.499H49.9255C50.2109 68.499 50.4533 68.3136 50.5432 68.0567L49.9905 66.5414C49.9905 66.1151 49.6961 65.7703 49.3328 65.7703H48.1968C47.833 65.7703 47.5391 66.1151 47.5391 66.5414Z" fill="#47C6CC"/>
<path d="M62.9678 66.5414L62.4146 68.0567C62.505 68.3136 62.7454 68.499 63.0323 68.499H65.3542C65.6401 68.499 65.881 68.3136 65.9719 68.0567L65.4182 66.5414C65.4182 66.1151 65.1238 65.7703 64.7605 65.7703H63.6255C63.2622 65.7703 62.9678 66.1151 62.9678 66.5414Z" fill="#47C6CC"/>
<path d="M69.5013 21.0162C69.5013 19.8732 68.6817 18.9376 67.6807 18.9376H45.2757C44.2747 18.9376 43.4561 19.8732 43.4561 21.0162V64.7315C43.4561 65.875 44.2747 66.8096 45.2757 66.8096H67.6807C68.6817 66.8096 69.5013 65.875 69.5013 64.7315V21.0162Z" fill="#1B6B75"/>
<path d="M67.6807 64.9869H45.2757C44.2747 64.9869 43.4561 64.0873 43.4561 62.9873V64.7315C43.4561 65.875 44.2747 66.8096 45.2757 66.8096H67.6807C68.6817 66.8096 69.5013 65.875 69.5013 64.7315V62.9873C69.5013 64.0873 68.6817 64.9869 67.6807 64.9869Z" fill="#0E4F5C"/>
<path d="M67.6807 18.9373H45.2757C44.2747 18.9373 43.4561 19.8729 43.4561 21.0159V50.0923H69.5013V21.0159C69.5013 19.8729 68.6817 18.9373 67.6807 18.9373Z" fill="#47C6CC"/>
<path d="M46.2513 54.0761C46.2513 53.6623 45.9389 53.3255 45.5546 53.3255C45.1698 53.3255 44.8579 53.6623 44.8579 54.0761V57.8294C44.8579 58.2438 45.1698 58.5791 45.5546 58.5791C45.9389 58.5791 46.2513 58.2438 46.2513 57.8294V54.0761Z" fill="#FFC259"/>
<path d="M46.2513 46.9763C46.2513 47.3581 45.9389 47.668 45.5546 47.668C45.1698 47.668 44.8579 47.3581 44.8579 46.9763V41.4877C44.8579 41.1054 45.1698 40.7956 45.5546 40.7956C45.9389 40.7956 46.2513 41.1054 46.2513 41.4877V46.9763Z" fill="#FFC259"/>
<path d="M45.5546 47.6679C45.1698 47.6679 44.8579 47.358 44.8579 46.9762V47.4954C44.8579 47.9093 45.1698 48.2456 45.5546 48.2456C45.9389 48.2456 46.2513 47.9093 46.2513 47.4954V46.9762C46.2513 47.358 45.9389 47.6679 45.5546 47.6679Z" fill="#FFA442"/>
<path d="M45.5546 58.1458C45.1698 58.1458 44.8579 57.8379 44.8579 57.4576V57.8294C44.8579 58.2438 45.1698 58.5791 45.5546 58.5791C45.9389 58.5791 46.2513 58.2438 46.2513 57.8294V57.4576C46.2513 57.8379 45.9389 58.1458 45.5546 58.1458Z" fill="#FFA442"/>
<path d="M67.6807 18.9374H45.2757C44.2747 18.9374 43.4561 19.873 43.4561 21.016V23.4199H69.5013V21.016C69.5013 19.873 68.6817 18.9374 67.6807 18.9374Z" fill="#FFC259"/>
<path d="M46.9777 21.1789C46.9777 21.4917 46.7239 21.7456 46.411 21.7456C46.0976 21.7456 45.8438 21.4917 45.8438 21.1789C45.8438 20.8655 46.0976 20.6116 46.411 20.6116C46.7239 20.6116 46.9777 20.8655 46.9777 21.1789Z" fill="#0E4F5C"/>
<path d="M49.0349 21.1789C49.0349 21.4917 48.781 21.7456 48.4676 21.7456C48.1543 21.7456 47.9004 21.4917 47.9004 21.1789C47.9004 20.8655 48.1543 20.6116 48.4676 20.6116C48.781 20.6116 49.0349 20.8655 49.0349 21.1789Z" fill="white"/>
<path d="M51.0925 21.1789C51.0925 21.4917 50.8386 21.7456 50.5253 21.7456C50.2119 21.7456 49.958 21.4917 49.958 21.1789C49.958 20.8655 50.2119 20.6116 50.5253 20.6116C50.8386 20.6116 51.0925 20.8655 51.0925 21.1789Z" fill="#F8472F"/>
<path d="M67.6262 21.5312H61.0371V20.8266H67.6262V21.5312Z" fill="#F8472F"/>
<path d="M20.6611 84.9375H22.4307V81.8438H23.7959C23.8076 81.8438 23.8213 81.8438 23.8369 81.8438C23.8525 81.8438 23.8662 81.8438 23.8779 81.8438L25.4541 84.9375H27.458L25.6768 81.5801C26.1611 81.3887 26.5361 81.0781 26.8018 80.6484C27.0713 80.2148 27.2061 79.7266 27.2061 79.1836V79.1719C27.2061 78.6172 27.0869 78.1387 26.8486 77.7363C26.6143 77.334 26.2705 77.0254 25.8174 76.8105C25.3682 76.5918 24.8232 76.4824 24.1826 76.4824H20.6611V84.9375ZM22.4307 80.5547V77.8652H23.9658C24.4111 77.8652 24.7607 77.9863 25.0146 78.2285C25.2686 78.4707 25.3955 78.7969 25.3955 79.207V79.2188C25.3955 79.6367 25.2705 79.9648 25.0205 80.2031C24.7744 80.4375 24.4307 80.5547 23.9893 80.5547H22.4307ZM31.4482 85.0723C31.9209 85.0723 32.3291 85.0137 32.6729 84.8965C33.0205 84.7754 33.3096 84.6191 33.54 84.4277C33.7744 84.2363 33.958 84.0312 34.0908 83.8125C34.2236 83.5898 34.3154 83.377 34.3662 83.1738L34.3779 83.1152H32.7842L32.7666 83.1504C32.7275 83.2324 32.6533 83.3242 32.5439 83.4258C32.4385 83.5234 32.2979 83.6094 32.1221 83.6836C31.9463 83.7578 31.7334 83.7949 31.4834 83.7949C31.1748 83.7949 30.9092 83.7266 30.6865 83.5898C30.4639 83.4531 30.292 83.2559 30.1709 82.998C30.0498 82.7402 29.9893 82.4297 29.9893 82.0664V81.375C29.9893 81 30.0498 80.6836 30.1709 80.4258C30.2959 80.1641 30.4639 79.9668 30.6748 79.834C30.8896 79.6973 31.1338 79.6289 31.4072 79.6289C31.6846 79.6289 31.9268 79.6953 32.1338 79.8281C32.3447 79.957 32.5088 80.1504 32.626 80.4082C32.7471 80.666 32.8076 80.9883 32.8076 81.375V82.0605L33.6104 81.0469H29.1514V82.1191H34.4307V81.5859C34.4307 80.9336 34.3076 80.3652 34.0615 79.8809C33.8154 79.3965 33.4639 79.0195 33.0068 78.75C32.5498 78.4805 32.0068 78.3457 31.3779 78.3457C30.7529 78.3457 30.208 78.4844 29.7432 78.7617C29.2822 79.0391 28.9248 79.4297 28.6709 79.9336C28.4209 80.4375 28.2959 81.0312 28.2959 81.7148V81.7207C28.2959 82.4121 28.4229 83.0078 28.6768 83.5078C28.9307 84.0078 29.292 84.3945 29.7607 84.668C30.2334 84.9375 30.7959 85.0723 31.4482 85.0723ZM36.3291 84.9375H38.04V79.7754H39.3701V78.4863H38.0049V78C38.0049 77.7188 38.0732 77.5039 38.21 77.3555C38.3467 77.2031 38.5811 77.127 38.9131 77.127C39.0225 77.127 39.1201 77.1309 39.2061 77.1387C39.2959 77.1426 39.3682 77.1504 39.4229 77.1621V76.0195C39.2979 76 39.1631 75.9844 39.0186 75.9727C38.8779 75.9609 38.7197 75.9551 38.5439 75.9551C37.7666 75.9551 37.2021 76.1172 36.8506 76.4414C36.5029 76.7617 36.3291 77.2422 36.3291 77.8828V78.4863H35.2861V79.7754H36.3291V84.9375ZM40.7295 84.9375H42.4404V81.3281C42.4404 81.0234 42.5049 80.7617 42.6338 80.543C42.7627 80.3242 42.9463 80.1562 43.1846 80.0391C43.4229 79.918 43.7041 79.8574 44.0283 79.8574C44.1611 79.8574 44.292 79.8672 44.4209 79.8867C44.5537 79.9023 44.6846 79.9258 44.8135 79.957V78.4629C44.7275 78.4395 44.6279 78.4199 44.5146 78.4043C44.4053 78.3887 44.292 78.3809 44.1748 78.3809C43.7568 78.3809 43.4072 78.4785 43.126 78.6738C42.8447 78.8652 42.6514 79.1367 42.5459 79.4883H42.4404V78.4863H40.7295V84.9375ZM45.9678 84.9375H47.6787V78.4863H45.9678V84.9375ZM46.8291 77.4961C47.0947 77.4961 47.3213 77.4043 47.5088 77.2207C47.6963 77.0332 47.79 76.8086 47.79 76.5469C47.79 76.2812 47.6963 76.0566 47.5088 75.873C47.3213 75.6855 47.0947 75.5918 46.8291 75.5918C46.5674 75.5918 46.3408 75.6855 46.1494 75.873C45.958 76.0566 45.8623 76.2812 45.8623 76.5469C45.8623 76.8086 45.958 77.0332 46.1494 77.2207C46.3408 77.4043 46.5674 77.4961 46.8291 77.4961ZM52.249 87.2051C52.9014 87.2051 53.4658 87.1035 53.9424 86.9004C54.4189 86.7012 54.7861 86.416 55.0439 86.0449C55.3057 85.6777 55.4365 85.2422 55.4365 84.7383V78.4863H53.7256V79.541H53.6436C53.5303 79.2988 53.3799 79.0918 53.1924 78.9199C53.0049 78.748 52.7861 78.6152 52.5361 78.5215C52.29 78.4277 52.0186 78.3809 51.7217 78.3809C51.1709 78.3809 50.6963 78.5137 50.2979 78.7793C49.9033 79.0449 49.5986 79.416 49.3838 79.8926C49.1729 80.3691 49.0674 80.9238 49.0674 81.5566V81.5684C49.0674 82.1777 49.1729 82.7148 49.3838 83.1797C49.5986 83.6445 49.9014 84.0078 50.292 84.2695C50.6865 84.5273 51.1533 84.6562 51.6924 84.6562C51.9893 84.6562 52.2607 84.6172 52.5068 84.5391C52.7568 84.457 52.9756 84.3379 53.1631 84.1816C53.3545 84.0254 53.5088 83.834 53.626 83.6074H53.7314V84.8086C53.7314 85.1836 53.6045 85.4727 53.3506 85.6758C53.0967 85.8828 52.7412 85.9863 52.2842 85.9863C51.9053 85.9863 51.6045 85.9277 51.3818 85.8105C51.1631 85.6934 51.0303 85.541 50.9834 85.3535L50.9775 85.3301H49.2842V85.3594C49.3311 85.7227 49.4756 86.043 49.7178 86.3203C49.96 86.6016 50.292 86.8184 50.7139 86.9707C51.1396 87.127 51.6514 87.2051 52.249 87.2051ZM52.2725 83.3438C51.9639 83.3438 51.7021 83.2695 51.4873 83.1211C51.2725 82.9688 51.1064 82.7598 50.9893 82.4941C50.876 82.2246 50.8193 81.9141 50.8193 81.5625V81.5508C50.8193 81.1953 50.876 80.8848 50.9893 80.6191C51.1064 80.3496 51.2725 80.1406 51.4873 79.9922C51.7021 79.8438 51.9639 79.7695 52.2725 79.7695C52.5811 79.7695 52.8447 79.8438 53.0635 79.9922C53.2822 80.1406 53.4502 80.3496 53.5674 80.6191C53.6885 80.8887 53.749 81.1992 53.749 81.5508V81.5625C53.749 81.918 53.6885 82.2285 53.5674 82.4941C53.4502 82.7598 53.2822 82.9688 53.0635 83.1211C52.8447 83.2695 52.5811 83.3438 52.2725 83.3438ZM59.9834 85.0723C60.4561 85.0723 60.8643 85.0137 61.208 84.8965C61.5557 84.7754 61.8447 84.6191 62.0752 84.4277C62.3096 84.2363 62.4932 84.0312 62.626 83.8125C62.7588 83.5898 62.8506 83.377 62.9014 83.1738L62.9131 83.1152H61.3193L61.3018 83.1504C61.2627 83.2324 61.1885 83.3242 61.0791 83.4258C60.9736 83.5234 60.833 83.6094 60.6572 83.6836C60.4814 83.7578 60.2686 83.7949 60.0186 83.7949C59.71 83.7949 59.4443 83.7266 59.2217 83.5898C58.999 83.4531 58.8271 83.2559 58.7061 82.998C58.585 82.7402 58.5244 82.4297 58.5244 82.0664V81.375C58.5244 81 58.585 80.6836 58.7061 80.4258C58.8311 80.1641 58.999 79.9668 59.21 79.834C59.4248 79.6973 59.6689 79.6289 59.9424 79.6289C60.2197 79.6289 60.4619 79.6953 60.6689 79.8281C60.8799 79.957 61.0439 80.1504 61.1611 80.4082C61.2822 80.666 61.3428 80.9883 61.3428 81.375V82.0605L62.1455 81.0469H57.6865V82.1191H62.9658V81.5859C62.9658 80.9336 62.8428 80.3652 62.5967 79.8809C62.3506 79.3965 61.999 79.0195 61.542 78.75C61.085 78.4805 60.542 78.3457 59.9131 78.3457C59.2881 78.3457 58.7432 78.4844 58.2783 78.7617C57.8174 79.0391 57.46 79.4297 57.2061 79.9336C56.9561 80.4375 56.8311 81.0312 56.8311 81.7148V81.7207C56.8311 82.4121 56.958 83.0078 57.2119 83.5078C57.4658 84.0078 57.8271 84.3945 58.2959 84.668C58.7686 84.9375 59.3311 85.0723 59.9834 85.0723ZM64.3662 84.9375H66.0771V81.3281C66.0771 81.0234 66.1416 80.7617 66.2705 80.543C66.3994 80.3242 66.583 80.1562 66.8213 80.0391C67.0596 79.918 67.3408 79.8574 67.665 79.8574C67.7979 79.8574 67.9287 79.8672 68.0576 79.8867C68.1904 79.9023 68.3213 79.9258 68.4502 79.957V78.4629C68.3643 78.4395 68.2646 78.4199 68.1514 78.4043C68.042 78.3887 67.9287 78.3809 67.8115 78.3809C67.3936 78.3809 67.0439 78.4785 66.7627 78.6738C66.4814 78.8652 66.2881 79.1367 66.1826 79.4883H66.0771V78.4863H64.3662V84.9375ZM71.2334 85.0371C71.5146 85.0371 71.7744 85 72.0127 84.9258C72.2549 84.8477 72.4658 84.7383 72.6455 84.5977C72.8291 84.4531 72.9756 84.2812 73.085 84.082H73.1904V84.9375H74.8779V80.5312C74.8779 80.0742 74.7725 79.6836 74.5615 79.3594C74.3545 79.0312 74.0518 78.7812 73.6533 78.6094C73.2549 78.4336 72.7705 78.3457 72.2002 78.3457C71.6611 78.3457 71.1865 78.4238 70.7764 78.5801C70.3701 78.7363 70.0459 78.9551 69.8037 79.2363C69.5654 79.5176 69.4229 79.8477 69.376 80.2266L69.3701 80.2793H70.9521L70.9639 80.2559C71.0303 80.0645 71.1592 79.918 71.3506 79.8164C71.5459 79.7109 71.7979 79.6582 72.1064 79.6582C72.458 79.6582 72.7256 79.7344 72.9092 79.8867C73.0967 80.0352 73.1904 80.25 73.1904 80.5312V82.5879C73.1904 82.8145 73.1299 83.0195 73.0088 83.2031C72.8877 83.3828 72.7236 83.5254 72.5166 83.6309C72.3096 83.7363 72.0732 83.7891 71.8076 83.7891C71.5107 83.7891 71.2686 83.7188 71.0811 83.5781C70.8936 83.4375 70.7998 83.2441 70.7998 82.998V82.9863C70.7998 82.752 70.8896 82.5664 71.0693 82.4297C71.249 82.293 71.5225 82.2148 71.8896 82.1953L74.0342 82.0547V81.0117L71.6318 81.1582C70.8311 81.2051 70.2139 81.3945 69.7803 81.7266C69.3467 82.0547 69.1299 82.5098 69.1299 83.0918V83.1035C69.1299 83.4941 69.2197 83.8359 69.3994 84.1289C69.5791 84.418 69.8271 84.6426 70.1436 84.8027C70.4639 84.959 70.8271 85.0371 71.2334 85.0371ZM79.2314 84.9609C79.3994 84.9609 79.5576 84.9531 79.7061 84.9375C79.8545 84.9219 79.9814 84.9043 80.0869 84.8848V83.6133C80.0049 83.6211 79.9268 83.6289 79.8525 83.6367C79.7822 83.6406 79.6924 83.6426 79.583 83.6426C79.2939 83.6426 79.083 83.5762 78.9502 83.4434C78.8213 83.3066 78.7568 83.0938 78.7568 82.8047V79.7754H80.0869V78.4863H78.7568V76.9453H77.0283V78.4863H76.0322V79.7754H77.0283V83.1973C77.0283 83.8223 77.2002 84.2734 77.5439 84.5508C77.8877 84.8242 78.4502 84.9609 79.2314 84.9609ZM84.3291 85.0723C84.9932 85.0723 85.5615 84.9395 86.0342 84.6738C86.5107 84.4043 86.876 84.0195 87.1299 83.5195C87.3838 83.0156 87.5107 82.4141 87.5107 81.7148V81.7031C87.5107 81.0078 87.3818 80.4102 87.124 79.9102C86.8662 79.4062 86.499 79.0195 86.0225 78.75C85.5498 78.4805 84.9854 78.3457 84.3291 78.3457C83.6729 78.3457 83.1064 78.4824 82.6299 78.7559C82.1572 79.0254 81.792 79.4102 81.5342 79.9102C81.2764 80.4102 81.1475 81.0078 81.1475 81.7031V81.7148C81.1475 82.4141 81.2744 83.0156 81.5283 83.5195C81.7822 84.0195 82.1475 84.4043 82.624 84.6738C83.1006 84.9395 83.6689 85.0723 84.3291 85.0723ZM84.3291 83.7305C84.0244 83.7305 83.7646 83.6523 83.5498 83.4961C83.3389 83.3359 83.1768 83.1055 83.0635 82.8047C82.9541 82.5039 82.8994 82.1406 82.8994 81.7148V81.7031C82.8994 81.2812 82.9561 80.9219 83.0693 80.625C83.1826 80.3242 83.3447 80.0938 83.5557 79.9336C83.7705 79.7695 84.0283 79.6875 84.3291 79.6875C84.6299 79.6875 84.8857 79.7695 85.0967 79.9336C85.3115 80.0938 85.4756 80.3242 85.5889 80.625C85.7021 80.9219 85.7588 81.2812 85.7588 81.7031V81.7148C85.7588 82.1367 85.7021 82.498 85.5889 82.7988C85.4756 83.0996 85.3135 83.3301 85.1025 83.4902C84.8916 83.6504 84.6338 83.7305 84.3291 83.7305ZM88.9053 84.9375H90.6162V81.3281C90.6162 81.0234 90.6807 80.7617 90.8096 80.543C90.9385 80.3242 91.1221 80.1562 91.3604 80.0391C91.5986 79.918 91.8799 79.8574 92.2041 79.8574C92.3369 79.8574 92.4678 79.8672 92.5967 79.8867C92.7295 79.9023 92.8604 79.9258 92.9893 79.957V78.4629C92.9033 78.4395 92.8037 78.4199 92.6904 78.4043C92.5811 78.3887 92.4678 78.3809 92.3506 78.3809C91.9326 78.3809 91.583 78.4785 91.3018 78.6738C91.0205 78.8652 90.8271 79.1367 90.7217 79.4883H90.6162V78.4863H88.9053V84.9375Z" fill="black"/>
</svg>
