<svg width="107" height="95" viewBox="0 0 107 95" fill="none" xmlns="http://www.w3.org/2000/svg">
<rect x="1.82812" y="1.98438" width="103.343" height="91" rx="14.5" fill="white" stroke="#ADC6F7" stroke-width="3"/>
<path d="M39.05 48.0087C41.768 48.0087 44.0958 49.5851 45.2375 51.8587L50.0666 49.4434C48.0611 45.3115 43.8361 42.4531 38.9333 42.4531C37.1263 42.4531 35.4138 42.849 33.8652 43.5462L36.1819 48.6434C37.0583 48.2448 38.025 48.0087 39.05 48.0087ZM69.6055 48.0087C71.643 48.0087 73.4555 48.9017 74.7277 50.2976L78.7513 46.6378C76.4833 44.0767 73.1791 42.4531 69.4888 42.4531C64.5222 42.4531 60.25 45.3851 58.2763 49.6059L63.343 51.9976C64.4569 49.6476 66.8319 48.0087 69.6055 48.0087Z" fill="#EA596E"/>
<path d="M39.0503 45.2314C33.6809 45.2314 29.3281 49.5842 29.3281 54.9537C29.3281 60.3231 33.6809 64.6759 39.0503 64.6759C44.4198 64.6759 48.7726 60.3231 48.7726 54.9537C48.7726 49.5842 44.4212 45.2314 39.0503 45.2314ZM39.0503 61.8981C35.2156 61.8981 32.1059 58.7898 32.1059 54.9537C32.1059 51.1176 35.2156 48.0092 39.0503 48.0092C42.8851 48.0092 45.9948 51.1176 45.9948 54.9537C45.9948 58.7898 42.8865 61.8981 39.0503 61.8981ZM69.6059 45.2314C64.2378 45.2314 59.8837 49.5842 59.8837 54.9537C59.8837 60.3231 64.2378 64.6759 69.6059 64.6759C74.9767 64.6759 79.3281 60.3231 79.3281 54.9537C79.3281 49.5842 74.9767 45.2314 69.6059 45.2314ZM69.6059 61.8981C65.7712 61.8981 62.6615 58.7898 62.6615 54.9537C62.6615 51.1176 65.7712 48.0092 69.6059 48.0092C73.442 48.0092 76.5503 51.1176 76.5503 54.9537C76.5503 58.7898 73.442 61.8981 69.6059 61.8981Z" fill="#292F33"/>
<path d="M70.9721 54.8453C70.9652 54.7523 70.943 54.662 70.9166 54.5703C70.8902 54.4801 70.861 54.3953 70.818 54.312C70.7999 54.2787 70.7971 54.2398 70.7777 54.2078L61.0555 38.9301C60.643 38.2828 59.786 38.0912 59.1374 38.5037C58.7221 38.7676 58.5207 39.2162 58.5194 39.6745H45.9944C45.2277 39.6745 44.6055 40.2953 44.6055 41.0634C44.6055 41.8315 45.2277 42.4523 45.9944 42.4523H59.8832C59.9207 42.4523 59.9527 42.4328 59.9902 42.4301L67.0749 53.5648H54.3277C53.561 53.5648 52.9388 54.1856 52.9388 54.9537C52.9388 55.7217 53.561 56.3426 54.3277 56.3426H69.6069C69.768 56.3426 69.9263 56.3037 70.0832 56.2467C70.1305 56.2287 70.1721 56.2092 70.218 56.187C70.261 56.1634 70.3096 56.1537 70.3527 56.1259C70.3944 56.0981 70.4194 56.0551 70.4569 56.0259C70.5332 55.9648 70.5999 55.9023 70.661 55.8273C70.718 55.7592 70.7638 55.6898 70.8055 55.6134C70.8471 55.5356 70.8819 55.4606 70.9096 55.3745C70.9388 55.2828 70.9555 55.1912 70.9652 55.0953C70.9707 55.0453 70.9944 55.0037 70.9944 54.9537C70.9944 54.9162 70.9749 54.8828 70.9721 54.8453Z" fill="#DD2E44"/>
<path d="M59.3018 36.8984L55.2754 48.172L47.0407 38.7623C46.5352 38.1859 45.6574 38.1248 45.081 38.6318C44.5046 39.1373 44.4463 40.0137 44.9504 40.5915L54.206 51.1679L53.0199 54.4873C52.7629 55.2082 53.1393 56.004 53.8616 56.2609C54.0157 56.3165 54.1727 56.3429 54.3282 56.3429C54.8991 56.3429 55.4338 55.9887 55.6366 55.4207L62.2518 36.8984H59.3018Z" fill="#DD2E44"/>
<path d="M39.0504 56.3423C38.842 56.3423 38.6295 56.2951 38.4309 56.1965C37.7448 55.8534 37.467 55.0187 37.8101 54.3326L42.0629 45.8521C42.0865 45.8132 44.6059 41.9687 44.6059 38.2868C44.6059 33.784 41.4212 32.6715 41.3893 32.6604C40.6615 32.4173 40.2684 31.6312 40.5115 30.9034C40.7531 30.1757 41.5379 29.7784 42.2684 30.0257C42.4768 30.0951 47.3837 31.8048 47.3837 38.2868C47.3837 42.5479 44.8337 46.6784 44.424 47.3104L40.2934 55.5729C40.0504 56.0618 39.5601 56.3423 39.0504 56.3423Z" fill="#DD2E44"/>
<path d="M49.6227 33.6521C49.5477 33.6521 49.47 33.6466 49.3936 33.6327L41.0602 32.2438C40.3047 32.1174 39.7922 31.4021 39.9186 30.6452C40.045 29.8896 40.7533 29.3771 41.5172 29.5035L49.8505 30.8924C50.6061 31.0188 51.1186 31.7341 50.9922 32.491C50.8783 33.1702 50.2894 33.6521 49.6227 33.6521ZM65.9713 38.2869C65.9297 38.2869 65.8894 38.2841 65.8477 38.2785L57.97 37.2952C57.4533 37.2313 57.0755 36.7758 57.1088 36.2563C57.1408 35.7369 57.5713 35.3327 58.0908 35.3327C58.1477 35.3327 63.7394 35.3077 66.4088 33.5285C66.7561 33.2966 67.2172 33.3105 67.5533 33.5646C67.8852 33.8216 68.0213 34.2605 67.888 34.6591L66.9033 37.6133C66.77 38.0202 66.3908 38.2869 65.9713 38.2869Z" fill="#292F33"/>
<path d="M57.1063 54.9536C57.1063 56.4869 55.8633 57.7313 54.3286 57.7313C52.7952 57.7313 51.5508 56.4869 51.5508 54.9536C51.5508 53.4202 52.7952 52.1758 54.3286 52.1758C55.8633 52.1758 57.1063 53.4202 57.1063 54.9536Z" fill="#66757F"/>
</svg>
