<svg width="112" height="99" viewBox="0 0 112 99" fill="none" xmlns="http://www.w3.org/2000/svg">
<rect x="1.5" y="1.5" width="109" height="96" rx="14.5" fill="white" stroke="#ADC6F7" stroke-width="3"/>
<path d="M56.3189 67.1389C56.3565 67.3644 56.389 67.6187 56.2674 67.806C56.1251 68.0258 55.8406 68.0564 55.593 68.0755C54.4684 68.1634 53.3577 68.4558 52.3218 68.9375C54.3371 68.7559 56.3628 68.5724 58.379 68.7425C58.0024 68.5495 57.6258 68.3545 57.2493 68.1615C57.1389 68.1041 57.0267 68.0468 56.9365 67.957C56.7824 67.806 56.7086 67.5823 56.652 67.3664C56.4529 66.6037 56.3966 65.8067 56.3657 65.0154C56.3227 63.9125 56.3273 62.8097 56.3796 61.7068C56.4132 61.0015 55.8468 60.6192 55.4265 61.2844C55.1506 61.7202 55.3709 62.0986 55.5075 62.544C55.9532 63.9928 56.068 65.6366 56.3189 67.1389Z" fill="#513E38"/>
<path d="M60.7415 67.1389C60.7792 67.3644 60.8118 67.6187 60.6903 67.806C60.5479 68.0258 60.2635 68.0564 60.0158 68.0755C58.8912 68.1634 57.7806 68.4558 56.7446 68.9375C58.7598 68.7559 60.7857 68.5724 62.8019 68.7425C62.4253 68.5495 62.0486 68.3545 61.672 68.1615C61.5618 68.1041 61.4496 68.0468 61.3591 67.957C61.2051 67.806 61.1314 67.5823 61.0749 67.3664C60.8758 66.6037 60.8193 65.8067 60.7883 65.0154C60.7456 63.9125 60.7502 62.8097 60.8025 61.7068C60.836 61.0015 60.2697 60.6192 59.8492 61.2844C59.5735 61.7202 59.7938 62.0986 59.9303 62.544C60.3758 63.9928 60.4909 65.6366 60.7415 67.1389Z" fill="#513E38"/>
<path d="M54.3324 61.3533C54.6969 62.1026 55.2474 62.9321 56.0294 62.9015C56.7403 62.8729 57.2362 62.1351 57.5284 61.4336C57.9562 60.4053 58.1965 59.2852 58.2315 58.1594C58.2557 57.3796 58.1748 56.5692 57.8176 55.8926C57.3731 55.0477 56.5313 54.4992 55.648 54.3252C54.7646 54.1532 53.8458 54.3252 53.0075 54.6731C52.7998 54.7591 52.5879 54.8623 52.4454 55.0458C51.9186 55.7263 52.7665 57.4522 53.0013 58.1346C53.3813 59.2355 53.826 60.3116 54.3324 61.3533Z" fill="#7C5F56"/>
<path d="M37.4561 34.2843C38.795 34.3779 40.1943 34.5251 41.3187 35.3164C41.135 34.548 41.0088 33.7663 40.941 32.975C40.8829 32.3003 41.0117 31.4918 40.8705 30.8457C40.4108 30.9183 39.9105 32.306 39.6012 32.6902C39.196 33.1929 38.1438 34.3321 37.4561 34.2843Z" fill="#513E38"/>
<path d="M40.2959 33.2653C40.513 35.6431 42.4022 37.7169 44.5965 37.9864C44.3831 41.3523 44.8645 44.766 45.9953 47.9102C46.5267 49.3877 47.2029 50.8117 48.0781 52.0827C50.1713 55.1237 53.3027 57.1555 56.5593 58.5584C59.1763 59.6842 61.964 60.4602 64.7799 60.3857C66.2578 60.3475 67.8575 59.9996 68.8233 58.7897C69.3043 58.1857 69.5792 57.425 69.8081 56.6681C72.1969 48.7665 69.6629 40.6623 64.254 34.7581C58.9118 28.9284 50.5276 25.2223 43.253 27.9001C41.3327 28.6073 40.1048 31.1705 40.2959 33.2653Z" fill="#917163"/>
<path d="M69.9671 62.8175C70.4564 63.0621 71.0099 63.2934 71.5217 63.108C72.0335 62.9245 72.3417 62.1141 71.9271 61.7394C72.8182 62.5785 73.8237 63.2743 74.901 63.7961C75.122 63.9031 75.4225 63.9853 75.5725 63.7789C75.6566 63.6642 75.6525 63.5017 75.6392 63.3565C75.4387 61.1488 74.0915 59.2967 73.1279 57.3395C72.3341 55.7263 71.7821 53.9736 71.4998 52.1731C71.3102 50.9632 71.241 49.7284 70.9585 48.5396C70.676 47.3507 70.1473 46.179 69.2348 45.4489C68.3961 44.7799 67.2995 44.5505 66.264 44.6824C65.2282 44.8124 64.2479 45.2769 63.3671 45.8809C61.4468 47.1959 59.8619 49.4666 60.0749 51.915C60.3175 54.7037 62.5458 56.2328 64.052 58.2168C65.599 60.2562 67.7721 61.7146 69.9671 62.8175Z" fill="#917163"/>
<path d="M46.1132 24.2801C45.7294 22.6612 44.0592 21.4761 42.5695 21.9177C42.4352 21.9578 42.2909 22.0094 42.1612 21.954C41.9968 21.8852 41.9264 21.6749 41.9049 21.4857C41.831 20.8377 42.1098 20.1802 42.5541 19.7387C42.9984 19.2991 43.5899 19.0621 44.1866 18.9742C44.609 18.913 45.0439 18.9226 45.4548 19.0449C46.2933 19.2972 46.975 20.0159 47.3384 20.8702C47.7019 21.7246 47.77 22.7032 47.6514 23.636C47.4405 25.2931 46.4835 27.409 45.0575 28.2061C45.1966 27.6078 45.7182 27.1395 45.9384 26.5565C46.2085 25.8379 46.2924 25.037 46.1132 24.2801Z" fill="#513E38"/>
<path d="M47.1673 36.4694C47.4572 36.1942 47.7434 35.9113 47.972 35.5749C48.8304 34.3153 48.6603 32.3676 47.5987 31.3049C48.991 31.7216 49.9285 33.2927 49.9669 34.8562C50.0052 36.4178 49.2691 37.9182 48.2322 39.0077C47.1954 40.0972 45.8802 40.8216 44.5438 41.416C44.7881 41.3071 44.0954 38.3598 44.4837 37.9259C44.6623 37.7271 45.5219 37.6678 45.8028 37.5187C46.3038 37.2531 46.7497 36.8631 47.1673 36.4694Z" fill="#EACCAD"/>
<path d="M44.5138 26.8813C46.1062 26.2505 47.8482 26.1798 49.5339 26.3786C50.4345 26.4837 52.3186 27.2635 53.127 27.7051C51.3397 27.512 48.5179 27.4279 47.0354 28.525C46.1657 29.1692 45.4195 30.0044 44.5037 30.5683C43.9183 30.9276 43.2705 31.1665 42.605 31.2755C42.1593 31.3481 41.023 31.5526 40.7476 31.092C40.2125 30.1956 42.0591 28.4639 42.5905 28.0204C43.1712 27.5349 43.825 27.1527 44.5138 26.8813Z" fill="#E5893C"/>
<path d="M42.5976 31.4017C42.6282 31.761 42.8152 32.0878 43.0551 32.3382C43.5908 32.8963 44.4198 33.1047 45.1249 32.8486C45.8299 32.5905 46.3753 31.8738 46.4595 31.0729C46.4823 30.8569 46.4735 30.6352 46.4191 30.425C46.2541 29.7923 45.6796 29.3508 45.08 29.2361C44.0352 29.0354 42.4902 30.1325 42.5976 31.4017Z" fill="#454C8C"/>
<path d="M43.1245 31.6391C43.1826 31.9526 43.4554 32.1667 43.7306 32.2814C44.1205 32.4438 44.5754 32.4668 44.9476 32.2603C45.809 31.7844 45.5712 30.6376 44.7733 30.263C44.0942 29.9418 42.9685 30.8 43.1245 31.6391Z" fill="#513E38"/>
<path d="M53.2908 42.7572C53.5429 44.8081 54.5018 46.7004 55.7519 48.2677C57.2632 50.16 59.2199 51.6336 61.3855 52.509C62.2985 52.8798 63.3523 53.134 64.2209 52.6562C64.7846 53.3366 65.4183 53.9865 66.2055 54.3172C66.9927 54.6478 67.9654 54.5981 68.5909 53.9827C69.4115 55.3245 70.7302 56.2954 72.1836 56.6318C72.305 55.8099 72.2656 54.9651 72.1068 54.149C71.5054 51.0621 69.3161 48.6863 67.4288 46.2818C65.9785 44.4354 64.653 42.4648 63.0594 40.7599C61.7996 39.4124 60.3789 38.2407 58.8441 37.285C58.3242 36.9601 57.7819 36.6562 57.1938 36.5262C54.0542 35.8362 52.9718 40.1597 53.2908 42.7572Z" fill="#513E38"/>
<path d="M54.1219 38.1049C53.2603 40.3049 53.6661 42.9062 54.7421 44.9915C55.8183 47.0768 57.493 48.7206 59.2363 50.1847C60.4144 51.1748 61.8346 52.1515 63.2942 51.817C63.839 51.6928 64.4029 51.2933 64.4592 50.695C64.9316 51.687 65.5117 52.7039 66.4411 53.1894C67.3706 53.6768 68.7213 53.3595 69.0532 52.3025C69.4065 53.4245 70.4568 54.2463 71.5533 54.2578C71.751 54.2578 71.9651 54.2291 72.1075 54.0801C72.2345 53.9482 72.2772 53.7494 72.306 53.5602C72.5216 52.1496 72.2843 50.7046 71.9697 49.315C71.1413 45.6567 69.7692 42.1417 67.9223 38.9497C67.0056 37.3633 65.947 35.8303 64.5331 34.7562C61.1578 32.193 55.7452 33.9629 54.1219 38.1049Z" fill="#454C8C"/>
<path d="M58.2312 47.1494C58.9714 46.7346 59.4908 45.8917 59.5588 44.9934C60.2089 45.6451 61.2715 45.6375 62.035 45.1501C62.7984 44.6627 63.2934 43.7911 63.5783 42.8832C63.7981 43.1948 64.1888 43.3324 64.5498 43.2903C64.9107 43.2464 65.2428 43.0457 65.5191 42.7915C66.0123 42.3366 66.3552 41.6943 66.4732 41.0043C66.8534 41.4038 67.5469 41.2452 67.8607 40.7845C68.1744 40.3239 68.1631 39.6759 67.9727 39.1427C68.1066 39.6129 68.3287 40.0506 68.4603 40.5246C68.5919 40.9967 68.6228 41.5357 68.387 41.9581C68.1513 42.3805 67.5812 42.5984 67.2157 42.3022C67.5923 43.1126 67.2147 44.1887 66.4895 44.6436C65.7643 45.0985 64.8047 44.9762 64.1093 44.4696C64.3091 45.4636 63.8334 46.5702 63.0024 47.0462C62.1714 47.5202 61.0579 47.3214 60.4124 46.5817C60.6343 47.5164 60.3924 48.5638 59.7907 49.2767C59.6332 49.4621 59.4447 49.6322 59.2187 49.6953C59.0074 49.7565 58.7831 49.7182 58.5707 49.6628C57.6465 49.4182 56.7421 48.7721 56.2226 47.8986C55.8271 47.2335 56.0753 47.2813 56.6344 47.394C57.1714 47.5011 57.7447 47.4208 58.2312 47.1494Z" fill="#513E38"/>
<path d="M58.3926 61.6893C58.757 62.4385 59.3075 63.268 60.0894 63.2375C60.8004 63.2088 61.2963 62.471 61.5883 61.7695C62.0162 60.7412 62.2565 59.6212 62.2914 58.4954C62.3158 57.7155 62.2349 56.9051 61.8777 56.2285C61.4332 55.3837 60.5913 54.8351 59.708 54.6612C58.8247 54.4891 57.9059 54.6612 57.0675 55.009C56.8599 55.095 56.6481 55.1964 56.5053 55.3818C55.9787 56.0622 56.8267 57.7882 57.0615 58.4705C57.4413 59.5715 57.8861 60.6476 58.3926 61.6893Z" fill="#917163"/>
<path d="M45.6272 42.3411C45.6607 43.0426 45.7867 43.7364 46.0057 44.3977C46.0616 44.5659 46.3121 44.4933 46.2555 44.3232C46.0443 43.6848 45.9188 43.0177 45.8863 42.3411C45.8778 42.1614 45.6185 42.1595 45.6272 42.3411Z" fill="#EACCAD"/>
<path d="M46.68 42.0689C46.7627 42.3938 46.8452 42.7206 46.9279 43.0475C46.9718 43.2214 47.222 43.1469 47.1777 42.9729C47.0952 42.6461 47.0125 42.3193 46.93 41.9943C46.886 41.8204 46.6358 41.893 46.68 42.0689Z" fill="#EACCAD"/>
<path d="M47.2405 45.3304C47.4042 45.8101 47.5678 46.2918 47.7314 46.7715C47.7556 46.8423 47.8192 46.8901 47.8909 46.869C47.954 46.8499 48.0056 46.7677 47.9814 46.697C47.8178 46.2173 47.654 45.7356 47.4904 45.2558C47.4662 45.1851 47.4025 45.1354 47.3311 45.1564C47.2678 45.1756 47.2163 45.2577 47.2405 45.3304Z" fill="#EACCAD"/>
<path d="M46.884 47.4787C47.0633 47.7845 47.2428 48.0922 47.4223 48.3999C47.4595 48.463 47.5376 48.4879 47.5994 48.4496C47.6584 48.4114 47.6835 48.3216 47.6459 48.2585C47.4666 47.9508 47.2871 47.643 47.1076 47.3372C47.0704 47.2722 46.9923 47.2474 46.9304 47.2856C46.8716 47.3238 46.8463 47.4137 46.884 47.4787Z" fill="#EACCAD"/>
<path d="M48.8942 50.9342C48.9553 50.9762 49.015 51.0202 49.0731 51.068L49.0968 51.0871L49.0986 51.089L49.1401 51.1234C49.1691 51.1502 49.1978 51.175 49.2259 51.2018C49.3358 51.305 49.4386 51.4158 49.5342 51.5343C49.5789 51.5898 49.6724 51.5879 49.7174 51.5343C49.7676 51.477 49.7651 51.3967 49.7174 51.3375C49.5164 51.0871 49.2818 50.8711 49.0249 50.6914C48.9678 50.6513 48.8793 50.6761 48.8477 50.7411C48.8136 50.8118 48.8332 50.8921 48.8942 50.9342Z" fill="#EACCAD"/>
<path d="M48.8956 48.8701C49.0509 49.1128 49.2062 49.3575 49.3616 49.6022C49.4 49.6614 49.477 49.6939 49.539 49.6519C49.5943 49.6136 49.6264 49.5238 49.5853 49.4607C49.43 49.2161 49.2747 48.9714 49.1194 48.7287C49.0809 48.6675 49.0039 48.635 48.9421 48.6771C48.8866 48.7153 48.8544 48.8051 48.8956 48.8701Z" fill="#EACCAD"/>
<path d="M49.6383 45.9453C49.7116 46.1918 49.8142 46.4307 49.9451 46.6486C49.982 46.7098 50.0615 46.7404 50.1223 46.6983C50.179 46.6582 50.2083 46.5722 50.1688 46.5072C50.1075 46.404 50.052 46.297 50.0036 46.188C49.9923 46.1632 49.9813 46.1364 49.9707 46.1096L49.9617 46.0886L49.9448 46.0427C49.9241 45.9854 49.9054 45.9281 49.8882 45.8707C49.8676 45.8 49.7974 45.7484 49.7287 45.7732C49.6642 45.7943 49.6162 45.8707 49.6383 45.9453Z" fill="#EACCAD"/>
<path d="M48.7233 42.589C48.8012 42.8317 48.8795 43.0725 48.9576 43.3153C48.9798 43.3841 49.0473 43.4376 49.1169 43.4128C49.18 43.3898 49.2314 43.3134 49.2074 43.2407C49.1293 42.998 49.0512 42.7572 48.9733 42.5144C48.9508 42.4456 48.8835 42.3921 48.8138 42.4169C48.7507 42.4399 48.6993 42.5144 48.7233 42.589Z" fill="#EACCAD"/>
<path d="M48.3613 40.6704C48.3904 40.7583 48.4198 40.8444 48.4489 40.9323C48.4606 40.9667 48.4781 40.9954 48.5085 41.0145C48.5362 41.0336 48.5772 41.0412 48.6084 41.0298C48.6397 41.0183 48.6699 40.9973 48.6858 40.9648C48.7014 40.9342 48.7107 40.8922 48.6989 40.8577C48.6696 40.7698 48.6404 40.6819 48.6113 40.5959C48.5994 40.5615 48.5821 40.5309 48.5517 40.5118C48.5238 40.4946 48.483 40.4869 48.4518 40.4984C48.4205 40.508 48.3903 40.529 48.3744 40.5615C48.3588 40.594 48.3495 40.6341 48.3613 40.6704Z" fill="#EACCAD"/>
<path d="M49.7315 39.2791C49.7617 39.4512 49.7919 39.6251 49.8223 39.7971C49.8349 39.8697 49.9188 39.9175 49.9817 39.8946C50.0529 39.8698 50.0857 39.799 50.0721 39.7226C50.0419 39.5506 50.0117 39.3766 49.9815 39.2046C49.9688 39.132 49.8849 39.0842 49.822 39.1071C49.7508 39.132 49.7179 39.2027 49.7315 39.2791Z" fill="#EACCAD"/>
<path d="M51.6971 39.7566C51.6589 40.288 51.6921 40.8231 51.7907 41.3449C51.8239 41.5208 52.0739 41.4462 52.0405 41.2704C51.9467 40.7715 51.9198 40.2631 51.956 39.7566C51.9615 39.6821 51.8926 39.6171 51.8265 39.6171C51.752 39.6171 51.7024 39.6801 51.6971 39.7566Z" fill="#EACCAD"/>
<path d="M50.7632 43.5965C50.9353 43.994 51.1074 44.3916 51.2794 44.7892C51.3091 44.858 51.4003 44.8752 51.4568 44.8389C51.5216 44.7987 51.5331 44.7165 51.5033 44.6477C51.3312 44.2502 51.1591 43.8526 50.9869 43.455C50.9574 43.3862 50.8661 43.369 50.8097 43.4034C50.7447 43.4455 50.7334 43.5277 50.7632 43.5965Z" fill="#EACCAD"/>
<path d="M52.0992 47.731C52.3098 48.098 52.5396 48.4516 52.7853 48.7937C52.8283 48.853 52.9233 48.8415 52.9685 48.7937C53.0231 48.7345 53.0116 48.6561 52.9685 48.595C52.7366 48.2738 52.5218 47.9355 52.3228 47.5896C52.2861 47.5246 52.2071 47.4997 52.1456 47.538C52.0863 47.5762 52.0621 47.666 52.0992 47.731Z" fill="#EACCAD"/>
<path d="M51.684 49.7262C51.8591 49.9154 52.0342 50.1046 52.2094 50.2938C52.2573 50.3454 52.3453 50.3493 52.3926 50.2938C52.4401 50.2384 52.4438 50.1505 52.3926 50.0951C52.2175 49.9058 52.0425 49.7166 51.8672 49.5274C51.8192 49.4758 51.7314 49.472 51.684 49.5274C51.6365 49.5828 51.6328 49.6707 51.684 49.7262Z" fill="#EACCAD"/>
<path d="M51.4745 52.999C51.6501 53.1367 51.8257 53.2743 52.0013 53.41C52.0564 53.4539 52.1479 53.4234 52.1786 53.3603C52.214 53.2877 52.1908 53.215 52.132 53.1692C51.9564 53.0315 51.7808 52.8939 51.6052 52.7563C51.5501 52.7142 51.4584 52.7448 51.428 52.8079C51.3925 52.8805 51.4155 52.9532 51.4745 52.999Z" fill="#EACCAD"/>
<path d="M53.0805 56.1576C53.5124 56.2379 53.9046 56.4692 54.1989 56.8208C54.3111 56.9546 54.4939 56.7559 54.3821 56.6221C54.0613 56.2398 53.6207 55.976 53.1494 55.8881C53.0805 55.8747 53.0098 55.9072 52.9898 55.9856C52.9729 56.0525 53.011 56.1461 53.0805 56.1576Z" fill="#EACCAD"/>
<path d="M53.9337 54.887C54.1212 55.08 54.3563 55.2195 54.6095 55.2788C54.6755 55.2941 54.7527 55.2578 54.7688 55.1813C54.7838 55.1106 54.7492 55.0246 54.6784 55.0074C54.6231 54.9959 54.5687 54.9787 54.5155 54.9577L54.472 54.9405L54.4747 54.9424L54.4558 54.9328C54.4293 54.9195 54.403 54.9061 54.3773 54.8908C54.3273 54.8621 54.2791 54.8296 54.233 54.7952L54.2 54.7685L54.2019 54.7704L54.186 54.757C54.1622 54.734 54.1392 54.713 54.1169 54.6901C54.0677 54.6385 53.9818 54.6327 53.9337 54.6901C53.8871 54.7436 53.8811 54.8334 53.9337 54.887Z" fill="#EACCAD"/>
<path d="M54.4059 51.7431C54.4719 51.8081 54.5332 51.8807 54.5891 51.9572L54.5982 51.9687L54.5917 51.9591L54.6118 51.9897C54.6249 52.0088 54.6378 52.0279 54.6504 52.0489C54.676 52.091 54.7 52.133 54.7226 52.177C54.7556 52.242 54.8419 52.2668 54.8998 52.2267C54.9599 52.1846 54.9818 52.1044 54.9464 52.0356C54.8521 51.854 54.7306 51.6858 54.5891 51.5443C54.5392 51.4946 54.4544 51.487 54.4059 51.5443C54.3599 51.5979 54.3527 51.6896 54.4059 51.7431Z" fill="#EACCAD"/>
<path d="M54.5137 48.7342C54.605 49.019 54.7646 49.2751 54.9803 49.4663C55.0327 49.5122 55.1129 49.5255 55.1636 49.4663C55.2073 49.4147 55.2196 49.3172 55.1636 49.2675C55.1156 49.2254 55.0698 49.1796 55.0274 49.1299C55.0068 49.1069 54.9868 49.0821 54.9677 49.0572L54.9518 49.0362L54.9536 49.0381L54.9241 48.9942C54.8893 48.9407 54.858 48.8852 54.8301 48.826C54.8153 48.7954 54.802 48.7648 54.7889 48.7323C54.7812 48.7151 54.7969 48.7552 54.7902 48.7361L54.781 48.7113L54.7637 48.6597C54.7414 48.5909 54.6739 48.5374 54.6043 48.5622C54.5411 48.5851 54.49 48.6597 54.5137 48.7342Z" fill="#EACCAD"/>
<path d="M50.2955 53.4365C50.4623 53.4365 50.4626 53.1555 50.2955 53.1555C50.1289 53.1555 50.1285 53.4365 50.2955 53.4365Z" fill="#EACCAD"/>
<path d="M50.3476 53.4976C50.4515 53.6333 50.5877 53.7308 50.7377 53.7939C50.767 53.8073 50.8115 53.7958 50.8375 53.7805C50.8645 53.7633 50.8902 53.7308 50.8972 53.6964C50.9046 53.6601 50.9031 53.62 50.8841 53.5894L50.8638 53.5607C50.8476 53.5435 50.8285 53.5301 50.8066 53.5244L50.7865 53.5148L50.8174 53.5301C50.7518 53.4996 50.6904 53.4594 50.634 53.4135L50.6601 53.4346C50.6128 53.3944 50.5695 53.3486 50.531 53.2989C50.5109 53.2721 50.4695 53.2587 50.4393 53.2587C50.4075 53.2587 50.3695 53.274 50.3476 53.2989C50.325 53.3256 50.3082 53.36 50.3097 53.3983C50.3114 53.4384 50.3247 53.4671 50.3476 53.4976Z" fill="#EACCAD"/>
<path d="M56.6531 56.9074C56.8835 57.1578 57.164 57.347 57.4719 57.4655C57.5359 57.4903 57.6164 57.4368 57.6313 57.3661C57.6479 57.2877 57.6094 57.2208 57.5408 57.1941C57.5066 57.1807 57.4726 57.1673 57.4391 57.152C57.4173 57.1425 57.4661 57.1654 57.4288 57.1482L57.4055 57.1367L57.359 57.1119C57.2919 57.0775 57.2266 57.0374 57.1635 56.9953C57.1329 56.9743 57.1027 56.9513 57.0732 56.9284L57.0319 56.8959L57.0275 56.894L57.0026 56.8711C56.9443 56.8214 56.8891 56.7659 56.8365 56.7086C56.7886 56.657 56.7005 56.6532 56.6531 56.7086C56.6056 56.764 56.6022 56.8519 56.6531 56.9074Z" fill="#EACCAD"/>
<path d="M55.3329 54.0501C55.5438 54.1801 55.7547 54.3119 55.9658 54.4419C56.0247 54.4782 56.1102 54.4591 56.143 54.3903C56.1757 54.3253 56.1594 54.2374 56.0966 54.1992C55.8856 54.0692 55.6747 53.9392 55.4636 53.8093C55.4048 53.7729 55.3193 53.792 55.2864 53.8589C55.2539 53.9258 55.27 54.0119 55.3329 54.0501Z" fill="#EACCAD"/>
<path d="M56.7025 52.6683C56.8595 52.8078 57.0164 52.9493 57.1734 53.0888C57.2005 53.1137 57.2286 53.1309 57.2651 53.1309C57.2967 53.1309 57.3349 53.1156 57.3566 53.0888C57.4004 53.0372 57.4125 52.9416 57.3566 52.8919C57.1996 52.7505 57.0427 52.6091 56.8858 52.4695C56.8586 52.4447 56.8305 52.4275 56.7942 52.4275C56.7624 52.4275 56.7244 52.4428 56.7025 52.4695C56.6587 52.5211 56.6468 52.6167 56.7025 52.6683Z" fill="#EACCAD"/>
<path d="M59.0164 55.7433C59.2505 55.9287 59.5285 56.0529 59.8156 56.0988C59.8822 56.1084 59.9582 56.0797 59.975 55.9994C59.9889 55.9344 59.9561 55.8389 59.8845 55.8274C59.604 55.7834 59.3745 55.6821 59.1473 55.5025C59.0924 55.4585 59.0003 55.4891 58.97 55.5522C58.9343 55.6248 58.9579 55.6974 59.0164 55.7433Z" fill="#EACCAD"/>
<path d="M60.8631 58.3445C61.0705 58.3751 61.2779 58.4076 61.4853 58.4381C61.5214 58.4439 61.5525 58.4439 61.5852 58.4229C61.612 58.4076 61.6378 58.3732 61.6449 58.3407C61.6586 58.2738 61.6261 58.1782 61.5542 58.1667C61.3468 58.1362 61.1394 58.1056 60.932 58.075C60.896 58.0693 60.8651 58.0673 60.8322 58.0884C60.8054 58.1056 60.7798 58.1381 60.7727 58.1725C60.7587 58.2375 60.7912 58.3349 60.8631 58.3445Z" fill="#EACCAD"/>
<path d="M44.1594 30.6505C43.9402 30.6563 43.7266 30.7882 43.6116 30.9889C43.4964 31.1915 43.4833 31.4571 43.578 31.6712C43.6321 31.7935 43.7254 31.9025 43.846 31.9388C43.967 31.9751 44.1142 31.9235 44.1677 31.7993C44.214 31.6942 44.1836 31.568 44.2002 31.4514C44.2158 31.3425 44.2753 31.2412 44.3601 31.18C44.4516 31.1131 44.5802 31.0806 44.6138 30.9659C44.6466 30.8551 44.5537 30.7385 44.4488 30.7117C44.3437 30.6849 44.2347 30.7213 44.1322 30.7576L44.1594 30.6505Z" fill="white"/>
<path d="M46.0322 84.9375H48.9443C49.5498 84.9375 50.0693 84.8398 50.5029 84.6445C50.9404 84.4453 51.2764 84.166 51.5107 83.8066C51.749 83.4434 51.8682 83.0156 51.8682 82.5234V82.5117C51.8682 82.1523 51.7842 81.8262 51.6162 81.5332C51.4521 81.2402 51.2236 81.002 50.9307 80.8184C50.6416 80.6348 50.3096 80.5293 49.9346 80.502V80.3965C50.2236 80.3535 50.4834 80.2461 50.7139 80.0742C50.9443 79.9023 51.126 79.6875 51.2588 79.4297C51.3955 79.1719 51.4639 78.8945 51.4639 78.5977V78.5859C51.4639 78.1523 51.3584 77.7793 51.1475 77.4668C50.9404 77.1504 50.6416 76.9082 50.251 76.7402C49.8643 76.5684 49.3955 76.4824 48.8447 76.4824H46.0322V77.7949H48.3936C48.8154 77.7949 49.1416 77.8926 49.3721 78.0879C49.6064 78.2793 49.7236 78.5469 49.7236 78.8906V78.9023C49.7236 79.25 49.5967 79.5195 49.3428 79.7109C49.0889 79.9023 48.7236 79.998 48.2471 79.998H46.0322V81.1641H48.4521C48.7998 81.1641 49.0928 81.2109 49.3311 81.3047C49.5732 81.3945 49.7549 81.5293 49.876 81.709C50.001 81.8887 50.0635 82.1094 50.0635 82.3711V82.3828C50.0635 82.7852 49.9287 83.0918 49.6592 83.3027C49.3936 83.5137 49.0049 83.6191 48.4932 83.6191H46.0322V84.9375ZM45.1475 84.9375H46.917V76.4824H45.1475V84.9375ZM53.3096 84.9375H55.0205V78.4863H53.3096V84.9375ZM54.1709 77.4961C54.4365 77.4961 54.6631 77.4043 54.8506 77.2207C55.0381 77.0332 55.1318 76.8086 55.1318 76.5469C55.1318 76.2812 55.0381 76.0566 54.8506 75.873C54.6631 75.6855 54.4365 75.5918 54.1709 75.5918C53.9092 75.5918 53.6826 75.6855 53.4912 75.873C53.2998 76.0566 53.2041 76.2812 53.2041 76.5469C53.2041 76.8086 53.2998 77.0332 53.4912 77.2207C53.6826 77.4043 53.9092 77.4961 54.1709 77.4961ZM56.7432 84.9375H58.4541V81.3281C58.4541 81.0234 58.5186 80.7617 58.6475 80.543C58.7764 80.3242 58.96 80.1562 59.1982 80.0391C59.4365 79.918 59.7178 79.8574 60.042 79.8574C60.1748 79.8574 60.3057 79.8672 60.4346 79.8867C60.5674 79.9023 60.6982 79.9258 60.8271 79.957V78.4629C60.7412 78.4395 60.6416 78.4199 60.5283 78.4043C60.4189 78.3887 60.3057 78.3809 60.1885 78.3809C59.7705 78.3809 59.4209 78.4785 59.1396 78.6738C58.8584 78.8652 58.665 79.1367 58.5596 79.4883H58.4541V78.4863H56.7432V84.9375ZM64.1318 85.0371C64.5889 85.0371 64.9834 84.9414 65.3154 84.75C65.6475 84.5547 65.8955 84.2832 66.0596 83.9355H66.165V84.9375H67.876V76.0195H66.165V79.5176H66.0596C65.8994 79.166 65.6475 78.8887 65.3037 78.6855C64.9639 78.4824 64.5732 78.3809 64.1318 78.3809C63.585 78.3809 63.1162 78.5137 62.7256 78.7793C62.335 79.0449 62.0342 79.4258 61.8232 79.9219C61.6162 80.418 61.5127 81.0117 61.5127 81.7031V81.7148C61.5127 82.4023 61.6182 82.9941 61.8291 83.4902C62.0439 83.9863 62.3467 84.3691 62.7373 84.6387C63.1318 84.9043 63.5967 85.0371 64.1318 85.0371ZM64.7119 83.6191C64.4111 83.6191 64.1514 83.543 63.9326 83.3906C63.7139 83.2383 63.5459 83.0195 63.4287 82.7344C63.3115 82.4492 63.2529 82.1094 63.2529 81.7148V81.7031C63.2529 81.3086 63.3115 80.9707 63.4287 80.6895C63.5459 80.4043 63.7139 80.1855 63.9326 80.0332C64.1553 79.877 64.415 79.7988 64.7119 79.7988C65.0127 79.7988 65.2725 79.877 65.4912 80.0332C65.7139 80.1855 65.8838 80.4043 66.001 80.6895C66.1221 80.9707 66.1826 81.3105 66.1826 81.709V81.7207C66.1826 82.1113 66.1221 82.4492 66.001 82.7344C65.8838 83.0195 65.7158 83.2383 65.4971 83.3906C65.2783 83.543 65.0166 83.6191 64.7119 83.6191Z" fill="black"/>
</svg>
