<svg width="112" height="99" viewBox="0 0 112 99" fill="none" xmlns="http://www.w3.org/2000/svg">
<rect x="1.5" y="1.5" width="109" height="96" rx="14.5" fill="white" stroke="#ADC6F7" stroke-width="3"/>
<path d="M70.6904 60.2942C69.916 60.858 69.081 61.3083 68.227 61.631C65.0921 62.8121 61.7089 62.5264 58.4658 61.904C55.2227 61.2815 52.006 60.3312 48.7226 60.2164C46.9159 60.1527 45.0593 60.3695 43.3333 60.9996C42.005 58.6973 41.3505 55.8962 41.4078 52.7864C41.4757 49.1396 43.2049 45.512 45.1941 42.5247C47.2617 41.6841 49.5989 41.5323 51.7843 41.832C55.6184 42.3588 59.2975 44.0132 63.1305 44.5604C65.2014 44.8564 67.4112 44.7543 69.4046 44.0464C70.9631 46.7046 72.181 49.7404 72.2372 52.7864C72.2892 55.5849 71.7651 58.1335 70.6904 60.2942Z" fill="#E5E0D7"/>
<path d="M55.2027 52.7445C54.7985 53.3581 54.3879 53.9703 53.9338 54.5328C53.7089 54.8109 53.4734 55.0775 53.223 55.3224C53.1912 55.3543 53.1594 55.3849 53.1265 55.4155C53.1095 55.4321 53.1159 55.4257 53.1212 55.4206C53.1276 55.4143 53.1339 55.4092 53.117 55.4245C53.0979 55.4423 53.0788 55.4589 53.0607 55.4755C52.9971 55.5329 52.9324 55.589 52.8666 55.6426C52.7372 55.7497 52.6024 55.8505 52.4645 55.9436C52.3277 56.0354 52.1855 56.1183 52.0412 56.1949C52.0179 56.2076 52.0539 56.1885 52.055 56.1872L52.0306 56.2C52.0126 56.2089 51.9935 56.2178 51.9744 56.2268C51.9362 56.2459 51.8969 56.2625 51.8587 56.2791C51.7834 56.3122 51.7081 56.3416 51.6317 56.3684C51.463 56.4283 51.2922 56.473 51.1193 56.5048C51.1087 56.5061 51.0991 56.5087 51.0896 56.5099C51.0928 56.5099 51.1278 56.5036 51.1002 56.5087C51.0779 56.5112 51.0546 56.515 51.0313 56.5176C50.9856 56.524 50.939 56.5291 50.8933 56.5329C50.8042 56.5418 50.7151 56.5457 50.6249 56.5457C50.5358 56.5469 50.4467 56.5444 50.3565 56.5367C50.3141 56.5342 50.2706 56.5303 50.2282 56.5252C50.2048 56.5227 50.1825 56.5201 50.1592 56.5163C50.1497 56.515 50.139 56.5138 50.1295 56.5125C50.1242 56.5112 50.0828 56.5048 50.1104 56.5099C50.138 56.5138 50.1051 56.5087 50.1009 56.5087C50.0881 56.5061 50.0754 56.5036 50.0616 56.501C50.0425 56.4972 50.0223 56.4934 50.0032 56.4895C49.9576 56.4806 49.912 56.4704 49.8664 56.4589C49.7783 56.4372 49.6913 56.4117 49.6054 56.3837C49.5195 56.3543 49.4346 56.3224 49.3497 56.2867C49.3094 56.2689 49.2691 56.251 49.2288 56.2319C49.2076 56.2217 49.1864 56.2115 49.1641 56.2013C49.2044 56.2204 49.1492 56.1936 49.1365 56.186C48.988 56.1069 48.8437 56.0163 48.7047 55.9143C48.6379 55.8632 48.5732 55.8109 48.5095 55.7561C48.4925 55.7421 48.4766 55.7268 48.4607 55.7127C48.4395 55.6936 48.4703 55.7217 48.4713 55.7229L48.4512 55.7038C48.4193 55.6732 48.3886 55.6426 48.3578 55.6107C48.239 55.4882 48.1297 55.3543 48.03 55.2102C48.0183 55.1923 48.0024 55.1732 47.9929 55.1528C48.012 55.1936 48.0003 55.1642 47.9876 55.1426C47.9632 55.1043 47.9409 55.0648 47.9186 55.0252C47.8751 54.9449 47.8348 54.8619 47.7977 54.7765C47.7828 54.7395 47.768 54.7025 47.7542 54.6642C47.7489 54.6527 47.7436 54.64 47.7404 54.6272C47.7404 54.6285 47.7552 54.6744 47.7467 54.6451C47.7382 54.6196 47.7298 54.5941 47.7223 54.5673C47.6969 54.4844 47.6746 54.4002 47.6587 54.3135C47.6513 54.2739 47.6449 54.2344 47.6385 54.1936C47.6375 54.1834 47.6311 54.1221 47.6353 54.1655C47.6396 54.2089 47.6322 54.1285 47.6311 54.117C47.6247 54.0328 47.6226 53.9487 47.6237 53.8632C47.6247 53.8224 47.6269 53.7816 47.63 53.7407C47.6311 53.7229 47.6322 53.7037 47.6343 53.6846C47.6375 53.6515 47.6353 53.6629 47.6343 53.6744C47.6332 53.6872 47.6322 53.6987 47.6364 53.6642C47.647 53.5813 47.6619 53.4984 47.681 53.4168C47.6894 53.3772 47.699 53.3389 47.7107 53.3007C47.7149 53.2828 47.7202 53.265 47.7266 53.2484C47.7308 53.2343 47.7542 53.1667 47.7404 53.2037C47.7266 53.2407 47.7467 53.1859 47.751 53.177C47.7584 53.1565 47.7658 53.1374 47.7743 53.1183C47.7902 53.08 47.8072 53.0417 47.8252 53.0048C47.8422 52.9703 47.8603 52.9371 47.8793 52.904C47.8878 52.89 47.8963 52.8746 47.9059 52.8593C47.9218 52.8338 47.9154 52.8428 47.9101 52.8504C47.9048 52.8593 47.9006 52.867 47.9165 52.8428C47.96 52.7803 48.0077 52.7203 48.0586 52.6655C48.0703 52.6527 48.082 52.6412 48.0936 52.6297L48.117 52.6068C48.117 52.6068 48.0809 52.6387 48.1011 52.6208C48.1308 52.5966 48.1594 52.5711 48.1902 52.5494C48.2199 52.5264 48.2517 52.5047 48.2836 52.4856C48.3005 52.4754 48.3175 52.4665 48.3345 52.4575C48.2889 52.4831 48.3546 52.4486 48.3684 52.4435C48.4066 52.4282 48.4459 52.4142 48.4862 52.4052C48.4947 52.4027 48.5488 52.3912 48.5201 52.3963C48.4894 52.4014 48.5286 52.395 48.536 52.395C48.5488 52.3938 48.5615 52.3925 48.5742 52.3925C48.6082 52.3899 48.6612 52.3823 48.6941 52.3976C48.693 52.3963 48.6517 52.3874 48.6782 52.3963L48.7058 52.4027C48.7291 52.4091 48.7525 52.418 48.7769 52.4269C48.796 52.4346 48.7917 52.432 48.7864 52.4282C48.779 52.4244 48.7705 52.4218 48.7875 52.432C48.8034 52.4422 48.8193 52.4524 48.8341 52.4639L48.8543 52.4792C48.8766 52.4971 48.8532 52.4945 48.8448 52.4703C48.8501 52.4843 48.8755 52.5022 48.8851 52.5149C48.8936 52.5239 48.9116 52.5583 48.9211 52.5621C48.9201 52.5621 48.8957 52.5188 48.9095 52.5443L48.9222 52.5672C48.9317 52.5826 48.9392 52.5979 48.9466 52.6144L48.9604 52.6476C48.9763 52.682 48.9551 52.645 48.9561 52.6323C48.9551 52.6489 48.9689 52.6782 48.9721 52.6935C48.9763 52.7114 48.9784 52.7292 48.9816 52.7471C48.989 52.7764 48.9774 52.719 48.9784 52.7178L48.9805 52.7548C48.9805 52.7675 48.9752 52.8326 48.9816 52.7892C48.988 52.7445 48.9774 52.8109 48.9742 52.8224L48.9678 52.8491C48.9646 52.8772 48.9721 52.8275 48.9763 52.8262C48.9721 52.8275 48.9339 52.9091 48.9296 52.9206C48.9307 52.9193 48.9625 52.8785 48.9466 52.8951L48.9296 52.9167L48.902 52.9461C48.8872 52.9652 48.9243 52.9257 48.9243 52.9257L48.9042 52.9422C48.8925 52.9512 48.8798 52.9588 48.8681 52.9665C48.8437 52.9818 48.8596 52.9754 48.8713 52.969C48.8798 52.9639 48.8872 52.9588 48.8713 52.9652C48.8596 52.9703 48.8479 52.9754 48.8363 52.9792C48.8214 52.9843 48.8076 52.9882 48.7928 52.992L48.7737 52.9958C48.7546 53.0009 48.7641 52.9984 48.7758 52.9958C48.7843 52.9945 48.7928 52.9933 48.796 52.9933C48.78 52.9907 48.762 52.9933 48.745 52.9946C48.7323 52.9971 48.7206 52.9984 48.709 52.9984C48.6771 52.9984 48.6453 52.9933 48.6124 52.992C48.5997 52.9907 48.6071 52.992 48.6167 52.9933C48.6305 52.9958 48.6485 52.9984 48.6315 52.9946L48.6103 52.9907C48.5965 52.9869 48.5827 52.9843 48.5679 52.9805C48.535 52.9716 48.5032 52.9614 48.4703 52.9499C48.4406 52.9384 48.4108 52.9257 48.3811 52.9129C48.3536 52.9002 48.3621 52.9053 48.3727 52.9104C48.3822 52.9155 48.3928 52.9206 48.3748 52.9104C48.3599 52.9014 48.344 52.8925 48.3292 52.8848C48.2708 52.8491 48.2146 52.8083 48.1605 52.7624C48.1446 52.7484 48.1276 52.7343 48.1106 52.719C48.1043 52.7126 48.0618 52.6757 48.0852 52.6961C48.1085 52.7178 48.0597 52.6718 48.0523 52.6655C48.0364 52.6502 48.0204 52.6336 48.0056 52.6183C47.9451 52.5558 47.8868 52.492 47.8305 52.4244C47.7733 52.3542 47.7181 52.2815 47.665 52.205C47.6544 52.1897 47.6428 52.1731 47.6322 52.1565C47.6194 52.1374 47.5982 52.1093 47.6237 52.145C47.5961 52.1055 47.5706 52.0608 47.5462 52.0175C47.455 51.8619 47.3754 51.696 47.3065 51.5251C47.2927 51.4881 47.264 51.4397 47.2598 51.3988C47.2598 51.4014 47.2757 51.446 47.2651 51.4167L47.2555 51.3874C47.2471 51.3606 47.2386 51.3351 47.2301 51.3083C47.2025 51.219 47.177 51.1284 47.1558 51.0366C47.1346 50.946 47.1155 50.8529 47.1007 50.7598C47.0932 50.7152 47.0869 50.6692 47.0816 50.6246L47.0773 50.5927C47.0773 50.5927 47.0826 50.6463 47.0794 50.6131C47.0773 50.5851 47.0741 50.557 47.072 50.5289C47.0561 50.3325 47.055 50.1348 47.0678 49.9383C47.0709 49.8912 47.0752 49.844 47.0794 49.7968C47.0826 49.77 47.0805 49.7802 47.0794 49.7904C47.0784 49.8006 47.0773 49.8108 47.0816 49.7827C47.0847 49.7547 47.089 49.7253 47.0932 49.696C47.107 49.5991 47.1251 49.5034 47.1452 49.4077C47.1664 49.3121 47.1908 49.2177 47.2184 49.1246C47.2311 49.0799 47.2449 49.0353 47.2598 48.9919L47.2704 48.9613C47.2693 48.9638 47.2545 49.0047 47.2651 48.9753C47.2746 48.9485 47.2842 48.9218 47.2948 48.8962C47.3627 48.7164 47.4444 48.5442 47.5367 48.3822C47.56 48.3426 47.5823 48.3044 47.6067 48.2661C47.6088 48.2623 47.6269 48.233 47.6109 48.2585C47.5929 48.2865 47.6163 48.2495 47.6205 48.2432C47.6322 48.2266 47.6438 48.21 47.6555 48.1921C47.7075 48.1169 47.7626 48.0442 47.821 47.974C47.9048 47.872 47.9122 47.687 47.821 47.5863C47.7298 47.4855 47.5876 47.4766 47.4985 47.5863C46.9744 48.2228 46.6625 49.0799 46.6095 49.9715C46.5596 50.8223 46.7813 51.696 47.2036 52.3797C47.4189 52.7292 47.6778 53.0417 47.9823 53.2777C48.2454 53.4818 48.5774 53.589 48.8883 53.5265C49.0336 53.4971 49.1811 53.4078 49.2765 53.2713C49.4092 53.0813 49.4569 52.853 49.4229 52.6093C49.3561 52.1246 48.954 51.8211 48.5647 51.844C47.8465 51.8874 47.3203 52.6667 47.2025 53.4716C47.1452 53.8657 47.159 54.2739 47.2651 54.6553C47.3786 55.0635 47.5717 55.4308 47.8157 55.7459C48.3175 56.3913 49.0219 56.8071 49.7359 56.9857C50.4944 57.1745 51.2933 57.1145 52.0211 56.7893C52.6841 56.4946 53.2718 56.0163 53.797 55.4525C54.3168 54.8938 54.773 54.2561 55.2112 53.6055C55.3162 53.4486 55.4212 53.2905 55.5252 53.1323C55.5994 53.0201 55.6228 52.853 55.5252 52.7445C55.4424 52.654 55.2822 52.6246 55.2027 52.7445Z" fill="#A56869"/>
<path d="M59.365 51.4626C59.486 51.3261 59.6112 51.1935 59.7385 51.0647C59.8042 51.0009 59.87 50.9371 59.9369 50.8746C59.9061 50.9027 59.9368 50.8733 59.9506 50.8618C59.9676 50.8453 59.9857 50.83 60.0026 50.8146C60.0376 50.7828 60.0737 50.7509 60.1087 50.7203C60.3782 50.4868 60.6604 50.2738 60.9521 50.0825C61.1017 49.9843 61.2524 49.8924 61.4062 49.807C61.4804 49.7662 61.5547 49.7253 61.629 49.6871C61.6364 49.6832 61.6725 49.6654 61.6459 49.6781C61.6205 49.6909 61.6491 49.6769 61.6534 49.6743C61.6703 49.6667 61.6873 49.6577 61.7054 49.6488C61.7457 49.6297 61.787 49.6093 61.8274 49.5901C62.1403 49.4447 62.4607 49.3223 62.7864 49.224C62.9477 49.1756 63.11 49.1348 63.2744 49.0978C63.3572 49.0799 63.441 49.0633 63.5248 49.048C63.5428 49.0455 63.5619 49.0416 63.5799 49.0391L63.6086 49.034C63.5587 49.0404 63.5927 49.0365 63.6033 49.0353C63.6478 49.0289 63.6913 49.0225 63.7348 49.0161C64.0987 48.9677 64.4679 48.9473 64.8339 48.9855C64.8795 48.9894 64.9241 48.9957 64.9686 49.0021C64.9793 49.0034 64.9899 49.0047 65.0005 49.0059C64.9962 49.0059 64.9644 48.9996 64.9909 49.0047C65.0185 49.0098 65.0461 49.0149 65.0737 49.02C65.166 49.0378 65.2583 49.0608 65.3495 49.0876C65.4376 49.1131 65.5246 49.1437 65.6094 49.1794C65.6476 49.1947 65.6847 49.2113 65.7219 49.2279C65.7378 49.2355 65.7537 49.2432 65.7696 49.2508C65.8004 49.2661 65.7335 49.2317 65.7633 49.2483C65.7728 49.2534 65.7834 49.2598 65.794 49.2649C65.933 49.3401 66.0667 49.4294 66.1929 49.5327C66.2237 49.5582 66.2544 49.5838 66.2841 49.6118L66.3054 49.6297C66.3043 49.6284 66.2725 49.5991 66.2926 49.6195C66.3107 49.636 66.3287 49.6539 66.3457 49.6718C66.4051 49.7304 66.4613 49.7942 66.5144 49.8605C66.5388 49.8899 66.5621 49.9205 66.5844 49.9511C66.6056 49.9804 66.648 50.0238 66.6608 50.0621C66.6597 50.0608 66.6353 50.0213 66.6502 50.0468L66.6703 50.0799C66.6809 50.0965 66.6905 50.1131 66.7 50.1297C66.7223 50.1692 66.7435 50.21 66.7647 50.2509C66.804 50.3299 66.839 50.4116 66.8698 50.497C66.8878 50.5455 66.8581 50.4588 66.8729 50.506C66.8782 50.5251 66.8846 50.543 66.8899 50.5608C66.9026 50.6042 66.9143 50.6476 66.9249 50.6922C66.9345 50.733 66.943 50.7738 66.9504 50.8159C66.9536 50.8351 66.9568 50.8542 66.9599 50.8733C66.961 50.8848 66.9727 50.9652 66.9674 50.9244C66.961 50.8848 66.9695 50.946 66.9695 50.9575C66.9716 50.9792 66.9737 51.0034 66.9748 51.0251C66.978 51.071 66.979 51.1169 66.979 51.1629C66.979 51.2024 66.978 51.242 66.9759 51.2815C66.9748 51.3249 66.9631 51.3746 66.9663 51.418C66.9663 51.418 66.9727 51.3631 66.9684 51.3937C66.9674 51.4065 66.9652 51.4193 66.9631 51.432C66.961 51.4524 66.9578 51.4716 66.9546 51.4907C66.9472 51.5353 66.9387 51.5787 66.9281 51.6233C66.9196 51.6642 66.909 51.7037 66.8973 51.7432C66.892 51.7624 66.8867 51.7802 66.8804 51.7981L66.8719 51.8261C66.8613 51.858 66.891 51.7751 66.8729 51.8223C66.8432 51.8976 66.8114 51.9728 66.7743 52.043C66.7637 52.0621 66.7531 52.08 66.7425 52.0991C66.7382 52.1068 66.7085 52.1565 66.7276 52.1259C66.7456 52.0927 66.7096 52.1514 66.7043 52.1578C66.6926 52.1756 66.6799 52.1922 66.6671 52.2088C66.6438 52.2394 66.6183 52.2688 66.5929 52.2981C66.5801 52.3109 66.5674 52.3249 66.5547 52.3376L66.5345 52.3581C66.5133 52.3797 66.5653 52.3325 66.5292 52.3619C66.4995 52.3861 66.4698 52.4103 66.438 52.432C66.4072 52.4537 66.3616 52.4945 66.3255 52.5022C66.3308 52.5009 66.3711 52.4805 66.3298 52.4996L66.3043 52.5098C66.2873 52.5175 66.2704 52.5239 66.2523 52.5303C66.212 52.5443 66.1717 52.5532 66.1303 52.5634C66.1027 52.5698 66.1473 52.5609 66.1473 52.5609L66.1208 52.5647C66.0995 52.566 66.0794 52.5672 66.0582 52.5672C66.0402 52.5672 66.0232 52.5672 66.0051 52.566L65.9786 52.5634C65.95 52.5634 66.021 52.5736 65.9775 52.5634C65.9425 52.5558 65.9086 52.5468 65.8757 52.5341L65.8449 52.5213C65.8449 52.5213 65.8863 52.5443 65.863 52.5303C65.846 52.52 65.829 52.5111 65.8131 52.5009C65.7972 52.4894 65.7813 52.478 65.7654 52.4652C65.7569 52.4588 65.7208 52.4218 65.7431 52.4473C65.7664 52.4741 65.7229 52.4244 65.7176 52.418C65.7038 52.4027 65.6911 52.3861 65.6784 52.3695C65.6731 52.3632 65.6402 52.316 65.6604 52.3466C65.6816 52.3772 65.6466 52.3211 65.6413 52.3109C65.6328 52.2955 65.6243 52.279 65.6168 52.2624L65.6062 52.2369C65.5903 52.1986 65.6052 52.2177 65.6062 52.242C65.6052 52.2088 65.585 52.168 65.5787 52.1348L65.5723 52.0991C65.5734 52.0978 65.5765 52.1565 65.5755 52.1259C65.5744 52.1042 65.5723 52.0825 65.5723 52.0609C65.5723 52.0455 65.5787 51.9818 65.5723 52.0226C65.5659 52.0647 65.5765 52.0035 65.5776 51.9933C65.5818 51.9728 65.5882 51.9537 65.5925 51.9333C65.5978 51.9129 65.6052 51.9193 65.5914 51.9333C65.585 51.9524 65.584 51.955 65.5882 51.9422L65.5946 51.9257C65.5999 51.9154 65.6455 51.8338 65.6434 51.83C65.6444 51.8325 65.6137 51.8721 65.6306 51.8517L65.6444 51.8325C65.6572 51.8147 65.671 51.7994 65.6847 51.7828L65.7187 51.7496C65.7208 51.7522 65.6794 51.779 65.7017 51.7662L65.7198 51.7509C65.7484 51.7279 65.7792 51.7088 65.8099 51.6897C65.8449 51.6667 65.7686 51.7062 65.8174 51.6858C65.8311 51.6795 65.8449 51.6731 65.8598 51.668C65.8937 51.6552 65.9277 51.6463 65.9616 51.6387L65.9839 51.6335C65.9829 51.6361 65.9372 51.6387 65.9616 51.6387C65.9786 51.6387 65.9966 51.6348 66.0136 51.6348C66.0264 51.6335 66.1155 51.645 66.1187 51.6387C66.1176 51.6412 66.0709 51.6284 66.0953 51.6348L66.1176 51.6399C66.1346 51.6438 66.1515 51.6488 66.1685 51.654C66.1855 51.6591 66.2788 51.6795 66.2852 51.6986C66.2852 51.6973 66.2353 51.6718 66.2788 51.6961L66.3033 51.7088C66.3192 51.7177 66.334 51.7279 66.3499 51.7381C66.386 51.7611 66.421 51.7866 66.4549 51.8147C66.4687 51.8262 66.4825 51.8402 66.4974 51.8517C66.525 51.8733 66.4688 51.8223 66.4932 51.8478L66.5144 51.8683C66.5462 51.9001 66.577 51.9333 66.6077 51.9677C66.6629 52.0328 66.7159 52.1017 66.7647 52.1744L66.787 52.2075C66.7902 52.2114 66.8082 52.2407 66.7913 52.2126C66.7743 52.1859 66.804 52.2343 66.8082 52.242C66.8294 52.2764 66.8507 52.3109 66.8698 52.3466C66.909 52.4155 66.9451 52.4856 66.978 52.557C67.0109 52.6259 67.0406 52.6961 67.0692 52.7688C67.0766 52.7879 67.0841 52.807 67.0915 52.8262C67.0947 52.8364 67.1169 52.8887 67.101 52.8517C67.0841 52.8134 67.1095 52.8785 67.1127 52.8874C67.1191 52.9065 67.1254 52.927 67.1318 52.9461C67.1785 53.0979 67.2167 53.2522 67.2464 53.4091C67.2612 53.4895 67.274 53.5711 67.2846 53.6527C67.2856 53.6629 67.2931 53.7229 67.2888 53.6795C67.2835 53.6323 67.2909 53.705 67.292 53.7152C67.2962 53.7586 67.2994 53.8007 67.3026 53.8428C67.3132 54.0048 67.3164 54.1668 67.31 54.3288C67.3069 54.4117 67.3016 54.4946 67.2941 54.5762C67.292 54.5954 67.2899 54.6132 67.2888 54.6323C67.2835 54.6821 67.2962 54.5711 67.2877 54.6413C67.2824 54.6808 67.2771 54.7191 67.2718 54.7586C67.2474 54.9219 67.2146 55.0826 67.1732 55.2408C67.1541 55.316 67.1318 55.3913 67.1085 55.4653C67.1021 55.4857 67.0947 55.5048 67.0883 55.5252L67.0798 55.5507C67.0798 55.5507 67.0979 55.4984 67.0883 55.5265C67.0735 55.566 67.0597 55.6056 67.0437 55.6439C66.9865 55.7893 66.9217 55.9308 66.8475 56.0661C66.8103 56.1349 66.77 56.2013 66.7297 56.2663C66.7149 56.2918 66.7425 56.2472 66.7425 56.2472L66.7234 56.2765C66.7138 56.2905 66.7043 56.3046 66.6947 56.3186C66.6714 56.3518 66.6491 56.3837 66.6247 56.4156C66.5366 56.5329 66.4401 56.6426 66.3382 56.7446C66.2459 56.8352 66.2534 57.038 66.3382 57.1324C66.4369 57.2408 66.5621 57.2293 66.6608 57.1324C67.1307 56.6668 67.4607 56.0138 67.6315 55.316C67.8023 54.6158 67.8161 53.8543 67.6633 53.1489C67.5869 52.7968 67.467 52.4537 67.3058 52.1476C67.1212 51.7968 66.8804 51.4563 66.5716 51.2598C66.2481 51.0519 65.8662 51.0238 65.5394 51.2407C65.218 51.4537 65.0387 51.904 65.1511 52.3351C65.2699 52.7892 65.6158 53.0877 66.0051 53.1144C66.3786 53.14 66.7541 52.9091 67.0002 52.5813C67.4745 51.9512 67.5456 51.0124 67.274 50.2483C66.9992 49.4766 66.3966 48.9307 65.7505 48.659C64.9856 48.3375 64.1465 48.3822 63.3572 48.5289C62.6389 48.6615 61.9419 48.9205 61.2789 49.2776C60.6158 49.6335 59.9984 50.1016 59.4382 50.6565C59.3024 50.7904 59.1709 50.9307 59.0436 51.0749C58.9566 51.1744 58.9545 51.3644 59.0436 51.4626C59.1359 51.5659 59.2727 51.5685 59.365 51.4626Z" fill="#A56869"/>
<path d="M70.6911 60.2945C69.486 62.7218 67.587 64.6581 65.0334 65.9094C62.7928 67.0089 60.0472 67.5778 56.8232 67.486C53.5991 67.5778 50.8536 67.0089 48.613 65.9094C46.313 64.7818 44.5434 63.0981 43.334 60.9999C45.0601 60.3697 46.9166 60.1529 48.7233 60.2167C52.0067 60.3315 55.2234 61.2818 58.4665 61.9042C61.7096 62.5267 65.0928 62.8124 68.2277 61.6313C69.0818 61.3085 69.9167 60.8583 70.6911 60.2945Z" fill="#409359"/>
<path d="M69.4049 44.0466C67.4115 44.7545 65.2016 44.8566 63.1308 44.5606C59.2978 44.0134 55.6186 42.3591 51.7846 41.8323C49.5991 41.5325 47.262 41.6843 45.1943 42.5249C45.6219 41.882 46.0632 41.2672 46.5014 40.6894L46.5035 40.6868C46.8546 40.2251 47.1877 39.8054 47.5293 39.3922L47.5506 39.3666C47.9187 38.9202 48.2911 38.4891 48.6295 38.1102C51.0186 35.4354 51.6127 31.1522 50.0702 27.6929C49.144 25.6214 47.9081 23.9186 46.9681 22.7948H46.9671L46.9596 22.7846C46.1682 21.8407 45.59 21.3075 45.59 21.3075H55.363L57.1856 25.6597L59.2172 21.3075H68.0544C68.0544 21.3075 67.4688 21.8484 66.6699 22.8037C65.7321 23.9262 64.4983 25.624 63.5764 27.6929C62.0328 31.1522 62.6269 35.4354 65.016 38.1102C65.3639 38.4993 65.7321 38.9253 66.1108 39.3845C66.4344 39.7774 66.7664 40.1945 67.1006 40.632C67.8878 41.6639 68.6824 42.8157 69.4049 44.0466Z" fill="#409359"/>
<path d="M53.2621 42.0903C52.79 41.9947 52.3158 41.9117 51.8394 41.8467C51.8108 41.8429 51.7821 41.8391 51.7535 41.8352C51.7493 41.8339 51.745 41.8339 51.7408 41.8339C51.1021 41.7498 50.4507 41.7051 49.7972 41.7051C49.7962 41.7051 49.7962 41.7051 49.7951 41.7051C49.794 41.7051 49.793 41.7051 49.7919 41.7051C48.8265 41.7051 47.8569 41.8033 46.918 42.0176C47.0241 41.8786 47.1365 41.7421 47.2543 41.6095C48.3035 40.4347 49.5691 39.8186 50.6799 39.8186C51.4702 39.8186 52.1832 40.1311 52.6828 40.7765C52.9703 41.1477 53.1624 41.5967 53.2621 42.0903Z" fill="#D8DEDA"/>
<path d="M47.5505 39.3667L47.5293 39.3922C47.1866 39.8055 46.8546 40.2252 46.5034 40.6869L46.5013 40.6895C32.2557 24.0194 43.7111 21.5742 45.5719 21.2961V21.3076H45.59C45.59 21.3076 46.1682 21.8408 46.9596 22.7847C45.5847 22.9046 34.0051 24.3868 47.5505 39.3667Z" fill="#2D6D41"/>
<path d="M67.1011 40.6318C66.7669 40.1943 66.4349 39.7772 66.1113 39.3844C79.5751 24.4414 67.9806 22.926 66.6704 22.8036C67.4693 21.8482 68.0549 21.3074 68.0549 21.3074H68.0676C69.7618 21.5829 81.0836 24.097 67.1011 40.6318Z" fill="#2D6D41"/>
<path d="M68.0731 20.1226V21.3076H59.2168L60.3222 18.9377H67.0886C67.6296 18.9377 68.0731 19.4708 68.0731 20.1226Z" fill="#E5E0D7"/>
<path d="M55.3632 21.3076H45.5723V20.1226C45.5723 19.4708 46.0157 18.9377 46.5568 18.9377H54.3713L55.3632 21.3076Z" fill="#EFEAE2"/>
<path d="M65.0884 66.3431V67.4706C65.0884 68.278 64.5388 68.9375 63.8684 68.9375H49.7787C49.1072 68.9375 48.5576 68.278 48.5576 67.4706V66.3431C48.5576 66.1925 48.5778 66.0471 48.6128 65.9094C50.8534 67.0089 53.599 67.5778 56.823 67.4859C60.047 67.5778 62.7926 67.0089 65.0332 65.9094C65.0693 66.0471 65.0884 66.1925 65.0884 66.3431Z" fill="#2D6D41"/>
<path d="M57.1856 21.3075V25.6597L55.363 21.3075L54.3711 18.9376L57.1856 21.3075Z" fill="#EFEAE2"/>
<path d="M60.3226 18.9376L59.2171 21.3075L57.1855 25.6597V21.3075L60.3226 18.9376Z" fill="#E5E0D7"/>
<path d="M57.2881 50.3451C57.217 49.4777 57.1958 48.4726 57.5183 47.6154C57.8409 46.757 58.5729 46.1128 59.3558 46.1116C60.1387 46.1103 60.9068 46.822 61.0246 47.7532C61.1158 48.4662 60.8379 49.1907 60.4305 49.7213C60.022 50.252 59.4025 50.7699 58.8826 51.1321C59.7695 51.0262 60.5663 51.0275 61.3312 50.7648C62.1024 50.4994 63.0859 50.5556 63.5357 51.354C63.9155 52.0301 63.6938 53.0263 63.1633 53.5365C62.6339 54.048 61.8881 54.1334 61.2251 53.9561C60.562 53.7801 59.8236 53.3375 59.2327 52.9332C59.9658 53.6972 60.8676 54.5518 61.1636 55.6615C61.4585 56.7713 60.8718 57.8529 60.2119 58.029C59.395 58.2458 58.4753 57.9881 58.1549 57.0583C57.8355 56.1284 57.8695 54.9677 57.9363 53.9651C57.8483 54.858 57.7772 55.9013 57.3645 56.6501C56.9518 57.3988 56.1233 57.8989 55.439 57.5353C54.7622 57.1769 54.5065 56.1182 54.6773 55.2521C54.8481 54.386 55.2035 53.7444 55.6777 53.0607C54.8301 53.5391 54.0545 53.9536 53.1273 53.7916C52.2012 53.6296 51.3312 52.511 51.6272 51.4433C51.8511 50.6308 52.6457 50.2137 53.3554 50.2813C54.0651 50.3476 54.9584 51.0097 55.5758 51.4357C54.9266 50.738 54.0004 49.7685 53.7214 48.7774C53.4435 47.7851 53.731 46.4802 54.55 46.1231C55.2714 45.8093 56.0936 46.3641 56.4978 47.1486C56.9009 47.9331 57.2128 49.4267 57.2881 50.3451Z" fill="#E3878C"/>
<path d="M56.4438 53.5861C55.9399 53.4165 55.5092 53.0543 55.4275 52.4267C55.3458 51.8004 55.6195 51.1499 56.0481 50.7774C56.4756 50.405 57.0337 50.2889 57.5578 50.368C58.1572 50.4572 58.7513 50.8157 59.0748 51.4292C59.3995 52.0427 59.3931 52.9229 58.9772 53.4509C58.6685 53.8425 58.1932 53.9905 57.7455 53.965C57.2989 53.9408 56.8682 53.7622 56.4438 53.5861Z" fill="#F9E0E0"/>
<path d="M48.1292 49.0044C47.8406 49.0044 47.5627 48.9623 47.3017 48.8794C47.3685 48.7059 47.4481 48.5388 47.5372 48.3819C47.5605 48.3424 47.5828 48.3041 47.6072 48.2659C47.6072 48.2646 47.6072 48.2646 47.6083 48.2633C47.6125 48.2569 47.6189 48.2467 47.621 48.2429C47.6327 48.2263 47.6444 48.2097 47.656 48.1919C47.708 48.1166 47.7632 48.0439 47.8215 47.9737C47.9053 47.8717 47.9128 47.6868 47.8215 47.586C47.7748 47.535 47.7154 47.5069 47.656 47.5069C47.5987 47.5069 47.5425 47.5324 47.499 47.586C47.2349 47.9074 47.0237 48.2837 46.8741 48.6944C46.5919 48.5375 46.3395 48.3232 46.1252 48.0465C45.0027 46.5974 45.3486 43.9813 46.8635 42.0029C47.8024 41.7887 48.7721 41.6904 49.7375 41.6904C49.7385 41.6904 49.7396 41.6904 49.7407 41.6904C49.7417 41.6904 49.7417 41.6904 49.7428 41.6904C50.3963 41.6904 51.0477 41.7351 51.6863 41.8193C51.6906 41.8193 51.6948 41.8193 51.6991 41.8205C51.7277 41.8244 51.7564 41.8282 51.785 41.832C52.2613 41.8971 52.7356 41.98 53.2076 42.0757C53.5249 43.6458 52.9191 45.6829 51.5537 47.2135C50.5045 48.3883 49.2389 49.0044 48.1292 49.0044Z" fill="#F8F7F5"/>
<path d="M47.3016 48.8794C47.153 48.8309 47.0098 48.7697 46.874 48.6944C47.0236 48.2837 47.2347 47.9074 47.4989 47.586C47.5424 47.5324 47.5986 47.5069 47.6559 47.5069C47.7153 47.5069 47.7747 47.535 47.8214 47.586C47.9126 47.6868 47.9052 47.8717 47.8214 47.9738C47.763 48.0439 47.7079 48.1166 47.6559 48.1919C47.6442 48.2097 47.6326 48.2263 47.6209 48.2429C47.6188 48.2467 47.6124 48.2569 47.6082 48.2633C47.6071 48.2646 47.6071 48.2646 47.6071 48.2659C47.5827 48.3041 47.5604 48.3424 47.5371 48.3819C47.448 48.5388 47.3684 48.7059 47.3016 48.8794Z" fill="#E8D9D9"/>
<path d="M45.1826 84.9375H47.3623L50.1807 76.4824H48.1885L46.3252 82.9688H46.2197L44.3506 76.4824H42.3643L45.1826 84.9375ZM52.4893 85.0371C52.7705 85.0371 53.0303 85 53.2686 84.9258C53.5107 84.8477 53.7217 84.7383 53.9014 84.5977C54.085 84.4531 54.2314 84.2812 54.3408 84.082H54.4463V84.9375H56.1338V80.5312C56.1338 80.0742 56.0283 79.6836 55.8174 79.3594C55.6104 79.0312 55.3076 78.7812 54.9092 78.6094C54.5107 78.4336 54.0264 78.3457 53.4561 78.3457C52.917 78.3457 52.4424 78.4238 52.0322 78.5801C51.626 78.7363 51.3018 78.9551 51.0596 79.2363C50.8213 79.5176 50.6787 79.8477 50.6318 80.2266L50.626 80.2793H52.208L52.2197 80.2559C52.2861 80.0645 52.415 79.918 52.6064 79.8164C52.8018 79.7109 53.0537 79.6582 53.3623 79.6582C53.7139 79.6582 53.9814 79.7344 54.165 79.8867C54.3525 80.0352 54.4463 80.25 54.4463 80.5312V82.5879C54.4463 82.8145 54.3857 83.0195 54.2646 83.2031C54.1436 83.3828 53.9795 83.5254 53.7725 83.6309C53.5654 83.7363 53.3291 83.7891 53.0635 83.7891C52.7666 83.7891 52.5244 83.7188 52.3369 83.5781C52.1494 83.4375 52.0557 83.2441 52.0557 82.998V82.9863C52.0557 82.752 52.1455 82.5664 52.3252 82.4297C52.5049 82.293 52.7783 82.2148 53.1455 82.1953L55.29 82.0547V81.0117L52.8877 81.1582C52.0869 81.2051 51.4697 81.3945 51.0361 81.7266C50.6025 82.0547 50.3857 82.5098 50.3857 83.0918V83.1035C50.3857 83.4941 50.4756 83.8359 50.6553 84.1289C50.835 84.418 51.083 84.6426 51.3994 84.8027C51.7197 84.959 52.083 85.0371 52.4893 85.0371ZM60.376 85.0723C60.9268 85.0723 61.415 84.9863 61.8408 84.8145C62.2666 84.6387 62.6006 84.3926 62.8428 84.0762C63.085 83.7598 63.2061 83.3887 63.2061 82.9629V82.957C63.2061 82.4805 63.0518 82.1016 62.7432 81.8203C62.4346 81.5391 61.958 81.3281 61.3135 81.1875L60.2412 80.959C59.9092 80.8887 59.6748 80.7988 59.5381 80.6895C59.4014 80.5801 59.333 80.4395 59.333 80.2676V80.2617C59.333 80.1172 59.376 79.9922 59.4619 79.8867C59.5518 79.7812 59.6729 79.6992 59.8252 79.6406C59.9775 79.582 60.1514 79.5527 60.3467 79.5527C60.667 79.5527 60.9209 79.6211 61.1084 79.7578C61.2959 79.8906 61.4131 80.0449 61.46 80.2207L61.4658 80.25H63.0537V80.2266C63.0303 79.8789 62.9111 79.5645 62.6963 79.2832C62.4854 78.998 62.1826 78.7715 61.7881 78.6035C61.3936 78.4316 60.915 78.3457 60.3525 78.3457C59.8174 78.3457 59.3467 78.4297 58.9404 78.5977C58.5381 78.7656 58.2236 79.002 57.9971 79.3066C57.7744 79.6074 57.6631 79.9609 57.6631 80.3672V80.373C57.6631 80.8535 57.8154 81.2461 58.1201 81.5508C58.4287 81.8555 58.8896 82.0742 59.5029 82.207L60.5811 82.4355C60.9092 82.5098 61.1436 82.6035 61.2842 82.7168C61.4248 82.8301 61.4951 82.9727 61.4951 83.1445V83.1562C61.4951 83.2969 61.4482 83.4199 61.3545 83.5254C61.2607 83.6309 61.1318 83.7148 60.9678 83.7773C60.8037 83.8359 60.6123 83.8652 60.3936 83.8652C60.0576 83.8652 59.79 83.8008 59.5908 83.6719C59.3955 83.543 59.2627 83.3789 59.1924 83.1797L59.1807 83.1562H57.499L57.5049 83.1797C57.5439 83.5469 57.6787 83.873 57.9092 84.1582C58.1436 84.4434 58.4658 84.668 58.876 84.832C59.29 84.9922 59.79 85.0723 60.376 85.0723ZM67.4424 85.0723C67.915 85.0723 68.3232 85.0137 68.667 84.8965C69.0146 84.7754 69.3037 84.6191 69.5342 84.4277C69.7686 84.2363 69.9521 84.0312 70.085 83.8125C70.2178 83.5898 70.3096 83.377 70.3604 83.1738L70.3721 83.1152H68.7783L68.7607 83.1504C68.7217 83.2324 68.6475 83.3242 68.5381 83.4258C68.4326 83.5234 68.292 83.6094 68.1162 83.6836C67.9404 83.7578 67.7275 83.7949 67.4775 83.7949C67.1689 83.7949 66.9033 83.7266 66.6807 83.5898C66.458 83.4531 66.2861 83.2559 66.165 82.998C66.0439 82.7402 65.9834 82.4297 65.9834 82.0664V81.375C65.9834 81 66.0439 80.6836 66.165 80.4258C66.29 80.1641 66.458 79.9668 66.6689 79.834C66.8838 79.6973 67.1279 79.6289 67.4014 79.6289C67.6787 79.6289 67.9209 79.6953 68.1279 79.8281C68.3389 79.957 68.5029 80.1504 68.6201 80.4082C68.7412 80.666 68.8018 80.9883 68.8018 81.375V82.0605L69.6045 81.0469H65.1455V82.1191H70.4248V81.5859C70.4248 80.9336 70.3018 80.3652 70.0557 79.8809C69.8096 79.3965 69.458 79.0195 69.001 78.75C68.5439 78.4805 68.001 78.3457 67.3721 78.3457C66.7471 78.3457 66.2021 78.4844 65.7373 78.7617C65.2764 79.0391 64.9189 79.4297 64.665 79.9336C64.415 80.4375 64.29 81.0312 64.29 81.7148V81.7207C64.29 82.4121 64.417 83.0078 64.6709 83.5078C64.9248 84.0078 65.2861 84.3945 65.7549 84.668C66.2275 84.9375 66.79 85.0723 67.4424 85.0723Z" fill="black"/>
</svg>
