<svg width="107" height="95" viewBox="0 0 107 95" fill="none" xmlns="http://www.w3.org/2000/svg">
<rect x="1.82812" y="1.98438" width="103.343" height="91" rx="14.5" fill="white" stroke="#ADC6F7" stroke-width="3"/>
<path d="M75.4196 49.1618H73.9745C73.1796 49.1618 72.5293 48.5115 72.5293 47.7167C72.5293 46.9218 73.1796 46.2715 73.9745 46.2715H75.4196C76.2145 46.2715 76.8648 46.9218 76.8648 47.7167C76.8648 48.5115 76.2145 49.1618 75.4196 49.1618Z" fill="#F4900C"/>
<path d="M43.6257 60.0003C43.6257 63.5916 40.7137 66.5036 37.1224 66.5036C33.5312 66.5036 30.6191 63.5916 30.6191 60.0003C30.6191 56.4091 33.5312 53.4971 37.1224 53.4971C40.7137 53.4971 43.6257 56.4091 43.6257 60.0003ZM78.3098 60.0003C78.3098 63.5916 75.3977 66.5036 71.8065 66.5036C68.2152 66.5036 65.3032 63.5916 65.3032 60.0003C65.3032 56.4091 68.2152 53.4971 71.8065 53.4971C75.3977 53.4971 78.3098 56.4091 78.3098 60.0003Z" fill="#292F33"/>
<path d="M40.7356 60.0006C40.7356 61.9964 39.1185 63.6135 37.1227 63.6135C35.1269 63.6135 33.5098 61.9964 33.5098 60.0006C33.5098 58.0048 35.1269 56.3877 37.1227 56.3877C39.1185 56.3877 40.7356 58.0048 40.7356 60.0006ZM75.4197 60.0006C75.4197 61.9964 73.8026 63.6135 71.8068 63.6135C69.811 63.6135 68.1938 61.9964 68.1938 60.0006C68.1938 58.0048 69.811 56.3877 71.8068 56.3877C73.8026 56.3877 75.4197 58.0048 75.4197 60.0006Z" fill="#99AAB5"/>
<path d="M37.6343 49.2801L41.4134 39.1798L40.7356 37.6003C40.7356 37.6003 39.4119 37.6118 39.2905 36.1551C39.1705 34.6998 42.7704 31.7054 43.626 31.8196C44.483 31.9352 43.626 34.7099 43.626 34.7099C43.626 34.7099 46.9788 35.5149 46.5163 37.6003C46.0553 39.6871 43.084 50.1559 43.084 50.1559C43.084 50.1559 45.6131 51.4204 46.5163 53.4971C47.1652 54.9885 48.9457 54.9683 50.8518 54.9423C52.758 54.9192 57.2005 54.9322 58.0777 52.052C58.9535 49.1746 59.5228 47.7165 59.5228 47.7165L58.0777 46.2713L72.5294 43.3809C72.5294 43.3809 71.2417 46.2453 73.9745 47.7165C77.1077 49.4059 78.1077 51.5736 79.7552 54.9423C80.8377 57.1592 80.4027 57.6838 78.3101 57.8326C75.505 58.035 71.8935 58.3905 69.9425 58.6058C68.2127 58.7995 66.6418 60.9903 63.9248 60.9903C61.2079 60.9903 49.398 61.0612 46.5163 60.7215C41.464 60.1305 39.6402 56.386 32.0646 56.386C29.0702 56.386 30.5327 54.1272 32.1051 52.5346C33.8523 50.7629 37.5982 49.0662 37.6343 49.2801Z" fill="#DD2E44"/>
<path d="M60.968 62.1684H56.6325C55.0428 62.1684 53.7422 60.8677 53.7422 59.278C53.7422 57.6883 55.0428 56.3877 56.6325 56.3877H60.968C62.5577 56.3877 63.8584 57.6883 63.8584 59.278C63.8584 60.8677 62.5577 62.1684 60.968 62.1684Z" fill="#BE1931"/>
<path d="M56.6329 62.1687H49.4071C48.6122 62.1687 47.9619 61.5183 47.9619 60.7235C47.9619 59.9286 48.6122 59.2783 49.4071 59.2783H56.6329C57.4278 59.2783 58.0781 59.9286 58.0781 60.7235C58.0781 61.5183 57.4278 62.1687 56.6329 62.1687Z" fill="#BE1931"/>
<path d="M60.9685 46.2713C58.6302 46.2713 57.4552 46.7135 56.6329 44.8262C55.8106 42.9388 56.604 41.9358 58.0781 41.9358C59.5522 41.9358 66.356 41.6742 69.6395 40.4906C72.9229 39.307 74.0516 39.2897 73.975 40.4906C73.8984 41.6916 72.5298 43.381 72.5298 43.381C72.5298 43.381 70.7176 46.2713 60.9685 46.2713ZM49.4071 37.6003H44.7088C43.914 37.6003 43.2637 36.95 43.2637 36.1551C43.2637 35.3603 43.914 34.71 44.7088 34.71H49.4071C50.2019 34.71 50.8523 35.3603 50.8523 36.1551C50.8523 36.95 50.2019 37.6003 49.4071 37.6003Z" fill="#292F33"/>
<path d="M40.0126 37.6003C39.6152 37.6003 39.29 37.2751 39.29 36.8777V35.4325C39.29 35.0351 39.6152 34.71 40.0126 34.71C40.41 34.71 40.7352 35.0351 40.7352 35.4325V36.8777C40.7352 37.2751 40.41 37.6003 40.0126 37.6003Z" fill="#F4900C"/>
<path d="M48.0514 33.2651H47.8707C47.125 33.2651 46.5166 32.6552 46.5166 31.9109V28.8385C46.5166 28.0942 47.125 27.4844 47.8722 27.4844H48.0528C48.7985 27.4844 49.4069 28.0942 49.4069 28.8385V31.9109C49.4069 32.6552 48.7985 33.2651 48.0514 33.2651Z" fill="#292F33"/>
<path d="M43.5998 36.251L43.568 36.2192C43.2963 35.9475 43.2963 35.5009 43.568 35.2292L47.6868 31.109C47.9599 30.8374 48.405 30.8374 48.6767 31.109L48.7099 31.1408C48.9816 31.414 48.9816 31.8591 48.7099 32.1308L44.5898 36.251C44.3181 36.5226 43.8715 36.5226 43.5998 36.251Z" fill="#292F33"/>
</svg>
