<svg width="108" height="94" viewBox="0 0 108 94" fill="none" xmlns="http://www.w3.org/2000/svg">
<rect x="2.18701" y="1.5" width="103.343" height="91" rx="14.5" fill="white" stroke="#ADC6F7" stroke-width="3"/>
<path d="M53.2636 39.898C50.689 39.898 48.5995 36.3489 48.5995 31.9717C48.5995 27.5946 50.689 24.0474 53.2636 24.0474C55.8383 24.0474 57.9246 27.5946 57.9246 31.9717C57.9246 36.3489 55.8383 39.898 53.2636 39.898ZM53.2636 21.9999C50.1834 21.9999 47.687 26.2434 47.687 31.4768C47.687 34.1904 48.3585 36.6368 49.4321 38.3662H49.4337H49.4353L49.44 38.3756C50.4385 39.9751 51.7846 40.9556 53.2636 40.9556C54.7427 40.9556 56.0887 39.9732 57.0888 38.3737L57.0904 38.3681V38.3662C58.1672 36.6387 58.8387 34.1923 58.8387 31.4768C58.8387 26.2434 56.3423 21.9999 53.2636 21.9999Z" fill="#EDEBE3"/>
<path d="M57.9242 31.9717C57.9242 36.3488 55.8379 39.8979 53.2633 39.8979C50.6886 39.8979 48.5991 36.3488 48.5991 31.9717C48.5991 27.5946 50.6886 24.0474 53.2633 24.0474C55.8379 24.0474 57.9242 27.5946 57.9242 31.9717Z" fill="#E5E0D7"/>
<path d="M53.2634 72C48.3849 69.8566 51.3023 53.4866 52.0176 49.0531C52.0974 48.545 52.1193 47.9973 52.0943 47.4234H54.431C54.406 47.9973 54.4263 48.545 54.5093 49.0531C55.2214 53.4866 58.1404 69.8566 53.2634 72Z" fill="#6396E5"/>
<path d="M57.0888 38.3736C56.1982 40.3044 54.5767 44.2355 54.4312 47.4233H52.0944C51.9489 44.2355 50.3289 40.3101 49.4399 38.3774C50.4385 39.9751 51.7845 40.9555 53.2636 40.9555C54.7426 40.9555 56.0887 39.9732 57.0888 38.3736Z" fill="#D3D1CB"/>
<path d="M49.44 34.198C49.44 34.198 49.0878 25.4494 53.2636 25.3252C53.2636 25.3252 50.487 28.2684 49.44 34.198Z" fill="#F5F3EF"/>
</svg>
