<svg width="900" height="579" viewBox="0 0 900 579" fill="none" xmlns="http://www.w3.org/2000/svg">
<path d="M0 578.386H900V-6.10352e-05H0V578.386Z" fill="#DEE8FC"/>
<path d="M644.258 241.583L644.261 241.586L645.855 241.343L644.258 241.583Z" fill="#33192C"/>
<path d="M645.855 241.343L644.261 241.586L645.866 241.343H645.855Z" fill="#33192C"/>
<path d="M639.868 257.081C635.773 261.685 629.052 263.88 619.894 263.608L619.795 266.855C620.33 266.873 620.863 266.881 621.383 266.881C630.773 266.881 637.809 264.305 642.321 259.212C648.989 251.681 647.538 241.528 647.471 241.097L645.855 241.343H645.866L644.261 241.586C644.281 241.727 645.516 250.724 639.868 257.081Z" fill="#69B4ED"/>
<path d="M589.78 200.911L588.161 200.665C588.094 201.093 586.642 211.247 593.311 218.777C597.822 223.87 604.861 226.447 614.249 226.447C614.769 226.447 615.301 226.438 615.836 226.421L615.741 223.173C606.579 223.445 599.858 221.25 595.763 216.646C590.115 210.292 591.35 201.295 591.373 201.151L589.766 200.908L589.78 200.911Z" fill="#69B4ED"/>
<path d="M589.78 200.911L591.373 201.151V201.148L589.78 200.911Z" fill="#33192C"/>
<path d="M589.766 200.908L591.374 201.151L589.78 200.911L589.766 200.908Z" fill="#33192C"/>
<path d="M591.093 133.656L592.701 133.902V133.899L591.093 133.656Z" fill="#33192C"/>
<path d="M594.638 151.525C599.15 156.618 606.189 159.195 615.576 159.195C616.097 159.195 616.629 159.189 617.164 159.172L617.068 155.924C607.907 156.196 601.186 154.001 597.091 149.394C591.443 143.041 592.678 134.044 592.701 133.902L589.488 133.413C589.421 133.841 587.97 143.995 594.638 151.525Z" fill="#69B4ED"/>
<path d="M646.577 166.086L646.58 166.089L648.165 165.849L646.577 166.086Z" fill="#33192C"/>
<path d="M648.165 165.849L646.58 166.089L648.185 165.846L648.165 165.849Z" fill="#33192C"/>
<path d="M642.188 181.584C638.093 186.188 631.372 188.383 622.21 188.114L622.115 191.362C622.65 191.376 623.182 191.385 623.702 191.385C633.093 191.385 640.129 188.808 644.64 183.716C651.309 176.185 649.857 166.031 649.791 165.603L648.165 165.849L648.185 165.846L646.58 166.089C646.601 166.231 647.836 175.231 642.188 181.584Z" fill="#69B4ED"/>
<path d="M616.614 361.899H624.156L622.274 94.138V94.0194H622.271H618.5H614.729H614.726L614.729 94.138L612.843 361.899H616.614Z" fill="#69B4ED"/>
<path d="M576.807 102.559C575.427 105.9 577.53 109.679 581.035 110.547C592.082 113.271 621.932 119.286 651.361 113.381C657.13 112.221 661.26 106.883 660.54 101.044C660.187 98.181 658.66 95.7257 654.678 95.1936C654.678 95.1936 653.027 78.2035 639.342 83.3945C639.342 83.3945 630.374 71.1241 619.755 85.7544C619.755 85.7544 612.913 66.6416 594.271 73.721C575.63 80.8004 582.709 99.4418 582.709 99.4418C582.709 99.4418 578.4 98.7044 576.807 102.559Z" fill="#267F7B"/>
<path d="M563.047 199.766C561.841 201.99 562.168 203.979 563.004 205.573C564.296 208.028 566.835 209.578 569.6 209.827C577.191 210.509 598.563 212.085 610.961 209.555C617.968 208.126 621.988 200.431 618.653 194.106C617.554 192.024 615.758 190.407 612.837 190.326C604.341 190.092 601.038 197.053 601.038 197.053C601.038 197.053 597.736 178.293 584.048 180.416C570.364 182.541 572.015 197.406 572.015 197.406C572.015 197.406 566.115 194.103 563.047 199.766Z" fill="#267F7B"/>
<path d="M652.682 146.439C641.777 144.747 639.142 159.695 639.142 159.695C639.142 159.695 636.511 154.148 629.741 154.336C627.416 154.4 625.984 155.687 625.108 157.347C622.447 162.388 625.652 168.518 631.236 169.658C641.118 171.676 658.145 170.418 664.198 169.875C666.399 169.675 668.423 168.443 669.453 166.485C670.121 165.216 670.378 163.631 669.418 161.858C666.974 157.344 662.272 159.976 662.272 159.976C662.272 159.976 663.588 148.13 652.682 146.439Z" fill="#267F7B"/>
<path d="M580.263 132.76C579.453 134.252 579.67 135.585 580.234 136.655C581.098 138.304 582.802 139.342 584.656 139.509C589.748 139.966 604.081 141.025 612.398 139.327C617.097 138.367 619.792 133.208 617.557 128.966C616.82 127.566 615.614 126.484 613.656 126.429C607.959 126.27 605.743 130.941 605.743 130.941C605.743 130.941 603.525 118.358 594.346 119.784C585.167 121.206 586.275 131.178 586.275 131.178C586.275 131.178 582.319 128.963 580.263 132.76Z" fill="#267F7B"/>
<path d="M619.252 237.303C618.106 239.417 618.694 241.447 619.489 242.962C620.718 245.296 622.852 246.629 625.478 246.866C632.693 247.514 653.006 249.015 664.791 246.609C671.448 245.25 675.271 237.936 672.099 231.927C671.055 229.946 669.349 228.41 666.572 228.332C658.498 228.109 655.357 234.726 655.357 234.726C655.357 234.726 652.22 216.894 639.212 218.913C626.204 220.932 627.774 235.062 627.774 235.062C627.774 235.062 622.167 231.921 619.252 237.303Z" fill="#267F7B"/>
<path d="M797.365 275.436V275.439L798.464 275.271L797.365 275.436Z" fill="#33192C"/>
<path d="M794.346 286.09C791.529 289.256 786.911 290.766 780.612 290.581L780.546 292.814C780.913 292.822 781.278 292.828 781.636 292.828C788.091 292.828 792.929 291.058 796.032 287.556C800.616 282.379 799.618 275.398 799.575 275.103L798.464 275.271H798.47L797.365 275.439C797.38 275.537 798.23 281.723 794.346 286.09Z" fill="#69B4ED"/>
<path d="M798.464 275.271L797.365 275.439L798.47 275.271H798.464Z" fill="#33192C"/>
<path d="M759.912 247.474L758.796 247.303C758.75 247.598 757.752 254.579 762.336 259.756C765.439 263.258 770.277 265.028 776.732 265.028C777.09 265.028 777.455 265.022 777.822 265.013L777.755 262.781C771.457 262.966 766.838 261.456 764.022 258.29C760.138 253.923 760.988 247.737 761.002 247.639L759.898 247.471L759.912 247.474Z" fill="#69B4ED"/>
<path d="M759.898 247.471L761.002 247.639L759.912 247.474L759.898 247.471Z" fill="#33192C"/>
<path d="M759.912 247.474L761.002 247.639V247.636L759.912 247.474Z" fill="#33192C"/>
<path d="M760.812 201.235L759.707 201.067C759.663 201.359 758.663 208.34 763.249 213.52C766.35 217.022 771.188 218.792 777.643 218.792C778.001 218.792 778.368 218.786 778.736 218.777L778.669 216.542C772.371 216.73 767.749 215.22 764.935 212.054C761.052 207.684 761.902 201.498 761.916 201.403L760.812 201.235Z" fill="#69B4ED"/>
<path d="M760.812 201.235L761.916 201.402V201.4L760.812 201.235Z" fill="#33192C"/>
<path d="M760.812 201.235L761.916 201.402L760.812 201.235Z" fill="#33192C"/>
<path d="M798.959 223.529V223.532L800.046 223.367L798.959 223.529Z" fill="#33192C"/>
<path d="M795.94 234.185C793.126 237.349 788.505 238.862 782.206 238.674L782.14 240.906C782.507 240.918 782.874 240.924 783.23 240.924C789.688 240.924 794.526 239.151 797.626 235.652C802.213 230.472 801.212 223.491 801.169 223.196L800.047 223.367L800.064 223.364L798.959 223.532C798.974 223.63 799.824 229.816 795.94 234.185Z" fill="#69B4ED"/>
<path d="M800.046 223.367L798.959 223.532L800.064 223.364L800.046 223.367Z" fill="#33192C"/>
<path d="M778.357 358.159H783.545L782.246 174.062L782.249 173.981H782.246H779.655H779.652H777.061V174.062L775.766 358.159H778.357Z" fill="#69B4ED"/>
<path d="M750.988 179.852C750.039 182.148 751.485 184.748 753.897 185.344C761.491 187.218 782.012 191.353 802.247 187.293C806.212 186.495 809.052 182.825 808.557 178.811C808.314 176.841 807.265 175.152 804.529 174.788C804.529 174.788 803.392 163.108 793.982 166.676C793.982 166.676 787.816 158.24 780.517 168.299C780.517 168.299 775.812 155.158 762.995 160.025C750.178 164.892 755.045 177.709 755.045 177.709C755.045 177.709 752.084 177.2 750.988 179.852Z" fill="#267F7B"/>
<path d="M741.528 246.684C740.701 248.214 740.924 249.582 741.499 250.678C742.387 252.367 744.131 253.431 746.034 253.602C751.254 254.07 765.945 255.158 774.47 253.417C779.288 252.434 782.053 247.144 779.76 242.795C779.002 241.363 777.767 240.253 775.76 240.195C769.921 240.033 767.648 244.819 767.648 244.819C767.648 244.819 765.378 231.921 755.968 233.382C746.557 234.842 747.694 245.062 747.694 245.062C747.694 245.062 743.636 242.792 741.528 246.684Z" fill="#267F7B"/>
<path d="M803.155 210.02C795.656 208.858 793.846 219.136 793.846 219.136C793.846 219.136 792.039 215.321 787.383 215.452C785.783 215.495 784.8 216.38 784.196 217.522C782.368 220.987 784.572 225.203 788.409 225.984C795.205 227.372 806.912 226.507 811.073 226.134C812.586 225.998 813.977 225.148 814.685 223.803C815.145 222.93 815.321 221.84 814.662 220.622C812.982 217.519 809.749 219.33 809.749 219.33C809.749 219.33 810.654 211.186 803.155 210.02Z" fill="#267F7B"/>
<path d="M753.365 200.616C752.81 201.642 752.957 202.559 753.345 203.294C753.941 204.427 755.112 205.142 756.384 205.257C759.886 205.57 769.742 206.298 775.459 205.13C778.69 204.471 780.543 200.925 779.005 198.007C778.499 197.047 777.669 196.301 776.324 196.263C772.405 196.156 770.884 199.366 770.884 199.366C770.884 199.366 769.36 190.714 763.047 191.694C756.737 192.675 757.498 199.528 757.498 199.528C757.498 199.528 754.779 198.004 753.365 200.616Z" fill="#267F7B"/>
<path d="M780.17 272.495C779.384 273.946 779.788 275.343 780.335 276.384C781.179 277.989 782.646 278.906 784.453 279.068C789.413 279.513 803.378 280.546 811.481 278.892C816.059 277.958 818.685 272.929 816.504 268.796C815.787 267.434 814.613 266.378 812.704 266.326C807.155 266.173 804.994 270.722 804.994 270.722C804.994 270.722 802.837 258.463 793.895 259.851C784.951 261.239 786.029 270.953 786.029 270.953C786.029 270.953 782.177 268.793 780.17 272.495Z" fill="#267F7B"/>
<path d="M478.218 359.203C478.218 359.203 478.016 343.622 487.831 349.209C487.831 349.209 488.73 339.486 495.04 345.857C495.04 345.857 493.939 317.351 512.765 317.687C512.765 317.687 521.776 316.01 527.184 329.09C527.184 329.09 531.389 318.581 538.497 328.867C538.497 328.867 528.185 303.939 534.093 301.142C540.001 298.349 545.507 312.432 545.507 312.432C545.507 312.432 539.7 282.475 549.915 281.246C560.129 280.017 561.028 297.9 561.028 297.9C561.028 297.9 565.034 285.046 570.34 289.294C575.65 293.542 570.844 307.403 570.844 307.403C570.844 307.403 576.549 295.778 581.156 303.381C585.763 310.981 582.614 320.194 582.614 320.194C582.614 320.194 587.44 314.416 593.751 317.881C600.058 321.345 595.876 333.783 595.876 333.783C595.876 333.783 603.488 326.519 608.193 334.009C608.193 334.009 615.203 320.035 620.81 331.438C626.418 342.838 626.302 359.073 626.302 359.073L478.218 359.203Z" fill="#3C9896"/>
<path d="M815.096 346.216C812.051 364.455 809.191 376.055 809.017 376.055H672.995C677.582 371.043 698.759 341.302 726.267 350.1C726.267 350.1 753.535 288.244 792.776 300.711C792.776 300.711 817.797 313.647 799.624 345.872C799.624 345.872 806.252 345.493 815.096 346.216Z" fill="#3C9896"/>
<path d="M185.427 372.26C185.427 372.26 187.662 333.413 199.784 340.316C199.784 340.316 200.898 328.303 208.69 336.175C208.69 336.175 207.33 300.963 230.586 301.376C230.586 301.376 241.718 299.306 248.398 315.463C248.398 315.463 253.593 302.481 262.376 315.185C262.376 315.185 249.635 284.392 256.933 280.939C264.232 277.486 271.035 294.887 271.035 294.887C271.035 294.887 263.861 257.879 276.478 256.361C289.095 254.842 290.208 276.934 290.208 276.934C290.208 276.934 295.156 261.054 301.712 266.303C308.268 271.549 302.331 288.672 302.331 288.672C302.331 288.672 309.381 274.311 315.073 283.701C320.761 293.091 316.874 304.474 316.874 304.474C316.874 304.474 322.835 297.334 330.628 301.616C338.422 305.897 337.523 315.796 337.523 315.796C337.523 315.796 342.592 308.887 348.405 318.138C348.405 318.138 357.13 304.277 364.056 318.361C370.985 332.447 370.841 352.5 370.841 352.5L185.427 372.26Z" fill="#267F7B"/>
<path d="M473.591 371.951C473.591 371.951 473.79 356.369 463.978 361.959C463.978 361.959 463.076 352.234 456.769 358.605C456.769 358.605 457.867 330.099 439.044 330.435C439.044 330.435 430.03 328.76 424.625 341.837C424.625 341.837 420.417 331.331 413.309 341.615C413.309 341.615 423.621 316.686 417.713 313.893C411.805 311.096 406.299 325.183 406.299 325.183C406.299 325.183 412.106 295.225 401.894 293.993C391.68 292.764 390.778 310.651 390.778 310.651C390.778 310.651 386.772 297.796 381.466 302.042C376.159 306.29 380.965 320.151 380.965 320.151C380.965 320.151 375.257 308.525 370.65 316.128C366.043 323.728 369.192 332.942 369.192 332.942C369.192 332.942 364.366 327.164 358.058 330.628C351.748 334.096 355.93 346.531 355.93 346.531C355.93 346.531 348.321 339.267 343.613 346.757C343.613 346.757 336.603 332.783 330.996 344.186C325.388 355.586 325.507 371.821 325.507 371.821L473.591 371.951Z" fill="#3C9896"/>
<path d="M442.986 358.235H532.152C532.138 357.931 532.069 357.624 531.941 357.324C525.362 341.774 512.314 350.192 512.314 350.192C504.763 336.126 494.294 347.222 494.294 347.222C494.294 347.222 494.017 318.063 470.985 320.318C450.904 322.285 452.379 351.962 452.379 351.962C448.09 352.297 445.542 353.746 444.047 355.522C443.362 356.337 443.032 357.289 442.986 358.235Z" fill="#267F7B"/>
<path d="M150.749 343.708C153.395 363.481 155.88 376.055 156.029 376.055H274.216C270.229 370.624 247.691 343.775 223.79 353.313C223.79 353.313 193.521 271.543 159.427 285.057C159.427 285.057 128.367 303.271 144.157 338.202C144.157 338.202 158.432 342.925 150.749 343.708Z" fill="#3C9896"/>
<path d="M768.276 377.379H168.552C168.552 377.379 168.343 377.021 167.962 376.327C167.629 374.881 166.973 371.963 166.075 367.703C165.925 366.994 165.767 366.242 165.605 365.456C180.523 356.679 198.511 354.036 215.796 353.59C222.107 353.431 228.439 353.518 234.77 353.605C249.138 353.804 263.499 354.001 277.602 351.309C291.423 348.665 304.691 343.295 318.549 340.866C319.275 340.739 320.001 340.623 320.729 340.51C339.897 337.583 359.455 340.177 378.701 342.763C411.452 347.17 444.209 351.577 476.963 355.985C486.798 357.306 496.68 358.634 506.594 358.411C540.993 357.633 574.329 338.318 608.341 343.824C616.889 345.209 625.148 348.136 633.651 349.802C645.805 352.179 658.261 351.948 670.607 352.593C704.243 354.357 778.476 360.193 768.276 377.379Z" fill="#7EC3A5"/>
<path d="M210.094 377.379C210.094 377.408 210.094 377.42 210.094 377.42L65.5782 377.547C65.4935 376.529 65.4131 375.511 65.3373 374.49C65.0071 370.068 64.7393 365.647 64.5339 361.234C65.1788 361.61 65.8926 362.179 66.6847 362.98C66.6847 362.98 65.4822 331.837 86.0508 332.204C86.0508 332.204 95.8957 330.371 101.803 344.663C101.803 344.663 101.687 323.147 109.455 334.376C109.288 333.969 102.947 317.161 109.352 314.127C115.759 311.099 115.759 311.099 120.331 315.185C120.264 314.827 115.539 293.727 126.637 292.391C137.798 291.046 138.782 310.587 138.782 310.587C138.782 310.587 143.159 296.541 148.957 301.186C154.697 305.778 152.416 315.512 152.314 315.81C155.691 309.219 154.322 311.322 158.817 314.361C159.478 314.807 160.134 315.521 160.772 316.571C165.805 324.876 162.364 334.943 162.364 334.943C162.364 334.943 167.638 328.63 174.529 332.416C181.36 336.166 180.645 347.937 176.856 349.787C177.015 349.637 184.321 342.78 189.418 348.81C189.726 349.168 190.023 349.576 190.311 350.033C190.311 350.033 197.969 334.77 204.095 347.225C205.155 349.38 206.027 351.69 206.743 354.041C208.428 359.551 209.266 365.274 209.684 369.678C209.944 372.457 210.04 374.71 210.074 376.055C210.094 376.784 210.094 377.246 210.094 377.379Z" fill="#7FC6A6"/>
<path d="M128.614 349.223C111.467 347.543 111.259 369.25 111.259 369.25C111.259 369.25 103.466 360.991 97.8445 371.462C97.8445 371.462 88.1306 365.196 83.2305 376.772C83.1356 376.995 83.0859 377.226 83.0737 377.452H149.459C149.423 376.749 149.178 376.04 148.668 375.433C147.555 374.108 145.657 373.03 142.465 372.781C142.465 372.781 143.564 350.687 128.614 349.223Z" fill="#3F9896"/>
<path d="M849.692 377.504L746.618 377.411V377.379C746.618 377.258 746.618 376.795 746.635 376.055C746.696 373.591 746.953 368.059 748.046 361.754C748.122 361.306 748.206 360.852 748.292 360.398C749.224 355.487 750.675 350.218 752.931 345.629C753.625 344.217 754.336 343.147 755.057 342.355C761.02 335.782 767.443 348.584 767.443 348.584C772.801 340.059 781.428 348.159 781.604 348.324C781.532 348.098 776.856 333.989 784.054 330.035C785.378 329.31 786.645 328.937 787.831 328.812C793.071 328.26 796.749 332.569 796.859 332.696C796.796 332.505 793.285 322.022 798.537 313.358C803.774 304.72 810.246 317.672 810.396 317.982C810.289 317.667 804.934 301.995 810.978 297.157C817.08 292.273 821.687 307.059 821.687 307.059C821.687 307.059 822.259 295.711 827.366 290.451C828.621 292.831 829.822 295.228 830.967 297.646C832.821 301.536 834.533 305.471 836.112 309.448C837.254 312.325 838.327 315.223 839.33 318.138C839.593 318.904 840.481 321.608 840.481 321.608C844.31 333.494 846.959 345.649 848.402 357.873C849.062 363.403 849.469 368.949 849.628 374.49C849.657 375.476 849.678 376.46 849.689 377.446L849.692 377.504Z" fill="#7FC6A6"/>
<path d="M849.689 377.446H810.446C810.483 376.705 810.744 375.959 811.282 375.32C812.453 373.926 814.448 372.79 817.812 372.53C817.812 372.53 816.652 349.27 832.393 347.728C841.56 346.832 846.129 352.286 848.402 357.873C849.062 363.403 849.469 368.949 849.629 374.49C849.657 375.476 849.678 376.46 849.689 377.446Z" fill="#3F9896"/>
<path d="M848.981 396.229C847.755 409.506 845.244 423.5 840.976 437.19C840.068 440.102 839.079 443.003 838.006 445.88C836.511 449.892 834.851 453.856 833.014 457.749C832.355 459.146 831.672 460.531 830.967 461.908C829.622 464.539 828.188 467.133 826.667 469.675C815.403 488.516 799.251 504.775 776.573 514.969C769.866 521.811 561.59 520.784 401.721 519.761C302.016 519.121 221.137 518.482 219.727 519.752C167.826 521.47 106.486 524.353 86.5173 473.548C86.0176 472.261 85.5288 470.971 85.0494 469.675C83.5858 465.725 82.2115 461.748 80.9243 457.749C79.6574 453.813 78.4725 449.854 77.3707 445.88C76.5676 442.991 75.8068 440.094 75.0884 437.19C69.9752 416.542 66.9144 395.491 65.3374 374.49H849.629C849.843 381.755 849.626 389.014 848.981 396.229Z" fill="#5FAF8B"/>
<path d="M166.357 425.486C176.296 412.918 184.772 369.366 186.526 363.229C188.28 357.089 185.649 355.629 192.957 347.737C198.498 341.751 198.045 312.765 199.471 301.732H231.042C221.618 315.764 209.497 355.8 206.11 364.397C202.31 374.042 174.25 427.242 172.496 431.042C170.742 434.842 170.157 448.286 170.157 448.286L175.674 456.699H168.329L161.681 452.671V429.286L166.357 425.486Z" fill="#F3A363"/>
<path d="M278.213 353.738C278.496 359.932 277.386 426.189 277.386 426.189L276.501 444.834L286.384 456.699H274.731L270.587 453.067L265.539 435.877C265.539 435.877 266.881 433.541 268.88 428.399C270.88 423.26 262.425 367.74 261.607 363.434C260.79 359.125 257.947 356.69 258.704 349.704C259.461 342.717 264.363 310.547 264.363 310.547L294.242 287.562C288.399 309.083 278.021 349.539 278.213 353.738Z" fill="#F3A363"/>
<path d="M307.722 79.5424C307.722 79.5424 293.106 139.463 287.846 149.108C282.584 158.755 246.924 220.429 246.047 225.108C245.17 229.784 223.615 232.685 218.863 234.168C209.727 237.02 163.327 256.381 159.819 268.365C156.311 280.352 163.911 297.889 163.619 306.365C163.327 314.841 159.819 339.981 152.511 347.873C145.204 355.765 147.835 357.225 146.081 363.362C144.327 369.502 135.851 413.054 125.913 425.622L121.236 429.422V452.807L127.792 456.699H135.099L129.712 448.422C129.712 448.422 129.728 448.061 129.762 447.439C129.936 444.272 130.585 434.353 132.051 431.178C133.805 427.378 161.865 374.178 165.665 364.533C169.465 354.886 189.049 322.149 197.525 310.457L257.154 311.041C257.154 311.041 246.34 341.733 244.293 348.457C242.247 355.178 244.586 358.102 244.586 362.486C244.586 366.87 242.54 422.994 239.617 427.67C236.693 432.346 234.94 434.391 234.94 434.391L236.693 452.222L240.786 456.699H251.308L243.416 447.838L248.386 427.086C248.386 427.086 261.831 362.194 262.708 356.057C263.585 349.918 284.338 306.073 295.737 284.736C307.137 263.397 304.214 210.492 307.722 190.616C311.229 170.739 326.137 106.142 326.429 95.6187C326.429 95.6187 329.061 94.1582 333.153 89.187C337.245 84.2187 360.042 86.2662 362.382 81.8791C364.719 77.495 365.014 74.282 360.629 73.695C356.242 73.1108 343.09 68.7266 337.537 65.2187C331.982 61.7108 322.045 59.9583 315.614 63.7583C309.185 67.5583 307.722 79.5424 307.722 79.5424Z" fill="#FECC86"/>
<path d="M294.262 69.9846C299.002 68.2437 309.231 65.5079 316.837 70.6874C317.167 70.9129 317.343 71.3004 317.282 71.6937C317.051 73.1802 316.299 76.8616 314.445 77.7871C312.424 78.7992 300.792 74.1317 294.277 71.902C293.369 71.5925 293.36 70.3143 294.262 69.9846Z" fill="#F7CC7F"/>
<path d="M324.09 62.8819V50.3106L321.169 51.774L319.414 64.3423L324.09 62.8819Z" fill="#F7CC7F"/>
<path d="M325.374 51.6931C325.654 51.1176 325.874 50.4814 325.787 49.848C325.669 48.992 324.934 48.2575 324.078 48.1389C322.546 47.9278 322.618 49.1858 321.713 49.7816C320.903 50.3166 319.87 49.6514 319.249 50.7561C318.844 51.4762 319.052 52.3872 319.596 52.9713C320.515 53.9546 324.836 52.8036 325.374 51.6931Z" fill="#5B4045"/>
<path d="M160.696 266.364C160.696 266.364 141.404 307.285 129.42 319.853H132.635C132.635 319.853 166.834 283.316 166.542 274.256C166.249 265.196 160.696 266.364 160.696 266.364Z" fill="#F7CC7F"/>
<path d="M129.42 316.25C129.42 316.25 124.646 317.615 123.671 325.018C122.697 332.424 116.267 344.116 116.267 344.116C116.267 344.116 128.933 340.021 131.271 332.424C133.61 324.824 139.456 320.475 137.507 316.25C135.558 312.025 129.42 316.25 129.42 316.25Z" fill="#5B4045"/>
<path d="M269.836 450.51H281.228L286.384 456.699H274.731L270.587 453.067L269.836 450.51Z" fill="#5B4045"/>
<path d="M236.569 450.953H246.191L251.308 456.699H240.786L236.693 452.222L236.569 450.953Z" fill="#5B4045"/>
<path d="M170.221 447.055H161.681V452.671L168.297 456.699H175.674L170.221 447.055Z" fill="#5B4045"/>
<path d="M129.756 447.555L121.236 447.965V452.807L127.792 456.699H135.099L129.756 447.555Z" fill="#5B4045"/>
<path d="M244.324 290.913C241.057 290.913 237.786 290.055 234.978 288.38C230.452 285.685 227.21 280.925 226.359 275.725C226.195 274.722 226.135 273.614 226.695 272.764C227.026 272.258 227.539 271.905 228.046 271.578C232.542 268.663 240.614 264.903 247.498 264.903C250.499 264.903 253.276 265.621 255.431 267.431C262.178 273.102 257.755 287.319 250.212 289.936C248.322 290.592 246.324 290.913 244.324 290.913Z" fill="#F8AB67"/>
<path d="M202.67 279.603C201.943 279.603 201.249 279.375 200.772 278.831C200.156 278.134 200.075 277.125 200.023 276.197C199.916 274.276 199.809 272.359 199.703 270.439C199.679 270.017 199.658 269.577 199.813 269.181C200.015 268.666 200.482 268.31 200.936 267.995C203.602 266.138 209.934 263.212 214.476 263.212C218.101 263.212 220.584 265.074 219.156 270.835C218.905 271.847 218.427 272.833 217.634 273.513C216.684 274.325 215.402 274.615 214.171 274.837C212.012 275.228 209.759 275.526 207.904 276.7C206.743 277.431 205.791 278.478 204.577 279.117C204.002 279.421 203.322 279.603 202.67 279.603Z" fill="#F8AB67"/>
<path d="M217.901 305.891C216.658 305.891 215.402 305.486 214.31 304.87C212.795 304.011 211.536 302.773 210.297 301.553C208.806 300.081 207.315 298.609 205.823 297.137C204.878 296.206 203.906 295.231 203.437 293.991C202.759 292.192 203.276 290.121 204.32 288.507C205.363 286.897 206.877 285.656 208.365 284.441C209.8 283.27 211.267 282.082 212.993 281.408C213.958 281.032 214.968 280.855 215.978 280.855C218.381 280.855 220.78 281.85 222.541 283.502C225.084 285.887 225.311 289.687 226.376 292.871C227.138 295.153 227.364 297.608 227.03 299.988C226.848 301.284 226.408 302.687 225.282 303.349C224.608 303.748 223.796 303.812 223.049 304.037C221.747 304.436 220.637 305.33 219.328 305.7C218.861 305.83 218.382 305.891 217.901 305.891Z" fill="#F8AB67"/>
<path d="M182.511 289.566C181.395 289.566 180.281 289.317 179.288 288.805C178.046 288.169 177.02 287.18 176.095 286.136C175.471 285.43 174.868 284.664 174.634 283.75C174.483 283.163 174.495 282.547 174.508 281.94C174.542 280.257 174.691 278.334 176.028 277.31C176.484 276.96 177.033 276.76 177.572 276.564C179.994 275.685 182.415 274.808 184.837 273.929C185.256 273.776 185.645 273.706 186.004 273.706C188.909 273.706 189.922 278.27 189.999 280.991C190.077 283.808 188.886 286.74 186.564 288.337C185.381 289.152 183.945 289.566 182.511 289.566Z" fill="#F8AB67"/>
<path d="M191.392 305.321C190.959 305.321 190.525 305.286 190.108 305.231C189.528 305.153 188.931 305.038 188.449 304.708C187.424 304.005 187.233 302.594 187.164 301.353C187.064 299.552 187.051 297.64 187.96 296.078C188.753 294.716 190.988 293.218 192.906 293.218C193.591 293.218 194.235 293.409 194.759 293.866C196.187 295.104 195.566 298.447 195.618 300.124C195.66 301.475 195.662 302.95 194.818 304.005C194.019 305.003 192.709 305.321 191.392 305.321Z" fill="#F8AB67"/>
<path d="M256.469 259.105C256.118 259.105 255.771 259.073 255.431 258.981C254.253 258.663 253.368 257.679 252.755 256.624C251.439 254.359 251.094 251.551 251.822 249.038C252.55 246.522 254.342 244.333 256.664 243.124C260.523 241.112 265.323 241.858 269.303 240.094C270.627 239.504 272.438 238.555 273.875 238.555C274.931 238.555 275.785 239.067 276.096 240.611C276.728 243.737 276.038 247.879 276.063 251.106C276.074 252.523 276.069 254.01 275.398 255.262C274.756 256.459 273.573 257.283 272.326 257.821C270.204 258.735 267.928 258.917 265.604 258.917C264.838 258.917 264.067 258.897 263.295 258.877C262.523 258.856 261.75 258.839 260.979 258.839C260.024 258.839 259.073 258.868 258.134 258.966C257.582 259.024 257.022 259.105 256.469 259.105Z" fill="#F8AB67"/>
<path d="M266.268 295.636C266.162 293.143 266.055 290.65 265.948 288.155C265.913 287.339 265.881 286.501 266.156 285.731C266.424 284.979 266.96 284.36 267.419 283.707C268.728 281.844 269.451 279.574 269.462 277.298C269.472 275.158 268.937 272.767 270.222 271.055C271.079 269.915 272.578 269.406 274.004 269.403C274.011 269.403 274.02 269.403 274.027 269.403C277.98 269.403 281.007 271.419 283.04 274.67C283.906 276.055 284.715 277.544 284.851 279.169C285 280.948 284.331 282.683 283.675 284.343C282.685 286.845 281.612 289.462 279.514 291.145C278.32 292.105 276.873 292.689 275.43 293.201C272.449 294.262 269.382 295.078 266.268 295.636Z" fill="#F8AB67"/>
<path d="M248.148 306.492C248.016 306.492 247.885 306.487 247.753 306.475C246.694 306.382 245.642 305.865 245.066 304.971C244.678 304.373 244.527 303.652 244.388 302.95C244.141 301.692 243.976 300.199 244.89 299.297C245.654 298.545 246.847 298.537 247.905 298.357C249.129 298.149 251.542 296.903 253.305 296.903C253.968 296.903 254.539 297.079 254.92 297.553C256.025 298.927 254.234 302.747 253.325 303.913C252.677 304.746 251.789 305.37 250.835 305.821C249.994 306.218 249.074 306.492 248.148 306.492Z" fill="#F8AB67"/>
<path d="M267.489 227.627C265.879 227.627 264.259 227.433 262.96 226.525C261.229 225.316 260.489 223.107 260.287 221.004C259.878 216.741 261.314 212.343 264.114 209.101C266.914 205.859 271.03 203.803 275.299 203.45C275.657 203.421 276.02 203.407 276.387 203.407C278.932 203.407 281.617 204.135 283.533 205.813C286.721 208.603 284.161 212.296 283.046 215.723C281.832 219.454 280.407 223.471 277.122 225.617C274.688 227.207 271.644 227.476 268.739 227.595C268.327 227.612 267.908 227.627 267.489 227.627Z" fill="#F8AB67"/>
<path d="M284.763 238.549C284.441 238.549 284.123 238.497 283.815 238.373C283.313 238.173 282.899 237.809 282.495 237.45C281.942 236.959 281.378 236.453 281.032 235.802C280.643 235.065 280.565 234.211 280.494 233.381C280.278 230.854 280.119 228.095 281.555 226.001C281.689 225.805 281.843 225.611 282.055 225.504C282.613 225.218 283.356 225.085 284.148 225.085C285.791 225.085 287.641 225.663 288.464 226.675C289.806 228.326 290.714 231.47 290.98 233.5C291.018 233.801 291.047 234.113 290.966 234.405C290.856 234.801 290.558 235.117 290.263 235.403C289.404 236.233 288.46 236.97 287.449 237.601C286.639 238.107 285.688 238.549 284.763 238.549Z" fill="#F8AB67"/>
<path d="M291.397 191.003C287.833 191.003 284.261 189.757 281.533 187.455C281.201 187.174 280.875 186.873 280.678 186.486C280.447 186.029 280.419 185.497 280.428 184.985C280.521 179.939 283.732 175.554 286.804 171.552C288.198 169.736 290.072 168.946 291.937 168.946C295.827 168.946 299.673 172.37 299.02 177.015C298.693 179.357 297.039 181.327 296.57 183.643C296.217 185.375 296.556 187.168 296.469 188.933C296.449 189.311 296.4 189.713 296.16 190.005C295.92 190.298 295.535 190.425 295.168 190.52C293.939 190.847 292.669 191.003 291.397 191.003Z" fill="#F8AB67"/>
<path d="M292.741 207.727C290.376 207.727 289.98 202.611 290.063 201.168C290.115 200.231 290.167 199.297 290.22 198.36C290.248 197.846 290.292 197.293 290.619 196.894C290.974 196.466 291.533 196.348 292.111 196.348C292.371 196.348 292.634 196.371 292.883 196.403C293.739 196.507 294.69 196.674 295.208 197.366C295.717 198.045 295.627 198.988 295.486 199.827C295.246 201.264 295.113 206.735 293.823 207.421C293.421 207.632 293.062 207.727 292.741 207.727Z" fill="#F8AB67"/>
<path d="M299.801 141.274C299.711 141.274 299.624 141.271 299.54 141.262C299.433 141.25 299.315 141.23 299.245 141.146C299.17 141.054 299.179 140.921 299.187 140.799C299.315 138.619 298.456 136.615 300.674 135.067C301.241 134.671 301.941 134.452 302.635 134.452C303.326 134.452 304.014 134.668 304.564 135.146C307.458 137.653 302.461 141.274 299.801 141.274Z" fill="#F8AB67"/>
<path d="M259.052 203.537C258.484 203.537 257.936 203.34 257.455 203.022C263.67 191.784 271.322 178.296 277.473 167.466C278.052 170.395 278.012 173.808 278.029 176.431C278.037 177.706 277.998 178.993 277.677 180.228C277.353 181.474 276.75 182.631 276.124 183.759C272.373 190.509 267.571 196.677 261.946 201.969C261.196 202.675 260.36 203.398 259.338 203.519C259.242 203.531 259.147 203.537 259.052 203.537Z" fill="#F8AB67"/>
<path d="M218.863 234.168C218.868 234.165 218.872 234.165 218.876 234.162C218.872 234.165 218.868 234.165 218.863 234.168ZM218.88 234.162C218.883 234.162 218.886 234.162 218.888 234.159C218.886 234.162 218.883 234.162 218.88 234.162ZM218.894 234.159C218.896 234.156 218.898 234.156 218.9 234.156C218.898 234.156 218.896 234.156 218.894 234.159ZM218.91 234.154C218.913 234.154 218.916 234.151 218.919 234.151C218.916 234.151 218.913 234.154 218.91 234.154ZM218.922 234.151C218.925 234.148 218.928 234.148 218.931 234.148C218.928 234.148 218.925 234.148 218.922 234.151ZM218.938 234.145C218.94 234.145 218.942 234.145 218.944 234.142C218.942 234.145 218.94 234.145 218.938 234.145ZM218.968 234.136C218.971 234.133 218.974 234.133 218.977 234.133C218.974 234.133 218.971 234.133 218.968 234.136ZM218.979 234.133C218.983 234.13 218.986 234.13 218.99 234.127C218.986 234.13 218.983 234.13 218.979 234.133ZM218.995 234.127C219.003 234.125 219.012 234.122 219.02 234.119C219.012 234.122 219.003 234.125 218.995 234.127ZM219.027 234.119C219.029 234.119 219.032 234.116 219.035 234.116C219.032 234.116 219.029 234.119 219.027 234.119ZM219.04 234.113C219.043 234.113 219.044 234.113 219.046 234.113C219.044 234.113 219.043 234.113 219.04 234.113ZM219.058 234.11C219.061 234.107 219.064 234.107 219.067 234.107C219.064 234.107 219.061 234.107 219.058 234.11ZM219.069 234.104C219.074 234.104 219.078 234.104 219.083 234.101C219.078 234.104 219.074 234.104 219.069 234.104ZM219.083 234.101C219.098 234.096 219.113 234.093 219.128 234.09C219.113 234.093 219.098 234.096 219.083 234.101ZM219.132 234.087C219.135 234.087 219.139 234.084 219.142 234.084C219.139 234.084 219.135 234.087 219.132 234.087ZM219.147 234.084C219.161 234.078 219.176 234.075 219.19 234.07C219.176 234.075 219.161 234.078 219.147 234.084ZM219.195 234.07C219.199 234.07 219.202 234.067 219.205 234.067C219.202 234.067 219.199 234.07 219.195 234.07ZM219.21 234.064C219.219 234.064 219.229 234.061 219.238 234.058C219.228 234.061 219.219 234.064 219.21 234.064ZM219.244 234.055C219.248 234.055 219.253 234.052 219.257 234.052C219.253 234.052 219.249 234.055 219.244 234.055ZM219.257 234.052C219.262 234.049 219.268 234.049 219.273 234.047C219.267 234.049 219.262 234.049 219.257 234.052ZM219.274 234.047C219.34 234.029 219.407 234.012 219.477 233.992C219.407 234.012 219.34 234.029 219.274 234.047ZM219.478 233.992C223.873 232.82 236.581 230.877 242.701 228.017C236.58 230.877 223.872 232.823 219.478 233.992Z" fill="#D3C5C3"/>
<path d="M205.673 258.521C199.01 258.521 192.331 254.704 189.308 248.712C189.053 248.205 188.822 247.676 188.63 247.138C201.381 240.759 214.456 235.542 218.863 234.168C218.868 234.165 218.872 234.165 218.876 234.162C218.877 234.162 218.879 234.162 218.88 234.162C218.883 234.162 218.886 234.162 218.888 234.159C218.89 234.159 218.892 234.159 218.894 234.159C218.896 234.156 218.898 234.156 218.9 234.156C218.903 234.156 218.907 234.154 218.91 234.154C218.913 234.154 218.916 234.151 218.919 234.151C218.92 234.151 218.921 234.151 218.922 234.151C218.925 234.148 218.928 234.148 218.931 234.148C218.933 234.148 218.935 234.145 218.938 234.145C218.94 234.145 218.942 234.145 218.944 234.142C218.952 234.139 218.96 234.139 218.968 234.136C218.971 234.133 218.974 234.133 218.977 234.133C218.978 234.133 218.978 234.133 218.979 234.133C218.983 234.13 218.986 234.13 218.99 234.128C218.992 234.128 218.993 234.128 218.995 234.128C219.003 234.125 219.012 234.122 219.02 234.119C219.023 234.119 219.025 234.119 219.027 234.119C219.029 234.119 219.032 234.116 219.035 234.116C219.036 234.116 219.038 234.113 219.04 234.113C219.043 234.113 219.044 234.113 219.046 234.113C219.05 234.11 219.054 234.11 219.058 234.11C219.06 234.107 219.064 234.107 219.067 234.107C219.067 234.107 219.069 234.104 219.069 234.104C219.074 234.104 219.078 234.104 219.083 234.102H219.083C219.098 234.096 219.113 234.093 219.128 234.09C219.13 234.087 219.131 234.087 219.132 234.087C219.135 234.087 219.139 234.084 219.142 234.084C219.143 234.084 219.145 234.084 219.147 234.084C219.161 234.078 219.176 234.076 219.19 234.07C219.192 234.07 219.193 234.07 219.195 234.07C219.199 234.07 219.202 234.067 219.205 234.067C219.207 234.067 219.208 234.067 219.21 234.064C219.219 234.064 219.228 234.061 219.238 234.058C219.24 234.055 219.242 234.055 219.244 234.055C219.249 234.055 219.252 234.052 219.257 234.052H219.257C219.262 234.049 219.267 234.049 219.272 234.047C219.273 234.047 219.273 234.047 219.274 234.047C219.34 234.029 219.407 234.012 219.477 233.992H219.477C223.872 232.823 236.58 230.877 242.701 228.017C242.428 232.132 241.774 236.314 241.63 239.576C241.527 241.916 241.375 244.345 240.239 246.392C238.566 249.409 235.093 250.97 231.715 251.658C228.336 252.347 224.829 252.373 221.514 253.321C217.516 254.464 213.974 256.896 209.957 257.969C208.555 258.342 207.114 258.521 205.673 258.521Z" fill="#F8AB67"/>
<path d="M166.648 267.24C165.66 267.24 164.678 267.182 163.711 267.038C162.803 266.433 161.884 266.315 161.303 266.315C161.188 266.315 161.085 266.32 160.999 266.326C160.943 266.297 160.888 266.266 160.836 266.228C164.07 261.184 173.29 255.201 183.541 249.758C185.346 252.413 185.461 256.199 183.748 259.004C182.651 260.8 181.096 262.263 179.508 263.643C178.565 264.461 177.591 265.265 176.468 265.811C174.837 266.601 172.99 266.795 171.186 266.965C169.685 267.107 168.16 267.24 166.648 267.24Z" fill="#F8AB67"/>
<path d="M163.711 267.038C162.952 266.925 162.203 266.754 161.469 266.514C161.31 266.462 161.148 266.401 160.999 266.326C161.085 266.321 161.187 266.315 161.303 266.315C161.884 266.315 162.803 266.433 163.711 267.038Z" fill="#F1AB61"/>
<path d="M297.178 281.7C294.28 280.997 291.666 279.033 290.506 276.301C289.595 274.158 289.601 271.754 289.621 269.429C289.682 262.442 289.754 255.36 291.619 248.628C291.851 247.792 292.134 246.924 292.756 246.32C293.687 245.421 295.116 245.337 296.411 245.314C298.028 245.314 300.309 245.045 302.568 245.045C303.092 245.045 303.615 245.056 304.127 245.094C302.999 259.085 301.07 272.498 297.178 281.7Z" fill="#F8AB67"/>
<path d="M305.298 225.637C305.555 220.082 305.769 214.708 306.021 209.752C305.769 214.708 305.555 220.082 305.298 225.637Z" fill="#D3C5C3"/>
<path d="M304.558 239.188C302.559 238.208 301.166 236.19 300.298 234.104C299.335 231.791 298.861 229.298 297.869 226.999C296.692 224.275 294.786 221.782 294.448 218.835C294.069 215.547 295.957 212.12 298.939 210.683C300.168 210.09 302.308 209.691 304.532 209.691C305.026 209.691 305.527 209.711 306.021 209.752C305.77 214.708 305.556 220.081 305.298 225.637C305.09 230.079 304.859 234.637 304.558 239.188Z" fill="#F8AB67"/>
<path d="M306.359 203.739C306.675 198.829 307.068 194.523 307.635 191.119C307.068 194.523 306.675 198.829 306.359 203.739ZM307.638 191.104C307.641 191.096 307.641 191.084 307.643 191.072C307.641 191.084 307.641 191.096 307.638 191.104ZM307.646 191.055C307.649 191.038 307.652 191.02 307.655 191.003C307.652 191.02 307.649 191.038 307.646 191.055ZM307.658 190.98C307.661 190.971 307.661 190.96 307.664 190.951C307.661 190.963 307.661 190.971 307.658 190.98ZM307.667 190.928C307.669 190.922 307.669 190.911 307.672 190.905C307.669 190.913 307.669 190.919 307.667 190.928ZM307.681 190.856C307.681 190.85 307.681 190.844 307.684 190.838C307.681 190.844 307.681 190.85 307.681 190.856ZM307.69 190.804C307.69 190.798 307.693 190.789 307.693 190.783C307.693 190.789 307.69 190.798 307.69 190.804ZM307.701 190.734C307.701 190.731 307.701 190.725 307.704 190.723C307.701 190.725 307.701 190.731 307.701 190.734ZM307.71 190.685C307.71 190.679 307.713 190.671 307.713 190.665C307.713 190.671 307.71 190.676 307.71 190.685Z" fill="#D3C5C3"/>
<path d="M306.359 203.739C305.359 203.285 304.404 202.733 303.76 201.859C303.092 200.948 302.846 199.795 302.739 198.67C302.291 193.996 303.896 189.387 304.269 184.704C304.433 182.657 304.364 180.578 304.795 178.568C305.437 175.592 307.149 172.937 309.228 170.713C309.52 170.404 309.838 170.086 310.243 169.956C310.521 169.866 310.804 169.826 311.091 169.826C311.345 169.826 311.603 169.857 311.863 169.921C310.064 178.487 308.563 185.841 307.722 190.616C307.719 190.633 307.716 190.647 307.713 190.665C307.713 190.671 307.71 190.679 307.71 190.685C307.707 190.697 307.704 190.708 307.704 190.723C307.701 190.725 307.701 190.731 307.701 190.734C307.698 190.752 307.696 190.766 307.693 190.783C307.693 190.789 307.69 190.798 307.69 190.804C307.687 190.815 307.684 190.827 307.684 190.838C307.681 190.844 307.681 190.85 307.681 190.856C307.678 190.873 307.675 190.887 307.672 190.905C307.669 190.911 307.669 190.922 307.667 190.928C307.667 190.937 307.664 190.945 307.664 190.951C307.661 190.96 307.661 190.971 307.658 190.98C307.658 190.989 307.655 190.994 307.655 191.003C307.652 191.02 307.649 191.038 307.646 191.055C307.646 191.061 307.643 191.067 307.643 191.072C307.641 191.084 307.641 191.096 307.638 191.104C307.638 191.11 307.638 191.116 307.635 191.119C307.068 194.523 306.675 198.829 306.359 203.739Z" fill="#F8AB67"/>
<path d="M312.597 166.425C314.156 159.039 315.888 150.939 317.583 142.919C315.888 150.941 314.156 159.039 312.597 166.425ZM317.594 142.867C317.597 142.844 317.603 142.821 317.609 142.801C317.603 142.821 317.597 142.844 317.594 142.867Z" fill="#D3C5C3"/>
<path d="M310.29 166.699C310 166.699 309.714 166.685 309.428 166.65C308.011 166.477 306.597 165.771 305.891 164.533C305.229 163.374 305.275 161.957 305.341 160.623C305.576 155.82 305.813 151.016 306.047 146.21C306.096 145.218 306.151 144.194 306.588 143.301C307.319 141.803 308.939 140.993 310.145 139.845C311.819 138.254 315.096 133.133 317.869 133.133C318.436 133.133 318.983 133.347 319.489 133.85C318.876 136.794 318.245 139.79 317.609 142.8C317.603 142.821 317.597 142.844 317.595 142.867C317.589 142.884 317.586 142.902 317.583 142.919C315.888 150.938 314.156 159.039 312.597 166.425C311.834 166.587 311.062 166.699 310.29 166.699Z" fill="#F8AB67"/>
<path d="M283.077 157.598C285.286 153.7 286.968 150.719 287.835 149.128C286.967 150.719 285.286 153.7 283.077 157.598ZM287.861 149.082C287.862 149.082 287.862 149.079 287.862 149.079C287.862 149.079 287.861 149.082 287.861 149.082ZM287.877 149.053C287.877 149.053 287.877 149.053 287.877 149.05C287.877 149.053 287.877 149.053 287.877 149.053ZM288.825 147.008C288.825 147.005 288.825 147.005 288.826 147.005L288.825 147.008ZM288.843 146.965C288.843 146.962 288.844 146.962 288.844 146.962C288.844 146.962 288.843 146.962 288.843 146.965ZM288.857 146.93C288.861 146.921 288.865 146.91 288.869 146.901C288.865 146.91 288.861 146.921 288.857 146.93ZM288.873 146.892C288.876 146.884 288.88 146.875 288.884 146.864C288.88 146.875 288.876 146.884 288.873 146.892ZM288.891 146.846C290.023 144.096 291.414 139.932 292.918 134.998C291.414 139.932 290.023 144.096 288.891 146.846Z" fill="#D3C5C3"/>
<path d="M284.212 160.01C283.429 160.01 282.661 159.892 281.934 159.614C282.329 158.917 282.71 158.244 283.077 157.599C285.286 153.7 286.967 150.719 287.835 149.128C287.839 149.122 287.842 149.117 287.845 149.108C287.851 149.099 287.856 149.091 287.861 149.082C287.861 149.082 287.862 149.079 287.862 149.079C287.867 149.07 287.872 149.062 287.876 149.053C287.877 149.053 287.877 149.053 287.877 149.05C288.156 148.532 288.461 147.873 288.789 147.092C288.801 147.063 288.813 147.037 288.825 147.008L288.826 147.005C288.831 146.991 288.837 146.979 288.843 146.965C288.843 146.962 288.843 146.962 288.844 146.962C288.848 146.951 288.852 146.942 288.857 146.93C288.861 146.922 288.865 146.91 288.869 146.901C288.87 146.898 288.871 146.896 288.872 146.893C288.876 146.884 288.88 146.875 288.884 146.864C288.886 146.858 288.889 146.852 288.891 146.846C290.023 144.096 291.414 139.932 292.918 134.998C293.912 136.754 294.904 138.506 295.896 140.262C297.18 142.532 298.496 144.915 298.586 147.52C298.675 150.178 297.432 152.766 295.598 154.692C293.762 156.615 291.379 157.937 288.913 158.932C287.429 159.53 285.79 160.01 284.212 160.01Z" fill="#F8AB67"/>
<path d="M295.714 125.463C297.869 117.858 300.087 109.546 302.019 102.105C300.087 109.546 297.869 117.858 295.714 125.463Z" fill="#D3C5C3"/>
<path d="M297.707 128.06C297.25 128.06 296.816 127.945 296.527 127.604C296.232 127.256 296.183 126.771 296.061 126.328C295.977 126.024 295.859 125.738 295.714 125.463C297.869 117.858 300.087 109.546 302.019 102.105C302.507 102.449 302.953 102.785 303.329 103.074C307.736 106.437 310.798 111.617 311.331 117.161C311.432 118.216 311.443 119.312 311.056 120.298C310.402 121.964 308.762 122.997 307.227 123.911C304.511 125.527 301.75 127.167 298.684 127.924C298.372 128.003 298.033 128.06 297.707 128.06Z" fill="#F8AB67"/>
<path d="M334.084 76.0374C334.084 76.5204 333.694 76.9108 333.211 76.9108C332.731 76.9108 332.341 76.5204 332.341 76.0374C332.341 75.5574 332.731 75.1669 333.211 75.1669C333.694 75.1669 334.084 75.5574 334.084 76.0374Z" fill="#21111D"/>
<path d="M354.146 439.24C361.349 430.128 367.495 398.557 368.764 394.106C370.037 389.658 368.131 388.597 373.426 382.877C377.446 378.539 377.116 357.526 378.149 349.527H401.035C394.205 359.701 385.419 388.721 382.964 394.956C380.208 401.946 359.866 440.513 358.593 443.266C357.324 446.022 356.899 455.768 356.899 455.768L360.898 461.867H355.574L350.753 458.946V441.996L354.146 439.24Z" fill="#F3A363"/>
<path d="M435.232 387.226C435.438 391.717 434.634 439.749 434.634 439.749L433.992 453.266L441.155 461.867H432.708L429.703 459.235L426.045 446.771C426.045 446.771 427.016 445.079 428.465 441.352C429.917 437.627 423.786 397.38 423.193 394.257C422.6 391.133 420.541 389.369 421.088 384.303C421.637 379.239 425.192 355.918 425.192 355.918L446.852 339.255C442.615 354.857 435.094 384.184 435.232 387.226Z" fill="#F3A363"/>
<path d="M456.624 188.455C456.624 188.455 446.028 231.895 442.214 238.888C438.402 245.88 412.551 290.59 411.915 293.979C411.279 297.371 395.654 299.474 392.206 300.549C385.584 302.614 351.948 316.652 349.406 325.339C346.861 334.026 352.373 346.742 352.159 352.885C351.948 359.03 349.406 377.255 344.108 382.975C338.81 388.695 340.718 389.757 339.446 394.204C338.174 398.655 332.031 430.226 324.824 439.339L321.435 442.095V459.044L326.186 461.867H331.485L327.58 455.866C327.58 455.866 327.592 455.606 327.615 455.155C327.742 452.859 328.214 445.669 329.275 443.364C330.548 440.611 350.889 402.045 353.642 395.052C356.398 388.059 370.595 364.328 376.74 355.852L419.966 356.277C419.966 356.277 412.126 378.524 410.642 383.4C409.159 388.273 410.854 390.393 410.854 393.571C410.854 396.749 409.37 437.433 407.253 440.822C405.133 444.212 403.861 445.695 403.861 445.695L405.133 458.622L408.1 461.867H415.729L410.006 455.444L413.61 440.397C413.61 440.397 423.355 393.357 423.992 388.909C424.628 384.459 439.672 352.674 447.937 337.205C456.199 321.739 454.082 283.386 456.624 268.975C459.166 254.568 469.973 207.739 470.184 200.11C470.184 200.11 472.093 199.051 475.06 195.448C478.024 191.848 494.552 193.328 496.249 190.15C497.944 186.972 498.155 184.641 494.977 184.219C491.799 183.793 482.264 180.615 478.238 178.073C474.21 175.531 467.006 174.259 462.344 177.015C457.683 179.768 456.624 188.455 456.624 188.455Z" fill="#FECC86"/>
<path d="M446.866 181.526C450.302 180.265 457.717 178.282 463.232 182.038C463.469 182.2 463.599 182.481 463.553 182.767C463.385 183.846 462.841 186.512 461.497 187.186C460.031 187.917 451.601 184.534 446.878 182.917C446.219 182.692 446.213 181.766 446.866 181.526Z" fill="#F7CC7F"/>
<path d="M468.489 176.378V167.266L466.37 168.327L465.1 177.437L468.489 176.378Z" fill="#F7CC7F"/>
<path d="M469.421 168.267C469.623 167.85 469.782 167.39 469.719 166.931C469.635 166.309 469.103 165.777 468.481 165.69C467.368 165.537 467.423 166.448 466.766 166.882C466.179 167.272 465.43 166.789 464.979 167.59C464.687 168.111 464.837 168.77 465.231 169.192C465.899 169.906 469.03 169.074 469.421 168.267Z" fill="#5B4045"/>
<path d="M350.042 323.887C350.042 323.887 336.056 353.553 327.369 362.665H329.7C329.7 362.665 354.49 336.178 354.279 329.608C354.067 323.04 350.042 323.887 350.042 323.887Z" fill="#F7CC7F"/>
<path d="M327.369 360.051C327.369 360.051 323.907 361.04 323.202 366.407C322.493 371.775 317.832 380.251 317.832 380.251C317.832 380.251 327.013 377.284 328.711 371.775C330.406 366.265 334.642 363.113 333.231 360.051C331.817 356.988 327.369 360.051 327.369 360.051Z" fill="#5B4045"/>
<path d="M429.159 457.379H437.419L441.155 461.867H432.708L429.703 459.235L429.159 457.379Z" fill="#5B4045"/>
<path d="M405.043 457.703H412.019L415.729 461.867H408.1L405.133 458.622L405.043 457.703Z" fill="#5B4045"/>
<path d="M356.945 454.877H350.753V458.946L355.551 461.867H360.898L356.945 454.877Z" fill="#5B4045"/>
<path d="M327.612 455.239L321.435 455.534V459.044L326.186 461.867H331.485L327.612 455.239Z" fill="#5B4045"/>
<path d="M410.666 341.684C408.297 341.684 405.926 341.063 403.89 339.848C400.607 337.893 398.259 334.443 397.64 330.675C397.522 329.946 397.478 329.145 397.886 328.526C398.126 328.162 398.496 327.904 398.864 327.667C402.123 325.556 407.976 322.829 412.967 322.829C415.142 322.829 417.155 323.349 418.717 324.662C423.607 328.772 420.403 339.079 414.934 340.976C413.563 341.45 412.114 341.684 410.666 341.684Z" fill="#F8AB67"/>
<path d="M380.468 333.485C379.942 333.485 379.439 333.321 379.091 332.927C378.646 332.418 378.588 331.69 378.551 331.016C378.473 329.625 378.395 328.234 378.316 326.843C378.302 326.536 378.285 326.215 378.397 325.929C378.545 325.559 378.883 325.298 379.213 325.07C381.145 323.725 385.734 321.603 389.028 321.603C391.654 321.603 393.456 322.953 392.42 327.129C392.238 327.864 391.891 328.578 391.316 329.07C390.627 329.659 389.699 329.868 388.805 330.03C387.241 330.313 385.607 330.53 384.262 331.38C383.421 331.912 382.732 332.67 381.85 333.133C381.434 333.352 380.942 333.485 380.468 333.485Z" fill="#F8AB67"/>
<path d="M391.509 352.543C390.61 352.543 389.699 352.248 388.906 351.8C387.808 351.178 386.897 350.282 385.997 349.397C384.916 348.33 383.837 347.263 382.755 346.196C382.07 345.522 381.364 344.816 381.026 343.914C380.534 342.612 380.907 341.109 381.665 339.94C382.423 338.772 383.519 337.873 384.597 336.993C385.639 336.143 386.7 335.281 387.952 334.793C388.652 334.521 389.384 334.394 390.115 334.394C391.859 334.394 393.597 335.114 394.872 336.311C396.718 338.04 396.882 340.796 397.655 343.104C398.207 344.758 398.369 346.54 398.129 348.263C397.996 349.203 397.678 350.218 396.859 350.698C396.373 350.987 395.783 351.034 395.243 351.199C394.297 351.488 393.493 352.136 392.544 352.405C392.206 352.5 391.859 352.543 391.509 352.543Z" fill="#F8AB67"/>
<path d="M365.855 340.71C365.045 340.71 364.238 340.527 363.518 340.157C362.619 339.695 361.876 338.977 361.205 338.22C360.751 337.711 360.314 337.152 360.146 336.493C360.036 336.065 360.045 335.62 360.054 335.18C360.077 333.96 360.187 332.566 361.156 331.823C361.485 331.571 361.884 331.424 362.275 331.282C364.03 330.646 365.786 330.009 367.541 329.37C367.845 329.26 368.128 329.211 368.388 329.211C370.494 329.211 371.228 332.52 371.283 334.492C371.341 336.534 370.476 338.659 368.793 339.816C367.934 340.406 366.893 340.71 365.855 340.71Z" fill="#F8AB67"/>
<path d="M372.292 352.13C371.98 352.13 371.665 352.104 371.361 352.063C370.942 352.005 370.511 351.924 370.158 351.684C369.418 351.175 369.279 350.152 369.227 349.252C369.155 347.948 369.146 346.56 369.805 345.429C370.381 344.44 372 343.356 373.391 343.356C373.886 343.356 374.354 343.495 374.733 343.824C375.769 344.724 375.32 347.147 375.358 348.362C375.387 349.339 375.39 350.412 374.777 351.175C374.198 351.898 373.247 352.13 372.292 352.13Z" fill="#F8AB67"/>
<path d="M419.469 318.627C419.214 318.627 418.962 318.604 418.717 318.534C417.864 318.306 417.222 317.592 416.776 316.828C415.822 315.185 415.573 313.152 416.099 311.328C416.629 309.506 417.927 307.918 419.61 307.042C422.41 305.581 425.889 306.122 428.772 304.844C429.732 304.416 431.045 303.728 432.089 303.728C432.852 303.728 433.471 304.101 433.697 305.22C434.157 307.484 433.656 310.486 433.674 312.826C433.682 313.855 433.677 314.934 433.191 315.839C432.725 316.707 431.869 317.305 430.964 317.696C429.425 318.358 427.777 318.488 426.091 318.488C425.536 318.488 424.978 318.476 424.417 318.462C423.859 318.448 423.297 318.433 422.739 318.433C422.048 318.433 421.357 318.453 420.677 318.526C420.275 318.566 419.871 318.627 419.469 318.627Z" fill="#F8AB67"/>
<path d="M426.574 345.108C426.496 343.301 426.418 341.493 426.34 339.686C426.317 339.093 426.293 338.486 426.49 337.928C426.687 337.381 427.074 336.933 427.407 336.461C428.355 335.108 428.879 333.465 428.888 331.814C428.896 330.264 428.509 328.532 429.44 327.288C430.062 326.464 431.146 326.094 432.181 326.091C432.187 326.091 432.193 326.091 432.199 326.091C435.065 326.091 437.257 327.551 438.732 329.908C439.359 330.912 439.946 331.99 440.045 333.173C440.152 334.46 439.666 335.718 439.191 336.921C438.474 338.734 437.696 340.632 436.175 341.852C435.31 342.549 434.261 342.971 433.214 343.344C431.054 344.113 428.83 344.703 426.574 345.108Z" fill="#F8AB67"/>
<path d="M413.436 352.977C413.34 352.977 413.245 352.974 413.15 352.966C412.383 352.899 411.62 352.523 411.203 351.875C410.923 351.442 410.813 350.918 410.712 350.409C410.532 349.498 410.414 348.417 411.076 347.763C411.628 347.217 412.493 347.211 413.26 347.081C414.147 346.93 415.897 346.025 417.175 346.025C417.655 346.025 418.069 346.155 418.346 346.499C419.147 347.494 417.849 350.262 417.19 351.109C416.721 351.711 416.076 352.165 415.385 352.491C414.775 352.781 414.107 352.977 413.436 352.977Z" fill="#F8AB67"/>
<path d="M427.459 295.807C426.291 295.807 425.116 295.665 424.174 295.008C422.921 294.132 422.384 292.53 422.236 291.006C421.941 287.915 422.982 284.728 425.012 282.377C427.042 280.025 430.024 278.536 433.118 278.282C433.379 278.258 433.642 278.25 433.908 278.25C435.753 278.25 437.699 278.776 439.087 279.994C441.398 282.018 439.544 284.693 438.735 287.177C437.855 289.881 436.823 292.793 434.44 294.349C432.676 295.503 430.469 295.697 428.364 295.784C428.066 295.795 427.763 295.807 427.459 295.807Z" fill="#F8AB67"/>
<path d="M439.981 303.725C439.747 303.725 439.515 303.687 439.293 303.598C438.928 303.453 438.628 303.187 438.335 302.927C437.936 302.571 437.526 302.207 437.277 301.732C436.994 301.2 436.936 300.578 436.887 299.98C436.728 298.146 436.615 296.145 437.656 294.627C437.751 294.485 437.864 294.346 438.017 294.268C438.422 294.06 438.96 293.965 439.533 293.965C440.724 293.965 442.066 294.384 442.662 295.116C443.636 296.313 444.293 298.595 444.487 300.064C444.516 300.283 444.536 300.509 444.475 300.72C444.397 301.006 444.18 301.235 443.966 301.443C443.344 302.045 442.662 302.58 441.927 303.037C441.34 303.404 440.652 303.725 439.981 303.725Z" fill="#F8AB67"/>
<path d="M444.79 269.259C442.205 269.259 439.617 268.353 437.639 266.685C437.399 266.482 437.161 266.263 437.02 265.982C436.852 265.649 436.832 265.265 436.838 264.892C436.904 261.236 439.232 258.058 441.459 255.155C442.471 253.839 443.83 253.269 445.181 253.269C448 253.269 450.788 255.747 450.317 259.117C450.077 260.814 448.879 262.243 448.538 263.92C448.284 265.178 448.53 266.476 448.466 267.758C448.451 268.029 448.417 268.322 448.243 268.533C448.07 268.747 447.789 268.836 447.523 268.906C446.632 269.143 445.71 269.259 444.79 269.259Z" fill="#F8AB67"/>
<path d="M445.762 281.382C444.05 281.382 443.764 277.671 443.821 276.627C443.859 275.948 443.897 275.268 443.937 274.591C443.957 274.218 443.989 273.816 444.226 273.527C444.484 273.218 444.889 273.131 445.308 273.131C445.496 273.131 445.687 273.148 445.866 273.172C446.488 273.247 447.176 273.368 447.552 273.868C447.922 274.363 447.856 275.045 447.754 275.653C447.581 276.697 447.483 280.662 446.546 281.159C446.256 281.312 445.996 281.382 445.762 281.382Z" fill="#F8AB67"/>
<path d="M450.881 233.208C450.817 233.208 450.753 233.205 450.693 233.196C450.615 233.191 450.531 233.176 450.479 233.115C450.424 233.049 450.432 232.951 450.435 232.864C450.528 231.282 449.906 229.83 451.514 228.708C451.925 228.419 452.431 228.263 452.934 228.263C453.437 228.263 453.935 228.419 454.334 228.763C456.433 230.582 452.81 233.208 450.881 233.208Z" fill="#F8AB67"/>
<path d="M420.501 277.394H420.504H420.501ZM420.541 277.324C424.399 270.36 428.96 262.298 432.939 255.288C428.96 262.298 424.399 270.36 420.541 277.324ZM433.006 255.172C433.011 255.16 433.017 255.152 433.023 255.143C433.017 255.152 433.011 255.16 433.006 255.172Z" fill="#D3C5C3"/>
<path d="M421.343 278.342C420.929 278.342 420.533 278.201 420.183 277.969C420.29 277.778 420.394 277.587 420.501 277.394H420.504C420.515 277.371 420.527 277.347 420.541 277.324C424.399 270.361 428.96 262.298 432.939 255.288C432.962 255.25 432.983 255.21 433.006 255.172C433.011 255.161 433.017 255.152 433.023 255.143C433.593 254.137 434.154 253.151 434.695 252.193C435.114 254.319 435.085 256.792 435.099 258.692C435.105 259.617 435.076 260.551 434.842 261.445C434.608 262.35 434.171 263.189 433.717 264.004C430.999 268.9 427.517 273.371 423.439 277.206C422.895 277.718 422.291 278.244 421.548 278.331C421.478 278.339 421.412 278.342 421.343 278.342Z" fill="#F8AB67"/>
<path d="M392.189 300.555C392.195 300.552 392.201 300.55 392.206 300.55C392.201 300.55 392.195 300.552 392.189 300.555ZM392.221 300.544C392.224 300.544 392.224 300.544 392.224 300.544C392.224 300.544 392.224 300.544 392.221 300.544ZM392.253 300.535C392.255 300.535 392.255 300.535 392.255 300.532C392.255 300.535 392.255 300.535 392.253 300.535ZM392.284 300.523C392.287 300.523 392.287 300.523 392.29 300.523C392.287 300.523 392.287 300.523 392.284 300.523ZM392.319 300.515H392.322H392.319ZM392.336 300.509H392.339H392.336ZM392.354 300.503C392.354 300.503 392.354 300.503 392.357 300.503C392.354 300.503 392.354 300.503 392.354 300.503ZM392.371 300.5L392.374 300.497L392.371 300.5ZM392.389 300.495C392.389 300.495 392.389 300.495 392.391 300.495C392.389 300.495 392.389 300.495 392.389 300.495ZM392.406 300.489C392.406 300.489 392.406 300.489 392.409 300.489C392.406 300.489 392.406 300.489 392.406 300.489ZM392.42 300.486C392.423 300.483 392.426 300.483 392.429 300.483C392.426 300.483 392.423 300.483 392.42 300.486ZM392.441 300.48C392.441 300.48 392.443 300.48 392.443 300.477C392.443 300.48 392.441 300.48 392.441 300.48ZM392.461 300.474C392.461 300.474 392.461 300.474 392.464 300.474C392.461 300.474 392.461 300.474 392.461 300.474ZM392.495 300.463H392.498H392.495ZM392.513 300.46C392.513 300.46 392.516 300.46 392.516 300.457L392.513 300.46ZM392.533 300.454C392.533 300.454 392.536 300.454 392.536 300.451C392.536 300.454 392.533 300.454 392.533 300.454ZM392.548 300.448C392.559 300.445 392.568 300.445 392.576 300.443C392.568 300.445 392.559 300.445 392.548 300.448ZM392.585 300.44C392.588 300.44 392.591 300.437 392.594 300.437C392.591 300.437 392.588 300.44 392.585 300.44ZM392.605 300.434C392.608 300.434 392.611 300.431 392.614 300.431C392.611 300.431 392.608 300.434 392.605 300.434ZM392.643 300.422C392.646 300.422 392.649 300.422 392.652 300.422C392.649 300.422 392.646 300.422 392.643 300.422ZM392.655 300.419C392.663 300.419 392.669 300.416 392.675 300.414C392.669 300.416 392.663 300.419 392.655 300.419ZM392.681 300.414C392.686 300.411 392.695 300.411 392.704 300.408C392.695 300.411 392.686 300.411 392.681 300.414ZM392.704 300.408C392.721 300.402 392.738 300.399 392.756 300.393C392.738 300.399 392.721 300.402 392.704 300.408ZM392.756 300.393C392.764 300.39 392.773 300.39 392.782 300.388C392.773 300.39 392.764 300.39 392.756 300.393ZM392.785 300.388C392.886 300.362 392.996 300.333 393.109 300.307C392.996 300.333 392.886 300.362 392.785 300.388ZM406.093 297.331V297.328C407.372 296.946 408.54 296.533 409.488 296.087C409.488 296.09 409.488 296.09 409.488 296.09C408.54 296.533 407.372 296.946 406.093 297.331Z" fill="#D3C5C3"/>
<path d="M393.109 300.306C395.853 299.638 401.651 298.661 406.093 297.328V297.331C401.651 298.661 395.853 299.638 393.109 300.306Z" fill="#3A7F73"/>
<path d="M382.646 318.202C377.816 318.202 372.975 315.434 370.783 311.091C370.598 310.723 370.43 310.342 370.291 309.951C379.517 305.336 388.976 301.559 392.189 300.555C392.195 300.552 392.201 300.549 392.206 300.549C392.212 300.547 392.218 300.547 392.221 300.544C392.224 300.544 392.224 300.544 392.224 300.544C392.235 300.541 392.244 300.538 392.253 300.535C392.255 300.535 392.255 300.535 392.255 300.532C392.267 300.529 392.276 300.526 392.284 300.523C392.287 300.523 392.287 300.523 392.29 300.523C392.293 300.521 392.299 300.521 392.305 300.518C392.31 300.518 392.316 300.515 392.319 300.515H392.322C392.328 300.512 392.331 300.512 392.336 300.509H392.339C392.345 300.506 392.348 300.506 392.354 300.503C392.354 300.503 392.354 300.503 392.357 300.503C392.36 300.503 392.365 300.5 392.371 300.5L392.374 300.497C392.38 300.497 392.386 300.495 392.389 300.495C392.389 300.495 392.388 300.495 392.391 300.495C392.394 300.492 392.4 300.492 392.406 300.489C392.406 300.489 392.406 300.489 392.409 300.489C392.412 300.486 392.417 300.486 392.42 300.486C392.423 300.483 392.426 300.483 392.429 300.483C392.432 300.483 392.438 300.48 392.441 300.48C392.441 300.48 392.443 300.48 392.443 300.477C392.449 300.477 392.455 300.474 392.461 300.474C392.461 300.474 392.461 300.474 392.464 300.474C392.467 300.471 392.472 300.471 392.478 300.468C392.484 300.466 392.49 300.466 392.495 300.463H392.498C392.504 300.463 392.507 300.46 392.513 300.46L392.516 300.457C392.522 300.457 392.527 300.454 392.533 300.454C392.533 300.454 392.536 300.454 392.536 300.451C392.542 300.451 392.545 300.451 392.548 300.448C392.559 300.445 392.568 300.445 392.576 300.442C392.579 300.44 392.582 300.44 392.585 300.44C392.588 300.44 392.591 300.437 392.594 300.437C392.6 300.437 392.603 300.434 392.605 300.434C392.608 300.434 392.611 300.431 392.614 300.431C392.623 300.428 392.634 300.425 392.643 300.422C392.646 300.422 392.649 300.422 392.652 300.422C392.655 300.422 392.655 300.419 392.655 300.419C392.663 300.419 392.669 300.416 392.675 300.414C392.678 300.414 392.678 300.414 392.681 300.414C392.686 300.411 392.695 300.411 392.704 300.408C392.721 300.402 392.738 300.399 392.756 300.393C392.764 300.39 392.773 300.39 392.782 300.388C392.782 300.388 392.782 300.388 392.785 300.388C392.886 300.361 392.996 300.333 393.109 300.307C395.853 299.638 401.651 298.661 406.093 297.331C407.372 296.946 408.54 296.533 409.488 296.09C409.289 299.072 408.815 302.105 408.711 304.468C408.638 306.166 408.525 307.927 407.704 309.41C406.49 311.597 403.974 312.727 401.524 313.228C399.075 313.728 396.533 313.745 394.129 314.434C391.232 315.261 388.664 317.025 385.752 317.803C384.734 318.072 383.69 318.202 382.646 318.202Z" fill="#F8AB67"/>
<path d="M354.357 324.523C353.64 324.523 352.928 324.483 352.225 324.376C351.569 323.939 350.901 323.853 350.482 323.853C350.398 323.853 350.323 323.855 350.259 323.861C350.219 323.838 350.181 323.815 350.143 323.792C352.486 320.133 359.172 315.796 366.601 311.851C367.911 313.777 367.995 316.519 366.752 318.552C365.956 319.853 364.829 320.917 363.678 321.915C362.995 322.508 362.289 323.092 361.474 323.488C360.291 324.061 358.952 324.2 357.645 324.324C356.558 324.428 355.453 324.523 354.357 324.523Z" fill="#F8AB67"/>
<path d="M352.225 324.376C351.676 324.295 351.132 324.171 350.6 323.997C350.484 323.96 350.369 323.916 350.259 323.861C350.322 323.855 350.398 323.853 350.481 323.853C350.901 323.853 351.569 323.939 352.225 324.376Z" fill="#F1AB61"/>
<path d="M448.981 335.007C446.881 334.498 444.984 333.072 444.142 331.091C443.483 329.538 443.486 327.797 443.5 326.111C443.544 321.045 443.599 315.911 444.952 311.03C445.12 310.423 445.322 309.795 445.776 309.358C446.45 308.705 447.486 308.647 448.425 308.63C449.597 308.63 451.248 308.433 452.885 308.433C453.266 308.433 453.645 308.442 454.018 308.468C453.2 318.612 451.803 328.335 448.981 335.007Z" fill="#F8AB67"/>
<path d="M455.077 289.65C455.181 287.296 455.279 285.02 455.389 282.848C455.279 285.017 455.181 287.299 455.077 289.65Z" fill="#D3C5C3"/>
<path d="M454.331 304.187C452.879 303.476 451.87 302.013 451.242 300.503C450.545 298.826 450.198 297.018 449.481 295.353C448.628 293.377 447.245 291.57 447 289.433C446.728 287.05 448.096 284.566 450.256 283.522C451.147 283.094 452.697 282.804 454.31 282.804C454.669 282.804 455.031 282.819 455.389 282.848C455.279 285.02 455.181 287.296 455.077 289.65C454.871 294.311 454.655 299.254 454.331 304.187Z" fill="#F8AB67"/>
<path d="M455.638 278.49C455.806 275.849 456.005 273.452 456.265 271.381C456.005 273.452 455.806 275.849 455.638 278.49ZM456.268 271.367C456.271 271.338 456.277 271.306 456.28 271.277C456.277 271.306 456.271 271.335 456.268 271.367ZM456.28 271.269C456.283 271.26 456.283 271.251 456.286 271.24C456.283 271.251 456.283 271.26 456.28 271.269ZM456.286 271.222C456.289 271.214 456.289 271.202 456.292 271.193C456.289 271.202 456.289 271.214 456.286 271.222ZM456.294 271.159C456.294 271.156 456.294 271.153 456.297 271.15C456.294 271.153 456.294 271.156 456.294 271.159ZM456.3 271.112C456.3 271.11 456.3 271.107 456.303 271.104C456.3 271.107 456.3 271.11 456.3 271.112ZM456.309 271.06C456.309 271.057 456.309 271.055 456.309 271.055C456.309 271.057 456.309 271.057 456.309 271.06ZM456.315 271.017C456.315 271.014 456.315 271.008 456.315 271.005C456.315 271.008 456.315 271.014 456.315 271.017ZM456.326 270.916V270.913V270.916ZM456.601 269.105C456.601 269.105 456.601 269.103 456.601 269.1C456.601 269.103 456.601 269.105 456.601 269.105ZM456.615 269.022C456.615 269.022 456.615 269.016 456.618 269.016C456.615 269.016 456.615 269.019 456.615 269.022ZM456.624 268.975C457.234 265.517 458.322 260.184 459.626 253.975C458.322 260.184 457.234 265.514 456.624 268.975Z" fill="#D3C5C3"/>
<path d="M455.638 278.49C454.912 278.16 454.218 277.758 453.752 277.128C453.266 276.465 453.09 275.63 453.012 274.814C452.685 271.425 453.848 268.085 454.122 264.692C454.241 263.206 454.189 261.699 454.501 260.242C454.967 258.084 456.21 256.161 457.717 254.55C457.928 254.322 458.157 254.093 458.452 254.001C458.654 253.934 458.857 253.903 459.065 253.903C459.25 253.903 459.438 253.929 459.626 253.975C458.322 260.184 457.234 265.517 456.624 268.975C456.621 268.99 456.618 269.001 456.618 269.016C456.615 269.016 456.615 269.022 456.615 269.022C456.61 269.048 456.607 269.074 456.601 269.1C456.601 269.103 456.601 269.105 456.601 269.105C456.503 269.672 456.413 270.277 456.326 270.913V270.916C456.323 270.945 456.317 270.976 456.315 271.005C456.315 271.008 456.315 271.014 456.315 271.017C456.312 271.029 456.309 271.04 456.309 271.055C456.309 271.055 456.309 271.057 456.309 271.06C456.306 271.075 456.303 271.089 456.303 271.104C456.3 271.107 456.3 271.11 456.3 271.112C456.3 271.124 456.297 271.138 456.297 271.15C456.294 271.153 456.294 271.156 456.294 271.159C456.294 271.17 456.291 271.182 456.291 271.193C456.289 271.202 456.289 271.214 456.286 271.222C456.286 271.228 456.286 271.234 456.286 271.24C456.283 271.251 456.283 271.26 456.28 271.269C456.28 271.271 456.28 271.274 456.28 271.277C456.277 271.306 456.271 271.338 456.268 271.367C456.268 271.373 456.268 271.376 456.265 271.381C456.005 273.452 455.806 275.849 455.638 278.49Z" fill="#F8AB67"/>
<path d="M461.011 247.413C461.02 247.37 461.028 247.329 461.037 247.286C461.028 247.329 461.02 247.373 461.011 247.413ZM461.04 247.277C461.367 245.736 461.699 244.163 462.038 242.575C461.699 244.163 461.367 245.733 461.04 247.277ZM462.058 242.477C462.078 242.39 462.095 242.3 462.116 242.213C462.095 242.3 462.078 242.39 462.058 242.477ZM462.127 242.15C462.171 241.947 462.214 241.751 462.255 241.551C462.214 241.751 462.171 241.947 462.127 242.15ZM462.281 241.438C462.295 241.363 462.312 241.288 462.327 241.213C462.312 241.288 462.295 241.363 462.281 241.438ZM462.338 241.161C462.347 241.12 462.356 241.077 462.364 241.036C462.356 241.077 462.347 241.117 462.338 241.161ZM462.382 240.955C462.385 240.944 462.388 240.929 462.39 240.921C462.388 240.932 462.385 240.944 462.382 240.955ZM462.454 240.614C462.46 240.588 462.466 240.562 462.471 240.536C462.466 240.562 462.46 240.588 462.454 240.614ZM464.175 232.491C464.181 232.47 464.183 232.45 464.189 232.43C464.183 232.45 464.181 232.47 464.175 232.491ZM464.192 232.413C464.195 232.395 464.198 232.378 464.204 232.361C464.198 232.378 464.195 232.395 464.192 232.413ZM464.207 232.335C464.227 232.242 464.247 232.147 464.267 232.057C464.247 232.149 464.227 232.242 464.207 232.335ZM464.29 231.938C464.583 230.559 464.872 229.182 465.155 227.826C464.872 229.182 464.583 230.556 464.29 231.938Z" fill="#D3C5C3"/>
<path d="M458.483 251.638C458.275 251.638 458.067 251.627 457.859 251.601C456.835 251.479 455.808 250.964 455.296 250.068C454.816 249.226 454.851 248.2 454.897 247.234C455.068 243.752 455.239 240.27 455.409 236.785C455.444 236.068 455.484 235.325 455.803 234.677C456.332 233.59 457.506 233.003 458.382 232.17C459.594 231.016 461.971 227.305 463.981 227.305C464.392 227.305 464.788 227.462 465.155 227.826C464.872 229.182 464.582 230.559 464.29 231.938C464.282 231.979 464.276 232.016 464.267 232.057C464.247 232.147 464.227 232.242 464.207 232.335C464.207 232.343 464.204 232.352 464.204 232.361C464.198 232.378 464.195 232.395 464.192 232.413C464.189 232.418 464.189 232.424 464.189 232.43C464.183 232.45 464.181 232.47 464.175 232.491C463.611 235.166 463.038 237.867 462.471 240.536C462.466 240.562 462.46 240.588 462.454 240.614C462.434 240.715 462.411 240.819 462.39 240.921C462.388 240.929 462.385 240.944 462.382 240.955C462.376 240.981 462.37 241.01 462.364 241.036C462.356 241.077 462.347 241.12 462.338 241.161C462.335 241.178 462.33 241.195 462.327 241.213C462.312 241.288 462.295 241.363 462.281 241.438C462.272 241.476 462.263 241.514 462.254 241.551C462.214 241.751 462.171 241.947 462.127 242.15C462.124 242.17 462.119 242.193 462.116 242.213C462.095 242.3 462.078 242.39 462.058 242.477C462.052 242.508 462.043 242.543 462.038 242.575C461.699 244.163 461.367 245.736 461.04 247.277C461.037 247.28 461.037 247.283 461.037 247.286C461.028 247.329 461.02 247.37 461.011 247.413C460.719 248.781 460.435 250.126 460.158 251.439C459.605 251.557 459.044 251.638 458.483 251.638Z" fill="#F8AB67"/>
<path d="M437.931 246.502C439.943 242.951 441.485 240.227 442.214 238.888C441.485 240.227 439.943 242.951 437.931 246.502ZM442.214 238.888C442.219 238.882 442.222 238.876 442.225 238.87C442.222 238.876 442.219 238.882 442.214 238.888ZM442.225 238.868C442.228 238.862 442.231 238.856 442.234 238.85C442.231 238.856 442.228 238.862 442.225 238.868ZM442.237 238.844C442.24 238.841 442.243 238.836 442.245 238.83C442.243 238.836 442.24 238.841 442.237 238.844ZM442.248 238.824C442.251 238.821 442.254 238.815 442.254 238.813C442.254 238.815 442.251 238.821 442.248 238.824ZM442.26 238.804C442.263 238.798 442.263 238.795 442.266 238.792C442.263 238.795 442.263 238.798 442.26 238.804ZM442.271 238.781C442.274 238.778 442.274 238.775 442.277 238.772C442.274 238.775 442.274 238.778 442.271 238.781ZM442.786 237.69C442.789 237.685 442.789 237.682 442.792 237.679C442.789 237.682 442.789 237.685 442.786 237.69ZM442.795 237.667C442.798 237.662 442.801 237.653 442.804 237.647C442.801 237.653 442.798 237.662 442.795 237.667ZM442.809 237.638C442.812 237.633 442.812 237.627 442.815 237.621C442.815 237.627 442.812 237.633 442.809 237.638ZM442.821 237.61C442.824 237.604 442.827 237.595 442.83 237.589C442.827 237.595 442.824 237.604 442.821 237.61ZM442.832 237.584C442.835 237.575 442.838 237.566 442.844 237.557C442.841 237.566 442.835 237.575 442.832 237.584ZM442.844 237.555C442.85 237.546 442.853 237.534 442.856 237.526C442.853 237.534 442.85 237.546 442.844 237.555ZM442.856 237.526C442.861 237.517 442.864 237.505 442.867 237.497C442.864 237.505 442.861 237.517 442.856 237.526ZM442.87 237.494C443.709 235.507 444.756 232.387 445.892 228.659C444.756 232.384 443.709 235.507 442.87 237.494Z" fill="#D3C5C3"/>
<path d="M439.582 246.791C439.012 246.791 438.457 246.705 437.931 246.502C439.943 242.951 441.485 240.227 442.214 238.888C442.219 238.882 442.222 238.876 442.225 238.87C442.225 238.868 442.225 238.867 442.225 238.867C442.228 238.862 442.231 238.856 442.234 238.85C442.237 238.85 442.237 238.847 442.237 238.844C442.24 238.841 442.243 238.836 442.245 238.83C442.245 238.83 442.248 238.827 442.248 238.824C442.251 238.821 442.254 238.815 442.254 238.813C442.257 238.81 442.257 238.807 442.26 238.804C442.263 238.798 442.263 238.795 442.266 238.792C442.269 238.789 442.269 238.787 442.271 238.781C442.274 238.778 442.274 238.775 442.277 238.772C442.28 238.766 442.28 238.763 442.283 238.76C442.439 238.46 442.61 238.101 442.786 237.69C442.789 237.685 442.789 237.682 442.792 237.679C442.792 237.676 442.795 237.67 442.795 237.667C442.798 237.662 442.801 237.653 442.804 237.647C442.806 237.644 442.806 237.641 442.809 237.638C442.812 237.633 442.815 237.627 442.815 237.621C442.818 237.618 442.821 237.612 442.821 237.61C442.824 237.604 442.827 237.595 442.83 237.589C442.83 237.586 442.832 237.583 442.832 237.583C442.835 237.575 442.841 237.566 442.844 237.557C442.844 237.555 442.844 237.555 442.844 237.555C442.85 237.546 442.853 237.534 442.856 237.526C442.861 237.517 442.864 237.505 442.867 237.497C442.87 237.497 442.87 237.497 442.87 237.494C443.709 235.507 444.756 232.384 445.892 228.659C446.612 229.929 447.332 231.201 448.05 232.473C448.981 234.119 449.938 235.845 450.002 237.737C450.065 239.663 449.166 241.54 447.836 242.934C446.505 244.327 444.776 245.288 442.989 246.008C441.913 246.441 440.724 246.791 439.582 246.791Z" fill="#F8AB67"/>
<path d="M447.919 221.747C448.015 221.409 448.11 221.068 448.206 220.724C448.11 221.068 448.015 221.406 447.919 221.747ZM448.214 220.7C448.249 220.573 448.286 220.446 448.321 220.319C448.286 220.446 448.249 220.573 448.214 220.7ZM448.324 220.304C448.33 220.287 448.336 220.27 448.339 220.252C448.336 220.27 448.33 220.284 448.324 220.304ZM448.341 220.244C448.344 220.235 448.347 220.223 448.35 220.215C448.347 220.223 448.344 220.235 448.341 220.244ZM448.373 220.131C448.373 220.128 448.373 220.128 448.376 220.125C448.373 220.128 448.373 220.131 448.373 220.131ZM448.402 220.027C448.405 220.015 448.408 220.003 448.414 219.992C448.411 220.001 448.405 220.015 448.402 220.027ZM448.44 219.891C448.443 219.879 448.448 219.868 448.451 219.856C448.448 219.868 448.443 219.879 448.44 219.891Z" fill="#D3C5C3"/>
<path d="M449.362 223.63C449.033 223.63 448.717 223.546 448.509 223.297C448.295 223.046 448.258 222.693 448.171 222.372C448.11 222.152 448.023 221.944 447.919 221.747C448.015 221.406 448.11 221.068 448.206 220.723C448.208 220.718 448.211 220.709 448.214 220.7C448.249 220.573 448.286 220.446 448.321 220.319C448.321 220.313 448.324 220.307 448.324 220.304C448.33 220.284 448.336 220.269 448.339 220.252C448.341 220.249 448.341 220.246 448.341 220.243C448.344 220.235 448.347 220.223 448.35 220.214C448.359 220.188 448.365 220.16 448.373 220.131C448.373 220.131 448.373 220.128 448.376 220.125C448.385 220.093 448.393 220.061 448.402 220.027C448.405 220.015 448.411 220 448.414 219.992C448.422 219.957 448.431 219.925 448.44 219.891C448.443 219.879 448.448 219.867 448.451 219.856C449.842 214.876 451.248 209.595 452.488 204.812C452.844 205.061 453.165 205.307 453.44 205.515C456.633 207.953 458.854 211.706 459.238 215.726C459.313 216.493 459.322 217.285 459.042 218.002C458.567 219.208 457.379 219.957 456.265 220.619C454.296 221.793 452.295 222.979 450.071 223.532C449.845 223.586 449.599 223.63 449.362 223.63Z" fill="#F8AB67"/>
<path d="M475.734 185.916C475.734 186.266 475.45 186.547 475.103 186.547C474.753 186.547 474.47 186.266 474.47 185.916C474.47 185.566 474.753 185.283 475.103 185.283C475.45 185.283 475.734 185.566 475.734 185.916Z" fill="#21111D"/>
<path d="M839.33 318.138H64.2532C64.3937 315.24 64.5742 312.343 64.7928 309.448H836.112C837.254 312.325 838.327 315.223 839.33 318.138Z" fill="#33335E"/>
<path d="M847.032 412.158C846.557 414.558 846.017 416.97 845.401 419.39H71.3338C70.7739 416.984 70.2496 414.572 69.7632 412.158H847.032Z" fill="#33335E"/>
<path d="M102.478 469.675H96.9253V267.408H102.478V469.675Z" fill="#33335E"/>
<path d="M183.421 469.675H177.869V267.408H183.421V469.675Z" fill="#33335E"/>
<path d="M264.365 469.675H258.812V267.408H264.365V469.675Z" fill="#33335E"/>
<path d="M345.308 469.675H339.755V267.408H345.308V469.675Z" fill="#33335E"/>
<path d="M426.25 469.675H420.7V267.408H426.25V469.675Z" fill="#33335E"/>
<path d="M507 470H502V267H507V470Z" fill="#33335E"/>
<path d="M582.585 469.675H588.137V267.409H582.585V469.675Z" fill="#33335E"/>
<path d="M669.083 469.675H663.53V267.408H669.083V469.675Z" fill="#33335E"/>
<path d="M750.025 469.675H744.472V267.408H750.025V469.675Z" fill="#33335E"/>
<path d="M830.967 297.646V461.907C829.619 464.539 828.188 467.133 826.667 469.675H825.414V286.839C825.524 287.035 825.634 287.235 825.744 287.432C827.592 290.798 829.336 294.202 830.967 297.646Z" fill="#33335E"/>
<path d="M104.71 267.408C104.71 270.175 102.468 272.42 99.7012 272.42C96.9348 272.42 94.6921 270.175 94.6921 267.408C94.6921 264.643 96.9348 262.399 99.7012 262.399C102.468 262.399 104.71 264.643 104.71 267.408Z" fill="#33335E"/>
<path d="M185.654 267.408C185.654 270.175 183.411 272.42 180.645 272.42C177.878 272.42 175.636 270.175 175.636 267.408C175.636 264.643 177.878 262.399 180.645 262.399C183.411 262.399 185.654 264.643 185.654 267.408Z" fill="#33335E"/>
<path d="M266.597 267.408C266.597 270.175 264.355 272.42 261.588 272.42C258.822 272.42 256.579 270.175 256.579 267.408C256.579 264.643 258.822 262.399 261.588 262.399C264.355 262.399 266.597 264.643 266.597 267.408Z" fill="#33335E"/>
<path d="M347.54 267.408C347.54 270.175 345.299 272.42 342.532 272.42C339.764 272.42 337.523 270.175 337.523 267.408C337.523 264.643 339.764 262.399 342.532 262.399C345.299 262.399 347.54 264.643 347.54 267.408Z" fill="#33335E"/>
<path d="M428.486 267.408C428.486 270.175 426.241 272.42 423.474 272.42C420.709 272.42 418.465 270.175 418.465 267.408C418.465 264.643 420.709 262.399 423.474 262.399C426.241 262.399 428.486 264.643 428.486 267.408Z" fill="#33335E"/>
<path d="M509.428 267.408C509.428 270.175 507.186 272.42 504.419 272.42C501.651 272.42 499.41 270.175 499.41 267.408C499.41 264.643 501.651 262.399 504.419 262.399C507.186 262.399 509.428 264.643 509.428 267.408Z" fill="#33335E"/>
<path d="M590.37 267.408C590.37 270.175 588.129 272.42 585.361 272.42C582.596 272.42 580.352 270.175 580.352 267.408C580.352 264.643 582.596 262.399 585.361 262.399C588.129 262.399 590.37 264.643 590.37 267.408Z" fill="#33335E"/>
<path d="M671.315 267.408C671.315 270.175 669.071 272.42 666.306 272.42C663.539 272.42 661.297 270.175 661.297 267.408C661.297 264.643 663.539 262.399 666.306 262.399C669.071 262.399 671.315 264.643 671.315 267.408Z" fill="#33335E"/>
<path d="M752.257 267.408C752.257 270.175 750.016 272.42 747.249 272.42C744.484 272.42 742.24 270.175 742.24 267.408C742.24 264.643 744.484 262.399 747.249 262.399C750.016 262.399 752.257 264.643 752.257 267.408Z" fill="#33335E"/>
<path d="M826.667 469.675C815.402 488.516 799.251 504.775 776.573 514.969C765.682 526.077 223.399 516.449 219.727 519.752C167.826 521.47 106.486 524.353 86.5173 473.548C86.0175 472.261 85.5288 470.971 85.0493 469.675H826.667Z" fill="#7EC3A5"/>
<path d="M519.069 207.667C505.68 206.492 505.518 221.678 505.518 221.678C505.518 221.678 499.43 215.9 495.04 223.225C495.04 223.225 487.455 218.841 483.629 226.938C483.554 227.097 483.516 227.256 483.507 227.416H535.348C535.322 226.924 535.128 226.427 534.732 226.001C533.862 225.076 532.381 224.321 529.888 224.148C529.888 224.148 530.744 208.69 519.069 207.667Z" fill="white"/>
<path d="M410.576 135.539C404.986 134.544 403.144 140.23 403.144 140.23C403.23 136.453 394.127 129.35 388.889 136.788C387.527 138.72 387.001 140.426 386.969 141.89C386.888 145.473 389.971 148.321 393.54 148.02C402.166 147.295 412.091 147.717 416.325 147.96C417.812 148.044 418.474 146.115 417.245 145.276C415.993 144.423 414.188 144.805 414.188 144.805C414.188 144.805 416.166 136.534 410.576 135.539Z" fill="white"/>
<path d="M338.04 189.262C337.604 189.725 337.393 190.269 337.364 190.807H394.138C394.129 190.636 394.086 190.459 394.005 190.289C389.815 181.419 381.506 186.22 381.506 186.22C376.7 178.198 370.034 184.525 370.034 184.525C370.034 184.525 369.855 167.894 355.19 169.181C342.404 170.303 343.344 187.229 343.344 187.229C340.614 187.42 338.992 188.247 338.04 189.262Z" fill="white"/>
<path d="M194.212 163.443C186.808 162.124 184.371 169.655 184.371 169.655C184.486 164.655 172.428 155.247 165.491 165.097C163.69 167.657 162.993 169.915 162.95 171.856C162.844 176.598 166.925 180.375 171.652 179.976C183.077 179.013 196.219 179.571 201.826 179.895C203.795 180.005 204.673 177.451 203.044 176.338C201.387 175.21 198.998 175.713 198.998 175.713C198.998 175.713 201.617 164.762 194.212 163.443Z" fill="white"/>
<path d="M671.147 358.805L671.179 358.796C671.301 358.744 671.358 358.605 671.309 358.481L669.701 354.608C669.649 354.484 669.511 354.426 669.386 354.478C669.265 354.527 669.207 354.669 669.256 354.79L670.864 358.666C670.913 358.778 671.035 358.836 671.147 358.805Z" fill="black"/>
<path d="M669.239 428.005H669.265C669.418 427.991 669.534 427.855 669.519 427.702L666.526 393.629C666.512 393.476 666.378 393.36 666.222 393.374C666.066 393.389 665.953 393.525 665.965 393.678L668.958 427.751C668.973 427.895 669.094 428.005 669.239 428.005Z" fill="black"/>
<path d="M715.634 357.269L709.72 356.086C709.514 356.046 709.315 356.179 709.274 356.387C709.231 356.592 709.367 356.792 709.572 356.832L715.483 358.015C715.668 358.053 715.848 357.948 715.914 357.778L715.932 357.717C715.972 357.512 715.839 357.309 715.634 357.269Z" fill="#F07162"/>
<path d="M681.628 372.347C681.685 372.342 681.738 372.304 681.752 372.243C681.772 372.171 681.729 372.096 681.654 372.076C680.627 371.804 679.129 371.052 679.115 371.043C679.048 371.008 678.964 371.037 678.932 371.104C678.898 371.173 678.924 371.254 678.99 371.289C679.054 371.321 680.529 372.061 681.584 372.342L681.628 372.347Z" fill="#F07162"/>
<path d="M681.72 374.082C681.787 374.08 681.842 374.03 681.85 373.961C681.859 373.886 681.807 373.819 681.732 373.808C680.451 373.64 679.303 373.059 679.291 373.053C679.222 373.018 679.141 373.044 679.106 373.111C679.071 373.177 679.097 373.261 679.164 373.296C679.213 373.322 680.364 373.906 681.697 374.08L681.72 374.082Z" fill="#F07162"/>
<path d="M681.524 376.078C681.587 376.075 681.642 376.026 681.654 375.962C681.665 375.887 681.613 375.818 681.538 375.806C680.436 375.63 679.412 375.054 679.404 375.046C679.337 375.008 679.253 375.034 679.216 375.098C679.178 375.164 679.201 375.248 679.268 375.286C679.311 375.312 680.344 375.893 681.495 376.075L681.524 376.078Z" fill="#F07162"/>
<path d="M570.896 389.28L572.203 388.999L572.293 389.045C571.798 389.118 571.335 389.196 570.896 389.28Z" fill="#3B9581"/>
<path d="M316.238 508.595C316.238 508.595 316.362 498.832 310.214 502.334C310.214 502.334 309.65 496.238 305.694 500.231C305.694 500.231 306.385 482.368 294.586 482.579C294.586 482.579 288.94 481.526 285.551 489.722C285.551 489.722 282.915 483.137 278.459 489.583C278.459 489.583 284.923 473.961 281.221 472.208C277.518 470.459 274.067 479.285 274.067 479.285C274.067 479.285 277.706 460.511 271.305 459.738C264.904 458.969 264.34 470.178 264.34 470.178C264.34 470.178 261.829 462.121 258.503 464.785C255.177 467.445 258.19 476.133 258.19 476.133C258.19 476.133 254.612 468.848 251.726 473.611C248.839 478.374 250.811 484.149 250.811 484.149C250.811 484.149 247.787 480.526 243.833 482.698C239.88 484.869 242.501 492.666 242.501 492.666C242.501 492.666 237.731 488.111 234.782 492.805C234.782 492.805 230.389 484.048 226.874 491.194C223.36 498.34 223.433 508.514 223.433 508.514L316.238 508.595Z" fill="#3C9896"/>
<path d="M189.102 510.122H255.1C255.087 509.899 255.038 509.671 254.944 509.448C250.072 497.938 240.415 504.17 240.415 504.17C234.827 493.759 227.079 501.972 227.079 501.972C227.079 501.972 226.873 480.39 209.826 482.058C194.962 483.513 196.056 505.48 196.056 505.48C192.882 505.729 190.995 506.799 189.889 508.115C189.382 508.719 189.138 509.425 189.102 510.122Z" fill="#267F7B"/>
<path d="M432.829 494.167H385.858C385.867 494.008 385.902 493.846 385.968 493.687C389.436 485.497 396.31 489.93 396.31 489.93C400.286 482.521 405.801 488.366 405.801 488.366C405.801 488.366 405.946 473.007 418.08 474.195C428.659 475.231 427.881 490.864 427.881 490.864C430.14 491.041 431.481 491.804 432.268 492.738C432.63 493.169 432.803 493.669 432.829 494.167Z" fill="#3C9896"/>
</svg>
