<svg width="107" height="95" viewBox="0 0 107 95" fill="none" xmlns="http://www.w3.org/2000/svg">
<rect x="1.82812" y="1.98389" width="103.343" height="91" rx="14.5" fill="white" stroke="#ADC6F7" stroke-width="3"/>
<path d="M73.2133 34.6883C73.2133 34.6883 74.0282 33.3344 74.7746 33.9309C75.522 34.5269 75.9038 36.0086 75.9038 36.0086L73.898 38.0234L72.4443 36.6448L73.2133 34.6883Z" fill="#77591D"/>
<path d="M31.2157 29.8789C30.6793 31.6398 31.9841 36.0981 32.2108 36.6924C34.0677 41.5539 37.7651 45.154 42.0042 47.2824C52.664 52.6357 61.9602 49.2521 67.2374 46.2551C72.5147 43.2587 73.9733 39.7169 74.5597 38.2033C75.1465 36.6891 73.6527 35.4966 73.2137 34.6886C72.7747 33.88 63.6561 38.8863 52.7692 39.0818C45.1671 39.2184 39.022 34.5376 33.1637 29.7687C32.871 29.5308 32.5784 29.2586 32.2225 29.1887C31.6831 29.0824 31.3718 29.3666 31.2157 29.8789Z" fill="#F79C0F"/>
<path d="M75.1595 50.022C75.1595 50.022 76.4017 48.8554 77.0375 49.7521C77.6738 50.6488 77.6778 52.3663 77.6778 52.3663L74.9808 53.8281L73.8018 51.8491L75.1595 50.022Z" fill="#77591D"/>
<path d="M31.5324 30.3373C30.4771 32.036 30.6543 37.2583 30.7351 37.9727C31.3929 43.8179 34.3653 48.9504 38.3201 52.6954C48.2638 62.1137 59.1361 61.7111 65.6022 60.3308C72.0689 58.9504 74.5974 55.6654 75.6389 54.2487C76.6805 52.8314 75.4084 51.0385 75.1593 50.0217C74.9106 49.0049 63.7844 51.2049 52.0811 47.6461C43.9092 45.1614 38.6123 38.025 33.6468 30.8937C33.3986 30.5378 33.1603 30.1451 32.7986 29.9474C32.2499 29.6472 31.8393 29.8433 31.5324 30.3373Z" fill="#FBC20B"/>
<path d="M30.8431 32.3994C30.8431 32.3994 31.4354 27.5687 31.1392 26.4027C30.8431 25.2366 29.6591 24.9033 30.3992 23.5704C31.1392 22.238 33.8038 22.0716 34.3955 23.404C34.9878 24.737 33.5077 25.9031 33.3594 26.7353C33.2115 27.5687 32.7676 33.5654 32.7676 33.5654L30.8431 32.3994Z" fill="#77591D"/>
<path d="M72.7331 64.5491C72.7331 64.5491 74.3615 63.7162 74.8054 64.8818C75.2494 66.0484 74.8054 67.8809 74.8054 67.8809L71.5486 68.5469L70.8091 66.0484L72.7331 64.5491Z" fill="#77591D"/>
<path d="M31.3682 29.1445C29.8004 30.6064 28.6258 36.2318 28.5249 37.0195C27.7012 43.4679 29.5298 49.9206 32.7675 55.2206C40.9086 68.5469 52.6026 71.7119 59.8558 72.3785C67.1085 73.0448 70.6609 70.3795 72.141 69.2134C73.6216 68.0468 72.7332 65.7152 72.7332 64.5491C72.7332 63.3831 60.2997 62.0506 48.7535 54.3877C40.6917 49.0371 36.9088 39.6794 33.4767 30.4367C33.3059 29.9751 33.1537 29.4772 32.8199 29.1467C32.3133 28.646 31.8243 28.7187 31.3682 29.1445Z" fill="#F9E105"/>
<path d="M58.982 68.7714C54.7727 67.2991 50.7269 67.3112 46.6576 64.9538C42.8007 62.7202 39.4651 59.6131 36.6219 55.9425C36.339 55.5773 35.8045 56.0499 36.0286 56.4569C40.2644 64.1545 50.4029 72.5396 58.982 70.0989C59.585 69.9276 59.5414 68.967 58.982 68.7714Z" fill="#FBC20B"/>
<path d="M65.8947 68.9398C65.1629 68.8363 64.4371 68.8341 63.7044 68.931C63.3255 68.9811 63.0074 69.2576 63.0035 69.7209C62.9995 70.1362 63.3275 70.5251 63.7044 70.5096C64.3744 70.4821 65.0279 70.5333 65.6842 70.6876C66.7972 70.9492 67.0454 69.1023 65.8947 68.9398Z" fill="#FBC20B"/>
<path d="M70.2075 55.1948C68.6188 54.9717 66.9253 55.9373 65.3336 56.1928C63.5324 56.4826 61.6798 56.5531 59.8625 56.59C59.255 56.6015 59.1782 57.5247 59.7235 57.7423C61.6749 58.5228 63.5368 58.7613 65.6062 58.4583C67.259 58.2171 69.534 57.8811 70.628 56.3361C70.9662 55.8574 70.7362 55.2697 70.2075 55.1948Z" fill="#F79C0F"/>
<path d="M72.9806 53.8781C72.7505 53.7801 72.5459 53.7999 72.3154 53.8847C71.7232 54.1001 71.9767 55.156 72.5734 54.9384C72.844 54.8398 73.028 54.7126 73.1847 54.4432C73.3158 54.2185 73.1749 53.9607 72.9806 53.8781Z" fill="#F79C0F"/>
<path d="M57.3435 50.2817C56.3176 49.352 54.768 49.3817 53.5052 49.0584C51.9018 48.6475 50.3384 48.0162 48.7663 47.4797C48.2504 47.3035 48.0243 48.0878 48.4198 48.4046C49.8632 49.5624 51.3727 50.2586 53.0794 50.7962C54.3368 51.1928 56.0548 51.7816 57.2559 51.0452C57.481 50.9075 57.5594 50.4778 57.3435 50.2817Z" fill="#F9E105"/>
<path d="M61.701 51.1402C61.3428 50.6957 60.5964 50.7414 60.1001 50.6621C59.6561 50.5916 59.4466 51.3099 59.9082 51.4432C60.4417 51.5974 61.1118 51.9593 61.6389 51.6811C61.8269 51.5814 61.8224 51.2906 61.701 51.1402Z" fill="#F9E105"/>
<path d="M63.2627 39.2298C61.1702 39.0789 59.0127 40.2984 56.8689 40.4498C54.66 40.6057 52.549 40.0461 50.3597 40.0081C49.9442 40.0009 49.8047 40.6426 50.1512 40.8756C53.3248 43.015 60.8932 43.3532 63.5808 40.094C63.8554 39.7608 63.6523 39.2579 63.2627 39.2298Z" fill="#FBC20B"/>
<path d="M66.3623 37.7252C65.9003 37.9323 65.5532 38.2386 65.0369 38.2639C64.4383 38.2937 64.2439 39.3512 64.8886 39.4967C65.6266 39.6636 66.4524 39.6145 67.0529 39.0599C67.5879 38.5669 67.0123 37.4344 66.3623 37.7252Z" fill="#FBC20B"/>
<path d="M69.0053 42.3207C67.7802 42.2777 66.678 43.3782 65.6139 43.9797C64.3159 44.7129 63.0384 45.49 61.7345 46.2105C61.2886 46.4567 61.619 47.1535 62.0531 47.0615C63.5019 46.7542 64.8626 46.3747 66.2154 45.7137C67.3544 45.1568 68.9353 44.6501 69.5334 43.3562C69.7503 42.8891 69.4821 42.3377 69.0053 42.3207Z" fill="#F37216"/>
<path d="M72.1154 39.749C71.5824 39.7826 71.2011 40.0894 70.7571 40.3918C69.9995 40.9102 70.6647 42.1622 71.4473 41.721C71.9167 41.456 72.3239 41.261 72.6347 40.768C72.8951 40.3549 72.5485 39.7226 72.1154 39.749Z" fill="#F37216"/>
<path d="M55.6189 60.1336C54.0512 58.5428 51.6891 58.024 49.8683 56.7979C47.6726 55.3189 45.663 53.4351 43.8985 51.3553C43.5412 50.9334 42.8467 51.5001 43.1638 51.9926C44.6542 54.3054 46.3389 56.263 48.4288 57.8934C50.2589 59.3211 52.9494 61.4065 55.2748 61.0667C55.6527 61.0116 55.9659 60.4861 55.6189 60.1336Z" fill="#F6F12B"/>
<path d="M41.5929 48.9778C41.3369 48.5614 40.9693 48.281 40.7065 47.8712C40.2625 47.1783 39.3389 47.7643 39.6815 48.5448C39.96 49.1805 40.3071 49.7203 40.9032 49.9874C41.3917 50.2066 41.8836 49.4504 41.5929 48.9778Z" fill="#F6F12B"/>
</svg>
