<svg width="98" height="99" viewBox="0 0 98 99" fill="none" xmlns="http://www.w3.org/2000/svg">
<rect x="1.5" y="1.5" width="95" height="96" rx="14.5" fill="white" stroke="#ADC6F7" stroke-width="3"/>
<path d="M32.4212 81.4617H35.3333C35.9388 81.4617 36.4583 81.3641 36.8919 81.1688C37.3294 80.9695 37.6654 80.6902 37.8997 80.3309C38.138 79.9676 38.2572 79.5399 38.2572 79.0477V79.0359C38.2572 78.6766 38.1732 78.3504 38.0052 78.0574C37.8411 77.7645 37.6126 77.5262 37.3197 77.3426C37.0306 77.159 36.6986 77.0535 36.3236 77.0262V76.9207C36.6126 76.8777 36.8724 76.7703 37.1029 76.5984C37.3333 76.4266 37.515 76.2117 37.6478 75.9539C37.7845 75.6961 37.8529 75.4188 37.8529 75.1219V75.1102C37.8529 74.6766 37.7474 74.3035 37.5364 73.991C37.3294 73.6746 37.0306 73.4324 36.64 73.2645C36.2532 73.0926 35.7845 73.0067 35.2337 73.0067H32.4212V74.3192H34.7825C35.2044 74.3192 35.5306 74.4168 35.7611 74.6121C35.9954 74.8035 36.1126 75.0711 36.1126 75.4149V75.4266C36.1126 75.7742 35.9857 76.0438 35.7318 76.2352C35.4779 76.4266 35.1126 76.5223 34.6361 76.5223H32.4212V77.6883H34.8411C35.1888 77.6883 35.4818 77.7352 35.72 77.8289C35.9622 77.9188 36.1439 78.0535 36.265 78.2332C36.39 78.4129 36.4525 78.6336 36.4525 78.8953V78.907C36.4525 79.3094 36.3177 79.616 36.0482 79.827C35.7825 80.0379 35.3939 80.1434 34.8822 80.1434H32.4212V81.4617ZM31.5364 81.4617H33.306V73.0067H31.5364V81.4617ZM42.5521 81.5965C43.2161 81.5965 43.7845 81.4637 44.2572 81.1981C44.7337 80.9285 45.0989 80.5438 45.3529 80.0438C45.6068 79.5399 45.7337 78.9383 45.7337 78.2391V78.2274C45.7337 77.532 45.6048 76.9344 45.347 76.4344C45.0892 75.9305 44.722 75.5438 44.2454 75.2742C43.7728 75.0047 43.2083 74.8699 42.5521 74.8699C41.8958 74.8699 41.3294 75.0067 40.8529 75.2801C40.3802 75.5496 40.015 75.9344 39.7572 76.4344C39.4993 76.9344 39.3704 77.532 39.3704 78.2274V78.2391C39.3704 78.9383 39.4974 79.5399 39.7513 80.0438C40.0052 80.5438 40.3704 80.9285 40.847 81.1981C41.3236 81.4637 41.8919 81.5965 42.5521 81.5965ZM42.5521 80.2547C42.2474 80.2547 41.9876 80.1766 41.7728 80.0203C41.5618 79.8602 41.3997 79.6297 41.2864 79.3289C41.1771 79.0281 41.1224 78.6649 41.1224 78.2391V78.2274C41.1224 77.8055 41.179 77.4461 41.2923 77.1492C41.4056 76.8484 41.5677 76.618 41.7786 76.4578C41.9935 76.2938 42.2513 76.2117 42.5521 76.2117C42.8529 76.2117 43.1087 76.2938 43.3197 76.4578C43.5345 76.618 43.6986 76.8484 43.8118 77.1492C43.9251 77.4461 43.9818 77.8055 43.9818 78.2274V78.2391C43.9818 78.6609 43.9251 79.0223 43.8118 79.3231C43.6986 79.6238 43.5364 79.8543 43.3255 80.0145C43.1146 80.1746 42.8568 80.2547 42.5521 80.2547ZM49.806 81.4852C49.9739 81.4852 50.1322 81.4774 50.2806 81.4617C50.429 81.4461 50.556 81.4285 50.6614 81.409V80.1375C50.5794 80.1453 50.5013 80.1531 50.4271 80.1609C50.3568 80.1649 50.2669 80.1668 50.1575 80.1668C49.8685 80.1668 49.6575 80.1004 49.5247 79.9676C49.3958 79.8309 49.3314 79.618 49.3314 79.3289V76.2996H50.6614V75.0106H49.3314V73.4695H47.6029V75.0106H46.6068V76.2996H47.6029V79.7215C47.6029 80.3465 47.7747 80.7977 48.1185 81.075C48.4622 81.3484 49.0247 81.4852 49.806 81.4852ZM54.8216 81.4852C54.9896 81.4852 55.1478 81.4774 55.2962 81.4617C55.4447 81.4461 55.5716 81.4285 55.6771 81.409V80.1375C55.595 80.1453 55.5169 80.1531 55.4427 80.1609C55.3724 80.1649 55.2825 80.1668 55.1732 80.1668C54.8841 80.1668 54.6732 80.1004 54.5404 79.9676C54.4114 79.8309 54.347 79.618 54.347 79.3289V76.2996H55.6771V75.0106H54.347V73.4695H52.6185V75.0106H51.6224V76.2996H52.6185V79.7215C52.6185 80.3465 52.7904 80.7977 53.1341 81.075C53.4779 81.3484 54.0404 81.4852 54.8216 81.4852ZM57.1595 81.4617H58.8704V72.5438H57.1595V81.4617ZM63.4759 81.5965C63.9486 81.5965 64.3568 81.5379 64.7005 81.4207C65.0482 81.2996 65.3372 81.1434 65.5677 80.952C65.8021 80.7606 65.9857 80.5555 66.1185 80.3367C66.2513 80.1141 66.3431 79.9012 66.3939 79.6981L66.4056 79.6395H64.8118L64.7943 79.6746C64.7552 79.7567 64.681 79.8484 64.5716 79.95C64.4661 80.0477 64.3255 80.1336 64.1497 80.2078C63.9739 80.282 63.7611 80.3192 63.5111 80.3192C63.2025 80.3192 62.9368 80.2508 62.7142 80.1141C62.4915 79.9774 62.3197 79.7801 62.1986 79.5223C62.0775 79.2645 62.0169 78.9539 62.0169 78.5906V77.8992C62.0169 77.5242 62.0775 77.2078 62.1986 76.95C62.3236 76.6883 62.4915 76.491 62.7025 76.3582C62.9173 76.2215 63.1614 76.1531 63.4349 76.1531C63.7122 76.1531 63.9544 76.2195 64.1614 76.3524C64.3724 76.4813 64.5364 76.6746 64.6536 76.9324C64.7747 77.1902 64.8353 77.5125 64.8353 77.8992V78.5848L65.638 77.5711H61.179V78.6434H66.4583V78.1102C66.4583 77.4578 66.3353 76.8895 66.0892 76.4051C65.8431 75.9207 65.4915 75.5438 65.0345 75.2742C64.5775 75.0047 64.0345 74.8699 63.4056 74.8699C62.7806 74.8699 62.2357 75.0086 61.7708 75.2859C61.3099 75.5633 60.9525 75.9539 60.6986 76.4578C60.4486 76.9617 60.3236 77.5555 60.3236 78.2391V78.2449C60.3236 78.9363 60.4505 79.532 60.7044 80.032C60.9583 80.532 61.3197 80.9188 61.7884 81.1922C62.2611 81.4617 62.8236 81.5965 63.4759 81.5965Z" fill="black"/>
<path d="M51.1602 18.2907C49.9802 18.2907 48.8497 18.4186 47.8042 18.6521C48.4191 18.578 49.0549 18.5389 49.7059 18.5389C55.0471 18.5389 57.7778 20.8862 57.7778 24.1103C57.7778 26.6973 55.298 27.3653 51.8441 28.1993C56.259 27.7386 59.2322 26.7904 59.2322 23.8621C59.2322 20.638 56.5014 18.2907 51.1602 18.2907Z" fill="#418C94"/>
<path d="M57.5228 39.5982C57.5228 31.4875 53.3529 24.9126 48.2092 24.9126C43.0654 24.9126 38.8955 31.4875 38.8955 39.5982C38.8955 41.1094 39.0403 42.5673 39.3093 43.9393C39.8025 46.4555 39.8025 49.0744 39.3093 51.5906C39.0403 52.9625 38.8955 54.4204 38.8955 55.9318C38.8955 64.0425 43.0654 64.4617 48.2092 64.4617C53.3529 64.4617 57.5228 64.0425 57.5228 55.9318C57.5228 54.4204 57.378 52.9625 57.109 51.5906C56.6157 49.0744 56.6157 46.4555 57.109 43.9393C57.378 42.5673 57.5228 41.1094 57.5228 39.5982Z" fill="#C3EBF7"/>
<path d="M52.7617 29.3419H43.5617C42.9179 29.3419 42.3911 28.7352 42.3911 27.9937V25.1646C42.3911 24.4231 42.9179 23.8163 43.5617 23.8163H52.7617C53.4055 23.8163 53.9323 24.4231 53.9323 25.1646V27.9937C53.9323 28.7352 53.4055 29.3419 52.7617 29.3419Z" fill="#C7EDF9"/>
<path d="M53.9852 26.1752H42.4133C42.2781 26.1752 42.1675 26.0478 42.1675 25.8921V25.5536C42.1675 25.3979 42.2781 25.2704 42.4133 25.2704H53.9852C54.1204 25.2704 54.231 25.3979 54.231 25.5536V25.8921C54.231 26.0478 54.1204 26.1752 53.9852 26.1752Z" fill="#9CCCDB"/>
<path d="M54.0198 26.6923H42.3037C42.2699 26.6923 42.2422 26.6604 42.2422 26.6215V26.5368C42.2422 26.4979 42.2699 26.466 42.3037 26.466H54.0198C54.0537 26.466 54.0813 26.4979 54.0813 26.5368V26.6215C54.0813 26.6604 54.0537 26.6923 54.0198 26.6923Z" fill="#9CCCDB"/>
<path d="M54.0198 27.2699H42.3037C42.2699 27.2699 42.2422 27.238 42.2422 27.1991V27.1144C42.2422 27.0755 42.2699 27.0436 42.3037 27.0436H54.0198C54.0537 27.0436 54.0813 27.0755 54.0813 27.1144V27.1991C54.0813 27.238 54.0537 27.2699 54.0198 27.2699Z" fill="#9CCCDB"/>
<path d="M54.231 24.9126H42.1675V22.3265C42.1675 19.9371 43.8493 18 45.9238 18H50.4746C52.5493 18 54.231 19.9371 54.231 22.3265V24.9126Z" fill="#3C828A"/>
<path d="M43.6716 24.3495H43.5615C43.5107 24.3495 43.4692 24.3017 43.4692 24.2434V20.2227C43.4692 20.1643 43.5107 20.1165 43.5615 20.1165H43.6716C43.7224 20.1165 43.7638 20.1643 43.7638 20.2227V24.2434C43.7638 24.3017 43.7224 24.3495 43.6716 24.3495Z" fill="#2F656B"/>
<path d="M44.6824 24.3495H44.5722C44.5214 24.3495 44.48 24.3017 44.48 24.2434V20.2227C44.48 20.1643 44.5214 20.1165 44.5722 20.1165H44.6824C44.7331 20.1165 44.7746 20.1643 44.7746 20.2227V24.2434C44.7746 24.3017 44.7331 24.3495 44.6824 24.3495Z" fill="#2F656B"/>
<path d="M45.6921 24.3495H45.5819C45.5312 24.3495 45.4897 24.3017 45.4897 24.2434V20.2227C45.4897 20.1643 45.5312 20.1165 45.5819 20.1165H45.6921C45.7428 20.1165 45.7843 20.1643 45.7843 20.2227V24.2434C45.7843 24.3017 45.7428 24.3495 45.6921 24.3495Z" fill="#2F656B"/>
<path d="M46.7019 24.3495H46.5917C46.541 24.3495 46.4995 24.3017 46.4995 24.2434V20.2227C46.4995 20.1643 46.541 20.1165 46.5917 20.1165H46.7019C46.7526 20.1165 46.7941 20.1643 46.7941 20.2227V24.2434C46.7941 24.3017 46.7526 24.3495 46.7019 24.3495Z" fill="#2F656B"/>
<path d="M47.7122 24.3495H47.602C47.5513 24.3495 47.5098 24.3017 47.5098 24.2434V20.2227C47.5098 20.1643 47.5513 20.1165 47.602 20.1165H47.7122C47.7629 20.1165 47.8044 20.1643 47.8044 20.2227V24.2434C47.8044 24.3017 47.7629 24.3495 47.7122 24.3495Z" fill="#2F656B"/>
<path d="M48.7219 24.3495H48.6117C48.561 24.3495 48.5195 24.3017 48.5195 24.2434V20.2227C48.5195 20.1643 48.561 20.1165 48.6117 20.1165H48.7219C48.7726 20.1165 48.8141 20.1643 48.8141 20.2227V24.2434C48.8141 24.3017 48.7726 24.3495 48.7219 24.3495Z" fill="#2F656B"/>
<path d="M49.7317 24.3495H49.6215C49.5708 24.3495 49.5293 24.3017 49.5293 24.2434V20.2227C49.5293 20.1643 49.5708 20.1165 49.6215 20.1165H49.7317C49.7823 20.1165 49.8239 20.1643 49.8239 20.2227V24.2434C49.8239 24.3017 49.7823 24.3495 49.7317 24.3495Z" fill="#2F656B"/>
<path d="M50.742 24.3495H50.6317C50.5811 24.3495 50.5396 24.3017 50.5396 24.2434V20.2227C50.5396 20.1643 50.5811 20.1165 50.6317 20.1165H50.742C50.7927 20.1165 50.8341 20.1643 50.8341 20.2227V24.2434C50.8341 24.3017 50.7927 24.3495 50.742 24.3495Z" fill="#2F656B"/>
<path d="M51.7517 24.3495H51.6415C51.5908 24.3495 51.5493 24.3017 51.5493 24.2434V20.2227C51.5493 20.1643 51.5908 20.1165 51.6415 20.1165H51.7517C51.8025 20.1165 51.8439 20.1643 51.8439 20.2227V24.2434C51.8439 24.3017 51.8025 24.3495 51.7517 24.3495Z" fill="#2F656B"/>
<path d="M52.7614 24.3495H52.6513C52.6005 24.3495 52.5591 24.3017 52.5591 24.2434V20.2227C52.5591 20.1643 52.6005 20.1165 52.6513 20.1165H52.7614C52.8121 20.1165 52.8536 20.1643 52.8536 20.2227V24.2434C52.8536 24.3017 52.8121 24.3495 52.7614 24.3495Z" fill="#2F656B"/>
<path d="M53.8825 28.1993H42.441C42.3317 28.1993 42.2422 28.0963 42.2422 27.9704V27.6967C42.2422 27.5707 42.3317 27.4677 42.441 27.4677H53.8825C53.9918 27.4677 54.0813 27.5707 54.0813 27.6967V27.9704C54.0813 28.0963 53.9918 28.1993 53.8825 28.1993Z" fill="#2F656B"/>
<path d="M56.6809 39.5981C56.6809 36.3217 55.9672 33.3105 54.7789 30.9489C53.0004 31.331 50.9769 31.5475 48.8296 31.5475C46.2242 31.5475 43.8006 31.2289 41.7764 30.6819C40.5057 33.0815 39.7368 36.1969 39.7368 39.5981C39.7368 41.0063 39.8691 42.395 40.13 43.7258C40.648 46.3682 40.648 49.1616 40.13 51.804C39.8691 53.1349 39.7368 54.5236 39.7368 55.9317C39.7368 60.3559 41.0532 61.7412 42.0433 62.3983C43.5656 63.4087 45.8284 63.4924 48.2088 63.4924C50.5893 63.4924 52.8521 63.4087 54.3744 62.3983C55.3646 61.7412 56.6809 60.3559 56.6809 55.9317C56.6809 54.5237 56.5486 53.1349 56.2877 51.804C55.7697 49.1616 55.7697 46.3682 56.2877 43.7258C56.5486 42.395 56.6809 41.0063 56.6809 39.5981Z" fill="#A4E5F9"/>
<path d="M38.8955 39.5981C38.8955 41.1094 39.0403 42.5673 39.3093 43.9393C39.3938 44.3701 39.4627 44.804 39.5182 45.2399H56.9001C56.9557 44.804 57.0245 44.3701 57.109 43.9393C57.378 42.5673 57.5228 41.1094 57.5228 39.5981C57.5228 38.6775 57.4686 37.7769 57.3658 36.9031H39.0525C38.9498 37.7769 38.8955 38.6775 38.8955 39.5981Z" fill="#F8B741"/>
<path d="M48.2089 63.4924C46.1574 63.4924 44.1935 63.4303 42.7154 62.7664C41.166 61.6365 40.2158 59.5532 40.2158 55.7209C40.2158 54.2374 40.3583 52.8062 40.6227 51.4593C41.0237 49.4172 41.0932 47.3059 40.8311 45.2399H43.8518C44.0636 47.1935 43.9804 49.1815 43.6021 51.108C43.3376 52.4549 43.1952 53.8861 43.1952 55.3697C43.1952 61.1107 45.3268 62.926 48.4124 63.4922C48.3447 63.4923 48.2768 63.4924 48.2089 63.4924Z" fill="#B7EBFB"/>
<path d="M44.7592 31.2772C43.8464 31.152 42.9794 30.9859 42.1709 30.7843C42.4485 30.2286 42.7516 29.7057 43.0772 29.2201C43.2251 29.2982 43.3893 29.3419 43.562 29.3419H45.7541C45.3885 29.9397 45.0554 30.5872 44.7592 31.2772Z" fill="#CCEFFA"/>
<path d="M45.754 29.3419H43.5619C43.3893 29.3419 43.225 29.2982 43.0771 29.2201C43.3196 28.8586 43.5744 28.5179 43.8409 28.1994H46.5385C46.2631 28.5561 46.0011 28.9377 45.754 29.3419Z" fill="#CFF0FB"/>
<path d="M43.3253 36.9031H40.3867C40.6698 34.6259 41.2936 32.5407 42.171 30.7843C42.9795 30.986 43.8465 31.152 44.7593 31.2772C44.0462 32.9386 43.5474 34.8467 43.3253 36.9031Z" fill="#B7EBFB"/>
<path d="M43.8518 45.2399H40.8311C40.7762 44.8071 40.7067 44.3762 40.6227 43.9484C40.3583 42.6016 40.2158 41.1703 40.2158 39.6868C40.2158 38.7346 40.2745 37.8037 40.3865 36.9031H43.325C43.2396 37.6938 43.1952 38.5064 43.1952 39.3354C43.1952 40.8191 43.3376 42.2502 43.6021 43.597C43.7088 44.1405 43.792 44.6888 43.8518 45.2399Z" fill="#EFCC80"/>
</svg>
