<svg width="107" height="95" viewBox="0 0 107 95" fill="none" xmlns="http://www.w3.org/2000/svg">
<rect x="1.82812" y="1.98438" width="103.343" height="91" rx="14.5" fill="white" stroke="#ADC6F7" stroke-width="3"/>
<path d="M54.9268 38.692C54.9268 38.692 54.0809 25.9146 58.5889 22.8393C60.2019 21.7407 62.2562 23.4087 61.7886 24.8846C61.3157 26.3604 56.8235 34.3763 56.7552 39.6836L54.9268 38.692Z" fill="#B3632E"/>
<path d="M56.7392 34.827C49.6147 32.5388 44.6338 27.0849 36.9261 35.63C28.7297 44.722 36.7054 64.8432 39.5689 67.6914C42.4324 70.5394 45.5112 67.4724 48.3747 69.8826C51.2382 72.2921 54.0964 75.579 64.2263 66.3763C74.3509 57.1749 74.6451 42.7141 71.1196 38.9896C67.5994 35.2646 63.5643 37.0177 56.7392 34.827Z" fill="#EB1934"/>
<path d="M57.5801 28.5414C57.5801 28.5414 66.3071 22.7546 71.2932 33.2764C71.2932 33.2764 61.0057 40.2901 57.5801 28.5414Z" fill="#92D33E"/>
<path d="M68.2721 31.0053C68.2721 30.9959 68.2721 30.9858 68.2668 30.9758C68.2195 30.6618 67.9148 30.5589 67.6731 30.5967C67.484 30.6269 67.2948 30.6565 67.1057 30.686C66.3228 30.5004 65.5452 30.3129 64.7571 30.1249C64.9462 30.0587 65.1354 29.9913 65.3193 29.9256C65.6503 29.8074 66.0234 29.6578 66.1284 29.2398C66.1442 29.1635 66.1284 29.0588 66.0706 29.0062C65.7764 28.7319 65.4191 28.8182 65.0776 28.9388C64.6468 29.0925 64.2107 29.2469 63.7799 29.4C63.5802 29.4715 63.4856 29.6472 63.4698 29.8322C62.9182 29.7057 62.3665 29.5697 61.8148 29.4574C61.7833 29.4455 61.7465 29.4367 61.715 29.4384C61.1055 29.316 60.5013 29.199 59.8971 29.1026C59.482 29.037 59.3244 29.6395 59.7237 29.8115C60.3542 30.0835 60.9952 30.3259 61.6467 30.5477C62.1248 31.4222 62.6134 32.2819 63.1283 33.1333C63.307 33.4301 63.5802 33.4887 63.8639 33.3515C63.9059 33.3314 63.9427 33.2924 63.9743 33.2563C64.1266 33.0819 64.2002 32.7336 64.0583 32.5208C63.701 31.991 63.3438 31.4701 62.976 30.9539C63.9585 31.2436 64.9568 31.4884 65.9498 31.7166C66.0076 31.8029 66.0706 31.8851 66.1179 31.9815C66.244 32.2316 66.2755 32.548 66.4594 32.7519C66.5172 32.8188 66.6275 32.7904 66.6486 32.6958C66.7064 32.4143 66.5908 32.1063 66.4174 31.8195C66.8798 31.923 67.3474 32.0324 67.8097 32.1264C68.435 32.2541 68.7344 31.3104 68.2721 31.0053Z" fill="#C5E56B"/>
<path d="M39.9528 55.3235C39.0753 52.1756 38.7075 49.1009 38.5499 45.8205C38.4869 44.5333 36.9789 44.3347 36.5954 45.5231C35.5919 48.6226 35.7232 52.0697 36.3484 55.2585C36.8318 57.73 37.2784 61.4238 39.7373 62.2047C40.1261 62.3271 40.5622 62.1243 40.7671 61.7347C41.881 59.5718 40.557 57.5036 39.9528 55.3235Z" fill="#CF1D2D"/>
<path d="M44.1504 64.2093C43.9665 63.77 43.583 63.5399 43.2362 63.275C42.9787 63.0736 42.716 62.8706 42.4533 62.6685C41.4655 61.9059 40.2309 63.6767 41.1608 64.5511C41.4078 64.7793 41.6495 65.0082 41.8964 65.237C42.2116 65.5355 42.5164 65.9016 42.9367 65.9808C43.8877 66.157 44.5602 65.2026 44.1504 64.2093Z" fill="#CF1D2D"/>
<path d="M69.5012 41.0929C69.0283 39.9653 67.7411 40.8457 67.8672 41.8686C68.1194 43.8748 68.6448 45.9904 68.5817 48.0197C68.5292 49.8065 67.4101 51.2262 66.8637 52.8581C66.1754 54.9252 68.7971 55.7406 69.7849 54.2458C72.6484 49.9348 71.4031 45.6203 69.5012 41.0929Z" fill="#EF3B45"/>
<path d="M66.8114 57.8112C66.6801 57.2595 66.1389 56.9249 65.6555 57.0739C65.1196 57.24 64.9305 57.8059 65.004 58.3717C64.9883 58.2582 64.9777 58.3575 64.9777 58.4072C64.9725 58.4249 64.9672 58.4421 64.9672 58.4521C64.9567 58.4693 64.9462 58.4876 64.9304 58.529C65.0723 58.3297 64.6257 58.9908 64.7361 58.7992C64.7098 58.8436 64.6415 59.0032 64.5994 59.0919C64.3472 59.7021 64.6415 60.6807 65.3718 60.5931C65.9918 60.5186 66.4174 60.1928 66.6748 59.5454C66.8955 58.9878 66.948 58.4048 66.8114 57.8112Z" fill="#EF3B45"/>
</svg>
