<svg width="107" height="94" viewBox="0 0 107 94" fill="none" xmlns="http://www.w3.org/2000/svg">
<rect x="1.53027" y="1.5" width="103.343" height="91" rx="14.5" fill="white" stroke="#ADC6F7" stroke-width="3"/>
<path d="M61.9323 36.3032C53.7064 43.8586 48.1877 57.7908 46.7853 71.2104C45.0985 70.778 43.4872 70.1761 41.9589 69.4192C33.8376 65.4034 28.2142 57.1056 28.0342 47.4814C38.3794 40.9137 50.0585 36.3176 61.9323 36.3032Z" fill="#F7F7F7"/>
<path d="M62.2312 36.033C62.1339 36.1232 62.0329 36.2134 61.9321 36.3033C50.0583 36.3177 38.3792 40.9138 28.034 47.4814C28.0303 47.3193 28.0303 47.1603 28.0303 47.002C28.0303 43.0114 28.9639 39.2412 30.6294 35.8961C33.4625 30.1898 38.4116 25.7204 44.4494 23.514C51.5398 26.03 57.6172 30.3593 62.2312 36.033Z" fill="#EE2659"/>
<path d="M72.1329 30.8784C68.5284 31.5524 65.2086 33.3765 62.231 36.033C57.617 30.3593 51.5396 26.03 44.4492 23.514C47.1274 22.5336 50.0149 22.0001 53.0319 22.0001C53.1184 22.0001 53.2085 22.0001 53.2952 22.0039C58.3306 22.0541 63.006 23.5933 66.9099 26.2034C68.8636 27.5116 70.6225 29.0869 72.1329 30.8784Z" fill="#0063D7"/>
<path d="M76.6534 38.9053C71.9422 37.2257 67.4298 36.3568 62.7007 36.3101C62.6249 36.2164 62.553 36.1262 62.4736 36.036C63.0356 33.9475 65.8091 28.6545 69.4139 27.9802C70.7302 29.2965 73.5009 31.7018 74.3949 33.5116C74.8635 34.4523 76.3038 37.9035 76.6534 38.9053Z" fill="#F6F6F6"/>
<path d="M78.0301 47.0019C78.0301 51.4611 76.8623 55.6493 74.811 59.2756C73.9749 60.7572 72.9942 62.1451 71.8769 63.4175C71.6716 52.8778 68.2324 43.527 62.458 36.3071C67.1871 36.3538 71.9454 37.1323 76.6566 38.8119C77.5471 41.375 78.0301 44.1328 78.0301 47.0019Z" fill="#EE2659"/>
<path d="M71.8772 63.4175C67.3029 68.6765 60.5587 72 53.0321 72C50.8729 72 48.7823 71.7262 46.7852 71.2105C48.1875 57.7908 53.7062 43.8587 61.9321 36.3032C62.1084 36.3032 62.2818 36.3032 62.4583 36.3071C68.2327 43.527 71.6719 52.8778 71.8772 63.4175Z" fill="#0063D7"/>
<path d="M65.3747 36.3026C65.3747 38.1383 63.8861 39.627 62.05 39.627C60.2139 39.627 58.7256 38.1383 58.7256 36.3026C58.7256 34.4664 60.2139 32.9778 62.05 32.9778C63.8861 32.9778 65.3747 34.4664 65.3747 36.3026Z" fill="white"/>
<path d="M46.7741 71.1541C36.1123 68.2582 28.083 59.0149 28.083 48.327C28.083 48.0407 28.072 47.745 28.083 47.4611C28.9018 47.0523 30.4532 45.6183 30.5731 46.2764C31.628 52.064 34.6229 57.619 39.5576 62.0832C41.9005 64.2025 44.5156 66.0085 47.3006 67.3369C46.9517 68.6732 47.0461 69.8053 46.7741 71.1541Z" fill="#BAB9B8"/>
<path d="M28.083 47.3293C28.083 44.5652 28.212 41.7231 29.2677 39.3001C29.0461 41.563 30.0819 43.7656 30.4523 46.0131C29.7817 46.3599 28.7451 46.9639 28.083 47.3293Z" fill="#EC1D41"/>
<path d="M53.6183 71.9438C51.2279 71.9438 49.0552 71.8701 46.9053 71.154C47.1252 69.9484 47.018 68.5314 47.3002 67.3368C51.0809 69.3302 55.4878 70.0537 59.6567 70.0537C60.5798 70.0537 61.6497 70.1513 62.5689 70.0537C59.8813 71.2516 56.751 71.9438 53.6183 71.9438Z" fill="#025ECA"/>
</svg>
