<svg width="900" height="600" viewBox="0 0 900 600" fill="none" xmlns="http://www.w3.org/2000/svg">
<path d="M900 600H0V6.10352e-05H900V600Z" fill="#F5F5F5"/>
<path d="M363.999 120.477V433.554H311.988V120.477H363.999Z" fill="#C4D9ED"/>
<path d="M352.317 120.477V433.554H300.306V120.477H352.317Z" fill="#D5E7F7"/>
<path d="M352.305 120.393V138.486H300.306V120.393H352.305Z" fill="#C4D9ED"/>
<path d="M352.305 177.723H300.306V159.633H352.305V177.723Z" fill="#C4D9ED"/>
<path d="M352.305 216.96H300.306V198.87H352.305V216.96Z" fill="#C4D9ED"/>
<path d="M352.305 256.197H300.306V238.107H352.305V256.197Z" fill="#C4D9ED"/>
<path d="M352.305 295.434H300.306V277.344H352.305V295.434Z" fill="#C4D9ED"/>
<path d="M352.305 334.671H300.306V316.581H352.305V334.671Z" fill="#C4D9ED"/>
<path d="M352.305 373.908H300.306V355.818H352.305V373.908Z" fill="#C4D9ED"/>
<path d="M352.305 413.145H300.306V395.055H352.305V413.145Z" fill="#C4D9ED"/>
<path d="M280.855 164.778V433.554H228.846V164.778H280.855Z" fill="#C4D9ED"/>
<path d="M269.174 164.778V433.554H217.164V164.778H269.174Z" fill="#D5E7F7"/>
<path d="M269.161 164.706V180.237H217.164V164.706H269.161Z" fill="#C4D9ED"/>
<path d="M269.161 213.924H217.164V198.393H269.161V213.924Z" fill="#C4D9ED"/>
<path d="M269.161 247.608H217.164V232.077H269.161V247.608Z" fill="#C4D9ED"/>
<path d="M269.161 281.292H217.164V265.761H269.161V281.292Z" fill="#C4D9ED"/>
<path d="M269.161 314.979H217.164V299.448H269.161V314.979Z" fill="#C4D9ED"/>
<path d="M269.161 348.663H217.164V333.132H269.161V348.663Z" fill="#C4D9ED"/>
<path d="M269.161 382.35H217.164V366.816H269.161V382.35Z" fill="#C4D9ED"/>
<path d="M269.161 416.034H217.164V400.503H269.161V416.034Z" fill="#C4D9ED"/>
<path d="M392.148 463.263H370.368V423.951H392.148V463.263Z" fill="#DCEAF9"/>
<path d="M690.819 266.826V242.754H684.867V201.363H652.941V242.754H623.091V175.308H590.154V219.09H582.642V166.821H549.705V264.825H508.05V321.972H492.486V336.369H456.735V311.58H436.209V244.212H410.853V368.571H385.497V476.781H410.853H432.585H436.209H456.735H468.336H486.918H492.486H508.05H522.672H549.705H557.985H574.458H582.642H590.154H607.395H619.131H623.091H652.941H684.333H684.867H690.819H716.259V266.826H690.819Z" fill="#D5E7F7"/>
<path d="M436.443 244.89V260.436H410.862V244.89H436.443Z" fill="#C4D9ED"/>
<path d="M436.443 283.557H410.862V268.011H436.443V283.557Z" fill="#C4D9ED"/>
<path d="M436.443 306.681H410.862V291.132H436.443V306.681Z" fill="#C4D9ED"/>
<path d="M436.443 330.915H410.862V315.369H436.443V330.915Z" fill="#C4D9ED"/>
<path d="M436.443 354.402H410.862V338.856H436.443V354.402Z" fill="#C4D9ED"/>
<path d="M436.443 377.886H410.862V362.34H436.443V377.886Z" fill="#C4D9ED"/>
<path d="M436.443 402.459H410.862V386.91H436.443V402.459Z" fill="#C4D9ED"/>
<path d="M445.518 244.89V312.834H436.086V244.89H445.518Z" fill="#C4D9ED"/>
<path d="M456.735 312.834H475.704V337.839H456.735V312.834Z" fill="#C4D9ED"/>
<path d="M623.082 175.416H629.631V243.411H623.091L623.082 175.416Z" fill="#C4D9ED"/>
<path d="M582.642 166.821H586.662V219.51H582.642V166.821Z" fill="#C4D9ED"/>
<path d="M549.687 173.493H582.642V183.564H549.687V173.493Z" fill="#C4D9ED"/>
<path d="M549.687 192.414H582.642V202.488H549.687V192.414Z" fill="#C4D9ED"/>
<path d="M549.687 209.439H582.642V219.51H549.687V209.439Z" fill="#C4D9ED"/>
<path d="M590.127 209.439H623.082V219.51H590.127V209.439Z" fill="#C4D9ED"/>
<path d="M590.127 192.414H623.082V202.488H590.127V192.414Z" fill="#C4D9ED"/>
<path d="M590.127 175.416H623.082V185.49H590.127V175.416Z" fill="#C4D9ED"/>
<path d="M549.687 225.945H623.091V236.016H549.687V225.945Z" fill="#C4D9ED"/>
<path d="M549.687 242.451H623.091V252.522H549.687V242.451Z" fill="#C4D9ED"/>
<path d="M549.687 258.582H623.091V264.975H549.687V258.582Z" fill="#C4D9ED"/>
<path d="M520.44 302.526H514.857V292.782H520.44V302.526Z" fill="#C4D9ED"/>
<path d="M530.88 302.526H525.297V292.782H530.88V302.526Z" fill="#C4D9ED"/>
<path d="M541.089 302.526H535.506V292.782H541.089V302.526Z" fill="#C4D9ED"/>
<path d="M550.767 302.526H545.184V292.782H550.767V302.526Z" fill="#C4D9ED"/>
<path d="M560.631 302.526H555.048V292.782H560.631V302.526Z" fill="#C4D9ED"/>
<path d="M570.609 302.526H565.026V292.782H570.609V302.526Z" fill="#C4D9ED"/>
<path d="M581.052 302.526H575.466V292.782H581.052V302.526Z" fill="#C4D9ED"/>
<path d="M591.258 302.526H585.675V292.782H591.258V302.526Z" fill="#C4D9ED"/>
<path d="M600.936 302.526H595.353V292.782H600.936V302.526Z" fill="#C4D9ED"/>
<path d="M610.8 302.526H605.217V292.782H610.8V302.526Z" fill="#C4D9ED"/>
<path d="M621.081 302.526H615.498V292.782H621.081V302.526Z" fill="#C4D9ED"/>
<path d="M631.521 302.526H625.938V292.782H631.521V302.526Z" fill="#C4D9ED"/>
<path d="M641.73 302.526H636.147V292.782H641.73V302.526Z" fill="#C4D9ED"/>
<path d="M651.408 302.526H645.825V292.782H651.408V302.526Z" fill="#C4D9ED"/>
<path d="M661.272 302.526H655.689V292.782H661.272V302.526Z" fill="#C4D9ED"/>
<path d="M671.25 302.526H665.667V292.782H671.25V302.526Z" fill="#C4D9ED"/>
<path d="M681.693 302.526H676.107V292.782H681.693V302.526Z" fill="#C4D9ED"/>
<path d="M691.899 302.526H686.316V292.782H691.899V302.526Z" fill="#C4D9ED"/>
<path d="M701.577 302.526H695.994V292.782H701.577V302.526Z" fill="#C4D9ED"/>
<path d="M711.444 302.526H705.858V292.782H711.444V302.526Z" fill="#C4D9ED"/>
<path d="M520.44 319.452H514.857V309.711H520.44V319.452Z" fill="#C4D9ED"/>
<path d="M530.88 319.452H525.297V309.711H530.88V319.452Z" fill="#C4D9ED"/>
<path d="M541.089 319.452H535.506V309.711H541.089V319.452Z" fill="#C4D9ED"/>
<path d="M550.767 319.452H545.184V309.711H550.767V319.452Z" fill="#C4D9ED"/>
<path d="M560.631 319.452H555.048V309.711H560.631V319.452Z" fill="#C4D9ED"/>
<path d="M570.609 319.452H565.026V309.711H570.609V319.452Z" fill="#C4D9ED"/>
<path d="M581.052 319.452H575.466V309.711H581.052V319.452Z" fill="#C4D9ED"/>
<path d="M591.258 319.452H585.675V309.711H591.258V319.452Z" fill="#C4D9ED"/>
<path d="M600.936 319.452H595.353V309.711H600.936V319.452Z" fill="#C4D9ED"/>
<path d="M610.8 319.452H605.217V309.711H610.8V319.452Z" fill="#C4D9ED"/>
<path d="M621.081 319.452H615.498V309.711H621.081V319.452Z" fill="#C4D9ED"/>
<path d="M631.521 319.452H625.938V309.711H631.521V319.452Z" fill="#C4D9ED"/>
<path d="M641.73 319.452H636.147V309.711H641.73V319.452Z" fill="#C4D9ED"/>
<path d="M651.408 319.452H645.825V309.711H651.408V319.452Z" fill="#C4D9ED"/>
<path d="M661.272 319.452H655.689V309.711H661.272V319.452Z" fill="#C4D9ED"/>
<path d="M671.25 319.452H665.667V309.711H671.25V319.452Z" fill="#C4D9ED"/>
<path d="M681.693 319.452H676.107V309.711H681.693V319.452Z" fill="#C4D9ED"/>
<path d="M691.899 319.452H686.316V309.711H691.899V319.452Z" fill="#C4D9ED"/>
<path d="M701.577 319.452H695.994V309.711H701.577V319.452Z" fill="#C4D9ED"/>
<path d="M711.444 319.452H705.858V309.711H711.444V319.452Z" fill="#C4D9ED"/>
<path d="M520.44 337.437H514.857V327.696H520.44V337.437Z" fill="#C4D9ED"/>
<path d="M530.88 337.437H525.297V327.696H530.88V337.437Z" fill="#C4D9ED"/>
<path d="M541.089 337.437H535.506V327.696H541.089V337.437Z" fill="#C4D9ED"/>
<path d="M550.767 337.437H545.184V327.696H550.767V337.437Z" fill="#C4D9ED"/>
<path d="M560.631 337.437H555.048V327.696H560.631V337.437Z" fill="#C4D9ED"/>
<path d="M570.609 337.437H565.026V327.696H570.609V337.437Z" fill="#C4D9ED"/>
<path d="M581.052 337.437H575.466V327.696H581.052V337.437Z" fill="#C4D9ED"/>
<path d="M591.258 337.437H585.675V327.696H591.258V337.437Z" fill="#C4D9ED"/>
<path d="M600.936 337.437H595.353V327.696H600.936V337.437Z" fill="#C4D9ED"/>
<path d="M610.8 337.437H605.217V327.696H610.8V337.437Z" fill="#C4D9ED"/>
<path d="M621.081 337.437H615.498V327.696H621.081V337.437Z" fill="#C4D9ED"/>
<path d="M631.521 337.437H625.938V327.696H631.521V337.437Z" fill="#C4D9ED"/>
<path d="M641.73 337.437H636.147V327.696H641.73V337.437Z" fill="#C4D9ED"/>
<path d="M651.408 337.437H645.825V327.696H651.408V337.437Z" fill="#C4D9ED"/>
<path d="M661.272 337.437H655.689V327.696H661.272V337.437Z" fill="#C4D9ED"/>
<path d="M671.25 337.437H665.667V327.696H671.25V337.437Z" fill="#C4D9ED"/>
<path d="M681.693 337.437H676.107V327.696H681.693V337.437Z" fill="#C4D9ED"/>
<path d="M691.899 337.437H686.316V327.696H691.899V337.437Z" fill="#C4D9ED"/>
<path d="M701.577 337.437H695.994V327.696H701.577V337.437Z" fill="#C4D9ED"/>
<path d="M711.444 337.437H705.858V327.696H711.444V337.437Z" fill="#C4D9ED"/>
<path d="M520.44 354.63H514.857V344.886H520.44V354.63Z" fill="#C4D9ED"/>
<path d="M530.88 354.63H525.297V344.886H530.88V354.63Z" fill="#C4D9ED"/>
<path d="M541.089 354.63H535.506V344.886H541.089V354.63Z" fill="#C4D9ED"/>
<path d="M550.767 354.63H545.184V344.886H550.767V354.63Z" fill="#C4D9ED"/>
<path d="M560.631 354.63H555.048V344.886H560.631V354.63Z" fill="#C4D9ED"/>
<path d="M570.609 354.63H565.026V344.886H570.609V354.63Z" fill="#C4D9ED"/>
<path d="M581.052 354.63H575.466V344.886H581.052V354.63Z" fill="#C4D9ED"/>
<path d="M591.258 354.63H585.675V344.886H591.258V354.63Z" fill="#C4D9ED"/>
<path d="M600.936 354.63H595.353V344.886H600.936V354.63Z" fill="#C4D9ED"/>
<path d="M610.8 354.63H605.217V344.886H610.8V354.63Z" fill="#C4D9ED"/>
<path d="M621.081 354.63H615.498V344.886H621.081V354.63Z" fill="#C4D9ED"/>
<path d="M631.521 354.63H625.938V344.886H631.521V354.63Z" fill="#C4D9ED"/>
<path d="M641.73 354.63H636.147V344.886H641.73V354.63Z" fill="#C4D9ED"/>
<path d="M651.408 354.63H645.825V344.886H651.408V354.63Z" fill="#C4D9ED"/>
<path d="M661.272 354.63H655.689V344.886H661.272V354.63Z" fill="#C4D9ED"/>
<path d="M671.25 354.63H665.667V344.886H671.25V354.63Z" fill="#C4D9ED"/>
<path d="M681.693 354.63H676.107V344.886H681.693V354.63Z" fill="#C4D9ED"/>
<path d="M691.899 354.63H686.316V344.886H691.899V354.63Z" fill="#C4D9ED"/>
<path d="M701.577 354.63H695.994V344.886H701.577V354.63Z" fill="#C4D9ED"/>
<path d="M711.444 354.63H705.858V344.886H711.444V354.63Z" fill="#C4D9ED"/>
<path d="M520.44 371.556H514.857V361.815H520.44V371.556Z" fill="#C4D9ED"/>
<path d="M530.88 371.556H525.297V361.815H530.88V371.556Z" fill="#C4D9ED"/>
<path d="M541.089 371.556H535.506V361.815H541.089V371.556Z" fill="#C4D9ED"/>
<path d="M550.767 371.556H545.184V361.815H550.767V371.556Z" fill="#C4D9ED"/>
<path d="M560.631 371.556H555.048V361.815H560.631V371.556Z" fill="#C4D9ED"/>
<path d="M570.609 371.556H565.026V361.815H570.609V371.556Z" fill="#C4D9ED"/>
<path d="M581.052 371.556H575.466V361.815H581.052V371.556Z" fill="#C4D9ED"/>
<path d="M591.258 371.556H585.675V361.815H591.258V371.556Z" fill="#C4D9ED"/>
<path d="M600.936 371.556H595.353V361.815H600.936V371.556Z" fill="#C4D9ED"/>
<path d="M610.8 371.556H605.217V361.815H610.8V371.556Z" fill="#C4D9ED"/>
<path d="M621.081 371.556H615.498V361.815H621.081V371.556Z" fill="#C4D9ED"/>
<path d="M631.521 371.556H625.938V361.815H631.521V371.556Z" fill="#C4D9ED"/>
<path d="M641.73 371.556H636.147V361.815H641.73V371.556Z" fill="#C4D9ED"/>
<path d="M651.408 371.556H645.825V361.815H651.408V371.556Z" fill="#C4D9ED"/>
<path d="M661.272 371.556H655.689V361.815H661.272V371.556Z" fill="#C4D9ED"/>
<path d="M671.25 371.556H665.667V361.815H671.25V371.556Z" fill="#C4D9ED"/>
<path d="M681.693 371.556H676.107V361.815H681.693V371.556Z" fill="#C4D9ED"/>
<path d="M691.899 371.556H686.316V361.815H691.899V371.556Z" fill="#C4D9ED"/>
<path d="M701.577 371.556H695.994V361.815H701.577V371.556Z" fill="#C4D9ED"/>
<path d="M711.444 371.556H705.858V361.815H711.444V371.556Z" fill="#C4D9ED"/>
<path d="M605.121 392.337V478.113H475.704V392.337H605.121Z" fill="#C4D9ED"/>
<path d="M506.988 435.549V478.113H377.571V435.549H506.988Z" fill="#C4D9ED"/>
<path d="M744.915 478.209H615.498V405.804H744.915V478.209Z" fill="#C4D9ED"/>
<path d="M508.464 402.459V418.464H484.35V402.459H508.464Z" fill="#D5E7F7"/>
<path d="M539.415 418.464H515.301V402.459H539.415V418.464Z" fill="#D5E7F7"/>
<path d="M569.778 418.464H545.664V402.459H569.778V418.464Z" fill="#D5E7F7"/>
<path d="M599.556 418.464H575.442V402.459H599.556V418.464Z" fill="#D5E7F7"/>
<path d="M616.2 392.337V478.113H603.777V392.337H616.2Z" fill="#ADC9E0"/>
<path d="M770.289 375.48V478.059H757.866V375.48H770.289Z" fill="#ADC9E0"/>
<path d="M758.25 478.059H744.915V405.804H758.25V478.059Z" fill="#ADC9E0"/>
<path d="M416.628 238.125V244.89H415.953V238.125H416.628Z" fill="#DCEAF9"/>
<path d="M440.796 244.89H440.124V238.125H440.796V244.89Z" fill="#DCEAF9"/>
<path d="M758.25 375.225V478.059H687.021V375.225H758.25Z" fill="#D5E7F7"/>
<path d="M753.474 354.63V375.48H752.157V354.63H753.474Z" fill="#D5E7F7"/>
<path d="M775.881 404.088V478.059H687.021V404.088H775.881Z" fill="#D5E7F7"/>
<path d="M775.881 394.422V418.464H687.021V394.422H775.881Z" fill="#C4D9ED"/>
<path d="M697.635 425.589V433.554H693.072V425.589H697.635Z" fill="#ADC9E0"/>
<path d="M706.17 433.554H701.604V425.589H706.17V433.554Z" fill="#ADC9E0"/>
<path d="M714.513 433.554H709.95V425.589H714.513V433.554Z" fill="#ADC9E0"/>
<path d="M722.424 433.554H717.858V425.589H722.424V433.554Z" fill="#ADC9E0"/>
<path d="M730.485 433.554H725.922V425.589H730.485V433.554Z" fill="#ADC9E0"/>
<path d="M738.639 433.554H734.076V425.589H738.639V433.554Z" fill="#ADC9E0"/>
<path d="M747.174 433.554H742.611V425.589H747.174V433.554Z" fill="#ADC9E0"/>
<path d="M755.517 433.554H750.954V425.589H755.517V433.554Z" fill="#ADC9E0"/>
<path d="M763.428 433.554H758.865V425.589H763.428V433.554Z" fill="#ADC9E0"/>
<path d="M771.489 433.554H766.926V425.589H771.489V433.554Z" fill="#ADC9E0"/>
<path d="M697.635 447.603H693.072V439.641H697.635V447.603Z" fill="#ADC9E0"/>
<path d="M706.17 447.603H701.604V439.641H706.17V447.603Z" fill="#ADC9E0"/>
<path d="M714.513 447.603H709.95V439.641H714.513V447.603Z" fill="#ADC9E0"/>
<path d="M722.424 447.603H717.858V439.641H722.424V447.603Z" fill="#ADC9E0"/>
<path d="M730.485 447.603H725.922V439.641H730.485V447.603Z" fill="#ADC9E0"/>
<path d="M738.639 447.603H734.076V439.641H738.639V447.603Z" fill="#ADC9E0"/>
<path d="M747.174 447.603H742.611V439.641H747.174V447.603Z" fill="#ADC9E0"/>
<path d="M755.517 447.603H750.954V439.641H755.517V447.603Z" fill="#ADC9E0"/>
<path d="M763.428 447.603H758.865V439.641H763.428V447.603Z" fill="#ADC9E0"/>
<path d="M771.489 447.603H766.926V439.641H771.489V447.603Z" fill="#ADC9E0"/>
<path d="M697.635 461.439H693.072V453.477H697.635V461.439Z" fill="#ADC9E0"/>
<path d="M706.17 461.439H701.604V453.477H706.17V461.439Z" fill="#ADC9E0"/>
<path d="M714.513 461.439H709.95V453.477H714.513V461.439Z" fill="#ADC9E0"/>
<path d="M722.424 461.439H717.858V453.477H722.424V461.439Z" fill="#ADC9E0"/>
<path d="M730.485 461.439H725.922V453.477H730.485V461.439Z" fill="#ADC9E0"/>
<path d="M738.639 461.439H734.076V453.477H738.639V461.439Z" fill="#ADC9E0"/>
<path d="M747.174 461.439H742.611V453.477H747.174V461.439Z" fill="#ADC9E0"/>
<path d="M755.517 461.439H750.954V453.477H755.517V461.439Z" fill="#ADC9E0"/>
<path d="M763.428 461.439H758.865V453.477H763.428V461.439Z" fill="#ADC9E0"/>
<path d="M771.489 461.439H766.926V453.477H771.489V461.439Z" fill="#ADC9E0"/>
<path d="M693.801 401.175H697.635V409.389H693.801V401.175Z" fill="#ADC9E0"/>
<path d="M735.708 409.389H731.874V401.175H735.708V409.389Z" fill="#ADC9E0"/>
<path d="M762.159 401.175H765.993V409.389H762.159V401.175Z" fill="#ADC9E0"/>
<path d="M402.069 404.088V478.059H313.209V404.088H402.069Z" fill="#D5E7F7"/>
<path d="M402.069 394.422V418.464H313.209V394.422H402.069Z" fill="#C4D9ED"/>
<path d="M323.823 425.589V433.554H319.26V425.589H323.823Z" fill="#ADC9E0"/>
<path d="M332.358 433.554H327.795V425.589H332.358V433.554Z" fill="#ADC9E0"/>
<path d="M340.701 433.554H336.138V425.589H340.701V433.554Z" fill="#ADC9E0"/>
<path d="M348.612 433.554H344.049V425.589H348.612V433.554Z" fill="#ADC9E0"/>
<path d="M356.673 433.554H352.11V425.589H356.673V433.554Z" fill="#ADC9E0"/>
<path d="M364.827 433.554H360.264V425.589H364.827V433.554Z" fill="#ADC9E0"/>
<path d="M373.362 433.554H368.799V425.589H373.362V433.554Z" fill="#ADC9E0"/>
<path d="M381.705 433.554H377.142V425.589H381.705V433.554Z" fill="#ADC9E0"/>
<path d="M389.616 433.554H385.053V425.589H389.616V433.554Z" fill="#ADC9E0"/>
<path d="M397.677 433.554H393.114V425.589H397.677V433.554Z" fill="#ADC9E0"/>
<path d="M323.823 447.603H319.26V439.641H323.823V447.603Z" fill="#ADC9E0"/>
<path d="M332.358 447.603H327.795V439.641H332.358V447.603Z" fill="#ADC9E0"/>
<path d="M340.701 447.603H336.138V439.641H340.701V447.603Z" fill="#ADC9E0"/>
<path d="M348.612 447.603H344.049V439.641H348.612V447.603Z" fill="#ADC9E0"/>
<path d="M356.673 447.603H352.11V439.641H356.673V447.603Z" fill="#ADC9E0"/>
<path d="M364.827 447.603H360.264V439.641H364.827V447.603Z" fill="#ADC9E0"/>
<path d="M373.362 447.603H368.799V439.641H373.362V447.603Z" fill="#ADC9E0"/>
<path d="M381.705 447.603H377.142V439.641H381.705V447.603Z" fill="#ADC9E0"/>
<path d="M389.616 447.603H385.053V439.641H389.616V447.603Z" fill="#ADC9E0"/>
<path d="M397.677 447.603H393.114V439.641H397.677V447.603Z" fill="#ADC9E0"/>
<path d="M323.823 461.439H319.26V453.477H323.823V461.439Z" fill="#ADC9E0"/>
<path d="M332.358 461.439H327.795V453.477H332.358V461.439Z" fill="#ADC9E0"/>
<path d="M340.701 461.439H336.138V453.477H340.701V461.439Z" fill="#ADC9E0"/>
<path d="M348.612 461.439H344.049V453.477H348.612V461.439Z" fill="#ADC9E0"/>
<path d="M356.673 461.439H352.11V453.477H356.673V461.439Z" fill="#ADC9E0"/>
<path d="M364.827 461.439H360.264V453.477H364.827V461.439Z" fill="#ADC9E0"/>
<path d="M373.362 461.439H368.799V453.477H373.362V461.439Z" fill="#ADC9E0"/>
<path d="M381.705 461.439H377.142V453.477H381.705V461.439Z" fill="#ADC9E0"/>
<path d="M389.616 461.439H385.053V453.477H389.616V461.439Z" fill="#ADC9E0"/>
<path d="M397.677 461.439H393.114V453.477H397.677V461.439Z" fill="#ADC9E0"/>
<path d="M319.989 401.175H323.823V409.389H319.989V401.175Z" fill="#ADC9E0"/>
<path d="M361.896 409.389H358.062V401.175H361.896V409.389Z" fill="#ADC9E0"/>
<path d="M388.347 401.175H392.184V409.389H388.347V401.175Z" fill="#ADC9E0"/>
<path d="M307.629 404.088V478.059H218.769V404.088H307.629Z" fill="#D5E7F7"/>
<path d="M307.629 394.422V418.464H218.769V394.422H307.629Z" fill="#C4D9ED"/>
<path d="M229.382 425.589V433.554H224.819V425.589H229.382Z" fill="#C4D9ED"/>
<path d="M237.917 433.554H233.354V425.589H237.917V433.554Z" fill="#C4D9ED"/>
<path d="M246.26 433.554H241.697V425.589H246.26V433.554Z" fill="#C4D9ED"/>
<path d="M254.17 433.554H249.607V425.589H254.17V433.554Z" fill="#C4D9ED"/>
<path d="M262.233 433.554H257.669V425.589H262.233V433.554Z" fill="#C4D9ED"/>
<path d="M270.388 433.554H265.824V425.589H270.388V433.554Z" fill="#C4D9ED"/>
<path d="M278.922 433.554H274.358V425.589H278.922V433.554Z" fill="#C4D9ED"/>
<path d="M287.265 433.554H282.701V425.589H287.265V433.554Z" fill="#C4D9ED"/>
<path d="M295.175 433.554H290.612V425.589H295.175V433.554Z" fill="#C4D9ED"/>
<path d="M303.237 433.554H298.674V425.589H303.237V433.554Z" fill="#C4D9ED"/>
<path d="M229.382 447.603H224.819V439.641H229.382V447.603Z" fill="#C4D9ED"/>
<path d="M237.917 447.603H233.354V439.641H237.917V447.603Z" fill="#C4D9ED"/>
<path d="M246.26 447.603H241.697V439.641H246.26V447.603Z" fill="#C4D9ED"/>
<path d="M254.17 447.603H249.607V439.641H254.17V447.603Z" fill="#C4D9ED"/>
<path d="M262.233 447.603H257.669V439.641H262.233V447.603Z" fill="#C4D9ED"/>
<path d="M270.388 447.603H265.824V439.641H270.388V447.603Z" fill="#C4D9ED"/>
<path d="M278.922 447.603H274.358V439.641H278.922V447.603Z" fill="#C4D9ED"/>
<path d="M287.265 447.603H282.701V439.641H287.265V447.603Z" fill="#C4D9ED"/>
<path d="M295.175 447.603H290.612V439.641H295.175V447.603Z" fill="#C4D9ED"/>
<path d="M303.237 447.603H298.674V439.641H303.237V447.603Z" fill="#C4D9ED"/>
<path d="M229.382 461.439H224.819V453.477H229.382V461.439Z" fill="#C4D9ED"/>
<path d="M237.917 461.439H233.354V453.477H237.917V461.439Z" fill="#C4D9ED"/>
<path d="M246.26 461.439H241.697V453.477H246.26V461.439Z" fill="#C4D9ED"/>
<path d="M254.17 461.439H249.607V453.477H254.17V461.439Z" fill="#C4D9ED"/>
<path d="M262.233 461.439H257.669V453.477H262.233V461.439Z" fill="#C4D9ED"/>
<path d="M270.388 461.439H265.824V453.477H270.388V461.439Z" fill="#C4D9ED"/>
<path d="M278.922 461.439H274.358V453.477H278.922V461.439Z" fill="#C4D9ED"/>
<path d="M287.265 461.439H282.701V453.477H287.265V461.439Z" fill="#C4D9ED"/>
<path d="M295.175 461.439H290.612V453.477H295.175V461.439Z" fill="#C4D9ED"/>
<path d="M303.237 461.439H298.674V453.477H303.237V461.439Z" fill="#C4D9ED"/>
<path d="M229.383 401.175V409.389H225.548V401.175H229.383Z" fill="#ADC9E0"/>
<path d="M267.456 409.389H263.621V401.175H267.456V409.389Z" fill="#ADC9E0"/>
<path d="M297.742 409.389H293.907V401.175H297.742V409.389Z" fill="#ADC9E0"/>
<path d="M212.979 404.088V478.059H124.119V404.088H212.979Z" fill="#D5E7F7"/>
<path d="M212.979 394.422V418.464H124.119V394.422H212.979Z" fill="#C4D9ED"/>
<path d="M134.733 425.589V433.554H130.169V425.589H134.733Z" fill="#C4D9ED"/>
<path d="M143.267 433.554H138.704V425.589H143.267V433.554Z" fill="#C4D9ED"/>
<path d="M151.61 433.554H147.047V425.589H151.61V433.554Z" fill="#C4D9ED"/>
<path d="M159.521 433.554H154.957V425.589H159.521V433.554Z" fill="#C4D9ED"/>
<path d="M167.583 433.554H163.02V425.589H167.583V433.554Z" fill="#C4D9ED"/>
<path d="M175.738 433.554H171.175V425.589H175.738V433.554Z" fill="#C4D9ED"/>
<path d="M184.272 433.554H179.708V425.589H184.272V433.554Z" fill="#C4D9ED"/>
<path d="M192.615 433.554H188.051V425.589H192.615V433.554Z" fill="#C4D9ED"/>
<path d="M200.526 433.554H195.962V425.589H200.526V433.554Z" fill="#C4D9ED"/>
<path d="M208.588 433.554H204.024V425.589H208.588V433.554Z" fill="#C4D9ED"/>
<path d="M134.733 447.603H130.169V439.641H134.733V447.603Z" fill="#C4D9ED"/>
<path d="M143.267 447.603H138.704V439.641H143.267V447.603Z" fill="#C4D9ED"/>
<path d="M151.61 447.603H147.047V439.641H151.61V447.603Z" fill="#C4D9ED"/>
<path d="M159.521 447.603H154.957V439.641H159.521V447.603Z" fill="#C4D9ED"/>
<path d="M167.583 447.603H163.02V439.641H167.583V447.603Z" fill="#C4D9ED"/>
<path d="M175.738 447.603H171.175V439.641H175.738V447.603Z" fill="#C4D9ED"/>
<path d="M184.272 447.603H179.708V439.641H184.272V447.603Z" fill="#C4D9ED"/>
<path d="M192.615 447.603H188.051V439.641H192.615V447.603Z" fill="#C4D9ED"/>
<path d="M200.526 447.603H195.962V439.641H200.526V447.603Z" fill="#C4D9ED"/>
<path d="M208.588 447.603H204.024V439.641H208.588V447.603Z" fill="#C4D9ED"/>
<path d="M134.733 461.439H130.169V453.477H134.733V461.439Z" fill="#C4D9ED"/>
<path d="M143.267 461.439H138.704V453.477H143.267V461.439Z" fill="#C4D9ED"/>
<path d="M151.61 461.439H147.047V453.477H151.61V461.439Z" fill="#C4D9ED"/>
<path d="M159.521 461.439H154.957V453.477H159.521V461.439Z" fill="#C4D9ED"/>
<path d="M167.583 461.439H163.02V453.477H167.583V461.439Z" fill="#C4D9ED"/>
<path d="M175.738 461.439H171.175V453.477H175.738V461.439Z" fill="#C4D9ED"/>
<path d="M184.272 461.439H179.708V453.477H184.272V461.439Z" fill="#C4D9ED"/>
<path d="M192.615 461.439H188.051V453.477H192.615V461.439Z" fill="#C4D9ED"/>
<path d="M200.526 461.439H195.962V453.477H200.526V461.439Z" fill="#C4D9ED"/>
<path d="M208.588 461.439H204.024V453.477H208.588V461.439Z" fill="#C4D9ED"/>
<path d="M134.733 401.175V409.389H130.898V401.175H134.733Z" fill="#ADC9E0"/>
<path d="M172.806 409.389H168.971V401.175H172.806V409.389Z" fill="#ADC9E0"/>
<path d="M203.093 409.389H199.258V401.175H203.093V409.389Z" fill="#ADC9E0"/>
<path d="M339.78 448.281H260.85V413.469H339.78V448.281Z" fill="#163560"/>
<path d="M443.679 276.459H201.479V268.998C201.479 265.632 204.208 262.902 207.573 262.902H431.01C432.996 262.902 434.859 263.871 435.999 265.5L443.679 276.459Z" fill="#A8D29F"/>
<path d="M201.479 272.022V276.459H443.679L440.571 272.022H201.479Z" fill="#82B378"/>
<path d="M696.339 276.459H186.446C177.8 276.459 170.792 283.47 170.792 292.113V434.631C170.792 438.471 173.533 441.765 177.31 442.464L220.227 450.411H267.905C267.905 433.62 281.516 420.009 298.306 420.009C315.096 420.009 328.707 433.62 328.707 450.411H612.456C612.456 433.62 626.067 420.009 642.858 420.009C659.649 420.009 673.26 433.62 673.26 450.411H704.238C708.522 450.411 711.993 446.937 711.993 442.653V292.113C711.993 283.47 704.985 276.459 696.339 276.459Z" fill="#A8D29F"/>
<path d="M667.956 433.254C671.301 438.138 673.26 444.045 673.26 450.411H704.238C708.522 450.411 711.993 446.937 711.993 442.653C711.993 437.463 707.787 433.254 702.594 433.254H667.956Z" fill="#82B378"/>
<path d="M170.792 433.254V434.631C170.792 438.471 173.533 441.765 177.31 442.464L220.227 450.411H267.905C267.905 444.045 269.863 438.138 273.207 433.254H170.792Z" fill="#82B378"/>
<path d="M323.406 433.254C326.751 438.138 328.707 444.045 328.707 450.411H612.456C612.456 444.045 614.412 438.138 617.757 433.254H323.406Z" fill="#82B378"/>
<path d="M174.456 428.085H167.531V391.434H174.456V428.085Z" fill="#B64C41"/>
<path d="M174.456 388.419H167.531V381.495H174.456V388.419Z" fill="#F1A34F"/>
<path d="M711.993 422.718H708.426V389.577H711.993V422.718Z" fill="#B64C41"/>
<path d="M356.823 373.884H503.595C506.391 373.884 508.662 371.616 508.662 368.817V302.424C508.662 299.628 506.391 297.357 503.595 297.357H356.823C354.024 297.357 351.756 299.628 351.756 302.424V368.817C351.756 371.616 354.024 373.884 356.823 373.884Z" fill="#163560"/>
<path d="M600.933 373.884H654.948C657.744 373.884 660.015 371.616 660.015 368.817V302.424C660.015 299.628 657.744 297.357 654.948 297.357H600.933C598.134 297.357 595.866 299.628 595.866 302.424V368.817C595.866 371.616 598.134 373.884 600.933 373.884Z" fill="#163560"/>
<path d="M698.853 373.884H711.993V302.424C711.993 299.628 709.725 297.357 706.926 297.357H670.125C667.326 297.357 665.058 299.628 665.058 302.424V340.089C665.058 358.755 680.19 373.884 698.853 373.884Z" fill="#163560"/>
<path d="M189.207 373.884H335.979C338.778 373.884 341.046 371.616 341.046 368.817V302.424C341.046 299.628 338.778 297.357 335.979 297.357H189.207C186.409 297.357 184.141 299.628 184.141 302.424V368.817C184.141 371.616 186.409 373.884 189.207 373.884Z" fill="#163560"/>
<path d="M586.566 297.357H518.67C515.871 297.357 513.603 299.628 513.603 302.424V450.411H544.167H548.652H591.633V302.424C591.633 299.628 589.365 297.357 586.566 297.357Z" fill="#98BDF4"/>
<mask id="mask0_212_30476" style="mask-type:alpha" maskUnits="userSpaceOnUse" x="351" y="297" width="158" height="77">
<path d="M356.823 373.884H503.595C506.391 373.884 508.662 371.616 508.662 368.817V302.424C508.662 299.628 506.391 297.357 503.595 297.357H356.823C354.024 297.357 351.756 299.628 351.756 302.424V368.817C351.756 371.616 354.024 373.884 356.823 373.884Z" fill="#98BDF4"/>
</mask>
<g mask="url(#mask0_212_30476)">
<path d="M355.133 415.804H333.473L428.855 247.744H450.515L355.133 415.804Z" fill="#D5E7F7"/>
<path d="M390.464 419.65H368.804L464.183 251.593H485.843L390.464 419.65Z" fill="#D5E7F7"/>
<path d="M454.178 423.073H432.518L527.9 255.013H549.56L454.178 423.073Z" fill="#D5E7F7"/>
<path d="M403.902 422.719H398.193L493.572 254.662H499.284L403.902 422.719Z" fill="#D5E7F7"/>
</g>
<mask id="mask1_212_30476" style="mask-type:alpha" maskUnits="userSpaceOnUse" x="595" y="297" width="66" height="77">
<path d="M600.934 373.884H654.949C657.745 373.884 660.016 371.616 660.016 368.817V302.424C660.016 299.628 657.745 297.357 654.949 297.357H600.934C598.135 297.357 595.867 299.628 595.867 302.424V368.817C595.867 371.616 598.135 373.884 600.934 373.884Z" fill="#98BDF4"/>
</mask>
<g mask="url(#mask1_212_30476)">
<path d="M603.176 407.146H581.516L676.898 239.089H698.558L603.176 407.146Z" fill="#D5E7F7"/>
<path d="M616.616 410.215H610.904L706.286 242.158H711.995L616.616 410.215Z" fill="#D5E7F7"/>
</g>
<mask id="mask2_212_30476" style="mask-type:alpha" maskUnits="userSpaceOnUse" x="665" y="297" width="47" height="77">
<path d="M698.852 373.884H711.992V302.424C711.992 299.628 709.724 297.357 706.925 297.357H670.124C667.325 297.357 665.057 299.628 665.057 302.424V340.089C665.057 358.755 680.189 373.884 698.852 373.884Z" fill="#98BDF4"/>
</mask>
<g mask="url(#mask2_212_30476)">
<path d="M654.976 404.076H644.146L739.525 236.019H750.355L654.976 404.076Z" fill="#D5E7F7"/>
<path d="M668.416 407.145H662.704L758.083 239.088H763.795L668.416 407.145Z" fill="#D5E7F7"/>
</g>
<mask id="mask3_212_30476" style="mask-type:alpha" maskUnits="userSpaceOnUse" x="184" y="297" width="158" height="77">
<path d="M189.207 373.884H335.979C338.778 373.884 341.046 371.616 341.046 368.817V302.424C341.046 299.628 338.778 297.357 335.979 297.357H189.207C186.409 297.357 184.141 299.628 184.141 302.424V368.817C184.141 371.616 186.409 373.884 189.207 373.884Z" fill="#98BDF4"/>
</mask>
<g mask="url(#mask3_212_30476)">
<path d="M185.138 414.03H163.478L258.858 245.97H280.518L185.138 414.03Z" fill="#D5E7F7"/>
<path d="M259.875 414.03H238.215L333.596 245.97H355.256L259.875 414.03Z" fill="#D5E7F7"/>
<path d="M197.556 414.03H191.853L287.233 245.97H292.936L197.556 414.03Z" fill="#D5E7F7"/>
</g>
<path d="M554.64 450.411H550.461V297.357H554.64V450.411Z" fill="#163560"/>
<path d="M189.208 298.626C187.112 298.626 185.407 300.33 185.407 302.424V368.817C185.407 370.914 187.112 372.618 189.208 372.618H335.979C338.073 372.618 339.78 370.914 339.78 368.817V302.424C339.78 300.33 338.073 298.626 335.979 298.626H189.208ZM335.979 375.15H189.208C185.715 375.15 182.874 372.309 182.874 368.817V302.424C182.874 298.932 185.715 296.091 189.208 296.091H335.979C339.471 296.091 342.312 298.932 342.312 302.424V368.817C342.312 372.309 339.471 375.15 335.979 375.15Z" fill="#163560"/>
<path d="M356.823 298.626C354.726 298.626 353.022 300.33 353.022 302.424V368.817C353.022 370.914 354.726 372.618 356.823 372.618H503.595C505.689 372.618 507.393 370.914 507.393 368.817V302.424C507.393 300.33 505.689 298.626 503.595 298.626H356.823ZM503.595 375.15H356.823C353.331 375.15 350.49 372.309 350.49 368.817V302.424C350.49 298.932 353.331 296.091 356.823 296.091H503.595C507.087 296.091 509.928 298.932 509.928 302.424V368.817C509.928 372.309 507.087 375.15 503.595 375.15Z" fill="#163560"/>
<path d="M514.869 449.145H590.367V302.424C590.367 300.33 588.66 298.626 586.566 298.626H518.67C516.573 298.626 514.869 300.33 514.869 302.424V449.145ZM592.899 451.677H512.334V302.424C512.334 298.932 515.175 296.091 518.67 296.091H586.566C590.058 296.091 592.899 298.932 592.899 302.424V451.677Z" fill="#163560"/>
<path d="M600.933 298.626C598.836 298.626 597.132 300.33 597.132 302.424V368.817C597.132 370.914 598.836 372.618 600.933 372.618H654.948C657.042 372.618 658.746 370.914 658.746 368.817V302.424C658.746 300.33 657.042 298.626 654.948 298.626H600.933ZM654.948 375.15H600.933C597.441 375.15 594.6 372.309 594.6 368.817V302.424C594.6 298.932 597.441 296.091 600.933 296.091H654.948C658.44 296.091 661.281 298.932 661.281 302.424V368.817C661.281 372.309 658.44 375.15 654.948 375.15Z" fill="#163560"/>
<path d="M670.125 298.626C668.031 298.626 666.327 300.33 666.327 302.424V340.089C666.327 358.026 680.919 372.618 698.853 372.618H710.538C710.643 372.618 710.727 372.534 710.727 372.429V302.424C710.727 300.33 709.023 298.626 706.926 298.626H670.125ZM710.538 375.15H698.853C679.521 375.15 663.792 359.421 663.792 340.089V302.424C663.792 298.932 666.633 296.091 670.125 296.091H706.926C710.418 296.091 713.262 298.932 713.262 302.424V372.429C713.262 373.929 712.041 375.15 710.538 375.15Z" fill="#163560"/>
<path d="M600.372 454.938H504.735V450.411H600.372V454.938Z" fill="#A8D29F"/>
<path d="M604.554 459.468H500.556V454.938H604.554V459.468Z" fill="#82B378"/>
<path d="M724.047 345.156C721.062 345.156 718.644 342.735 718.644 339.75V295.5C718.644 292.515 721.062 290.094 724.047 290.094C727.032 290.094 729.453 292.515 729.453 295.5V339.75C729.453 342.735 727.032 345.156 724.047 345.156Z" fill="#A8D29F"/>
<path d="M721.746 293.622H670.908C668.961 293.622 667.383 292.044 667.383 290.094C667.383 288.147 668.961 286.569 670.908 286.569H721.746C723.693 286.569 725.274 288.147 725.274 290.094C725.274 292.044 723.693 293.622 721.746 293.622Z" fill="#82B378"/>
<path d="M177.899 433.929L205.845 416.037L183.581 451.704L177.899 433.929ZM214.82 410.331L212.022 406.605L211.536 406.932L211.531 406.929L211.524 406.941L176.781 430.431L169.035 406.203L166.413 407.043L174.404 432.039L143.954 452.625L180.657 455.817L180.895 453.075L151.931 450.555L175.5 435.465L181.963 455.679L184.585 454.842L183.845 452.529L185.603 453.663L214.82 410.331Z" fill="#E69D43"/>
<path d="M169.506 424.44C169.118 424.578 168.689 424.533 168.338 424.32C155.957 416.841 138.829 419.652 133.874 420.69L133.865 420.693C133.592 420.75 133.336 420.54 133.336 420.264V419.295C133.336 418.554 133.877 417.927 134.609 417.816C137.289 417.417 143.551 416.562 147.05 416.547C147.144 416.547 147.239 416.547 147.333 416.547C155.17 416.547 161.938 417.948 167.499 420.72C168.635 421.287 169.951 421.365 171.148 420.945L172.674 420.408C173.546 420.102 174.5 420.561 174.807 421.434C175.004 421.995 174.709 422.613 174.146 422.811L169.506 424.44Z" fill="#DD7F30"/>
<path d="M157.999 405.591C157.999 405.591 157.502 403.335 158.916 403.182C160.331 403.029 165.493 404.139 166.87 403.986C168.246 403.833 175.435 402.645 176.697 403.869C177.959 405.093 177.423 406.164 174.9 406.395C172.376 406.623 169.011 407.043 168.055 407.847C167.1 408.651 160.179 411.021 157.999 405.591Z" fill="#415DA5"/>
<path d="M194.625 450.192L189.459 447.21C188.852 446.859 188.069 447.069 187.718 447.678C187.368 448.284 187.578 449.067 188.184 449.418L188.821 449.787L188.208 450.465C186.957 449.178 185.21 448.377 183.274 448.377C179.473 448.377 176.391 451.461 176.391 455.262C176.391 459.063 179.473 462.144 183.274 462.144C187.075 462.144 190.157 459.063 190.157 455.262C190.157 453.684 189.625 452.232 188.733 451.071L189.527 450.192L193.35 452.4C193.958 452.751 194.741 452.541 195.092 451.935C195.442 451.326 195.232 450.543 194.625 450.192Z" fill="#415DA5"/>
<path d="M145.35 450.258L145.065 450.669L143.693 449.973L145.35 450.258ZM170.067 447.966L169.966 447.363L146.979 451.218L147.857 449.964L148.129 450.057L148.435 449.139L160.835 431.424L160.334 431.073L149.114 447.102L155.165 428.949L154.584 428.754L147.883 448.86L146.46 450.891L146.209 450.717L146.191 450.666L146.615 450.237V427.017H146.004V449.748L145.852 449.724L145.274 448.113L145.317 448.077L145.222 447.966L138.746 429.921L138.17 430.128L144.114 446.691L132.163 432.933L131.701 433.335L144.684 448.281L145.159 449.604L141.841 449.034L124.423 440.202L124.146 440.748L139.793 448.68L122.348 445.68L122.244 446.283L141.646 449.619L144.787 451.212L144.386 451.617L122.557 454.857L122.647 455.463L143.667 452.343L143.493 452.517L124.47 460.689L124.711 461.253L142.343 453.678L128.503 467.637L128.937 468.069L143.844 453.033L145.52 452.313L133.51 471.207L134.026 471.537L144.958 454.338C142.618 460.497 137.27 474.579 137.148 474.945L137.729 475.14C137.844 474.792 143.244 460.569 146.319 452.478C146.458 452.82 146.602 453.171 146.75 453.534L144.934 475.476L145.544 475.527L147.26 454.788C150.484 462.717 155.079 474.03 155.196 474.375L155.777 474.18C155.657 473.82 150.398 460.881 147.888 454.71L159.205 472.605L159.722 472.278L146.831 451.893L166.019 465.198L166.367 464.697L147.661 451.725L170.067 447.966Z" fill="#415DA5"/>
<path d="M141.798 451.641C141.798 449.148 143.818 447.129 146.31 447.129C148.802 447.129 150.822 449.148 150.822 451.641C150.822 454.134 148.802 456.153 146.31 456.153C143.818 456.153 141.798 454.134 141.798 451.641Z" fill="#2C3A64"/>
<path d="M146.31 428.853C133.744 428.853 123.52 439.074 123.52 451.641C123.52 464.208 133.744 474.432 146.31 474.432C150.371 474.432 154.357 473.349 157.837 471.306C161.218 469.317 164.047 466.476 166.02 463.089C168.034 459.63 169.099 455.67 169.099 451.641C169.099 439.074 158.876 428.853 146.31 428.853ZM146.31 478.101C131.719 478.101 119.849 466.23 119.849 451.641C119.849 437.052 131.719 425.181 146.31 425.181C160.9 425.181 172.77 437.052 172.77 451.641C172.77 456.318 171.533 460.914 169.192 464.937C166.903 468.867 163.62 472.164 159.697 474.471C155.653 476.847 151.024 478.101 146.31 478.101Z" fill="#2C3A64"/>
<path d="M146.513 429.432C134.18 429.432 124.147 439.464 124.147 451.797C124.147 464.13 134.18 474.165 146.513 474.165C158.845 474.165 168.878 464.13 168.878 451.797C168.878 439.464 158.845 429.432 146.513 429.432ZM146.513 475.104C133.661 475.104 123.206 464.649 123.206 451.797C123.206 438.945 133.661 428.49 146.513 428.49C159.364 428.49 169.82 438.945 169.82 451.797C169.82 464.649 159.364 475.104 146.513 475.104Z" fill="#B84C42"/>
<path d="M220.739 417.366C220.346 416.376 219.425 415.761 218.428 415.698C207.006 389.454 206.883 389.25 206.71 388.968L205.059 392.241C204.971 392.097 211.295 406.155 215.809 416.46C215.459 416.601 215.298 417.006 215.458 417.348L230.892 450.378L233.441 449.337L220.739 417.366Z" fill="#DD7F30"/>
<path d="M221.451 384.879C220.908 383.055 218.99 382.014 217.165 382.557C215.721 382.986 214.769 384.276 214.703 385.701L199.34 389.556C198.476 388.623 197.126 388.203 195.824 388.59C193.999 389.133 192.959 391.05 193.501 392.877C194.044 394.701 195.963 395.739 197.788 395.199C198.683 394.932 199.388 394.335 199.811 393.579L217.277 389.196C217.865 389.352 218.503 389.352 219.129 389.166C220.953 388.623 221.993 386.703 221.451 384.879Z" fill="#415DA5"/>
<path d="M231.639 450.258L231.354 450.669L229.982 449.973L231.639 450.258ZM256.356 447.966L256.255 447.363L233.268 451.218L234.145 449.964L234.418 450.057L234.724 449.139L247.124 431.424L246.623 431.073L235.403 447.102L241.454 428.949L240.873 428.754L234.172 448.86L232.749 450.891L232.498 450.717L232.479 450.666L232.904 450.237V427.017H232.292V449.748L232.141 449.724L231.563 448.113L231.606 448.077L231.511 447.966L225.035 429.921L224.459 430.128L230.403 446.691L218.452 432.933L217.99 433.335L230.973 448.281L231.448 449.604L228.129 449.034L210.712 440.202L210.435 440.748L226.082 448.68L208.637 445.68L208.533 446.283L227.935 449.619L231.076 451.212L230.675 451.617L208.846 454.857L208.936 455.463L229.956 452.343L229.782 452.517L210.759 460.689L211 461.253L228.632 453.678L214.792 467.637L215.226 468.069L230.133 453.033L231.809 452.313L219.798 471.207L220.315 471.537L231.247 454.338C228.907 460.497 223.559 474.579 223.437 474.945L224.017 475.14C224.133 474.792 229.533 460.569 232.608 452.478C232.747 452.82 232.891 453.171 233.038 453.534L231.223 475.476L231.832 475.527L233.549 454.788C236.773 462.717 241.368 474.03 241.485 474.375L242.065 474.18C241.946 473.82 236.686 460.881 234.177 454.71L245.494 472.605L246.011 472.278L233.12 451.893L252.307 465.198L252.656 464.697L233.949 451.725L256.356 447.966Z" fill="#415DA5"/>
<path d="M228.086 451.641C228.086 449.148 230.106 447.129 232.598 447.129C235.09 447.129 237.11 449.148 237.11 451.641C237.11 454.134 235.09 456.153 232.598 456.153C230.106 456.153 228.086 454.134 228.086 451.641Z" fill="#2C3A64"/>
<path d="M232.598 428.853C220.032 428.853 209.809 439.074 209.809 451.641C209.809 464.208 220.032 474.432 232.598 474.432C236.66 474.432 240.646 473.349 244.126 471.306C247.506 469.317 250.336 466.476 252.308 463.089C254.323 459.63 255.388 455.67 255.388 451.641C255.388 439.074 245.165 428.853 232.598 428.853ZM232.598 478.101C218.008 478.101 206.138 466.23 206.138 451.641C206.138 437.052 218.008 425.181 232.598 425.181C247.189 425.181 259.059 437.052 259.059 451.641C259.059 456.318 257.822 460.914 255.481 464.937C253.192 468.867 249.908 472.164 245.986 474.471C241.942 476.847 237.313 478.101 232.598 478.101Z" fill="#2C3A64"/>
<path d="M232.801 429.432C220.468 429.432 210.435 439.464 210.435 451.797C210.435 464.13 220.468 474.165 232.801 474.165C245.134 474.165 255.167 464.13 255.167 451.797C255.167 439.464 245.134 429.432 232.801 429.432ZM232.801 475.104C219.949 475.104 209.494 464.649 209.494 451.797C209.494 438.945 219.949 428.49 232.801 428.49C245.653 428.49 256.108 438.945 256.108 451.797C256.108 464.649 245.653 475.104 232.801 475.104Z" fill="#B84C42"/>
<path d="M378.246 444.927L399.258 431.475L382.518 458.292L378.246 444.927ZM406.005 427.185L403.698 424.797L403.902 424.38L403.536 424.629L403.533 424.626L403.527 424.635L377.403 442.296L371.58 424.08L369.609 424.71L375.618 443.505L352.722 458.985L380.319 461.385L380.496 459.321L358.719 457.428L376.44 446.082L381.3 461.28L383.271 460.65L382.716 458.91L384.036 459.765L406.005 427.185Z" fill="#B84C42"/>
<path d="M410.457 432.474C410.076 431.514 409.038 431.013 408.066 431.28C405.051 423.453 404.049 420.879 403.689 419.991L406.143 418.431C406.518 418.404 406.89 418.278 407.217 418.041C408.156 417.366 408.372 416.052 407.694 415.113C407.016 414.171 405.705 413.958 404.763 414.633C404.025 415.164 403.737 416.088 403.974 416.913L399.093 420.018C398.4 419.619 397.506 419.634 396.816 420.132C395.874 420.81 395.661 422.121 396.336 423.063C397.014 424.002 398.325 424.218 399.267 423.54C399.705 423.225 399.984 422.772 400.089 422.283L401.928 421.113C402.585 422.748 404.829 428.259 406.263 431.985L418.089 457.293L420.006 456.513L410.457 432.474Z" fill="#AA3E39"/>
<path d="M359.112 458.205C359.112 458.094 359.106 457.983 359.097 457.872L373.584 455.442L373.509 454.989L359.019 457.419C358.845 456.678 358.425 456.03 357.849 455.565L366.642 443.004L366.264 442.74L357.828 454.794L362.379 441.144L361.941 440.997L357.219 455.163C356.832 454.971 356.403 454.851 355.95 454.821V439.692H355.491V454.821C355.227 454.839 354.972 454.887 354.729 454.962L350.034 441.876L349.599 442.029L354.069 454.485L345.084 444.141L344.736 444.441L354.102 455.223C353.613 455.49 353.196 455.874 352.89 456.336L352.359 456.246L339.264 449.607L339.057 450.015L350.82 455.979L337.704 453.723L337.626 454.179L352.215 456.687L352.596 456.879C352.425 457.287 352.329 457.737 352.329 458.205C352.329 458.298 352.332 458.385 352.338 458.475L337.86 460.623L337.929 461.079L352.407 458.931C352.437 459.066 352.473 459.201 352.518 459.33L339.3 465.009L339.48 465.432L352.701 459.753C352.704 459.759 352.707 459.762 352.71 459.768L342.333 470.235L342.657 470.559L352.956 460.17C353.166 460.464 353.421 460.725 353.712 460.938L346.095 472.917L346.485 473.166L354.099 461.187C354.165 461.223 354.234 461.256 354.303 461.289C352.401 466.296 348.918 475.473 348.831 475.728L349.269 475.875C349.344 475.647 352.413 467.562 354.732 461.451C355.047 461.547 355.377 461.598 355.719 461.598C355.776 461.598 355.833 461.598 355.89 461.595L354.687 476.127L355.146 476.166L356.355 461.538C356.502 461.511 356.643 461.475 356.784 461.427C359.175 467.313 362.319 475.053 362.403 475.299L362.838 475.155C362.754 474.897 359.184 466.113 357.21 461.256C357.252 461.235 357.294 461.214 357.336 461.19L365.415 473.97L365.805 473.724L357.723 460.944C358.047 460.707 358.323 460.416 358.545 460.083L370.539 468.399L370.803 468.021L358.776 459.684C358.992 459.237 359.112 458.736 359.112 458.205Z" fill="#415DA5"/>
<path d="M355.719 441.072C346.272 441.072 338.586 448.758 338.586 458.205C338.586 467.655 346.272 475.341 355.719 475.341C358.773 475.341 361.77 474.528 364.389 472.992C366.93 471.498 369.057 469.362 370.539 466.815C372.054 464.211 372.855 461.235 372.855 458.205C372.855 448.758 365.169 441.072 355.719 441.072ZM355.719 478.101C344.751 478.101 335.826 469.176 335.826 458.205C335.826 447.237 344.751 438.312 355.719 438.312C366.69 438.312 375.615 447.237 375.615 458.205C375.615 461.724 374.685 465.18 372.924 468.201C371.205 471.159 368.736 473.637 365.787 475.371C362.745 477.156 359.265 478.101 355.719 478.101Z" fill="#2C3A64"/>
<path d="M423.132 458.205C423.132 458.094 423.126 457.983 423.114 457.872L437.601 455.442L437.526 454.989L423.039 457.419C422.862 456.678 422.442 456.03 421.869 455.565L430.659 443.004L430.284 442.74L421.848 454.794L426.396 441.144L425.961 440.997L421.239 455.163C420.852 454.971 420.423 454.851 419.967 454.821V439.692H419.508V454.821C419.244 454.839 418.992 454.887 418.746 454.962L414.051 441.876L413.619 442.029L418.089 454.485L409.101 444.141L408.753 444.441L418.119 455.223C417.63 455.49 417.213 455.874 416.907 456.336L416.379 456.246L403.281 449.607L403.074 450.015L414.84 455.979L401.721 453.723L401.643 454.179L416.232 456.687L416.616 456.879C416.442 457.287 416.346 457.737 416.346 458.205C416.346 458.298 416.349 458.385 416.358 458.475L401.88 460.623L401.946 461.079L416.424 458.931C416.454 459.066 416.493 459.201 416.538 459.33L403.317 465.009L403.5 465.432L416.718 459.753C416.721 459.759 416.724 459.762 416.727 459.768L406.35 470.235L406.677 470.559L416.973 460.17C417.183 460.464 417.438 460.725 417.729 460.938L410.115 472.917L410.502 473.166L418.116 461.187C418.182 461.223 418.251 461.256 418.32 461.289C416.418 466.296 412.935 475.473 412.851 475.728L413.286 475.875C413.361 475.647 416.43 467.562 418.752 461.451C419.064 461.547 419.394 461.598 419.739 461.598C419.796 461.598 419.85 461.598 419.907 461.595L418.704 476.127L419.163 476.166L420.372 461.538C420.519 461.511 420.663 461.475 420.801 461.427C423.195 467.313 426.336 475.053 426.42 475.299L426.858 475.155C426.771 474.897 423.204 466.113 421.227 461.256C421.269 461.235 421.311 461.214 421.353 461.19L429.435 473.97L429.822 473.724L421.743 460.944C422.064 460.707 422.343 460.416 422.565 460.083L434.559 468.399L434.82 468.021L422.793 459.684C423.009 459.237 423.132 458.736 423.132 458.205Z" fill="#415DA5"/>
<path d="M419.739 441.072C410.289 441.072 402.603 448.758 402.603 458.205C402.603 467.655 410.289 475.341 419.739 475.341C422.793 475.341 425.79 474.528 428.406 472.992C430.947 471.498 433.074 469.362 434.559 466.815C436.074 464.211 436.875 461.235 436.875 458.205C436.875 448.758 429.186 441.072 419.739 441.072ZM419.739 478.101C408.768 478.101 399.843 469.176 399.843 458.205C399.843 447.237 408.768 438.312 419.739 438.312C430.71 438.312 439.635 447.237 439.635 458.205C439.635 461.724 438.705 465.18 436.944 468.201C435.222 471.159 432.753 473.637 429.804 475.371C426.765 477.156 423.282 478.101 419.739 478.101Z" fill="#2C3A64"/>
<path d="M371.934 437.793C371.643 437.895 371.319 437.862 371.055 437.703C361.746 432.078 348.867 434.19 345.141 434.973H345.135C344.931 435.018 344.739 434.862 344.739 434.652V433.923C344.739 433.368 345.144 432.894 345.696 432.813C347.709 432.513 352.419 431.868 355.05 431.856C355.119 431.856 355.191 431.856 355.263 431.856C361.155 431.856 366.243 432.912 370.425 434.994C371.28 435.42 372.27 435.48 373.17 435.165L374.316 434.76C374.97 434.532 375.69 434.874 375.921 435.531C376.068 435.954 375.846 436.419 375.423 436.566L371.934 437.793Z" fill="#AA3E39"/>
<path d="M363.282 423.618C363.282 423.618 362.907 421.923 363.972 421.809C365.037 421.692 368.916 422.526 369.951 422.412C370.986 422.298 376.392 421.404 377.34 422.325C378.291 423.246 377.886 424.05 375.99 424.224C374.091 424.395 371.562 424.713 370.842 425.316C370.125 425.919 364.92 427.701 363.282 423.618Z" fill="#AA3E39"/>
<path d="M393.135 464.34H391.233L387.225 462.513C387.378 462.024 387.462 461.505 387.462 460.965C387.462 458.109 385.143 455.79 382.287 455.79C379.428 455.79 377.112 458.109 377.112 460.965C377.112 463.824 379.428 466.14 382.287 466.14C384.321 466.14 386.079 464.967 386.925 463.26L389.292 464.34H388.65C388.122 464.34 387.69 464.772 387.69 465.297C387.69 465.825 388.122 466.257 388.65 466.257H393.135C393.663 466.257 394.092 465.825 394.092 465.297C394.092 464.772 393.663 464.34 393.135 464.34Z" fill="#415DA5"/>
<path d="M827.04 479.007H72.9607C72.6154 479.007 72.3328 478.722 72.3328 478.377V478.314C72.3328 477.969 72.6154 477.687 72.9607 477.687H827.04C827.385 477.687 827.667 477.969 827.667 478.314V478.377C827.667 478.722 827.385 479.007 827.04 479.007Z" fill="#283250"/>
<path d="M326.304 450.708C326.304 466.293 313.671 478.926 298.086 478.926C282.501 478.926 269.867 466.293 269.867 450.708C269.867 435.123 282.501 422.49 298.086 422.49C313.671 422.49 326.304 435.123 326.304 450.708Z" fill="#2D3A62"/>
<path d="M306.066 452.934C306.264 452.226 306.369 451.479 306.369 450.708C306.369 449.91 306.255 449.136 306.045 448.407L311.76 444.876C312.525 446.667 312.948 448.638 312.948 450.708C312.948 452.751 312.537 454.698 311.79 456.471L306.066 452.934ZM300.345 465.399V458.676C301.617 458.319 302.763 457.665 303.708 456.792L309.42 460.32C307.155 462.987 303.966 464.847 300.345 465.399ZM294.34 450.708C294.34 448.638 296.017 446.961 298.086 446.961C300.156 446.961 301.833 448.638 301.833 450.708C301.833 452.778 300.156 454.455 298.086 454.455C296.017 454.455 294.34 452.778 294.34 450.708ZM295.826 465.399C292.206 464.847 289.019 462.987 286.754 460.32L292.465 456.792C293.409 457.665 294.555 458.319 295.826 458.676V465.399ZM284.383 456.471C283.637 454.698 283.224 452.751 283.224 450.708C283.224 448.638 283.648 446.667 284.413 444.876L290.129 448.407C289.918 449.136 289.802 449.91 289.802 450.708C289.802 451.479 289.91 452.226 290.107 452.934L284.383 456.471ZM295.826 436.017V442.737C294.581 443.091 293.454 443.724 292.522 444.57L286.804 441.039C289.065 438.402 292.233 436.563 295.826 436.017ZM300.345 436.017C303.939 436.563 307.107 438.402 309.369 441.039L303.651 444.57C302.718 443.724 301.593 443.091 300.345 442.737V436.017ZM298.086 434.208C288.973 434.208 281.586 441.594 281.586 450.708C281.586 459.822 288.973 467.208 298.086 467.208C307.2 467.208 314.586 459.822 314.586 450.708C314.586 441.594 307.2 434.208 298.086 434.208Z" fill="#98BDF4"/>
<path d="M671.055 450.141C671.055 465.726 658.422 478.359 642.837 478.359C627.252 478.359 614.616 465.726 614.616 450.141C614.616 434.556 627.252 421.923 642.837 421.923C658.422 421.923 671.055 434.556 671.055 450.141Z" fill="#2D3A62"/>
<path d="M650.814 452.367C651.012 451.659 651.12 450.912 651.12 450.141C651.12 449.343 651.006 448.569 650.793 447.84L656.511 444.309C657.276 446.1 657.699 448.071 657.699 450.141C657.699 452.184 657.285 454.131 656.541 455.904L650.814 452.367ZM645.096 464.832V458.112C646.368 457.752 647.514 457.098 648.456 456.225L654.168 459.753C651.903 462.42 648.717 464.28 645.096 464.832ZM639.09 450.141C639.09 448.071 640.767 446.394 642.837 446.394C644.904 446.394 646.581 448.071 646.581 450.141C646.581 452.211 644.904 453.888 642.837 453.888C640.767 453.888 639.09 452.211 639.09 450.141ZM640.575 464.832C636.957 464.28 633.768 462.42 631.503 459.753L637.215 456.225C638.16 457.098 639.306 457.752 640.575 458.112V464.832ZM629.133 455.904C628.386 454.131 627.975 452.184 627.975 450.141C627.975 448.071 628.398 446.1 629.163 444.309L634.878 447.84C634.668 448.569 634.551 449.343 634.551 450.141C634.551 450.912 634.659 451.659 634.857 452.367L629.133 455.904ZM640.575 435.45V442.173C639.33 442.524 638.205 443.157 637.272 444.003L631.554 440.472C633.816 437.835 636.984 435.999 640.575 435.45ZM645.096 435.45C648.69 435.999 651.858 437.835 654.12 440.472L648.399 444.003C647.469 443.157 646.341 442.524 645.096 442.173V435.45ZM642.837 433.641C633.723 433.641 626.337 441.027 626.337 450.141C626.337 459.255 633.723 466.641 642.837 466.641C651.948 466.641 659.337 459.255 659.337 450.141C659.337 441.027 651.948 433.641 642.837 433.641Z" fill="#98BDF4"/>
<path d="M778.2 464.181H501.948V420.009L760.755 422.718L778.2 464.181Z" fill="#163560"/>
<path d="M626.43 382.665C626.437 382.665 626.447 382.668 626.454 382.668C626.447 382.668 626.437 382.665 626.43 382.665Z" fill="#163560"/>
<path d="M704.046 413.22C699.993 413.07 695.784 412.989 691.41 412.989C691.41 412.989 667.206 391.983 639.204 384.834C667.992 391.944 704.046 413.22 704.046 413.22Z" fill="#163560"/>
<path d="M484.818 428.991V405.798C484.818 405.798 512.028 402.687 528.483 396.729C566.574 382.734 587.046 382.476 621.639 382.476C647.904 382.476 674.505 400.065 685.791 408.534C689.598 411.39 694.209 412.965 698.964 413.07C740.514 413.982 766.197 422.274 778.953 427.875C784.929 430.497 788.778 436.422 788.778 442.95V450.756C789.636 450.756 790.332 451.452 790.332 452.31V465.267C790.332 466.125 789.636 466.821 788.778 466.821H771.027H763.983C766.44 462.42 767.796 457.323 767.658 451.893C767.271 436.428 754.641 423.837 739.176 423.495C722.775 423.132 709.365 436.32 709.365 452.637C709.365 457.788 710.706 462.624 713.049 466.821H560.502C562.959 462.42 564.315 457.323 564.177 451.893C563.79 436.428 551.16 423.837 535.695 423.495C519.294 423.132 505.884 436.32 505.884 452.637C505.884 457.788 507.225 462.624 509.568 466.821H503.478C482.397 466.821 479.409 445.263 479.211 434.694C479.154 431.559 481.683 428.991 484.818 428.991Z" fill="#F1A34F"/>
<path d="M634.995 386.664C659.061 392.754 684.867 413.571 684.867 413.571L616.56 412.11C613.881 412.053 611.466 410.475 610.341 408.045L599.874 385.455H625.2C628.503 385.455 631.794 385.854 634.995 386.664Z" fill="#163560"/>
<path d="M595.857 385.974L605.448 407.943C606.183 409.632 604.947 411.522 603.102 411.525C593.427 411.528 568.017 411.168 553.392 407.505C549.879 406.626 548.7 402.204 551.313 399.696C557.256 393.996 570.18 385.974 595.857 385.974Z" fill="#163560"/>
<path d="M786.999 435.498H777.018C777.018 435.498 760.698 420.264 734.508 415.947C734.508 415.947 782.892 421.278 786.999 435.498Z" fill="#B64C41"/>
<path d="M484.818 428.991H487.461C488.94 428.991 490.293 428.142 490.923 426.804C492.45 423.573 495.804 417.435 500.949 413.073C502.944 411.384 501.75 408.129 499.137 408.129H484.818V428.991Z" fill="#B64C41"/>
<path d="M615.84 418.56H629.118C629.85 418.56 630.447 417.966 630.447 417.231C630.447 416.499 629.85 415.905 629.118 415.905H615.84C615.108 415.905 614.514 416.499 614.514 417.231C614.514 417.966 615.108 418.56 615.84 418.56Z" fill="#163560"/>
<path d="M557.148 418.56H570.426C571.158 418.56 571.752 417.966 571.752 417.231C571.752 416.499 571.158 415.905 570.426 415.905H557.148C556.416 415.905 555.822 416.499 555.822 417.231C555.822 417.966 556.416 418.56 557.148 418.56Z" fill="#163560"/>
<path d="M568.389 427.176H688.086C693.039 427.176 696.081 432.591 693.51 436.821L685.8 449.49C684.123 452.247 680.46 453.006 677.832 451.131C667.596 443.835 638.115 428.697 568.389 427.176Z" fill="#DD7F30"/>
<path d="M612.072 371.349H618.213C619.014 371.349 619.731 371.853 620.004 372.609L623.622 382.668H610.17V373.251C610.17 372.201 611.022 371.349 612.072 371.349Z" fill="#F1A34F"/>
<path d="M610.17 382.506V375.627H612.804C614.622 375.627 616.242 376.77 616.851 378.48L618.288 382.506H610.17Z" fill="#163560"/>
<path d="M647.079 430.584V439.668H637.995V430.584H647.079Z" fill="#163560"/>
<path d="M637.995 448.755H628.908V439.668H637.995V448.755Z" fill="#163560"/>
<path d="M628.908 430.584V439.668H619.824V430.584H628.908Z" fill="#163560"/>
<path d="M619.824 448.755H610.74V439.668H619.824V448.755Z" fill="#163560"/>
<path d="M610.74 430.584V439.668H601.656V430.584H610.74Z" fill="#163560"/>
<path d="M561.573 451.956C561.573 466.518 549.768 478.323 535.209 478.323C520.647 478.323 508.842 466.518 508.842 451.956C508.842 437.394 520.647 425.589 535.209 425.589C549.768 425.589 561.573 437.394 561.573 451.956Z" fill="#2D3A62"/>
<path d="M543.108 454.161C543.303 453.459 543.408 452.721 543.408 451.956C543.408 451.164 543.294 450.402 543.087 449.676L548.745 446.181C549.501 447.954 549.921 449.907 549.921 451.956C549.921 453.981 549.513 455.907 548.775 457.662L543.108 454.161ZM537.444 466.503V459.846C538.704 459.492 539.838 458.844 540.771 457.98L546.426 461.472C544.185 464.115 541.029 465.957 537.444 466.503ZM531.498 451.956C531.498 449.907 533.16 448.248 535.209 448.248C537.255 448.248 538.917 449.907 538.917 451.956C538.917 454.005 537.255 455.667 535.209 455.667C533.16 455.667 531.498 454.005 531.498 451.956ZM532.971 466.503C529.386 465.957 526.23 464.115 523.989 461.472L529.644 457.98C530.577 458.844 531.711 459.492 532.971 459.846V466.503ZM521.64 457.662C520.902 455.907 520.494 453.981 520.494 451.956C520.494 449.907 520.914 447.954 521.67 446.181L527.328 449.676C527.121 450.402 527.007 451.164 527.007 451.956C527.007 452.721 527.112 453.459 527.307 454.161L521.64 457.662ZM532.971 437.412V444.066C531.738 444.417 530.622 445.044 529.698 445.881L524.037 442.383C526.278 439.773 529.413 437.955 532.971 437.412ZM537.444 437.412C541.002 437.955 544.137 439.773 546.378 442.383L540.717 445.881C539.793 445.044 538.677 444.417 537.444 444.066V437.412ZM535.209 435.621C526.185 435.621 518.871 442.935 518.871 451.956C518.871 460.98 526.185 468.294 535.209 468.294C544.23 468.294 551.544 460.98 551.544 451.956C551.544 442.935 544.23 435.621 535.209 435.621Z" fill="#98BDF4"/>
<path d="M764.727 451.956C764.727 466.518 752.922 478.323 738.36 478.323C723.798 478.323 711.993 466.518 711.993 451.956C711.993 437.394 723.798 425.589 738.36 425.589C752.922 425.589 764.727 437.394 764.727 451.956Z" fill="#2D3A62"/>
<path d="M746.259 454.161C746.454 453.459 746.562 452.721 746.562 451.956C746.562 451.164 746.448 450.402 746.238 449.676L751.899 446.181C752.655 447.954 753.075 449.907 753.075 451.956C753.075 453.981 752.667 455.907 751.929 457.662L746.259 454.161ZM740.598 466.503V459.846C741.855 459.492 742.992 458.844 743.925 457.98L749.58 461.472C747.339 464.115 744.183 465.957 740.598 466.503ZM734.652 451.956C734.652 449.907 736.311 448.248 738.36 448.248C740.409 448.248 742.068 449.907 742.068 451.956C742.068 454.005 740.409 455.667 738.36 455.667C736.311 455.667 734.652 454.005 734.652 451.956ZM736.122 466.503C732.54 465.957 729.384 464.115 727.14 461.472L732.795 457.98C733.728 458.844 734.865 459.492 736.122 459.846V466.503ZM724.794 457.662C724.053 455.907 723.645 453.981 723.645 451.956C723.645 449.907 724.065 447.954 724.824 446.181L730.482 449.676C730.272 450.402 730.158 451.164 730.158 451.956C730.158 452.721 730.266 453.459 730.461 454.161L724.794 457.662ZM736.122 437.412V444.066C734.889 444.417 733.776 445.044 732.852 445.881L727.191 442.383C729.429 439.773 732.564 437.955 736.122 437.412ZM740.598 437.412C744.156 437.955 747.291 439.773 749.532 442.383L743.868 445.881C742.947 445.044 741.831 444.417 740.598 444.066V437.412ZM738.36 435.621C729.339 435.621 722.025 442.935 722.025 451.956C722.025 460.98 729.339 468.294 738.36 468.294C747.384 468.294 754.695 460.98 754.695 451.956C754.695 442.935 747.384 435.621 738.36 435.621Z" fill="#98BDF4"/>
</svg>
