<svg width="112" height="99" viewBox="0 0 112 99" fill="none" xmlns="http://www.w3.org/2000/svg">
<rect x="1.5" y="1.5" width="109" height="96" rx="14.5" fill="white" stroke="#ADC6F7" stroke-width="3"/>
<path d="M52.6552 68.5452L50.697 68.1804C48.0848 67.6939 46.3617 65.1818 46.8483 62.5696L54.5807 21.0628C54.8054 19.8564 55.9656 19.0608 57.1717 19.2855L64.2209 20.5987C65.4273 20.8234 66.2231 21.9835 65.9984 23.1898L58.266 64.6966C57.7794 67.3088 55.2674 69.0319 52.6552 68.5452Z" fill="#292827"/>
<path d="M64.2777 20.294L57.2285 18.9809C56.8927 18.9183 56.5546 18.9234 56.2234 18.9962C55.9036 19.0662 55.6039 19.196 55.333 19.3821C55.062 19.5679 54.833 19.8006 54.6524 20.0736C54.4654 20.3566 54.3388 20.6702 54.2761 21.006L46.5439 62.5128C46.4173 63.1922 46.4276 63.8764 46.5745 64.5461C46.7164 65.193 46.9791 65.799 47.3552 66.3472C47.7313 66.8956 48.202 67.3588 48.7544 67.7241C49.3263 68.1023 49.9607 68.3584 50.6403 68.485L52.5985 68.8497C53.2781 68.9763 53.9621 68.9659 54.632 68.8191C55.2787 68.6771 55.8847 68.4144 56.4329 68.0383C56.9813 67.6623 57.4445 67.1915 57.8098 66.6392C58.188 66.0673 58.4441 65.4327 58.5707 64.7533L66.3029 23.2465C66.3656 22.9107 66.3604 22.5725 66.2877 22.2411C66.2175 21.9215 66.0877 21.6219 65.9018 21.3508C65.716 21.0799 65.4832 20.8508 65.2101 20.6702C64.9273 20.4831 64.6137 20.3567 64.2777 20.294ZM64.221 20.5986C65.4274 20.8233 66.2231 21.9834 65.9984 23.1897L58.266 64.6965C57.7795 67.3088 55.2674 69.0318 52.6552 68.5451L50.697 68.1804C48.0848 67.6938 46.3618 65.1817 46.8484 62.5695L54.5807 21.0627C54.8054 19.8564 55.9656 19.0608 57.1718 19.2855L64.221 20.5986Z" fill="#1B1918"/>
<path d="M56.9133 25.4576L55.7612 25.2429C55.388 25.1734 55.1394 24.811 55.2089 24.4376C55.2784 24.0642 55.6408 23.8156 56.0142 23.8853L57.1663 24.0998C57.5395 24.1694 57.7881 24.5318 57.7186 24.9051C57.6491 25.2785 57.2867 25.5271 56.9133 25.4576Z" fill="#E0E2A7"/>
<path d="M60.2102 26.0718L59.0582 25.8572C58.6849 25.7877 58.4362 25.4253 58.5058 25.0519C58.5754 24.6784 58.9377 24.4299 59.3112 24.4995L60.4632 24.714C60.8364 24.7837 61.085 25.1461 61.0155 25.5193C60.946 25.8928 60.5836 26.1413 60.2102 26.0718Z" fill="#E0E2A7"/>
<path d="M63.5075 26.6856L62.3555 26.4709C61.9821 26.4014 61.7335 26.0391 61.8032 25.6656C61.8727 25.2924 62.2351 25.0436 62.6085 25.1133L63.7605 25.3278C64.1338 25.3975 64.3824 25.7598 64.3129 26.1331C64.2434 26.5066 63.881 26.7551 63.5075 26.6856Z" fill="#E0E2A7"/>
<path d="M56.4992 27.6822L55.3472 27.4675C54.9739 27.398 54.7254 27.0355 54.7949 26.6622C54.8644 26.2888 55.2269 26.0402 55.6002 26.1097L56.7522 26.3244C57.1256 26.3939 57.3742 26.7564 57.3045 27.1297C57.235 27.5031 56.8726 27.7517 56.4992 27.6822Z" fill="#E0E2A7"/>
<path d="M59.7961 28.2964L58.6441 28.0818C58.2708 28.0123 58.0222 27.6499 58.0917 27.2765C58.1612 26.903 58.5236 26.6545 58.8971 26.7241L60.0491 26.9386C60.4225 27.0083 60.6711 27.3707 60.6014 27.744C60.5319 28.1174 60.1695 28.366 59.7961 28.2964Z" fill="#E0E2A7"/>
<path d="M63.0929 28.9107L61.9409 28.696C61.5677 28.6265 61.3191 28.2642 61.3886 27.8907C61.4581 27.5173 61.8205 27.2687 62.1939 27.3384L63.3459 27.5529C63.7194 27.6226 63.9679 27.9849 63.8983 28.3582C63.8288 28.7316 63.4664 28.9802 63.0929 28.9107Z" fill="#E0E2A7"/>
<path d="M56.0817 29.9239L54.9297 29.7092C54.5564 29.6397 54.3079 29.2774 54.3774 28.9039C54.4469 28.5305 54.8093 28.2819 55.1827 28.3516L56.3347 28.5661C56.708 28.6358 56.9565 28.9981 56.887 29.3714C56.8175 29.7448 56.4552 29.9934 56.0817 29.9239Z" fill="#E0E2A7"/>
<path d="M59.3781 30.5381L58.2261 30.3235C57.8529 30.254 57.6041 29.8916 57.6738 29.5182C57.7433 29.1449 58.1057 28.8962 58.4791 28.9658L59.6311 29.1803C60.0044 29.25 60.253 29.6124 60.1835 29.9857C60.114 30.3591 59.7516 30.6077 59.3781 30.5381Z" fill="#E0E2A7"/>
<path d="M62.675 31.1524L61.523 30.9377C61.1496 30.8682 60.901 30.5059 60.9707 30.1324C61.0402 29.7592 61.4026 29.5106 61.776 29.5801L62.928 29.7948C63.3013 29.8643 63.5499 30.2266 63.4803 30.6001C63.4108 30.9733 63.0485 31.2219 62.675 31.1524Z" fill="#E0E2A7"/>
<path d="M55.6716 32.1236L54.5195 31.9089C54.1463 31.8394 53.8977 31.4771 53.9672 31.1036C54.0367 30.7302 54.3991 30.4816 54.7725 30.5513L55.9246 30.7658C56.2978 30.8355 56.5464 31.1978 56.4769 31.5711C56.4074 31.9445 56.045 32.1931 55.6716 32.1236Z" fill="#E0E2A7"/>
<path d="M58.9684 32.7374L57.8164 32.5227C57.4432 32.4532 57.1946 32.0908 57.2641 31.7174C57.3336 31.3439 57.696 31.0954 58.0694 31.1651L59.2214 31.3796C59.5947 31.4492 59.8433 31.8116 59.7738 32.1849C59.7042 32.5583 59.3419 32.8069 58.9684 32.7374Z" fill="#E0E2A7"/>
<path d="M62.2654 33.3516L61.1133 33.137C60.7401 33.0675 60.4913 32.7051 60.561 32.3316C60.6305 31.9584 60.9929 31.7096 61.3663 31.7793L62.5183 31.9938C62.8916 32.0635 63.1402 32.4259 63.0707 32.7991C63.0012 33.1726 62.6388 33.4211 62.2654 33.3516Z" fill="#E0E2A7"/>
<path d="M55.2619 34.3228L54.1099 34.1082C53.7366 34.0386 53.488 33.6763 53.5576 33.3028C53.6271 32.9294 53.9894 32.6808 54.3629 32.7505L55.5149 32.965C55.8882 33.0345 56.1367 33.397 56.0672 33.7703C55.9977 34.1438 55.6353 34.3923 55.2619 34.3228Z" fill="#E0E2A7"/>
<path d="M52.4846 49.02L51.3326 48.8055C50.9591 48.7359 50.7106 48.3735 50.7803 48.0002C50.8498 47.6268 51.2121 47.3782 51.5856 47.4477L52.7376 47.6624C53.1109 47.7319 53.3594 48.0943 53.2899 48.4677C53.2204 48.841 52.858 49.0897 52.4846 49.02Z" fill="#E0E2A7"/>
<path d="M59.032 50.2398L57.88 50.0251C57.5065 49.9556 57.2579 49.5933 57.3276 49.2198C57.3971 48.8464 57.7595 48.5978 58.1329 48.6675L59.2848 48.882C59.6582 48.9517 59.9068 49.314 59.8373 49.6873C59.7678 50.0608 59.4052 50.3093 59.032 50.2398Z" fill="#E0E2A7"/>
<path d="M54.3347 36.6367L53.3748 36.458C53.0637 36.4001 52.8566 36.098 52.9145 35.7869C52.9726 35.4758 53.2745 35.2687 53.5856 35.3268L54.5454 35.5055C54.8565 35.5634 55.0637 35.8655 55.0057 36.1766C54.9478 36.4876 54.6458 36.6948 54.3347 36.6367Z" fill="#E11B2E"/>
<path d="M56.9313 37.1207L55.9715 36.9419C55.6604 36.8838 55.4533 36.582 55.5112 36.2709C55.5691 35.9598 55.8712 35.7526 56.1822 35.8105L57.1421 35.9894C57.4532 36.0473 57.6603 36.3492 57.6022 36.6605C57.5443 36.9716 57.2424 37.1786 56.9313 37.1207Z" fill="#2B8A5A"/>
<path d="M59.4899 37.5972L58.5301 37.4183C58.219 37.3604 58.0118 37.0585 58.0698 36.7474C58.1279 36.4362 58.4298 36.2292 58.7408 36.2871L59.7007 36.466C60.0118 36.5239 60.2189 36.8258 60.161 37.1369C60.1029 37.448 59.801 37.6551 59.4899 37.5972Z" fill="#EA962B"/>
<path d="M62.0484 38.0738L61.0886 37.8951C60.7775 37.837 60.5703 37.5351 60.6284 37.224C60.6863 36.9129 60.9882 36.7057 61.2993 36.7638L62.2592 36.9425C62.5702 37.0005 62.7774 37.3025 62.7195 37.6136C62.6616 37.9247 62.3595 38.1317 62.0484 38.0738Z" fill="#6971C0"/>
<path d="M50.1579 57.6524L49.1981 57.4735C48.887 57.4156 48.6798 57.1135 48.7377 56.8024C48.7958 56.4914 49.0977 56.2844 49.4088 56.3423L50.3686 56.521C50.6797 56.5791 50.8869 56.881 50.829 57.1921C50.7709 57.5032 50.469 57.7103 50.1579 57.6524Z" fill="#E0E2A7"/>
<path d="M52.7551 58.1358L51.7952 57.9571C51.4841 57.8991 51.277 57.5971 51.3349 57.286C51.3928 56.9749 51.6949 56.7678 52.006 56.8258L52.9658 57.0046C53.2769 57.0625 53.4839 57.3645 53.426 57.6756C53.368 57.9867 53.0662 58.1937 52.7551 58.1358Z" fill="#E0E2A7"/>
<path d="M52.5144 60.0835L51.5545 59.9047C51.2434 59.8467 51.0363 59.5447 51.0942 59.2336C51.1523 58.9225 51.4542 58.7155 51.7653 58.7734L52.7251 58.9521C53.0362 59.0102 53.2433 59.3121 53.1854 59.6232C53.1273 59.9343 52.8254 60.1415 52.5144 60.0835Z" fill="#E0E2A7"/>
<path d="M55.3132 58.6128L54.3533 58.434C54.0423 58.376 53.8351 58.0741 53.893 57.7631C53.9509 57.452 54.253 57.2448 54.5641 57.3027L55.5239 57.4816C55.835 57.5395 56.0422 57.8414 55.9843 58.1525C55.9262 58.4636 55.6243 58.6708 55.3132 58.6128Z" fill="#E0E2A7"/>
<path d="M57.8717 59.0894L56.9118 58.9106C56.6007 58.8527 56.3936 58.5507 56.4517 58.2396C56.5096 57.9285 56.8115 57.7215 57.1226 57.7794L58.0824 57.9581C58.3935 58.0161 58.6006 58.3181 58.5427 58.6292C58.4848 58.9403 58.1827 59.1474 57.8717 59.0894Z" fill="#E0E2A7"/>
<path d="M49.1553 58.4141C48.9112 58.3688 48.6756 58.5303 48.6301 58.7745C48.5846 59.0186 48.7463 59.2542 48.9904 59.2997L49.8599 59.4617C50.1041 59.5072 50.3397 59.3455 50.3852 59.1014C50.4307 58.8573 50.269 58.6217 50.025 58.5762L49.1553 58.4141ZM49.8341 59.6013L48.9643 59.4392C48.6432 59.3794 48.4307 59.0695 48.4905 58.7484C48.5503 58.4274 48.8602 58.2148 49.1812 58.2746L50.0509 58.4366C50.3721 58.4964 50.5845 58.8063 50.5247 59.1275C50.4649 59.4484 50.155 59.6611 49.8341 59.6013Z" fill="#E0E2A7"/>
<path d="M53.8916 54.1941C53.6475 54.1486 53.4119 54.3101 53.3664 54.5543C53.3209 54.7984 53.4826 55.034 53.7266 55.0795L54.5963 55.2415C54.8404 55.287 55.076 55.1253 55.1215 54.8812C55.167 54.637 55.0053 54.4016 54.7614 54.3561L53.8916 54.1941ZM54.5704 55.381L53.7007 55.219C53.3795 55.1592 53.1671 54.8493 53.2269 54.5284C53.2867 54.2072 53.5966 53.9946 53.9175 54.0544L54.7873 54.2164C55.1084 54.2762 55.3208 54.5861 55.261 54.9072C55.2012 55.2284 54.8913 55.4408 54.5704 55.381Z" fill="#E0E2A7"/>
<path d="M54.7183 49.6964C54.4742 49.6509 54.2385 49.8126 54.1932 50.0567C54.1477 50.3008 54.3092 50.5364 54.5534 50.5818L55.4231 50.7438C55.6672 50.7893 55.9028 50.6278 55.9483 50.3836C55.9937 50.1395 55.8321 49.9039 55.588 49.8584L54.7183 49.6964ZM55.397 50.8835L54.5273 50.7215C54.2063 50.6617 53.9937 50.3518 54.0535 50.0306C54.1133 49.7097 54.4232 49.497 54.7444 49.5568L55.6141 49.7189C55.935 49.7787 56.1477 50.0886 56.0879 50.4097C56.0281 50.7307 55.7182 50.9433 55.397 50.8835Z" fill="#E0E2A7"/>
<path d="M51.3658 60.781C51.1216 60.7355 50.886 60.897 50.8405 61.1412C50.795 61.3853 50.9567 61.6209 51.2007 61.6664L52.0704 61.8284C52.3145 61.8739 52.5501 61.7122 52.5956 61.4683C52.6411 61.2241 52.4794 60.9885 52.2353 60.943L51.3658 60.781ZM52.0445 61.9679L51.1748 61.8059C50.8536 61.7461 50.6412 61.4362 50.701 61.1153C50.7608 60.7941 51.0707 60.5815 51.3917 60.6415L52.2614 60.8035C52.5825 60.8633 52.795 61.1732 52.7352 61.4942C52.6754 61.8153 52.3655 62.0277 52.0445 61.9679Z" fill="#E0E2A7"/>
<path d="M54.2798 59.3689C54.0357 59.3234 53.8002 59.485 53.7548 59.7292C53.7093 59.9731 53.8708 60.2088 54.1149 60.2542L54.9846 60.4163C55.2288 60.4618 55.4644 60.3002 55.5099 60.0561C55.5553 59.812 55.3937 59.5764 55.1495 59.5309L54.2798 59.3689ZM54.9586 60.5558L54.089 60.3938C53.7679 60.334 53.5553 60.0243 53.6151 59.7031C53.6749 59.382 53.9847 59.1695 54.3059 59.2293L55.1756 59.3913C55.4966 59.4511 55.7092 59.761 55.6494 60.082C55.5896 60.4031 55.2797 60.6158 54.9586 60.5558Z" fill="#E0E2A7"/>
<path d="M56.8423 59.8464C56.5982 59.801 56.3626 59.9625 56.3171 60.2066C56.2718 60.4507 56.4333 60.6863 56.6774 60.7318L57.5471 60.8938C57.7913 60.9393 58.0269 60.7777 58.0724 60.5335C58.1177 60.2896 57.9562 60.0539 57.712 60.0085L56.8423 59.8464ZM57.5211 61.0334L56.6513 60.8714C56.3304 60.8116 56.1178 60.5017 56.1776 60.1807C56.2374 59.8596 56.5472 59.6469 56.8684 59.7067L57.7381 59.8689C58.0591 59.9287 58.2717 60.2385 58.2119 60.5596C58.1521 60.8807 57.8422 61.0932 57.5211 61.0334Z" fill="#E0E2A7"/>
<path d="M48.8033 60.3038C48.5591 60.2583 48.3235 60.42 48.278 60.6641C48.2325 60.9081 48.3942 61.1437 48.6383 61.1892L49.5079 61.3512C49.752 61.3967 49.9876 61.2352 50.0331 60.9911C50.0786 60.7469 49.9171 60.5113 49.673 60.4658L48.8033 60.3038ZM49.482 61.4909L48.6123 61.3289C48.2911 61.2689 48.0787 60.9592 48.1385 60.6381C48.1983 60.3169 48.5082 60.1045 48.8292 60.1643L49.6989 60.3263C50.02 60.3861 50.2326 60.696 50.1727 61.0169C50.1129 61.3381 49.803 61.5507 49.482 61.4909Z" fill="#E0E2A7"/>
<path d="M53.9278 61.2586C53.6838 61.2131 53.4482 61.3746 53.4027 61.6187C53.3572 61.8628 53.5187 62.0985 53.7629 62.1439L54.6326 62.306C54.8767 62.3514 55.1123 62.1898 55.1578 61.9456C55.2033 61.7015 55.0416 61.4661 54.7975 61.4206L53.9278 61.2586ZM54.6065 62.4455L53.737 62.2835C53.4158 62.2237 53.2032 61.9138 53.263 61.5928C53.323 61.2717 53.6327 61.0591 53.9538 61.1189L54.8236 61.2809C55.1447 61.3407 55.3571 61.6506 55.2973 61.9717C55.2375 62.2928 54.9276 62.5053 54.6065 62.4455Z" fill="#E0E2A7"/>
<path d="M56.4903 61.7354C56.2461 61.6899 56.0105 61.8516 55.9652 62.0958C55.9197 62.3399 56.0812 62.5755 56.3254 62.621L57.1951 62.783C57.4392 62.8285 57.6748 62.6668 57.7203 62.4227C57.7658 62.1786 57.6041 61.9429 57.36 61.8975L56.4903 61.7354ZM57.169 62.9225L56.2993 62.7605C55.9783 62.7007 55.7657 62.3908 55.8255 62.0697C55.8853 61.7487 56.1952 61.5361 56.5163 61.5959L57.3861 61.7579C57.707 61.8177 57.9196 62.1276 57.8598 62.4488C57.8 62.7697 57.4901 62.9823 57.169 62.9225Z" fill="#E0E2A7"/>
<path d="M49.8128 53.39L50.3114 50.7132C50.4208 50.1261 50.9907 49.7351 51.5778 49.8445C52.165 49.954 52.5558 50.5239 52.4465 51.111L51.9478 53.7878C51.8384 54.3748 51.2686 54.7658 50.6815 54.6565C50.0942 54.5471 49.7034 53.9772 49.8128 53.39Z" fill="#E0E2A7"/>
<path d="M56.6995 54.6728L57.1982 51.9961C57.3075 51.4088 57.8774 51.018 58.4645 51.1274C59.0517 51.2367 59.4426 51.8066 59.3332 52.3937L58.8345 55.0705C58.7252 55.6577 58.1553 56.0485 57.5682 55.9392C56.981 55.8298 56.5901 55.2599 56.6995 54.6728Z" fill="#E0E2A7"/>
<path d="M58.5588 34.9371L57.4068 34.7224C57.0335 34.6529 56.7849 34.2905 56.8544 33.9171C56.9239 33.5437 57.2863 33.2951 57.6597 33.3648L58.8118 33.5793C59.185 33.6489 59.4336 34.0113 59.3641 34.3846C59.2946 34.758 58.9322 35.0066 58.5588 34.9371Z" fill="#E0E2A7"/>
<path d="M61.8557 35.5513L60.7037 35.3367C60.3304 35.2672 60.0817 34.9048 60.1514 34.5314C60.2209 34.1579 60.5832 33.9093 60.9567 33.979L62.1087 34.1935C62.482 34.2632 62.7305 34.6256 62.661 34.9988C62.5915 35.3723 62.2291 35.6208 61.8557 35.5513Z" fill="#E0E2A7"/>
<path d="M59.2728 39.6642C58.6668 38.869 57.2206 38.5644 57.2206 38.5644C57.2206 38.5644 55.7616 38.3277 54.9099 38.8516C54.7784 38.9324 54.7002 39.0789 54.7098 39.2327C54.7099 39.2351 54.7101 39.2377 54.7103 39.24C54.7139 39.2888 54.7299 39.336 54.7558 39.3775L55.4389 40.4755C55.5861 40.712 55.8812 40.8163 56.1407 40.7151C56.1478 40.7122 56.155 40.7093 56.1621 40.7062C56.2807 40.6558 56.4075 40.6275 56.5363 40.6294C56.6288 40.6307 57.0286 40.7052 57.1155 40.7372C57.2363 40.7818 57.3443 40.8539 57.4368 40.9437C57.4423 40.9491 57.4479 40.9544 57.4535 40.9595C57.6593 41.1475 57.9719 41.1565 58.1944 40.9888L59.2272 40.2104C59.2664 40.1811 59.2982 40.1428 59.3192 40.0987C59.3202 40.0965 59.3212 40.0943 59.3222 40.092C59.3866 39.9518 59.3664 39.7871 59.2728 39.6642Z" fill="#E0E2A7"/>
<path d="M53.6312 45.715C54.2372 46.5102 55.6834 46.8149 55.6834 46.8149C55.6834 46.8149 57.1425 47.0515 57.9941 46.5276C58.1255 46.4469 58.2038 46.3004 58.1943 46.1463C58.1941 46.144 58.194 46.1416 58.1938 46.1392C58.1902 46.0903 58.174 46.0433 58.1483 46.0017L57.465 44.9037C57.3178 44.6672 57.0229 44.563 56.7632 44.6642C56.7562 44.6669 56.7491 44.6698 56.7419 44.6729C56.6234 44.7234 56.4966 44.7517 56.3678 44.7499C56.2753 44.7485 55.8755 44.674 55.7886 44.642C55.6678 44.5972 55.5598 44.5251 55.4673 44.4355C55.4616 44.4301 55.456 44.4248 55.4506 44.4197C55.2448 44.2318 54.9321 44.2227 54.7096 44.3904L53.6769 45.1686C53.6377 45.1981 53.6058 45.2364 53.5849 45.2805C53.5839 45.2828 53.5828 45.285 53.5818 45.2872C53.5174 45.4274 53.5377 45.5921 53.6312 45.715Z" fill="#E0E2A7"/>
<path d="M53.413 39.9026C52.6177 40.5084 52.3131 41.9548 52.3131 41.9548C52.3131 41.9548 52.0765 43.4138 52.6002 44.2655C52.6811 44.3968 52.8276 44.4752 52.9814 44.4655C52.9838 44.4655 52.9864 44.4653 52.9888 44.4652C53.0375 44.4616 53.0847 44.4454 53.1262 44.4197L54.2243 43.7363C54.4607 43.5891 54.565 43.2942 54.4638 43.0346C54.4609 43.0276 54.458 43.0205 54.4549 43.0133C54.4045 42.8947 54.3762 42.768 54.3781 42.6392C54.3795 42.5467 54.4539 42.1468 54.4859 42.0599C54.5306 41.9392 54.6026 41.831 54.6924 41.7386C54.6979 41.733 54.7031 41.7274 54.7083 41.7218C54.8962 41.5161 54.9052 41.2033 54.7376 40.9808L53.9592 39.9483C53.9299 39.9091 53.8915 39.8772 53.8474 39.8563C53.8452 39.8552 53.843 39.8542 53.8408 39.8532C53.7005 39.7888 53.5358 39.8091 53.413 39.9026Z" fill="#E0E2A7"/>
<path d="M59.5193 45.5543C60.3146 44.9483 60.6192 43.5021 60.6192 43.5021C60.6192 43.5021 60.8559 42.0431 60.332 41.1914C60.2512 41.0599 60.1047 40.9817 59.9509 40.9913C59.9483 40.9914 59.9459 40.9916 59.9436 40.9918C59.8948 40.9953 59.8476 41.0114 59.8061 41.0372L58.7081 41.7204C58.4716 41.8676 58.3673 42.1627 58.4685 42.4222C58.4714 42.4293 58.4743 42.4365 58.4774 42.4436C58.5278 42.562 58.5561 42.6889 58.5542 42.8177C58.5529 42.9102 58.4784 43.3101 58.4464 43.397C58.4017 43.5178 58.3295 43.6258 58.2399 43.7181C58.2344 43.7237 58.2292 43.7294 58.2241 43.735C58.0361 43.9408 58.0271 44.2534 58.1948 44.4759L58.973 45.5087C59.0025 45.5477 59.0408 45.5797 59.0849 45.6007C59.0871 45.6017 59.0893 45.6027 59.0916 45.6037C59.2318 45.6681 59.3965 45.6479 59.5193 45.5543Z" fill="#E0E2A7"/>
<path d="M57.6129 42.9418C57.4962 43.5684 56.8934 43.9817 56.2668 43.865C55.6402 43.7483 55.2267 43.1458 55.3434 42.519C55.4603 41.8924 56.0629 41.4791 56.6895 41.5958C57.3163 41.7125 57.7296 42.3151 57.6129 42.9418Z" fill="#E11B2E"/>
<path d="M55.7144 52.5627C55.6081 53.1334 55.0593 53.5097 54.4886 53.4034C53.9179 53.2971 53.5415 52.7484 53.6478 52.1776C53.7542 51.6069 54.3029 51.2306 54.8736 51.3369C55.4444 51.4432 55.8207 51.9919 55.7144 52.5627Z" fill="#E0E2A7"/>
<path d="M57.3309 23.2173L56.1789 23.0027C55.8055 22.9332 55.5569 22.5706 55.6264 22.1974C55.6961 21.8239 56.0585 21.5754 56.4317 21.6449L57.5837 21.8595C57.9572 21.929 58.2057 22.2916 58.1362 22.6649C58.0665 23.0383 57.7042 23.2869 57.3309 23.2173Z" fill="#E11B2E"/>
<path d="M56.7897 22.924C56.7837 22.923 56.7777 22.9218 56.7716 22.9204C56.6501 22.8928 56.5472 22.8204 56.482 22.7165C56.4193 22.6168 56.3992 22.4996 56.4251 22.3863C56.4571 22.247 56.5569 22.1313 56.6924 22.0766C56.7297 22.0616 56.7721 22.0797 56.7871 22.1168C56.7943 22.1345 56.7941 22.1543 56.7866 22.1722C56.7789 22.1901 56.7648 22.204 56.7469 22.2114C56.6554 22.2482 56.5881 22.3259 56.5666 22.4189C56.5494 22.4942 56.5631 22.5725 56.605 22.6392C56.6496 22.7102 56.7201 22.7598 56.8038 22.7787C56.9713 22.8167 57.1381 22.7168 57.175 22.5562C57.1989 22.4524 57.1626 22.3425 57.0803 22.2693C57.0505 22.2427 57.0478 22.1967 57.0743 22.1667C57.1011 22.1369 57.1471 22.1342 57.1769 22.1608C57.2989 22.2693 57.3524 22.4332 57.3166 22.5887C57.2631 22.8218 57.0317 22.9692 56.7897 22.924Z" fill="white"/>
<path d="M56.8709 22.4875C56.8315 22.4802 56.8054 22.4422 56.8128 22.4027L56.8995 21.9371C56.9068 21.8977 56.945 21.8717 56.9843 21.879C57.0237 21.8863 57.0497 21.9243 57.0424 21.9637L56.9557 22.4294C56.9482 22.4688 56.9102 22.4949 56.8709 22.4875Z" fill="white"/>
<path d="M52.3621 59.4697C52.3392 59.5923 52.2213 59.6733 52.0987 59.6504C51.976 59.6276 51.8951 59.5097 51.9179 59.3871C51.9407 59.2644 52.0586 59.1835 52.1813 59.2063C52.304 59.2291 52.3849 59.3472 52.3621 59.4697Z" fill="#E11B2E"/>
<path d="M56.4849 39.6465L57.0564 39.4448L57.5169 39.8389L56.4849 39.6465Z" fill="#110F0E"/>
<path d="M53.4761 42.6133L53.2744 42.0419L53.6685 41.5814L53.4761 42.6133Z" fill="#110F0E"/>
<path d="M59.4448 42.7492L59.6465 43.3208L59.2524 43.7812L59.4448 42.7492Z" fill="#110F0E"/>
<path d="M56.4251 45.7L55.8536 45.9019L55.3931 45.5078L56.4251 45.7Z" fill="#110F0E"/>
<path d="M34.4307 84.9375H36.2002V81.8438H37.5654C37.5771 81.8438 37.5908 81.8438 37.6064 81.8438C37.6221 81.8438 37.6357 81.8438 37.6475 81.8438L39.2236 84.9375H41.2275L39.4463 81.5801C39.9307 81.3887 40.3057 81.0781 40.5713 80.6484C40.8408 80.2148 40.9756 79.7266 40.9756 79.1836V79.1719C40.9756 78.6172 40.8564 78.1387 40.6182 77.7363C40.3838 77.334 40.04 77.0254 39.5869 76.8105C39.1377 76.5918 38.5928 76.4824 37.9521 76.4824H34.4307V84.9375ZM36.2002 80.5547V77.8652H37.7354C38.1807 77.8652 38.5303 77.9863 38.7842 78.2285C39.0381 78.4707 39.165 78.7969 39.165 79.207V79.2188C39.165 79.6367 39.04 79.9648 38.79 80.2031C38.5439 80.4375 38.2002 80.5547 37.7588 80.5547H36.2002ZM45.2178 85.0723C45.6904 85.0723 46.0986 85.0137 46.4424 84.8965C46.79 84.7754 47.0791 84.6191 47.3096 84.4277C47.5439 84.2363 47.7275 84.0312 47.8604 83.8125C47.9932 83.5898 48.085 83.377 48.1357 83.1738L48.1475 83.1152H46.5537L46.5361 83.1504C46.4971 83.2324 46.4229 83.3242 46.3135 83.4258C46.208 83.5234 46.0674 83.6094 45.8916 83.6836C45.7158 83.7578 45.5029 83.7949 45.2529 83.7949C44.9443 83.7949 44.6787 83.7266 44.4561 83.5898C44.2334 83.4531 44.0615 83.2559 43.9404 82.998C43.8193 82.7402 43.7588 82.4297 43.7588 82.0664V81.375C43.7588 81 43.8193 80.6836 43.9404 80.4258C44.0654 80.1641 44.2334 79.9668 44.4443 79.834C44.6592 79.6973 44.9033 79.6289 45.1768 79.6289C45.4541 79.6289 45.6963 79.6953 45.9033 79.8281C46.1143 79.957 46.2783 80.1504 46.3955 80.4082C46.5166 80.666 46.5771 80.9883 46.5771 81.375V82.0605L47.3799 81.0469H42.9209V82.1191H48.2002V81.5859C48.2002 80.9336 48.0771 80.3652 47.8311 79.8809C47.585 79.3965 47.2334 79.0195 46.7764 78.75C46.3193 78.4805 45.7764 78.3457 45.1475 78.3457C44.5225 78.3457 43.9775 78.4844 43.5127 78.7617C43.0518 79.0391 42.6943 79.4297 42.4404 79.9336C42.1904 80.4375 42.0654 81.0312 42.0654 81.7148V81.7207C42.0654 82.4121 42.1924 83.0078 42.4463 83.5078C42.7002 84.0078 43.0615 84.3945 43.5303 84.668C44.0029 84.9375 44.5654 85.0723 45.2178 85.0723ZM49.6006 84.9375H51.3115V81.0469C51.3115 80.8008 51.3604 80.582 51.458 80.3906C51.5557 80.1953 51.6885 80.043 51.8564 79.9336C52.0283 79.8203 52.2256 79.7637 52.4482 79.7637C52.7803 79.7637 53.04 79.8613 53.2275 80.0566C53.415 80.248 53.5088 80.5156 53.5088 80.8594V84.9375H55.2197V80.9707C55.2197 80.7363 55.2666 80.5293 55.3604 80.3496C55.4541 80.1699 55.585 80.0273 55.7529 79.9219C55.9248 79.8164 56.126 79.7637 56.3564 79.7637C56.7158 79.7637 56.9834 79.8613 57.1592 80.0566C57.335 80.252 57.4229 80.5449 57.4229 80.9355V84.9375H59.1338V80.5078C59.1338 80.0625 59.0479 79.6797 58.876 79.3594C58.708 79.0352 58.4678 78.7852 58.1553 78.6094C57.8467 78.4336 57.4775 78.3457 57.0479 78.3457C56.7471 78.3457 56.4678 78.3965 56.21 78.498C55.9521 78.5957 55.7275 78.7344 55.5361 78.9141C55.3447 79.0898 55.2002 79.2969 55.1025 79.5352H54.9971C54.9072 79.2852 54.7783 79.0723 54.6104 78.8965C54.4424 78.7207 54.2393 78.5859 54.001 78.4922C53.7627 78.3945 53.4971 78.3457 53.2041 78.3457C52.7822 78.3457 52.4131 78.4473 52.0967 78.6504C51.7803 78.8496 51.5537 79.1309 51.417 79.4941H51.3115V78.4863H49.6006V84.9375ZM63.6572 85.0723C64.3213 85.0723 64.8896 84.9395 65.3623 84.6738C65.8389 84.4043 66.2041 84.0195 66.458 83.5195C66.7119 83.0156 66.8389 82.4141 66.8389 81.7148V81.7031C66.8389 81.0078 66.71 80.4102 66.4521 79.9102C66.1943 79.4062 65.8271 79.0195 65.3506 78.75C64.8779 78.4805 64.3135 78.3457 63.6572 78.3457C63.001 78.3457 62.4346 78.4824 61.958 78.7559C61.4854 79.0254 61.1201 79.4102 60.8623 79.9102C60.6045 80.4102 60.4756 81.0078 60.4756 81.7031V81.7148C60.4756 82.4141 60.6025 83.0156 60.8564 83.5195C61.1104 84.0195 61.4756 84.4043 61.9521 84.6738C62.4287 84.9395 62.9971 85.0723 63.6572 85.0723ZM63.6572 83.7305C63.3525 83.7305 63.0928 83.6523 62.8779 83.4961C62.667 83.3359 62.5049 83.1055 62.3916 82.8047C62.2822 82.5039 62.2275 82.1406 62.2275 81.7148V81.7031C62.2275 81.2812 62.2842 80.9219 62.3975 80.625C62.5107 80.3242 62.6729 80.0938 62.8838 79.9336C63.0986 79.7695 63.3564 79.6875 63.6572 79.6875C63.958 79.6875 64.2139 79.7695 64.4248 79.9336C64.6396 80.0938 64.8037 80.3242 64.917 80.625C65.0303 80.9219 65.0869 81.2812 65.0869 81.7031V81.7148C65.0869 82.1367 65.0303 82.498 64.917 82.7988C64.8037 83.0996 64.6416 83.3301 64.4307 83.4902C64.2197 83.6504 63.9619 83.7305 63.6572 83.7305ZM70.9111 84.9609C71.0791 84.9609 71.2373 84.9531 71.3857 84.9375C71.5342 84.9219 71.6611 84.9043 71.7666 84.8848V83.6133C71.6846 83.6211 71.6064 83.6289 71.5322 83.6367C71.4619 83.6406 71.3721 83.6426 71.2627 83.6426C70.9736 83.6426 70.7627 83.5762 70.6299 83.4434C70.501 83.3066 70.4365 83.0938 70.4365 82.8047V79.7754H71.7666V78.4863H70.4365V76.9453H68.708V78.4863H67.7119V79.7754H68.708V83.1973C68.708 83.8223 68.8799 84.2734 69.2236 84.5508C69.5674 84.8242 70.1299 84.9609 70.9111 84.9609ZM75.9795 85.0723C76.4521 85.0723 76.8604 85.0137 77.2041 84.8965C77.5518 84.7754 77.8408 84.6191 78.0713 84.4277C78.3057 84.2363 78.4893 84.0312 78.6221 83.8125C78.7549 83.5898 78.8467 83.377 78.8975 83.1738L78.9092 83.1152H77.3154L77.2979 83.1504C77.2588 83.2324 77.1846 83.3242 77.0752 83.4258C76.9697 83.5234 76.8291 83.6094 76.6533 83.6836C76.4775 83.7578 76.2646 83.7949 76.0146 83.7949C75.7061 83.7949 75.4404 83.7266 75.2178 83.5898C74.9951 83.4531 74.8232 83.2559 74.7021 82.998C74.5811 82.7402 74.5205 82.4297 74.5205 82.0664V81.375C74.5205 81 74.5811 80.6836 74.7021 80.4258C74.8271 80.1641 74.9951 79.9668 75.2061 79.834C75.4209 79.6973 75.665 79.6289 75.9385 79.6289C76.2158 79.6289 76.458 79.6953 76.665 79.8281C76.876 79.957 77.04 80.1504 77.1572 80.4082C77.2783 80.666 77.3389 80.9883 77.3389 81.375V82.0605L78.1416 81.0469H73.6826V82.1191H78.9619V81.5859C78.9619 80.9336 78.8389 80.3652 78.5928 79.8809C78.3467 79.3965 77.9951 79.0195 77.5381 78.75C77.0811 78.4805 76.5381 78.3457 75.9092 78.3457C75.2842 78.3457 74.7393 78.4844 74.2744 78.7617C73.8135 79.0391 73.4561 79.4297 73.2021 79.9336C72.9521 80.4375 72.8271 81.0312 72.8271 81.7148V81.7207C72.8271 82.4121 72.9541 83.0078 73.208 83.5078C73.4619 84.0078 73.8232 84.3945 74.292 84.668C74.7646 84.9375 75.3271 85.0723 75.9795 85.0723Z" fill="black"/>
</svg>
