<svg width="107" height="94" viewBox="0 0 107 94" fill="none" xmlns="http://www.w3.org/2000/svg">
<rect x="1.5" y="1.5" width="103.343" height="91" rx="14.5" fill="white" stroke="#ADC6F7" stroke-width="3"/>
<path d="M37.2938 51.4826C37.0519 52.8868 36.8959 54.327 37.0822 55.7413C37.1189 56.0193 37.1786 56.3134 37.3697 56.5034C37.5609 56.6914 37.9234 56.6914 38.0353 56.4394C37.8793 56.6474 37.9551 57.0055 38.1791 57.1195C38.4032 57.2335 38.7064 57.0675 38.7543 56.8034C38.5862 57.0835 38.9458 57.4455 39.2457 57.3735C39.5458 57.3015 39.7403 56.9975 39.9044 56.7154C42.1117 52.9328 44.3639 49.0302 45.1041 44.6296C45.3153 43.3734 45.3765 41.9932 44.9629 40.775C44.6076 39.7288 43.7183 38.3386 42.7945 39.4048C40.9427 41.5391 39.4879 43.9775 38.5195 46.7179C37.9747 48.2601 37.5729 49.8604 37.2938 51.4826Z" fill="#917163"/>
<path d="M62.9091 37.8804C64.1591 36.9183 65.0826 35.492 65.5603 33.9138C65.6888 33.4897 65.8099 33.0196 66.151 32.7676C66.4923 32.5176 67.107 32.7356 67.0593 33.1777C67.1538 32.8556 67.3808 32.5356 67.6923 32.5176C68.0038 32.4996 68.2734 32.9697 68.0401 33.1937C68.3196 32.9056 68.8212 33.0797 69.0296 33.4317C69.2377 33.7818 69.2314 34.2298 69.2 34.6479C68.9624 37.7704 67.6849 40.7168 65.9883 43.2552C65.0121 44.7174 63.872 46.0856 62.451 47.0278C61.0302 47.9699 59.2975 48.454 57.6689 48.072C56.9216 47.8959 56.1806 47.5159 55.7366 46.8418C55.1189 45.9056 55.2037 44.6354 55.4121 43.5073C55.5735 42.6311 55.8024 41.749 56.2847 41.0249C56.9383 40.0447 58.0795 39.1306 59.2136 39.1266C60.553 39.1246 61.8069 38.7285 62.9091 37.8804Z" fill="#917163"/>
<path d="M59.6904 39.8488L58.5392 38.8527C58.8126 38.6907 58.5334 38.2486 58.258 38.0906C56.6959 37.1925 54.9085 36.7664 53.1422 36.8464C52.4585 36.5923 51.7498 36.4183 51.031 36.3303C48.693 36.0483 46.2684 36.7004 44.3244 38.1346C44.0666 38.3246 43.8337 38.7947 44.1221 38.9247L43.0788 40.0509C39.2757 51.4846 41.6854 63.6745 44.8951 68.2172C45.5403 69.1313 45.8487 70.3535 46.7518 70.9576C47.5525 71.4957 48.5402 71.5557 49.4812 71.6017C49.669 71.6117 49.8704 71.6177 50.0295 71.5077C50.2984 71.3237 50.3213 70.8996 50.2129 70.5755C50.1046 70.2515 49.9005 69.9735 49.8057 69.6454C49.6563 69.1273 49.7959 68.5712 49.9255 68.0491C50.1031 67.333 50.2614 66.6009 50.3823 65.8648C51.4485 65.8588 52.5261 65.6928 53.5665 65.4488C53.9638 65.3547 54.3596 65.2507 54.7521 65.1327C54.9821 66.2769 55.3302 67.405 55.7216 68.4912C55.9033 68.9953 56.0984 69.5314 56.0022 70.0614C55.9412 70.3995 55.7665 70.7016 55.6918 71.0356C55.617 71.3697 55.6828 71.7897 55.9686 71.9417C56.1378 72.0297 56.3372 71.9998 56.523 71.9697C57.4537 71.8117 58.4291 71.6337 59.1707 71.0056C60.0071 70.2975 60.3926 69.1473 60.7387 68.0611C61.9158 64.3626 63.9663 47.688 59.6904 39.8488Z" fill="#917163"/>
<path d="M39.6044 27.245C38.9708 26.5929 38.7079 25.4828 39.1415 24.6607C39.313 24.3366 39.5754 24.0786 39.8536 23.8545C40.4334 23.3905 41.1162 23.0504 41.8355 22.9924C42.5553 22.9324 43.3116 23.1764 43.8189 23.7305C44.3262 24.2866 44.5396 25.1668 44.263 25.8889C44.0639 26.4069 43.6525 26.791 43.2554 27.153C42.5985 27.7511 42.3264 28.1512 41.4739 28.0852C40.7954 28.0332 40.1023 27.7531 39.6044 27.245Z" fill="#917163"/>
<path d="M42.6628 27.231C42.2642 27.211 41.8562 27.141 41.5141 26.9189C41.1721 26.6969 40.9072 26.2948 40.9188 25.8647C40.9388 25.1326 41.7034 24.6786 42.3796 24.6545C42.8408 24.6405 43.3343 24.7706 43.6415 25.1446C43.949 25.5167 43.9837 26.1668 43.6293 26.4868C43.2472 26.8309 42.6262 26.6729 42.2353 27.0049L42.6628 27.231Z" fill="#BC9182"/>
<path d="M62.5206 26.807C63.2697 26.3209 63.7501 25.2988 63.4922 24.3946C63.3899 24.0366 63.186 23.7225 62.9593 23.4405C62.487 22.8504 61.8887 22.3583 61.1984 22.1303C60.508 21.9042 59.721 21.9622 59.114 22.3863C58.5071 22.8084 58.1214 23.6165 58.2464 24.3866C58.3363 24.9407 58.6609 25.4108 58.9756 25.8568C59.4962 26.5949 59.6814 27.051 60.5265 27.187C61.1991 27.297 61.932 27.187 62.5206 26.807Z" fill="#917163"/>
<path d="M59.538 26.0747C59.931 26.1467 60.3435 26.1748 60.7221 26.0387C61.1007 25.9027 61.4396 25.5747 61.5151 25.1506C61.6428 24.4325 60.9881 23.8064 60.3327 23.6263C59.8857 23.5023 59.3775 23.5143 59.0025 23.8064C58.6278 24.0984 58.4629 24.7245 58.7446 25.1186C59.0482 25.5447 59.6862 25.5366 60.0007 25.9527L59.538 26.0747Z" fill="#BC9182"/>
<path d="M42.4142 42.1073C42.5349 43.8456 43.4224 45.4699 44.6034 46.7761C45.7842 48.0823 47.2501 49.1084 48.7254 50.0885C50.3712 51.1827 52.1914 52.4349 52.567 54.3452C52.7791 53.215 53.541 52.2669 54.3068 51.3948C56.0359 49.4265 57.9418 47.5462 59.1029 45.2138C60.2639 42.8815 60.5412 39.921 59.009 37.8027C57.4981 35.7144 54.6841 34.9783 52.0758 34.7502C50.5221 34.6162 48.9282 34.6102 47.4353 35.0523C44.5185 35.9164 42.2055 39.0969 42.4142 42.1073Z" fill="#BC9182"/>
<path d="M43.9859 24.2064C42.0578 25.7366 41.128 28.431 41.1343 31.0194C41.1408 33.6138 42.0042 36.1882 43.5046 38.2105C45.0049 40.2348 47.1275 41.6991 49.4455 42.3612C51.2211 42.8672 53.1344 42.9072 54.878 42.2831C58.471 40.997 60.8247 37.0563 61.4823 33.0237C61.7759 31.2235 61.7845 29.3392 61.2728 27.5969C60.7612 25.8546 59.6917 24.2644 58.1968 23.4143C56.8793 22.6621 55.3469 22.5241 53.8623 22.4021C50.8199 22.1501 46.5607 22.1621 43.9859 24.2064Z" fill="#917163"/>
<path d="M49.854 29.3914C49.277 30.4075 48.7839 31.4797 48.3825 32.5919C47.8281 34.1261 47.4888 35.9963 48.3971 37.3185C49.2034 38.4927 50.7194 38.7948 52.0674 38.6888C52.7104 38.6387 53.3831 38.5007 53.8734 38.0487C54.4652 37.5006 54.6708 36.6064 54.7119 35.7663C54.8206 33.538 53.9997 31.3476 52.795 29.5374C51.8599 28.1331 50.7743 27.7691 49.854 29.3914Z" fill="#BC9182"/>
<path d="M50.0349 32.9895C49.66 33.0896 49.2484 33.3456 49.2242 33.7617C49.2048 34.0957 49.4524 34.3817 49.7197 34.5518C49.9872 34.7218 50.293 34.8238 50.533 35.0358C50.6818 35.1679 50.7999 35.3379 50.9549 35.4599C51.11 35.5839 51.3254 35.6539 51.4942 35.5539C51.5774 35.5039 51.6376 35.4199 51.7077 35.3519C52.1264 34.9398 52.875 35.0458 53.205 34.5478C53.4082 34.2417 53.357 33.7916 53.1429 33.4956C52.9288 33.1976 52.584 33.0375 52.2389 32.9855C51.8835 32.9315 51.5317 33.0115 51.1826 32.9475C50.7938 32.8775 50.423 32.8855 50.0349 32.9895Z" fill="#493832"/>
<path d="M44.9368 29.4834C44.892 28.9573 45.0268 28.3932 45.3821 28.0312C45.7376 27.6691 46.333 27.5711 46.723 27.8892C46.9669 28.0872 47.0996 28.4052 47.2043 28.7153C47.335 29.1013 47.4389 29.5054 47.4411 29.9174C47.4446 30.5595 46.9826 31.7257 46.2291 31.3037C45.5526 30.9276 45.009 30.3315 44.9368 29.4834Z" fill="#7C5F56"/>
<path d="M56.2335 28.4948C56.4032 27.9987 56.7504 27.5527 57.2155 27.3927C57.6805 27.2346 58.2564 27.4247 58.4814 27.8927C58.6219 28.1848 58.6147 28.5348 58.5851 28.8629C58.5483 29.2729 58.4805 29.685 58.3178 30.057C58.0643 30.6371 57.1815 31.4733 56.6701 30.7412C56.2113 30.0851 55.9593 29.2929 56.2335 28.4948Z" fill="#7C5F56"/>
<path d="M45.6586 30.3518C45.7405 30.7318 46.0098 31.0499 46.3382 31.2119C46.4803 31.2819 46.6417 31.3259 46.7932 31.2839C46.9656 31.2359 47.0978 31.0819 47.1834 30.9118C47.3522 30.5778 47.3681 30.1557 47.209 29.8157C47.0448 29.4656 46.5613 29.1055 46.1801 29.1976C45.7491 29.3036 45.5713 29.9457 45.6586 30.3518Z" fill="#493832"/>
<path d="M46.3449 29.5334C46.1959 29.5894 46.0729 29.7215 46.0199 29.8815C45.9666 30.0435 45.9842 30.2295 46.0663 30.3756C46.0984 30.4316 46.1419 30.4856 46.1992 30.5096C46.2567 30.5336 46.3297 30.5236 46.3687 30.4716C46.4399 30.3776 46.3647 30.2256 46.4199 30.1195C46.4492 30.0635 46.5078 30.0355 46.5508 29.9915C46.6255 29.9135 46.6477 29.7835 46.6032 29.6835C46.5588 29.5834 46.451 29.5194 46.349 29.5354L46.3449 29.5334Z" fill="white"/>
<path d="M56.3457 29.4371C56.2512 29.8152 56.3494 30.2332 56.5674 30.5433C56.6619 30.6793 56.7848 30.8013 56.9366 30.8413C57.1098 30.8873 57.2936 30.8193 57.443 30.7133C57.7379 30.5053 57.9372 30.1412 57.9455 29.7612C57.9542 29.3691 57.6865 28.803 57.3101 28.689C56.8845 28.561 56.4467 29.035 56.3457 29.4371Z" fill="#493832"/>
<path d="M57.3085 29.069C57.1526 29.043 56.9866 29.095 56.8694 29.209C56.7522 29.325 56.686 29.497 56.6943 29.6671C56.6976 29.7351 56.7128 29.8031 56.7527 29.8551C56.7927 29.9051 56.8614 29.9331 56.9186 29.9071C57.0221 29.8611 57.0228 29.6891 57.1177 29.6251C57.168 29.5891 57.2321 29.5951 57.2894 29.577C57.3887 29.549 57.4652 29.445 57.4702 29.335C57.475 29.223 57.4078 29.113 57.3112 29.073L57.3085 29.069Z" fill="white"/>
<path d="M51.1687 34.9623C51.1571 35.5584 51.1833 36.1525 51.2476 36.7426C51.2574 36.8326 51.312 36.9106 51.4029 36.9106C51.4795 36.9106 51.5682 36.8346 51.5584 36.7426C51.4943 36.1525 51.4678 35.5584 51.4795 34.9623C51.4835 34.7463 51.1728 34.7463 51.1687 34.9623Z" fill="#493832"/>
<path d="M49.9054 36.5406C51.0259 37.2367 52.4299 37.0667 53.3842 36.1285C53.5323 35.9825 53.3121 35.7445 53.1644 35.8905C52.3134 36.7287 51.0587 36.8687 50.0622 36.2506C49.8886 36.1426 49.7318 36.4326 49.9054 36.5406Z" fill="#493832"/>
<path d="M39.4874 56.7373C40.9237 53.6988 41.1934 50.1663 42.402 47.0138C41.7701 49.8222 41.6549 52.7307 41.5569 55.6191C41.512 56.9433 41.4721 58.2875 41.7658 59.5737C41.3343 58.0195 41.1249 56.3912 41.1472 54.769C40.8579 55.5631 40.3778 56.2572 39.901 56.9373C39.761 57.1373 39.612 57.3454 39.4007 57.4474C39.2202 57.5354 38.9682 57.5254 38.8433 57.3494C39.1075 57.1533 39.3236 57.0833 39.4874 56.7373Z" fill="#7C5F56"/>
<path d="M60.2104 45.8416C61.9513 45.6556 63.5679 44.7214 64.9003 43.4953C66.5209 42.003 67.7818 40.0587 68.5263 37.9004C67.506 41.669 65.2791 45.0395 62.3155 47.3019C62.2371 47.3619 62.155 47.4258 62.1151 47.5199C62.0803 47.6019 62.0827 47.6959 62.0859 47.7859C62.163 50.0603 62.5198 55.5051 62.106 57.9395C62.1203 56.3692 62.1563 54.871 61.9796 53.3128C61.7938 51.6705 61.5501 50.0282 61.1212 48.438C60.8814 47.5479 60.5835 46.6758 60.2104 45.8416Z" fill="#7C5F56"/>
<path d="M66.6664 34.4579C66.4415 34.7219 66.36 35.1019 66.399 35.458C66.4144 35.6 66.4489 35.742 66.5257 35.8581C66.7015 36.1221 67.0683 36.1721 67.341 36.0361C67.6135 35.8981 67.8011 35.614 67.9213 35.316C68.0125 35.09 68.0722 34.8339 68.0106 34.5959C67.8503 33.9778 66.9906 34.0778 66.6664 34.4579Z" fill="#BC9182"/>
<path d="M66.2474 33.4298C66.2289 33.5298 66.2284 33.6338 66.2461 33.7358C66.2572 33.7978 66.2779 33.8638 66.3247 33.9038C66.3737 33.9458 66.4449 33.9518 66.5029 33.9258C66.561 33.8998 66.6066 33.8478 66.6371 33.7898C66.7175 33.6338 66.6909 33.4237 66.577 33.2957C66.433 33.1337 66.2853 33.2257 66.2474 33.4298Z" fill="#BC9182"/>
<path d="M67.3362 33.486C67.3357 33.5601 67.3443 33.6421 67.3915 33.6961C67.4349 33.7461 67.5048 33.7621 67.5668 33.7481C67.6287 33.7341 67.6827 33.6921 67.7239 33.6401C67.8472 33.4841 67.8755 33.156 67.6934 33.032C67.4595 32.87 67.3373 33.312 67.3362 33.486Z" fill="#BC9182"/>
<path d="M68.3211 33.616C68.2568 33.72 68.1989 33.8381 68.2028 33.9641C68.2067 34.0901 68.2942 34.2201 68.4104 34.2221C68.4912 34.2241 68.5626 34.1661 68.6169 34.1001C68.6815 34.0241 68.7329 33.9301 68.7525 33.8301C68.8198 33.48 68.5088 33.31 68.3211 33.616Z" fill="#BC9182"/>
<path d="M49.4851 64.5707C51.7691 64.7927 54.0975 64.4727 56.2569 63.6366C55.4796 65.2648 55.683 67.2131 55.906 69.0274C55.6011 67.8132 55.2023 66.625 54.7151 65.4828C53.5277 65.8849 52.2514 65.8109 51.0222 66.0209C50.9292 66.0349 50.8331 66.0549 50.7565 66.1129C50.6654 66.1849 50.616 66.301 50.5718 66.411C50.168 67.4271 49.9835 68.4753 49.6977 69.5234C49.687 68.9534 49.7894 68.3753 49.8162 67.8072C49.8674 66.717 49.7572 65.6208 49.4851 64.5707Z" fill="#7C5F56"/>
<path d="M43.1375 41.0289C43.0626 41.573 43.1686 42.1311 43.457 42.5872C43.5045 42.6612 43.5934 42.6952 43.6696 42.6472C43.738 42.6032 43.7729 42.4911 43.7254 42.4171C43.4871 42.0411 43.3745 41.573 43.4372 41.1189C43.4496 41.0289 43.4163 40.9389 43.3287 40.9129C43.2553 40.8909 43.1499 40.9389 43.1375 41.0289Z" fill="#C99A8D"/>
<path d="M44.0888 41.0671C44.1859 41.3952 44.3423 41.6972 44.5491 41.9593C44.602 42.0273 44.7154 42.0233 44.769 41.9593C44.8296 41.8873 44.8254 41.7933 44.769 41.7213L44.7355 41.6792L44.7192 41.6572H44.7196C44.6983 41.6272 44.6778 41.5972 44.6582 41.5672C44.6174 41.5032 44.5796 41.4372 44.5449 41.3692C44.5111 41.3032 44.4819 41.2352 44.4526 41.1672C44.4428 41.1452 44.4619 41.1912 44.453 41.1691L44.4432 41.1432L44.4243 41.0891C44.4116 41.0531 44.3998 41.0151 44.3885 40.9771C44.3639 40.8931 44.2794 40.8311 44.1973 40.8591C44.1199 40.8871 44.0624 40.9771 44.0888 41.0671Z" fill="#C99A8D"/>
<path d="M44.4667 43.1973C44.6897 43.5273 44.9124 43.8554 45.1354 44.1835C45.1833 44.2535 45.2724 44.2975 45.348 44.2435C45.4127 44.1995 45.4553 44.0894 45.4037 44.0134C45.1809 43.6854 44.9579 43.3573 44.7352 43.0293C44.6871 42.9572 44.5982 42.9152 44.5225 42.9673C44.4578 43.0133 44.4153 43.1233 44.4667 43.1973Z" fill="#C99A8D"/>
<path d="M44.5328 44.7838C44.9097 45.3139 45.3461 45.7839 45.8395 46.188C45.9064 46.244 46.0133 46.2 46.0521 46.128C46.0987 46.0419 46.0636 45.9519 45.9965 45.8979C45.5487 45.5319 45.1431 45.0958 44.801 44.6137C44.7502 44.5417 44.6674 44.5037 44.5886 44.5537C44.5232 44.5937 44.4814 44.7098 44.5328 44.7838Z" fill="#C99A8D"/>
<path d="M47.3531 47.3997L47.3734 47.4017C47.3488 47.3997 47.3453 47.3977 47.3623 47.4017L47.4026 47.4097C47.4293 47.4137 47.4559 47.4217 47.4821 47.4277C47.5084 47.4357 47.5345 47.4457 47.5602 47.4537L47.5984 47.4697L47.6175 47.4777C47.5975 47.4697 47.5931 47.4677 47.6038 47.4717C47.6518 47.4957 47.6988 47.5217 47.7439 47.5517C47.767 47.5677 47.7896 47.5837 47.8118 47.5997L47.8282 47.6137C47.8103 47.5977 47.8079 47.5957 47.821 47.6077L47.8524 47.6357C47.9144 47.6917 48.0124 47.7057 48.0721 47.6357C48.1253 47.5737 48.1383 47.4577 48.0721 47.3977C47.8661 47.2076 47.6215 47.0956 47.3531 47.0636C47.3161 47.0596 47.2684 47.0856 47.2431 47.1136C47.2163 47.1416 47.1959 47.1897 47.1976 47.2317C47.2019 47.3317 47.2662 47.3897 47.3531 47.3997Z" fill="#C99A8D"/>
<path d="M46.8647 44.8016C47.0348 44.9116 47.2051 45.0196 47.3752 45.1296C47.445 45.1736 47.5488 45.1496 47.5878 45.0696C47.6273 44.9876 47.6066 44.8875 47.5319 44.8395C47.3618 44.7295 47.1918 44.6195 47.0215 44.5115C46.9516 44.4655 46.8481 44.4915 46.8091 44.5715C46.7695 44.6515 46.79 44.7536 46.8647 44.8016Z" fill="#C99A8D"/>
<path d="M46.7154 42.8114C46.8315 42.8694 46.9386 42.9414 47.0416 43.0214L47.0342 43.0154L47.054 43.0334L47.0889 43.0654C47.1135 43.0874 47.1372 43.1094 47.1605 43.1334C47.2069 43.1814 47.2505 43.2334 47.2919 43.2874C47.3442 43.3534 47.4583 43.3494 47.5115 43.2874C47.5725 43.2154 47.5674 43.1214 47.5115 43.0494C47.3389 42.8254 47.117 42.6434 46.8724 42.5213C46.8334 42.5033 46.7957 42.4913 46.7526 42.5053C46.7166 42.5153 46.6775 42.5453 46.6598 42.5813C46.6237 42.6554 46.6365 42.7734 46.7154 42.8114Z" fill="#C99A8D"/>
<path d="M49.1176 43.5114C49.2967 43.7594 49.5206 43.9714 49.77 44.1334C49.8397 44.1775 49.9438 44.1514 49.9826 44.0734C50.0224 43.9914 50.0013 43.8914 49.927 43.8434C49.868 43.8054 49.8107 43.7634 49.7552 43.7194L49.7171 43.6894C49.7511 43.7114 49.7225 43.6934 49.7153 43.6874L49.6988 43.6734C49.6715 43.6494 49.6447 43.6233 49.6182 43.5993C49.5156 43.4993 49.4217 43.3913 49.3372 43.2733C49.3145 43.2433 49.2623 43.2253 49.2274 43.2253C49.1893 43.2253 49.1436 43.2433 49.1176 43.2733C49.0904 43.3073 49.07 43.3473 49.0719 43.3933C49.0739 43.4413 49.0908 43.4754 49.1176 43.5114Z" fill="#C99A8D"/>
<path d="M49.2526 45.674C49.3593 45.832 49.4558 45.9961 49.5404 46.1681C49.582 46.2521 49.6209 46.3401 49.6567 46.4261C49.676 46.4741 49.6819 46.4881 49.7007 46.5401C49.7176 46.5861 49.7333 46.6321 49.7486 46.6802C49.7758 46.7622 49.8559 46.8262 49.9398 46.7962C50.0152 46.7702 50.0773 46.6782 50.0483 46.5901C49.9213 46.2021 49.746 45.836 49.521 45.506C49.473 45.434 49.384 45.392 49.3084 45.444C49.2437 45.49 49.2012 45.6 49.2526 45.674Z" fill="#C99A8D"/>
<path d="M49.1505 48.7182C49.1886 48.7462 49.2265 48.7762 49.2638 48.8062L49.2932 48.8302L49.2967 48.8322C49.3143 48.8482 49.3317 48.8622 49.3489 48.8782C49.4217 48.9402 49.4927 49.0062 49.5617 49.0742C49.6981 49.2083 49.8266 49.3503 49.9471 49.5003C50.0004 49.5683 50.1128 49.5643 50.1668 49.5003C50.2272 49.4303 50.2239 49.3343 50.1668 49.2623C49.9137 48.9462 49.6238 48.6682 49.3073 48.4281C49.2407 48.3761 49.1318 48.4121 49.0948 48.4881C49.0527 48.5742 49.0793 48.6642 49.1505 48.7182Z" fill="#C99A8D"/>
<path d="M51.8931 50.9085C52.0251 51.2405 52.1571 51.5726 52.289 51.9047C52.3213 51.9867 52.437 52.0107 52.5016 51.9647C52.5796 51.9107 52.5918 51.8227 52.5574 51.7346C52.4254 51.4026 52.2934 51.0705 52.1614 50.7385C52.1292 50.6585 52.0135 50.6325 51.949 50.6785C51.8711 50.7325 51.8587 50.8225 51.8931 50.9085Z" fill="#C99A8D"/>
<path d="M52.1803 48.6722C52.2169 48.0661 52.2262 47.46 52.2079 46.8539C52.2014 46.6399 51.8906 46.6379 51.8971 46.8539C51.9154 47.46 51.9062 48.0661 51.8695 48.6722C51.8564 48.8883 52.1672 48.8863 52.1803 48.6722Z" fill="#C99A8D"/>
<path d="M53.5066 49.3222C53.5426 49.1602 53.5899 49.0021 53.6484 48.8481C53.6554 48.8281 53.6561 48.8261 53.6506 48.8421L53.663 48.8101L53.682 48.7661C53.6992 48.7241 53.7171 48.6841 53.736 48.6461C53.7711 48.5721 53.8094 48.4981 53.8497 48.4281C53.8922 48.352 53.8671 48.24 53.7939 48.198C53.7181 48.154 53.6269 48.178 53.5814 48.258C53.4104 48.5581 53.2832 48.8901 53.207 49.2342C53.188 49.3182 53.2318 49.4202 53.3156 49.4402C53.3953 49.4602 53.4862 49.4142 53.5066 49.3222Z" fill="#C99A8D"/>
<path d="M55.2397 48.8943C55.7056 48.2642 56.2216 47.6801 56.7819 47.148C56.9326 47.004 56.712 46.7679 56.5623 46.9099C56.0017 47.442 55.4857 48.0261 55.02 48.6562C54.9677 48.7262 54.9561 48.8243 55.02 48.8943C55.0744 48.9523 55.187 48.9643 55.2397 48.8943Z" fill="#C99A8D"/>
<path d="M55.0342 46.5137C55.1555 46.1856 55.2767 45.8555 55.398 45.5275C55.4282 45.4435 55.3651 45.3375 55.2895 45.3194C55.1998 45.2974 55.1307 45.3495 55.0983 45.4375C54.9771 45.7655 54.8558 46.0956 54.7345 46.4256C54.7044 46.5076 54.7674 46.6137 54.843 46.6317C54.9327 46.6537 55.0018 46.6017 55.0342 46.5137Z" fill="#C99A8D"/>
<path d="M52.8037 44.5975C52.7912 44.4614 52.7877 44.3254 52.7941 44.1894C52.7971 44.1234 52.8032 44.0574 52.8104 43.9914C52.8065 44.0254 52.8124 43.9754 52.8128 43.9714L52.8198 43.9254C52.8257 43.8874 52.8322 43.8513 52.8392 43.8153C52.8559 43.7293 52.8161 43.6293 52.7309 43.6073C52.6529 43.5893 52.5577 43.6333 52.5397 43.7253C52.4841 44.0114 52.4661 44.3054 52.493 44.5975C52.5009 44.6855 52.5586 44.7695 52.6483 44.7655C52.7255 44.7615 52.8122 44.6915 52.8037 44.5975Z" fill="#C99A8D"/>
<path d="M55.1649 44.4577C55.3333 44.1997 55.5016 43.9417 55.67 43.6836C55.7171 43.6116 55.6842 43.4936 55.6143 43.4536C55.5347 43.4076 55.452 43.4376 55.4017 43.5136C55.2333 43.7717 55.0651 44.0297 54.8965 44.2877C54.8495 44.3597 54.8824 44.4777 54.9523 44.5177C55.032 44.5638 55.1146 44.5338 55.1649 44.4577Z" fill="#C99A8D"/>
<path d="M57.4117 45.1794C57.6885 44.7614 57.9656 44.3433 58.2424 43.9253C58.2912 43.8513 58.2544 43.7372 58.1865 43.6952C58.1085 43.6452 58.0231 43.6812 57.9741 43.7552C57.6972 44.1733 57.4204 44.5914 57.1434 45.0094C57.0946 45.0834 57.1314 45.1954 57.1991 45.2394C57.2773 45.2875 57.3627 45.2535 57.4117 45.1794Z" fill="#C99A8D"/>
<path d="M57.5071 42.4772C57.6428 42.1831 57.7787 41.8891 57.9144 41.5951C57.9506 41.517 57.936 41.411 57.8585 41.365C57.7883 41.325 57.6848 41.343 57.6459 41.427C57.5104 41.7191 57.3745 42.0131 57.2388 42.3072C57.2026 42.3852 57.2172 42.4932 57.2947 42.5372C57.3649 42.5772 57.4683 42.5612 57.5071 42.4772Z" fill="#C99A8D"/>
<path d="M59.3097 42.2752C59.4146 41.597 59.5194 40.9169 59.6242 40.2388C59.6381 40.1488 59.6026 40.0568 59.5157 40.0328C59.4414 40.0088 59.3386 40.0588 59.3247 40.1488C59.2199 40.8269 59.1151 41.507 59.0102 42.1851C58.9964 42.2752 59.032 42.3672 59.1188 42.3912C59.1931 42.4132 59.2959 42.3652 59.3097 42.2752Z" fill="#C99A8D"/>
</svg>
