<svg width="112" height="99" viewBox="0 0 112 99" fill="none" xmlns="http://www.w3.org/2000/svg">
<rect x="1.5" y="1.5" width="109" height="96" rx="14.5" fill="white" stroke="#ADC6F7" stroke-width="3"/>
<path d="M53.8227 36.1296C54.565 33.8282 56.2261 31.9112 57.4313 29.79C58.6365 27.671 59.3605 25.0135 58.137 22.9032C57.5642 21.9132 56.6111 21.1467 56.0979 20.1263C55.8825 19.6964 55.8916 18.9995 56.3911 18.9409C56.5836 18.917 56.7691 19.0169 56.9318 19.1189C59.7431 20.8623 61.0949 24.4599 60.0822 27.4951C59.6812 28.7044 58.9572 29.79 58.3134 30.8994C57.5207 32.2716 56.8264 33.7305 56.6386 35.2829C56.4484 36.8374 56.8173 38.5092 57.9285 39.6664C58.4806 40.2396 59.1978 40.6781 59.6286 41.3381C61.3492 43.9761 56.469 43.9739 55.0989 42.7863C53.4378 41.349 53.227 37.9838 53.8227 36.1296Z" fill="#39B23C"/>
<path d="M62.4603 28.5092C65.3586 27.0047 68.5754 26.1514 71.7739 25.3676C71.6296 26.8092 70.8345 28.1228 69.9043 29.2713C68.1951 31.3729 65.9887 33.0555 63.5921 34.406C62.2564 35.1594 58.0589 37.8364 56.4826 37.3696C54.881 36.8963 56.1343 34.3257 56.6728 33.4312C57.9489 31.3035 60.2332 29.6664 62.4603 28.5092Z" fill="#39B23C"/>
<path d="M45.7461 21.9219C49.0935 21.2728 52.5669 21.2207 55.9327 21.77C56.5513 21.872 57.1745 21.9957 57.7312 22.2693C58.8241 22.8056 60.1622 24.6836 59.4863 25.9038C58.847 27.0566 56.5101 26.5855 55.3874 26.4444C51.7719 25.9884 48.3076 24.3927 45.7461 21.9219Z" fill="#39B23C"/>
<path d="M57.0048 40.5566C56.9361 40.5566 56.3266 40.5566 55.3414 40.5566C49.964 40.5566 33.4561 40.5566 33.4561 40.5566L36.0726 53.2295H39.4154L42.6139 68.9375H55.3414H57.0048H69.7323L72.9285 53.2295H76.2713L78.8878 40.5566C78.8878 40.5566 62.3799 40.5566 57.0048 40.5566Z" fill="#49BCDB"/>
<path d="M69.8766 40.5566L67.2601 53.2295H63.9172L60.7188 68.9375H69.7323L72.9284 53.2295H76.2713L78.8878 40.5566C78.8878 40.5566 74.711 40.5566 69.8766 40.5566Z" fill="#3890A5"/>
<path d="M67.2608 53.2294H44.5049L67.2608 58.8765V53.2294Z" fill="#3890A5"/>
<path d="M42.3485 50.6328C42.1996 50.6328 42.0484 50.6285 41.8995 50.6198C41.597 50.6024 41.2785 50.5612 41.0403 50.3853C40.7882 50.1986 40.6714 49.8968 40.5683 49.6102C40.0711 48.2359 39.6381 46.8399 39.2715 45.4286C39.0538 44.5906 38.8591 43.7178 39.0378 42.8711C39.1798 42.1958 40.2659 41.8724 41.3702 41.8724C42.3806 41.8724 43.4093 42.1459 43.7347 42.6713C43.9798 43.0686 44.0027 43.5485 44.0211 44.0066C44.0944 45.9562 44.17 47.9059 44.2434 49.8534C44.2502 50.0227 44.2502 50.2073 44.1356 50.3354C44.0348 50.4461 43.8768 50.483 43.7256 50.5091C43.2719 50.5916 42.8113 50.6328 42.3485 50.6328Z" fill="#6BC9E2"/>
<path d="M46.4656 65.1616C46.4496 65.1616 46.4359 65.1594 46.4198 65.1594C45.9662 65.1377 45.5973 64.8099 45.3155 64.4712C43.7643 62.6062 43.6246 60.053 43.549 57.6778C43.5329 57.161 43.5352 56.5944 43.8766 56.1927C44.0737 55.9626 44.3784 55.8671 44.7129 55.8671C45.4644 55.8671 46.3717 56.3469 46.5756 56.8745C46.752 57.3304 46.6924 57.8319 46.6672 58.3161C46.5962 59.6057 46.7818 60.9062 47.208 62.1307C47.4119 62.7191 47.6777 63.314 47.6273 63.9328C47.5769 64.5342 47.0957 65.1616 46.4656 65.1616Z" fill="#6BC9E2"/>
<path d="M21.0654 82.2715H23.667C24.2607 82.2715 24.7803 82.1523 25.2256 81.9141C25.6709 81.6758 26.0166 81.3398 26.2627 80.9062C26.5127 80.4727 26.6377 79.9648 26.6377 79.3828V79.3711C26.6377 78.793 26.5127 78.2871 26.2627 77.8535C26.0166 77.4199 25.6709 77.084 25.2256 76.8457C24.7803 76.6035 24.2607 76.4824 23.667 76.4824H21.0654V77.8828H23.2334C23.7412 77.8828 24.1357 78.0117 24.417 78.2695C24.7021 78.5273 24.8447 78.8965 24.8447 79.377V79.3887C24.8447 79.8691 24.7021 80.2402 24.417 80.502C24.1357 80.7598 23.7412 80.8887 23.2334 80.8887H21.0654V82.2715ZM20.1807 84.9375H21.9502V76.4824H20.1807V84.9375ZM30.7861 85.0723C31.4502 85.0723 32.0186 84.9395 32.4912 84.6738C32.9678 84.4043 33.333 84.0195 33.5869 83.5195C33.8408 83.0156 33.9678 82.4141 33.9678 81.7148V81.7031C33.9678 81.0078 33.8389 80.4102 33.5811 79.9102C33.3232 79.4062 32.9561 79.0195 32.4795 78.75C32.0068 78.4805 31.4424 78.3457 30.7861 78.3457C30.1299 78.3457 29.5635 78.4824 29.0869 78.7559C28.6143 79.0254 28.249 79.4102 27.9912 79.9102C27.7334 80.4102 27.6045 81.0078 27.6045 81.7031V81.7148C27.6045 82.4141 27.7314 83.0156 27.9854 83.5195C28.2393 84.0195 28.6045 84.4043 29.0811 84.6738C29.5576 84.9395 30.126 85.0723 30.7861 85.0723ZM30.7861 83.7305C30.4814 83.7305 30.2217 83.6523 30.0068 83.4961C29.7959 83.3359 29.6338 83.1055 29.5205 82.8047C29.4111 82.5039 29.3564 82.1406 29.3564 81.7148V81.7031C29.3564 81.2812 29.4131 80.9219 29.5264 80.625C29.6396 80.3242 29.8018 80.0938 30.0127 79.9336C30.2275 79.7695 30.4854 79.6875 30.7861 79.6875C31.0869 79.6875 31.3428 79.7695 31.5537 79.9336C31.7686 80.0938 31.9326 80.3242 32.0459 80.625C32.1592 80.9219 32.2158 81.2812 32.2158 81.7031V81.7148C32.2158 82.1367 32.1592 82.498 32.0459 82.7988C31.9326 83.0996 31.7705 83.3301 31.5596 83.4902C31.3486 83.6504 31.0908 83.7305 30.7861 83.7305ZM38.04 84.9609C38.208 84.9609 38.3662 84.9531 38.5146 84.9375C38.6631 84.9219 38.79 84.9043 38.8955 84.8848V83.6133C38.8135 83.6211 38.7354 83.6289 38.6611 83.6367C38.5908 83.6406 38.501 83.6426 38.3916 83.6426C38.1025 83.6426 37.8916 83.5762 37.7588 83.4434C37.6299 83.3066 37.5654 83.0938 37.5654 82.8047V79.7754H38.8955V78.4863H37.5654V76.9453H35.8369V78.4863H34.8408V79.7754H35.8369V83.1973C35.8369 83.8223 36.0088 84.2734 36.3525 84.5508C36.6963 84.8242 37.2588 84.9609 38.04 84.9609ZM43.0557 84.9609C43.2236 84.9609 43.3818 84.9531 43.5303 84.9375C43.6787 84.9219 43.8057 84.9043 43.9111 84.8848V83.6133C43.8291 83.6211 43.751 83.6289 43.6768 83.6367C43.6064 83.6406 43.5166 83.6426 43.4072 83.6426C43.1182 83.6426 42.9072 83.5762 42.7744 83.4434C42.6455 83.3066 42.5811 83.0938 42.5811 82.8047V79.7754H43.9111V78.4863H42.5811V76.9453H40.8525V78.4863H39.8564V79.7754H40.8525V83.1973C40.8525 83.8223 41.0244 84.2734 41.3682 84.5508C41.7119 84.8242 42.2744 84.9609 43.0557 84.9609ZM48.124 85.0723C48.5967 85.0723 49.0049 85.0137 49.3486 84.8965C49.6963 84.7754 49.9854 84.6191 50.2158 84.4277C50.4502 84.2363 50.6338 84.0312 50.7666 83.8125C50.8994 83.5898 50.9912 83.377 51.042 83.1738L51.0537 83.1152H49.46L49.4424 83.1504C49.4033 83.2324 49.3291 83.3242 49.2197 83.4258C49.1143 83.5234 48.9736 83.6094 48.7979 83.6836C48.6221 83.7578 48.4092 83.7949 48.1592 83.7949C47.8506 83.7949 47.585 83.7266 47.3623 83.5898C47.1396 83.4531 46.9678 83.2559 46.8467 82.998C46.7256 82.7402 46.665 82.4297 46.665 82.0664V81.375C46.665 81 46.7256 80.6836 46.8467 80.4258C46.9717 80.1641 47.1396 79.9668 47.3506 79.834C47.5654 79.6973 47.8096 79.6289 48.083 79.6289C48.3604 79.6289 48.6025 79.6953 48.8096 79.8281C49.0205 79.957 49.1846 80.1504 49.3018 80.4082C49.4229 80.666 49.4834 80.9883 49.4834 81.375V82.0605L50.2861 81.0469H45.8271V82.1191H51.1064V81.5859C51.1064 80.9336 50.9834 80.3652 50.7373 79.8809C50.4912 79.3965 50.1396 79.0195 49.6826 78.75C49.2256 78.4805 48.6826 78.3457 48.0537 78.3457C47.4287 78.3457 46.8838 78.4844 46.4189 78.7617C45.958 79.0391 45.6006 79.4297 45.3467 79.9336C45.0967 80.4375 44.9717 81.0312 44.9717 81.7148V81.7207C44.9717 82.4121 45.0986 83.0078 45.3525 83.5078C45.6064 84.0078 45.9678 84.3945 46.4365 84.668C46.9092 84.9375 47.4717 85.0723 48.124 85.0723ZM54.8096 85.0371C55.2666 85.0371 55.6611 84.9414 55.9932 84.75C56.3252 84.5547 56.5732 84.2832 56.7373 83.9355H56.8428V84.9375H58.5537V76.0195H56.8428V79.5176H56.7373C56.5771 79.166 56.3252 78.8887 55.9814 78.6855C55.6416 78.4824 55.251 78.3809 54.8096 78.3809C54.2627 78.3809 53.7939 78.5137 53.4033 78.7793C53.0127 79.0449 52.7119 79.4258 52.501 79.9219C52.2939 80.418 52.1904 81.0117 52.1904 81.7031V81.7148C52.1904 82.4023 52.2959 82.9941 52.5068 83.4902C52.7217 83.9863 53.0244 84.3691 53.415 84.6387C53.8096 84.9043 54.2744 85.0371 54.8096 85.0371ZM55.3896 83.6191C55.0889 83.6191 54.8291 83.543 54.6104 83.3906C54.3916 83.2383 54.2236 83.0195 54.1064 82.7344C53.9893 82.4492 53.9307 82.1094 53.9307 81.7148V81.7031C53.9307 81.3086 53.9893 80.9707 54.1064 80.6895C54.2236 80.4043 54.3916 80.1855 54.6104 80.0332C54.833 79.877 55.0928 79.7988 55.3896 79.7988C55.6904 79.7988 55.9502 79.877 56.1689 80.0332C56.3916 80.1855 56.5615 80.4043 56.6787 80.6895C56.7998 80.9707 56.8604 81.3105 56.8604 81.709V81.7207C56.8604 82.1113 56.7998 82.4492 56.6787 82.7344C56.5615 83.0195 56.3936 83.2383 56.1748 83.3906C55.9561 83.543 55.6943 83.6191 55.3896 83.6191ZM64.4717 82.2715H67.0732C67.667 82.2715 68.1865 82.1523 68.6318 81.9141C69.0771 81.6758 69.4229 81.3398 69.6689 80.9062C69.9189 80.4727 70.0439 79.9648 70.0439 79.3828V79.3711C70.0439 78.793 69.9189 78.2871 69.6689 77.8535C69.4229 77.4199 69.0771 77.084 68.6318 76.8457C68.1865 76.6035 67.667 76.4824 67.0732 76.4824H64.4717V77.8828H66.6396C67.1475 77.8828 67.542 78.0117 67.8232 78.2695C68.1084 78.5273 68.251 78.8965 68.251 79.377V79.3887C68.251 79.8691 68.1084 80.2402 67.8232 80.502C67.542 80.7598 67.1475 80.8887 66.6396 80.8887H64.4717V82.2715ZM63.5869 84.9375H65.3564V76.4824H63.5869V84.9375ZM71.5615 84.9375H73.2725V76.0195H71.5615V84.9375ZM76.7998 85.0371C77.0811 85.0371 77.3408 85 77.5791 84.9258C77.8213 84.8477 78.0322 84.7383 78.2119 84.5977C78.3955 84.4531 78.542 84.2812 78.6514 84.082H78.7568V84.9375H80.4443V80.5312C80.4443 80.0742 80.3389 79.6836 80.1279 79.3594C79.9209 79.0312 79.6182 78.7812 79.2197 78.6094C78.8213 78.4336 78.3369 78.3457 77.7666 78.3457C77.2275 78.3457 76.7529 78.4238 76.3428 78.5801C75.9365 78.7363 75.6123 78.9551 75.3701 79.2363C75.1318 79.5176 74.9893 79.8477 74.9424 80.2266L74.9365 80.2793H76.5186L76.5303 80.2559C76.5967 80.0645 76.7256 79.918 76.917 79.8164C77.1123 79.7109 77.3643 79.6582 77.6729 79.6582C78.0244 79.6582 78.292 79.7344 78.4756 79.8867C78.6631 80.0352 78.7568 80.25 78.7568 80.5312V82.5879C78.7568 82.8145 78.6963 83.0195 78.5752 83.2031C78.4541 83.3828 78.29 83.5254 78.083 83.6309C77.876 83.7363 77.6396 83.7891 77.374 83.7891C77.0771 83.7891 76.835 83.7188 76.6475 83.5781C76.46 83.4375 76.3662 83.2441 76.3662 82.998V82.9863C76.3662 82.752 76.4561 82.5664 76.6357 82.4297C76.8154 82.293 77.0889 82.2148 77.4561 82.1953L79.6006 82.0547V81.0117L77.1982 81.1582C76.3975 81.2051 75.7803 81.3945 75.3467 81.7266C74.9131 82.0547 74.6963 82.5098 74.6963 83.0918V83.1035C74.6963 83.4941 74.7861 83.8359 74.9658 84.1289C75.1455 84.418 75.3936 84.6426 75.71 84.8027C76.0303 84.959 76.3936 85.0371 76.7998 85.0371ZM82.1201 84.9375H83.8311V81.2051C83.8311 80.9121 83.8818 80.6582 83.9834 80.4434C84.0889 80.2285 84.2354 80.0625 84.4229 79.9453C84.6143 79.8242 84.8408 79.7637 85.1025 79.7637C85.5088 79.7637 85.8076 79.8809 85.999 80.1152C86.1904 80.3496 86.2861 80.6953 86.2861 81.1523V84.9375H87.9971V80.7656C87.9971 79.9922 87.8076 79.3965 87.4287 78.9785C87.0537 78.5566 86.5068 78.3457 85.7881 78.3457C85.3271 78.3457 84.9404 78.4473 84.6279 78.6504C84.3154 78.8535 84.085 79.1309 83.9365 79.4824H83.8311V78.4863H82.1201V84.9375ZM92.333 84.9609C92.501 84.9609 92.6592 84.9531 92.8076 84.9375C92.9561 84.9219 93.083 84.9043 93.1885 84.8848V83.6133C93.1064 83.6211 93.0283 83.6289 92.9541 83.6367C92.8838 83.6406 92.7939 83.6426 92.6846 83.6426C92.3955 83.6426 92.1846 83.5762 92.0518 83.4434C91.9229 83.3066 91.8584 83.0938 91.8584 82.8047V79.7754H93.1885V78.4863H91.8584V76.9453H90.1299V78.4863H89.1338V79.7754H90.1299V83.1973C90.1299 83.8223 90.3018 84.2734 90.6455 84.5508C90.9893 84.8242 91.5518 84.9609 92.333 84.9609Z" fill="black"/>
</svg>
