<svg width="844" height="390" viewBox="0 0 844 390" fill="none" xmlns="http://www.w3.org/2000/svg">
<g clip-path="url(#clip0_441_42665)">
<rect width="844" height="390" fill="white"/>
<g filter="url(#filter0_f_441_42665)">
<circle cx="760.5" cy="389.5" r="161.5" fill="#D7F8E8"/>
</g>
<g filter="url(#filter1_f_441_42665)">
<circle cx="422.5" cy="195.5" r="161.5" fill="#DEE8FC"/>
</g>
<g filter="url(#filter2_f_441_42665)">
<circle cx="201.5" cy="389.5" r="161.5" fill="#FFEED9"/>
</g>
<path d="M352.792 316.137C352.753 316.341 352.707 316.553 352.654 316.772C351.285 323.926 356.989 326.957 359.834 328.787C354.905 329.032 351.692 335.473 350.524 339.789C350.477 339.99 350.426 340.194 350.369 340.4C350.416 340.202 350.467 339.998 350.524 339.789C352.31 332.105 346.847 328.173 343.812 327.155C348.871 326.12 351.752 320.517 352.654 316.772C352.694 316.563 352.74 316.352 352.792 316.137Z" fill="#FEDD49"/>
<path d="M124.886 28C124.817 28.3637 124.735 28.741 124.641 29.1294C122.206 41.8586 132.354 47.2516 137.415 50.5072C128.647 50.9434 122.93 62.4045 120.851 70.0838C120.768 70.4417 120.676 70.8041 120.574 71.1712C120.658 70.8187 120.75 70.4557 120.851 70.0838C124.029 56.4107 114.309 49.4164 108.909 47.6044C117.911 45.7635 123.036 35.7938 124.641 29.1294C124.712 28.7592 124.794 28.3828 124.886 28Z" fill="#FEDD49"/>
<path d="M159.417 53.5791C159.377 53.7835 159.331 53.9956 159.279 54.2139C157.91 61.3681 163.614 64.3992 166.458 66.2289C161.53 66.4741 158.317 72.9157 157.148 77.2317C157.102 77.4328 157.05 77.6366 156.993 77.8429C157.04 77.6447 157.092 77.4407 157.148 77.2317C158.935 69.5469 153.472 65.6159 150.437 64.5975C155.496 63.5628 158.377 57.9595 159.279 54.2139C159.319 54.0058 159.364 53.7942 159.417 53.5791Z" fill="#FEDD49"/>
<path d="M646.863 75C646.824 75.2044 646.778 75.4165 646.725 75.6348C645.356 82.789 651.06 85.8201 653.905 87.6498C648.976 87.895 645.763 94.3366 644.595 98.6526C644.548 98.8537 644.496 99.0575 644.439 99.2638C644.486 99.0656 644.538 98.8616 644.595 98.6526C646.381 90.9678 640.918 87.0368 637.883 86.0184C642.942 84.9837 645.823 79.3804 646.725 75.6348C646.765 75.4267 646.811 75.2151 646.863 75Z" fill="#FEDD49"/>
<path d="M230.863 245C230.824 245.204 230.778 245.416 230.725 245.635C229.356 252.789 235.06 255.82 237.905 257.65C232.976 257.895 229.763 264.337 228.595 268.653C228.548 268.854 228.496 269.057 228.439 269.264C228.486 269.066 228.538 268.862 228.595 268.653C230.381 260.968 224.918 257.037 221.883 256.018C226.942 254.984 229.823 249.38 230.725 245.635C230.765 245.427 230.811 245.215 230.863 245Z" fill="#FEDD49"/>
<path d="M611.47 348C611.401 348.357 611.321 348.727 611.229 349.109C608.838 361.606 618.802 366.901 623.771 370.098C615.162 370.526 609.549 381.779 607.508 389.318C607.426 389.67 607.336 390.025 607.236 390.386C607.318 390.04 607.409 389.683 607.508 389.318C610.628 375.894 601.085 369.027 595.783 367.248C604.621 365.44 609.653 355.652 611.229 349.109C611.299 348.745 611.379 348.376 611.47 348Z" fill="#FEDD49"/>
</g>
<defs>
<filter id="filter0_f_441_42665" x="199" y="-172" width="1123" height="1123" filterUnits="userSpaceOnUse" color-interpolation-filters="sRGB">
<feFlood flood-opacity="0" result="BackgroundImageFix"/>
<feBlend mode="normal" in="SourceGraphic" in2="BackgroundImageFix" result="shape"/>
<feGaussianBlur stdDeviation="200" result="effect1_foregroundBlur_441_42665"/>
</filter>
<filter id="filter1_f_441_42665" x="-139" y="-366" width="1123" height="1123" filterUnits="userSpaceOnUse" color-interpolation-filters="sRGB">
<feFlood flood-opacity="0" result="BackgroundImageFix"/>
<feBlend mode="normal" in="SourceGraphic" in2="BackgroundImageFix" result="shape"/>
<feGaussianBlur stdDeviation="200" result="effect1_foregroundBlur_441_42665"/>
</filter>
<filter id="filter2_f_441_42665" x="-360" y="-172" width="1123" height="1123" filterUnits="userSpaceOnUse" color-interpolation-filters="sRGB">
<feFlood flood-opacity="0" result="BackgroundImageFix"/>
<feBlend mode="normal" in="SourceGraphic" in2="BackgroundImageFix" result="shape"/>
<feGaussianBlur stdDeviation="200" result="effect1_foregroundBlur_441_42665"/>
</filter>
<clipPath id="clip0_441_42665">
<rect width="844" height="390" fill="white"/>
</clipPath>
</defs>
</svg>
