<svg width="112" height="99" viewBox="0 0 112 99" fill="none" xmlns="http://www.w3.org/2000/svg">
<rect x="1.5" y="1.5" width="109" height="96" rx="14.5" fill="white" stroke="#ADC6F7" stroke-width="3"/>
<path d="M43.5895 79.1216C44.2731 79.1216 44.8785 78.9966 45.4059 78.7466C45.9332 78.4927 46.359 78.1431 46.6832 77.6978C47.0074 77.2525 47.2008 76.7349 47.2633 76.1451V76.0748H45.5407L45.5289 76.1275C45.4703 76.4283 45.3512 76.692 45.1715 76.9185C44.9957 77.1412 44.7731 77.315 44.5035 77.44C44.2379 77.5611 43.9352 77.6216 43.5953 77.6216C43.15 77.6216 42.7653 77.5025 42.441 77.2642C42.1168 77.0259 41.8668 76.6861 41.691 76.2447C41.5192 75.8033 41.4332 75.2818 41.4332 74.6802V74.6685C41.4332 74.063 41.5192 73.5416 41.691 73.1041C41.8668 72.6627 42.1168 72.3248 42.441 72.0904C42.7653 71.8521 43.1481 71.733 43.5895 71.733C43.9254 71.733 44.2282 71.7994 44.4977 71.9322C44.7711 72.065 44.9977 72.2525 45.1774 72.4947C45.3571 72.733 45.4762 73.0103 45.5348 73.3267L45.5407 73.3677H47.2574V73.2916C47.2028 72.6978 47.0114 72.1705 46.6832 71.7095C46.3551 71.2486 45.9235 70.8873 45.3883 70.6255C44.8571 70.3638 44.2574 70.233 43.5895 70.233C42.7692 70.233 42.0621 70.4127 41.4684 70.772C40.8785 71.1275 40.4235 71.6373 40.1032 72.3013C39.7828 72.9654 39.6227 73.7545 39.6227 74.6685V74.6802C39.6227 75.5943 39.7828 76.3834 40.1032 77.0474C40.4235 77.7115 40.8805 78.2232 41.4742 78.5826C42.068 78.942 42.7731 79.1216 43.5895 79.1216ZM48.7809 78.9048H50.4918V69.9869H48.7809V78.9048ZM55.1266 79.0396C55.7907 79.0396 56.359 78.9068 56.8317 78.6412C57.3082 78.3716 57.6735 77.9869 57.9274 77.4869C58.1813 76.983 58.3082 76.3814 58.3082 75.6822V75.6705C58.3082 74.9752 58.1793 74.3775 57.9215 73.8775C57.6637 73.3736 57.2965 72.9869 56.8199 72.7173C56.3473 72.4478 55.7828 72.313 55.1266 72.313C54.4703 72.313 53.9039 72.4498 53.4274 72.7232C52.9547 72.9927 52.5895 73.3775 52.3317 73.8775C52.0739 74.3775 51.9449 74.9752 51.9449 75.6705V75.6822C51.9449 76.3814 52.0719 76.983 52.3258 77.4869C52.5797 77.9869 52.9449 78.3716 53.4215 78.6412C53.8981 78.9068 54.4664 79.0396 55.1266 79.0396ZM55.1266 77.6978C54.8219 77.6978 54.5621 77.6197 54.3473 77.4634C54.1364 77.3033 53.9742 77.0728 53.861 76.772C53.7516 76.4713 53.6969 76.108 53.6969 75.6822V75.6705C53.6969 75.2486 53.7535 74.8892 53.8668 74.5923C53.9801 74.2916 54.1422 74.0611 54.3532 73.9009C54.568 73.7369 54.8258 73.6548 55.1266 73.6548C55.4274 73.6548 55.6832 73.7369 55.8942 73.9009C56.109 74.0611 56.2731 74.2916 56.3864 74.5923C56.4996 74.8892 56.5563 75.2486 56.5563 75.6705V75.6822C56.5563 76.1041 56.4996 76.4654 56.3864 76.7662C56.2731 77.067 56.111 77.2974 55.9 77.4576C55.6891 77.6177 55.4313 77.6978 55.1266 77.6978ZM62.5446 79.0396C63.1071 79.0396 63.5914 78.9459 63.9977 78.7584C64.4039 78.567 64.7262 78.2974 64.9645 77.9498C65.2028 77.6021 65.3532 77.1959 65.4157 76.731V76.69L63.8336 76.6959L63.8219 76.7134C63.7477 77.0416 63.6051 77.2877 63.3942 77.4517C63.1832 77.6158 62.902 77.6978 62.5504 77.6978C62.2457 77.6978 61.9879 77.6197 61.777 77.4634C61.566 77.3072 61.4039 77.0787 61.2907 76.7779C61.1813 76.4732 61.1266 76.1041 61.1266 75.6705V75.6588C61.1266 75.2252 61.1813 74.8599 61.2907 74.563C61.4 74.2662 61.5602 74.0416 61.7711 73.8892C61.986 73.733 62.2457 73.6548 62.5504 73.6548C62.9176 73.6548 63.2067 73.7505 63.4176 73.942C63.6324 74.1295 63.7692 74.3795 63.8278 74.692L63.8336 74.7037H65.4215V74.6861C65.3707 74.2056 65.2262 73.7877 64.9879 73.4322C64.7496 73.0767 64.4254 72.8013 64.0153 72.606C63.6051 72.4107 63.1149 72.313 62.5446 72.313C61.8727 72.313 61.3004 72.4459 60.8278 72.7115C60.359 72.9732 60.0016 73.3521 59.7555 73.8482C59.5094 74.3443 59.3864 74.9478 59.3864 75.6588V75.6705C59.3864 76.3853 59.5094 76.9947 59.7555 77.4986C60.0016 77.9986 60.359 78.3814 60.8278 78.647C61.3004 78.9088 61.8727 79.0396 62.5446 79.0396ZM66.816 78.9048H68.527V69.9869H66.816V78.9048ZM70.8766 78.9048H72.8981L70.1735 75.0787L68.8961 76.1041L70.8766 78.9048ZM68.4098 76.8658L69.1598 76.0689L70.0739 75.3834L72.7281 72.4537H70.7887L68.6324 75.0025H68.3512L68.4098 76.8658Z" fill="black"/>
<path d="M76.8607 39.9578C76.8607 51.5322 67.5367 60.9152 56.0349 60.9152C44.533 60.9152 35.209 51.5322 35.209 39.9578C35.209 28.3831 44.533 19.0001 56.0349 19.0001C67.5367 19.0001 76.8607 28.3831 76.8607 39.9578Z" fill="url(#paint0_linear_107_11076)"/>
<path d="M74.7404 40.3495C74.7404 50.6804 66.4182 59.0551 56.1523 59.0551C45.8867 59.0551 37.5645 50.6804 37.5645 40.3495C37.5645 30.0187 45.8867 21.644 56.1523 21.644C66.4182 21.644 74.7404 30.0187 74.7404 40.3495" fill="url(#paint1_linear_107_11076)"/>
<path d="M72.8594 39.9047C72.8594 49.255 65.3269 56.8351 56.0354 56.8351C46.7439 56.8351 39.2114 49.255 39.2114 39.9047C39.2114 30.5544 46.7439 22.9742 56.0354 22.9742C65.3269 22.9742 72.8594 30.5544 72.8594 39.9047" fill="url(#paint2_radial_107_11076)"/>
<path d="M56.8245 57.5769H55.6924V54.106H56.8245V57.5769Z" fill="#EBEBEB"/>
<path d="M56.7197 25.4384H55.5874V21.9675H56.7197V25.4384Z" fill="#E8E8E8"/>
<path d="M70.1992 40.3815V39.2422H73.6483V40.3815H70.1992Z" fill="#E7E7E7"/>
<path d="M38.5791 40.3286V39.1893H42.0282V40.3286H38.5791Z" fill="#F2F2F2"/>
<path d="M63.862 26.7319L63.1323 26.308L63.6569 25.3937L64.3865 25.8176L63.862 26.7319Z" fill="#E5E5E5"/>
<path d="M48.4074 54.5253L47.6777 54.1014L48.2025 53.1871L48.9322 53.611L48.4074 54.5253" fill="#EFEFEF"/>
<path d="M42.3476 48.6054L41.9263 47.8711L42.835 47.3432L43.2563 48.0775L42.3476 48.6054Z" fill="#F0F0F0"/>
<path d="M69.2772 32.3097L68.9179 31.6836C68.9009 31.6539 68.911 31.6157 68.9407 31.5984L69.742 31.1329C69.7716 31.1156 69.8095 31.1258 69.8267 31.1557L70.1859 31.7818C70.2031 31.8118 70.1929 31.8499 70.1633 31.867L69.362 32.3327C69.3323 32.35 69.2944 32.3396 69.2772 32.3097" fill="#E4E4E4"/>
<path d="M69.0977 47.9694L69.5298 47.2414L70.4306 47.783L69.9985 48.5107L69.0977 47.9694" fill="#E0E0E0"/>
<path d="M41.7129 32.0036L42.1451 31.2757L43.0459 31.8172L42.6137 32.545L41.7129 32.0036" fill="#F1F1F1"/>
<path d="M47.686 25.9947L48.422 25.5817L48.9329 26.504L48.197 26.9168L47.686 25.9947" fill="#EFEFEF"/>
<path d="M63.3687 53.3644L64.1044 52.9515L64.6153 53.8738L63.8796 54.2866L63.3687 53.3644Z" fill="#EFEFEF"/>
<path d="M52.427 49.3541C52.3625 49.3943 51.4771 49.9448 51.3485 49.9608C51.2894 49.9682 51.2473 49.9458 51.2473 49.9458C51.2473 49.9458 51.2077 49.9249 51.1822 49.8771C51.1229 49.767 51.0096 48.721 51.001 48.6411C51.88 46.8605 52.759 45.0802 53.6383 43.2998C54.5173 41.5195 55.3963 39.7391 56.2753 37.9588L57.7013 38.6718L55.064 44.013L52.427 49.3541" fill="#6079DE"/>
<path d="M50.5903 27.2129C50.5979 27.1151 50.7035 25.7753 50.7718 25.6452C50.8034 25.5854 50.8484 25.5706 50.8484 25.5706C50.8484 25.5706 50.891 25.5567 50.9469 25.5822C51.0761 25.6412 52.017 26.5981 52.0888 26.6713C53.9288 31.8264 55.7685 36.9813 57.6085 42.1361L56.11 42.6777L50.5903 27.2129" fill="#ECECEC"/>
<path d="M52.3239 49.3757C52.2594 49.4158 51.3741 49.9662 51.2455 49.9823C51.1862 49.9896 51.1443 49.9675 51.1443 49.9675C51.1443 49.9675 51.1047 49.9466 51.0792 49.8988C51.0199 49.7885 50.9065 48.7427 50.8979 48.6625C52.656 45.1019 54.4142 41.5412 56.1723 37.9805L57.5983 38.6935L52.3239 49.3757" fill="#EBEBEB"/>
<path d="M57.0896 39.9572C57.0896 40.5424 56.6181 41.017 56.0365 41.017C55.4548 41.017 54.9834 40.5424 54.9834 39.9572C54.9834 39.3718 55.4548 38.8972 56.0365 38.8972C56.6181 38.8972 57.0896 39.3718 57.0896 39.9572Z" fill="url(#paint3_linear_107_11076)"/>
<defs>
<linearGradient id="paint0_linear_107_11076" x1="35.209" y1="39.9578" x2="76.8607" y2="39.9578" gradientUnits="userSpaceOnUse">
<stop stop-color="#A4B2F2"/>
<stop offset="1" stop-color="#7587E7"/>
</linearGradient>
<linearGradient id="paint1_linear_107_11076" x1="37.5645" y1="40.3495" x2="74.7402" y2="40.3495" gradientUnits="userSpaceOnUse">
<stop stop-color="#4264E2"/>
<stop offset="1" stop-color="#AAB6F8"/>
</linearGradient>
<radialGradient id="paint2_radial_107_11076" cx="0" cy="0" r="1" gradientUnits="userSpaceOnUse" gradientTransform="translate(56.0354 39.9047) scale(16.8239 16.9304)">
<stop stop-color="#8C9EF0"/>
<stop offset="1" stop-color="#8C9EF0"/>
</radialGradient>
<linearGradient id="paint3_linear_107_11076" x1="54.9834" y1="39.9572" x2="57.0897" y2="39.9572" gradientUnits="userSpaceOnUse">
<stop stop-color="#FAFAFA"/>
<stop offset="1" stop-color="#C8C8C8"/>
</linearGradient>
</defs>
</svg>
