<svg width="112" height="99" viewBox="0 0 112 99" fill="none" xmlns="http://www.w3.org/2000/svg">
<rect x="1.5" y="1.5" width="109" height="96" rx="14.5" fill="white" stroke="#ADC6F7" stroke-width="3"/>
<path d="M60.1757 36.6047C59.3116 38.4886 57.7855 42.2201 57.6467 45.2554H55.3952C55.2565 42.2219 53.7303 38.4904 52.8662 36.6065C53.9942 37.3427 55.543 37.5294 56.5217 37.5693C57.3617 37.5349 58.627 37.3916 59.6826 36.8821C59.8545 36.7987 60.0189 36.7081 60.1757 36.6047Z" fill="#D3D1CB"/>
<path d="M56.5215 68.9375C51.8209 66.8723 54.6319 51.0977 55.3211 46.8276C55.398 46.3362 55.4191 45.8086 55.395 45.2574H57.6465C57.6209 45.8086 57.642 46.3362 57.7219 46.8276C58.4081 51.0977 61.2206 66.8723 56.5215 68.9375Z" fill="#6396E6"/>
<path d="M61.5826 33.9974C61.5826 35.2521 60.9899 36.0717 60.1756 36.6047C60.0188 36.7081 59.8544 36.7987 59.6825 36.8821C58.6268 37.3916 57.3616 37.5349 56.5216 37.5693C55.5429 37.5294 53.9941 37.3427 52.8661 36.6065C52.0517 36.0735 51.4561 35.2539 51.4561 33.9974C51.4561 30.7355 52.5102 22.0993 52.8947 19.0532C52.9143 18.8936 53.1089 18.9009 53.1224 19.0622L53.9911 29.8053C54.0016 29.9631 54.1917 29.9667 54.2082 29.8107L55.3242 19.133C55.3408 18.977 55.5293 18.9788 55.5429 19.1366L56.4251 29.7963C56.4371 29.9359 56.6045 29.9359 56.6166 29.7963L57.4988 19.1366C57.5109 18.9788 57.6994 18.977 57.716 19.133L58.8289 29.7563C58.8455 29.9213 59.0415 29.9177 59.0566 29.7545L59.9177 19.0786C59.9298 18.9154 60.1273 18.9081 60.1484 19.0695C60.5345 22.1301 61.5826 30.7427 61.5826 33.9974Z" fill="#EDEBE3"/>
<path d="M56.17 36.3311C56.17 36.3311 55.6226 36.2476 53.6742 35.9612C51.7242 35.6729 52.0666 32.9186 52.0666 32.9186L52.8658 20.9154L54.107 33.4535L55.5547 26.7937L56.17 36.3311Z" fill="#F8F7F4"/>
<path d="M43.9521 84.9375H45.7217V81.6094H49.1611V80.209H45.7217V77.9414H49.4893V76.4824H43.9521V84.9375ZM53.8193 85.0723C54.4834 85.0723 55.0518 84.9395 55.5244 84.6738C56.001 84.4043 56.3662 84.0195 56.6201 83.5195C56.874 83.0156 57.001 82.4141 57.001 81.7148V81.7031C57.001 81.0078 56.8721 80.4102 56.6143 79.9102C56.3564 79.4062 55.9893 79.0195 55.5127 78.75C55.04 78.4805 54.4756 78.3457 53.8193 78.3457C53.1631 78.3457 52.5967 78.4824 52.1201 78.7559C51.6475 79.0254 51.2822 79.4102 51.0244 79.9102C50.7666 80.4102 50.6377 81.0078 50.6377 81.7031V81.7148C50.6377 82.4141 50.7646 83.0156 51.0186 83.5195C51.2725 84.0195 51.6377 84.4043 52.1143 84.6738C52.5908 84.9395 53.1592 85.0723 53.8193 85.0723ZM53.8193 83.7305C53.5146 83.7305 53.2549 83.6523 53.04 83.4961C52.8291 83.3359 52.667 83.1055 52.5537 82.8047C52.4443 82.5039 52.3896 82.1406 52.3896 81.7148V81.7031C52.3896 81.2812 52.4463 80.9219 52.5596 80.625C52.6729 80.3242 52.835 80.0938 53.0459 79.9336C53.2607 79.7695 53.5186 79.6875 53.8193 79.6875C54.1201 79.6875 54.376 79.7695 54.5869 79.9336C54.8018 80.0938 54.9658 80.3242 55.0791 80.625C55.1924 80.9219 55.249 81.2812 55.249 81.7031V81.7148C55.249 82.1367 55.1924 82.498 55.0791 82.7988C54.9658 83.0996 54.8037 83.3301 54.5928 83.4902C54.3818 83.6504 54.124 83.7305 53.8193 83.7305ZM58.3955 84.9375H60.1064V81.3281C60.1064 81.0234 60.1709 80.7617 60.2998 80.543C60.4287 80.3242 60.6123 80.1562 60.8506 80.0391C61.0889 79.918 61.3701 79.8574 61.6943 79.8574C61.8271 79.8574 61.958 79.8672 62.0869 79.8867C62.2197 79.9023 62.3506 79.9258 62.4795 79.957V78.4629C62.3936 78.4395 62.2939 78.4199 62.1807 78.4043C62.0713 78.3887 61.958 78.3809 61.8408 78.3809C61.4229 78.3809 61.0732 78.4785 60.792 78.6738C60.5107 78.8652 60.3174 79.1367 60.2119 79.4883H60.1064V78.4863H58.3955V84.9375ZM63.6807 84.9375H65.3916V76.0195H63.6807V84.9375ZM67.7412 84.9375H69.7627L67.0381 81.1113L65.7607 82.1367L67.7412 84.9375ZM65.2744 82.8984L66.0244 82.1016L66.9385 81.416L69.5928 78.4863H67.6533L65.4971 81.0352H65.2158L65.2744 82.8984Z" fill="black"/>
</svg>
