<svg width="844" height="390" viewBox="0 0 844 390" fill="none" xmlns="http://www.w3.org/2000/svg">
<g clip-path="url(#clip0_373_44731)">
<rect width="844" height="390" fill="white"/>
<path d="M0 511.515H844V3.05176e-05H0V511.515Z" fill="#FFEED9"/>
<path d="M290.881 307.201C290.881 307.201 322.96 302.664 334.991 337.559C338.073 325.82 338.022 313.334 334.802 301.64C330.858 287.31 323.449 267.914 309.899 251.435C284.865 220.995 290.881 307.201 290.881 307.201Z" fill="#FD7583"/>
<path d="M191.683 307.201C191.683 307.201 159.603 302.664 147.573 337.559C144.491 325.82 144.542 313.334 147.761 301.64C151.706 287.31 159.113 267.914 172.665 251.435C197.698 220.995 191.683 307.201 191.683 307.201Z" fill="#FD7583"/>
<path d="M321.633 411.327C322.267 408.826 330.907 355.283 327.019 283.62C322.999 209.478 278.927 174.444 246.677 147.605C214.428 174.444 170.356 209.478 166.335 283.62C162.448 355.283 171.086 408.826 171.722 411.327H321.633Z" fill="#FEC786"/>
<path d="M535.413 411.327H530.242V217.376C530.242 201.903 517.653 189.317 502.183 189.317H282.349V184.145H502.183C520.505 184.145 535.413 199.053 535.413 217.376V411.327Z" fill="#49263E"/>
<path d="M275.377 172.728C266.758 177.099 257.006 179.565 246.677 179.565C236.349 179.565 226.597 177.099 217.977 172.728C204.948 185.396 192.296 200.424 182.741 219.435C201.315 230.944 223.22 237.588 246.677 237.588C270.134 237.588 292.039 230.944 310.612 219.435C301.057 200.424 288.405 185.396 275.377 172.728Z" fill="#FD7583"/>
<path d="M246.666 257.392C215.22 257.392 189.636 282.602 189.636 313.589C189.636 344.577 215.22 369.787 246.666 369.787C254.599 369.787 262.277 368.211 269.484 365.106C290.267 356.155 303.697 335.935 303.697 313.589C303.697 282.602 278.113 257.392 246.666 257.392ZM246.666 372.373C238.621 372.373 230.816 370.818 223.467 367.754C216.368 364.794 209.993 360.557 204.518 355.16C199.042 349.764 194.743 343.477 191.739 336.477C188.628 329.226 187.051 321.525 187.051 313.589C187.051 305.651 188.628 297.95 191.739 290.701C194.743 283.701 199.042 277.415 204.518 272.016C209.993 266.619 216.368 262.381 223.467 259.422C230.816 256.358 238.621 254.806 246.666 254.806C254.711 254.806 262.517 256.358 269.865 259.422C276.965 262.381 283.338 266.619 288.814 272.016C294.29 277.415 298.589 283.701 301.594 290.701C304.704 297.95 306.282 305.651 306.282 313.589C306.282 336.968 292.239 358.122 270.507 367.482C262.975 370.725 254.953 372.373 246.666 372.373Z" fill="#FFDBB3"/>
<path d="M294.991 313.753C294.991 320.457 293.612 326.843 291.116 332.649C290.96 333.014 290.801 333.375 290.635 333.733C290.502 334.027 290.364 334.319 290.221 334.608C290.011 335.045 289.794 335.477 289.569 335.907C289.515 336.007 289.464 336.109 289.41 336.209C289.364 336.296 289.318 336.383 289.27 336.47C289.065 336.856 288.85 337.237 288.633 337.613L288.625 337.628C288.594 337.684 288.564 337.738 288.533 337.792C288.252 338.275 287.963 338.754 287.666 339.224L287.625 339.291C287.331 339.754 287.032 340.214 286.725 340.667C284.679 343.687 282.298 346.467 279.633 348.956C275.28 353.022 270.172 356.314 264.538 358.605C263.008 359.227 261.441 359.774 259.839 360.245C255.388 361.549 250.673 362.25 245.792 362.25C242.733 362.25 239.739 361.974 236.834 361.447C236.802 361.442 236.771 361.437 236.739 361.432C236.679 361.419 236.619 361.409 236.559 361.396C234.963 361.099 233.396 360.723 231.858 360.276C231.436 360.153 231.017 360.025 230.601 359.894C230.568 359.884 230.536 359.871 230.504 359.864C230.437 359.841 230.371 359.82 230.305 359.797C230.137 359.744 229.971 359.687 229.804 359.631C229.479 359.521 229.156 359.409 228.835 359.293C228.421 359.143 228.009 358.987 227.6 358.825C226.838 358.526 226.083 358.209 225.34 357.871C223.772 357.166 222.249 356.38 220.775 355.521C206.298 347.078 196.591 331.534 196.591 313.753C196.591 286.968 218.618 265.254 245.792 265.254C272.965 265.254 294.991 286.968 294.991 313.753Z" fill="#0B2A3F"/>
<path d="M484.574 411.327H479.402V187.181H484.574V411.327Z" fill="#49263E"/>
<path d="M440.622 411.327H435.45V185.409H440.622V411.327Z" fill="#49263E"/>
<path d="M483.037 207.015H438.036V203.299H483.037V207.015Z" fill="#49263E"/>
<path d="M483.037 230.632H438.036V226.916H483.037V230.632Z" fill="#49263E"/>
<path d="M483.037 254.249H438.036V250.532H483.037V254.249Z" fill="#49263E"/>
<path d="M483.037 277.865H438.036V274.149H483.037V277.865Z" fill="#49263E"/>
<path d="M483.037 301.482H438.036V297.766H483.037V301.482Z" fill="#49263E"/>
<path d="M483.037 325.099H438.036V321.382H483.037V325.099Z" fill="#49263E"/>
<path d="M482.653 348.715H438.036V344.999H482.653V348.715Z" fill="#49263E"/>
<path d="M488.592 372.332H438.036V368.616H488.592V372.332Z" fill="#49263E"/>
<path d="M338.495 217.573H334.779V186.731H338.495V217.573Z" fill="#49263E"/>
<path d="M376.184 248.415H372.467V187.181H376.184V248.415Z" fill="#49263E"/>
<path d="M413.869 217.573H410.153V186.731H413.869V217.573Z" fill="#49263E"/>
<path d="M336.638 218.133C329.585 218.133 323.848 223.87 323.848 230.924C323.848 237.977 329.585 243.714 336.638 243.714C343.692 243.714 349.429 237.977 349.429 230.924C349.429 223.87 343.692 218.133 336.638 218.133ZM336.638 247.43C327.536 247.43 320.132 240.026 320.132 230.924C320.132 221.821 327.536 214.417 336.638 214.417C345.741 214.417 353.145 221.821 353.145 230.924C353.145 240.026 345.741 247.43 336.638 247.43Z" fill="#FD7583"/>
<path d="M374.324 248.972C367.27 248.972 361.534 254.712 361.534 261.765C361.534 268.819 367.27 274.556 374.324 274.556C381.378 274.556 387.115 268.819 387.115 261.765C387.115 254.712 381.378 248.972 374.324 248.972ZM374.324 278.272C365.222 278.272 357.818 270.868 357.818 261.765C357.818 252.663 365.222 245.256 374.324 245.256C383.427 245.256 390.831 252.663 390.831 261.765C390.831 270.868 383.427 278.272 374.324 278.272Z" fill="#FEC786"/>
<path d="M412.01 218.133C404.956 218.133 399.22 223.87 399.22 230.924C399.22 237.977 404.956 243.714 412.01 243.714C419.064 243.714 424.803 237.977 424.803 230.924C424.803 223.87 419.064 218.133 412.01 218.133ZM412.01 247.43C402.908 247.43 395.504 240.026 395.504 230.924C395.504 221.821 402.908 214.417 412.01 214.417C421.113 214.417 428.519 221.821 428.519 230.924C428.519 240.026 421.113 247.43 412.01 247.43Z" fill="#FD7583"/>
<path d="M246.677 238.883C223.777 238.883 201.433 232.537 182.06 220.532L183.422 218.335C202.385 230.085 224.259 236.297 246.677 236.297C269.095 236.297 290.968 230.085 309.932 218.335L311.293 220.532C291.922 232.537 269.576 238.883 246.677 238.883Z" fill="#FFDBB3"/>
<path d="M324.544 390.933H168.81V388.347H324.544V390.933Z" fill="#FFDBB3"/>
<path d="M188.343 321.411H165.334V318.827H188.343V321.411Z" fill="#FFDBB3"/>
<path d="M328.022 321.411H304.988V318.827H328.022V321.411Z" fill="#FFDBB3"/>
<path d="M686.359 411.327H681.19V248.972H686.359V411.327Z" fill="#49263E"/>
<path d="M574.91 249.722L575.027 267.374L587.938 255.336L574.91 249.722Z" fill="#7FC6A6"/>
<path d="M552.308 234.717L548.6 251.975L563.812 243.018L552.308 234.717Z" fill="#7FC6A6"/>
<path d="M599.902 259.19L603.163 276.538L613.721 262.392L599.902 259.19Z" fill="#7FC6A6"/>
<path d="M626.376 264.162L633.716 280.216L640.56 263.947L626.376 264.162Z" fill="#7FC6A6"/>
<path d="M653.161 263.642L662.722 278.479L667.167 261.397L653.161 263.642Z" fill="#7FC6A6"/>
<path d="M586.882 255.325L588.67 272.886L600.383 259.678L586.882 255.325Z" fill="#FD7583"/>
<path d="M563.344 242.921L561.8 260.504L575.784 249.737L563.344 242.921Z" fill="#FD7583"/>
<path d="M542.889 225.962L536.971 242.591L553.214 235.688L542.889 225.962Z" fill="#FD7583"/>
<path d="M612.918 262.336L617.703 279.326L626.967 264.3L612.918 262.336Z" fill="#FD7583"/>
<path d="M639.686 263.924L647.026 279.975L653.87 263.706L639.686 263.924Z" fill="#FD7583"/>
<path d="M666.445 261.522L676.008 276.359L680.451 259.277L666.445 261.522Z" fill="#FD7583"/>
<path d="M637.274 264.663C629.223 264.663 621.409 264.067 613.854 262.873C596.682 260.159 580.823 254.369 566.723 245.66C554.173 237.911 545.367 229.238 540.188 223.328C534.572 216.913 531.879 212.256 531.853 212.21L532.835 211.647C532.861 211.693 535.516 216.281 541.076 222.624C546.206 228.476 554.933 237.062 567.368 244.732C582.698 254.185 605.846 263.481 637.578 263.481C651.305 263.481 666.632 261.742 683.637 257.525L683.911 258.622C667.691 262.645 652.085 264.663 637.274 264.663Z" fill="#49263E"/>
<path d="M458.967 399.772C458.967 409.189 408.005 416.823 345.142 416.823C282.28 416.823 231.318 409.189 231.318 399.772C231.318 390.355 282.28 382.721 345.142 382.721C408.005 382.721 458.967 390.355 458.967 399.772Z" fill="#0B2A3F"/>
<path d="M341.355 388.588C341.355 395.353 335.871 400.833 329.109 400.833C322.344 400.833 316.861 395.353 316.861 388.588C316.861 381.823 322.344 376.34 329.109 376.34C335.871 376.34 341.355 381.823 341.355 388.588Z" fill="#FFDBB3"/>
<path d="M307.239 390.933C307.239 397.698 301.756 403.181 294.991 403.181C288.229 403.181 282.745 397.698 282.745 390.933C282.745 384.168 288.229 378.685 294.991 378.685C301.756 378.685 307.239 384.168 307.239 390.933Z" fill="#FFDBB3"/>
<path d="M269.131 389.642C269.131 396.404 263.648 401.887 256.883 401.887C250.12 401.887 244.636 396.404 244.636 389.642C244.636 382.877 250.12 377.393 256.883 377.393C263.648 377.393 269.131 382.877 269.131 389.642Z" fill="#FFDBB3"/>
<path d="M385.094 386.381C385.094 393.145 379.611 398.629 372.848 398.629C366.084 398.629 360.6 393.145 360.6 386.381C360.6 379.618 366.084 374.135 372.848 374.135C379.611 374.135 385.094 379.618 385.094 386.381Z" fill="#FFDBB3"/>
<path d="M428.593 386.381C428.593 393.145 423.11 398.629 416.345 398.629C409.583 398.629 404.1 393.145 404.1 386.381C404.1 379.618 409.583 374.135 416.345 374.135C423.11 374.135 428.593 379.618 428.593 386.381Z" fill="#FFDBB3"/>
<path d="M438.036 396.215C438.036 402.979 432.553 408.463 425.788 408.463C419.025 408.463 413.542 402.979 413.542 396.215C413.542 389.45 419.025 383.966 425.788 383.966C432.553 383.966 438.036 389.45 438.036 396.215Z" fill="#7FC6A6"/>
<path d="M285.548 390.933C285.548 397.698 280.065 403.181 273.3 403.181C266.538 403.181 261.054 397.698 261.054 390.933C261.054 384.168 266.538 378.685 273.3 378.685C280.065 378.685 285.548 384.168 285.548 390.933Z" fill="#4CB7D8"/>
<path d="M405.908 388.347C405.908 395.112 400.424 400.596 393.66 400.596C386.897 400.596 381.414 395.112 381.414 388.347C381.414 381.585 386.897 376.102 393.66 376.102C400.424 376.102 405.908 381.585 405.908 388.347Z" fill="#4CB7D8"/>
<path d="M459.098 396.215C459.098 402.979 453.614 408.463 446.849 408.463C440.085 408.463 434.601 402.979 434.601 396.215C434.601 389.45 440.085 383.966 446.849 383.966C453.614 383.966 459.098 389.45 459.098 396.215Z" fill="#F7597F"/>
<path d="M419.261 394.9C419.261 401.665 413.777 407.146 407.013 407.146C400.25 407.146 394.767 401.665 394.767 394.9C394.767 388.135 400.25 382.652 407.013 382.652C413.777 382.652 419.261 388.135 419.261 394.9Z" fill="#F7597F"/>
<path d="M386.028 399.772C386.028 406.537 380.544 412.021 373.779 412.021C367.015 412.021 361.531 406.537 361.531 399.772C361.531 393.007 367.015 387.524 373.779 387.524C380.544 387.524 386.028 393.007 386.028 399.772Z" fill="#F7597F"/>
<path d="M371.475 391.593C371.475 398.358 365.992 403.841 359.227 403.841C352.462 403.841 346.979 398.358 346.979 391.593C346.979 384.828 352.462 379.345 359.227 379.345C365.992 379.345 371.475 384.828 371.475 391.593Z" fill="#7FC6A6"/>
<path d="M254.879 396.542C254.879 403.304 249.395 408.788 242.631 408.788C235.867 408.788 230.384 403.304 230.384 396.542C230.384 389.777 235.867 384.294 242.631 384.294C249.395 384.294 254.879 389.777 254.879 396.542Z" fill="#F7597F"/>
<path d="M325.866 390.933C325.866 397.698 320.382 403.181 313.62 403.181C306.855 403.181 301.372 397.698 301.372 390.933C301.372 384.168 306.855 378.685 313.62 378.685C320.382 378.685 325.866 384.168 325.866 390.933Z" fill="#F7597F"/>
<path d="M626.995 354.498C627.233 354.265 627.611 354.27 627.844 354.506C628.074 354.741 628.072 355.122 627.836 355.352L626.846 356.777C627.588 356.787 632.315 356.467 632.315 356.467C632.655 356.427 632.964 356.68 632.985 357.03C633.003 357.347 632.754 357.621 632.437 357.659L629.361 358.033C629.286 358.043 629.233 358.104 629.233 358.176L629.23 358.332C629.23 358.414 629.294 358.478 629.373 358.48L632.711 358.511C633.056 358.514 633.33 358.808 633.304 359.155C633.279 359.473 633 359.71 632.68 359.708L629.363 359.677C629.284 359.677 629.217 359.741 629.217 359.823L629.215 359.872C629.215 359.941 629.263 359.999 629.332 360.015L632.258 360.626C632.588 360.695 632.854 361.025 632.852 361.36C632.849 361.698 632.575 361.915 632.248 361.846L629.376 361.248C629.286 361.23 629.202 361.299 629.202 361.388C629.202 361.452 629.24 361.508 629.299 361.529L631.171 362.186C631.473 362.294 631.655 362.613 631.57 362.92C631.476 363.258 631.118 363.439 630.793 363.324L630.534 363.232C629.506 362.872 628.419 362.7 627.33 362.726L623.552 362.818C623.547 361.861 623.565 361.317 623.867 357.792C623.788 357.444 623.793 357.012 623.946 356.861L626.995 354.498Z" fill="#F9B498"/>
<path d="M272.471 349.805L272.464 350.079C269.535 349.981 263.863 345.588 263.622 345.401L263.791 345.183C263.85 345.229 269.632 349.71 272.471 349.805Z" fill="#1D1D1B"/>
<path d="M254.907 319.93C254.849 319.919 254.79 319.907 254.73 319.891L254.907 319.93ZM254.326 319.807C254.115 319.763 253.872 319.756 253.74 319.735H253.738H253.738L253.817 319.697L254.326 319.807Z" fill="#81425F"/>
<path d="M649.1 389.611C649.1 389.611 652.471 379.923 652.42 379.79C652.369 379.659 647.016 377.409 647.016 377.409C647.016 377.409 644.115 385.401 644.092 385.534C644.069 385.67 645.195 387.708 645.287 387.749C645.379 387.79 649.1 389.611 649.1 389.611Z" fill="#3A2645"/>
<path d="M655.75 359.431C655.814 359.196 657.635 347.073 657.635 347.073L654.698 347.503C654.698 347.503 651.877 348.741 651.773 349.633C651.665 350.528 649.908 355.643 650.381 356.661C650.854 357.677 650.212 358.403 651.645 359.094C653.077 359.784 653.189 360.147 654.154 359.968C655.12 359.789 655.75 359.431 655.75 359.431Z" fill="#3A2645"/>
<path d="M650.251 388.856C652.522 389.248 654.681 387.723 655.069 385.455C655.461 383.184 653.936 381.025 651.665 380.636C649.394 380.245 647.235 381.769 646.844 384.038C646.455 386.309 647.98 388.467 650.251 388.856Z" fill="#1A1A1A"/>
<path d="M650.466 387.606C652.046 387.88 653.548 386.818 653.819 385.238C654.09 383.66 653.031 382.158 651.45 381.887C649.87 381.614 648.368 382.675 648.095 384.256C647.824 385.834 648.885 387.335 650.466 387.606Z" fill="#9E9DA2"/>
<path d="M650.629 386.66C651.686 386.841 652.688 386.133 652.872 385.076C653.054 384.02 652.343 383.015 651.287 382.833C650.23 382.652 649.225 383.36 649.044 384.417C648.862 385.473 649.571 386.478 650.629 386.66Z" fill="#D8D9DD"/>
<path d="M655.696 357.204C657.967 357.595 660.126 356.071 660.517 353.8C660.906 351.529 659.381 349.373 657.11 348.981C654.839 348.59 652.681 350.114 652.292 352.385C651.901 354.657 653.425 356.813 655.696 357.204Z" fill="#1A1A1A"/>
<path d="M655.911 355.953C657.491 356.224 658.993 355.166 659.264 353.585C659.537 352.004 658.476 350.503 656.895 350.232C655.315 349.961 653.814 351.02 653.542 352.6C653.269 354.181 654.33 355.682 655.911 355.953Z" fill="#9E9DA2"/>
<path d="M656.407 355.997C656.412 355.997 656.417 355.997 656.422 355.997C656.417 355.997 656.412 355.997 656.407 355.997ZM656.404 355.997C656.243 355.997 656.077 355.981 655.911 355.953C656.077 355.981 656.243 355.997 656.404 355.997ZM655.89 355.948C655.888 355.948 655.885 355.948 655.885 355.948C655.885 355.948 655.888 355.948 655.89 355.948ZM655.867 355.945C655.865 355.945 655.865 355.945 655.862 355.943C655.865 355.945 655.865 355.945 655.867 355.945ZM655.844 355.94H655.842H655.844ZM655.798 355.93C655.796 355.93 655.796 355.93 655.793 355.93C655.796 355.93 655.796 355.93 655.798 355.93ZM655.775 355.928C655.775 355.925 655.773 355.925 655.773 355.925C655.773 355.925 655.773 355.925 655.775 355.928ZM655.752 355.92C655.75 355.92 655.75 355.92 655.75 355.92C655.75 355.92 655.75 355.92 655.752 355.92ZM659.256 353.639C659.259 353.621 659.261 353.603 659.264 353.585C659.261 353.603 659.259 353.621 659.256 353.639ZM659.269 353.562C659.269 353.562 659.269 353.559 659.269 353.557C659.269 353.559 659.269 353.562 659.269 353.562ZM659.271 353.541C659.271 353.539 659.271 353.536 659.274 353.534C659.271 353.536 659.271 353.539 659.271 353.541ZM659.277 353.516C659.277 353.516 659.277 353.513 659.277 353.511C659.277 353.513 659.277 353.516 659.277 353.516ZM659.279 353.49C659.279 353.488 659.279 353.488 659.279 353.485C659.279 353.488 659.279 353.488 659.279 353.49ZM659.282 353.467C659.282 353.467 659.282 353.465 659.284 353.462C659.282 353.465 659.282 353.467 659.282 353.467ZM659.284 353.444C659.284 353.444 659.287 353.442 659.287 353.439C659.287 353.442 659.284 353.444 659.284 353.444ZM659.289 353.419C659.289 353.416 659.289 353.416 659.289 353.416C659.289 353.416 659.289 353.416 659.289 353.419ZM659.292 353.396C659.292 353.393 659.292 353.393 659.292 353.39C659.292 353.39 659.292 353.393 659.292 353.396ZM659.294 353.373C659.294 353.37 659.294 353.37 659.294 353.367C659.294 353.37 659.294 353.37 659.294 353.373ZM659.3 353.301C659.3 353.298 659.3 353.298 659.3 353.296C659.3 353.298 659.3 353.298 659.3 353.301Z" fill="#151515"/>
<path d="M656.407 355.997C656.407 355.997 656.407 355.997 656.404 355.997C656.243 355.997 656.077 355.981 655.911 355.953C655.903 355.951 655.898 355.951 655.89 355.948C655.888 355.948 655.885 355.948 655.885 355.948C655.878 355.948 655.872 355.945 655.867 355.945C655.865 355.945 655.865 355.945 655.862 355.943C655.857 355.943 655.849 355.943 655.844 355.94H655.842C655.826 355.938 655.811 355.935 655.798 355.93C655.796 355.93 655.796 355.93 655.793 355.93C655.788 355.93 655.78 355.928 655.775 355.928C655.773 355.925 655.773 355.925 655.773 355.925C655.765 355.925 655.757 355.922 655.752 355.92C655.75 355.92 655.75 355.92 655.75 355.92C655.727 355.915 655.706 355.91 655.683 355.905C654.801 355.679 654.105 355.063 653.752 354.278C654.146 354.628 654.637 354.879 655.195 354.974C655.361 355.002 655.527 355.017 655.691 355.017C655.803 355.017 655.916 355.009 656.028 354.997H656.031C656.034 354.999 656.036 354.999 656.041 354.999C656.041 354.999 656.044 354.999 656.046 354.999C656.049 355.002 656.051 355.002 656.057 355.002H656.059C656.064 355.004 656.069 355.004 656.074 355.004C656.08 355.007 656.087 355.007 656.092 355.009C656.197 355.025 656.302 355.035 656.404 355.035C656.404 355.035 656.404 355.035 656.407 355.035C656.407 355.035 656.407 355.035 656.41 355.035C657.317 355.032 658.123 354.39 658.307 353.477C658.31 353.465 658.312 353.449 658.315 353.436C658.315 353.431 658.315 353.426 658.317 353.421C658.317 353.416 658.317 353.411 658.32 353.408C658.32 353.406 658.32 353.403 658.32 353.403C658.32 353.401 658.32 353.396 658.323 353.393C658.323 353.39 658.323 353.39 658.323 353.388C658.323 353.385 658.323 353.38 658.323 353.378C658.325 353.378 658.325 353.375 658.325 353.373C658.325 353.37 658.325 353.365 658.328 353.36V353.357C658.328 353.352 658.328 353.349 658.328 353.344C658.328 353.344 658.328 353.342 658.33 353.339C658.33 353.337 658.33 353.334 658.33 353.332C658.33 353.329 658.33 353.326 658.33 353.326C658.33 353.321 658.333 353.319 658.333 353.316C658.333 353.314 658.333 353.314 658.333 353.311V353.309C658.433 353.089 658.504 352.853 658.548 352.605C658.65 352.014 658.566 351.436 658.335 350.927C658.972 351.495 659.346 352.334 659.305 353.227C659.302 353.25 659.302 353.273 659.3 353.296C659.3 353.298 659.3 353.298 659.3 353.301C659.3 353.306 659.3 353.314 659.297 353.321C659.297 353.337 659.294 353.352 659.294 353.367C659.294 353.37 659.294 353.37 659.294 353.373C659.292 353.378 659.292 353.383 659.292 353.39C659.292 353.393 659.292 353.393 659.292 353.396C659.289 353.403 659.289 353.408 659.289 353.416C659.289 353.416 659.289 353.416 659.289 353.419C659.287 353.424 659.287 353.431 659.287 353.439C659.287 353.442 659.284 353.444 659.284 353.444C659.284 353.449 659.284 353.457 659.284 353.462C659.282 353.465 659.282 353.467 659.282 353.467C659.282 353.475 659.282 353.48 659.279 353.485C659.279 353.488 659.279 353.488 659.279 353.49C659.279 353.498 659.277 353.506 659.277 353.511C659.277 353.513 659.277 353.516 659.277 353.516C659.274 353.523 659.274 353.529 659.274 353.534C659.271 353.536 659.271 353.539 659.271 353.541C659.271 353.546 659.271 353.552 659.269 353.557C659.269 353.559 659.269 353.562 659.269 353.562C659.266 353.569 659.266 353.577 659.264 353.585C659.261 353.603 659.259 353.621 659.256 353.639C658.993 355.017 657.786 355.989 656.422 355.997C656.417 355.997 656.412 355.997 656.407 355.997Z" fill="#807F84"/>
<path d="M656.074 355.004C657.131 355.188 658.136 354.477 658.317 353.421C658.499 352.365 657.788 351.362 656.732 351.178C655.675 350.996 654.67 351.707 654.489 352.764C654.307 353.82 655.018 354.823 656.074 355.004Z" fill="#D8D9DD"/>
<path d="M656.407 355.035C656.407 355.035 656.407 355.035 656.409 355.035C656.407 355.035 656.407 355.035 656.407 355.035ZM656.404 355.035C656.302 355.035 656.197 355.025 656.092 355.01C656.197 355.025 656.302 355.035 656.404 355.035ZM656.059 355.002H656.057H656.059ZM656.046 354.999C656.044 354.999 656.041 354.999 656.041 354.999C656.041 354.999 656.044 354.999 656.046 354.999Z" fill="#A1A0A4"/>
<path d="M656.013 354.994C656.011 354.994 656.01 354.994 656.008 354.994C656.01 354.994 656.011 354.994 656.013 354.994ZM655.998 354.992C655.998 354.992 655.995 354.989 655.993 354.989C655.995 354.989 655.998 354.992 655.998 354.992ZM655.985 354.989C655.982 354.986 655.98 354.986 655.98 354.986C655.98 354.986 655.982 354.986 655.985 354.989ZM655.97 354.984C655.967 354.984 655.967 354.984 655.964 354.984C655.967 354.984 655.97 354.984 655.97 354.984ZM655.954 354.981C655.949 354.981 655.949 354.979 655.947 354.979C655.947 354.979 655.952 354.981 655.954 354.981ZM655.939 354.976C655.936 354.976 655.934 354.976 655.931 354.976C655.934 354.976 655.936 354.976 655.939 354.976ZM655.924 354.974C655.921 354.974 655.921 354.974 655.918 354.971C655.921 354.974 655.921 354.974 655.924 354.974ZM655.911 354.971C655.908 354.969 655.906 354.969 655.903 354.969C655.906 354.969 655.908 354.969 655.911 354.971ZM655.893 354.966C655.89 354.963 655.888 354.963 655.885 354.963C655.888 354.963 655.89 354.963 655.893 354.966ZM655.877 354.961C655.875 354.961 655.872 354.961 655.872 354.958C655.875 354.961 655.875 354.961 655.877 354.961ZM655.865 354.958C655.862 354.956 655.86 354.956 655.857 354.956C655.86 354.956 655.862 354.956 655.865 354.958ZM655.852 354.953C655.849 354.953 655.844 354.951 655.842 354.951C655.844 354.951 655.849 354.953 655.852 354.953ZM655.831 354.948C655.831 354.948 655.829 354.946 655.826 354.946C655.829 354.946 655.831 354.948 655.831 354.948ZM655.819 354.943C655.816 354.943 655.814 354.943 655.814 354.943C655.814 354.943 655.816 354.943 655.819 354.943ZM655.806 354.94C655.803 354.938 655.801 354.938 655.798 354.938C655.801 354.938 655.803 354.938 655.806 354.94ZM655.791 354.935C655.788 354.935 655.788 354.933 655.785 354.933C655.788 354.933 655.788 354.935 655.791 354.935ZM655.775 354.93C655.773 354.928 655.77 354.928 655.767 354.928C655.77 354.928 655.773 354.928 655.775 354.93ZM655.76 354.925C655.76 354.925 655.757 354.923 655.755 354.923C655.757 354.923 655.76 354.925 655.76 354.925ZM655.747 354.92C655.745 354.92 655.744 354.917 655.742 354.917C655.744 354.917 655.745 354.92 655.747 354.92ZM655.732 354.915C655.729 354.912 655.729 354.912 655.729 354.912C655.729 354.912 655.729 354.912 655.732 354.915ZM655.716 354.907C655.714 354.907 655.714 354.907 655.711 354.907C655.714 354.907 655.714 354.907 655.716 354.907ZM655.704 354.902C655.701 354.902 655.701 354.902 655.698 354.902C655.701 354.902 655.701 354.902 655.704 354.902ZM655.688 354.897H655.686H655.688ZM655.66 354.887C655.658 354.887 655.658 354.884 655.658 354.884C655.658 354.884 655.658 354.887 655.66 354.887ZM655.645 354.879C655.645 354.879 655.645 354.879 655.642 354.879C655.645 354.879 655.645 354.879 655.645 354.879Z" fill="#B7B6BA"/>
<path d="M658.307 353.478C658.31 353.465 658.312 353.449 658.315 353.437C658.312 353.449 658.31 353.465 658.307 353.478ZM658.32 353.408C658.32 353.406 658.32 353.406 658.32 353.403C658.32 353.403 658.32 353.406 658.32 353.408ZM658.323 353.393C658.323 353.391 658.323 353.391 658.323 353.388C658.323 353.391 658.323 353.391 658.323 353.393ZM658.323 353.378C658.325 353.378 658.325 353.375 658.325 353.373C658.325 353.375 658.325 353.378 658.323 353.378ZM658.328 353.36V353.357V353.36ZM658.328 353.345C658.328 353.345 658.328 353.342 658.33 353.339C658.328 353.342 658.328 353.345 658.328 353.345ZM658.33 353.332C658.33 353.329 658.33 353.327 658.33 353.327C658.33 353.327 658.33 353.329 658.33 353.332ZM658.333 353.316C658.333 353.314 658.333 353.314 658.333 353.311C658.333 353.314 658.333 353.314 658.333 353.316Z" fill="#A1A0A4"/>
<path d="M658.335 353.298C658.335 353.296 658.335 353.296 658.335 353.296C658.335 353.296 658.335 353.296 658.335 353.298ZM658.335 353.283V353.28V353.283ZM658.338 353.268V353.265V353.268Z" fill="#B7B6BA"/>
<path d="M656.407 355.035C656.404 355.035 656.404 355.035 656.404 355.035C656.302 355.035 656.197 355.025 656.092 355.01C656.087 355.007 656.08 355.007 656.074 355.004C656.069 355.004 656.064 355.004 656.059 355.002H656.057C656.051 355.002 656.049 355.002 656.046 354.999C656.044 354.999 656.041 354.999 656.041 354.999C656.036 354.999 656.034 354.999 656.031 354.997H656.028C656.026 354.997 656.026 354.997 656.026 354.997C656.021 354.997 656.018 354.994 656.013 354.994C656.011 354.994 656.01 354.994 656.008 354.994C656.005 354.992 656.003 354.992 655.998 354.992C655.998 354.992 655.995 354.989 655.993 354.989C655.99 354.989 655.987 354.989 655.985 354.989C655.982 354.987 655.98 354.987 655.98 354.987C655.975 354.987 655.972 354.987 655.97 354.984C655.97 354.984 655.967 354.984 655.964 354.984C655.962 354.981 655.957 354.981 655.954 354.981C655.952 354.981 655.947 354.979 655.947 354.979C655.944 354.979 655.941 354.979 655.939 354.976C655.936 354.976 655.934 354.976 655.931 354.976C655.929 354.974 655.926 354.974 655.924 354.974C655.921 354.974 655.921 354.974 655.918 354.971C655.916 354.971 655.913 354.971 655.911 354.971C655.908 354.969 655.906 354.969 655.903 354.969C655.901 354.969 655.895 354.966 655.893 354.966C655.89 354.964 655.888 354.964 655.885 354.964C655.883 354.964 655.88 354.961 655.877 354.961C655.875 354.961 655.875 354.961 655.872 354.958C655.87 354.958 655.867 354.958 655.865 354.958C655.862 354.956 655.86 354.956 655.857 354.956C655.854 354.956 655.854 354.953 655.852 354.953C655.849 354.953 655.844 354.951 655.842 354.951C655.839 354.951 655.837 354.948 655.831 354.948C655.831 354.948 655.829 354.946 655.826 354.946C655.824 354.946 655.821 354.946 655.819 354.943C655.816 354.943 655.814 354.943 655.814 354.943C655.811 354.941 655.808 354.941 655.806 354.941C655.803 354.938 655.801 354.938 655.798 354.938C655.796 354.938 655.793 354.935 655.791 354.935C655.788 354.935 655.788 354.933 655.785 354.933C655.78 354.933 655.778 354.93 655.775 354.93C655.773 354.928 655.77 354.928 655.767 354.928C655.765 354.925 655.762 354.925 655.76 354.925C655.76 354.925 655.757 354.923 655.755 354.923C655.752 354.923 655.75 354.92 655.747 354.92C655.745 354.92 655.744 354.918 655.742 354.918C655.737 354.918 655.734 354.915 655.732 354.915C655.729 354.912 655.729 354.912 655.729 354.912C655.724 354.912 655.719 354.91 655.716 354.907C655.714 354.907 655.714 354.907 655.711 354.907C655.709 354.905 655.706 354.905 655.704 354.902C655.701 354.902 655.701 354.902 655.698 354.902C655.696 354.9 655.691 354.9 655.688 354.897H655.686C655.675 354.892 655.668 354.889 655.66 354.887C655.658 354.887 655.658 354.884 655.658 354.884C655.652 354.884 655.65 354.882 655.645 354.879C655.645 354.879 655.645 354.879 655.642 354.879C655.64 354.877 655.635 354.877 655.629 354.874C655.177 354.677 654.821 354.314 654.627 353.874C654.895 354.127 655.238 354.309 655.629 354.375C655.739 354.393 655.852 354.403 655.959 354.403C656.888 354.403 657.709 353.736 657.872 352.792C657.939 352.401 657.883 352.017 657.734 351.68C658.131 352.053 658.363 352.588 658.343 353.158C658.343 353.173 658.343 353.189 658.343 353.204C658.34 353.209 658.34 353.214 658.34 353.219C658.34 353.235 658.338 353.25 658.338 353.265V353.268C658.338 353.273 658.335 353.276 658.335 353.281V353.283C658.335 353.288 658.335 353.291 658.335 353.296C658.335 353.296 658.335 353.296 658.335 353.299C658.333 353.304 658.333 353.306 658.333 353.311C658.333 353.314 658.333 353.314 658.333 353.316C658.333 353.319 658.33 353.322 658.33 353.327C658.33 353.327 658.33 353.329 658.33 353.332C658.33 353.334 658.33 353.337 658.33 353.339C658.328 353.342 658.328 353.345 658.328 353.345C658.328 353.35 658.328 353.352 658.328 353.357V353.36C658.325 353.365 658.325 353.37 658.325 353.373C658.325 353.375 658.325 353.378 658.323 353.378C658.323 353.38 658.323 353.386 658.323 353.388C658.323 353.391 658.323 353.391 658.323 353.393C658.32 353.396 658.32 353.401 658.32 353.403C658.32 353.406 658.32 353.406 658.32 353.409C658.317 353.411 658.317 353.416 658.317 353.421C658.315 353.426 658.315 353.432 658.315 353.437C658.312 353.449 658.31 353.465 658.307 353.478C658.123 354.391 657.317 355.033 656.409 355.035C656.407 355.035 656.407 355.035 656.407 355.035Z" fill="#E2E3E6"/>
<path d="M654.113 342.981C651.762 342.933 651.087 343.973 649.849 347.183C648.486 350.725 645.292 354.971 645.292 354.971C645.292 354.971 640.036 362.242 639.253 364.109C638.473 365.979 637.778 370.785 637.118 374.808C636.458 378.833 637.169 381.383 638.412 383.7C639.655 386.015 640.258 389.764 640.258 389.764L640.264 390.427C640.269 391.107 640.76 391.688 641.432 391.805L647.118 392.782C647.762 392.895 648.402 392.557 648.673 391.961L649.686 389.744C649.752 389.56 649.647 389.36 649.461 389.306C647.177 388.652 645.755 386.337 646.169 383.938C646.611 381.388 649.067 379.657 651.617 380.099C651.908 380.148 652.187 380.225 652.453 380.322C652.727 380.424 653.026 380.25 653.077 379.961L656.757 358.572C656.829 358.155 656.519 357.772 656.097 357.754C655.893 357.746 655.688 357.726 655.484 357.692C652.964 357.265 651.225 354.869 651.606 352.342C652.003 349.723 654.471 347.95 657.069 348.395C657.241 348.426 657.41 348.465 657.573 348.513C658.036 348.646 658.514 348.349 658.596 347.874L659.126 344.797C659.223 344.239 658.847 343.707 658.287 343.61L655.31 343.099C654.913 343.03 654.514 342.989 654.113 342.981Z" fill="#FF424D"/>
<path d="M642.128 391.785L642.563 389.25C642.601 389.035 642.847 388.925 643.033 389.043L643.663 389.445C644.264 389.828 644.576 390.534 644.455 391.235L644.297 392.158C644.266 392.337 644.095 392.46 643.913 392.429L642.399 392.169C642.218 392.138 642.097 391.964 642.128 391.785Z" fill="#CF283C"/>
<path d="M650.988 346.59C651.44 345.232 653.039 343.853 653.039 343.853C653.517 343.541 654.131 343.974 654 344.529L653.358 347.219C653.225 347.779 652.757 348.194 652.187 348.257C651.228 348.365 650.512 348.012 650.988 346.59Z" fill="white"/>
<path d="M647.333 392.805C647.299 392.979 647.453 393.133 647.627 393.094C648.115 392.992 648.542 392.664 648.762 392.189L649.898 389.703C649.97 389.496 649.854 389.273 649.642 389.212C649.21 389.089 648.806 388.91 648.435 388.687C648.307 388.613 648.146 388.687 648.118 388.831L647.333 392.805Z" fill="#DD1F31"/>
<path d="M656.108 348.209C656.069 348.406 656.218 348.59 656.417 348.598C656.64 348.608 656.865 348.631 657.092 348.669C657.282 348.703 657.468 348.746 657.65 348.797C658.167 348.946 658.696 348.618 658.788 348.089L659.374 344.677C659.481 344.055 659.064 343.467 658.445 343.36L657.56 343.206C657.31 343.165 657.072 343.329 657.023 343.577L656.108 348.209Z" fill="#DD1F31"/>
<path d="M651.276 370.286H649.987L639.281 368.444C639.246 368.631 639.166 369.053 639.061 369.633L638.944 369.066C639.021 368.639 639.074 368.365 639.087 368.301C639.105 368.155 639.529 364.818 641.414 362.086C643.32 359.326 646.578 355.232 646.611 355.191L646.665 355.122L646.744 355.16C646.785 355.181 650.571 357.078 654.507 357.894L654.463 358.106C650.816 357.352 647.297 355.674 646.726 355.395C646.289 355.945 643.358 359.654 641.593 362.209C639.893 364.674 639.402 367.644 639.317 368.227L651.276 370.286Z" fill="#FE3831"/>
<path d="M657.903 348.833C657.819 348.833 657.734 348.82 657.65 348.797C657.563 348.772 657.473 348.749 657.384 348.728C657.473 348.749 657.563 348.772 657.65 348.797C657.734 348.82 657.819 348.833 657.903 348.833C658.328 348.833 658.711 348.531 658.788 348.089L659.374 344.677C659.387 344.613 659.392 344.552 659.392 344.488C659.392 344.552 659.387 344.613 659.374 344.677L658.788 348.089C658.711 348.531 658.328 348.833 657.903 348.833Z" fill="#FCD296"/>
<path d="M657.384 348.728C657.366 348.725 657.351 348.72 657.333 348.718V348.715C657.351 348.72 657.366 348.725 657.384 348.728Z" fill="#3A202C"/>
<path d="M658.445 343.36L658.259 343.327L658.445 343.36Z" fill="#FCD296"/>
<path d="M657.903 348.833C657.819 348.833 657.734 348.82 657.65 348.797C657.563 348.772 657.473 348.749 657.384 348.728C657.366 348.726 657.351 348.72 657.333 348.715L658.259 343.327L658.445 343.36C659.003 343.454 659.394 343.94 659.392 344.488C659.392 344.552 659.387 344.613 659.374 344.677L658.788 348.089C658.711 348.531 658.328 348.833 657.903 348.833Z" fill="#DC1A1F"/>
<path d="M655.814 357.541C655.581 357.5 655.356 357.447 655.136 357.375C654.872 357.288 654.594 357.447 654.54 357.718L650.172 379.872C650.123 380.115 650.325 380.329 650.571 380.304C650.998 380.258 651.435 380.271 651.88 380.347C652.172 380.396 652.456 380.473 652.724 380.572C653.005 380.677 653.312 380.503 653.363 380.207L657.11 358.436C657.182 358.009 656.86 357.623 656.427 357.605C656.225 357.598 656.021 357.575 655.814 357.541Z" fill="#DD1F31"/>
<path d="M655.814 357.542C655.811 357.542 655.806 357.539 655.803 357.539L655.814 357.542Z" fill="#3A202C"/>
<path d="M655.072 370.286H653.609L655.803 357.539C655.806 357.539 655.811 357.541 655.814 357.541C656.021 357.574 656.225 357.598 656.427 357.605C656.821 357.621 657.12 357.94 657.12 358.319C657.12 358.357 657.115 358.395 657.11 358.436L655.072 370.286Z" fill="#DC1A1F"/>
<path d="M643.842 380.977L643.356 383.795C643.345 383.849 643.294 383.885 643.241 383.877L642.949 383.826C642.895 383.816 642.859 383.767 642.87 383.713L643.353 380.892C643.363 380.839 643.415 380.803 643.468 380.813L643.76 380.862C643.813 380.872 643.849 380.923 643.842 380.977Z" fill="#1A1A1A"/>
<path d="M646.716 365.715L646.23 368.534C646.223 368.587 646.171 368.626 646.118 368.616L645.826 368.564C645.772 368.557 645.737 368.506 645.744 368.452L646.23 365.631C646.238 365.577 646.289 365.541 646.343 365.552L646.637 365.603C646.691 365.61 646.726 365.662 646.716 365.715Z" fill="#1A1A1A"/>
<path d="M642.194 383.15L644.425 370.874C644.425 370.874 644.535 370.119 643.844 369.894C643.154 369.669 640.118 369.158 640.118 369.158C640.118 369.158 639.494 369.14 639.386 369.723C639.32 370.076 638.596 373.009 638.453 375.961C638.332 378.368 639.036 380.731 640.404 382.669L641.128 383.693C641.128 383.693 641.959 384.442 642.194 383.15Z" fill="#183658"/>
<path d="M640.739 367.853L643.918 368.401C644.333 368.472 644.727 368.214 644.811 367.815L646.862 358.222C646.908 358.002 646.847 357.766 646.681 357.608C646.453 357.39 646.036 357.298 645.325 358.066C644.085 359.403 641.307 362.869 640.857 364.25C640.57 365.13 640.312 366.301 640.161 367.035C640.082 367.416 640.343 367.787 640.739 367.853Z" fill="#183658"/>
<path d="M644.939 367.217L645.45 364.828L644.939 367.217ZM640.859 364.242C640.859 364.24 640.862 364.24 640.862 364.237C640.862 364.24 640.859 364.24 640.859 364.242ZM640.862 364.235C640.862 364.232 640.864 364.23 640.864 364.227C640.864 364.23 640.862 364.232 640.862 364.235ZM640.864 364.224C640.867 364.222 640.867 364.222 640.867 364.219C640.867 364.222 640.867 364.222 640.864 364.224ZM640.867 364.217C640.87 364.214 640.87 364.212 640.87 364.212C640.87 364.212 640.87 364.214 640.867 364.217ZM640.872 364.209C640.872 364.207 640.872 364.204 640.872 364.201C640.872 364.204 640.872 364.207 640.872 364.209ZM640.875 364.201C640.875 364.199 640.875 364.196 640.877 364.194C640.875 364.196 640.875 364.199 640.875 364.201ZM640.877 364.191C640.898 364.137 640.921 364.076 640.946 364.015C640.921 364.076 640.898 364.135 640.877 364.191ZM640.946 364.015C640.957 363.992 640.969 363.966 640.98 363.941C640.969 363.966 640.957 363.992 640.946 364.015ZM640.982 363.938C640.982 363.935 640.982 363.933 640.985 363.93C640.982 363.933 640.982 363.935 640.982 363.938ZM640.985 363.928C640.987 363.925 640.987 363.923 640.987 363.923C640.987 363.923 640.987 363.925 640.985 363.928ZM640.99 363.915C640.992 363.915 640.992 363.912 640.992 363.912C640.992 363.912 640.992 363.915 640.99 363.915ZM640.997 363.905V363.902V363.905Z" fill="#FF7B83"/>
<path d="M644.939 367.217L640.67 364.877C640.732 364.659 640.793 364.447 640.857 364.25C640.857 364.247 640.859 364.245 640.859 364.242C640.859 364.24 640.862 364.24 640.862 364.237C640.862 364.235 640.862 364.235 640.862 364.235C640.862 364.232 640.865 364.23 640.865 364.227C640.865 364.227 640.865 364.227 640.865 364.224C640.867 364.222 640.867 364.222 640.867 364.219V364.217C640.87 364.214 640.87 364.212 640.87 364.212C640.87 364.209 640.87 364.209 640.872 364.209C640.872 364.207 640.872 364.204 640.872 364.201C640.875 364.201 640.875 364.201 640.875 364.201C640.875 364.199 640.875 364.196 640.877 364.194V364.191C640.898 364.135 640.921 364.076 640.946 364.015C640.957 363.992 640.969 363.966 640.98 363.941C640.98 363.941 640.98 363.938 640.982 363.938C640.982 363.935 640.982 363.933 640.985 363.93C640.985 363.93 640.985 363.93 640.985 363.928C640.987 363.925 640.987 363.923 640.987 363.923C640.99 363.92 640.99 363.918 640.99 363.915C640.992 363.915 640.992 363.912 640.992 363.912C640.995 363.91 640.995 363.907 640.998 363.905V363.902C641 363.9 641 363.895 641.003 363.892C641.159 363.557 641.397 363.153 641.683 362.713L645.45 364.828L644.939 367.217Z" fill="#5E738A"/>
<path d="M645.642 363.92L645.808 363.148L645.642 363.92Z" fill="#FF7B83"/>
<path d="M645.642 363.92L642.189 361.971C642.343 361.754 642.504 361.534 642.668 361.311L645.836 363.02L645.808 363.148L645.642 363.92Z" fill="#5E738A"/>
<path d="M652.187 348.257C652.757 348.193 653.225 347.779 653.358 347.219L654 344.528C654.1 344.101 653.762 343.748 653.381 343.748C653.269 343.748 653.151 343.779 653.039 343.853C653.151 343.779 653.269 343.748 653.381 343.748C653.762 343.748 654.1 344.101 654 344.528L653.358 347.219C653.225 347.779 652.757 348.193 652.187 348.257Z" fill="#B781A5"/>
<path d="M651.885 348.275C651.622 348.275 651.389 348.229 651.21 348.124C651.251 348.122 651.294 348.117 651.34 348.112C651.911 348.048 652.379 347.633 652.512 347.073L653.151 344.383C653.2 344.181 653.149 343.991 653.039 343.853C653.151 343.779 653.269 343.748 653.381 343.748C653.762 343.748 654.1 344.101 654 344.529L653.358 347.219C653.225 347.779 652.757 348.194 652.187 348.257C652.082 348.27 651.982 348.275 651.885 348.275Z" fill="#B7DFFE"/>
<path d="M635.558 355.91L640.662 354.454L635.404 355.186L635.558 355.91Z" fill="#EAF5F9"/>
<path d="M639.678 354.662C639.739 354.948 640.018 355.13 640.304 355.071C640.591 355.01 640.773 354.731 640.711 354.444C640.652 354.158 640.371 353.976 640.087 354.038C639.801 354.097 639.619 354.378 639.678 354.662Z" fill="#02CCC0"/>
<path d="M636.366 356.851L637.246 356.667C637.57 356.598 637.778 356.278 637.708 355.956L637.338 354.194C637.269 353.871 636.951 353.662 636.627 353.731L635.747 353.918L636.366 356.851Z" fill="#294A5C"/>
<path d="M620.105 359.17L614.846 359.902L619.954 358.447L620.105 359.17Z" fill="#294A5C"/>
<path d="M615.831 359.695C615.892 359.979 615.711 360.26 615.424 360.321C615.138 360.38 614.859 360.199 614.798 359.912C614.739 359.628 614.921 359.347 615.207 359.286C615.491 359.227 615.772 359.408 615.831 359.695Z" fill="#02CCC0"/>
<path d="M619.747 360.357L618.867 360.544C618.542 360.613 618.225 360.406 618.156 360.081L617.785 358.319C617.716 357.997 617.923 357.677 618.248 357.61L619.128 357.424L619.747 360.357Z" fill="#294A5C"/>
<path d="M635.558 355.91L640.662 354.454L635.404 355.186L635.558 355.91Z" fill="#294A5C"/>
<path d="M639.678 354.662C639.739 354.948 640.018 355.13 640.304 355.071C640.591 355.01 640.773 354.731 640.711 354.444C640.652 354.158 640.371 353.976 640.087 354.038C639.801 354.097 639.619 354.378 639.678 354.662Z" fill="#02CCC0"/>
<path d="M636.366 356.851L637.246 356.667C637.57 356.598 637.778 356.278 637.708 355.956L637.338 354.194C637.269 353.871 636.951 353.662 636.627 353.731L635.747 353.918L636.366 356.851Z" fill="#294A5C"/>
<path d="M640.205 394.838L638.263 395.248L635.972 384.388L637.913 383.976L640.205 394.838Z" fill="#294A5C"/>
<path d="M639.381 388.087C639.56 388.938 639.015 389.777 638.161 389.956C637.31 390.135 636.471 389.59 636.292 388.739C636.113 387.885 636.657 387.048 637.509 386.867C638.363 386.688 639.2 387.232 639.381 388.087Z" fill="#02CCC0"/>
<path d="M633.036 396.35L631.095 396.762L628.803 385.9L630.744 385.49L633.036 396.35Z" fill="#294A5C"/>
<path d="M632.893 363.316C632.849 363.114 632.65 362.984 632.445 363.025C632.65 362.984 632.78 362.782 632.737 362.58C632.693 362.375 632.494 362.245 632.289 362.288L625.616 363.697C625.412 363.738 625.281 363.94 625.325 364.142C625.368 364.347 625.568 364.477 625.772 364.434C625.568 364.477 625.437 364.677 625.481 364.881C625.524 365.084 625.724 365.214 625.926 365.17C625.724 365.214 625.593 365.413 625.637 365.618C625.678 365.823 625.88 365.953 626.082 365.91L632.757 364.5C632.959 364.457 633.09 364.257 633.049 364.055C633.005 363.851 632.806 363.72 632.601 363.764C632.806 363.72 632.936 363.521 632.893 363.316Z" fill="#294A5C"/>
<path d="M621.933 353.994L620.57 344.188L623.284 353.71L621.933 353.994Z" fill="#294A5C"/>
<path d="M630.445 352.199L629.079 342.393L631.793 351.912L630.445 352.199Z" fill="#294A5C"/>
<path d="M633.164 352.58L620.895 355.168L620.445 353.038C620.279 352.252 620.78 351.482 621.565 351.316L630.992 349.326C631.778 349.16 632.547 349.664 632.714 350.447L633.164 352.58Z" fill="#294A5C"/>
<path d="M622.614 373.979C621.105 374.299 619.621 373.332 619.302 371.82C618.984 370.311 619.949 368.828 621.46 368.511L622.614 373.979Z" fill="#294A5C"/>
<path d="M639.24 370.47C640.749 370.153 641.716 368.669 641.397 367.158C641.079 365.649 639.596 364.682 638.084 365.002L639.24 370.47Z" fill="#294A5C"/>
<path d="M635.785 361.792L622.266 364.644C621.409 364.826 620.568 364.278 620.386 363.419L618.565 354.79C618.383 353.933 618.933 353.091 619.79 352.91L633.309 350.056C634.166 349.876 635.01 350.424 635.189 351.283L637.01 359.912C637.192 360.769 636.645 361.611 635.785 361.792Z" fill="#02CCC0"/>
<path d="M628.245 359.516C627.463 359.68 626.77 359.616 626.189 359.327C625.8 359.132 625.47 358.843 625.202 358.467C625.153 358.398 625.171 358.304 625.243 358.258C625.307 358.217 625.396 358.232 625.44 358.296C625.882 358.923 626.708 359.539 628.184 359.23C629.66 358.918 630.164 358.017 630.317 357.268C630.332 357.191 630.407 357.14 630.483 357.153C630.565 357.166 630.621 357.245 630.604 357.327C630.511 357.779 630.325 358.178 630.049 358.511C629.634 359.012 629.028 359.35 628.245 359.516Z" fill="#294A5C"/>
<path d="M635.113 360.592L622.399 363.275C621.317 363.503 620.258 362.812 620.031 361.73L620.302 363.017C620.529 364.096 621.588 364.787 622.67 364.559L635.384 361.876C636.463 361.649 637.153 360.59 636.926 359.508L636.655 358.224C636.882 359.303 636.192 360.365 635.113 360.592Z" fill="#06BFAD"/>
<path d="M640.639 383.782L626.711 386.721C625.967 386.88 625.235 386.404 625.079 385.657L621.345 367.969C621.189 367.225 621.665 366.493 622.409 366.335L636.338 363.396C637.082 363.24 637.813 363.716 637.972 364.46L641.703 382.151C641.862 382.895 641.384 383.626 640.639 383.782Z" fill="#02CCC0"/>
<path d="M639.762 382.626L627.049 385.309C625.967 385.537 624.908 384.846 624.678 383.764L624.951 385.051C625.179 386.13 626.238 386.82 627.32 386.593L640.033 383.91C641.113 383.682 641.803 382.623 641.576 381.542L641.304 380.258C641.532 381.337 640.842 382.398 639.762 382.626Z" fill="#06BFAD"/>
<path d="M630.839 370.286H623.243C623.199 369.7 623.596 369.16 624.187 369.035L629.138 367.991C629.22 367.974 629.302 367.963 629.384 367.963C629.936 367.963 630.432 368.35 630.55 368.912L630.839 370.286Z" fill="#0EA5A2"/>
<path d="M638.233 370.286H636.527L637.645 370.05C637.371 368.751 636.248 367.856 635.005 367.856C634.826 367.856 634.647 367.874 634.465 367.912C633.307 368.158 632.488 369.14 632.373 370.286H631.698L631.373 368.738C631.235 368.094 631.647 367.46 632.292 367.324L636.215 366.498C636.297 366.48 636.381 366.472 636.463 366.472C637.013 366.472 637.509 366.856 637.627 367.419L638.233 370.286Z" fill="#0EA5A2"/>
<path d="M631.448 377.723L631.077 377.803C631.008 377.818 630.941 377.774 630.926 377.705L629.217 369.603C629.202 369.534 629.245 369.467 629.315 369.455L629.685 369.375C629.754 369.36 629.821 369.404 629.836 369.473L631.545 377.575C631.56 377.644 631.517 377.711 631.448 377.723Z" fill="#294A5C"/>
<path d="M634.466 367.912C633.023 368.217 632.107 369.667 632.419 371.153L637.645 370.051C637.333 368.565 635.908 367.608 634.466 367.912Z" fill="#294A5C"/>
<path d="M634.545 368.291C633.442 368.524 632.729 369.572 632.954 370.634L636.946 369.79C636.724 368.728 635.647 368.058 634.545 368.291Z" fill="#EAF5F9"/>
<path d="M633.977 373.37C634.026 373.606 633.877 373.836 633.642 373.884C633.407 373.933 633.176 373.785 633.128 373.549C633.079 373.314 633.228 373.084 633.463 373.035C633.698 372.987 633.928 373.135 633.977 373.37Z" fill="#294A5C"/>
<path d="M638.13 372.493C638.179 372.728 638.028 372.959 637.795 373.007C637.56 373.058 637.33 372.907 637.281 372.672C637.23 372.439 637.381 372.209 637.616 372.158C637.849 372.109 638.079 372.26 638.13 372.493Z" fill="#294A5C"/>
<path d="M634.824 377.375C634.872 377.611 634.721 377.841 634.488 377.889C634.253 377.941 634.023 377.79 633.974 377.554C633.923 377.322 634.074 377.091 634.309 377.04C634.542 376.992 634.772 377.143 634.824 377.375Z" fill="#294A5C"/>
<path d="M638.975 376.501C639.023 376.733 638.875 376.966 638.639 377.015C638.404 377.063 638.174 376.915 638.125 376.68C638.077 376.444 638.225 376.214 638.46 376.166C638.696 376.114 638.926 376.265 638.975 376.501Z" fill="#294A5C"/>
<path d="M639.852 379.81L626.343 382.659C626.135 382.703 625.933 382.572 625.89 382.365C625.844 382.158 625.977 381.956 626.184 381.912L639.693 379.061C639.9 379.017 640.102 379.15 640.146 379.355C640.189 379.562 640.059 379.767 639.852 379.81Z" fill="#294A5C"/>
<path d="M640.161 381.281L626.652 384.13C626.445 384.173 626.243 384.043 626.199 383.836C626.156 383.629 626.289 383.427 626.493 383.383L640.003 380.531C640.21 380.488 640.414 380.621 640.458 380.828C640.501 381.033 640.368 381.237 640.161 381.281Z" fill="#294A5C"/>
<path d="M634.78 369.994L635.253 368.424L635.133 369.958L634.78 369.994Z" fill="#B0C1CA"/>
<path d="M635.335 370.13L635.332 370.107C635.286 369.894 635.077 369.756 634.864 369.802C634.65 369.848 634.514 370.058 634.56 370.27L634.565 370.293L635.335 370.13Z" fill="#02CCC0"/>
<path d="M632.21 389.598C632.391 390.452 631.846 391.289 630.992 391.468C630.141 391.649 629.302 391.102 629.123 390.25C628.944 389.399 629.488 388.56 630.34 388.381C631.194 388.202 632.031 388.746 632.21 389.598Z" fill="#02CCC0"/>
<path d="M668.351 378.01C668.351 378.01 666.179 381.289 664.494 382.48C662.809 383.67 662.563 385.11 662.555 385.9C662.548 386.688 663.179 388.506 663.179 388.506C663.179 388.506 665.087 388.248 665.353 389.365L662.187 390.125C662.187 390.125 660.282 385.457 660.433 384.437C660.581 383.416 662.678 378.186 662.136 376.739C661.594 375.294 661.021 372.081 661.021 372.081L665.502 370.222L668.351 378.01Z" fill="#EAB881"/>
<path d="M655.663 373.559C655.663 373.559 654.747 381.265 650.215 383.728C650.215 383.728 649.744 384.237 649.783 385.212C649.819 386.189 651.678 390.67 652.097 390.767C652.514 390.864 654.279 390.833 654.548 391.951L651.939 392.578C651.939 392.578 645.524 388.005 644.632 384.278C643.742 380.552 646.223 369.516 646.223 369.516C646.223 369.516 654.218 369.178 654.264 369.365C654.307 369.552 655.663 373.559 655.663 373.559Z" fill="#EAB881"/>
<path d="M637.038 394.521C637.215 395.268 638.141 395.833 638.698 395.7C639.023 395.624 639.757 395.301 640.312 395.281C640.709 395.265 641.044 395.171 640.859 394.818C640.194 393.529 638.504 394.063 638.35 393.421C638.256 393.03 638.598 391.306 639.015 389.682C639.394 388.199 639.831 386.797 640.056 386.554C640.527 386.048 646.258 384.48 647.703 383.935C649.149 383.393 650.906 375.094 650.906 375.094C653.55 375.444 663.614 373.038 663.614 373.038C663.589 375.406 664.773 377.882 666.568 379.618C667.571 380.59 671.167 381.063 674.215 381.311C676.617 381.506 678.678 381.559 678.862 381.6C679.279 381.698 679.689 382.585 679.824 383.145C679.957 383.703 678.591 385.409 680.128 385.24C681.663 385.068 681.819 383.258 681.136 382.043C680.451 380.828 678.461 379.925 675.735 378.408C675.678 378.378 675.625 378.347 675.571 378.316C672.993 376.859 672.596 375.992 672.42 375.263C672.243 374.516 673.499 371.951 674.844 367.69C676.187 363.426 672.632 351.866 672.632 351.866C681.888 348.963 680.07 344.669 680.07 344.669C680.07 344.669 674.809 345.73 673.371 345.485C671.931 345.237 670.839 343.134 668.514 343.298C666.187 343.459 663.11 344.592 662.445 345.932C661.78 347.273 664.018 355.8 662.379 357.178C662.205 357.324 661.811 357.574 661.238 357.91C658.415 359.567 651.305 363.263 645.752 366.219C641.803 368.321 638.639 370.053 638.361 370.413C637.606 371.38 640.082 379.26 640.307 380.191C640.529 381.122 635.465 385.485 635.458 386.276C635.453 386.785 636.033 389.744 636.496 391.987C636.754 393.232 636.974 394.258 637.038 394.521Z" fill="#F5E3C7"/>
<path d="M641.443 368.559C641.443 368.559 632.898 372.242 629.476 368.258C626.056 364.273 628.754 360.899 628.754 360.899C628.754 360.899 626.627 362.319 626.895 366.15C627.161 369.979 631.747 373.946 639.847 372.526C647.946 371.107 641.443 368.559 641.443 368.559Z" fill="#F5E3C7"/>
<path d="M672.632 351.866C672.632 351.866 670.596 352.275 669.578 352.216C669.578 352.216 675.33 360.746 675.144 365.523C675.144 365.523 675.292 358.751 672.632 351.866Z" fill="#EFD0A8"/>
<path d="M663.614 373.038L664.318 370.503C664.318 370.503 654.76 374.45 650.906 375.094C650.906 375.094 657.906 375.087 663.614 373.038Z" fill="#EFD0A8"/>
<path d="M645.752 366.219C645.849 366.291 645.952 366.358 646.054 366.424C646.977 367.005 647.982 367.465 649.026 367.785C649.729 368.002 650.491 368.153 651.189 367.93C651.765 367.749 652.235 367.335 652.775 367.061C653.315 366.785 653.913 366.657 654.507 366.529C655.445 366.329 656.384 366.13 657.322 365.928C657.734 365.841 658.177 365.734 658.445 365.411C658.586 365.24 658.663 365.028 658.744 364.82C659.11 363.892 659.645 363.028 660.312 362.286C660.65 361.91 661.021 361.562 661.264 361.122C661.773 360.191 661.67 358.877 661.238 357.91C658.415 359.567 651.305 363.263 645.752 366.219Z" fill="#4A263E"/>
<path d="M680.07 344.669C680.07 344.669 680.819 345.72 680.052 346.602C680.052 346.602 679.602 347.048 679.246 346.485C678.729 345.674 677.845 345.541 677.898 345.065C677.952 344.59 679.893 344.334 680.07 344.669Z" fill="#4A263E"/>
<path d="M671.809 346.444C671.809 346.444 670.11 343.933 668.663 344.631C667.215 345.332 668.231 348.191 668.77 348.375C669.312 348.557 670.136 348.36 670.995 347.969C671.852 347.577 672.417 347.196 671.809 346.444Z" fill="#F5E3C7"/>
<path d="M637.038 394.521C637.215 395.268 638.141 395.833 638.698 395.7C639.023 395.624 639.757 395.301 640.312 395.281C640.709 395.265 641.044 395.171 640.859 394.818C640.195 393.529 638.504 394.063 638.35 393.421C638.256 393.03 638.599 391.306 639.015 389.682C638.801 389.534 638.54 389.465 638.297 389.544C637.88 389.682 637.701 390.161 637.576 390.58C637.524 390.749 637.473 390.92 637.422 391.089C637.386 391.212 637.348 391.334 637.274 391.437C637.113 391.654 636.821 391.726 636.606 391.889C636.565 391.92 636.529 391.953 636.496 391.987C636.755 393.232 636.975 394.258 637.038 394.521Z" fill="#F5E3C7"/>
<path d="M674.026 380.938C674.09 381.063 674.151 381.186 674.215 381.311C676.617 381.506 678.678 381.559 678.862 381.6C679.279 381.698 679.689 382.585 679.824 383.145C679.957 383.703 678.591 385.409 680.128 385.24C681.663 385.068 681.819 383.258 681.136 382.043C680.451 380.828 678.461 379.925 675.735 378.408C675.678 378.378 675.625 378.347 675.571 378.316C675.425 378.378 675.284 378.465 675.231 378.608C675.169 378.772 675.244 378.958 675.203 379.13C675.141 379.38 674.862 379.503 674.612 379.565C674.361 379.626 674.082 379.674 673.924 379.877C673.691 380.173 673.855 380.603 674.026 380.938Z" fill="#F5E3C7"/>
<path d="M671 346.774C671.026 346.769 671.046 346.756 671.062 346.733C671.093 346.687 671.082 346.626 671.036 346.592C670.768 346.403 669.934 346.068 669.31 346.784C669.272 346.828 669.277 346.892 669.32 346.928C669.361 346.966 669.428 346.961 669.463 346.92C670.087 346.204 670.885 346.736 670.921 346.759C670.944 346.777 670.975 346.782 671 346.774Z" fill="black"/>
<path d="M640.65 395.309C640.798 395.273 640.895 395.215 640.944 395.13C640.997 395.036 640.99 394.921 640.921 394.785C640.519 394.01 639.778 393.872 639.182 393.762C638.785 393.69 638.471 393.632 638.417 393.404C638.335 393.069 638.609 391.545 639.082 389.698C639.499 388.056 639.911 386.81 640.105 386.601C640.402 386.284 643.005 385.483 645.097 384.841C646.241 384.491 647.228 384.189 647.726 384C649.146 383.468 650.793 375.943 650.962 375.161C656.785 375.222 662.747 373.386 663.545 373.13C663.553 375.429 664.66 377.867 666.52 379.667C667.335 380.457 669.921 381.033 674.21 381.378C675.653 381.496 676.967 381.562 677.837 381.606C678.384 381.631 678.781 381.652 678.847 381.667C679.223 381.754 679.625 382.606 679.758 383.161C679.796 383.322 679.678 383.631 679.563 383.931C679.389 384.388 679.208 384.862 679.417 385.13C679.538 385.289 679.773 385.348 680.136 385.307C680.701 385.243 681.128 384.959 681.374 384.483C681.719 383.808 681.648 382.813 681.195 382.01C680.617 380.987 679.144 380.186 677.105 379.081C676.678 378.851 676.236 378.611 675.768 378.35C675.711 378.319 675.658 378.289 675.604 378.258C673.046 376.813 672.655 375.946 672.486 375.248C672.387 374.828 672.786 373.744 673.389 372.099C673.819 370.925 674.356 369.462 674.908 367.71L674.778 367.67C674.228 369.419 673.691 370.879 673.261 372.053C672.627 373.78 672.246 374.821 672.356 375.278C672.538 376.038 672.931 376.905 675.538 378.378C675.591 378.409 675.645 378.44 675.701 378.47C676.172 378.731 676.612 378.969 677.041 379.202C679.059 380.296 680.52 381.087 681.077 382.076C681.507 382.841 681.579 383.785 681.251 384.422C681.031 384.854 680.64 385.115 680.121 385.171C679.814 385.207 679.614 385.163 679.525 385.048C679.364 384.841 679.538 384.383 679.691 383.979C679.819 383.647 679.937 383.332 679.888 383.13C679.75 382.55 679.333 381.642 678.878 381.534C678.801 381.516 678.489 381.501 677.842 381.47C676.975 381.427 675.66 381.36 674.22 381.243C669.965 380.9 667.407 380.337 666.614 379.57C664.783 377.798 663.66 375.294 663.681 373.038L663.683 372.943L663.591 372.971C663.527 372.994 657.128 375.102 650.908 375.025H650.852L650.839 375.079C650.821 375.161 649.074 383.35 647.68 383.874C647.184 384.058 646.2 384.363 645.059 384.711C642.842 385.391 640.327 386.163 640.005 386.509C639.749 386.787 639.276 388.383 638.949 389.665C638.547 391.243 638.184 393.02 638.284 393.437C638.358 393.749 638.729 393.818 639.156 393.897C639.724 394.002 640.43 394.13 640.801 394.849C640.847 394.938 640.854 395.01 640.826 395.061C640.79 395.123 640.673 395.199 640.307 395.212C639.913 395.227 639.448 395.386 639.072 395.511C638.916 395.565 638.78 395.611 638.683 395.634C638.164 395.759 637.274 395.215 637.102 394.506C637.041 394.245 636.821 393.227 636.563 391.974C636.32 390.787 635.519 386.869 635.527 386.278C635.529 385.949 636.606 384.816 637.65 383.721C639.051 382.248 640.504 380.723 640.371 380.176C640.333 380.012 640.228 379.649 640.082 379.145C639.634 377.59 638.798 374.693 638.453 372.649L638.317 372.67C638.665 374.723 639.501 377.624 639.951 379.184C640.097 379.685 640.202 380.048 640.24 380.207C640.353 380.682 638.798 382.317 637.55 383.629C636.394 384.844 635.394 385.892 635.391 386.276C635.384 386.882 636.184 390.81 636.43 392C636.688 393.256 636.908 394.276 636.972 394.539C637.159 395.325 638.128 395.908 638.714 395.767C638.816 395.742 638.957 395.695 639.115 395.642C639.463 395.524 639.939 395.363 640.312 395.348C640.445 395.343 640.558 395.33 640.65 395.309Z" fill="black"/>
<path d="M641.476 368.618C642.801 367.882 644.008 367.224 645.783 366.281C647.292 365.475 648.941 364.605 650.537 363.761C654.803 361.506 659.215 359.176 661.274 357.968C661.878 357.613 662.254 357.373 662.422 357.229C663.43 356.383 663.031 353.053 662.681 350.112C662.458 348.247 662.248 346.485 662.507 345.963C663.146 344.672 666.208 343.526 668.517 343.365C669.893 343.27 670.839 343.989 671.676 344.62C672.238 345.048 672.77 345.449 673.359 345.551L673.382 345.418C672.827 345.321 672.307 344.93 671.757 344.513C670.903 343.863 669.934 343.129 668.509 343.229C666.156 343.395 663.062 344.531 662.384 345.902C662.108 346.462 662.31 348.16 662.545 350.127C662.875 352.889 663.287 356.326 662.335 357.124C662.174 357.263 661.793 357.505 661.205 357.851C659.149 359.055 654.739 361.388 650.473 363.641C648.877 364.485 647.228 365.355 645.721 366.16C643.944 367.107 642.734 367.761 641.409 368.501L641.476 368.618Z" fill="black"/>
<path d="M663.678 373.056L664.537 370.002L664.407 369.966L663.548 373.017L663.678 373.056Z" fill="black"/>
<path d="M638.376 372.8L638.363 372.664C634.67 373.033 631.455 372.24 629.307 370.429C627.905 369.247 627.072 367.726 626.962 366.145C626.77 363.408 627.823 361.91 628.414 361.293C628.197 361.674 627.91 362.286 627.765 363.071C627.537 364.311 627.639 366.222 629.424 368.301C630.839 369.951 633.373 370.526 636.752 369.969C639.297 369.549 641.448 368.631 641.468 368.621L641.414 368.495C641.394 368.506 639.256 369.421 636.729 369.836C634.407 370.219 631.274 370.247 629.527 368.214C627.777 366.176 627.678 364.306 627.9 363.096C628.141 361.787 628.8 360.951 628.808 360.943L629.082 360.6L628.716 360.843C628.696 360.859 626.56 362.327 626.826 366.153C626.939 367.772 627.788 369.327 629.217 370.531C631.396 372.368 634.647 373.173 638.376 372.8Z" fill="black"/>
<path d="M641.115 378.166L641.051 376.086L640.916 376.092L640.98 378.171L641.115 378.166Z" fill="black"/>
<path d="M641.762 379.058L641.701 376.979L641.565 376.984L641.627 379.063L641.762 379.058Z" fill="black"/>
<path d="M673.287 367.432L673.607 364.516L673.471 364.501L673.151 367.416L673.287 367.432Z" fill="black"/>
<path d="M672.346 368.605L672.665 365.692L672.53 365.677L672.21 368.593L672.346 368.605Z" fill="black"/>
<path d="M664.42 344.301C664.42 344.301 668.016 347.971 668.246 349.667C668.476 351.365 664.619 352.813 663.545 352.72C662.471 352.626 661.793 346.13 662.131 345.347C662.468 344.567 663.931 344.094 664.42 344.301Z" fill="#4A263E"/>
<path d="M672.76 351.889C674.238 351.536 675.428 351.002 676.284 350.529C677.809 349.685 678.637 348.838 678.645 348.83L678.548 348.736C678.515 348.769 675.249 352.068 669.578 352.148L669.581 352.286C670.75 352.268 671.814 352.114 672.76 351.889Z" fill="black"/>
<path d="M674.515 358.365C674.302 355.992 672.711 351.884 672.696 351.843L672.568 351.892C672.586 351.933 674.169 356.025 674.379 358.378L674.515 358.365Z" fill="black"/>
<path d="M662.062 379.043C662.43 377.109 662.223 376.631 662.059 376.245C662.028 376.173 662 376.107 661.977 376.035C661.834 375.585 661.407 373.69 661.402 373.672L661.269 373.703C661.287 373.779 661.704 375.621 661.847 376.076C661.872 376.155 661.901 376.225 661.934 376.299C662.092 376.667 662.289 377.125 661.929 379.017L662.062 379.043Z" fill="black"/>
<path d="M665.42 389.35C665.205 388.35 663.532 388.414 663.22 388.437C663.051 388.082 661.901 385.486 663.287 383.839L663.182 383.752C661.64 385.583 663.103 388.509 663.118 388.539L663.138 388.58L663.184 388.575C663.205 388.573 665.08 388.417 665.289 389.381L665.42 389.35Z" fill="black"/>
<path d="M654.614 391.951C654.614 391.91 654.583 390.905 652.126 390.7C652.028 390.598 651.371 389.813 650.026 386.015L649.898 386.061C651.381 390.25 652.028 390.798 652.054 390.818L652.069 390.831L652.09 390.833C654.432 391.023 654.478 391.943 654.478 391.954L654.614 391.951Z" fill="black"/>
<path d="M673.972 356.038C674.259 355.971 674.43 355.92 674.466 355.91L673.906 354.02C673.855 354.035 668.637 355.531 662.862 353.841L662.307 355.733C667.658 357.299 672.451 356.403 673.972 356.038Z" fill="#ED2B47"/>
<path d="M673.86 354.104C673.238 354.27 668.315 355.487 662.908 353.925L662.392 355.687C667.752 357.237 672.596 356.298 673.957 355.973C674.159 355.925 674.302 355.884 674.382 355.863L673.86 354.104ZM662.289 355.797L662.223 355.779L662.816 353.756L662.88 353.774C668.624 355.457 673.834 353.968 673.885 353.953L673.952 353.935L674.55 355.956L674.486 355.973C674.456 355.984 674.284 356.035 673.99 356.104C672.614 356.434 667.706 357.385 662.289 355.797Z" fill="black"/>
<path d="M675.837 377.36C675.837 377.36 677.571 375.309 676.423 375.224L677.711 371.94L674.704 367.736C674.018 370.181 669.916 384.329 668.952 386.792L670.343 387.337C670.343 387.337 673.095 382.112 674.087 381.117C675.08 380.119 675.497 379.631 675.149 379.304C675.149 379.304 677.008 377.439 675.837 377.36Z" fill="#824547"/>
<path d="M675.837 377.36C675.837 377.36 677.571 375.309 676.423 375.224L677.711 371.94L674.704 367.736C674.018 370.181 669.916 384.329 668.952 386.792L670.343 387.337C670.343 387.337 673.095 382.112 674.087 381.117C675.08 380.119 675.497 379.631 675.149 379.304C675.149 379.304 677.008 377.439 675.837 377.36Z" fill="#824547"/>
<path d="M675.837 377.36C675.837 377.36 677.571 375.309 676.423 375.224L677.711 371.94L674.704 367.736C674.018 370.181 669.916 384.329 668.952 386.792L670.343 387.337C670.343 387.337 673.095 382.112 674.087 381.117C675.08 380.119 675.497 379.631 675.149 379.304C675.149 379.304 677.008 377.439 675.837 377.36Z" fill="#F97923"/>
<path d="M696.663 385.532C696.663 385.532 698.54 383.537 697.21 383.381L698.5 380.097L694.76 375.606C694.118 378.066 690.244 392.304 689.277 394.767L690.919 395.412C690.919 395.412 693.783 390.23 694.87 389.271C695.957 388.312 696.41 387.836 695.988 387.481C695.988 387.481 698.024 385.685 696.663 385.532Z" fill="#F97923"/>
<path d="M688.351 326.518L683.868 326.85C683.489 326.878 683.131 327.029 682.847 327.28C682.425 327.656 682.251 328.237 682.394 328.781C682.497 329.162 682.752 329.482 683.1 329.664L688.013 332.226L691.177 333.306L694.18 332.717C694.18 332.717 695.891 330.019 695.927 329.925C695.965 329.83 696.51 327.543 696.51 327.543C696.51 327.543 694.377 324.94 694.251 324.917C694.123 324.896 691.456 324.421 691.456 324.421L689.54 325.08C689.07 325.454 688.681 325.914 688.392 326.439L688.351 326.518Z" fill="#FEC786"/>
<path d="M692.607 323.748C692.607 323.748 691.551 322.193 690.883 322.51C690.216 322.827 691.011 324.244 691.011 324.244C691.011 324.244 689.052 323.948 688.732 324.856C688.732 324.856 688.648 325.763 691.418 325.257C691.418 325.257 690.827 325.93 691.678 326.119C692.528 326.308 693.228 325.676 693.228 325.676C693.228 325.676 692.561 326.592 693.809 326.411C693.809 326.411 693.464 327.272 694.599 326.94L694.886 327.546C694.886 327.546 693.883 327.058 693.648 327.561C693.413 328.068 694.343 328.651 694.343 328.651C694.343 328.651 693.666 328.531 693.901 329.04C694.136 329.549 694.502 329.817 694.502 329.817C694.502 329.817 693.494 329.567 693.563 330.411C693.563 330.411 692.921 330.339 693.175 330.983C693.175 330.983 692.545 330.464 692.313 330.643C692.077 330.822 692.185 331.428 692.185 331.428C692.185 331.428 691.786 331.106 691.469 331.454C691.152 331.799 691.302 332.385 691.302 332.385C691.302 332.385 690.883 331.423 690.433 331.646C689.983 331.868 690.141 332.618 690.141 332.618C690.141 332.618 689.666 331.707 688.934 332.145C688.934 332.145 688.543 331.428 688.131 331.83C687.722 332.232 688.052 332.868 688.052 332.868C688.052 332.868 686.886 333.116 687.264 333.792C687.264 333.792 687.528 334.019 687.758 333.984C687.758 333.984 685.796 335.805 685.614 337.999C685.614 337.999 683.139 340.216 683.2 341.582C683.264 342.945 684.044 342.528 684.044 342.528C684.044 342.528 680.975 344.531 682.047 345.495C682.047 345.495 682.346 345.702 682.643 345.728C682.643 345.728 679.174 348.426 680.645 349.201C680.645 349.201 676.1 353.488 677.504 354.764C677.504 354.764 676.364 354.986 676.502 355.656C676.637 356.326 677.336 356.112 677.336 356.112C677.336 356.112 674.062 358.595 673.829 359.971C673.596 361.347 674.998 361.101 674.998 361.101C674.998 361.101 673.254 363.749 674.868 364.347C674.868 364.347 671.857 368.508 674.729 369.13C674.729 369.13 674.484 370.772 675.645 370.396C675.645 370.396 675.453 372.457 677.095 372.703C677.095 372.703 676.87 374.063 678.366 374.542C678.366 374.542 675.297 385.966 674.169 388.838L675.678 389.432C675.678 389.432 678.481 384.227 679.517 383.248C680.553 382.268 680.988 381.785 680.604 381.444C680.604 381.444 682.548 379.611 681.287 379.498C681.287 379.498 683.088 377.473 681.855 377.357L682.192 376.496C682.192 376.496 683.331 377.685 683.566 376.764C683.566 376.764 687.111 380.565 687.975 378.222C687.975 378.222 689.814 381.153 690.891 380.074C690.891 380.074 692.579 382.419 693.423 380.268C693.423 380.268 693.996 381.762 694.732 381.779C695.469 381.795 695.459 380.669 695.459 380.669C695.459 380.669 697.566 384.069 700.732 382.557C700.732 382.557 699.653 389.833 697.218 397.882L698.443 398.363L700.612 394.775C700.612 394.775 703.095 393.25 702.008 392.606C702.008 392.606 704.95 390.462 703.274 390.023C703.274 390.023 706.789 387.161 704.824 386.537C704.824 386.537 710.057 381.232 707.101 381.196C707.101 381.196 710.668 373.212 709.743 371.69C709.743 371.69 714.689 371.455 714.538 369.439C714.344 369.291 714.07 368.603 712.044 369.332C712.044 369.332 716.254 367.902 715.766 366.623C715.275 365.344 712.809 366.552 712.809 366.552C712.809 366.552 714.584 364.892 714.029 364.275C713.474 363.659 711.042 364.408 711.042 364.408C711.042 364.408 712.405 362.224 711.745 361.966C711.085 361.708 709.264 362.841 708.566 364.994L693.397 359.043C693.397 359.043 694.057 357.454 693.568 356.575C693.568 356.575 695.425 356.649 693.955 352.268C693.955 352.268 695.361 353.025 694.773 349.628C694.773 349.628 696.18 350.388 695.535 345.751C695.535 345.751 696.354 347.631 697.349 342.51C697.349 342.51 699.274 343.884 697.883 339.858C697.883 339.858 699.878 340.316 699.612 334.523C699.612 334.523 701.318 335.625 700.003 328.081C700.003 328.081 704.165 329.388 700.446 326.769C700.446 326.769 703.594 324.743 698.929 325.74C698.929 325.74 700.318 323.676 700.213 321.822C700.129 320.349 700.282 319.61 700.349 319.37C700.372 319.283 700.333 319.19 700.251 319.152C700.101 319.081 699.789 319.104 699.19 319.717C698.218 320.715 696.87 324.244 696.87 324.244L695.239 323.602C695.239 323.602 696.927 320.316 696.182 317.776C696.182 317.776 695.975 317.06 695.203 318.932C694.638 320.306 693.425 320.372 692.607 323.748Z" fill="#FD7583"/>
<path d="M689.88 326.899C689.888 326.869 689.847 326.853 689.832 326.881C689.622 327.275 689.323 327.981 689.832 328.048C690.359 328.119 691.313 327.631 691.773 327.372C691.801 327.354 691.783 327.311 691.75 327.321C691.103 327.536 689.604 327.938 689.88 326.899Z" fill="black"/>
<path d="M683.801 326.856C683.801 326.856 682.678 326.94 682.402 327.991C682.266 328.5 684.407 327.6 684.407 327.6C684.407 327.6 683.041 327.856 682.954 327.684C682.868 327.508 683.801 326.856 683.801 326.856Z" fill="#B98672"/>
<path d="M692.277 330.293C692.108 330.725 691.333 330.825 690.545 330.515C689.76 330.206 689.259 329.605 689.428 329.173C689.599 328.74 690.374 328.641 691.162 328.95C691.947 329.26 692.448 329.858 692.277 330.293Z" fill="#FF424D"/>
<path d="M695.604 319.15C695.604 319.15 693.607 322.298 693.817 322.815C693.99 323.239 694.407 323.311 694.778 322.891C695.149 322.472 695.528 320.945 695.722 320.336C695.916 319.728 695.983 318.531 695.604 319.15Z" fill="#FEC786"/>
<path d="M699.274 320.59C699.274 320.59 697.277 323.738 697.487 324.255C697.661 324.679 698.075 324.751 698.446 324.331C698.819 323.912 699.198 322.385 699.392 321.776C699.586 321.168 699.65 319.968 699.274 320.59Z" fill="#FEC786"/>
<path d="M698.09 342.715C698.18 342.685 698.257 342.618 698.31 342.498C698.216 342.449 698.152 342.403 698.152 342.403C698.131 342.511 698.111 342.613 698.09 342.715Z" fill="#D5C69A"/>
<path d="M696.338 345.641C696.343 345.682 696.349 345.72 696.354 345.761L696.379 345.72C696.354 345.674 696.338 345.641 696.338 345.641Z" fill="#D5C69A"/>
<path d="M692.658 332.523C691.985 332.257 691.31 331.937 690.643 331.566C688.131 330.17 686.576 328.531 686.512 328.462C686.428 328.372 686.433 328.234 686.522 328.15C686.612 328.065 686.753 328.07 686.834 328.16C686.85 328.175 688.415 329.822 690.868 331.185C693.121 332.436 696.607 333.697 700.438 332.607C700.556 332.574 700.679 332.643 700.712 332.761C700.745 332.878 700.676 333.001 700.558 333.034C698.799 333.533 696.965 333.605 695.106 333.242C694.292 333.083 693.474 332.843 692.658 332.523Z" fill="#223749"/>
<path d="M693.535 359.096L693.528 359.112C691.929 363.191 693.937 367.795 698.016 369.396C702.095 370.997 706.699 368.987 708.3 364.907L708.305 364.892L693.535 359.096Z" fill="#223749"/>
<path d="M695.323 359.8C694.469 363.066 695.888 366.401 698.75 367.524C701.615 368.646 704.924 367.168 706.517 364.191L695.323 359.8Z" fill="#7FC6A6"/>
<path d="M692.822 361.982C687.481 359.887 683.978 356.567 682.4 352.114C681.614 349.894 681.307 347.383 681.492 344.649C681.637 342.467 682.09 340.142 682.842 337.733C684.121 333.638 685.842 330.682 685.86 330.651L686.241 330.876C686.226 330.904 684.525 333.828 683.261 337.876C682.103 341.6 681.082 347.066 682.819 351.966C684.351 356.293 687.77 359.524 692.985 361.57C693.103 361.616 693.221 361.659 693.341 361.705L693.185 362.12C693.062 362.074 692.942 362.028 692.822 361.982Z" fill="#223749"/>
<path d="M676.448 384.102L676.479 384.092L676.489 384.125C676.486 384.127 676.272 384.516 676.379 384.82C676.428 384.951 676.53 385.048 676.683 385.109C676.827 385.166 676.957 385.166 677.077 385.115C677.3 385.015 677.405 384.749 677.405 384.746L677.435 384.734L677.448 384.764C677.446 384.772 677.389 384.918 677.269 385.038C677.359 385.186 677.456 385.263 677.561 385.263C677.742 385.263 677.885 385.025 677.888 385.023L677.919 385.015L677.929 385.048C677.921 385.058 677.768 385.312 677.561 385.312C677.527 385.312 677.494 385.304 677.463 385.294C677.382 385.26 677.305 385.186 677.233 385.071C677.192 385.104 677.146 385.135 677.095 385.158C676.965 385.217 676.822 385.214 676.666 385.153C676.499 385.086 676.387 384.982 676.336 384.836C676.22 384.514 676.438 384.117 676.448 384.102Z" fill="#BF9D78"/>
<path d="M685.599 326.661C685.412 327.096 684.704 328.943 685.141 330.83C685.154 330.879 685.187 330.92 685.233 330.943L686.407 331.531C686.517 331.585 686.645 331.511 686.653 331.39C686.707 330.6 686.88 328.17 687.134 326.682C687.152 326.572 687.062 326.475 686.955 326.482L685.745 326.559C685.681 326.562 685.625 326.603 685.599 326.661Z" fill="#223749"/>
<path d="M617.969 435.008H715.512V370.286H617.969V435.008Z" fill="#FECC86"/>
<path d="M617.969 379.624H715.512V370.286H617.969V379.624Z" fill="#FCD19D"/>
<path d="M707.896 435.008H700.97V379.624H715.513V432.532C714.157 433.141 712.101 433.977 710.333 434.33C709.259 434.545 708.472 434.737 707.896 435.008Z" fill="#FDB766"/>
<path d="M700.97 379.624H715.513V370.286H700.97V379.624Z" fill="#FBBC78"/>
<path d="M618.102 435.01H617.836V370.153H708.014V370.419H618.102V435.01Z" fill="black"/>
<path d="M691.394 379.8L633.251 379.756V379.49L691.394 379.534V379.8Z" fill="black"/>
<path d="M135.316 298.766C135.316 298.748 135.316 298.73 135.316 298.714C135.316 298.73 135.316 298.748 135.316 298.766ZM135.316 298.714C135.316 298.699 135.316 298.684 135.316 298.668C135.316 298.684 135.316 298.699 135.316 298.714ZM135.316 298.656C135.316 298.64 135.315 298.625 135.315 298.612C135.315 298.625 135.316 298.64 135.316 298.656ZM135.315 298.605C135.315 298.589 135.315 298.576 135.315 298.564C135.315 298.576 135.315 298.589 135.315 298.605ZM135.315 298.553C135.315 298.538 135.315 298.523 135.314 298.51C135.315 298.523 135.315 298.538 135.315 298.553ZM135.314 298.495C135.314 298.484 135.314 298.472 135.314 298.459C135.314 298.472 135.314 298.484 135.314 298.495ZM135.314 298.449C135.313 298.436 135.313 298.42 135.313 298.408C135.313 298.42 135.313 298.436 135.314 298.449ZM135.313 298.39C135.312 298.379 135.312 298.367 135.312 298.356C135.312 298.367 135.312 298.379 135.313 298.39ZM135.311 298.336C135.311 298.326 135.311 298.315 135.311 298.305C135.311 298.315 135.311 298.326 135.311 298.336ZM135.31 298.285C135.31 298.275 135.31 298.262 135.309 298.252C135.31 298.262 135.31 298.275 135.31 298.285ZM135.309 298.229C135.308 298.221 135.308 298.211 135.308 298.203C135.308 298.211 135.308 298.221 135.309 298.229ZM135.307 298.183C135.307 298.17 135.306 298.159 135.306 298.147C135.306 298.159 135.307 298.17 135.307 298.183ZM135.305 298.121C135.305 298.116 135.305 298.111 135.304 298.106C135.305 298.111 135.305 298.116 135.305 298.121Z" fill="#FDF3E6"/>
<path d="M116.786 282.615C116.787 282.615 116.788 282.615 116.789 282.615C116.788 282.615 116.787 282.615 116.786 282.615ZM116.891 282.599C116.892 282.599 116.892 282.599 116.893 282.599C116.893 282.599 116.891 282.599 116.891 282.599ZM116.927 282.597C116.928 282.597 116.929 282.597 116.93 282.594C116.929 282.597 116.928 282.597 116.927 282.597ZM116.993 282.587C116.995 282.587 116.997 282.587 116.999 282.587C116.997 282.587 116.995 282.587 116.993 282.587ZM117.031 282.584C117.033 282.582 117.036 282.582 117.038 282.582C117.036 282.582 117.033 282.582 117.031 282.584ZM117.102 282.574C117.102 282.574 117.103 282.574 117.104 282.574C117.103 282.574 117.102 282.574 117.102 282.574ZM117.133 282.571C117.138 282.571 117.142 282.569 117.146 282.569C117.142 282.569 117.138 282.571 117.133 282.571ZM117.236 282.558C117.242 282.558 117.247 282.558 117.252 282.556C117.247 282.558 117.242 282.558 117.236 282.558ZM117.279 282.553C117.284 282.553 117.288 282.553 117.293 282.553C117.288 282.553 117.284 282.553 117.279 282.553ZM117.339 282.548C117.345 282.548 117.352 282.546 117.358 282.546C117.352 282.546 117.345 282.548 117.339 282.548ZM117.381 282.543C117.39 282.543 117.399 282.543 117.407 282.541C117.399 282.543 117.39 282.543 117.381 282.543ZM117.441 282.538C117.448 282.538 117.455 282.535 117.463 282.535C117.455 282.535 117.448 282.538 117.441 282.538ZM117.486 282.533C117.493 282.533 117.501 282.533 117.508 282.53C117.501 282.533 117.494 282.533 117.486 282.533ZM117.544 282.528C117.552 282.528 117.56 282.528 117.568 282.525C117.559 282.528 117.552 282.528 117.544 282.528ZM117.59 282.523C117.598 282.523 117.605 282.523 117.613 282.523C117.605 282.523 117.598 282.523 117.59 282.523ZM117.634 282.52C117.647 282.52 117.66 282.518 117.673 282.518C117.66 282.518 117.648 282.52 117.634 282.52ZM117.693 282.515C117.701 282.515 117.711 282.515 117.719 282.512C117.711 282.515 117.701 282.515 117.693 282.515ZM117.739 282.512C117.752 282.51 117.765 282.51 117.779 282.507C117.765 282.51 117.752 282.51 117.739 282.512ZM117.796 282.507C117.806 282.507 117.814 282.505 117.824 282.505C117.815 282.505 117.805 282.507 117.796 282.507ZM117.843 282.505C117.856 282.502 117.868 282.502 117.88 282.502C117.868 282.502 117.856 282.502 117.843 282.505ZM117.9 282.5C117.91 282.5 117.919 282.497 117.929 282.497C117.92 282.497 117.91 282.5 117.9 282.5ZM117.947 282.497C117.96 282.495 117.972 282.495 117.984 282.495C117.972 282.495 117.96 282.495 117.947 282.497ZM117.997 282.492C118.01 282.492 118.022 282.492 118.034 282.492C118.022 282.492 118.01 282.492 117.997 282.492ZM118.052 282.489C118.063 282.489 118.074 282.489 118.085 282.487C118.074 282.489 118.063 282.489 118.052 282.489ZM118.097 282.487C118.112 282.487 118.126 282.487 118.141 282.484C118.127 282.487 118.111 282.487 118.097 282.487ZM118.156 282.484C118.167 282.484 118.179 282.482 118.19 282.482C118.179 282.482 118.167 282.484 118.156 282.484ZM118.202 282.482C118.217 282.482 118.232 282.479 118.246 282.479C118.232 282.479 118.216 282.482 118.202 282.482ZM118.259 282.479C118.271 282.479 118.283 282.477 118.295 282.477C118.283 282.477 118.271 282.479 118.259 282.479ZM118.307 282.477C118.322 282.477 118.337 282.474 118.353 282.474C118.337 282.474 118.322 282.477 118.307 282.477ZM118.362 282.474C118.374 282.474 118.387 282.474 118.399 282.474C118.387 282.474 118.374 282.474 118.362 282.474ZM118.413 282.472C118.428 282.472 118.443 282.472 118.458 282.472C118.442 282.472 118.428 282.472 118.413 282.472ZM118.465 282.472C118.478 282.469 118.491 282.469 118.505 282.469C118.492 282.469 118.478 282.469 118.465 282.472ZM118.518 282.469C118.533 282.469 118.547 282.469 118.561 282.466C118.547 282.469 118.533 282.469 118.518 282.469ZM118.564 282.466C118.58 282.466 118.595 282.466 118.611 282.466C118.595 282.466 118.58 282.466 118.564 282.466ZM118.623 282.466C118.636 282.466 118.649 282.466 118.662 282.464C118.649 282.466 118.636 282.466 118.623 282.466ZM118.671 282.464C118.686 282.464 118.701 282.464 118.717 282.464C118.702 282.464 118.686 282.464 118.671 282.464ZM119.385 282.464C119.382 282.464 119.377 282.464 119.374 282.464C119.378 282.464 119.381 282.464 119.385 282.464ZM118.729 282.464C118.741 282.464 118.753 282.464 118.765 282.464C118.753 282.464 118.741 282.464 118.729 282.464ZM118.777 282.464C118.792 282.461 118.808 282.461 118.823 282.461C118.808 282.461 118.792 282.461 118.777 282.464ZM119.281 282.461C119.274 282.461 119.266 282.461 119.258 282.461C119.266 282.461 119.273 282.461 119.281 282.461ZM118.832 282.461C118.845 282.461 118.858 282.461 118.872 282.461C118.858 282.461 118.845 282.461 118.832 282.461ZM119.237 282.461C119.227 282.461 119.217 282.461 119.207 282.461C119.217 282.461 119.227 282.461 119.237 282.461ZM119.191 282.461C119.176 282.461 119.161 282.461 119.146 282.461C119.161 282.461 119.176 282.461 119.191 282.461ZM118.883 282.461C118.899 282.461 118.914 282.461 118.93 282.461C118.914 282.461 118.899 282.461 118.883 282.461ZM118.936 282.461C118.95 282.461 118.963 282.461 118.977 282.461C118.963 282.461 118.95 282.461 118.936 282.461ZM119.132 282.461C119.121 282.461 119.109 282.461 119.097 282.461C119.109 282.461 119.121 282.461 119.132 282.461ZM119.084 282.461C119.068 282.461 119.052 282.461 119.036 282.461C119.052 282.461 119.068 282.461 119.084 282.461ZM118.989 282.461C119.005 282.461 119.021 282.461 119.036 282.461C119.02 282.461 119.005 282.461 118.989 282.461Z" fill="#FDF3E6"/>
<path d="M500.732 80.2082L500.917 107.776L521.08 88.9756L500.732 80.2082Z" fill="#FEC786"/>
<path d="M465.433 56.7703L459.64 83.7246L483.397 69.7372L465.433 56.7703Z" fill="#FEC786"/>
<path d="M539.769 94.9959L544.861 122.091L561.352 99.9959L539.769 94.9959Z" fill="#FEC786"/>
<path d="M581.12 102.761L592.583 127.835L603.273 102.423L581.12 102.761Z" fill="#FEC786"/>
<path d="M622.954 101.947L637.887 125.122L644.831 98.4409L622.954 101.947Z" fill="#FEC786"/>
<path d="M519.433 88.9573L522.226 116.385L540.518 95.7579L519.433 88.9573Z" fill="#FD7583"/>
<path d="M482.668 69.5841L480.254 97.0474L502.101 80.2288L482.668 69.5841Z" fill="#FD7583"/>
<path d="M450.719 43.0952L441.473 69.0674L466.847 58.2872L450.719 43.0952Z" fill="#FD7583"/>
<path d="M560.096 99.909L567.575 126.444L582.04 102.976L560.096 99.909Z" fill="#FD7583"/>
<path d="M601.908 102.387L613.371 127.462L624.061 102.05L601.908 102.387Z" fill="#FD7583"/>
<path d="M643.703 98.6378L658.64 121.812L665.581 95.1314L643.703 98.6378Z" fill="#FD7583"/>
<path d="M667.601 94.9295C666.901 95.0958 666.202 95.262 665.504 95.4232C658.433 97.0574 651.44 98.4488 644.532 99.5895C644.466 99.5997 644.402 99.6125 644.338 99.6201C637.46 100.753 630.667 101.641 623.964 102.283C623.713 102.308 623.465 102.331 623.217 102.354C616.32 102.996 609.519 103.377 602.821 103.5C602.688 103.503 602.552 103.505 602.419 103.508C600.987 103.531 599.562 103.543 598.14 103.543C592.695 103.543 587.317 103.367 582.012 103.017C581.746 103.001 581.48 102.983 581.214 102.963C574.544 102.503 567.994 101.766 561.562 100.748C561.332 100.712 561.101 100.676 560.871 100.638C560.672 100.607 560.472 100.574 560.275 100.541C553.413 99.4155 546.689 97.973 540.111 96.2186C540.07 96.2083 540.032 96.1981 539.991 96.1853C533.237 94.3822 526.638 92.2492 520.208 89.7888C519.968 89.6993 519.73 89.6072 519.49 89.5152C513.116 87.0497 506.909 84.267 500.878 81.1672C500.832 81.1442 500.786 81.1187 500.74 81.0956C496.379 78.8501 492.113 76.4383 487.945 73.8653C486.111 72.7323 484.328 71.5891 482.597 70.4331C482.535 70.3947 482.476 70.3538 482.415 70.3155C476.522 66.3819 471.223 62.3562 466.51 58.4304C466.1 58.0877 465.696 57.7475 465.295 57.4073C459.453 52.4559 454.555 47.6834 450.586 43.4711C449.609 42.4353 448.686 41.4302 447.821 40.4685C448.438 40.2742 449.057 40.0798 449.678 39.8879C457.862 48.9162 470.906 61.2821 488.952 72.4101C512.894 87.1775 549.055 101.697 598.613 101.697C619.092 101.697 641.852 99.2212 666.998 93.2595C667.205 93.8144 667.405 94.372 667.601 94.9295Z" fill="#49263E"/>
<path d="M255.781 105.676L255.615 130.569L237.408 113.592L255.781 105.676Z" fill="#4CB7D8"/>
<path d="M292.886 108.853L272.318 96.7429L272.139 96.6355L271.63 96.3363H271.627L271.433 96.2212L280.205 89.8912C280.602 90.0088 280.998 90.1239 281.397 90.2364C283.97 90.9679 286.594 91.6124 289.292 92.129L292.886 108.853Z" fill="#4CB7D8"/>
<path d="M220.533 119.029L215.934 143.493L201.044 123.544L220.533 119.029Z" fill="#4CB7D8"/>
<path d="M183.194 126.042L172.845 148.682L163.191 125.736L183.194 126.042Z" fill="#4CB7D8"/>
<path d="M145.42 125.306L131.935 146.232L125.667 122.14L145.42 125.306Z" fill="#4CB7D8"/>
<path d="M238.894 113.577L236.373 138.342L219.855 119.718L238.894 113.577Z" fill="#FD7583"/>
<path d="M272.09 96.0831L274.269 120.881L254.546 105.694L272.09 96.0831Z" fill="#FD7583"/>
<path d="M202.177 123.464L195.426 147.426L182.364 126.234L202.177 123.464Z" fill="#FD7583"/>
<path d="M164.424 125.705L154.074 148.345L144.421 125.398L164.424 125.705Z" fill="#FD7583"/>
<path d="M126.683 122.319L126.111 123.206L125.993 123.39V123.393L113.198 143.242L107.346 120.748C107.682 120.406 108.02 120.063 108.357 119.725C108.456 119.626 108.555 119.528 108.653 119.429L125.672 122.158L126.683 122.319Z" fill="#FD7583"/>
<path d="M281.397 90.2362C278.569 92.4101 275.54 94.5918 272.318 96.7427C272.264 96.7785 272.21 96.8143 272.157 96.8501C270.594 97.891 268.985 98.9243 267.328 99.9473C263.566 102.27 259.712 104.449 255.773 106.477C255.732 106.497 255.69 106.52 255.646 106.541C250.203 109.339 244.598 111.853 238.843 114.08C238.628 114.162 238.413 114.244 238.196 114.329C232.389 116.549 226.43 118.474 220.331 120.104C220.295 120.114 220.26 120.124 220.224 120.132C214.285 121.717 208.211 123.019 202.015 124.037C201.835 124.065 201.657 124.096 201.478 124.124C201.27 124.157 201.063 124.191 200.855 124.224C195.048 125.139 189.132 125.807 183.112 126.224H183.11C182.869 126.242 182.629 126.257 182.388 126.272C177.599 126.587 172.745 126.746 167.827 126.746C166.542 126.746 165.255 126.735 163.962 126.715C163.841 126.712 163.721 126.71 163.6 126.707C157.551 126.597 151.409 126.255 145.184 125.671C144.959 125.654 144.734 125.631 144.51 125.607C138.456 125.029 132.321 124.229 126.111 123.206C126.053 123.196 125.995 123.188 125.937 123.178C120.141 122.219 114.279 121.068 108.357 119.725C108.456 119.625 108.554 119.528 108.653 119.428C109.004 119.081 109.354 118.735 109.705 118.393C130.808 123.104 150.013 125.081 167.399 125.081C212.149 125.081 244.798 111.97 266.418 98.6353C271.159 95.712 275.52 92.6915 279.5 89.6787C279.735 89.7503 279.968 89.8219 280.205 89.8909C280.602 90.0086 280.998 90.1237 281.397 90.2362Z" fill="#49263E"/>
<rect opacity="0.3" width="844" height="390" fill="#404040"/>
</g>
<defs>
<clipPath id="clip0_373_44731">
<rect width="844" height="390" fill="white"/>
</clipPath>
</defs>
</svg>
