<svg width="107" height="95" viewBox="0 0 107 95" fill="none" xmlns="http://www.w3.org/2000/svg">
<rect x="1.82812" y="1.98438" width="103.343" height="91" rx="14.5" fill="white" stroke="#ADC6F7" stroke-width="3"/>
<path d="M47.3837 57.4844H75.1615C75.1615 57.4844 79.3281 57.4844 79.3281 51.9288C79.3281 49.151 79.3281 43.5955 77.9392 42.2066C76.5503 40.8177 66.8281 32.4844 62.6615 32.4844H54.3281C50.1615 32.4844 40.4392 42.2066 40.4392 42.2066L34.8837 43.5955C34.8837 43.5955 30.717 44.9844 30.717 47.7622V51.9288C30.717 51.9288 29.3281 52.3983 29.3281 54.6469C29.3281 57.4844 32.1059 57.4844 32.1059 57.4844H47.3837Z" fill="#DD2E44"/>
<path d="M57.1057 35.2617H54.3279C51.5501 35.2617 43.2168 43.5951 43.2168 43.5951C43.2168 43.5951 50.1571 43.2298 57.1057 42.8742V35.2617ZM70.9946 39.4284C69.6057 38.0395 64.0501 35.2617 61.2724 35.2617H59.8835V42.7326C65.4543 42.4492 70.414 42.2062 70.9946 42.2062C72.3835 42.2062 72.3835 40.8173 70.9946 39.4284Z" fill="#BBDDF5"/>
<path d="M43.2167 61.6511C46.2849 61.6511 48.7722 59.1638 48.7722 56.0956C48.7722 53.0273 46.2849 50.54 43.2167 50.54C40.1484 50.54 37.6611 53.0273 37.6611 56.0956C37.6611 59.1638 40.1484 61.6511 43.2167 61.6511Z" fill="#292F33"/>
<path d="M43.2172 58.8729C44.7514 58.8729 45.995 57.6293 45.995 56.0952C45.995 54.561 44.7514 53.3174 43.2172 53.3174C41.6831 53.3174 40.4395 54.561 40.4395 56.0952C40.4395 57.6293 41.6831 58.8729 43.2172 58.8729Z" fill="#CCD6DD"/>
<path d="M66.828 61.6511C69.8963 61.6511 72.3836 59.1638 72.3836 56.0956C72.3836 53.0273 69.8963 50.54 66.828 50.54C63.7598 50.54 61.2725 53.0273 61.2725 56.0956C61.2725 59.1638 63.7598 61.6511 66.828 61.6511Z" fill="#292F33"/>
<path d="M66.8286 58.8729C68.3627 58.8729 69.6063 57.6293 69.6063 56.0952C69.6063 54.561 68.3627 53.3174 66.8286 53.3174C65.2944 53.3174 64.0508 54.561 64.0508 56.0952C64.0508 57.6293 65.2944 58.8729 66.8286 58.8729Z" fill="#CCD6DD"/>
</svg>
