<svg width="107" height="95" viewBox="0 0 107 95" fill="none" xmlns="http://www.w3.org/2000/svg">
<rect x="1.82812" y="1.98401" width="103.343" height="91" rx="14.5" fill="white" stroke="#ADC6F7" stroke-width="3"/>
<path d="M78.3281 47.4843C78.3281 61.2912 67.1353 72.484 53.3281 72.484C39.5209 72.484 28.3281 61.2912 28.3281 47.4843C28.3281 33.6771 39.5209 22.4843 53.3281 22.4843C67.1353 22.4843 78.3281 33.6771 78.3281 47.4843Z" fill="url(#paint0_linear_193_21082)"/>
<path d="M75.7829 47.9516C75.7829 60.275 65.7927 70.265 53.4692 70.265C41.146 70.265 31.1558 60.275 31.1558 47.9516C31.1558 35.6281 41.146 25.6381 53.4692 25.6381C65.7927 25.6381 75.7829 35.6281 75.7829 47.9516Z" fill="url(#paint1_linear_193_21082)"/>
<path d="M73.5243 47.4211C73.5243 58.5749 64.4822 67.6171 53.3283 67.6171C42.1745 67.6171 33.1323 58.5749 33.1323 47.4211C33.1323 36.2672 42.1745 27.2251 53.3283 27.2251C64.4822 27.2251 73.5243 36.2672 73.5243 47.4211Z" fill="url(#paint2_radial_193_21082)"/>
<path d="M54.276 68.5018H52.917V64.3615H54.276V68.5018Z" fill="#EBEBEB"/>
<path d="M54.1498 30.1644H52.7905V26.0241H54.1498V30.1644Z" fill="#E8E8E8"/>
<path d="M70.3315 47.9897V46.6308H74.4719V47.9897H70.3315Z" fill="#E7E7E7"/>
<path d="M32.373 47.9266V46.5676H36.5134V47.9266H32.373Z" fill="#F2F2F2"/>
<path d="M62.7236 31.7075L61.8477 31.2018L62.4774 30.1111L63.3533 30.6169L62.7236 31.7075Z" fill="#E5E5E5"/>
<path d="M44.1713 64.8617L43.2954 64.356L43.9254 63.2653L44.8013 63.771L44.1713 64.8617Z" fill="#EFEFEF"/>
<path d="M36.8973 57.7999L36.3916 56.924L37.4825 56.2943L37.9882 57.1702L36.8973 57.7999Z" fill="#F0F0F0"/>
<path d="M69.2239 38.361L68.7926 37.6141C68.7722 37.5787 68.7843 37.5332 68.82 37.5125L69.7819 36.9573C69.8174 36.9367 69.8629 36.9487 69.8835 36.9844L70.3148 37.7313C70.3354 37.767 70.3231 37.8126 70.2876 37.8329L69.3257 38.3884C69.29 38.4091 69.2445 38.3967 69.2239 38.361Z" fill="#E4E4E4"/>
<path d="M69.0093 57.0412L69.5281 56.1729L70.6094 56.8189L70.0906 57.687L69.0093 57.0412Z" fill="#E0E0E0"/>
<path d="M36.1357 37.9959L36.6545 37.1276L37.7359 37.7736L37.2171 38.6417L36.1357 37.9959Z" fill="#F1F1F1"/>
<path d="M43.3052 30.828L44.1886 30.3354L44.802 31.4356L43.9185 31.928L43.3052 30.828Z" fill="#EFEFEF"/>
<path d="M62.1313 63.4768L63.0145 62.9842L63.6279 64.0844L62.7447 64.5768L62.1313 63.4768Z" fill="#EFEFEF"/>
<path d="M48.997 58.693C48.9195 58.7411 47.8568 59.3977 47.7024 59.4168C47.6314 59.4256 47.5809 59.3989 47.5809 59.3989C47.5809 59.3989 47.5334 59.374 47.5027 59.317C47.4315 59.1857 47.2955 57.9379 47.2852 57.8425C48.3404 55.7186 49.3956 53.5948 50.451 51.4711C51.5062 49.3473 52.5614 47.2236 53.6166 45.0999L55.3285 45.9504L52.1626 52.3218L48.997 58.693Z" fill="#6079DE"/>
<path d="M46.792 32.2812C46.801 32.1645 46.9278 30.5663 47.0098 30.4112C47.0477 30.3397 47.1018 30.3221 47.1018 30.3221C47.1018 30.3221 47.1529 30.3055 47.22 30.336C47.3752 30.4064 48.5046 31.5478 48.5908 31.6351C50.7996 37.7845 53.008 43.9337 55.2168 50.0828L53.418 50.7289L46.792 32.2812Z" fill="#ECECEC"/>
<path d="M48.8729 58.7189C48.7955 58.7667 47.7327 59.4233 47.5783 59.4424C47.5072 59.4512 47.4569 59.4248 47.4569 59.4248C47.4569 59.4248 47.4093 59.3999 47.3787 59.3428C47.3075 59.2113 47.1714 57.9637 47.1611 57.8682C49.2715 53.6207 51.3822 49.3732 53.4926 45.1257L55.2044 45.9762L48.8729 58.7189Z" fill="#EBEBEB"/>
<path d="M54.5933 47.4836C54.5933 48.1817 54.0272 48.7478 53.3291 48.7478C52.6308 48.7478 52.0649 48.1817 52.0649 47.4836C52.0649 46.7853 52.6308 46.2192 53.3291 46.2192C54.0272 46.2192 54.5933 46.7853 54.5933 47.4836Z" fill="url(#paint3_linear_193_21082)"/>
<defs>
<linearGradient id="paint0_linear_193_21082" x1="28.3281" y1="47.4843" x2="78.3281" y2="47.4843" gradientUnits="userSpaceOnUse">
<stop stop-color="#A4B2F2"/>
<stop offset="1" stop-color="#7587E7"/>
</linearGradient>
<linearGradient id="paint1_linear_193_21082" x1="31.1558" y1="47.9516" x2="75.7827" y2="47.9516" gradientUnits="userSpaceOnUse">
<stop stop-color="#4264E2"/>
<stop offset="1" stop-color="#AAB6F8"/>
</linearGradient>
<radialGradient id="paint2_radial_193_21082" cx="0" cy="0" r="1" gradientUnits="userSpaceOnUse" gradientTransform="translate(53.3283 47.4211) scale(20.1959)">
<stop stop-color="#8C9EF0"/>
<stop offset="1" stop-color="#8C9EF0"/>
</radialGradient>
<linearGradient id="paint3_linear_193_21082" x1="52.0649" y1="47.4836" x2="54.5934" y2="47.4836" gradientUnits="userSpaceOnUse">
<stop stop-color="#FAFAFA"/>
<stop offset="1" stop-color="#C8C8C8"/>
</linearGradient>
</defs>
</svg>
