<svg width="107" height="95" viewBox="0 0 107 95" fill="none" xmlns="http://www.w3.org/2000/svg">
<rect x="1.82812" y="1.98438" width="103.343" height="91" rx="14.5" fill="white" stroke="#ADC6F7" stroke-width="3"/>
<path d="M61.3067 43.169C56.0224 35.6401 59.9286 26.7685 62.7988 27.5306C65.6739 28.2932 65.1088 35.0695 65.1088 35.0695C65.1088 35.0695 71.905 24.2409 77.1695 30.6652C82.434 37.09 68.0533 40.3111 68.0533 40.3111C68.0533 40.3111 77.3926 38.4261 76.0839 44.6334C74.7752 50.8418 65.4608 49.08 61.3067 43.169Z" fill="#92D33E"/>
<path d="M53.2561 34.7833C59.6111 31.5143 67.3492 47.1923 64.2758 53.1514C61.2073 59.1104 34.1018 72.0019 29.0728 66.3045C24.0433 60.6077 45.8699 38.5835 53.2561 34.7833Z" fill="#F8A60E"/>
<path d="M58.595 54.4619C59.2394 49.9003 55.6951 43.2567 52.1855 41.1146C51.7542 40.8501 51.3973 41.4259 51.6699 41.8376C52.9885 43.809 54.4657 45.4737 55.4572 47.7162C56.4783 50.0196 56.8006 52.1111 56.9394 54.6426C56.9592 55.0359 57.2318 55.2635 57.5689 55.206C57.7027 55.1832 57.8415 55.1603 57.9754 55.1374C58.2431 55.0917 58.5504 54.767 58.595 54.4619Z" fill="#F2571D"/>
<path d="M49.4146 59.2698C49.5782 57.4941 48.5719 55.2125 47.8333 53.66C47.0154 51.9368 45.9 50.4958 44.4724 49.3857C43.9222 48.9567 43.4512 49.9229 43.9469 50.3675C45.3845 51.6472 46.2966 53.3476 46.9906 55.2281C47.526 56.6719 47.7094 58.399 48.5372 59.6575C48.8297 60.1033 49.375 59.7038 49.4146 59.2698Z" fill="#F2571D"/>
<path d="M39.9513 63.4861C40.3082 61.5275 39.0293 59.1923 38.0428 57.6805C37.6066 57.0105 36.6647 57.8272 37.0117 58.5268C37.4182 59.3429 37.7454 60.1925 37.9684 61.0963C38.1717 61.9492 38.1915 62.8675 38.5385 63.6686C38.8211 64.3229 39.8175 64.2203 39.9513 63.4861Z" fill="#F2571D"/>
<path d="M56.0422 37.0839C56.3594 36.7168 56.3644 36.024 55.7993 35.8957C54.1238 35.5185 52.2004 36.9338 50.8025 37.8487C49.6376 38.6085 47.1739 39.9301 47.3325 41.7097C47.3573 41.9785 47.4812 42.243 47.7341 42.3127C49.1518 42.7032 50.4654 40.855 51.5708 40.0556C52.9241 39.0771 55.0508 38.5003 56.067 37.1129C56.062 37.1029 56.0521 37.0934 56.0422 37.0839Z" fill="#FBD72C"/>
<path d="M45.8157 43.0347C45.31 43.6567 44.7449 43.9261 44.1253 44.3668C43.2281 45.0067 43.7336 46.5743 44.8044 46.3249C45.8057 46.094 46.6187 45.1802 47.2235 44.306C47.853 43.3984 46.5047 42.1856 45.8157 43.0347Z" fill="#FBD72C"/>
<path d="M62.3672 30.1985C62.615 29.4934 61.5591 28.9695 61.2716 29.6652C61.1378 29.9949 60.9593 30.2459 60.6768 30.4283C59.953 30.8958 60.6124 32.2023 61.2915 31.6958C61.807 31.3164 62.1441 30.8406 62.3672 30.1985Z" fill="#CFE863"/>
<path d="M74.6808 30.8865C74.3735 30.5027 74.0265 30.366 73.5605 30.3521C73.2086 30.3409 72.8467 30.3487 72.4947 30.3677C71.7313 30.409 70.9432 30.6801 70.6953 31.5917C70.5813 32.0123 70.7746 32.3972 71.0671 32.6393C71.3596 32.8836 71.8106 32.786 72.0634 32.5171C72.0882 32.4764 72.1081 32.4513 72.1279 32.4234C72.1576 32.4045 72.1874 32.3855 72.2122 32.3643C72.3262 32.3498 72.4352 32.3096 72.5492 32.299C73.2928 32.2326 74.1405 32.4072 74.661 31.6971C74.8395 31.4533 74.884 31.1387 74.6808 30.8865Z" fill="#CFE863"/>
<path d="M69.3964 32.0458C69.1188 32.2533 68.8561 32.4391 68.638 32.7191C68.1621 33.3155 68.7173 34.2968 69.3964 33.889C69.6939 33.7093 69.9169 33.4856 70.1598 33.2296C70.6952 32.6767 70.026 31.5716 69.3964 32.0458Z" fill="#CFE863"/>
<path d="M74.7853 42.8132C74.7308 42.3558 74.4185 42.0618 74.0169 42.025C73.6997 41.996 73.3824 41.9329 73.0701 42.0389C72.7132 42.1617 72.4356 42.5103 72.4307 42.9455C72.4307 43.3393 72.6834 43.79 73.0453 43.8681C73.4468 43.9563 73.8038 43.8609 74.1954 43.7778C74.582 43.698 74.8349 43.2272 74.7853 42.8132Z" fill="#CFE863"/>
<path d="M67.6223 42.0948C67.0126 41.8678 66.4276 41.6006 65.8625 41.2859C66.2194 41.0193 66.5664 40.742 66.8985 40.4419C67.4736 39.927 68.0486 39.4874 68.0932 38.5959C68.1428 37.7396 67.0919 37.208 66.5615 37.8428C66.5268 37.8847 66.1252 38.0124 66.0162 38.0626C65.7237 38.201 65.4263 38.3354 65.1388 38.4872C65.0644 38.5245 65 38.5708 64.9256 38.611C64.8463 37.9137 64.7422 37.2203 64.6034 36.5347C64.5092 36.0694 64.0829 35.7553 63.6715 35.8167C63.2154 35.8842 62.9725 36.263 62.913 36.755C62.7842 37.8177 62.7048 38.8877 62.7296 39.9599C62.7346 40.2294 62.8139 40.4843 62.9378 40.698C62.9527 41.2223 63.2055 41.74 63.5823 42.0256C63.5823 42.0268 63.5823 42.0268 63.5823 42.0279C64.6133 43.0934 65.7187 43.9095 67.0373 44.4473C68.3411 44.9806 68.9558 42.5902 67.6223 42.0948Z" fill="#5FA738"/>
</svg>
