<svg width="107" height="94" viewBox="0 0 107 94" fill="none" xmlns="http://www.w3.org/2000/svg">
<rect x="1.5" y="1.5" width="103.343" height="91" rx="14.5" fill="white" stroke="#ADC6F7" stroke-width="3"/>
<path d="M47.1271 71.2288C47.1271 71.6552 46.8337 72 46.4699 72H44.1485C43.7851 72 43.4897 71.6552 43.4897 71.2288L44.0835 69.6041C44.0835 69.1778 44.3773 68.8329 44.7412 68.8329H45.8772C46.2405 68.8329 46.5349 69.1778 46.5349 69.6041L47.1271 71.2288Z" fill="#26A2BD"/>
<path d="M58.9189 71.2288C58.9189 71.6552 59.2128 72 59.5767 72H61.8986C62.2624 72 62.5563 71.6552 62.5563 71.2288L61.9626 69.6041C61.9626 69.1778 61.6682 68.8329 61.3049 68.8329H60.1699C59.8065 68.8329 59.5122 69.1778 59.5122 69.6041L58.9189 71.2288Z" fill="#26A2BD"/>
<path d="M44.0831 69.6042L43.5293 71.1195C43.6208 71.3764 43.8617 71.5618 44.148 71.5618H46.4695C46.7549 71.5618 46.9972 71.3764 47.0872 71.1195L46.5345 69.6042C46.5345 69.1778 46.2401 68.833 45.8767 68.833H44.7408C44.3769 68.833 44.0831 69.1778 44.0831 69.6042Z" fill="#47C6CC"/>
<path d="M59.5118 69.6042L58.9585 71.1195C59.049 71.3764 59.2894 71.5618 59.5762 71.5618H61.8982C62.1841 71.5618 62.4249 71.3764 62.5159 71.1195L61.9622 69.6042C61.9622 69.1778 61.6678 68.833 61.3044 68.833H60.1695C59.8061 68.833 59.5118 69.1778 59.5118 69.6042Z" fill="#47C6CC"/>
<path d="M66.0453 24.0787C66.0453 22.9357 65.2257 22.0001 64.2246 22.0001H41.8197C40.8186 22.0001 40 22.9357 40 24.0787V67.794C40 68.9375 40.8186 69.8721 41.8197 69.8721H64.2246C65.2257 69.8721 66.0453 68.9375 66.0453 67.794V24.0787Z" fill="#1B6B75"/>
<path d="M64.2246 68.0494H41.8197C40.8186 68.0494 40 67.1498 40 66.0498V67.794C40 68.9375 40.8186 69.8721 41.8197 69.8721H64.2246C65.2257 69.8721 66.0453 68.9375 66.0453 67.794V66.0498C66.0453 67.1498 65.2257 68.0494 64.2246 68.0494Z" fill="#0E4F5C"/>
<path d="M64.2246 22H41.8197C40.8186 22 40 22.9356 40 24.0786V53.155H66.0453V24.0786C66.0453 22.9356 65.2257 22 64.2246 22Z" fill="#47C6CC"/>
<path d="M42.7952 57.1386C42.7952 56.7248 42.4829 56.388 42.0986 56.388C41.7137 56.388 41.4019 56.7248 41.4019 57.1386V60.8919C41.4019 61.3063 41.7137 61.6416 42.0986 61.6416C42.4829 61.6416 42.7952 61.3063 42.7952 60.8919V57.1386Z" fill="#FFC259"/>
<path d="M42.7952 50.039C42.7952 50.4208 42.4829 50.7307 42.0986 50.7307C41.7137 50.7307 41.4019 50.4208 41.4019 50.039V44.5505C41.4019 44.1682 41.7137 43.8583 42.0986 43.8583C42.4829 43.8583 42.7952 44.1682 42.7952 44.5505V50.039Z" fill="#FFC259"/>
<path d="M42.0986 50.7306C41.7137 50.7306 41.4019 50.4208 41.4019 50.0389V50.5582C41.4019 50.972 41.7137 51.3083 42.0986 51.3083C42.4829 51.3083 42.7952 50.972 42.7952 50.5582V50.0389C42.7952 50.4208 42.4829 50.7306 42.0986 50.7306Z" fill="#FFA442"/>
<path d="M42.0986 61.2083C41.7137 61.2083 41.4019 60.9004 41.4019 60.5201V60.8919C41.4019 61.3063 41.7137 61.6416 42.0986 61.6416C42.4829 61.6416 42.7952 61.3063 42.7952 60.8919V60.5201C42.7952 60.9004 42.4829 61.2083 42.0986 61.2083Z" fill="#FFA442"/>
<path d="M64.2246 21.9999H41.8197C40.8186 21.9999 40 22.9355 40 24.0785V26.4824H66.0453V24.0785C66.0453 22.9355 65.2257 21.9999 64.2246 21.9999Z" fill="#FFC259"/>
<path d="M43.5217 24.2414C43.5217 24.5542 43.2678 24.8081 42.9549 24.8081C42.6416 24.8081 42.3877 24.5542 42.3877 24.2414C42.3877 23.928 42.6416 23.6741 42.9549 23.6741C43.2678 23.6741 43.5217 23.928 43.5217 24.2414Z" fill="#0E4F5C"/>
<path d="M45.5788 24.2414C45.5788 24.5542 45.3249 24.8081 45.0116 24.8081C44.6982 24.8081 44.4443 24.5542 44.4443 24.2414C44.4443 23.928 44.6982 23.6741 45.0116 23.6741C45.3249 23.6741 45.5788 23.928 45.5788 24.2414Z" fill="white"/>
<path d="M47.6364 24.2414C47.6364 24.5542 47.3826 24.8081 47.0692 24.8081C46.7558 24.8081 46.502 24.5542 46.502 24.2414C46.502 23.928 46.7558 23.6741 47.0692 23.6741C47.3826 23.6741 47.6364 23.928 47.6364 24.2414Z" fill="#F8472F"/>
<path d="M64.1701 24.5938H57.5811V23.8891H64.1701V24.5938Z" fill="#F8472F"/>
</svg>
