<svg width="900" height="601" viewBox="0 0 900 601" fill="none" xmlns="http://www.w3.org/2000/svg">
<path d="M0 600.37H900V6.02603e-05H0L0 600.37Z" fill="#B6E0D6"/>
<path d="M330.087 278.122C327.693 279.965 325.749 279.358 322.821 276.855C319.896 274.351 314.016 267.918 312.417 262.209C310.818 256.496 309.342 250.315 312.114 251.06C314.886 251.807 325.791 259.369 325.791 259.369L331.491 267.906L330.873 277.29L330.087 278.122" fill="#B58524"/>
<path d="M340.407 266.543C340.551 266.291 357.978 259.72 363.792 256.334C365.169 255.529 366.693 254.515 366.903 252.936C366.966 252.474 366.894 251.978 366.624 251.597C366.339 251.195 365.865 250.964 365.388 250.85C362.328 250.111 359.481 253.449 356.37 252.99C360.162 248.937 366.78 248.778 370.782 244.933C371.181 244.552 371.562 244.11 371.694 243.573C371.991 242.378 370.887 241.202 369.684 240.949C368.481 240.697 367.245 241.1 366.081 241.499C362.364 242.766 358.65 244.035 354.933 245.302C354.696 244.387 366.09 238.455 370.17 234.967C370.746 234.474 371.34 233.781 371.139 233.049C370.959 232.391 371.571 229.521 367.842 229.602C366.102 229.638 355.953 238.032 351.273 239.34C353.07 234.814 358.176 232.559 361.692 229.191C364.947 226.075 362.454 222.314 359.271 223.737C358.689 223.998 345.282 232.091 339.363 237.461C339.663 235.297 339.747 234.393 340.776 232.466C341.802 230.539 342.672 228.345 342.186 226.216C342.003 225.409 341.607 224.625 340.95 224.121C339.636 223.109 337.71 223.5 336.255 224.301C334.515 225.256 327.504 236.285 326.697 237.728C325.431 239.992 325.377 246.68 325.119 246.683C322.266 246.734 311.364 250.772 311.412 251.024C312.42 256.616 321.069 261.113 325.35 264.832C328.992 267.996 330.735 277.284 330.087 278.121C329.424 278.986 338.793 269.371 340.407 266.543" fill="#D39C2D"/>
<path d="M307.035 236.024C305.463 238.605 306.276 240.475 309.075 243.114C311.877 245.756 318.903 250.916 324.747 251.891C330.594 252.867 336.897 253.668 335.856 250.994C334.818 248.316 326.13 238.281 326.13 238.281L317.034 233.526L307.776 235.153L307.035 236.024" fill="#B58524"/>
<path d="M340.407 266.543C340.749 266.372 340.479 264.493 339.174 261.596C337.875 258.699 336.906 257.604 336.906 257.604C336.906 257.604 340.254 261.128 340.929 262.785C341.601 264.442 341.88 265.898 341.88 265.898L340.407 266.543" fill="#CE9B29"/>
<path d="M350.844 261.059C347.448 262.242 343.917 263.439 340.335 263.097C341.697 262.818 343.02 262.362 344.265 261.743C342.762 261.975 341.238 262.077 339.714 262.05C339.924 262.788 340.089 264.646 340.842 264.889C341.682 265.162 343.419 264.472 344.229 264.214C345.417 263.836 346.563 263.331 347.679 262.776C348.711 262.26 349.761 261.434 350.844 261.059Z" fill="#CE9B29"/>
<path d="M333.713 270.269C335.822 268.429 337.967 266.54 339.368 264.121C338.885 264.61 338.276 264.976 337.619 265.178C338.009 264.655 338.402 264.133 338.795 263.614C337.973 263.806 337.151 264.001 336.329 264.196C337.568 263.454 338.654 262.461 339.503 261.296C339.443 261.38 340.601 263.92 340.601 264.367C340.598 265.271 339.635 266.039 339.011 266.663C337.49 268.182 335.687 269.413 333.713 270.269Z" fill="#CE9B29"/>
<path d="M340.409 266.543C340.409 266.543 340.895 265.814 340.136 261.704C339.379 257.598 338.536 253.377 338.536 253.377C338.536 253.377 341.078 256.772 341.579 259.96C342.081 263.148 342.165 265.781 342.165 265.781L340.409 266.543" fill="#B58524"/>
<path d="M337.161 263.13C336.03 263.941 334.803 264.616 333.723 265.493C335.073 264.775 336.423 264.061 337.773 263.343C336.33 265.117 334.776 266.799 333.225 268.477C335.889 266.783 338.553 265.09 341.22 263.4C340.068 265.754 337.941 267.456 336.321 269.518C337.899 268.152 339.474 266.789 341.049 265.427C341.19 265.307 341.331 265.181 341.406 265.009C341.469 264.865 341.475 264.703 341.475 264.547C341.481 263.572 341.343 261.149 340.143 260.798C339.486 260.609 339.168 261.326 338.79 261.731C338.301 262.257 337.743 262.713 337.161 263.13" fill="#B58524"/>
<path d="M349.773 257.487C347.01 258.907 344.1 260.047 341.109 260.885C342.264 261.458 343.608 261.527 344.895 261.443C346.185 261.359 347.469 261.137 348.759 261.173C346.218 262.026 343.614 262.701 340.977 263.187C340.938 262.578 340.863 261.971 340.752 261.374C340.668 260.918 340.386 260.317 340.491 259.855C340.689 258.97 341.895 259.069 342.588 258.979C343.8 258.823 345.003 258.594 346.2 258.336C347.283 258.099 348.789 257.991 349.773 257.487" fill="#B58524"/>
<path d="M900 318.866V600.37H0L0 315.2C79.509 348.239 220.278 375.955 288.732 373.019C500.502 363.932 604.512 294.731 761.352 297.207C837.978 298.42 878.547 311.892 900 318.866Z" fill="#7D912A"/>
<path d="M0 600.37H900V400.774H0L0 600.37Z" fill="#85A031"/>
<path d="M434.399 543.35C434.858 544.884 435.65 546.358 436.886 547.375C437.999 548.294 439.421 548.792 440.855 548.96C442.289 549.125 443.744 548.978 445.163 548.714C446.444 548.477 447.764 548.114 448.721 547.228C449.552 546.457 450.017 545.367 450.377 544.29C451.166 541.939 451.583 539.466 451.604 536.986C451.61 536.647 451.604 536.299 451.472 535.986C451.34 535.674 451.052 535.404 450.713 535.395C450.365 535.383 450.071 535.635 449.822 535.878C448.019 537.622 446.543 539.703 445.49 541.978C445.478 539.484 445.466 536.992 445.454 534.497C445.448 533.816 445.445 533.123 445.268 532.465C445.094 531.805 444.725 531.171 444.14 530.817C443.558 530.466 442.742 530.46 442.235 530.916C441.737 531.367 441.65 532.102 441.596 532.771C441.311 536.197 441.029 539.619 440.747 543.044C440.156 542.29 439.778 541.399 439.385 540.528C438.992 539.655 438.569 538.778 437.912 538.082C437.255 537.388 436.319 536.896 435.368 536.992C434.255 537.103 433.496 537.986 433.661 539.057C433.883 540.498 433.979 541.942 434.399 543.35" fill="#7D912A"/>
<path d="M726.465 480.605C726.924 482.136 727.716 483.613 728.949 484.631C730.065 485.549 731.484 486.048 732.918 486.216C734.352 486.381 735.807 486.234 737.229 485.97C738.507 485.732 739.83 485.369 740.784 484.484C741.618 483.712 742.083 482.623 742.443 481.545C743.232 479.194 743.646 476.721 743.67 474.241C743.673 473.902 743.667 473.554 743.535 473.242C743.403 472.93 743.118 472.659 742.779 472.65C742.431 472.638 742.137 472.891 741.885 473.134C740.085 474.878 738.609 476.958 737.556 479.233C737.544 476.739 737.529 474.244 737.517 471.753C737.514 471.068 737.511 470.378 737.334 469.721C737.16 469.06 736.791 468.427 736.206 468.073C735.624 467.721 734.805 467.715 734.301 468.172C733.803 468.622 733.716 469.357 733.659 470.027C733.377 473.452 733.095 476.874 732.813 480.299C732.222 479.546 731.844 478.654 731.451 477.784C731.058 476.91 730.635 476.03 729.978 475.337C729.318 474.644 728.382 474.151 727.431 474.247C726.318 474.358 725.559 475.241 725.724 476.313C725.946 477.754 726.045 479.197 726.465 480.605" fill="#7D912A"/>
<path d="M659.343 569.463C659.802 570.997 660.594 572.474 661.83 573.491C662.943 574.41 664.362 574.908 665.799 575.076C667.233 575.242 668.688 575.095 670.107 574.83C671.388 574.593 672.708 574.23 673.662 573.344C674.496 572.57 674.961 571.483 675.321 570.406C676.11 568.055 676.524 565.582 676.548 563.102C676.551 562.763 676.548 562.415 676.416 562.103C676.284 561.79 675.996 561.52 675.657 561.508C675.309 561.499 675.015 561.751 674.766 561.991C672.963 563.739 671.487 565.816 670.434 568.094C670.422 565.6 670.41 563.105 670.398 560.611C670.392 559.929 670.389 559.239 670.212 558.578C670.038 557.921 669.669 557.285 669.084 556.933C668.502 556.579 667.686 556.573 667.179 557.032C666.681 557.48 666.594 558.218 666.54 558.888C666.255 562.31 665.973 565.735 665.691 569.16C665.1 568.406 664.722 567.515 664.329 566.641C663.936 565.771 663.513 564.891 662.856 564.198C662.199 563.504 661.263 563.012 660.312 563.105C659.199 563.216 658.437 564.102 658.602 565.17C658.827 566.614 658.923 568.055 659.343 569.463" fill="#7D912A"/>
<path d="M527.307 440.459C527.766 441.992 528.558 443.469 529.791 444.487C530.907 445.406 532.326 445.904 533.76 446.072C535.194 446.237 536.649 446.09 538.068 445.826C539.349 445.589 540.672 445.225 541.626 444.34C542.46 443.565 542.922 442.479 543.285 441.401C544.071 439.051 544.488 436.577 544.512 434.098C544.515 433.758 544.509 433.41 544.377 433.098C544.245 432.786 543.96 432.516 543.621 432.507C543.273 432.495 542.976 432.747 542.727 432.987C540.927 434.734 539.451 436.814 538.398 439.09C538.383 436.595 538.371 434.101 538.359 431.609C538.356 430.925 538.35 430.234 538.176 429.577C537.999 428.916 537.63 428.28 537.048 427.929C536.463 427.575 535.647 427.569 535.143 428.028C534.645 428.478 534.558 429.214 534.501 429.883C534.219 433.305 533.937 436.73 533.655 440.155C533.064 439.402 532.686 438.51 532.293 437.637C531.9 436.766 531.477 435.887 530.817 435.193C530.16 434.5 529.224 434.008 528.273 434.101C527.16 434.212 526.401 435.097 526.566 436.166C526.788 437.61 526.887 439.054 527.307 440.459" fill="#7D912A"/>
<path d="M208.536 560.911C208.995 562.445 209.786 563.922 211.021 564.939C212.135 565.858 213.555 566.356 214.989 566.524C216.424 566.689 217.878 566.542 219.298 566.278C220.579 566.038 221.899 565.678 222.855 564.792C223.689 564.018 224.152 562.931 224.513 561.853C225.301 559.503 225.717 557.029 225.741 554.55C225.744 554.211 225.738 553.862 225.606 553.55C225.475 553.238 225.187 552.968 224.849 552.959C224.501 552.947 224.206 553.199 223.957 553.439C222.156 555.186 220.679 557.267 219.625 559.542C219.613 557.047 219.601 554.553 219.588 552.058C219.585 551.377 219.58 550.686 219.405 550.026C219.229 549.369 218.86 548.732 218.277 548.381C217.693 548.027 216.877 548.021 216.37 548.48C215.873 548.927 215.785 549.666 215.731 550.335C215.448 553.757 215.165 557.182 214.883 560.608C214.293 559.854 213.914 558.963 213.521 558.089C213.128 557.219 212.705 556.339 212.047 555.646C211.39 554.952 210.454 554.46 209.503 554.553C208.39 554.664 207.63 555.549 207.795 556.618C208.018 558.062 208.115 559.503 208.536 560.911" fill="#7D912A"/>
<path d="M208.536 440.459C208.995 441.992 209.786 443.469 211.021 444.487C212.135 445.406 213.555 445.904 214.989 446.072C216.424 446.237 217.878 446.09 219.298 445.826C220.579 445.589 221.899 445.225 222.855 444.34C223.689 443.565 224.152 442.479 224.513 441.401C225.301 439.051 225.717 436.577 225.741 434.098C225.744 433.758 225.738 433.41 225.606 433.098C225.475 432.786 225.187 432.516 224.849 432.507C224.501 432.495 224.206 432.747 223.957 432.987C222.156 434.734 220.679 436.814 219.625 439.09C219.613 436.595 219.601 434.101 219.588 431.609C219.585 430.925 219.58 430.234 219.405 429.577C219.229 428.916 218.86 428.28 218.277 427.929C217.693 427.575 216.877 427.569 216.37 428.028C215.873 428.478 215.785 429.214 215.731 429.883C215.448 433.305 215.165 436.73 214.883 440.155C214.293 439.402 213.914 438.51 213.521 437.637C213.128 436.766 212.705 435.887 212.047 435.193C211.39 434.5 210.454 434.008 209.503 434.101C208.39 434.212 207.63 435.097 207.795 436.166C208.018 437.61 208.115 439.054 208.536 440.459" fill="#7D912A"/>
<path d="M250.606 455.069C251.065 456.6 251.857 458.076 253.091 459.094C254.206 460.013 255.626 460.511 257.06 460.679C258.494 460.844 259.949 460.697 261.368 460.433C262.649 460.196 263.97 459.832 264.926 458.947C265.759 458.175 266.222 457.086 266.584 456.008C267.372 453.658 267.788 451.184 267.811 448.705C267.815 448.365 267.809 448.017 267.677 447.705C267.545 447.393 267.258 447.123 266.92 447.114C266.572 447.102 266.277 447.354 266.027 447.597C264.226 449.341 262.75 451.421 261.696 453.697C261.683 451.202 261.671 448.708 261.659 446.216C261.656 445.532 261.651 444.841 261.475 444.184C261.299 443.523 260.931 442.89 260.347 442.536C259.764 442.185 258.947 442.179 258.441 442.635C257.943 443.085 257.856 443.821 257.801 444.49C257.518 447.915 257.236 451.337 256.953 454.762C256.363 454.009 255.984 453.117 255.592 452.247C255.199 451.373 254.775 450.494 254.118 449.8C253.46 449.107 252.524 448.615 251.573 448.708C250.46 448.822 249.701 449.704 249.866 450.776C250.088 452.217 250.185 453.661 250.606 455.069" fill="#7D912A"/>
<path d="M50.3048 526.306C49.181 526.429 48.0311 526.561 47.0162 527.059C46.001 527.557 45.1307 528.503 45.0467 529.632C44.9645 530.733 45.6542 531.784 46.5632 532.411C47.4725 533.042 48.5741 533.318 49.6583 533.528C54.0098 534.38 58.526 534.38 62.8772 533.528C64.4129 533.225 65.9711 532.799 67.2221 531.859C70.6931 529.247 68.7905 524.664 64.7363 524.688C59.9999 524.712 55.0208 525.789 50.3048 526.306" fill="#98AF37"/>
<path d="M492.251 414.769C491.126 414.892 489.977 415.021 488.96 415.519C487.946 416.017 487.076 416.966 486.992 418.092C486.911 419.196 487.598 420.244 488.507 420.874C489.416 421.502 490.52 421.778 491.603 421.991C495.956 422.841 500.471 422.841 504.821 421.988C506.357 421.688 507.917 421.262 509.168 420.319C512.639 417.711 510.737 413.124 506.681 413.148C501.944 413.172 496.967 414.252 492.251 414.769" fill="#98AF37"/>
<path d="M393.696 516.868C392.574 516.991 391.422 517.123 390.408 517.618C389.394 518.116 388.524 519.065 388.437 520.194C388.356 521.295 389.046 522.346 389.955 522.973C390.864 523.601 391.965 523.877 393.051 524.09C397.401 524.943 401.919 524.94 406.269 524.087C407.805 523.787 409.362 523.361 410.613 522.421C414.084 519.809 412.182 515.226 408.129 515.247C403.392 515.274 398.412 516.351 393.696 516.868Z" fill="#98AF37"/>
<path d="M521.119 553.559C519.994 553.679 518.845 553.811 517.831 554.31C516.814 554.808 515.944 555.754 515.86 556.882C515.779 557.984 516.469 559.035 517.378 559.662C518.287 560.292 519.388 560.569 520.474 560.779C524.824 561.631 529.339 561.631 533.692 560.779C535.228 560.479 536.785 560.052 538.036 559.11C541.507 556.498 539.605 551.914 535.552 551.938C530.815 551.962 525.835 553.04 521.119 553.559Z" fill="#98AF37"/>
<path d="M748.563 562.793C747.441 562.916 746.289 563.045 745.275 563.543C744.261 564.042 743.388 564.99 743.307 566.116C743.223 567.221 743.913 568.268 744.822 568.899C745.731 569.526 746.832 569.802 747.918 570.015C752.268 570.865 756.786 570.865 761.136 570.012C762.672 569.712 764.229 569.286 765.48 568.343C768.951 565.735 767.049 561.148 762.996 561.172C758.259 561.196 753.279 562.277 748.563 562.793" fill="#98AF37"/>
<path d="M806.691 421.676C805.569 421.799 804.42 421.928 803.403 422.426C802.389 422.925 801.519 423.873 801.435 425.002C801.351 426.104 802.041 427.154 802.95 427.782C803.859 428.409 804.963 428.685 806.046 428.898C810.396 429.748 814.914 429.748 819.264 428.895C820.8 428.595 822.36 428.169 823.611 427.229C827.079 424.618 825.177 420.034 821.124 420.055C816.387 420.082 811.407 421.16 806.691 421.676" fill="#98AF37"/>
<path d="M369.777 508.742C291.002 508.742 227.143 503.837 227.143 497.791C227.143 491.742 291.002 486.84 369.777 486.84C448.551 486.84 512.409 491.742 512.409 497.791C512.409 503.837 448.551 508.742 369.777 508.742Z" fill="#759127"/>
<path d="M677.838 455.927C616.206 455.927 566.241 451.022 566.241 444.976C566.241 443.436 569.481 441.971 575.325 440.642L576.078 444.541H590.058H591.885H605.865L607.419 436.481C614.064 435.95 621.345 435.493 629.133 435.121L630.882 444.199H644.862H646.689H660.669L662.61 434.128C667.59 434.062 672.672 434.025 677.838 434.025C687.141 434.025 696.18 434.14 704.82 434.35L706.869 444.976H720.849H722.676H736.656L738.429 435.779C740.169 435.89 741.876 436.007 743.547 436.124L745.101 445.958H776.484L777.42 440.029C785.103 441.515 789.432 443.196 789.432 444.976C789.432 451.022 739.47 455.927 677.838 455.927" fill="#759127"/>
<path d="M546.501 541.885C523.53 541.885 504.906 536.983 504.906 530.937C504.906 527.065 512.547 523.661 524.076 521.713C524.103 523.37 524.466 525.009 525.192 526.474C527.067 530.253 531.513 532.039 535.698 532.549C536.694 532.669 537.702 532.732 538.71 532.732C542.502 532.732 546.312 531.847 549.447 529.842C551.076 530.739 552.882 531.258 554.739 531.258C555.048 531.258 555.36 531.243 555.672 531.216C562.146 530.598 567.114 524.168 573.087 522.517C582.255 524.525 588.093 527.551 588.093 530.937C588.093 536.983 569.472 541.885 546.501 541.885" fill="#759127"/>
<path d="M128.676 522.469C106.219 522.469 88.0137 517.567 88.0137 511.521C88.0137 510.558 88.4763 509.627 89.3418 508.736C89.0223 508.739 88.7025 508.742 88.3812 508.742C65.9241 508.742 47.7192 503.837 47.7192 497.791C47.7192 493.165 58.3731 489.209 73.4328 487.606L75.3966 497.791H92.0604H94.239H99.1026H110.903L111.49 494.744L114.396 509.819H131.06H133.239H149.903L151.328 502.426C162.191 504.392 169.338 507.733 169.338 511.521C169.338 517.567 151.133 522.469 128.676 522.469" fill="#759127"/>
<path d="M899.999 287.949H150.414V273.505H899.999V287.949Z" fill="#A68955"/>
<path d="M200.546 234.751H194.014L194.605 238.494L196.574 239.416L183.633 254.62V400.774H217.458V254.62L200.546 234.751" fill="#B0A996"/>
<path d="M210.926 400.774H177.101V254.62L194.013 234.751L210.926 254.62V400.774Z" fill="#E5DABE"/>
<path d="M261.024 234.751H254.492L255.083 238.494L257.052 239.416L244.112 254.62V400.774H277.936V254.62L261.024 234.751" fill="#B0A996"/>
<path d="M271.404 400.774H237.58V254.62L254.492 234.751L271.404 254.62V400.774Z" fill="#E5DABE"/>
<path d="M321.501 234.751H314.97L315.561 238.494L317.529 239.416L304.59 254.62V400.774H338.415V254.62L321.501 234.751" fill="#B0A996"/>
<path d="M331.881 400.774H298.058V254.62L314.97 234.751L331.881 254.62V400.774Z" fill="#E5DABE"/>
<path d="M381.977 234.751H375.446L376.037 238.494L378.005 239.416L365.066 254.62V400.774H398.891V254.62L381.977 234.751" fill="#B0A996"/>
<path d="M392.361 400.774H358.536V254.62L375.447 234.751L392.361 254.62V400.774Z" fill="#E5DABE"/>
<path d="M442.457 234.751H435.926L436.517 238.494L438.485 239.416L425.543 254.62V400.774H459.368V254.62L442.457 234.751" fill="#B0A996"/>
<path d="M452.838 400.774H419.013V254.62L435.927 234.751L452.838 254.62V400.774Z" fill="#E5DABE"/>
<path d="M502.935 234.751H496.404L496.995 238.494L498.963 239.416L486.024 254.62V400.774H519.849V254.62L502.935 234.751" fill="#B0A996"/>
<path d="M513.314 400.774H479.489V254.62L496.403 234.751L513.314 254.62V400.774Z" fill="#E5DABE"/>
<path d="M563.412 234.751H556.881L557.472 238.494L559.44 239.416L546.501 254.62V400.774H580.326V254.62L563.412 234.751" fill="#B0A996"/>
<path d="M573.795 400.774H539.97V254.62L556.881 234.751L573.795 254.62V400.774Z" fill="#E5DABE"/>
<path d="M623.892 234.751H617.361L617.949 238.494L619.92 239.416L606.978 254.62V400.774H640.803V254.62L623.892 234.751" fill="#B0A996"/>
<path d="M634.272 400.774H600.447V254.62L617.361 234.751L634.272 254.62V400.774Z" fill="#E5DABE"/>
<path d="M684.368 234.751H677.837L678.428 238.494L680.396 239.416L667.454 254.62V400.774H701.279V254.62L684.368 234.751" fill="#B0A996"/>
<path d="M694.749 400.774H660.924V254.62L677.838 234.751L694.749 254.62V400.774Z" fill="#E5DABE"/>
<path d="M744.846 234.751H738.315L738.906 238.494L740.874 239.416L727.935 254.62V400.774H761.76V254.62L744.846 234.751" fill="#B0A996"/>
<path d="M755.23 400.774H721.405V254.62L738.316 234.751L755.23 254.62V400.774Z" fill="#E5DABE"/>
<path d="M805.326 234.751H798.792L799.383 238.494L801.354 239.416L788.412 254.62V400.774H822.237V254.62L805.326 234.751" fill="#B0A996"/>
<path d="M815.706 400.774H781.881V254.62L798.792 234.751L815.706 254.62V400.774Z" fill="#E5DABE"/>
<path d="M865.802 234.751H859.271L859.862 238.494L861.83 239.416L848.888 254.62V400.774H882.713V254.62L865.802 234.751" fill="#B0A996"/>
<path d="M876.183 400.774H842.358V254.62L859.272 234.751L876.183 254.62V400.774Z" fill="#E5DABE"/>
<path d="M197.04 279.523C197.04 280.949 195.885 282.102 194.462 282.102C193.038 282.102 191.883 280.949 191.883 279.523C191.883 278.097 193.038 276.945 194.462 276.945C195.885 276.945 197.04 278.097 197.04 279.523Z" fill="#7D6740"/>
<path d="M257.069 279.523C257.069 280.949 255.915 282.102 254.491 282.102C253.067 282.102 251.913 280.949 251.913 279.523C251.913 278.097 253.067 276.945 254.491 276.945C255.915 276.945 257.069 278.097 257.069 279.523Z" fill="#7D6740"/>
<path d="M319.68 279.523C319.68 280.949 318.525 282.102 317.1 282.102C315.678 282.102 314.523 280.949 314.523 279.523C314.523 278.097 315.678 276.945 317.1 276.945C318.525 276.945 319.68 278.097 319.68 279.523Z" fill="#7D6740"/>
<path d="M378.028 279.523C378.028 280.949 376.873 282.102 375.448 282.102C374.026 282.102 372.871 280.949 372.871 279.523C372.871 278.097 374.026 276.945 375.448 276.945C376.873 276.945 378.028 278.097 378.028 279.523Z" fill="#7D6740"/>
<path d="M438.504 279.523C438.504 280.949 437.349 282.102 435.927 282.102C434.502 282.102 433.347 280.949 433.347 279.523C433.347 278.097 434.502 276.945 435.927 276.945C437.349 276.945 438.504 278.097 438.504 279.523Z" fill="#7D6740"/>
<path d="M498.981 279.523C498.981 280.949 497.829 282.102 496.404 282.102C494.979 282.102 493.824 280.949 493.824 279.523C493.824 278.097 494.979 276.945 496.404 276.945C497.829 276.945 498.981 278.097 498.981 279.523Z" fill="#7D6740"/>
<path d="M559.461 279.523C559.461 280.949 558.306 282.102 556.881 282.102C555.459 282.102 554.304 280.949 554.304 279.523C554.304 278.097 555.459 276.945 556.881 276.945C558.306 276.945 559.461 278.097 559.461 279.523Z" fill="#7D6740"/>
<path d="M619.83 279.523C619.83 280.949 618.678 282.102 617.253 282.102C615.828 282.102 614.676 280.949 614.676 279.523C614.676 278.097 615.828 276.945 617.253 276.945C618.678 276.945 619.83 278.097 619.83 279.523Z" fill="#7D6740"/>
<path d="M680.416 279.523C680.416 280.949 679.261 282.102 677.839 282.102C676.414 282.102 675.259 280.949 675.259 279.523C675.259 278.097 676.414 276.945 677.839 276.945C679.261 276.945 680.416 278.097 680.416 279.523Z" fill="#7D6740"/>
<path d="M740.895 279.523C740.895 280.949 739.74 282.102 738.315 282.102C736.89 282.102 735.738 280.949 735.738 279.523C735.738 278.097 736.89 276.945 738.315 276.945C739.74 276.945 740.895 278.097 740.895 279.523Z" fill="#7D6740"/>
<path d="M801.372 279.523C801.372 280.949 800.217 282.102 798.792 282.102C797.37 282.102 796.215 280.949 796.215 279.523C796.215 278.097 797.37 276.945 798.792 276.945C800.217 276.945 801.372 278.097 801.372 279.523Z" fill="#7D6740"/>
<path d="M861.848 279.523C861.848 280.949 860.693 282.102 859.271 282.102C857.846 282.102 856.691 280.949 856.691 279.523C856.691 278.097 857.846 276.945 859.271 276.945C860.693 276.945 861.848 278.097 861.848 279.523Z" fill="#7D6740"/>
<path d="M220.532 287.949H217.458V273.505H220.532V287.949Z" fill="#7D6740"/>
<path d="M281.009 287.949H277.935V273.505H281.009V287.949Z" fill="#7D6740"/>
<path d="M341.488 287.949H338.415V273.505H341.488V287.949Z" fill="#7D6740"/>
<path d="M401.966 287.949H398.893V273.505H401.966V287.949Z" fill="#7D6740"/>
<path d="M462.443 287.949H459.369V273.505H462.443V287.949Z" fill="#7D6740"/>
<path d="M522.923 287.949H519.849V273.505H522.923V287.949Z" fill="#7D6740"/>
<path d="M583.399 287.949H580.326V273.505H583.399V287.949Z" fill="#7D6740"/>
<path d="M643.878 287.949H640.804V273.505H643.878V287.949Z" fill="#7D6740"/>
<path d="M704.354 287.949H701.281V273.505H704.354V287.949Z" fill="#7D6740"/>
<path d="M764.834 287.949H761.76V273.505H764.834V287.949Z" fill="#7D6740"/>
<path d="M825.31 287.949H822.237V273.505H825.31V287.949Z" fill="#7D6740"/>
<path d="M885.787 287.949H882.713V273.505H885.787V287.949Z" fill="#7D6740"/>
<path d="M242.148 55.8645C230.031 84.8443 197.298 105.077 166.545 98.7549C175.734 114.067 169.419 135.492 155.316 146.442C141.213 157.393 121.53 159.038 104.259 154.52C94.485 151.963 85.29 147.622 76.623 142.483C72.072 139.787 67.749 136.785 63.372 133.823C58.35 130.421 57.705 129.248 54.861 134.486C49.743 143.921 47.703 156.802 44.412 167.053C41.07 177.469 37.599 187.856 34.383 198.311C32.001 205.735 29.5079 213.366 24.486 219.33C18.3779 226.589 9.41097 229.999 0 230.251L0 4.5756e-05H244.86C249.879 18.4854 249.513 38.2586 242.148 55.8645Z" fill="#85A031"/>
<path d="M47.1829 60.3701C49.8073 79.0206 59.218 83.5474 64.9636 77.6158C70.7095 71.6871 63.1477 60.9015 47.1829 60.3701" fill="#7D912A"/>
<path d="M82.809 400.774H27.504L21.42 318.277L20.454 305.162L9.72306 159.617L8.94597 149.066L0 27.7551L0 -1.83939e-05H29.154L58.977 222.752L59.904 229.696L61.101 238.635L63.63 257.514L78.57 369.111L82.809 400.774" fill="#E2B074"/>
<path d="M115.829 4.83902e-06L86.1504 87.7231L82.1544 99.5384L53.7654 183.449L43.7004 108.433L97.6674 4.83902e-06H115.829" fill="#E2B074"/>
<path d="M101.671 41.8488L129.587 24.1769L132.889 30.784L92.0745 70.2163L101.671 41.8488" fill="#E2B074"/>
<path d="M13.9898 217.502L0 203.141L0 241.688L18.3087 276.077L13.9898 217.502" fill="#E2B074"/>
<path d="M37.2174 60.1062L50.8905 0.000129471H43.7016L33.1851 30.0546L37.2174 60.1062Z" fill="#E2B074"/>
<path d="M130.224 99.9736C114.061 109.625 113.54 120.062 121.231 123.061C128.922 126.06 135.926 114.902 130.224 99.9736Z" fill="#7D912A"/>
<path d="M115.885 79.0718C103.304 93.0844 105.896 103.204 114.13 103.789C122.364 104.374 125.751 91.6435 115.885 79.0718Z" fill="#7D912A"/>
<path d="M196.869 50.8004C199.493 69.4509 208.904 73.9777 214.65 68.049C220.396 62.1174 212.834 51.3317 196.869 50.8004Z" fill="#7D912A"/>
<path d="M214.641 23.9099C201.934 37.8054 204.434 47.9517 212.663 48.6091C220.891 49.2695 224.393 36.5687 214.641 23.9099Z" fill="#7D912A"/>
<path d="M191.68 28.0615C172.905 26.7076 166.503 34.9627 171.089 41.8279C175.675 48.6962 187.804 43.569 191.68 28.0615Z" fill="#7D912A"/>
<path d="M131.662 8.53735C118.251 21.7545 120.222 32.0148 128.405 33.1015C136.588 34.1881 140.744 21.6855 131.662 8.53735Z" fill="#7D912A"/>
<path d="M63.6304 257.514C62.4934 257.616 61.3354 257.631 60.1924 257.643C54.3634 257.7 48.5344 257.757 42.7054 257.814C40.5634 257.832 38.3614 257.844 36.3514 257.105C34.3384 256.364 32.5204 254.698 32.2384 252.57C32.0044 250.799 32.8714 249.018 34.1434 247.764C35.4124 246.506 37.0444 245.692 38.6734 244.96C43.0144 243.006 52.9564 239.079 61.1014 238.635L63.6304 257.514" fill="#C19A70"/>
<path d="M59.9029 229.696C58.2289 230.692 56.2549 231.194 54.3049 231.071C52.9129 230.983 51.4729 230.548 50.5159 229.531C49.5589 228.513 49.2469 226.817 50.0809 225.697C50.7979 224.731 52.0879 224.433 53.2699 224.202C54.6079 223.941 57.0019 223.065 58.9759 222.752L59.9029 229.696" fill="#C19A70"/>
<path d="M55.6111 313.78C54.7801 315.549 52.4881 315.942 50.5411 316.107C42.3661 316.8 34.1911 317.494 26.0162 318.187C24.5191 318.313 22.9352 318.409 21.4201 318.277L20.4541 305.162C22.0891 304.799 23.8141 304.658 25.236 304.472C33.9151 303.319 42.8911 304.364 51.0451 307.576C52.3921 308.104 53.7571 308.719 54.7381 309.785C55.7161 310.848 56.2261 312.472 55.6111 313.78Z" fill="#C19A70"/>
<path d="M35.4133 327.859C34.0855 327.691 32.6134 327.556 31.5265 328.336C29.8194 329.564 30.2134 332.425 31.7782 333.83C33.343 335.232 35.578 335.55 37.6738 335.712C42.0073 336.045 46.3714 335.985 50.6941 335.529C51.8572 335.409 53.0485 335.247 54.0763 334.688C55.1041 334.13 55.9474 333.088 55.9396 331.918C55.9183 328.682 38.5633 328.258 35.4133 327.859Z" fill="#C19A70"/>
<path d="M82.8096 400.774H57.1386C56.7246 397.634 57.6366 394.158 58.6926 391.066C60.7296 385.107 63.2346 379.092 67.7196 374.676C70.2966 372.097 74.4576 369.75 78.5706 369.111L82.8096 400.774" fill="#C19A70"/>
<path d="M43.1505 362.831C40.8201 366.631 41.7081 372.268 45.4479 374.691C47.0757 375.745 49.0485 376.15 50.9859 376.231C52.5732 376.294 54.2424 376.129 55.5726 375.258C57.9723 373.691 58.5057 370.464 58.8171 367.613C59.0412 365.562 59.2587 363.437 58.6206 361.477C56.3484 354.491 45.9489 358.268 43.1505 362.831" fill="#C19A70"/>
<path d="M36.6688 155.25C36.5218 157.423 34.6798 159.182 32.6308 159.912C30.5818 160.644 28.3409 160.554 26.1689 160.458C21.5248 160.251 16.8837 160.044 12.2429 159.837C11.4058 159.797 10.5508 159.755 9.72289 159.617L8.9458 149.066C14.3518 148.063 21.5939 149.09 25.9979 149.09C28.3229 149.057 30.7228 149.039 32.8618 149.942C35.0008 150.846 36.8248 152.932 36.6688 155.25" fill="#C19A70"/>
<path d="M31.0052 141.711C32.5157 142.756 34.3664 143.185 36.1865 143.437C38.9903 143.825 41.8442 143.849 44.654 143.509C46.1792 143.323 47.7431 143.011 49.0019 142.129C50.2607 141.249 51.1424 139.67 50.7944 138.175C50.4881 136.854 49.3049 135.882 48.0227 135.447C46.7408 135.014 45.3566 135.026 44.0036 135.044C39.7886 135.098 34.9895 134.522 30.8384 135.215C26.6533 135.915 28.0711 139.676 31.0052 141.711Z" fill="#C19A70"/>
<path d="M86.1503 87.7231L82.1543 99.5384C77.5253 100.781 72.8033 101.679 68.0393 102.228C65.9393 102.471 63.7703 102.639 61.7453 102.036C59.7203 101.433 57.8423 99.8926 57.4283 97.8183C56.9903 95.6239 58.2983 93.3696 60.1163 92.0668C61.9343 90.7609 64.1783 90.2266 66.3743 89.7913C72.7133 88.5336 79.5593 87.576 86.1503 87.7231" fill="#C19A70"/>
<path d="M76.432 76.5173C75.0511 76.2591 73.6807 77.5439 73.6162 78.9458C73.5511 80.3506 74.5846 81.6594 75.8911 82.1758C77.3515 82.7521 79.165 82.3919 80.2129 81.2211C81.2608 80.0504 81.3925 78.1233 80.4256 76.8865C79.459 75.6468 77.4613 75.3375 76.225 76.3071L76.432 76.5173Z" fill="#C19A70"/>
<path d="M25.0184 57.5184C25.4742 59.3285 25.9335 61.1687 25.8611 63.0328C25.7889 64.897 25.11 66.8242 23.654 67.9919C21.5163 69.7029 18.3778 69.3367 15.8241 68.3461C13.7117 67.5296 11.6712 66.2808 10.4533 64.3717C9.23546 62.4595 9.02969 59.7878 10.4064 57.9897C12.1641 55.6903 13.8897 56.9001 15.9809 57.2423C18.8741 57.7136 22.0268 57.5094 25.0184 57.5184" fill="#C19A70"/>
<path d="M192.508 146.634C194.971 154.823 439.222 156.547 446.845 150.489C454.465 144.434 330.346 138.926 330.346 138.926C341.101 124.61 300.907 97.6262 288.259 121.857C262.302 103.135 222.169 118.003 222.75 140.58C199.685 136.173 190.852 141.129 192.508 146.634" fill="#C9F2E8"/>
<path d="M656.89 103.33C658.021 113.023 824.233 100.448 831.766 92.9164C839.299 85.3847 805.897 85.9551 805.897 85.9551C813.946 72.2667 772.042 54.976 760.723 86.2342C735.736 56.4379 691.729 68.7785 690.895 90.4969C669.187 89.146 655.744 93.4867 656.89 103.33" fill="#C9F2E8"/>
<path d="M570.297 57.7526C571.56 53.451 567.549 49.0473 563.151 48.1767C558.753 47.3062 554.283 48.9122 550.095 50.5092C545.907 52.1091 541.461 53.7542 537.048 52.9647C536.616 45.7422 530.466 39.2942 523.278 38.5198C516.093 37.7453 508.713 42.7404 506.754 49.7047C503.55 47.6184 499.389 46.7568 495.825 48.1407C492.261 49.5215 489.651 53.457 490.428 57.2003C492.429 66.8422 517.638 61.9642 524.166 61.655C539.586 60.9256 554.976 59.6258 570.297 57.7526Z" fill="#C9F2E8"/>
<path d="M622.767 402.626C623.493 400.513 625.884 398.964 628.02 399.606C628.314 397.331 629.847 395.254 631.935 394.305C634.023 393.357 636.594 393.57 638.499 394.849C640.095 393.318 642.441 392.615 644.613 393.017C646.785 393.42 648.726 394.915 649.668 396.914C651.393 395.452 654.069 395.242 655.998 396.418C657.93 397.595 658.971 400.069 658.461 402.272C659.673 400.027 662.979 400.012 665.283 401.107C666.294 401.585 667.266 402.248 667.821 403.221C668.376 404.193 668.412 405.52 667.674 406.364C669.411 407.417 670.092 409.906 669.135 411.698C668.685 412.538 667.953 413.19 667.212 413.79C661.632 418.278 654.444 420.721 647.286 420.556C641.169 420.412 634.914 418.374 629.979 414.718C626.532 412.163 621.138 407.378 622.767 402.626" fill="#6D7A1C"/>
<path d="M633.926 417.698C631.868 416.453 629.969 414.793 628.97 412.601C627.974 410.41 628.043 407.63 629.591 405.787C631.139 403.944 634.277 403.506 635.984 405.202C636.674 403.299 638.603 401.918 640.625 401.879C642.647 401.843 644.627 403.148 645.386 405.025C646.388 403.245 648.641 402.587 650.684 402.53C651.968 402.494 653.327 402.656 654.368 403.413C655.409 404.169 655.997 405.664 655.391 406.799C656.825 404.866 659.888 404.607 661.871 405.973C663.857 407.339 664.742 409.96 664.43 412.349C664.118 414.739 662.759 416.894 661.046 418.587C657.56 422.039 652.616 423.771 647.714 423.99C642.815 424.212 637.943 423.03 633.353 421.295C631.874 420.736 630.368 420.091 629.27 418.947C628.175 417.806 627.575 416.044 628.211 414.595L633.926 417.698" fill="#7D912A"/>
<path d="M646.689 411.281C646.614 411.281 645.942 411.281 644.862 411.281C638.955 411.281 620.823 411.281 620.823 411.281L623.697 425.978H627.369L630.882 444.199H644.862H646.689H660.669L664.182 425.978H667.854L670.728 411.281C670.728 411.281 652.593 411.281 646.689 411.281Z" fill="#69B3B2"/>
<path d="M664.68 411.281L661.806 425.978H658.134L654.621 444.199H664.521L668.034 425.978H671.706L674.58 411.281C674.58 411.281 669.99 411.281 664.68 411.281Z" fill="#589C9E"/>
<path d="M661.806 425.978H636.807L661.806 432.528V425.978Z" fill="#589C9E"/>
<path d="M634.441 422.97C634.276 422.97 634.111 422.964 633.949 422.952C633.616 422.934 633.268 422.883 633.004 422.679C632.728 422.462 632.599 422.114 632.485 421.781C631.939 420.187 631.465 418.569 631.063 416.933C630.823 415.96 630.607 414.946 630.805 413.964C630.961 413.181 632.155 412.805 633.367 412.805C634.477 412.805 635.605 413.124 635.965 413.733C636.232 414.192 636.259 414.751 636.28 415.282C636.361 417.542 636.442 419.803 636.523 422.063C636.529 422.258 636.532 422.474 636.403 422.622C636.295 422.751 636.118 422.793 635.956 422.826C635.458 422.922 634.948 422.97 634.441 422.97" fill="#85C1C0"/>
<path d="M638.966 439.819C638.948 439.819 638.93 439.819 638.915 439.816C638.417 439.792 638.012 439.411 637.702 439.018C635.997 436.856 635.841 433.893 635.76 431.141C635.742 430.54 635.742 429.883 636.12 429.418C636.337 429.151 636.67 429.039 637.039 429.039C637.865 429.039 638.861 429.595 639.086 430.207C639.281 430.738 639.215 431.318 639.185 431.879C639.11 433.374 639.311 434.884 639.783 436.304C640.005 436.985 640.296 437.676 640.242 438.393C640.188 439.093 639.66 439.819 638.966 439.819" fill="#85C1C0"/>
<path d="M724.938 350.928C724.935 353.639 725.082 356.35 725.388 359.042C727.827 351.241 735.066 345.564 737.127 337.651C737.328 336.88 737.415 335.916 736.791 335.424C736.08 334.862 735.054 335.346 734.292 335.832C731.751 337.456 728.205 338.861 726.783 341.617C725.283 344.519 724.938 347.698 724.938 350.928" fill="#7D912A"/>
<path d="M749.856 383.435C743.673 378.143 740.049 370.494 737.166 362.885C734.283 355.272 731.913 347.359 727.521 340.509C729.693 338.315 732.267 336.516 735.072 335.232C735.585 334.995 736.14 334.772 736.698 334.865C737.169 334.946 737.571 335.244 737.955 335.532C740.598 337.531 743.253 339.539 745.548 341.929C747.585 344.048 749.316 346.444 750.924 348.905C752.46 351.256 753.897 353.684 755.022 356.257C758.757 364.782 758.901 374.385 758.988 383.694C758.994 384.531 758.958 385.477 758.331 386.032C757.554 386.719 756.318 386.404 755.451 385.837C754.938 385.504 754.308 384.756 753.717 384.606C753.09 384.447 753.114 384.732 752.637 384.732C751.512 384.732 750.876 384.309 749.856 383.435" fill="#6D7A1C"/>
<path d="M757.467 384.567C757.602 377.837 758.418 371.119 759.9 364.554C760.494 361.912 761.205 359.276 762.366 356.83C764.208 352.952 767.106 349.698 769.839 346.387C775.392 339.662 780.39 332.503 785.385 325.356C784.341 328.49 784.167 331.834 783.861 335.124C783.366 340.476 782.496 345.792 781.266 351.024C780.39 354.738 779.331 358.418 777.789 361.906C776.472 364.887 774.816 367.7 773.139 370.494C769.326 376.852 765.36 383.174 760.401 388.683C760.041 389.085 759.624 389.508 759.084 389.562C757.938 389.673 757.413 388.181 757.284 387.038L757.467 384.567" fill="#6D7A1C"/>
<path d="M755.916 373.376C756.612 368.333 757.899 363.32 757.689 358.235C757.572 355.383 756.987 352.576 756.522 349.764C755.103 341.202 754.77 332.464 755.535 323.822C756.438 323.699 757.341 323.573 758.244 323.449C757.209 331.987 757.836 340.725 760.086 349.025C760.644 351.085 761.301 353.129 761.553 355.245C762.033 359.319 760.98 363.392 760.473 367.466C760.038 370.951 760.008 374.484 760.374 377.975C760.74 381.46 762.003 384.648 762.585 388.043C762.954 390.196 761.625 391.853 759.552 390.439C757.764 389.217 756.714 386.356 756.159 384.378C755.163 380.836 755.415 376.981 755.916 373.376" fill="#7D912A"/>
<path d="M728.412 382.214C728.709 383.336 732.285 400.696 732.285 400.696H737.949L745.101 445.958H776.484L783.636 400.696H789.297C789.297 400.696 792.876 383.336 793.173 382.214H728.412Z" fill="#EFB82E"/>
<path d="M782.28 382.214C781.983 383.336 778.404 400.696 778.404 400.696H772.743L765.591 445.961H776.484L783.636 400.696H789.3C789.3 400.696 792.876 383.336 793.173 382.214H782.28" fill="#E2A333"/>
<path d="M741.41 401.509C741.947 401.377 780.758 400.696 780.758 400.696L779.381 405.154L741.41 401.509" fill="#E2A333"/>
<path d="M739.563 398.352C739.452 398.352 739.344 398.343 739.236 398.325C737.559 398.045 736.419 396.193 735.969 394.347C735.519 392.501 735.552 390.538 735.105 388.689C734.616 386.671 734.013 383.21 736.773 383.21C736.788 383.21 736.806 383.21 736.824 383.21C738.705 383.24 740.694 385.411 741.138 387.344C741.381 388.403 741.384 389.514 741.39 390.613C741.396 392.486 741.402 394.362 741.408 396.238C741.411 396.538 741.411 396.842 741.333 397.127C741.114 397.931 740.322 398.352 739.563 398.352" fill="#F2C555"/>
<path d="M751.116 436.907C749.433 435.325 748.941 432.885 748.53 430.612C747.663 425.776 746.793 420.94 745.923 416.104L746.244 414.471C746.946 413.898 747.624 413.271 748.047 412.475C749.007 410.683 748.326 408.195 746.589 407.138C747.327 406.297 747.291 404.971 746.736 403.998C746.655 403.857 746.568 403.722 746.469 403.593C747.717 403.632 749.097 404.463 749.646 405.427C750.276 406.531 750.417 407.84 750.537 409.107C751.335 417.431 751.893 425.779 752.211 434.137C752.253 435.202 752.118 436.541 751.116 436.907" fill="#F2C555"/>
<path d="M745.842 318.322C744.081 314.672 743.76 310.517 743.469 306.477C743.199 302.767 743.013 298.726 745.131 295.67C745.512 295.121 746.004 294.59 746.652 294.437C746.97 294.362 747.297 294.383 747.627 294.407C747.846 294.419 748.065 294.434 748.284 294.422C749.193 294.362 749.994 293.809 750.888 293.635C752.283 293.362 753.819 294.154 754.404 295.454C755.223 293.701 756.621 292.125 758.466 291.546C760.311 290.969 762.6 291.639 763.497 293.35C765.525 292.419 768.201 294.47 767.829 296.67C768.978 295.016 771.984 295.346 772.746 297.213C773.175 296.919 773.805 297.183 774.084 297.625C774.363 298.066 774.384 298.615 774.399 299.137C774.531 304.054 774.648 309.074 773.241 313.786C771.831 318.502 768.609 322.948 763.953 324.536C757.254 326.818 749.064 325.01 745.842 318.322" fill="#E8421C"/>
<path d="M755.352 325.938C757.029 326.115 758.724 325.887 760.386 325.608C762.714 325.218 765.153 324.659 766.86 323.032C765.699 323.059 764.541 323.083 763.38 323.11C763.302 322.732 763.224 322.351 763.146 321.972C762.042 322.387 760.893 322.687 759.726 322.867C759.471 322.906 759.201 322.939 758.961 322.843C758.382 322.615 758.172 321.741 757.551 321.684C757.572 322.09 757.437 322.504 757.182 322.819C755.448 322.39 753.714 321.96 751.98 321.531C751.917 321.987 751.944 322.453 752.061 322.9C751.881 322.204 748.461 321.378 747.879 321.48C749.001 324.044 752.736 325.665 755.352 325.938" fill="#7D912A"/>
<path d="M749.271 313.327C748.866 313.327 748.458 313.096 748.188 312.778C747.861 312.388 747.693 311.886 747.543 311.4C746.877 309.248 746.37 307.047 746.022 304.823C745.719 302.884 745.545 300.866 746.115 298.99C746.448 297.895 747.417 297.207 748.359 297.207C749.085 297.207 749.793 297.615 750.18 298.558C750.507 299.351 750.426 300.251 750.228 301.086C750.033 301.917 749.727 302.728 749.61 303.574C749.418 304.97 749.748 306.372 749.991 307.759C750.168 308.764 750.297 309.779 750.429 310.794C750.489 311.274 750.552 311.766 750.441 312.237C750.33 312.709 750.012 313.162 749.547 313.291C749.457 313.318 749.364 313.327 749.271 313.327" fill="#EC6647"/>
<path d="M755.896 302.917C755.92 307.942 755.944 312.967 755.965 317.989C756.295 317.575 756.331 317.01 756.367 316.482C756.821 309.737 759.228 302.836 757.187 296.391C756.659 294.713 754.713 293.743 754.918 296.163C755.002 297.177 755.539 298.177 755.695 299.2C755.884 300.428 755.89 301.677 755.896 302.917" fill="#B22D18"/>
<path d="M770.675 312.084C771.254 309.305 771.347 306.453 771.437 303.616C771.47 302.56 771.503 301.497 771.314 300.458C771.155 299.576 770.981 298.384 771.809 298.039C772.598 299.032 772.724 300.386 772.763 301.656C772.877 305.597 772.43 309.557 771.437 313.375C771.089 314.714 770.666 316.056 769.889 317.2C769.442 317.86 768.854 318.499 768.14 318.866C768.077 317.995 769.115 316.779 769.481 315.933C770.018 314.699 770.402 313.399 770.675 312.084" fill="#B22D18"/>
<path d="M588.582 362.188C589.23 362.134 589.878 362.083 590.526 362.029C587.7 376.543 588.069 391.673 591.6 406.03C592.032 407.786 590.871 409.633 589.377 407.726C588.624 406.766 588.816 404.439 588.66 403.302C588.033 398.769 587.439 394.233 587.055 389.673C586.287 380.503 586.344 371.164 588.582 362.188Z" fill="#6D7A1C"/>
<path d="M578.378 382.445C575.63 376.228 572.48 370.05 567.74 365.178C579.566 374.466 586.337 388.764 590.996 403.067C591.257 403.863 591.515 404.694 591.392 405.523C591.122 407.348 588.386 408.579 587.168 407.066C585.965 405.574 585.608 401.416 584.975 399.513C583.049 393.726 580.844 388.025 578.378 382.445" fill="#6D7A1C"/>
<path d="M595.2 380.356C599.724 371.494 606.786 363.944 615.327 358.844C607.497 365.77 602.835 375.532 598.779 385.168C595.167 393.75 591.81 403.056 593.64 412.184C583.527 413.388 593.211 384.255 595.2 380.356" fill="#85A031"/>
<path d="M585.087 400.69C586.872 401.233 588.54 402.152 589.95 403.374C591.159 402.044 592.638 400.963 594.27 400.207C593.352 401.263 593.637 402.959 594.459 404.094C595.284 405.226 596.517 405.973 597.612 406.844C599.37 408.24 600.822 410.017 601.842 412.013C602.943 414.168 603.456 417.002 601.908 418.86C600.684 420.337 598.593 420.694 596.682 420.868C592.791 421.223 583.827 422.787 581.862 417.963C580.836 415.45 582.198 412.343 583.134 410.032C583.509 409.11 586.869 401.23 585.087 400.69" fill="#F7BB43"/>
<path d="M591.886 411.62C591.811 411.62 591.139 411.62 590.059 411.62C584.152 411.62 566.02 411.62 566.02 411.62L568.894 426.32H572.566L576.079 444.541H590.059H591.886H605.866L609.379 426.32H613.051L615.925 411.62C615.925 411.62 597.79 411.62 591.886 411.62Z" fill="#DD813C"/>
<path d="M606.025 411.62L603.151 426.32H599.479L595.966 444.541H605.866L609.379 426.32H613.051L615.925 411.62C615.925 411.62 611.338 411.62 606.025 411.62Z" fill="#C16C33"/>
<path d="M603.15 426.32H578.154L603.15 432.87V426.32Z" fill="#C16C33"/>
<path d="M575.787 423.309C575.622 423.309 575.457 423.306 575.292 423.294C574.959 423.273 574.611 423.225 574.35 423.021C574.071 422.805 573.942 422.454 573.828 422.123C573.282 420.529 572.808 418.908 572.406 417.272C572.166 416.3 571.95 415.288 572.148 414.307C572.307 413.523 573.498 413.148 574.71 413.148C575.82 413.148 576.948 413.463 577.308 414.075C577.578 414.535 577.602 415.093 577.623 415.624C577.704 417.885 577.785 420.145 577.866 422.406C577.875 422.601 577.875 422.817 577.746 422.964C577.638 423.09 577.464 423.135 577.299 423.165C576.801 423.261 576.294 423.309 575.787 423.309" fill="#E39961"/>
<path d="M580.311 440.161C580.293 440.161 580.278 440.158 580.26 440.158C579.761 440.134 579.356 439.753 579.047 439.36C577.342 437.196 577.189 434.236 577.105 431.48C577.087 430.883 577.087 430.225 577.465 429.757C577.681 429.493 578.017 429.382 578.384 429.382C579.209 429.382 580.206 429.937 580.431 430.549C580.626 431.078 580.56 431.66 580.533 432.221C580.455 433.716 580.659 435.223 581.127 436.646C581.352 437.328 581.641 438.018 581.586 438.735C581.532 439.435 581.004 440.161 580.311 440.161" fill="#E39961"/>
<path d="M582.51 361.417C582.171 359.084 581.931 356.737 581.79 354.384C581.697 352.826 581.646 351.247 581.181 349.761C580.716 348.275 579.774 346.858 578.355 346.212C577.821 345.969 577.167 345.78 576.948 345.234C576.606 344.387 577.641 343.607 578.544 343.493C579.558 343.367 580.614 343.613 581.466 344.174C581.346 343.205 581.298 342.184 581.67 341.28C582.042 340.377 582.936 339.623 583.911 339.701C585.354 339.816 586.065 341.476 586.47 342.865C586.296 341.142 587.955 339.476 589.68 339.644C591.405 339.813 592.71 341.767 592.206 343.427C593.364 342.376 594.591 341.289 596.112 340.932C597.633 340.575 599.514 341.244 599.952 342.745C600.309 343.964 599.634 345.219 598.986 346.312C600.378 345.087 602.655 345.036 604.101 346.194C604.68 346.66 605.145 347.365 605.049 348.101C604.932 349.007 604.029 349.608 603.144 349.842C602.262 350.076 601.32 350.07 600.468 350.397C598.056 351.322 597.357 354.326 596.901 356.869C596.43 359.496 595.821 362.182 594.306 364.377C590.166 370.362 583.473 368.054 582.51 361.417" fill="#F7BB43"/>
<path d="M586.799 364.046C585.689 363.848 584.968 362.762 584.569 361.705C583.662 359.315 583.759 356.749 583.629 354.242C583.56 352.931 582.192 349.013 582.744 347.98C583.023 347.464 583.584 347.254 584.176 347.254C584.773 347.254 585.401 347.467 585.809 347.797C587.454 349.133 586.199 351.391 585.935 353.108C585.379 356.755 587.739 360.48 586.799 364.046" fill="#F9C866"/>
<path d="M254.652 362.308C254.652 362.308 258.745 431.393 279.675 439.948C299.913 448.221 368.535 454.153 404.319 456.906C413.814 457.638 423.075 453.721 429.171 446.399L480.297 384.996L254.652 362.308" fill="#75D3CE"/>
<path d="M457.133 382.553L415.523 432.528C409.427 439.849 400.166 443.767 390.671 443.037C356.729 440.425 293.246 434.953 269.528 427.337C272.597 433.479 276.316 438.111 280.812 439.948C301.049 448.221 369.674 454.153 405.455 456.906C414.953 457.638 424.211 453.721 430.31 446.399L481.433 384.996L457.133 382.553" fill="#69B3B2"/>
<path d="M489.608 388.406L252.993 367.249C250.227 367 248.186 364.557 248.433 361.792L248.439 361.714C248.687 358.949 251.129 356.905 253.894 357.154L490.511 378.311C493.277 378.56 495.317 381.004 495.071 383.772L495.062 383.847C494.816 386.611 492.374 388.656 489.608 388.406" fill="#75D3CE"/>
<path d="M269.528 368.726C269.528 368.726 459.101 400.681 459.506 399.75C459.911 398.82 470.024 386.656 470.024 386.656L269.528 368.726Z" fill="#69B3B2"/>
<path d="M495.186 463.201C495.186 481.224 480.582 495.837 462.57 495.837C444.555 495.837 429.954 481.224 429.954 463.201C429.954 445.174 444.555 430.564 462.57 430.564C480.582 430.564 495.186 445.174 495.186 463.201Z" fill="#4A494F"/>
<path d="M486.105 463.201C486.105 476.208 475.566 486.75 462.57 486.75C449.571 486.75 439.035 476.208 439.035 463.201C439.035 450.194 449.571 439.651 462.57 439.651C475.566 439.651 486.105 450.194 486.105 463.201Z" fill="#D8601D"/>
<path d="M464.844 468.13C464.718 468.13 464.592 468.124 464.463 468.112C458.262 467.523 312.162 453.556 277.429 441.963C272.754 440.402 268.564 436.571 264.976 430.579C262.085 425.75 259.528 419.527 257.159 411.557C252.944 397.373 250.194 380.347 247.984 366.661C246.245 355.89 244.602 345.72 243.028 342.448C233.105 321.834 210.196 311.796 170.935 310.86C168.747 310.809 167.016 308.99 167.069 306.801C167.121 304.613 168.932 302.884 171.123 302.935C190.157 303.388 205.403 305.919 217.731 310.674C233.045 316.578 243.958 326.112 250.166 339.008C252.239 343.316 253.735 352.579 255.805 365.397C257.978 378.855 260.683 395.605 264.753 409.299C270.228 427.719 276.031 433.14 279.936 434.443C313.815 445.751 463.701 460.079 465.213 460.22C467.391 460.427 468.987 462.363 468.78 464.542C468.588 466.593 466.86 468.13 464.844 468.13" fill="#428484"/>
<path d="M323.618 504.86C315.515 504.86 307.172 494.753 297.393 473.104C290.677 458.232 285.918 443.568 285.718 442.953C284.996 440.717 286.099 438.276 288.182 437.502C290.265 436.727 292.539 437.91 293.261 440.146C293.309 440.29 298.086 455.008 304.604 469.426C316.097 494.852 322.379 496.293 323.642 496.293L323.69 496.29C328.016 496.158 333.863 488.182 339.338 474.953C344.06 463.546 347.033 451.98 347.063 451.863C347.645 449.581 349.841 448.239 351.968 448.864C354.092 449.488 355.346 451.845 354.764 454.126C354.638 454.618 351.626 466.352 346.67 478.348C339.404 495.939 331.961 504.608 323.918 504.857C323.819 504.86 323.72 504.86 323.618 504.86" fill="#428484"/>
<path d="M283.392 423.276C282.737 423.276 282.073 423.168 281.451 422.982C276.738 421.568 274.104 416.651 272.277 412.079C270.854 408.519 269.609 404.887 268.549 401.2C266.818 395.191 263.518 380.154 272.929 378.455C273.557 378.341 274.139 378.287 274.681 378.287C282.344 378.287 281.634 389.076 281.223 394.308C280.702 400.96 283.513 407.366 286.242 413.454C286.91 414.943 287.586 416.468 287.722 418.095C287.858 419.722 287.353 421.496 286.046 422.475C285.286 423.042 284.349 423.276 283.392 423.276" fill="#B1E6E3"/>
<path d="M200.033 321.006L159.671 317.398C153.489 316.845 148.926 311.382 149.478 305.195C150.031 299.011 155.49 294.446 161.671 294.998L202.033 298.606C208.215 299.159 212.778 304.622 212.226 310.809C211.673 316.993 206.214 321.558 200.033 321.006" fill="#D8601D"/>
<path d="M208.923 301.827C208.932 302.247 208.921 302.671 208.882 303.1C208.33 309.284 202.871 313.85 196.69 313.297L156.328 309.689C153.655 309.449 151.286 308.29 149.5 306.555C149.63 312.199 153.979 316.968 159.733 317.482L200.095 321.09C206.276 321.645 211.735 317.08 212.288 310.893C212.602 307.381 211.266 304.106 208.923 301.827" fill="#D8601D"/>
<path d="M190.846 305.699C190.84 305.699 190.834 305.699 190.828 305.699C183.743 305.672 176.68 303.982 169.636 303.982C168.166 303.982 166.696 304.057 165.227 304.235C163.832 304.403 162.416 304.667 161.021 304.667C160.338 304.667 159.661 304.604 158.994 304.436C157.675 304.108 156.319 303.136 156.299 301.776C156.299 299.239 158.996 298.786 161.149 298.786C161.681 298.786 162.18 298.813 162.596 298.843C166.789 299.152 171.027 299.137 175.228 299.276C181.028 299.465 187.058 299.714 192.189 302.424C192.852 302.776 193.572 303.286 193.609 304.036C193.668 305.246 192.061 305.699 190.846 305.699" fill="#E9A57E"/>
<path d="M212.225 308.764L210.162 316.368L216.758 318.751L215.993 310.025L212.225 308.764" fill="#2A7C2A"/>
<path d="M132.491 341.181C131.871 339.596 121.117 320.979 96.3163 299.828C71.5156 278.674 58.2655 277.254 58.2655 277.254L55.4263 279.682L53.8083 285.281L60.948 283.768L58.8952 288.556L67.2562 288.574L66.5731 292.773L73.4059 293.893L72.226 298.717L78.7095 298.513L78.1098 303.784L86.181 303.796L84.0747 308.728L91.4154 309.701L88.9513 313.949L95.52 314.627L93.2826 319.847L100.464 320.952L97.9764 325.572L105.091 326.568L103.076 330.735L110.15 331.137L107.285 335.976L114.567 337.462L112.136 342.856L119.959 342.859C119.959 342.859 117.194 349.331 118.185 348.491C119.177 347.65 132.491 341.181 132.491 341.181Z" fill="#87A09E"/>
<path d="M124.923 391.732L122.807 383.781C122.619 383.072 122.714 382.322 123.073 381.685C124.298 379.512 127.11 374.25 127.274 371.527C127.409 369.267 126.566 365.607 125.954 363.305C125.623 362.059 126.185 360.747 127.316 360.132L136.928 354.876C138.214 354.173 139.824 354.582 140.618 355.815C142.185 358.25 144.727 362.482 146.72 367.162C148.781 371.998 150.632 377.744 151.645 381.07C152.12 382.625 151.333 384.288 149.828 384.906C144.806 386.975 133.894 391.462 128.686 393.603C127.124 394.245 125.357 393.365 124.923 391.732M125.189 401.729L158.072 388.653C160.058 387.863 161.07 385.648 160.366 383.63C158.209 377.447 153.393 364.635 147.571 355.386C142.691 347.635 138.654 342.964 136.268 340.515C134.969 339.182 132.92 338.93 131.333 339.902L131.196 339.987L117.637 348.02C116.082 348.938 115.341 350.79 115.828 352.531C117.274 357.691 120.077 368.246 120.103 372.605C120.137 378.479 115.866 380.473 115.969 383.594C116.039 385.708 118.382 394.002 119.89 399.144C120.551 401.398 123.007 402.596 125.189 401.729" fill="#D8601D"/>
<path d="M154.344 378.389C154.819 379.944 154.031 381.607 152.527 382.226C152.276 382.331 152.009 382.439 151.73 382.553C151.818 382.073 151.796 381.565 151.644 381.07C150.631 377.744 148.781 371.998 146.72 367.162C144.726 362.482 142.184 358.25 140.617 355.815C139.823 354.582 138.213 354.173 136.927 354.876L128.601 359.427C128.743 358.607 129.248 357.869 130.015 357.448L139.627 352.195C140.912 351.493 142.523 351.901 143.316 353.135C144.884 355.569 147.425 359.802 149.419 364.482C151.48 369.318 153.33 375.063 154.344 378.389" fill="#D8601D"/>
<path d="M119.89 399.144C118.382 394.002 116.039 385.708 115.969 383.594C115.866 380.473 120.137 378.479 120.102 372.605C120.077 368.246 117.274 357.691 115.828 352.531C115.341 350.79 116.082 348.938 117.637 348.02L118.607 347.443C118.341 348.2 118.3 349.037 118.528 349.851C119.974 355.011 122.776 365.565 122.802 369.924C122.837 375.799 118.565 377.792 118.669 380.914C118.739 383.027 121.082 391.321 122.589 396.463C123.25 398.718 125.707 399.915 127.889 399.048L160.413 386.113C160.069 387.233 159.239 388.187 158.073 388.653L125.189 401.729C123.007 402.596 120.551 401.398 119.89 399.144" fill="#D8601D"/>
<path d="M137.895 348.086C137.519 348.086 137.13 347.971 136.783 347.812C136.02 347.461 135.353 346.906 134.872 346.215C134.389 345.525 134.027 344.651 133.244 344.342C133.046 344.264 132.843 344.231 132.638 344.231C132.022 344.231 131.387 344.531 130.822 344.829C129.934 345.294 129.045 345.759 128.157 346.224C128.021 346.296 127.873 346.369 127.723 346.369C127.694 346.369 127.666 346.366 127.637 346.36C127.461 346.326 127.329 346.176 127.247 346.017C126.985 345.507 127.135 344.862 127.476 344.399C127.816 343.94 128.318 343.628 128.818 343.346C129.755 342.82 130.729 342.364 131.732 341.98C132.394 341.725 133.108 341.506 133.805 341.506C134.115 341.506 134.421 341.548 134.717 341.653C135.598 341.959 136.218 342.736 136.783 343.481C137.401 344.294 140.327 347.017 138.596 347.923C138.378 348.038 138.139 348.086 137.895 348.086" fill="#DF7E48"/>
<path d="M121.786 349.487C121.737 349.487 121.688 349.484 121.638 349.481C121.128 349.427 120.629 348.953 120.75 348.455C120.829 348.128 121.131 347.911 121.42 347.74C122.213 347.272 123.527 346.57 124.455 346.498C124.497 346.495 124.539 346.495 124.581 346.495C125.323 346.495 126.069 346.981 125.292 347.827C125.053 348.092 124.727 348.254 124.41 348.413C123.972 348.632 123.534 348.851 123.097 349.07C122.683 349.277 122.243 349.487 121.786 349.487" fill="#DF7E48"/>
<path d="M124.599 340.218C124.037 340.218 123.457 340.029 122.985 339.716C122.135 339.158 121.555 338.282 120.997 337.432C114.081 326.875 106.873 316.275 97.2014 308.17C96.4781 307.564 95.6924 306.891 95.5361 305.961C95.3672 304.952 96.5651 303.904 97.5422 303.904C97.5647 303.904 97.5875 303.907 97.61 303.907C98.9408 303.973 100.703 306.273 101.541 307.17C104.016 309.83 106.002 312.898 108.302 315.702C113.812 322.423 121.075 327.712 125.639 335.112C126.548 336.586 127.224 338.78 125.843 339.825C125.483 340.098 125.047 340.218 124.599 340.218" fill="#9EB2B0"/>
<path d="M94.3952 303.124C94.2053 303.124 93.9938 303.079 93.7637 302.98C92.2205 302.304 91.4054 300.647 90.314 299.363C88.7072 297.474 86.3786 296.304 84.7949 294.394C84.662 294.235 84.5276 294.046 84.5597 293.839C84.5849 293.68 84.7079 293.554 84.8474 293.473C85.0103 293.377 85.1852 293.338 85.3643 293.338C85.8134 293.338 86.2919 293.587 86.6909 293.839C88.9568 295.271 91.0793 296.928 93.0167 298.78C93.725 299.459 94.9391 300.326 95.2988 301.272C95.6567 302.214 95.2451 303.124 94.3952 303.124" fill="#9EB2B0"/>
<path d="M90.5213 459.799C89.2682 456.275 88.0151 452.751 86.7623 449.23C85.5032 445.691 84.2252 441.983 84.7298 438.261C85.1648 435.049 87.0194 432.02 89.7842 430.333C92.5493 428.646 96.1892 428.406 99.0713 429.883C101.953 431.363 103.911 434.569 103.729 437.805C103.665 438.94 103.317 440.122 102.467 440.876C101.962 441.323 101.318 441.584 100.669 441.764C98.8112 442.284 96.4256 441.977 95.5517 440.257C94.6457 438.474 95.8727 436.376 97.1345 434.824C97.2983 434.623 97.4717 434.401 97.4747 434.143C97.4783 433.815 97.2125 433.554 96.9419 433.371C95.0177 432.083 92.2064 433.11 90.9092 435.031C89.6123 436.952 89.5049 439.435 89.7566 441.74C90.2135 445.928 91.7639 450.061 94.5569 453.213C96.0479 454.897 97.8755 456.293 99.1289 458.157C100.383 460.025 100.945 462.627 99.6788 464.485C98.2742 466.548 95.1638 466.842 92.9345 466.211C91.2269 465.725 91.6238 465.686 91.4828 464.263C91.3274 462.687 91.0655 461.33 90.5213 459.799" fill="#6D7A1C"/>
<path d="M94.2393 458.551C94.1511 458.551 93.3504 458.551 92.0607 458.551C85.0215 458.551 63.4062 458.551 63.4062 458.551L66.8322 476.072H71.2098L75.3969 497.791H92.0607H94.2393H110.903L115.09 476.072H119.468L122.894 458.551C122.894 458.551 101.278 458.551 94.2393 458.551" fill="#EFB82E"/>
<path d="M111.092 458.551L107.666 476.072H103.288L99.1017 497.791H110.902L115.089 476.072H119.467L122.892 458.551C122.892 458.551 117.424 458.551 111.092 458.551" fill="#E2A333"/>
<path d="M107.668 476.072H77.8718L107.668 483.88V476.072Z" fill="#E2A333"/>
<path d="M75.0482 472.482C74.852 472.482 74.6558 472.476 74.4599 472.464C74.0642 472.44 73.6481 472.383 73.3355 472.14C73.0061 471.882 72.8513 471.465 72.716 471.068C72.0665 469.168 71.5004 467.238 71.0204 465.287C70.7351 464.128 70.4789 462.921 70.7138 461.751C70.901 460.817 72.3224 460.37 73.7666 460.37C75.0917 460.37 76.4363 460.748 76.8635 461.475C77.1845 462.024 77.2157 462.687 77.2382 463.321C77.3357 466.016 77.4329 468.712 77.5298 471.405C77.5382 471.639 77.5388 471.894 77.3873 472.071C77.2571 472.224 77.0483 472.275 76.8524 472.311C76.2584 472.425 75.6533 472.482 75.0482 472.482" fill="#F2C555"/>
<path d="M80.4389 492.571C80.4191 492.571 80.3987 492.568 80.3786 492.568C79.7843 492.538 79.3013 492.085 78.9332 491.616C76.9022 489.038 76.7183 485.507 76.6214 482.223C76.6001 481.509 76.6004 480.726 77.0501 480.17C77.3072 479.852 77.7053 479.72 78.1448 479.72C79.1276 479.72 80.3156 480.383 80.5838 481.113C80.8145 481.743 80.7371 482.437 80.7023 483.106C80.6111 484.889 80.8526 486.687 81.4112 488.38C81.6794 489.194 82.025 490.016 81.959 490.872C81.8939 491.703 81.2645 492.571 80.4389 492.571Z" fill="#F2C555"/>
<path d="M82.9553 450.398C80.4707 449.455 78.0041 448.371 75.9014 446.747C73.1471 444.619 71.1401 441.644 69.6824 438.48C73.9298 438.207 78.2588 439.429 81.7373 441.881C84.3791 443.743 86.5538 446.324 87.9209 449.257C89.861 453.421 85.1801 451.241 82.9553 450.398" fill="#6D7A1C"/>
<path d="M582.461 502.117C582.407 504.86 581.198 507.562 579.188 509.429C583.007 508.459 587.117 508.67 590.819 510.02C589.829 511.653 588.155 512.74 586.475 513.641C583.304 515.34 579.89 516.579 576.371 517.312C579.398 517.609 582.344 518.723 584.81 520.506C583.475 520.575 582.137 520.644 580.799 520.713C582.092 521.43 583.253 522.388 584.204 523.523C579.911 523.277 575.852 521.487 571.592 520.917C569.687 520.662 567.728 520.647 565.913 520.017C564.905 519.665 563.903 519.068 563.456 518.095C562.895 516.874 563.369 515.424 564.044 514.256C565.94 510.966 568.718 509.588 572.15 508.537C576.014 507.352 579.629 504.974 582.461 502.117" fill="#6D7A1C"/>
<path d="M564.441 502.936C562.119 500.33 558.531 498.715 555.051 498.941C550.842 499.211 547.479 502.624 545.394 506.292C542.655 511.107 541.389 517.015 543.147 522.271C544.902 527.524 550.158 531.739 555.672 531.216C563.427 530.475 569.025 521.388 576.777 522.181C573.765 519.077 570.009 516.702 565.914 515.31C567.741 514.301 574.782 507.535 574.782 507.535C574.782 507.535 569.343 508.432 564.441 502.936" fill="#E2A333"/>
<path d="M563.124 513.443C562.896 513.443 562.632 513.355 562.323 513.16C562.041 512.98 561.867 512.674 561.726 512.371C561.024 510.852 560.769 509.012 559.476 507.952C558.666 507.286 557.568 507.052 556.749 506.394C555.567 505.452 555.231 503.509 556.218 502.363C556.761 501.729 557.598 501.429 558.441 501.429C558.792 501.429 559.146 501.48 559.479 501.582C560.607 501.93 561.531 502.765 562.248 503.705C563.61 505.488 564.036 507.412 564.348 509.573C564.471 510.438 564.465 513.443 563.124 513.443" fill="#E7B459"/>
<path d="M517.535 499.943C520.085 498.935 523.043 499.007 525.542 500.141C523.172 496.992 521.78 493.117 521.597 489.179C523.484 489.464 525.131 490.586 526.613 491.79C529.4 494.063 531.863 496.734 533.897 499.7C533 496.788 532.892 493.642 533.582 490.676C534.161 491.883 534.74 493.093 535.322 494.3C535.484 492.829 535.919 491.388 536.597 490.073C538.025 494.129 537.947 498.565 539.066 502.72C539.567 504.575 540.308 506.391 540.428 508.309C540.494 509.375 540.329 510.531 539.606 511.317C538.694 512.308 537.173 512.428 535.838 512.26C532.076 511.779 529.73 509.747 527.435 506.986C524.852 503.873 521.264 501.456 517.535 499.943" fill="#6D7A1C"/>
<path d="M525.249 516.264C523.746 519.413 523.641 523.346 525.192 526.474C527.067 530.253 531.513 532.039 535.698 532.549C541.197 533.219 547.131 532.105 551.298 528.455C555.462 524.805 557.319 518.324 554.706 513.44C551.031 506.565 540.492 504.908 538.23 497.446C536.532 501.426 535.791 505.809 536.091 510.126C534.453 508.829 525.498 504.944 525.498 504.944C525.498 504.944 528.426 509.615 525.249 516.264" fill="#EFB82E"/>
<path d="M542.553 537.839C542.064 536.806 542.139 535.53 542.745 534.567C543.522 535.119 544.149 535.884 544.542 536.755C544.662 535.713 544.881 534.684 545.19 533.681C546.216 533.999 547.116 534.705 547.665 535.626C547.971 534.735 548.157 533.801 548.217 532.859C549.573 533.21 551.007 533.255 552.384 532.991C551.769 532.759 551.181 532.456 550.635 532.09C551.409 532.111 552.183 532.012 552.924 531.793C551.664 531.346 550.638 530.271 550.251 528.989C547.203 528.557 543.804 529.845 541.374 531.658C540.351 532.42 540.282 533.165 540.498 534.438C540.615 535.122 540.864 535.788 541.227 536.38C541.542 536.893 542.322 537.352 542.553 537.839" fill="#DD813C"/>
<path d="M528.612 524.186C528.372 524.186 528.132 524.15 527.898 524.075C526.773 523.709 526.035 522.544 525.918 521.367C525.804 520.191 526.218 519.014 526.806 517.99C527.922 516.045 529.533 514.91 531.405 513.788C531.909 513.484 533.322 512.866 534.354 512.866C535.119 512.866 535.674 513.208 535.494 514.271C535.437 514.601 535.221 514.877 534.996 515.126C533.868 516.36 532.269 517.306 531.789 518.909C531.489 519.914 531.696 521.016 531.408 522.025C531.063 523.246 529.842 524.186 528.612 524.186" fill="#F2C555"/>
<path d="M701.681 403.404C702.407 401.29 704.798 399.741 706.934 400.384C707.228 398.108 708.761 396.031 710.849 395.083C712.937 394.134 715.508 394.347 717.413 395.626C719.009 394.095 721.355 393.392 723.527 393.795C725.699 394.197 727.64 395.692 728.582 397.691C730.307 396.229 732.983 396.019 734.912 397.196C736.844 398.373 737.885 400.846 737.375 403.049C738.584 400.804 741.893 400.789 744.197 401.885C745.208 402.362 746.18 403.025 746.735 403.998C747.29 404.971 747.326 406.297 746.588 407.138C748.325 408.195 749.006 410.683 748.046 412.475C747.599 413.316 746.867 413.967 746.123 414.568C740.546 419.055 733.358 421.496 726.2 421.334C720.08 421.19 713.828 419.151 708.893 415.495C705.446 412.941 700.052 408.156 701.681 403.404" fill="#6D7A1C"/>
<path d="M712.842 418.476C710.784 417.23 708.885 415.57 707.886 413.379C706.89 411.187 706.959 408.405 708.507 406.565C710.055 404.721 713.193 404.283 714.9 405.979C715.59 404.076 717.519 402.695 719.541 402.656C721.563 402.62 723.543 403.926 724.302 405.802C725.304 404.022 727.557 403.365 729.6 403.308C730.884 403.272 732.243 403.434 733.284 404.19C734.325 404.947 734.913 406.442 734.307 407.576C735.741 405.64 738.804 405.385 740.787 406.751C742.773 408.117 743.658 410.737 743.346 413.127C743.034 415.516 741.675 417.671 739.962 419.364C736.476 422.817 731.532 424.549 726.63 424.768C721.731 424.99 716.859 423.804 712.269 422.072C710.787 421.514 709.284 420.868 708.186 419.725C707.091 418.584 706.491 416.822 707.124 415.372L712.842 418.476" fill="#7D912A"/>
<path d="M722.676 412.058C722.604 412.058 721.932 412.058 720.849 412.058C714.945 412.058 696.81 412.058 696.81 412.058L699.684 426.755H703.356L706.869 444.976H720.849H722.676H736.656L740.169 426.755H743.841L746.715 412.058C746.715 412.058 728.583 412.058 722.676 412.058Z" fill="#FF7C27"/>
<path d="M740.666 412.058L737.792 426.755H734.12L730.607 444.976H740.507L744.02 426.755H747.692L750.566 412.058C750.566 412.058 745.979 412.058 740.666 412.058Z" fill="#D8601D"/>
<path d="M737.793 426.755H712.797L737.793 433.305V426.755Z" fill="#D8601D"/>
<path d="M710.43 423.747C710.265 423.747 710.1 423.741 709.935 423.729C709.602 423.711 709.254 423.66 708.993 423.456C708.714 423.24 708.585 422.892 708.471 422.558C707.928 420.964 707.451 419.346 707.049 417.71C706.809 416.738 706.596 415.723 706.791 414.742C706.95 413.958 708.141 413.583 709.353 413.583C710.466 413.583 711.594 413.901 711.951 414.51C712.221 414.97 712.248 415.528 712.266 416.059C712.347 418.32 712.428 420.58 712.509 422.841C712.518 423.036 712.518 423.252 712.389 423.399C712.281 423.528 712.107 423.57 711.942 423.603C711.444 423.696 710.937 423.747 710.43 423.747" fill="#FF9550"/>
<path d="M714.952 440.597C714.934 440.597 714.919 440.597 714.901 440.594C714.403 440.57 713.998 440.188 713.689 439.795C711.983 437.634 711.83 434.671 711.746 431.918C711.728 431.318 711.731 430.661 712.107 430.195C712.323 429.928 712.659 429.817 713.025 429.817C713.851 429.817 714.847 430.372 715.072 430.985C715.268 431.513 715.201 432.095 715.174 432.657C715.096 434.152 715.301 435.662 715.769 437.082C715.994 437.763 716.285 438.453 716.228 439.171C716.174 439.87 715.646 440.597 714.952 440.597" fill="#FF9550"/>
<path d="M129.072 464.461C130.043 461.276 132.219 458.626 133.796 455.696C135.373 452.763 136.324 449.089 134.722 446.171C133.97 444.802 132.723 443.743 132.051 442.332C131.767 441.737 131.781 440.774 132.433 440.693C132.688 440.66 132.93 440.798 133.144 440.939C136.822 443.349 138.594 448.326 137.269 452.52C136.741 454.192 135.795 455.693 134.953 457.227C133.912 459.124 133.006 461.141 132.757 463.288C132.509 465.437 132.993 467.751 134.448 469.348C135.17 470.144 136.11 470.747 136.674 471.66C138.925 475.307 132.537 475.304 130.742 473.662C128.568 471.675 128.292 467.022 129.072 464.461" fill="#6D7A1C"/>
<path d="M140.383 453.922C144.177 451.842 148.389 450.662 152.578 449.578C152.389 451.571 151.348 453.388 150.129 454.976C147.893 457.881 145.003 460.211 141.865 462.075C140.115 463.117 134.62 466.818 132.554 466.172C130.46 465.518 132.1 461.967 132.804 460.727C134.475 457.785 137.468 455.522 140.383 453.922" fill="#6D7A1C"/>
<path d="M118.498 444.814C122.879 443.917 127.427 443.845 131.834 444.604C132.644 444.745 133.462 444.916 134.191 445.295C135.621 446.036 137.373 448.633 136.489 450.32C135.652 451.917 132.592 451.262 131.122 451.067C126.387 450.437 121.851 448.23 118.498 444.814" fill="#6D7A1C"/>
<path d="M133.239 470.579C133.15 470.579 132.35 470.579 131.06 470.579C124.021 470.579 102.406 470.579 102.406 470.579L105.832 488.101H110.209L114.396 509.819H131.06H133.239H149.903L154.09 488.101H158.467L161.893 470.579C161.893 470.579 140.278 470.579 133.239 470.579" fill="#DD813C"/>
<path d="M150.093 470.579L146.667 488.101H142.289L138.102 509.819H149.903L154.09 488.101H158.467L161.893 470.579C161.893 470.579 156.424 470.579 150.093 470.579" fill="#C16C33"/>
<path d="M146.667 488.101H116.87L146.667 495.909V488.101Z" fill="#C16C33"/>
<path d="M114.048 484.514C113.852 484.514 113.655 484.508 113.459 484.493C113.063 484.469 112.647 484.412 112.335 484.168C112.005 483.91 111.851 483.493 111.716 483.097C111.066 481.197 110.5 479.266 110.02 477.318C109.734 476.157 109.478 474.95 109.713 473.779C109.9 472.848 111.321 472.398 112.765 472.398C114.091 472.398 115.435 472.776 115.863 473.506C116.184 474.052 116.215 474.716 116.238 475.352C116.335 478.045 116.432 480.74 116.529 483.436C116.538 483.667 116.538 483.922 116.386 484.099C116.256 484.253 116.047 484.304 115.852 484.34C115.258 484.454 114.653 484.514 114.048 484.514" fill="#E39961"/>
<path d="M119.439 504.599C119.419 504.599 119.398 504.599 119.378 504.596C118.784 504.566 118.301 504.113 117.932 503.644C115.901 501.066 115.718 497.536 115.621 494.252C115.6 493.537 115.6 492.754 116.05 492.198C116.307 491.88 116.705 491.748 117.144 491.748C118.127 491.748 119.315 492.411 119.583 493.141C119.814 493.771 119.736 494.465 119.702 495.137C119.61 496.917 119.852 498.715 120.411 500.408C120.679 501.222 121.024 502.044 120.958 502.9C120.893 503.731 120.264 504.599 119.439 504.599Z" fill="#E39961"/>
<path d="M317.427 224.511C317.661 224.34 322.317 206.299 325.056 200.151C325.704 198.696 326.55 197.069 328.098 196.687C328.548 196.576 329.049 196.594 329.454 196.822C329.886 197.063 330.165 197.51 330.333 197.972C331.395 200.935 328.383 204.129 329.178 207.176C332.793 202.964 332.241 196.363 335.631 191.968C335.967 191.53 336.363 191.104 336.882 190.915C338.037 190.492 339.324 191.461 339.705 192.632C340.086 193.803 339.819 195.075 339.549 196.276C338.688 200.109 337.83 203.943 336.969 207.776C337.905 207.914 342.57 195.94 345.597 191.506C346.023 190.879 346.65 190.212 347.4 190.332C347.523 190.353 347.715 190.338 347.946 190.326C349.002 190.26 350.916 190.197 351.18 193.241C351.33 194.979 344.085 205.975 343.284 210.775C347.592 208.5 349.281 203.177 352.251 199.317C354.996 195.745 359.001 197.819 357.93 201.139C357.732 201.745 351.135 215.953 346.437 222.419C348.552 221.888 349.443 221.708 351.246 220.477C353.052 219.249 355.137 218.148 357.306 218.4C358.128 218.496 358.95 218.808 359.52 219.405C360.666 220.606 360.483 222.56 359.847 224.094C359.085 225.928 348.882 234.09 347.535 235.048C345.42 236.552 338.781 237.326 338.805 237.582C339.063 240.427 336.225 251.705 335.97 251.687C330.303 251.285 324.906 243.165 320.748 239.308C317.214 236.024 307.797 235.291 307.035 236.024C306.249 236.777 314.793 226.421 317.427 224.511" fill="#FFC74A"/>
<path d="M338.805 237.581C338.805 237.581 338.763 236.867 336.798 234.829C334.833 232.79 332.235 231.106 332.235 231.106C332.235 231.106 333.048 230.614 335.52 231.878C337.992 233.142 340.764 237.11 340.764 237.11L338.805 237.581Z" fill="#CE9B29"/>
<path d="M317.427 224.511C317.562 224.154 319.458 224.22 322.476 225.205C325.494 226.189 326.688 227.03 326.688 227.03C326.688 227.03 322.824 224.082 321.105 223.59C319.386 223.097 317.913 222.977 317.913 222.977L317.427 224.511" fill="#CE9B29"/>
<path d="M332.592 240.508C333.762 238.164 334.953 235.756 335.238 233.151C335.496 233.958 336.273 234.535 336.462 235.36C336.555 235.771 336.492 236.201 336.42 236.618C336.072 238.707 335.61 240.781 335.034 242.82C336.24 240.367 337.461 237.861 337.854 235.156C337.875 235.006 337.893 234.85 337.848 234.706C337.8 234.556 337.689 234.439 337.578 234.327C336.849 233.592 336.051 232.926 335.199 232.337C334.443 231.815 333.894 231.641 333.879 232.634C333.864 233.547 334.008 234.442 333.945 235.363C333.819 237.125 333.384 238.923 332.592 240.508Z" fill="#CE9B29"/>
<path d="M345.039 230.017C343.347 232.445 340.911 234.231 338.52 235.975C340.689 235.855 342.786 235.204 344.859 234.556C343.179 235.309 341.496 236.063 339.813 236.813C339.732 236.849 339.648 236.885 339.561 236.876C339.48 236.867 339.411 236.822 339.345 236.777C338.835 236.426 337.116 235.498 337.278 234.76C337.419 234.102 339.225 233.658 339.75 233.406C340.707 232.941 341.634 232.421 342.528 231.845C343.269 231.371 344.529 230.749 345.039 230.017" fill="#CE9B29"/>
<path d="M321.755 213.54C320.947 217.046 320.134 220.687 320.863 224.211C320.992 222.827 321.304 221.462 321.785 220.156C321.716 221.678 321.779 223.206 321.971 224.716C321.211 224.589 319.347 224.623 319.023 223.902C318.663 223.095 319.164 221.293 319.332 220.459C319.578 219.237 319.957 218.042 320.392 216.872C320.791 215.791 321.499 214.656 321.755 213.54" fill="#CE9B29"/>
<path d="M314.448 231.569C316.05 229.275 317.694 226.94 319.947 225.283C319.512 225.817 319.212 226.463 319.086 227.138C319.563 226.691 320.037 226.247 320.514 225.799C320.409 226.637 320.304 227.477 320.199 228.315C320.802 227.003 321.672 225.814 322.74 224.845C322.662 224.914 320.013 224.034 319.569 224.085C318.672 224.184 318.012 225.226 317.46 225.913C316.116 227.588 315.084 229.516 314.448 231.569" fill="#CE9B29"/>
<path d="M324.438 215.47C324.189 215.47 323.985 215.263 323.841 215.056C322.86 213.654 323.121 211.76 323.475 210.088C324.186 206.741 325.119 203.442 326.265 200.221C326.454 199.692 326.88 199.386 327.246 199.386C327.591 199.386 327.885 199.662 327.87 200.287C327.846 201.397 326.805 202.979 326.487 204.087C325.719 206.771 325.362 209.574 325.443 212.366C325.473 213.318 325.527 214.356 324.966 215.128C324.843 215.296 324.678 215.455 324.471 215.47C324.459 215.47 324.447 215.47 324.438 215.47Z" fill="#FFDF98"/>
<path d="M351.837 222.905C351.69 222.905 351.552 222.86 351.426 222.749C351.033 222.401 351.366 221.693 351.6 221.359C352.548 220.012 355.263 219.835 356.754 219.828C356.763 219.828 356.772 219.828 356.781 219.828C357.216 219.828 357.66 219.859 358.05 220.051C358.635 220.339 359.016 221.059 358.806 221.678C358.662 222.11 358.2 222.398 357.762 222.398C357.57 222.398 357.381 222.341 357.225 222.215C357.069 222.092 356.958 221.915 356.802 221.789C356.517 221.555 356.127 221.516 355.749 221.516C355.68 221.516 355.611 221.516 355.542 221.519C354.852 221.534 354.126 221.561 353.529 221.909C353.145 222.131 352.434 222.905 351.837 222.905" fill="#FFDF98"/>
<path d="M344.168 198.242C344.099 198.242 344.03 198.224 343.964 198.179C343.664 197.99 343.769 197.534 343.913 197.207C344.696 195.445 345.722 191.689 348.083 191.689C348.14 191.689 348.2 191.692 348.26 191.695C348.743 191.734 349.805 191.944 349.685 192.635C349.619 193.016 349.373 193.076 349.1 193.076C349.037 193.076 348.971 193.073 348.905 193.07C348.839 193.067 348.776 193.064 348.713 193.064C348.644 193.064 348.581 193.067 348.521 193.079C347.765 193.232 347.474 193.34 347.045 194.064C346.331 195.258 345.617 196.456 344.903 197.654C344.738 197.93 344.45 198.242 344.168 198.242Z" fill="#FFDF98"/>
<path d="M829.983 442.161L831.909 443.187C835.437 445.072 836.772 449.461 834.891 452.991L817.491 485.645C815.61 489.176 811.224 490.511 807.696 488.629L805.77 487.603C802.239 485.72 800.904 481.332 802.785 477.799L820.185 445.147C822.066 441.614 826.452 440.278 829.983 442.161" fill="#FF7C27"/>
<path d="M805.77 487.603L807.696 488.629C807.744 488.656 807.792 488.677 807.84 488.701C804.417 486.78 803.142 482.463 804.996 478.978L822.396 446.324C824.253 442.842 828.546 441.497 832.05 443.268C832.002 443.241 831.954 443.214 831.909 443.187L829.983 442.161C826.452 440.278 822.066 441.614 820.185 445.147L802.788 477.799C800.904 481.332 802.239 485.72 805.77 487.603Z" fill="#D8601D"/>
<path d="M816.434 450.037L832.919 458.83L821.249 480.734L804.764 471.939L816.434 450.037" fill="#C6BEC2"/>
<path d="M812.837 489.293L802.481 483.973L804.035 488.464L807.983 490.568L812.837 489.293" fill="#C6BEC2"/>
<path d="M772.858 517.48C771.571 527.677 779.5 538.823 779.704 538.841C779.83 539 793.498 539.375 801.244 532.624C807.787 526.921 815.795 515.136 819.593 509.27C820.793 507.418 820.315 505.01 818.569 504.08L786.889 487.179C785.14 486.246 782.878 487.191 782.008 489.221C779.26 495.645 773.944 508.865 772.858 517.48Z" fill="#DEDCDD"/>
<path d="M807.099 487.053L807.411 487.218C808.062 487.567 808.308 488.374 807.96 489.025L802.857 498.604C802.509 499.253 801.702 499.499 801.051 499.154L800.739 498.986C800.091 498.64 799.845 497.83 800.19 497.182L805.296 487.603C805.641 486.951 806.448 486.705 807.099 487.053Z" fill="#C6BEC2"/>
<path d="M832.032 458.355L832.761 456.99L819.402 446.615L817.326 450.512L832.032 458.355Z" fill="#D8601D"/>
<path d="M813.423 489.1L802.005 482.22L802.482 483.973L812.838 489.293L813.423 489.1" fill="#D8601D"/>
<path d="M820.262 477.85C821.15 477.339 821.594 476.322 822.002 475.379C823.922 470.915 826.259 466.632 828.974 462.6C829.349 462.045 829.736 461.48 829.922 460.838C830.108 460.193 830.057 459.442 829.622 458.932C828.932 458.13 827.573 458.286 826.772 458.974C825.968 459.658 825.581 460.7 825.224 461.694C823.943 465.242 822.575 468.832 820.262 471.81C819.248 473.113 817.802 474.611 817.685 476.364C817.592 477.696 819.068 478.534 820.262 477.85Z" fill="#DEDCDD"/>
<path d="M813.169 487.317C812.308 487.317 811.443 486.918 810.921 486.132C810.666 485.741 810.55 485.138 810.934 484.877C811.048 484.799 811.174 484.772 811.306 484.772C811.549 484.772 811.819 484.868 812.068 484.913C812.167 484.931 812.269 484.937 812.371 484.937C812.773 484.937 813.174 484.802 813.486 484.55C813.87 484.243 814.114 483.79 814.489 483.472C814.702 483.292 814.996 483.172 815.269 483.172C815.479 483.172 815.674 483.241 815.809 483.406C815.971 483.601 815.994 483.874 815.991 484.126C815.982 484.91 815.752 485.702 815.269 486.318C814.741 486.987 813.955 487.317 813.169 487.317" fill="#FFB584"/>
<path d="M757.377 517.183C768.249 511.852 782.43 514.352 790.824 523.078C803.049 510.993 821.532 505.62 838.326 509.27C855.123 512.923 869.712 525.483 875.823 541.558C861.756 545.049 847.533 547.901 833.208 550.098C815.139 552.869 796.77 554.553 778.488 553.322C769.371 552.71 760.293 551.365 751.446 549.041C743.337 546.913 739.884 545.079 742.209 536.179C744.315 528.119 749.853 520.869 757.377 517.183Z" fill="#7D912A"/>
<path d="M632.214 103.81C632.214 121.365 617.991 135.597 600.447 135.597C582.903 135.597 568.68 121.365 568.68 103.81C568.68 86.2521 582.903 72.0234 600.447 72.0234C617.991 72.0234 632.214 86.2521 632.214 103.81Z" fill="#FFC878"/>
</svg>
