<svg width="107" height="95" viewBox="0 0 107 95" fill="none" xmlns="http://www.w3.org/2000/svg">
<rect x="1.82812" y="1.98401" width="103.343" height="91" rx="14.5" fill="white" stroke="#ADC6F7" stroke-width="3"/>
<path d="M74.5503 58.5618C73.9712 57.2243 73.3059 55.7729 71.7726 55.7729H70.3837C71.917 55.7729 73.1615 54.5243 73.1615 52.984V29.2729C73.1615 27.7326 71.917 26.484 70.3837 26.484H34.2726C32.7392 26.484 31.4948 27.7326 31.4948 29.2729V52.984C31.4948 54.5243 32.7392 55.7729 34.2726 55.7729H32.8837C31.3503 55.7729 30.5684 57.1673 30.1059 58.5618L27.3281 65.3604C27.3281 66.9021 28.5726 68.1507 30.1059 68.1507H74.5503C76.0837 68.1507 77.3281 66.9021 77.3281 65.3618L74.5503 58.5618Z" fill="#CCD6DD"/>
<path d="M27.3389 65.4771L27.3472 65.5562L27.5833 66.5173C28.0222 67.4784 28.9833 68.1507 30.1055 68.1507H74.55C76.0444 68.1507 77.2541 66.9632 77.3166 65.4771H27.3389Z" fill="#9AAAB4"/>
<path d="M70.3836 51.5882C70.3836 52.359 69.7627 52.9826 68.9947 52.9826H35.6613C34.8947 52.9826 34.2725 52.359 34.2725 51.5882V30.6687C34.2725 29.8979 34.8947 29.2743 35.6613 29.2743H68.9947C69.7627 29.2743 70.3836 29.8993 70.3836 30.6687V51.5882Z" fill="#5DADEC"/>
<path d="M73.0307 61.2646L71.9751 58.2437C71.6432 57.6048 71.0932 57.0812 70.3251 57.0812H34.4251C33.6585 57.0812 33.1668 57.6479 32.8196 58.5201L31.864 61.266C31.5599 62.0937 32.4862 62.6604 33.2529 62.6604H43.7779C43.7779 62.6604 45.0793 62.5951 45.3099 61.816C45.5765 60.916 45.8862 59.5604 45.9529 59.3215C46.0557 58.9548 46.4918 58.584 47.1418 58.584H59.0557C59.7501 58.584 60.0918 58.9354 60.1821 59.3701C60.2404 59.6535 60.6154 60.9548 60.7904 61.8451C60.9446 62.6382 62.4862 62.659 62.4862 62.659H71.6446C72.4099 62.659 73.3349 62.0048 73.0307 61.2646Z" fill="#AEBBC1"/>
<path d="M58.4048 64.141H47.5979C47.077 64.141 46.8506 63.6646 46.9256 63.2035C47.0006 62.7437 47.4242 60.7132 47.4576 60.4771C47.4895 60.2396 47.8381 59.9562 48.1854 59.9562H57.9284C58.3409 59.9562 58.609 60.1826 58.6923 60.6354C58.7742 61.0896 59.1117 62.9146 59.1381 63.3312C59.1645 63.7493 58.9034 64.141 58.4048 64.141Z" fill="#9AAAB4"/>
</svg>
