<svg width="107" height="95" viewBox="0 0 107 95" fill="none" xmlns="http://www.w3.org/2000/svg">
<rect x="1.82812" y="1.98389" width="103.343" height="91" rx="14.5" fill="white" stroke="#ADC6F7" stroke-width="3"/>
<path d="M51.186 65.9141H55.4726V58.3892H51.186V65.9141Z" fill="#383837"/>
<path d="M62.0907 67.8184H44.7583L51.1853 63.8249H55.4716L62.0907 67.8184Z" fill="#383837"/>
<path d="M51.1836 65.9126H53.422V58.3887H51.1836V65.9126Z" fill="#4A4A49"/>
<path d="M53.4227 63.8249V67.8184H44.7573L51.1844 63.8249H53.4227Z" fill="#4A4A49"/>
<path d="M78.3281 58.1049C78.3281 59.9974 76.7944 61.5327 74.9004 61.5327H31.7559C29.8635 61.5327 28.3281 59.9974 28.3281 58.1049V29.9133C28.3281 28.0201 29.8635 26.4839 31.7559 26.4839H74.9004C76.7944 26.4839 78.3281 28.0201 78.3281 29.9133V58.1049Z" fill="#4A4A49"/>
<path d="M31.1851 57.2461C31.1851 58.3507 32.0805 59.2461 33.1851 59.2461H73.3768C74.4814 59.2461 75.3768 58.3507 75.3768 57.2461V30.9612C75.3768 29.8567 74.4814 28.9612 73.3768 28.9612H33.1851C32.0805 28.9612 31.1851 29.8567 31.1851 30.9612V57.2461Z" fill="#01BCD6"/>
<path d="M75.3769 59.2461H33.6062C32.8691 59.2461 32.5742 58.2941 33.1822 57.8774L74.2029 29.7658C74.7006 29.4247 75.3769 29.7811 75.3769 30.3844V59.2461Z" fill="#01A3B7"/>
</svg>
