<svg width="112" height="99" viewBox="0 0 112 99" fill="none" xmlns="http://www.w3.org/2000/svg">
<rect x="1.5" y="1.5" width="109" height="96" rx="14.5" fill="white" stroke="#ADC6F7" stroke-width="3"/>
<path d="M64.4346 39.6221C59.1503 32.0933 63.0565 23.2217 65.9267 23.9837C68.8018 24.7463 68.2368 31.5226 68.2368 31.5226C68.2368 31.5226 75.033 20.694 80.2974 27.1183C85.5619 33.5431 71.1813 36.7642 71.1813 36.7642C71.1813 36.7642 80.5205 34.8792 79.2118 41.0865C77.9031 47.2949 68.5887 45.5332 64.4346 39.6221Z" fill="#92D33E"/>
<path d="M56.384 31.2365C62.739 27.9674 70.4771 43.6454 67.4037 49.6045C64.3353 55.5635 37.2297 68.455 32.2007 62.7576C27.1712 57.0608 48.9979 35.0366 56.384 31.2365Z" fill="#F8A60E"/>
<path d="M61.7229 50.915C62.3674 46.3534 58.823 39.7099 55.3134 37.5677C54.8821 37.3033 54.5252 37.879 54.7978 38.2907C56.1164 40.2621 57.5937 41.9268 58.5851 44.1694C59.6063 46.4728 59.9285 48.5642 60.0673 51.0957C60.0871 51.489 60.3597 51.7166 60.6968 51.6592C60.8307 51.6363 60.9695 51.6134 61.1033 51.5905C61.371 51.5448 61.6783 51.2201 61.7229 50.915Z" fill="#F2571D"/>
<path d="M52.5425 55.7229C52.7061 53.9473 51.6999 51.6656 50.9612 50.1131C50.1433 48.3899 49.028 46.9489 47.6003 45.8388C47.0501 45.4098 46.5791 46.376 47.0748 46.8206C48.5124 48.1004 49.4245 49.8007 50.1185 51.6813C50.6539 53.125 50.8373 54.8521 51.6652 56.1106C51.9576 56.5564 52.5029 56.1569 52.5425 55.7229Z" fill="#F2571D"/>
<path d="M43.0792 59.9393C43.4361 57.9806 42.1572 55.6455 41.1707 54.1337C40.7345 53.4637 39.7927 54.2804 40.1397 54.9799C40.5461 55.7961 40.8733 56.6457 41.0964 57.5494C41.2996 58.4024 41.3194 59.3206 41.6664 60.1217C41.949 60.7761 42.9454 60.6734 43.0792 59.9393Z" fill="#F2571D"/>
<path d="M59.1701 33.537C59.4874 33.17 59.4924 32.4771 58.9272 32.3488C57.2517 31.9717 55.3283 33.387 53.9304 34.3018C52.7655 35.0617 50.3018 36.3832 50.4604 38.1628C50.4852 38.4317 50.6092 38.6961 50.862 38.7658C52.2797 39.1563 53.5933 37.3081 54.6988 36.5087C56.0521 35.5303 58.1787 34.9534 59.1949 33.566C59.1899 33.556 59.18 33.5465 59.1701 33.537Z" fill="#FBD72C"/>
<path d="M48.9436 39.4878C48.438 40.1098 47.8729 40.3793 47.2532 40.82C46.356 41.4598 46.8616 43.0274 47.9323 42.7781C48.9336 42.5471 49.7467 41.6333 50.3514 40.7592C50.981 39.8515 49.6326 38.6388 48.9436 39.4878Z" fill="#FBD72C"/>
<path d="M65.4951 26.6516C65.743 25.9465 64.6871 25.4227 64.3996 26.1183C64.2657 26.448 64.0873 26.699 63.8047 26.8815C63.081 27.3489 63.7403 28.6554 64.4194 28.1489C64.935 27.7696 65.272 27.2937 65.4951 26.6516Z" fill="#CFE863"/>
<path d="M77.8087 27.3396C77.5014 26.9558 77.1544 26.8192 76.6884 26.8052C76.3365 26.794 75.9746 26.8019 75.6227 26.8208C74.8593 26.8621 74.0711 27.1332 73.8232 28.0448C73.7092 28.4654 73.9025 28.8503 74.195 29.0924C74.4875 29.3368 74.9386 29.2391 75.1914 28.9703C75.2162 28.9295 75.236 28.9044 75.2558 28.8765C75.2856 28.8576 75.3153 28.8386 75.3401 28.8174C75.4541 28.8029 75.5632 28.7627 75.6772 28.7521C76.4207 28.6858 77.2684 28.8604 77.7889 28.1502C77.9674 27.9064 78.012 27.5918 77.8087 27.3396Z" fill="#CFE863"/>
<path d="M72.5244 28.4989C72.2468 28.7065 71.984 28.8922 71.7659 29.1723C71.29 29.7686 71.8452 30.7499 72.5244 30.3421C72.8218 30.1625 73.0448 29.9388 73.2877 29.6827C73.8231 29.1299 73.1539 28.0248 72.5244 28.4989Z" fill="#CFE863"/>
<path d="M77.9132 39.2664C77.8587 38.8089 77.5464 38.5149 77.1449 38.4781C76.8276 38.4491 76.5103 38.3861 76.198 38.4921C75.8411 38.6148 75.5636 38.9634 75.5586 39.3986C75.5586 39.7924 75.8114 40.2432 76.1732 40.3213C76.5748 40.4094 76.9317 40.314 77.3233 40.2309C77.71 40.1511 77.9628 39.6803 77.9132 39.2664Z" fill="#CFE863"/>
<path d="M70.7502 38.548C70.1405 38.3209 69.5556 38.0537 68.9905 37.7391C69.3474 37.4724 69.6943 37.1952 70.0265 36.895C70.6015 36.3801 71.1766 35.9405 71.2212 35.0491C71.2707 34.1927 70.2198 33.6611 69.6894 34.296C69.6547 34.3378 69.2532 34.4655 69.1441 34.5157C68.8516 34.6541 68.5542 34.7886 68.2667 34.9403C68.1923 34.9777 68.1279 35.024 68.0535 35.0641C67.9742 34.3668 67.8701 33.6734 67.7313 32.9878C67.6371 32.5225 67.2108 32.2085 66.7994 32.2698C66.3433 32.3373 66.1005 32.7161 66.041 33.2081C65.9121 34.2708 65.8328 35.3408 65.8575 36.413C65.8625 36.6825 65.9418 36.9374 66.0658 37.1511C66.0806 37.6755 66.3334 38.1931 66.7102 38.4788C66.7102 38.4799 66.7102 38.4799 66.7102 38.481C67.7413 39.5465 68.8467 40.3627 70.1653 40.9004C71.469 41.4337 72.0837 39.0433 70.7502 38.548Z" fill="#5FA738"/>
<path d="M41.7021 85.1543C42.3857 85.1543 42.9912 85.0293 43.5186 84.7793C44.0459 84.5254 44.4717 84.1758 44.7959 83.7305C45.1201 83.2852 45.3135 82.7676 45.376 82.1777V82.1074H43.6533L43.6416 82.1602C43.583 82.4609 43.4639 82.7246 43.2842 82.9512C43.1084 83.1738 42.8857 83.3477 42.6162 83.4727C42.3506 83.5938 42.0479 83.6543 41.708 83.6543C41.2627 83.6543 40.8779 83.5352 40.5537 83.2969C40.2295 83.0586 39.9795 82.7188 39.8037 82.2773C39.6318 81.8359 39.5459 81.3145 39.5459 80.7129V80.7012C39.5459 80.0957 39.6318 79.5742 39.8037 79.1367C39.9795 78.6953 40.2295 78.3574 40.5537 78.123C40.8779 77.8848 41.2607 77.7656 41.7021 77.7656C42.0381 77.7656 42.3408 77.832 42.6104 77.9648C42.8838 78.0977 43.1104 78.2852 43.29 78.5273C43.4697 78.7656 43.5889 79.043 43.6475 79.3594L43.6533 79.4004H45.3701V79.3242C45.3154 78.7305 45.124 78.2031 44.7959 77.7422C44.4678 77.2812 44.0361 76.9199 43.501 76.6582C42.9697 76.3965 42.3701 76.2656 41.7021 76.2656C40.8818 76.2656 40.1748 76.4453 39.5811 76.8047C38.9912 77.1602 38.5361 77.6699 38.2158 78.334C37.8955 78.998 37.7354 79.7871 37.7354 80.7012V80.7129C37.7354 81.627 37.8955 82.416 38.2158 83.0801C38.5361 83.7441 38.9932 84.2559 39.5869 84.6152C40.1807 84.9746 40.8857 85.1543 41.7021 85.1543ZM48.5928 85.0371C48.874 85.0371 49.1338 85 49.3721 84.9258C49.6143 84.8477 49.8252 84.7383 50.0049 84.5977C50.1885 84.4531 50.335 84.2812 50.4443 84.082H50.5498V84.9375H52.2373V80.5312C52.2373 80.0742 52.1318 79.6836 51.9209 79.3594C51.7139 79.0312 51.4111 78.7812 51.0127 78.6094C50.6143 78.4336 50.1299 78.3457 49.5596 78.3457C49.0205 78.3457 48.5459 78.4238 48.1357 78.5801C47.7295 78.7363 47.4053 78.9551 47.1631 79.2363C46.9248 79.5176 46.7822 79.8477 46.7354 80.2266L46.7295 80.2793H48.3115L48.3232 80.2559C48.3896 80.0645 48.5186 79.918 48.71 79.8164C48.9053 79.7109 49.1572 79.6582 49.4658 79.6582C49.8174 79.6582 50.085 79.7344 50.2686 79.8867C50.4561 80.0352 50.5498 80.25 50.5498 80.5312V82.5879C50.5498 82.8145 50.4893 83.0195 50.3682 83.2031C50.2471 83.3828 50.083 83.5254 49.876 83.6309C49.6689 83.7363 49.4326 83.7891 49.167 83.7891C48.8701 83.7891 48.6279 83.7188 48.4404 83.5781C48.2529 83.4375 48.1592 83.2441 48.1592 82.998V82.9863C48.1592 82.752 48.249 82.5664 48.4287 82.4297C48.6084 82.293 48.8818 82.2148 49.249 82.1953L51.3936 82.0547V81.0117L48.9912 81.1582C48.1904 81.2051 47.5732 81.3945 47.1396 81.7266C46.7061 82.0547 46.4893 82.5098 46.4893 83.0918V83.1035C46.4893 83.4941 46.5791 83.8359 46.7588 84.1289C46.9385 84.418 47.1865 84.6426 47.5029 84.8027C47.8232 84.959 48.1865 85.0371 48.5928 85.0371ZM53.9131 84.9375H55.624V81.3281C55.624 81.0234 55.6885 80.7617 55.8174 80.543C55.9463 80.3242 56.1299 80.1562 56.3682 80.0391C56.6064 79.918 56.8877 79.8574 57.2119 79.8574C57.3447 79.8574 57.4756 79.8672 57.6045 79.8867C57.7373 79.9023 57.8682 79.9258 57.9971 79.957V78.4629C57.9111 78.4395 57.8115 78.4199 57.6982 78.4043C57.5889 78.3887 57.4756 78.3809 57.3584 78.3809C56.9404 78.3809 56.5908 78.4785 56.3096 78.6738C56.0283 78.8652 55.835 79.1367 55.7295 79.4883H55.624V78.4863H53.9131V84.9375ZM59.1982 84.9375H60.9092V81.3281C60.9092 81.0234 60.9736 80.7617 61.1025 80.543C61.2314 80.3242 61.415 80.1562 61.6533 80.0391C61.8916 79.918 62.1729 79.8574 62.4971 79.8574C62.6299 79.8574 62.7607 79.8672 62.8896 79.8867C63.0225 79.9023 63.1533 79.9258 63.2822 79.957V78.4629C63.1963 78.4395 63.0967 78.4199 62.9834 78.4043C62.874 78.3887 62.7607 78.3809 62.6436 78.3809C62.2256 78.3809 61.876 78.4785 61.5947 78.6738C61.3135 78.8652 61.1201 79.1367 61.0146 79.4883H60.9092V78.4863H59.1982V84.9375ZM67.1494 85.0723C67.8135 85.0723 68.3818 84.9395 68.8545 84.6738C69.3311 84.4043 69.6963 84.0195 69.9502 83.5195C70.2041 83.0156 70.3311 82.4141 70.3311 81.7148V81.7031C70.3311 81.0078 70.2021 80.4102 69.9443 79.9102C69.6865 79.4062 69.3193 79.0195 68.8428 78.75C68.3701 78.4805 67.8057 78.3457 67.1494 78.3457C66.4932 78.3457 65.9268 78.4824 65.4502 78.7559C64.9775 79.0254 64.6123 79.4102 64.3545 79.9102C64.0967 80.4102 63.9678 81.0078 63.9678 81.7031V81.7148C63.9678 82.4141 64.0947 83.0156 64.3486 83.5195C64.6025 84.0195 64.9678 84.4043 65.4443 84.6738C65.9209 84.9395 66.4893 85.0723 67.1494 85.0723ZM67.1494 83.7305C66.8447 83.7305 66.585 83.6523 66.3701 83.4961C66.1592 83.3359 65.9971 83.1055 65.8838 82.8047C65.7744 82.5039 65.7197 82.1406 65.7197 81.7148V81.7031C65.7197 81.2812 65.7764 80.9219 65.8896 80.625C66.0029 80.3242 66.165 80.0938 66.376 79.9336C66.5908 79.7695 66.8486 79.6875 67.1494 79.6875C67.4502 79.6875 67.7061 79.7695 67.917 79.9336C68.1318 80.0938 68.2959 80.3242 68.4092 80.625C68.5225 80.9219 68.5791 81.2812 68.5791 81.7031V81.7148C68.5791 82.1367 68.5225 82.498 68.4092 82.7988C68.2959 83.0996 68.1338 83.3301 67.9229 83.4902C67.7119 83.6504 67.4541 83.7305 67.1494 83.7305ZM74.4033 84.9609C74.5713 84.9609 74.7295 84.9531 74.8779 84.9375C75.0264 84.9219 75.1533 84.9043 75.2588 84.8848V83.6133C75.1768 83.6211 75.0986 83.6289 75.0244 83.6367C74.9541 83.6406 74.8643 83.6426 74.7549 83.6426C74.4658 83.6426 74.2549 83.5762 74.1221 83.4434C73.9932 83.3066 73.9287 83.0938 73.9287 82.8047V79.7754H75.2588V78.4863H73.9287V76.9453H72.2002V78.4863H71.2041V79.7754H72.2002V83.1973C72.2002 83.8223 72.3721 84.2734 72.7158 84.5508C73.0596 84.8242 73.6221 84.9609 74.4033 84.9609Z" fill="black"/>
</svg>
