<svg width="107" height="94" viewBox="0 0 107 94" fill="none" xmlns="http://www.w3.org/2000/svg">
<rect x="1.87402" y="1.5" width="103.343" height="91" rx="14.5" fill="white" stroke="#ADC6F7" stroke-width="3"/>
<path d="M34.147 62.3677C34.4332 62.3677 34.6651 62.0739 34.6651 61.7114V30.6557C34.6651 30.2931 34.4332 29.9998 34.147 29.9998C33.8609 29.9998 33.6289 30.2931 33.6289 30.6557V61.7114C33.6289 62.0739 33.8609 62.3677 34.147 62.3677Z" fill="#392722"/>
<path d="M30.3703 64.3441V51.2166C30.3703 50.8545 30.1383 50.5607 29.8521 50.5607C29.566 50.5607 29.334 50.8545 29.334 51.2166V64.3441C29.334 64.7063 29.566 65 29.8521 65C30.1383 65 30.3703 64.7063 30.3703 64.3441Z" fill="#392722"/>
<path d="M72.563 62.3677C72.849 62.3677 73.081 62.0739 73.081 61.7114V30.6557C73.081 30.2931 72.849 29.9998 72.563 29.9998C72.2769 29.9998 72.0449 30.2931 72.0449 30.6557V61.7114C72.0449 62.0739 72.2769 62.3677 72.563 62.3677Z" fill="#392722"/>
<path d="M77.3753 64.3441V51.2166C77.3753 50.8545 77.1433 50.5607 76.8573 50.5607C76.5709 50.5607 76.3389 50.8545 76.3389 51.2166V64.3441C76.3389 64.7063 76.5709 65 76.8573 65C77.1433 65 77.3753 64.7063 77.3753 64.3441Z" fill="#392722"/>
<path d="M76.1285 46.5625H30.6192L28.374 50.1165H78.374L76.1285 46.5625Z" fill="#975C4B"/>
<path d="M75.3085 39.2598H31.7422V45.0981H75.3085V39.2598Z" fill="#975C4B"/>
<path d="M75.3085 31.884H31.7422V37.7224H75.3085V31.884Z" fill="#975C4B"/>
<path d="M78.374 50.1168H28.374V51.4897H78.374V50.1168Z" fill="#7A4134"/>
<path d="M72.7898 32.7981C72.7898 32.6395 72.6882 32.5108 72.5629 32.5108C72.4376 32.5108 72.3359 32.6395 72.3359 32.7981C72.3359 32.9568 72.4376 33.0854 72.5629 33.0854C72.6882 33.0854 72.7898 32.9568 72.7898 32.7981Z" fill="#999492"/>
<path d="M72.7898 36.8089C72.7898 36.6502 72.6882 36.5215 72.5629 36.5215C72.4376 36.5215 72.3359 36.6502 72.3359 36.8089C72.3359 36.9675 72.4376 37.0962 72.5629 37.0962C72.6882 37.0962 72.7898 36.9675 72.7898 36.8089Z" fill="#999492"/>
<path d="M72.7898 40.1734C72.7898 40.0147 72.6882 39.886 72.5629 39.886C72.4376 39.886 72.3359 40.0147 72.3359 40.1734C72.3359 40.332 72.4376 40.4607 72.5629 40.4607C72.6882 40.4607 72.7898 40.332 72.7898 40.1734Z" fill="#999492"/>
<path d="M72.7898 44.1834C72.7898 44.0248 72.6882 43.8961 72.5629 43.8961C72.4376 43.8961 72.3359 44.0248 72.3359 44.1834C72.3359 44.342 72.4376 44.4707 72.5629 44.4707C72.6882 44.4707 72.7898 44.342 72.7898 44.1834Z" fill="#999492"/>
<path d="M34.3739 32.7981C34.3739 32.6395 34.2722 32.5108 34.1469 32.5108C34.0215 32.5108 33.9199 32.6395 33.9199 32.7981C33.9199 32.9568 34.0215 33.0854 34.1469 33.0854C34.2722 33.0854 34.3739 32.9568 34.3739 32.7981Z" fill="#999492"/>
<path d="M34.3739 36.8089C34.3739 36.6502 34.2722 36.5215 34.1469 36.5215C34.0215 36.5215 33.9199 36.6502 33.9199 36.8089C33.9199 36.9675 34.0215 37.0962 34.1469 37.0962C34.2722 37.0962 34.3739 36.9675 34.3739 36.8089Z" fill="#999492"/>
<path d="M34.3739 40.1734C34.3739 40.0147 34.2722 39.886 34.1469 39.886C34.0215 39.886 33.9199 40.0147 33.9199 40.1734C33.9199 40.332 34.0215 40.4607 34.1469 40.4607C34.2722 40.4607 34.3739 40.332 34.3739 40.1734Z" fill="#999492"/>
<path d="M34.3739 44.1834C34.3739 44.0248 34.2722 43.8961 34.1469 43.8961C34.0215 43.8961 33.9199 44.0248 33.9199 44.1834C33.9199 44.342 34.0215 44.4707 34.1469 44.4707C34.2722 44.4707 34.3739 44.342 34.3739 44.1834Z" fill="#999492"/>
</svg>
