<svg width="107" height="94" viewBox="0 0 107 94" fill="none" xmlns="http://www.w3.org/2000/svg">
<rect x="1.84375" y="1.5" width="103.343" height="91" rx="14.5" fill="white" stroke="#ADC6F7" stroke-width="3"/>
<path d="M67.5786 63.357C66.8041 63.9208 65.9692 64.371 65.1152 64.6937C61.9803 65.8749 58.5971 65.5892 55.354 64.9667C52.1108 64.3442 48.8942 63.394 45.6108 63.2792C43.8041 63.2154 41.9475 63.4322 40.2215 64.0623C38.8932 61.76 38.2387 58.9589 38.2959 55.8491C38.3638 52.2024 40.0931 48.5747 42.0823 45.5874C44.1499 44.7468 46.4871 44.595 48.6725 44.8948C52.5065 45.4216 56.1857 47.076 60.0187 47.6232C62.0896 47.9191 64.2994 47.8171 66.2928 47.1091C67.8512 49.7674 69.0691 52.8032 69.1254 55.8491C69.1774 58.6477 68.6533 61.1962 67.5786 63.357Z" fill="#E5E0D7"/>
<path d="M52.0904 55.807C51.6862 56.4206 51.2756 57.0328 50.8215 57.5953C50.5966 57.8734 50.3611 58.14 50.1107 58.3849C50.0789 58.4168 50.0471 58.4474 50.0142 58.478C49.9972 58.4946 50.0036 58.4882 50.0089 58.4831C50.0153 58.4768 50.0216 58.4717 50.0047 58.487C49.9856 58.5048 49.9665 58.5214 49.9484 58.538C49.8848 58.5954 49.8201 58.6515 49.7543 58.7051C49.6249 58.8122 49.4901 58.913 49.3522 59.0061C49.2154 59.0979 49.0732 59.1808 48.9289 59.2574C48.9056 59.2701 48.9416 59.251 48.9427 59.2497L48.9183 59.2625C48.9003 59.2714 48.8812 59.2803 48.8621 59.2893C48.8239 59.3084 48.7846 59.325 48.7464 59.3416C48.6711 59.3747 48.5958 59.4041 48.5194 59.4309C48.3507 59.4908 48.1799 59.5355 48.007 59.5673C47.9964 59.5686 47.9868 59.5712 47.9773 59.5724C47.9805 59.5724 48.0155 59.5661 47.9879 59.5712C47.9656 59.5737 47.9423 59.5775 47.9189 59.5801C47.8733 59.5865 47.8267 59.5916 47.781 59.5954C47.6919 59.6043 47.6028 59.6082 47.5126 59.6082C47.4235 59.6094 47.3344 59.6069 47.2442 59.5992C47.2018 59.5967 47.1583 59.5928 47.1159 59.5877C47.0925 59.5852 47.0702 59.5826 47.0469 59.5788C47.0373 59.5775 47.0267 59.5763 47.0172 59.575C47.0119 59.5737 46.9705 59.5673 46.9981 59.5724C47.0257 59.5763 46.9928 59.5712 46.9885 59.5712C46.9758 59.5686 46.9631 59.5661 46.9493 59.5635C46.9302 59.5597 46.91 59.5559 46.8909 59.552C46.8453 59.5431 46.7997 59.5329 46.7541 59.5214C46.666 59.4997 46.579 59.4742 46.4931 59.4462C46.4072 59.4168 46.3223 59.3849 46.2374 59.3492C46.1971 59.3314 46.1568 59.3135 46.1165 59.2944C46.0953 59.2842 46.0741 59.274 46.0518 59.2638C46.0921 59.2829 46.0369 59.2561 46.0242 59.2485C45.8757 59.1694 45.7314 59.0788 45.5924 58.9768C45.5256 58.9257 45.4609 58.8734 45.3972 58.8186C45.3802 58.8046 45.3643 58.7893 45.3484 58.7752C45.3272 58.7561 45.358 58.7842 45.359 58.7854L45.3389 58.7663C45.307 58.7357 45.2763 58.7051 45.2455 58.6732C45.1267 58.5507 45.0174 58.4168 44.9177 58.2727C44.906 58.2548 44.8901 58.2357 44.8806 58.2153C44.8997 58.2561 44.888 58.2267 44.8753 58.2051C44.8509 58.1668 44.8286 58.1273 44.8063 58.0877C44.7628 58.0074 44.7225 57.9244 44.6854 57.839C44.6705 57.802 44.6557 57.765 44.6419 57.7267C44.6366 57.7152 44.6313 57.7025 44.6281 57.6897C44.6281 57.691 44.6429 57.7369 44.6344 57.7076C44.6259 57.6821 44.6175 57.6566 44.61 57.6298C44.5846 57.5469 44.5623 57.4627 44.5464 57.376C44.539 57.3364 44.5326 57.2969 44.5262 57.2561C44.5252 57.2459 44.5188 57.1846 44.523 57.228C44.5273 57.2714 44.5199 57.191 44.5188 57.1795C44.5124 57.0953 44.5103 57.0112 44.5114 56.9257C44.5124 56.8849 44.5146 56.8441 44.5177 56.8032C44.5188 56.7854 44.5199 56.7662 44.522 56.7471C44.5252 56.714 44.523 56.7254 44.522 56.7369C44.5209 56.7497 44.5199 56.7612 44.5241 56.7267C44.5347 56.6438 44.5496 56.5609 44.5687 56.4793C44.5771 56.4397 44.5867 56.4014 44.5984 56.3632C44.6026 56.3453 44.6079 56.3275 44.6143 56.3109C44.6185 56.2968 44.6419 56.2292 44.6281 56.2662C44.6143 56.3032 44.6344 56.2484 44.6387 56.2395C44.6461 56.219 44.6535 56.1999 44.662 56.1808C44.6779 56.1425 44.6949 56.1042 44.7129 56.0673C44.7299 56.0328 44.7479 55.9996 44.767 55.9665C44.7755 55.9525 44.784 55.9371 44.7936 55.9218C44.8095 55.8963 44.8031 55.9053 44.7978 55.9129C44.7925 55.9218 44.7883 55.9295 44.8042 55.9053C44.8477 55.8428 44.8954 55.7828 44.9463 55.728C44.958 55.7152 44.9697 55.7037 44.9813 55.6922L45.0047 55.6693C45.0047 55.6693 44.9686 55.7012 44.9888 55.6833C45.0185 55.6591 45.0471 55.6336 45.0779 55.6119C45.1076 55.5889 45.1394 55.5672 45.1712 55.5481C45.1882 55.5379 45.2052 55.529 45.2222 55.52C45.1765 55.5456 45.2423 55.5111 45.2561 55.506C45.2943 55.4907 45.3336 55.4767 45.3739 55.4677C45.3824 55.4652 45.4365 55.4537 45.4078 55.4588C45.3771 55.4639 45.4163 55.4575 45.4237 55.4575C45.4365 55.4563 45.4492 55.455 45.4619 55.455C45.4959 55.4524 45.5489 55.4448 45.5818 55.4601C45.5807 55.4588 45.5394 55.4499 45.5659 55.4588L45.5935 55.4652C45.6168 55.4716 45.6402 55.4805 45.6646 55.4894C45.6837 55.4971 45.6794 55.4945 45.6741 55.4907C45.6667 55.4869 45.6582 55.4843 45.6752 55.4945C45.6911 55.5047 45.707 55.5149 45.7218 55.5264L45.742 55.5417C45.7643 55.5596 45.7409 55.557 45.7325 55.5328C45.7378 55.5468 45.7632 55.5647 45.7728 55.5774C45.7812 55.5864 45.7993 55.6208 45.8088 55.6246C45.8078 55.6246 45.7834 55.5813 45.7972 55.6068L45.8099 55.6297C45.8194 55.6451 45.8269 55.6604 45.8343 55.6769L45.8481 55.7101C45.864 55.7445 45.8428 55.7075 45.8438 55.6948C45.8428 55.7114 45.8566 55.7407 45.8598 55.756C45.864 55.7739 45.8661 55.7917 45.8693 55.8096C45.8767 55.8389 45.8651 55.7815 45.8661 55.7803L45.8682 55.8173C45.8682 55.83 45.8629 55.8951 45.8693 55.8517C45.8757 55.807 45.8651 55.8734 45.8619 55.8849L45.8555 55.9116C45.8523 55.9397 45.8598 55.89 45.864 55.8887C45.8598 55.89 45.8216 55.9716 45.8173 55.9831C45.8184 55.9818 45.8502 55.941 45.8343 55.9576L45.8173 55.9792L45.7897 56.0086C45.7749 56.0277 45.812 55.9882 45.812 55.9882L45.7919 56.0047C45.7802 56.0137 45.7675 56.0213 45.7558 56.029C45.7314 56.0443 45.7473 56.0379 45.759 56.0315C45.7675 56.0264 45.7749 56.0213 45.759 56.0277C45.7473 56.0328 45.7356 56.0379 45.724 56.0417C45.7091 56.0468 45.6953 56.0507 45.6805 56.0545L45.6614 56.0583C45.6423 56.0634 45.6518 56.0609 45.6635 56.0583C45.672 56.057 45.6805 56.0558 45.6837 56.0558C45.6677 56.0532 45.6497 56.0558 45.6327 56.0571C45.62 56.0596 45.6083 56.0609 45.5967 56.0609C45.5648 56.0609 45.533 56.0558 45.5001 56.0545C45.4874 56.0532 45.4948 56.0545 45.5044 56.0558C45.5182 56.0583 45.5362 56.0609 45.5192 56.0571L45.498 56.0532C45.4842 56.0494 45.4704 56.0468 45.4556 56.043C45.4227 56.0341 45.3908 56.0239 45.358 56.0124C45.3283 56.0009 45.2985 55.9882 45.2688 55.9754C45.2413 55.9627 45.2497 55.9678 45.2604 55.9729C45.2699 55.978 45.2805 55.9831 45.2625 55.9729C45.2476 55.9639 45.2317 55.955 45.2169 55.9473C45.1585 55.9116 45.1023 55.8708 45.0482 55.8249C45.0323 55.8109 45.0153 55.7968 44.9983 55.7815C44.9919 55.7751 44.9495 55.7382 44.9729 55.7586C44.9962 55.7803 44.9474 55.7343 44.94 55.728C44.9241 55.7127 44.9081 55.6961 44.8933 55.6808C44.8328 55.6183 44.7745 55.5545 44.7182 55.4869C44.661 55.4167 44.6058 55.344 44.5527 55.2675C44.5421 55.2522 44.5305 55.2356 44.5199 55.219C44.5071 55.1999 44.4859 55.1718 44.5114 55.2075C44.4838 55.168 44.4583 55.1233 44.4339 55.08C44.3427 54.9244 44.2631 54.7585 44.1942 54.5876C44.1804 54.5506 44.1517 54.5022 44.1475 54.4613C44.1475 54.4639 44.1634 54.5085 44.1528 54.4792L44.1432 54.4499C44.1348 54.4231 44.1263 54.3976 44.1178 54.3708C44.0902 54.2815 44.0647 54.1909 44.0435 54.0991C44.0223 54.0085 44.0032 53.9154 43.9884 53.8223C43.9809 53.7777 43.9746 53.7317 43.9693 53.6871L43.965 53.6552C43.965 53.6552 43.9703 53.7088 43.9671 53.6756C43.965 53.6476 43.9618 53.6195 43.9597 53.5914C43.9438 53.395 43.9427 53.1973 43.9555 53.0008C43.9586 52.9537 43.9629 52.9065 43.9671 52.8593C43.9703 52.8325 43.9682 52.8427 43.9671 52.8529C43.9661 52.8631 43.965 52.8733 43.9693 52.8452C43.9724 52.8172 43.9767 52.7878 43.9809 52.7585C43.9947 52.6616 44.0127 52.5659 44.0329 52.4702C44.0541 52.3746 44.0785 52.2802 44.1061 52.1871C44.1188 52.1424 44.1326 52.0978 44.1475 52.0544L44.1581 52.0238C44.157 52.0263 44.1422 52.0672 44.1528 52.0378C44.1623 52.011 44.1719 51.9843 44.1825 51.9587C44.2504 51.7789 44.3321 51.6067 44.4244 51.4447C44.4477 51.4051 44.47 51.3669 44.4944 51.3286C44.4965 51.3248 44.5146 51.2955 44.4986 51.321C44.4806 51.349 44.5039 51.312 44.5082 51.3057C44.5199 51.2891 44.5315 51.2725 44.5432 51.2546C44.5952 51.1794 44.6503 51.1067 44.7087 51.0365C44.7925 50.9345 44.7999 50.7495 44.7087 50.6488C44.6175 50.548 44.4753 50.5391 44.3862 50.6488C43.8621 51.2853 43.5502 52.1424 43.4972 53.034C43.4473 53.8848 43.669 54.7585 44.0913 55.4422C44.3066 55.7917 44.5655 56.1042 44.87 56.3402C45.1331 56.5443 45.4651 56.6515 45.776 56.589C45.9213 56.5596 46.0688 56.4703 46.1642 56.3338C46.2968 56.1438 46.3446 55.9155 46.3106 55.6718C46.2438 55.1871 45.8417 54.8836 45.4524 54.9065C44.7342 54.9499 44.208 55.7292 44.0902 56.5341C44.0329 56.9282 44.0467 57.3364 44.1528 57.7178C44.2663 58.126 44.4594 58.4933 44.7034 58.8084C45.2052 59.4538 45.9096 59.8696 46.6236 60.0482C47.3821 60.237 48.181 60.177 48.9088 59.8518C49.5718 59.5571 50.1595 59.0788 50.6847 58.515C51.2045 57.9563 51.6607 57.3186 52.0988 56.668C52.2039 56.5111 52.3089 56.353 52.4129 56.1948C52.4871 56.0826 52.5105 55.9155 52.4129 55.807C52.3301 55.7165 52.1699 55.6871 52.0904 55.807Z" fill="#A56869"/>
<path d="M56.2522 54.5251C56.3732 54.3886 56.4984 54.256 56.6257 54.1272C56.6914 54.0634 56.7572 53.9996 56.8241 53.9371C56.7933 53.9652 56.8241 53.9358 56.8378 53.9243C56.8548 53.9078 56.8729 53.8925 56.8898 53.8771C56.9248 53.8453 56.9609 53.8134 56.9959 53.7828C57.2654 53.5493 57.5476 53.3363 57.8393 53.145C57.9889 53.0468 58.1396 52.9549 58.2934 52.8695C58.3677 52.8287 58.4419 52.7878 58.5162 52.7496C58.5236 52.7457 58.5597 52.7279 58.5332 52.7406C58.5077 52.7534 58.5363 52.7394 58.5406 52.7368C58.5575 52.7292 58.5745 52.7202 58.5926 52.7113C58.6329 52.6922 58.6743 52.6718 58.7146 52.6526C59.0275 52.5072 59.3479 52.3848 59.6736 52.2865C59.8349 52.2381 59.9972 52.1973 60.1616 52.1603C60.2444 52.1424 60.3282 52.1258 60.412 52.1105C60.43 52.108 60.4491 52.1041 60.4671 52.1016L60.4958 52.0965C60.4459 52.1029 60.4799 52.099 60.4905 52.0978C60.5351 52.0914 60.5786 52.085 60.6221 52.0786C60.9859 52.0302 61.3551 52.0098 61.7211 52.048C61.7667 52.0519 61.8113 52.0582 61.8559 52.0646C61.8665 52.0659 61.8771 52.0672 61.8877 52.0684C61.8834 52.0684 61.8516 52.0621 61.8781 52.0672C61.9057 52.0723 61.9333 52.0774 61.9609 52.0825C62.0532 52.1003 62.1455 52.1233 62.2367 52.1501C62.3248 52.1756 62.4118 52.2062 62.4966 52.2419C62.5348 52.2572 62.572 52.2738 62.6091 52.2904C62.625 52.298 62.6409 52.3057 62.6568 52.3133C62.6876 52.3286 62.6208 52.2942 62.6505 52.3108C62.66 52.3159 62.6706 52.3223 62.6812 52.3274C62.8202 52.4026 62.9539 52.4919 63.0801 52.5952C63.1109 52.6207 63.1416 52.6463 63.1714 52.6743L63.1926 52.6922C63.1915 52.6909 63.1597 52.6616 63.1798 52.682C63.1979 52.6985 63.2159 52.7164 63.2329 52.7343C63.2923 52.7929 63.3485 52.8567 63.4016 52.923C63.426 52.9524 63.4493 52.983 63.4716 53.0136C63.4928 53.0429 63.5352 53.0863 63.548 53.1246C63.5469 53.1233 63.5225 53.0838 63.5374 53.1093L63.5575 53.1424C63.5681 53.159 63.5777 53.1756 63.5872 53.1922C63.6095 53.2317 63.6307 53.2725 63.6519 53.3134C63.6912 53.3924 63.7262 53.4741 63.757 53.5595C63.775 53.608 63.7453 53.5213 63.7601 53.5685C63.7655 53.5876 63.7718 53.6055 63.7771 53.6233C63.7898 53.6667 63.8015 53.7101 63.8121 53.7547C63.8217 53.7955 63.8302 53.8363 63.8376 53.8784C63.8408 53.8976 63.844 53.9167 63.8472 53.9358C63.8482 53.9473 63.8599 54.0277 63.8546 53.9869C63.8482 53.9473 63.8567 54.0085 63.8567 54.02C63.8588 54.0417 63.8609 54.0659 63.862 54.0876C63.8652 54.1335 63.8662 54.1794 63.8662 54.2254C63.8662 54.2649 63.8652 54.3045 63.8631 54.344C63.862 54.3874 63.8503 54.4371 63.8535 54.4805C63.8535 54.4805 63.8599 54.4256 63.8556 54.4562C63.8546 54.469 63.8524 54.4818 63.8503 54.4945C63.8482 54.5149 63.845 54.5341 63.8418 54.5532C63.8344 54.5978 63.8259 54.6412 63.8153 54.6858C63.8068 54.7267 63.7962 54.7662 63.7846 54.8057C63.7793 54.8249 63.774 54.8427 63.7676 54.8606L63.7591 54.8886C63.7485 54.9205 63.7782 54.8376 63.7601 54.8848C63.7304 54.9601 63.6986 55.0353 63.6615 55.1055C63.6509 55.1246 63.6403 55.1425 63.6297 55.1616C63.6254 55.1693 63.5957 55.219 63.6148 55.1884C63.6328 55.1552 63.5968 55.2139 63.5915 55.2203C63.5798 55.2381 63.5671 55.2547 63.5543 55.2713C63.531 55.3019 63.5055 55.3313 63.4801 55.3606C63.4673 55.3734 63.4546 55.3874 63.4419 55.4001L63.4217 55.4206C63.4005 55.4422 63.4525 55.395 63.4164 55.4244C63.3867 55.4486 63.357 55.4728 63.3252 55.4945C63.2944 55.5162 63.2488 55.557 63.2127 55.5647C63.218 55.5634 63.2584 55.543 63.217 55.5621L63.1915 55.5723C63.1745 55.58 63.1576 55.5864 63.1395 55.5928C63.0992 55.6068 63.0589 55.6157 63.0175 55.6259C62.9899 55.6323 63.0345 55.6234 63.0345 55.6234L63.008 55.6272C62.9868 55.6285 62.9666 55.6297 62.9454 55.6297C62.9274 55.6297 62.9104 55.6297 62.8924 55.6285L62.8658 55.6259C62.8372 55.6259 62.9082 55.6361 62.8648 55.6259C62.8297 55.6183 62.7958 55.6093 62.7629 55.5966L62.7321 55.5838C62.7321 55.5838 62.7735 55.6068 62.7502 55.5928C62.7332 55.5825 62.7162 55.5736 62.7003 55.5634C62.6844 55.5519 62.6685 55.5405 62.6526 55.5277C62.6441 55.5213 62.608 55.4843 62.6303 55.5098C62.6536 55.5366 62.6101 55.4869 62.6048 55.4805C62.591 55.4652 62.5783 55.4486 62.5656 55.432C62.5603 55.4257 62.5274 55.3785 62.5476 55.4091C62.5688 55.4397 62.5338 55.3836 62.5285 55.3734C62.52 55.358 62.5115 55.3415 62.504 55.3249L62.4934 55.2994C62.4775 55.2611 62.4924 55.2802 62.4934 55.3045C62.4924 55.2713 62.4722 55.2305 62.4659 55.1973L62.4595 55.1616C62.4606 55.1603 62.4638 55.219 62.4627 55.1884C62.4616 55.1667 62.4595 55.145 62.4595 55.1234C62.4595 55.108 62.4659 55.0443 62.4595 55.0851C62.4531 55.1272 62.4637 55.066 62.4648 55.0558C62.469 55.0353 62.4754 55.0162 62.4797 54.9958C62.485 54.9754 62.4924 54.9818 62.4786 54.9958C62.4722 55.0149 62.4712 55.0175 62.4754 55.0047L62.4818 54.9882C62.4871 54.9779 62.5327 54.8963 62.5306 54.8925C62.5316 54.895 62.5009 54.9346 62.5178 54.9142L62.5316 54.895C62.5444 54.8772 62.5582 54.8619 62.572 54.8453L62.6059 54.8121C62.608 54.8147 62.5666 54.8415 62.5889 54.8287L62.607 54.8134C62.6356 54.7904 62.6664 54.7713 62.6971 54.7522C62.7322 54.7292 62.6558 54.7687 62.7046 54.7483C62.7184 54.742 62.7321 54.7356 62.747 54.7305C62.7809 54.7177 62.8149 54.7088 62.8488 54.7012L62.8711 54.696C62.8701 54.6986 62.8244 54.7012 62.8488 54.7012C62.8658 54.7012 62.8839 54.6973 62.9008 54.6973C62.9136 54.696 63.0027 54.7075 63.0059 54.7012C63.0048 54.7037 62.9581 54.6909 62.9825 54.6973L63.0048 54.7024C63.0218 54.7063 63.0387 54.7113 63.0557 54.7165C63.0727 54.7216 63.166 54.742 63.1724 54.7611C63.1724 54.7598 63.1226 54.7343 63.166 54.7586L63.1905 54.7713C63.2064 54.7802 63.2212 54.7904 63.2371 54.8006C63.2732 54.8236 63.3082 54.8491 63.3422 54.8772C63.3559 54.8887 63.3697 54.9027 63.3846 54.9142C63.4122 54.9358 63.356 54.8848 63.3804 54.9103L63.4016 54.9308C63.4334 54.9626 63.4642 54.9958 63.4949 55.0302C63.5501 55.0953 63.6031 55.1642 63.6519 55.2369L63.6742 55.27C63.6774 55.2739 63.6954 55.3032 63.6785 55.2751C63.6615 55.2484 63.6912 55.2968 63.6954 55.3045C63.7167 55.3389 63.7379 55.3734 63.757 55.4091C63.7962 55.478 63.8323 55.5481 63.8652 55.6195C63.8981 55.6884 63.9278 55.7586 63.9564 55.8313C63.9638 55.8504 63.9713 55.8695 63.9787 55.8887C63.9819 55.8989 64.0042 55.9512 63.9882 55.9142C63.9713 55.8759 63.9967 55.941 63.9999 55.9499C64.0063 55.969 64.0126 55.9895 64.019 56.0086C64.0657 56.1604 64.1039 56.3147 64.1336 56.4716C64.1484 56.552 64.1612 56.6336 64.1718 56.7152C64.1728 56.7254 64.1803 56.7854 64.176 56.742C64.1707 56.6948 64.1781 56.7675 64.1792 56.7777C64.1834 56.8211 64.1866 56.8632 64.1898 56.9053C64.2004 57.0673 64.2036 57.2293 64.1972 57.3913C64.1941 57.4742 64.1888 57.5571 64.1813 57.6387C64.1792 57.6579 64.1771 57.6757 64.176 57.6948C64.1707 57.7446 64.1834 57.6336 64.1749 57.7038C64.1696 57.7433 64.1643 57.7816 64.159 57.8211C64.1346 57.9844 64.1018 58.1451 64.0604 58.3033C64.0413 58.3785 64.019 58.4538 63.9957 58.5278C63.9893 58.5482 63.9819 58.5673 63.9755 58.5877L63.967 58.6132C63.967 58.6132 63.9851 58.5609 63.9755 58.589C63.9607 58.6285 63.9469 58.6681 63.9309 58.7064C63.8737 58.8518 63.8089 58.9933 63.7347 59.1286C63.6975 59.1974 63.6572 59.2638 63.6169 59.3288C63.6021 59.3543 63.6297 59.3097 63.6297 59.3097L63.6106 59.339C63.601 59.353 63.5915 59.3671 63.5819 59.3811C63.5586 59.4143 63.5363 59.4462 63.5119 59.4781C63.4238 59.5954 63.3273 59.7051 63.2255 59.8071C63.1332 59.8977 63.1406 60.1005 63.2255 60.1949C63.3241 60.3033 63.4493 60.2918 63.548 60.1949C64.0179 59.7293 64.3479 59.0763 64.5187 58.3785C64.6895 57.6783 64.7033 56.9168 64.5505 56.2114C64.4741 55.8593 64.3543 55.5162 64.193 55.2101C64.0084 54.8593 63.7676 54.5188 63.4588 54.3223C63.1353 54.1144 62.7534 54.0863 62.4266 54.3032C62.1052 54.5162 61.9259 54.9665 62.0383 55.3976C62.1572 55.8517 62.503 56.1502 62.8924 56.1769C63.2658 56.2025 63.6413 55.9716 63.8875 55.6438C64.3617 55.0137 64.4328 54.0749 64.1612 53.3108C63.8864 52.5391 63.2838 51.9932 62.6377 51.7215C61.8728 51.4 61.0337 51.4447 60.2444 51.5914C59.5261 51.724 58.8291 51.983 58.1661 52.3401C57.503 52.696 56.8856 53.1641 56.3254 53.719C56.1896 53.8529 56.0581 53.9932 55.9308 54.1374C55.8438 54.2369 55.8417 54.4269 55.9308 54.5251C56.0231 54.6284 56.1599 54.631 56.2522 54.5251Z" fill="#A56869"/>
<path d="M67.5783 63.357C66.3732 65.7843 64.4742 67.7206 61.9206 68.9719C59.68 70.0714 56.9344 70.6403 53.7104 70.5485C50.4863 70.6403 47.7408 70.0714 45.5002 68.9719C43.2002 67.8443 41.4306 66.1606 40.2212 64.0624C41.9473 63.4322 43.8038 63.2154 45.6105 63.2792C48.894 63.394 52.1106 64.3443 55.3537 64.9667C58.5968 65.5892 61.98 65.8749 65.115 64.6938C65.969 64.371 66.8039 63.9208 67.5783 63.357Z" fill="#409359"/>
<path d="M66.2926 47.1091C64.2992 47.817 62.0893 47.9191 60.0185 47.6231C56.1855 47.0759 52.5063 45.4216 48.6723 44.8948C46.4868 44.595 44.1497 44.7468 42.082 45.5874C42.5096 44.9445 42.9509 44.3297 43.389 43.7519L43.3912 43.7493C43.7423 43.2876 44.0754 42.8679 44.417 42.4547L44.4383 42.4291C44.8064 41.9827 45.1788 41.5516 45.5172 41.1727C47.9063 38.4979 48.5004 34.2147 46.9579 30.7554C46.0317 28.6839 44.7958 26.9811 43.8558 25.8573H43.8548L43.8473 25.8471C43.0559 24.9032 42.4777 24.37 42.4777 24.37H52.2506L54.0733 28.7222L56.1049 24.37H64.9421C64.9421 24.37 64.3564 24.9109 63.5576 25.8662C62.6198 26.9887 61.386 28.6865 60.464 30.7554C58.9205 34.2147 59.5145 38.4979 61.9037 41.1727C62.2516 41.5618 62.6198 41.9878 62.9985 42.447C63.3221 42.8399 63.6541 43.257 63.9883 43.6945C64.7755 44.7264 65.5701 45.8782 66.2926 47.1091Z" fill="#409359"/>
<path d="M50.1493 45.1528C49.6772 45.0572 49.203 44.9742 48.7266 44.9092C48.698 44.9054 48.6693 44.9016 48.6407 44.8977C48.6365 44.8964 48.6322 44.8964 48.628 44.8964C47.9893 44.8123 47.3379 44.7676 46.6844 44.7676C46.6834 44.7676 46.6834 44.7676 46.6823 44.7676C46.6812 44.7676 46.6802 44.7676 46.6791 44.7676C45.7137 44.7676 44.7441 44.8658 43.8052 45.0801C43.9113 44.9411 44.0237 44.8046 44.1415 44.672C45.1907 43.4972 46.4563 42.8811 47.5671 42.8811C48.3574 42.8811 49.0704 43.1936 49.57 43.839C49.8575 44.2102 50.0496 44.6592 50.1493 45.1528Z" fill="#D8DEDA"/>
<path d="M44.4382 42.4292L44.417 42.4547C44.0743 42.868 43.7423 43.2877 43.3911 43.7494L43.389 43.752C29.1434 27.0819 40.5988 24.6367 42.4596 24.3586V24.3701H42.4777C42.4777 24.3701 43.0559 24.9033 43.8473 25.8472C42.4724 25.9671 30.8928 27.4493 44.4382 42.4292Z" fill="#2D6D41"/>
<path d="M63.9883 43.6946C63.6542 43.2571 63.3221 42.84 62.9985 42.4471C76.4623 27.5041 64.8678 25.9888 63.5576 25.8663C64.3565 24.911 64.9421 24.3701 64.9421 24.3701H64.9548C66.649 24.6456 77.9708 27.1597 63.9883 43.6946Z" fill="#2D6D41"/>
<path d="M64.9613 23.1849V24.3699H56.105L57.2104 21.9999H63.9768C64.5178 21.9999 64.9613 22.5331 64.9613 23.1849Z" fill="#E5E0D7"/>
<path d="M52.2509 24.3699H42.46V23.1849C42.46 22.5331 42.9034 21.9999 43.4445 21.9999H51.259L52.2509 24.3699Z" fill="#EFEAE2"/>
<path d="M61.9761 69.4056V70.5331C61.9761 71.3405 61.4265 72 60.7561 72H46.6664C45.9948 72 45.4453 71.3405 45.4453 70.5331V69.4056C45.4453 69.255 45.4655 69.1096 45.5005 68.9719C47.7411 70.0714 50.4867 70.6403 53.7107 70.5484C56.9347 70.6403 59.6803 70.0714 61.9209 68.9719C61.957 69.1096 61.9761 69.255 61.9761 69.4056Z" fill="#2D6D41"/>
<path d="M54.0733 24.37V28.7222L52.2507 24.37L51.2588 22.0001L54.0733 24.37Z" fill="#EFEAE2"/>
<path d="M57.2103 22.0001L56.1048 24.37L54.0732 28.7222V24.37L57.2103 22.0001Z" fill="#E5E0D7"/>
<path d="M54.1763 53.4076C54.1052 52.5402 54.084 51.5351 54.4065 50.6779C54.729 49.8195 55.461 49.1753 56.244 49.1741C57.0269 49.1728 57.795 49.8845 57.9128 50.8157C58.004 51.5287 57.726 52.2532 57.3187 52.7838C56.9102 53.3145 56.2907 53.8324 55.7708 54.1946C56.6577 54.0887 57.4545 54.09 58.2194 53.8273C58.9906 53.5619 59.9741 53.6181 60.4239 54.4165C60.8037 55.0926 60.582 56.0888 60.0515 56.599C59.5221 57.1105 58.7763 57.1959 58.1133 57.0186C57.4502 56.8426 56.7118 56.4 56.1209 55.9957C56.854 56.7597 57.7557 57.6143 58.0517 58.724C58.3467 59.8338 57.76 60.9154 57.1001 61.0915C56.2832 61.3083 55.3634 61.0506 55.0431 60.1208C54.7237 59.1909 54.7577 58.0302 54.8245 57.0276C54.7365 57.9205 54.6654 58.9638 54.2527 59.7126C53.84 60.4613 53.0115 60.9614 52.3272 60.5978C51.6503 60.2394 51.3947 59.1807 51.5655 58.3146C51.7363 57.4485 52.0917 56.8069 52.5659 56.1232C51.7182 56.6016 50.9427 57.0161 50.0155 56.8541C49.0893 56.6921 48.2194 55.5735 48.5154 54.5058C48.7393 53.6933 49.5339 53.2762 50.2436 53.3438C50.9533 53.4101 51.8466 54.0722 52.464 54.4982C51.8148 53.8005 50.8886 52.831 50.6096 51.8399C50.3316 50.8476 50.6191 49.5427 51.4382 49.1856C52.1596 48.8718 52.9818 49.4266 53.3859 50.2111C53.7891 50.9956 54.101 52.4892 54.1763 53.4076Z" fill="#E3878C"/>
<path d="M53.3315 56.6489C52.8276 56.4792 52.3969 56.117 52.3152 55.4894C52.2335 54.8631 52.5072 54.2126 52.9358 53.8402C53.3633 53.4677 53.9214 53.3516 54.4454 53.4307C55.0448 53.52 55.6389 53.8784 55.9625 54.492C56.2871 55.1055 56.2808 55.9856 55.8649 56.5137C55.5562 56.9053 55.0809 57.0532 54.6332 57.0277C54.1866 57.0035 53.7559 56.8249 53.3315 56.6489Z" fill="#F9E0E0"/>
<path d="M45.0164 52.0671C44.7278 52.0671 44.4499 52.025 44.1889 51.9421C44.2557 51.7687 44.3353 51.6016 44.4244 51.4447C44.4477 51.4051 44.47 51.3669 44.4944 51.3286C44.4944 51.3273 44.4944 51.3273 44.4955 51.326C44.4997 51.3197 44.5061 51.3095 44.5082 51.3056C44.5199 51.2891 44.5316 51.2725 44.5432 51.2546C44.5952 51.1794 44.6504 51.1066 44.7087 51.0365C44.7925 50.9344 44.8 50.7495 44.7087 50.6487C44.662 50.5977 44.6026 50.5696 44.5432 50.5696C44.4859 50.5696 44.4297 50.5952 44.3862 50.6487C44.1221 50.9702 43.9109 51.3464 43.7614 51.7572C43.4792 51.6003 43.2267 51.386 43.0124 51.1092C41.8899 49.6602 42.2358 47.0441 43.7507 45.0657C44.6896 44.8514 45.6593 44.7532 46.6247 44.7532C46.6258 44.7532 46.6268 44.7532 46.6279 44.7532C46.6289 44.7532 46.6289 44.7532 46.63 44.7532C47.2835 44.7532 47.9349 44.7978 48.5735 44.882C48.5778 44.882 48.582 44.882 48.5863 44.8833C48.6149 44.8871 48.6436 44.8909 48.6722 44.8948C49.1485 44.9598 49.6228 45.0427 50.0949 45.1384C50.4121 46.7086 49.8063 48.7456 48.4409 50.2763C47.3917 51.451 46.1261 52.0671 45.0164 52.0671Z" fill="#F8F7F5"/>
<path d="M44.1893 51.9421C44.0407 51.8937 43.8975 51.8324 43.7617 51.7572C43.9113 51.3465 44.1224 50.9702 44.3866 50.6487C44.4301 50.5952 44.4863 50.5697 44.5436 50.5697C44.603 50.5697 44.6624 50.5977 44.7091 50.6487C44.8003 50.7495 44.7929 50.9345 44.7091 51.0365C44.6507 51.1067 44.5956 51.1794 44.5436 51.2546C44.5319 51.2725 44.5203 51.2891 44.5086 51.3057C44.5065 51.3095 44.5001 51.3197 44.4959 51.3261C44.4948 51.3273 44.4948 51.3273 44.4948 51.3286C44.4704 51.3669 44.4481 51.4051 44.4248 51.4447C44.3357 51.6016 44.2561 51.7687 44.1893 51.9421Z" fill="#E8D9D9"/>
</svg>
