<svg width="112" height="99" viewBox="0 0 112 99" fill="none" xmlns="http://www.w3.org/2000/svg">
<rect x="1.5" y="1.5" width="109" height="96" rx="14.5" fill="white" stroke="#ADC6F7" stroke-width="3"/>
<path d="M48.6063 30.3065C47.3868 29.9698 46.0307 30.3928 45.1136 31.3248C44.1977 32.2569 43.7246 33.6543 43.7979 35.0134C43.8764 36.4533 44.5165 37.7864 44.7707 39.203C44.8694 39.7532 44.9099 40.3185 45.0706 40.8522C45.2312 41.386 45.5386 41.9007 46.0117 42.1306C46.4798 42.3578 47.0313 42.2661 47.5108 42.0649C48.3457 41.7145 49.0414 41.0521 49.6259 40.3157C51.1199 38.431 51.9737 35.966 51.994 33.4832C51.9965 33.0507 51.9737 32.6087 51.8219 32.209C51.5588 31.5165 51.03 31.2386 50.4102 31.0415C49.7966 30.8472 49.2337 30.479 48.6063 30.3065Z" fill="#929FA5"/>
<path d="M77.8938 32.9216C79.2221 32.8751 80.5263 32.2551 81.4561 31.2285C81.131 31.9581 80.2695 32.9572 79.57 33.2487C78.1873 33.8263 76.7768 34.0781 76.2506 34.1233C75.5852 34.1794 74.6023 33.3363 74.1 32.7806C73.7332 32.3741 73.6459 31.984 74.2164 31.9088C74.749 31.839 75.274 32.2879 75.7332 32.4932C76.415 32.797 77.1563 32.9476 77.8938 32.9216Z" fill="#ACBCC6"/>
<path d="M76.8159 60.0751C76.8829 60.1381 76.9538 60.2024 77.0398 60.2284C77.1246 60.2517 77.2131 60.2366 77.2991 60.2175C78.7185 59.9122 79.9911 58.8912 80.6729 57.5102C80.7197 57.4158 80.7653 57.3145 80.7653 57.2077C80.7653 57.0558 80.6755 56.923 80.592 56.8012C79.3915 55.0548 78.5224 53.0428 78.0543 50.9255C77.8785 50.1316 77.7571 49.3159 77.4497 48.57C77.1435 47.8254 76.6135 47.1383 75.8912 46.9002C75.0158 46.61 74.0316 47.063 73.4396 47.8199C72.8476 48.5768 72.592 49.58 72.4984 50.5669C72.1379 54.4005 74.2403 57.6594 76.8159 60.0751Z" fill="#929FA5"/>
<path d="M47.3197 56.5879C47.2198 56.6714 47.111 56.7686 47.0933 56.9027C47.0793 57.0095 47.1274 57.1135 47.1768 57.2079C47.5537 57.932 48.0787 58.5656 48.7049 59.0461C48.8921 59.1911 49.0996 59.3266 49.3298 59.3431C49.5841 59.3609 49.8244 59.2322 50.0496 59.1036C51.388 58.3426 52.6707 57.468 53.8851 56.4921C54.0344 56.3716 54.1862 56.2457 54.2798 56.0719C54.3519 55.9405 54.3848 55.7886 54.4139 55.638C54.5834 54.7374 54.5935 53.7848 54.319 52.9143C54.0432 52.0452 53.4588 51.2692 52.672 50.9202C52.1229 50.6766 51.1198 50.5821 50.6517 51.0858C50.3013 51.4622 50.2432 52.2697 50.0496 52.7529C49.45 54.2488 48.5063 55.5833 47.3197 56.5879Z" fill="#929FA5"/>
<path d="M39.7877 44.7367C41.7839 43.7855 43.1767 41.779 44.233 39.7136C45.2893 37.6483 46.1115 35.4256 47.4335 33.5477C49.1058 31.1744 51.5081 29.4759 54.0963 28.4466C56.6845 27.4174 59.4587 27.0259 62.2151 26.9507C64.6452 26.885 67.1095 27.0643 69.4232 27.8704C71.7369 28.678 73.9026 30.1548 75.3004 32.3063C76.1492 33.6134 76.6919 35.1272 77.0765 36.6697C78.2302 41.2931 78.0075 46.1697 77.7773 50.9519C77.7153 52.2125 77.623 53.5675 76.8829 54.542C76.2833 55.3317 75.3561 55.7341 74.4491 56.0215C72.7324 56.5663 70.945 56.814 69.1613 56.9645C65.828 57.2451 62.4707 57.1972 59.145 56.8113C56.4581 56.5006 53.6586 55.9038 51.5814 54.0328C49.4992 52.155 48.4581 49.2862 47.4967 46.5434C46.9793 47.6315 45.7143 47.9696 44.5973 48.168C41.3665 48.7429 37.7587 49.0207 35.1085 46.9403C33.8131 45.9234 32.901 44.4479 32.0332 42.993C32.777 42.7521 33.4842 42.3758 34.1141 41.8844C34.0243 41.9542 34.013 42.9506 34.0345 43.0957C34.0825 43.4023 34.1926 43.572 34.3899 43.8074C34.8137 44.3138 35.3728 44.6765 35.9636 44.9051C37.1869 45.3786 38.6024 45.3033 39.7877 44.7367Z" fill="#ACBCC6"/>
<path d="M57.8862 33.1296C58.9855 33.8153 59.7672 35.0212 60.1176 36.3406C60.4693 37.66 60.4124 39.082 60.0898 40.4097C59.9127 41.1337 59.6559 41.8441 59.2511 42.4518C58.439 43.6726 57.031 44.398 55.6445 44.3091C54.2568 44.2215 52.9374 43.3209 52.2632 42.0069C52.7388 43.6042 54.0658 44.8689 55.5914 45.1754C57.1158 45.4834 58.7754 44.8196 59.7495 43.5125C60.32 42.7474 60.654 41.8057 60.8931 40.8559C61.1258 39.9279 61.2776 38.9602 61.1714 38.0049C61.1183 37.5149 60.9968 37.0359 60.8539 36.5664C60.5756 35.6549 60.2075 34.7625 59.6559 34.0111C59.1044 33.2583 58.3567 32.6506 57.4953 32.4166C56.7375 32.2113 55.9418 32.3016 55.1664 32.3933C54.6869 32.4508 54.0317 32.5753 53.8546 33.142C55.1765 32.4727 56.563 32.3029 57.8862 33.1296Z" fill="#929FA5"/>
<path d="M56.022 34.7706C56.8088 34.9513 57.5501 35.444 57.9663 36.1886C58.5052 37.1549 58.4356 38.3812 58.2003 39.4803C57.9498 40.6491 57.4299 41.8933 56.4002 42.3381C55.6817 42.6488 54.8303 42.4846 54.1902 42.0151C53.5488 41.5456 53.1086 40.8011 52.8721 40.0045C52.8 39.7595 52.7443 39.4981 52.7937 39.2462C52.886 38.7686 53.3161 38.4634 53.5451 38.0418C54.0371 37.1303 53.2377 35.9395 53.6855 35.147C54.0612 34.4791 55.4502 34.6379 56.022 34.7706Z" fill="#F7CDCB"/>
<path d="M49.3591 35.9489C49.5476 35.604 49.8702 35.3495 50.232 35.2605C50.4154 35.2167 50.6241 35.2194 50.7721 35.3454C50.8746 35.433 50.9328 35.5698 50.9644 35.7067C51.0947 36.2802 50.7936 36.8769 50.3888 37.2725C50.2105 37.4463 49.9929 37.601 49.7538 37.5996C49.0239 37.5928 49.1188 36.391 49.3591 35.9489Z" fill="#929FA5"/>
<path d="M49.13 37.0892C49.1325 37.2179 49.1515 37.3507 49.216 37.4588C49.2818 37.5655 49.4007 37.6422 49.5171 37.6217C49.6423 37.5984 49.7309 37.4766 49.7903 37.3548C49.927 37.0797 50.1053 36.4678 49.698 36.346C49.3147 36.2311 49.1249 36.7731 49.13 37.0892Z" fill="#4B5254"/>
<path d="M64.983 54.9525C66.7831 54.728 68.5819 54.2572 70.1645 53.3005C71.7457 52.3424 73.1005 50.8615 73.7331 49.0234C73.6002 51.524 73.3219 54.0163 72.8994 56.4786C72.0582 56.881 71.1664 57.1602 70.2568 57.3039C69.279 57.4572 68.2884 57.4572 67.3017 57.4558C64.1658 57.4531 61.0096 57.4476 57.9242 56.8468C57.2348 56.7126 56.5213 56.5333 55.9812 56.0529C55.5624 55.6793 54.6466 54.056 55.3942 53.6071C55.7218 53.41 56.3467 53.8302 56.6377 53.9534C57.1487 54.1682 57.6712 54.3503 58.2 54.5022C60.4036 55.1359 62.7237 55.2344 64.983 54.9525Z" fill="#A4B3BA"/>
<path d="M53.311 58.2176C53.6512 58.8746 54.0042 59.5494 54.5469 60.0229C54.8087 60.2515 55.1098 60.4267 55.4273 60.5512C56.199 60.8565 57.0706 60.8551 57.8422 60.5485C57.5918 59.1141 57.464 57.6537 57.464 56.1934C57.464 55.4666 57.4944 54.733 57.3767 54.0171C57.0061 51.7616 55.1225 50.0028 53.0453 49.5621C51.6791 49.2719 48.8872 49.818 49.9979 51.871C51.1314 53.9679 52.2142 56.0975 53.311 58.2176Z" fill="#ACBCC6"/>
<path d="M70.5617 59.7453C70.4302 60.234 70.3289 60.8512 70.7299 61.1647C70.9108 61.3056 71.1512 61.3412 71.3802 61.3659C71.9735 61.4302 72.5718 61.4589 73.1689 61.4534C73.6117 61.448 74.0784 61.4151 74.4466 61.1729C74.6907 61.0114 74.8691 60.7705 75.0323 60.5269C76.3188 58.608 76.8969 56.3072 77.2751 54.0297C77.3991 53.2892 77.5028 52.5228 77.3143 51.796C76.9551 50.4082 75.4295 49.4254 74.0114 49.6704C72.2113 49.9798 71.6547 51.5633 71.7129 53.1332C71.7926 55.2875 71.1171 57.68 70.5617 59.7453Z" fill="#ACBCC6"/>
<path d="M40.9163 47.8623C42.7949 47.7268 44.5735 46.9344 46.3091 46.1446C46.8277 46.6141 47.3021 47.141 47.7234 47.7145C44.5963 48.715 42.4812 49.3378 39.201 48.8546C38.4913 48.7492 36.4306 48.1018 35.7703 47.8021C33.8588 46.9344 32.5964 44.9703 31.4971 43.0692C32.0107 42.9159 32.4066 42.6299 32.7861 43.0432C33.0973 43.3826 33.2997 43.9438 33.5856 44.327C34.1688 45.1044 34.8683 45.7792 35.645 46.3239C37.1959 47.4134 39.0644 47.9951 40.9163 47.8623Z" fill="#A4B3BA"/>
<path d="M43.2374 44.7635C43.0678 44.7115 42.8654 44.6718 42.7339 44.7991C42.5277 44.999 42.7073 45.3644 42.8958 45.5847C44.2114 47.1245 45.9546 48.4097 47.8913 48.4521C48.0457 48.4562 48.2038 48.4508 48.3417 48.3768C48.6175 48.229 48.7212 47.8636 48.7642 47.5337C48.8376 46.9753 48.7882 46.3252 48.2911 46.009C47.885 45.7503 47.3651 45.9009 46.911 45.8544C45.6384 45.7244 44.4556 45.1344 43.2374 44.7635Z" fill="#CCDEE2"/>
<path d="M31.6829 42.5887C32.2307 42.1589 32.8682 41.866 33.5336 41.7428C33.7247 41.7086 33.9726 41.7196 34.0447 41.9139C34.0902 42.0385 34.0358 42.1767 33.9738 42.2917C33.564 43.0526 32.7455 43.5317 31.9321 43.4852C31.44 43.4564 31.2832 42.9021 31.6829 42.5887Z" fill="#F7CDCB"/>
<path d="M30.9033 84.9375H36.5049V83.4785H32.6729V81.3398H36.2881V79.9805H32.6729V77.9414H36.5049V76.4824H30.9033V84.9375ZM38.2568 84.9375H39.9678V76.0195H38.2568V84.9375ZM44.5732 85.0723C45.0459 85.0723 45.4541 85.0137 45.7979 84.8965C46.1455 84.7754 46.4346 84.6191 46.665 84.4277C46.8994 84.2363 47.083 84.0312 47.2158 83.8125C47.3486 83.5898 47.4404 83.377 47.4912 83.1738L47.5029 83.1152H45.9092L45.8916 83.1504C45.8525 83.2324 45.7783 83.3242 45.6689 83.4258C45.5635 83.5234 45.4229 83.6094 45.2471 83.6836C45.0713 83.7578 44.8584 83.7949 44.6084 83.7949C44.2998 83.7949 44.0342 83.7266 43.8115 83.5898C43.5889 83.4531 43.417 83.2559 43.2959 82.998C43.1748 82.7402 43.1143 82.4297 43.1143 82.0664V81.375C43.1143 81 43.1748 80.6836 43.2959 80.4258C43.4209 80.1641 43.5889 79.9668 43.7998 79.834C44.0146 79.6973 44.2588 79.6289 44.5322 79.6289C44.8096 79.6289 45.0518 79.6953 45.2588 79.8281C45.4697 79.957 45.6338 80.1504 45.751 80.4082C45.8721 80.666 45.9326 80.9883 45.9326 81.375V82.0605L46.7354 81.0469H42.2764V82.1191H47.5557V81.5859C47.5557 80.9336 47.4326 80.3652 47.1865 79.8809C46.9404 79.3965 46.5889 79.0195 46.1318 78.75C45.6748 78.4805 45.1318 78.3457 44.5029 78.3457C43.8779 78.3457 43.333 78.4844 42.8682 78.7617C42.4072 79.0391 42.0498 79.4297 41.7959 79.9336C41.5459 80.4375 41.4209 81.0312 41.4209 81.7148V81.7207C41.4209 82.4121 41.5479 83.0078 41.8018 83.5078C42.0557 84.0078 42.417 84.3945 42.8857 84.668C43.3584 84.9375 43.9209 85.0723 44.5732 85.0723ZM48.9561 87.0762H50.667V83.9062H50.7725C50.8818 84.1406 51.0303 84.3418 51.2178 84.5098C51.4092 84.6777 51.6299 84.8086 51.8799 84.9023C52.1338 84.9922 52.4092 85.0371 52.7061 85.0371C53.249 85.0371 53.7158 84.9043 54.1064 84.6387C54.4971 84.373 54.7979 83.9922 55.0088 83.4961C55.2197 83 55.3252 82.4062 55.3252 81.7148V81.7031C55.3252 81.0156 55.2178 80.4258 55.0029 79.9336C54.792 79.4375 54.4912 79.0547 54.1006 78.7852C53.71 78.5156 53.2451 78.3809 52.7061 78.3809C52.4014 78.3809 52.124 78.4258 51.874 78.5156C51.624 78.6016 51.4053 78.7266 51.2178 78.8906C51.0342 79.0547 50.8857 79.252 50.7725 79.4824H50.667V78.4863H48.9561V87.0762ZM52.1201 83.6191C51.8232 83.6191 51.5635 83.543 51.3408 83.3906C51.1221 83.2383 50.9521 83.0195 50.8311 82.7344C50.71 82.4453 50.6494 82.1055 50.6494 81.7148V81.7031C50.6494 81.3047 50.708 80.9648 50.8252 80.6836C50.9463 80.3984 51.1162 80.1797 51.335 80.0273C51.5576 79.875 51.8193 79.7988 52.1201 79.7988C52.4248 79.7988 52.6846 79.875 52.8994 80.0273C53.1182 80.1797 53.2861 80.3984 53.4033 80.6836C53.5244 80.9688 53.585 81.3086 53.585 81.7031V81.7148C53.585 82.1094 53.5244 82.4492 53.4033 82.7344C53.2861 83.0195 53.1182 83.2383 52.8994 83.3906C52.6846 83.543 52.4248 83.6191 52.1201 83.6191ZM56.7842 84.9375H58.4951V81.2051C58.4951 80.9121 58.5459 80.6582 58.6475 80.4434C58.7529 80.2285 58.8994 80.0625 59.0869 79.9453C59.2783 79.8242 59.5049 79.7637 59.7666 79.7637C60.1729 79.7637 60.4717 79.8809 60.6631 80.1152C60.8545 80.3496 60.9502 80.6953 60.9502 81.1523V84.9375H62.6611V80.7656C62.6611 80.25 62.5752 79.8125 62.4033 79.4531C62.2354 79.0938 61.9873 78.8203 61.6592 78.6328C61.335 78.4414 60.9326 78.3457 60.4521 78.3457C59.9912 78.3457 59.6045 78.4473 59.292 78.6504C58.9795 78.8535 58.749 79.1309 58.6006 79.4824H58.4951V76.0195H56.7842V84.9375ZM66.0771 85.0371C66.3584 85.0371 66.6182 85 66.8564 84.9258C67.0986 84.8477 67.3096 84.7383 67.4893 84.5977C67.6729 84.4531 67.8193 84.2812 67.9287 84.082H68.0342V84.9375H69.7217V80.5312C69.7217 80.0742 69.6162 79.6836 69.4053 79.3594C69.1982 79.0312 68.8955 78.7812 68.4971 78.6094C68.0986 78.4336 67.6143 78.3457 67.0439 78.3457C66.5049 78.3457 66.0303 78.4238 65.6201 78.5801C65.2139 78.7363 64.8896 78.9551 64.6475 79.2363C64.4092 79.5176 64.2666 79.8477 64.2197 80.2266L64.2139 80.2793H65.7959L65.8076 80.2559C65.874 80.0645 66.0029 79.918 66.1943 79.8164C66.3896 79.7109 66.6416 79.6582 66.9502 79.6582C67.3018 79.6582 67.5693 79.7344 67.7529 79.8867C67.9404 80.0352 68.0342 80.25 68.0342 80.5312V82.5879C68.0342 82.8145 67.9736 83.0195 67.8525 83.2031C67.7314 83.3828 67.5674 83.5254 67.3604 83.6309C67.1533 83.7363 66.917 83.7891 66.6514 83.7891C66.3545 83.7891 66.1123 83.7188 65.9248 83.5781C65.7373 83.4375 65.6436 83.2441 65.6436 82.998V82.9863C65.6436 82.752 65.7334 82.5664 65.9131 82.4297C66.0928 82.293 66.3662 82.2148 66.7334 82.1953L68.8779 82.0547V81.0117L66.4756 81.1582C65.6748 81.2051 65.0576 81.3945 64.624 81.7266C64.1904 82.0547 63.9736 82.5098 63.9736 83.0918V83.1035C63.9736 83.4941 64.0635 83.8359 64.2432 84.1289C64.4229 84.418 64.6709 84.6426 64.9873 84.8027C65.3076 84.959 65.6709 85.0371 66.0771 85.0371ZM71.3975 84.9375H73.1084V81.2051C73.1084 80.9121 73.1592 80.6582 73.2607 80.4434C73.3662 80.2285 73.5127 80.0625 73.7002 79.9453C73.8916 79.8242 74.1182 79.7637 74.3799 79.7637C74.7861 79.7637 75.085 79.8809 75.2764 80.1152C75.4678 80.3496 75.5635 80.6953 75.5635 81.1523V84.9375H77.2744V80.7656C77.2744 79.9922 77.085 79.3965 76.7061 78.9785C76.3311 78.5566 75.7842 78.3457 75.0654 78.3457C74.6045 78.3457 74.2178 78.4473 73.9053 78.6504C73.5928 78.8535 73.3623 79.1309 73.2139 79.4824H73.1084V78.4863H71.3975V84.9375ZM81.6104 84.9609C81.7783 84.9609 81.9365 84.9531 82.085 84.9375C82.2334 84.9219 82.3604 84.9043 82.4658 84.8848V83.6133C82.3838 83.6211 82.3057 83.6289 82.2314 83.6367C82.1611 83.6406 82.0713 83.6426 81.9619 83.6426C81.6729 83.6426 81.4619 83.5762 81.3291 83.4434C81.2002 83.3066 81.1357 83.0938 81.1357 82.8047V79.7754H82.4658V78.4863H81.1357V76.9453H79.4072V78.4863H78.4111V79.7754H79.4072V83.1973C79.4072 83.8223 79.5791 84.2734 79.9229 84.5508C80.2666 84.8242 80.8291 84.9609 81.6104 84.9609Z" fill="black"/>
</svg>
