<svg width="437" height="121" viewBox="0 0 437 121" fill="none" xmlns="http://www.w3.org/2000/svg">
<rect width="343" height="60" rx="20" fill="white"/>
<path d="M33.9092 26.1162C34.3657 26.1162 34.6562 25.8174 34.6562 25.3442V20.5464H41.2305V25.3442C41.2305 25.8174 41.521 26.1162 41.9775 26.1162C42.4341 26.1162 42.7246 25.8174 42.7246 25.3442V14.6777C42.7246 14.2046 42.4341 13.9058 41.9775 13.9058C41.521 13.9058 41.2305 14.2046 41.2305 14.6777V19.2017H34.6562V14.6777C34.6562 14.2046 34.3657 13.9058 33.9092 13.9058C33.4526 13.9058 33.1621 14.2046 33.1621 14.6777V25.3442C33.1621 25.8174 33.4526 26.1162 33.9092 26.1162ZM45.6216 15.9146C46.1196 15.9146 46.5264 15.5078 46.5264 15.0181C46.5264 14.52 46.1196 14.1216 45.6216 14.1216C45.1318 14.1216 44.7251 14.52 44.7251 15.0181C44.7251 15.5078 45.1318 15.9146 45.6216 15.9146ZM45.6216 26.1494C46.0449 26.1494 46.3438 25.834 46.3438 25.3774V17.9897C46.3438 17.5332 46.0449 17.2178 45.6216 17.2178C45.1982 17.2178 44.8994 17.5332 44.8994 17.9897V25.3774C44.8994 25.834 45.1982 26.1494 45.6216 26.1494ZM49.4897 24.0742C49.0996 24.0742 48.8672 24.2485 48.7759 24.7051L48.1865 27.7847C48.1782 27.8345 48.1616 27.9175 48.1616 28.042C48.1616 28.374 48.4189 28.5649 48.751 28.5649C49.0996 28.5649 49.2905 28.3989 49.3818 28.042L50.1455 25.1865C50.1953 25.0039 50.2119 24.8794 50.2119 24.73C50.2119 24.3232 49.9131 24.0742 49.4897 24.0742ZM56.2383 26.1162C56.6948 26.1162 56.9854 25.8174 56.9854 25.3442V14.6777C56.9854 14.2046 56.6948 13.9058 56.2383 13.9058C55.7817 13.9058 55.4912 14.2046 55.4912 14.6777V25.3442C55.4912 25.8174 55.7817 26.1162 56.2383 26.1162ZM59.8989 18.3633C60.2476 18.3633 60.4385 18.1973 60.5298 17.8403L61.2935 14.9849C61.3433 14.8022 61.3599 14.6777 61.3599 14.5283C61.3599 14.1216 61.061 13.8726 60.6377 13.8726C60.2476 13.8726 60.0151 14.0469 59.9238 14.5034L59.3345 17.583C59.3262 17.6328 59.3096 17.7158 59.3096 17.8403C59.3096 18.1724 59.5669 18.3633 59.8989 18.3633ZM63.6924 26.1494C64.1323 26.1494 64.4146 25.8174 64.4146 25.3774V20.5879C64.4146 19.3926 65.2446 18.4961 66.3901 18.4961C67.4609 18.4961 68.1582 19.1768 68.1582 20.2144V25.3774C68.1582 25.8174 68.4404 26.1494 68.8804 26.1494C69.3203 26.1494 69.6025 25.8174 69.6025 25.3774V20.5132C69.6025 19.3428 70.4077 18.4961 71.5532 18.4961C72.6904 18.4961 73.3462 19.1934 73.3462 20.3721V25.3774C73.3462 25.8174 73.6284 26.1494 74.0684 26.1494C74.5083 26.1494 74.7905 25.8174 74.7905 25.3774V20.04C74.7905 18.3301 73.6865 17.2178 71.9766 17.2178C70.7646 17.2178 69.752 17.832 69.2705 18.8613H69.2373C68.8638 17.8154 67.9922 17.2178 66.8135 17.2178C65.6514 17.2178 64.7715 17.832 64.3647 18.7451H64.3315V17.9482C64.3315 17.5166 64.0493 17.2178 63.6509 17.2178C63.2524 17.2178 62.9702 17.5166 62.9702 17.9482V25.3774C62.9702 25.8174 63.2524 26.1494 63.6924 26.1494ZM81.0908 26.1494C81.5391 26.1494 81.8379 25.8423 81.8379 25.3774V21.2603H84.7017L87.1006 25.668C87.2915 26.0249 87.4907 26.1494 87.8311 26.1494C88.2627 26.1494 88.5947 25.8506 88.5947 25.4604C88.5947 25.2944 88.5532 25.145 88.437 24.9375L86.2456 21.0278C87.748 20.5547 88.6528 19.2598 88.6528 17.5913C88.6528 15.4331 87.1421 14.022 84.8345 14.022H81.0908C80.6343 14.022 80.3438 14.3208 80.3438 14.7939V25.3774C80.3438 25.8423 80.6426 26.1494 81.0908 26.1494ZM81.8379 19.9404V15.3501H84.6353C86.1792 15.3501 87.1089 16.2051 87.1089 17.6411C87.1089 19.1104 86.2373 19.9404 84.7017 19.9404H81.8379ZM92.8281 26.1494C93.9902 26.1494 95.0942 25.502 95.6089 24.5142H95.6421V25.4189C95.6421 25.8506 95.9243 26.1494 96.3311 26.1494C96.7295 26.1494 97.0117 25.8506 97.0117 25.4189V20.0317C97.0117 18.3135 95.7334 17.2178 93.708 17.2178C92.3052 17.2178 91.0435 17.8403 90.5537 18.7866C90.4375 18.9941 90.3794 19.2017 90.3794 19.3843C90.3794 19.7744 90.645 20.0317 91.0186 20.0317C91.2925 20.0317 91.4834 19.9238 91.6162 19.6831C92.0977 18.8281 92.7368 18.4878 93.6748 18.4878C94.8701 18.4878 95.5674 19.1187 95.5674 20.1729V20.895L93.0854 21.0361C91.0933 21.1523 89.9561 22.082 89.9561 23.5596C89.9561 25.1118 91.1099 26.1494 92.8281 26.1494ZM93.1519 24.9209C92.1143 24.9209 91.4253 24.3813 91.4253 23.5596C91.4253 22.7461 92.0894 22.2314 93.2515 22.1567L95.5674 22.0156V22.7212C95.5674 23.9663 94.5132 24.9209 93.1519 24.9209ZM101.843 26.1494C103.893 26.1494 105.279 25.1118 105.279 23.5679C105.279 22.2979 104.615 21.667 102.814 21.2271L101.527 20.9116C100.581 20.6792 100.116 20.2642 100.116 19.6665C100.116 18.9277 100.838 18.4048 101.876 18.4048C102.756 18.4048 103.312 18.7202 103.686 19.4424C103.843 19.7412 104.042 19.8325 104.325 19.8325C104.673 19.8325 104.889 19.6084 104.889 19.2681C104.889 19.2017 104.881 19.1353 104.864 19.0522C104.64 18.0146 103.378 17.2178 101.959 17.2178C100.008 17.2178 98.6885 18.2388 98.6885 19.7412C98.6885 20.9531 99.4937 21.7417 101.162 22.1567L102.482 22.4888C103.453 22.7295 103.81 23.0615 103.81 23.6841C103.81 24.4893 103.063 24.9707 101.959 24.9707C100.855 24.9707 100.34 24.6304 99.9087 23.875C99.7427 23.5762 99.5352 23.4434 99.2778 23.4434C98.9043 23.4434 98.6221 23.6592 98.6221 24.041C98.6221 24.1489 98.6387 24.2568 98.6885 24.3813C99.1035 25.4604 100.307 26.1494 101.843 26.1494ZM109.762 26.1494C111.812 26.1494 113.198 25.1118 113.198 23.5679C113.198 22.2979 112.534 21.667 110.733 21.2271L109.446 20.9116C108.5 20.6792 108.035 20.2642 108.035 19.6665C108.035 18.9277 108.757 18.4048 109.795 18.4048C110.675 18.4048 111.231 18.7202 111.604 19.4424C111.762 19.7412 111.961 19.8325 112.244 19.8325C112.592 19.8325 112.808 19.6084 112.808 19.2681C112.808 19.2017 112.8 19.1353 112.783 19.0522C112.559 18.0146 111.297 17.2178 109.878 17.2178C107.927 17.2178 106.607 18.2388 106.607 19.7412C106.607 20.9531 107.413 21.7417 109.081 22.1567L110.401 22.4888C111.372 22.7295 111.729 23.0615 111.729 23.6841C111.729 24.4893 110.982 24.9707 109.878 24.9707C108.774 24.9707 108.259 24.6304 107.828 23.875C107.662 23.5762 107.454 23.4434 107.197 23.4434C106.823 23.4434 106.541 23.6592 106.541 24.041C106.541 24.1489 106.558 24.2568 106.607 24.3813C107.022 25.4604 108.226 26.1494 109.762 26.1494ZM116.012 22.1401C116.419 22.1401 116.66 21.8745 116.668 21.4512L116.751 14.6196C116.751 14.1714 116.427 13.8726 116.012 13.8726C115.597 13.8726 115.273 14.1714 115.273 14.6196L115.356 21.4512C115.365 21.8745 115.605 22.1401 116.012 22.1401ZM116.012 26.083C116.552 26.083 116.958 25.668 116.958 25.1367C116.958 24.5972 116.552 24.1904 116.012 24.1904C115.481 24.1904 115.066 24.5972 115.066 25.1367C115.066 25.668 115.481 26.083 116.012 26.083ZM126.098 26.1162C126.562 26.1162 126.812 25.9087 126.961 25.4106L129.576 16.4956H129.659L132.273 25.4106C132.423 25.9087 132.672 26.1162 133.137 26.1162C133.585 26.1162 133.834 25.8921 133.975 25.4023L136.905 15.0015C136.955 14.8188 136.972 14.7192 136.972 14.5864C136.972 14.188 136.665 13.9058 136.233 13.9058C135.851 13.9058 135.594 14.1133 135.494 14.5034L133.137 23.8003H133.07L130.539 14.7109C130.381 14.1465 130.115 13.9058 129.625 13.9058C129.119 13.9058 128.854 14.1465 128.688 14.7441L126.164 23.8003H126.098L123.74 14.5034C123.641 14.1216 123.392 13.9058 123.001 13.9058C122.57 13.9058 122.263 14.188 122.263 14.5864C122.263 14.7192 122.279 14.8188 122.329 15.0015L125.259 25.4023C125.4 25.8921 125.649 26.1162 126.098 26.1162ZM141.114 26.1494C142.691 26.1494 143.903 25.4854 144.459 24.3149C144.525 24.1572 144.567 24.0078 144.567 23.8916C144.567 23.5098 144.31 23.2607 143.928 23.2607C143.704 23.2607 143.538 23.3438 143.388 23.5513C142.716 24.5308 142.085 24.896 141.056 24.896C139.512 24.896 138.557 23.8169 138.557 22.0737H143.953C144.451 22.0737 144.75 21.7583 144.75 21.2354C144.75 18.8696 143.197 17.2178 140.989 17.2178C138.607 17.2178 137.071 18.9941 137.071 21.7168C137.071 24.5059 138.565 26.1494 141.114 26.1494ZM138.565 20.9448C138.657 19.459 139.62 18.4712 140.964 18.4712C142.301 18.4712 143.222 19.4507 143.255 20.9448H138.565ZM147.007 26.1494C147.431 26.1494 147.729 25.834 147.729 25.3774V14.6445C147.729 14.188 147.431 13.8726 147.007 13.8726C146.584 13.8726 146.285 14.188 146.285 14.6445V25.3774C146.285 25.834 146.584 26.1494 147.007 26.1494ZM153.241 26.1494C154.81 26.1494 156.18 25.2861 156.595 24.0908C156.636 23.958 156.661 23.8335 156.661 23.7256C156.661 23.3521 156.412 23.0947 156.039 23.0947C155.723 23.0947 155.565 23.2109 155.358 23.6011C154.91 24.4312 154.279 24.8794 153.241 24.8794C151.755 24.8794 150.726 23.6675 150.726 21.6836C150.726 19.7495 151.739 18.4878 153.241 18.4878C154.237 18.4878 154.893 18.9111 155.35 19.7661C155.549 20.1396 155.723 20.2725 156.039 20.2725C156.412 20.2725 156.653 20.0234 156.653 19.6416C156.653 19.5503 156.636 19.4424 156.603 19.3345C156.271 18.1392 154.852 17.2178 153.225 17.2178C150.834 17.2178 149.257 18.9858 149.257 21.7002C149.257 24.4312 150.851 26.1494 153.241 26.1494ZM161.774 26.1494C164.157 26.1494 165.767 24.4312 165.767 21.6836C165.767 18.9277 164.157 17.2178 161.774 17.2178C159.384 17.2178 157.773 18.9277 157.773 21.6836C157.773 24.4312 159.384 26.1494 161.774 26.1494ZM161.774 24.8794C160.247 24.8794 159.243 23.7173 159.243 21.6836C159.243 19.6499 160.247 18.4878 161.774 18.4878C163.302 18.4878 164.298 19.6499 164.298 21.6836C164.298 23.7173 163.302 24.8794 161.774 24.8794ZM167.95 26.1494C168.39 26.1494 168.672 25.8174 168.672 25.3774V20.5879C168.672 19.3926 169.502 18.4961 170.648 18.4961C171.719 18.4961 172.416 19.1768 172.416 20.2144V25.3774C172.416 25.8174 172.698 26.1494 173.138 26.1494C173.578 26.1494 173.86 25.8174 173.86 25.3774V20.5132C173.86 19.3428 174.666 18.4961 175.811 18.4961C176.948 18.4961 177.604 19.1934 177.604 20.3721V25.3774C177.604 25.8174 177.886 26.1494 178.326 26.1494C178.766 26.1494 179.048 25.8174 179.048 25.3774V20.04C179.048 18.3301 177.944 17.2178 176.234 17.2178C175.022 17.2178 174.01 17.832 173.528 18.8613H173.495C173.122 17.8154 172.25 17.2178 171.071 17.2178C169.909 17.2178 169.029 17.832 168.623 18.7451H168.589V17.9482C168.589 17.5166 168.307 17.2178 167.909 17.2178C167.51 17.2178 167.228 17.5166 167.228 17.9482V25.3774C167.228 25.8174 167.51 26.1494 167.95 26.1494ZM184.51 26.1494C186.087 26.1494 187.299 25.4854 187.855 24.3149C187.922 24.1572 187.963 24.0078 187.963 23.8916C187.963 23.5098 187.706 23.2607 187.324 23.2607C187.1 23.2607 186.934 23.3438 186.785 23.5513C186.112 24.5308 185.481 24.896 184.452 24.896C182.908 24.896 181.954 23.8169 181.954 22.0737H187.349C187.847 22.0737 188.146 21.7583 188.146 21.2354C188.146 18.8696 186.594 17.2178 184.386 17.2178C182.003 17.2178 180.468 18.9941 180.468 21.7168C180.468 24.5059 181.962 26.1494 184.51 26.1494ZM181.962 20.9448C182.053 19.459 183.016 18.4712 184.361 18.4712C185.697 18.4712 186.619 19.4507 186.652 20.9448H181.962ZM193.558 24.0078C193.558 25.3857 194.255 26.0664 195.65 26.0664H195.741C196.546 26.0664 196.795 25.834 196.795 25.394C196.795 25.0537 196.58 24.8628 196.106 24.8296L195.982 24.8213C195.26 24.7715 195.002 24.4229 195.002 23.6924V18.5542H196.115C196.53 18.5542 196.762 18.3384 196.762 17.9565C196.762 17.583 196.53 17.3672 196.115 17.3672H195.002V15.8896C195.002 15.4331 194.704 15.1177 194.28 15.1177C193.857 15.1177 193.558 15.4331 193.558 15.8896V17.3672H192.836C192.421 17.3672 192.188 17.583 192.188 17.9565C192.188 18.3384 192.421 18.5542 192.836 18.5542H193.558V24.0078ZM201.552 26.1494C203.934 26.1494 205.544 24.4312 205.544 21.6836C205.544 18.9277 203.934 17.2178 201.552 17.2178C199.161 17.2178 197.551 18.9277 197.551 21.6836C197.551 24.4312 199.161 26.1494 201.552 26.1494ZM201.552 24.8794C200.024 24.8794 199.02 23.7173 199.02 21.6836C199.02 19.6499 200.024 18.4878 201.552 18.4878C203.079 18.4878 204.075 19.6499 204.075 21.6836C204.075 23.7173 203.079 24.8794 201.552 24.8794ZM211.463 26H217.547C217.971 26 218.261 25.7261 218.261 25.3276C218.261 24.9292 217.971 24.6553 217.547 24.6553H212.21V20.5381H217.249C217.664 20.5381 217.954 20.2642 217.954 19.874C217.954 19.4756 217.664 19.21 217.249 19.21H212.21V15.3667H217.547C217.971 15.3667 218.261 15.0928 218.261 14.6943C218.261 14.2959 217.971 14.022 217.547 14.022H211.463C211.006 14.022 210.716 14.3208 210.716 14.7939V25.228C210.716 25.7012 211.006 26 211.463 26ZM220.212 26.1494C220.444 26.1494 220.619 26.0581 220.751 25.8672L222.91 22.7129H222.943L225.084 25.8672C225.209 26.0581 225.4 26.1494 225.632 26.1494C226.022 26.1494 226.321 25.8755 226.321 25.5186C226.321 25.3774 226.271 25.2363 226.172 25.0869L223.74 21.6255L226.205 18.2554C226.296 18.1309 226.346 17.9814 226.346 17.832C226.346 17.4834 226.039 17.2178 225.632 17.2178C225.4 17.2178 225.242 17.3174 225.076 17.5581L222.993 20.6045H222.959L220.826 17.5249C220.668 17.3008 220.527 17.2178 220.278 17.2178C219.88 17.2178 219.573 17.4834 219.573 17.832C219.573 17.9897 219.623 18.1309 219.722 18.272L222.163 21.6836L219.672 25.1118C219.581 25.2446 219.531 25.3857 219.531 25.5269C219.531 25.8838 219.822 26.1494 220.212 26.1494ZM228.596 29.0464C229.019 29.0464 229.318 28.731 229.318 28.2744V24.5972H229.351C229.866 25.5435 230.862 26.1494 232.099 26.1494C234.273 26.1494 235.759 24.3896 235.759 21.6836C235.759 18.9775 234.265 17.2178 232.065 17.2178C230.812 17.2178 229.808 17.8569 229.276 18.8281H229.243V17.9482C229.243 17.5166 228.961 17.2178 228.562 17.2178C228.156 17.2178 227.874 17.5166 227.874 17.9482V28.2744C227.874 28.731 228.172 29.0464 228.596 29.0464ZM231.783 24.8794C230.306 24.8794 229.31 23.6094 229.31 21.6836C229.31 19.7661 230.306 18.4878 231.783 18.4878C233.319 18.4878 234.282 19.7329 234.282 21.6836C234.282 23.6426 233.319 24.8794 231.783 24.8794ZM238.017 26.1494C238.44 26.1494 238.739 25.834 238.739 25.3774V14.6445C238.739 14.188 238.44 13.8726 238.017 13.8726C237.594 13.8726 237.295 14.188 237.295 14.6445V25.3774C237.295 25.834 237.594 26.1494 238.017 26.1494ZM244.268 26.1494C246.65 26.1494 248.26 24.4312 248.26 21.6836C248.26 18.9277 246.65 17.2178 244.268 17.2178C241.877 17.2178 240.267 18.9277 240.267 21.6836C240.267 24.4312 241.877 26.1494 244.268 26.1494ZM244.268 24.8794C242.74 24.8794 241.736 23.7173 241.736 21.6836C241.736 19.6499 242.74 18.4878 244.268 18.4878C245.795 18.4878 246.791 19.6499 246.791 21.6836C246.791 23.7173 245.795 24.8794 244.268 24.8794ZM253.282 26.1494C254.851 26.1494 256.221 25.2861 256.636 24.0908C256.677 23.958 256.702 23.8335 256.702 23.7256C256.702 23.3521 256.453 23.0947 256.08 23.0947C255.764 23.0947 255.606 23.2109 255.399 23.6011C254.951 24.4312 254.32 24.8794 253.282 24.8794C251.796 24.8794 250.767 23.6675 250.767 21.6836C250.767 19.7495 251.78 18.4878 253.282 18.4878C254.278 18.4878 254.934 18.9111 255.391 19.7661C255.59 20.1396 255.764 20.2725 256.08 20.2725C256.453 20.2725 256.694 20.0234 256.694 19.6416C256.694 19.5503 256.677 19.4424 256.644 19.3345C256.312 18.1392 254.893 17.2178 253.266 17.2178C250.875 17.2178 249.298 18.9858 249.298 21.7002C249.298 24.4312 250.892 26.1494 253.282 26.1494ZM260.753 26.1494C261.915 26.1494 263.019 25.502 263.534 24.5142H263.567V25.4189C263.567 25.8506 263.849 26.1494 264.256 26.1494C264.654 26.1494 264.937 25.8506 264.937 25.4189V20.0317C264.937 18.3135 263.658 17.2178 261.633 17.2178C260.23 17.2178 258.968 17.8403 258.479 18.7866C258.362 18.9941 258.304 19.2017 258.304 19.3843C258.304 19.7744 258.57 20.0317 258.943 20.0317C259.217 20.0317 259.408 19.9238 259.541 19.6831C260.022 18.8281 260.662 18.4878 261.6 18.4878C262.795 18.4878 263.492 19.1187 263.492 20.1729V20.895L261.01 21.0361C259.018 21.1523 257.881 22.082 257.881 23.5596C257.881 25.1118 259.035 26.1494 260.753 26.1494ZM261.077 24.9209C260.039 24.9209 259.35 24.3813 259.35 23.5596C259.35 22.7461 260.014 22.2314 261.176 22.1567L263.492 22.0156V22.7212C263.492 23.9663 262.438 24.9209 261.077 24.9209ZM267.493 26.1494C267.917 26.1494 268.215 25.834 268.215 25.3774V20.6377C268.215 19.5337 268.771 18.5957 270.075 18.5957C270.39 18.5957 270.614 18.5376 270.764 18.4131C270.913 18.2969 270.988 18.1309 270.988 17.9067C270.988 17.7075 270.93 17.5415 270.805 17.4253C270.664 17.2925 270.44 17.2178 270.125 17.2178C269.261 17.2178 268.415 17.8818 268.166 18.7783H268.132V17.9482C268.132 17.5166 267.85 17.2178 267.452 17.2178C267.053 17.2178 266.771 17.5166 266.771 17.9482V25.3774C266.771 25.834 267.07 26.1494 267.493 26.1494ZM275.221 26.1494C276.798 26.1494 278.01 25.4854 278.566 24.3149C278.633 24.1572 278.674 24.0078 278.674 23.8916C278.674 23.5098 278.417 23.2607 278.035 23.2607C277.811 23.2607 277.645 23.3438 277.496 23.5513C276.823 24.5308 276.192 24.896 275.163 24.896C273.619 24.896 272.665 23.8169 272.665 22.0737H278.06C278.558 22.0737 278.857 21.7583 278.857 21.2354C278.857 18.8696 277.305 17.2178 275.097 17.2178C272.714 17.2178 271.179 18.9941 271.179 21.7168C271.179 24.5059 272.673 26.1494 275.221 26.1494ZM272.673 20.9448C272.764 19.459 273.727 18.4712 275.072 18.4712C276.408 18.4712 277.33 19.4507 277.363 20.9448H272.673ZM281.646 22.1401C282.053 22.1401 282.293 21.8745 282.302 21.4512L282.385 14.6196C282.385 14.1714 282.061 13.8726 281.646 13.8726C281.231 13.8726 280.907 14.1714 280.907 14.6196L280.99 21.4512C280.999 21.8745 281.239 22.1401 281.646 22.1401ZM281.646 26.083C282.186 26.083 282.592 25.668 282.592 25.1367C282.592 24.5972 282.186 24.1904 281.646 24.1904C281.115 24.1904 280.7 24.5972 280.7 25.1367C280.7 25.668 281.115 26.083 281.646 26.083ZM289.308 26H295.243C295.666 26 295.957 25.7261 295.957 25.3276C295.957 24.9292 295.666 24.6553 295.243 24.6553H290.055V14.6777C290.055 14.2046 289.764 13.9058 289.308 13.9058C288.851 13.9058 288.561 14.2046 288.561 14.6777V25.228C288.561 25.7012 288.851 26 289.308 26ZM300.622 26.1494C302.199 26.1494 303.411 25.4854 303.967 24.3149C304.033 24.1572 304.075 24.0078 304.075 23.8916C304.075 23.5098 303.817 23.2607 303.436 23.2607C303.211 23.2607 303.045 23.3438 302.896 23.5513C302.224 24.5308 301.593 24.896 300.563 24.896C299.02 24.896 298.065 23.8169 298.065 22.0737H303.46C303.958 22.0737 304.257 21.7583 304.257 21.2354C304.257 18.8696 302.705 17.2178 300.497 17.2178C298.115 17.2178 296.579 18.9941 296.579 21.7168C296.579 24.5059 298.073 26.1494 300.622 26.1494ZM298.073 20.9448C298.165 19.459 299.127 18.4712 300.472 18.4712C301.809 18.4712 302.73 19.4507 302.763 20.9448H298.073ZM306.183 24.0078C306.183 25.3857 306.88 26.0664 308.275 26.0664H308.366C309.171 26.0664 309.42 25.834 309.42 25.394C309.42 25.0537 309.205 24.8628 308.731 24.8296L308.607 24.8213C307.885 24.7715 307.627 24.4229 307.627 23.6924V18.5542H308.74C309.155 18.5542 309.387 18.3384 309.387 17.9565C309.387 17.583 309.155 17.3672 308.74 17.3672H307.627V15.8896C307.627 15.4331 307.329 15.1177 306.905 15.1177C306.482 15.1177 306.183 15.4331 306.183 15.8896V17.3672H305.461C305.046 17.3672 304.813 17.583 304.813 17.9565C304.813 18.3384 305.046 18.5542 305.461 18.5542H306.183V24.0078ZM33.6602 46.1494C34.1001 46.1494 34.3823 45.8174 34.3823 45.3774V40.5879C34.3823 39.3926 35.2124 38.4961 36.3579 38.4961C37.4287 38.4961 38.126 39.1768 38.126 40.2144V45.3774C38.126 45.8174 38.4082 46.1494 38.8481 46.1494C39.2881 46.1494 39.5703 45.8174 39.5703 45.3774V40.5132C39.5703 39.3428 40.3755 38.4961 41.521 38.4961C42.6582 38.4961 43.314 39.1934 43.314 40.3721V45.3774C43.314 45.8174 43.5962 46.1494 44.0361 46.1494C44.4761 46.1494 44.7583 45.8174 44.7583 45.3774V40.04C44.7583 38.3301 43.6543 37.2178 41.9443 37.2178C40.7324 37.2178 39.7197 37.832 39.2383 38.8613H39.2051C38.8315 37.8154 37.96 37.2178 36.7812 37.2178C35.6191 37.2178 34.7393 37.832 34.3325 38.7451H34.2993V37.9482C34.2993 37.5166 34.0171 37.2178 33.6187 37.2178C33.2202 37.2178 32.938 37.5166 32.938 37.9482V45.3774C32.938 45.8174 33.2202 46.1494 33.6602 46.1494ZM50.2202 46.1494C51.7974 46.1494 53.0093 45.4854 53.5654 44.3149C53.6318 44.1572 53.6733 44.0078 53.6733 43.8916C53.6733 43.5098 53.416 43.2607 53.0342 43.2607C52.8101 43.2607 52.644 43.3438 52.4946 43.5513C51.8223 44.5308 51.1914 44.896 50.1621 44.896C48.6182 44.896 47.6636 43.8169 47.6636 42.0737H53.0591C53.5571 42.0737 53.856 41.7583 53.856 41.2354C53.856 38.8696 52.3037 37.2178 50.0957 37.2178C47.7134 37.2178 46.1777 38.9941 46.1777 41.7168C46.1777 44.5059 47.6719 46.1494 50.2202 46.1494ZM47.6719 40.9448C47.7632 39.459 48.7261 38.4712 50.0708 38.4712C51.4072 38.4712 52.3286 39.4507 52.3618 40.9448H47.6719ZM61.7998 46.1494C63.8501 46.1494 65.2363 45.1118 65.2363 43.5679C65.2363 42.2979 64.5723 41.667 62.771 41.2271L61.4844 40.9116C60.5381 40.6792 60.0732 40.2642 60.0732 39.6665C60.0732 38.9277 60.7954 38.4048 61.833 38.4048C62.7129 38.4048 63.269 38.7202 63.6426 39.4424C63.8003 39.7412 63.9995 39.8325 64.2817 39.8325C64.6304 39.8325 64.8462 39.6084 64.8462 39.2681C64.8462 39.2017 64.8379 39.1353 64.8213 39.0522C64.5972 38.0146 63.3354 37.2178 61.916 37.2178C59.9653 37.2178 58.6455 38.2388 58.6455 39.7412C58.6455 40.9531 59.4507 41.7417 61.1191 42.1567L62.439 42.4888C63.4102 42.7295 63.7671 43.0615 63.7671 43.6841C63.7671 44.4893 63.02 44.9707 61.916 44.9707C60.812 44.9707 60.2974 44.6304 59.8657 43.875C59.6997 43.5762 59.4922 43.4434 59.2349 43.4434C58.8613 43.4434 58.5791 43.6592 58.5791 44.041C58.5791 44.1489 58.5957 44.2568 58.6455 44.3813C59.0605 45.4604 60.2642 46.1494 61.7998 46.1494ZM67.519 46.1494C67.9424 46.1494 68.2412 45.834 68.2412 45.3774V40.9697C68.2412 39.4756 69.1294 38.4961 70.5654 38.4961C71.9185 38.4961 72.6074 39.3179 72.6074 40.6875V45.3774C72.6074 45.834 72.9062 46.1494 73.3296 46.1494C73.7529 46.1494 74.0518 45.834 74.0518 45.3774V40.4219C74.0518 38.4961 72.9062 37.2178 71.0137 37.2178C69.7021 37.2178 68.7559 37.7822 68.2744 38.7451H68.2412V34.6279C68.2412 34.1797 67.959 33.8726 67.519 33.8726C67.0874 33.8726 66.7969 34.1797 66.7969 34.6279V45.3774C66.7969 45.834 67.0957 46.1494 67.519 46.1494ZM79.4639 46.1494C81.8462 46.1494 83.4565 44.4312 83.4565 41.6836C83.4565 38.9277 81.8462 37.2178 79.4639 37.2178C77.0732 37.2178 75.4629 38.9277 75.4629 41.6836C75.4629 44.4312 77.0732 46.1494 79.4639 46.1494ZM79.4639 44.8794C77.9365 44.8794 76.9321 43.7173 76.9321 41.6836C76.9321 39.6499 77.9365 38.4878 79.4639 38.4878C80.9912 38.4878 81.9873 39.6499 81.9873 41.6836C81.9873 43.7173 80.9912 44.8794 79.4639 44.8794ZM87.3496 46.1494C87.8062 46.1494 88.1216 45.9087 88.2544 45.4521L90.0391 39.3179H90.0723L91.8652 45.4521C92.0063 45.9419 92.2803 46.1494 92.7617 46.1494C93.21 46.1494 93.5088 45.917 93.6416 45.4521L95.75 38.2139C95.7915 38.0728 95.8081 37.9482 95.8081 37.8403C95.8081 37.4585 95.5342 37.2178 95.1025 37.2178C94.7456 37.2178 94.5547 37.3838 94.4468 37.8071L92.7451 44.3896H92.7119L90.8857 37.8569C90.7695 37.4336 90.4956 37.2178 90.064 37.2178C89.624 37.2178 89.3335 37.4419 89.2173 37.8652L87.4077 44.3896H87.3745L85.6729 37.8071C85.5649 37.3838 85.374 37.2178 85.0171 37.2178C84.5854 37.2178 84.3115 37.4585 84.3115 37.8403C84.3115 37.9482 84.3281 38.0728 84.3696 38.2139L86.478 45.4521C86.6191 45.9336 86.8931 46.1494 87.3496 46.1494ZM101.419 49.229C102.847 49.229 103.553 48.5898 104.3 46.606L107.487 38.2637C107.537 38.1226 107.562 37.9897 107.562 37.8818C107.562 37.4917 107.271 37.2178 106.856 37.2178C106.5 37.2178 106.309 37.3672 106.176 37.749L103.785 44.5557H103.76L101.378 37.749C101.245 37.3672 101.029 37.2178 100.689 37.2178C100.274 37.2178 99.9668 37.4834 99.9668 37.8818C99.9668 37.9897 99.9917 38.1226 100.042 38.2637L103.013 46.0083L102.814 46.6143C102.474 47.6602 101.951 47.9922 101.403 47.9922C101.179 47.9922 101.121 47.9839 100.913 47.9839C100.548 47.9839 100.332 48.1997 100.332 48.5151C100.332 48.9717 100.722 49.229 101.419 49.229ZM112.169 46.1494C114.551 46.1494 116.162 44.4312 116.162 41.6836C116.162 38.9277 114.551 37.2178 112.169 37.2178C109.778 37.2178 108.168 38.9277 108.168 41.6836C108.168 44.4312 109.778 46.1494 112.169 46.1494ZM112.169 44.8794C110.642 44.8794 109.637 43.7173 109.637 41.6836C109.637 39.6499 110.642 38.4878 112.169 38.4878C113.696 38.4878 114.692 39.6499 114.692 41.6836C114.692 43.7173 113.696 44.8794 112.169 44.8794ZM120.569 46.1494C121.897 46.1494 122.794 45.5933 123.309 44.5972H123.342V45.4189C123.342 45.834 123.616 46.1494 124.031 46.1494C124.446 46.1494 124.711 45.834 124.711 45.4189V37.9897C124.711 37.5332 124.413 37.2178 123.989 37.2178C123.566 37.2178 123.267 37.5332 123.267 37.9897V42.439C123.267 43.9082 122.42 44.8711 121.018 44.8711C119.681 44.8711 119.025 44.1157 119.025 42.7129V37.9897C119.025 37.5332 118.727 37.2178 118.303 37.2178C117.88 37.2178 117.581 37.5332 117.581 37.9897V42.9702C117.581 44.9292 118.685 46.1494 120.569 46.1494ZM132.589 46.1494C133.751 46.1494 134.855 45.502 135.37 44.5142H135.403V45.4189C135.403 45.8506 135.685 46.1494 136.092 46.1494C136.49 46.1494 136.772 45.8506 136.772 45.4189V40.0317C136.772 38.3135 135.494 37.2178 133.469 37.2178C132.066 37.2178 130.804 37.8403 130.314 38.7866C130.198 38.9941 130.14 39.2017 130.14 39.3843C130.14 39.7744 130.406 40.0317 130.779 40.0317C131.053 40.0317 131.244 39.9238 131.377 39.6831C131.858 38.8281 132.498 38.4878 133.436 38.4878C134.631 38.4878 135.328 39.1187 135.328 40.1729V40.895L132.846 41.0361C130.854 41.1523 129.717 42.082 129.717 43.5596C129.717 45.1118 130.871 46.1494 132.589 46.1494ZM132.913 44.9209C131.875 44.9209 131.186 44.3813 131.186 43.5596C131.186 42.7461 131.85 42.2314 133.012 42.1567L135.328 42.0156V42.7212C135.328 43.9663 134.274 44.9209 132.913 44.9209ZM139.329 46.1494C139.752 46.1494 140.051 45.834 140.051 45.3774V40.6377C140.051 39.5337 140.607 38.5957 141.911 38.5957C142.226 38.5957 142.45 38.5376 142.6 38.4131C142.749 38.2969 142.824 38.1309 142.824 37.9067C142.824 37.7075 142.766 37.5415 142.641 37.4253C142.5 37.2925 142.276 37.2178 141.96 37.2178C141.097 37.2178 140.25 37.8818 140.001 38.7783H139.968V37.9482C139.968 37.5166 139.686 37.2178 139.288 37.2178C138.889 37.2178 138.607 37.5166 138.607 37.9482V45.3774C138.607 45.834 138.906 46.1494 139.329 46.1494ZM147.016 46.1494C149.398 46.1494 151.008 44.4312 151.008 41.6836C151.008 38.9277 149.398 37.2178 147.016 37.2178C144.625 37.2178 143.015 38.9277 143.015 41.6836C143.015 44.4312 144.625 46.1494 147.016 46.1494ZM147.016 44.8794C145.488 44.8794 144.484 43.7173 144.484 41.6836C144.484 39.6499 145.488 38.4878 147.016 38.4878C148.543 38.4878 149.539 39.6499 149.539 41.6836C149.539 43.7173 148.543 44.8794 147.016 44.8794ZM155.416 46.1494C156.744 46.1494 157.641 45.5933 158.155 44.5972H158.188V45.4189C158.188 45.834 158.462 46.1494 158.877 46.1494C159.292 46.1494 159.558 45.834 159.558 45.4189V37.9897C159.558 37.5332 159.259 37.2178 158.836 37.2178C158.413 37.2178 158.114 37.5332 158.114 37.9897V42.439C158.114 43.9082 157.267 44.8711 155.864 44.8711C154.528 44.8711 153.872 44.1157 153.872 42.7129V37.9897C153.872 37.5332 153.573 37.2178 153.15 37.2178C152.727 37.2178 152.428 37.5332 152.428 37.9897V42.9702C152.428 44.9292 153.532 46.1494 155.416 46.1494ZM162.156 46.1494C162.58 46.1494 162.878 45.834 162.878 45.3774V40.9199C162.878 39.459 163.767 38.4961 165.128 38.4961C166.456 38.4961 167.112 39.2598 167.112 40.6543V45.3774C167.112 45.834 167.411 46.1494 167.834 46.1494C168.257 46.1494 168.556 45.834 168.556 45.3774V40.397C168.556 38.438 167.46 37.2178 165.568 37.2178C164.231 37.2178 163.31 37.8154 162.829 38.7451H162.795V37.9482C162.795 37.5166 162.513 37.2178 162.115 37.2178C161.716 37.2178 161.434 37.5166 161.434 37.9482V45.3774C161.434 45.834 161.733 46.1494 162.156 46.1494ZM173.669 46.1494C175.022 46.1494 175.919 45.4854 176.392 44.4561H176.417V45.4438C176.417 45.8672 176.749 46.1494 177.156 46.1494C177.571 46.1494 177.861 45.8589 177.861 45.4438V34.6445C177.861 34.188 177.562 33.8726 177.139 33.8726C176.716 33.8726 176.417 34.188 176.417 34.6445V38.77H176.384C175.869 37.8237 174.873 37.2178 173.636 37.2178C171.461 37.2178 169.976 38.9775 169.976 41.6836C169.976 44.3896 171.47 46.1494 173.669 46.1494ZM173.943 44.8794C172.416 44.8794 171.453 43.6426 171.453 41.6836C171.453 39.7329 172.416 38.4878 173.943 38.4878C175.429 38.4878 176.425 39.7578 176.425 41.6836C176.425 43.6177 175.429 44.8794 173.943 44.8794ZM181.032 46.083C181.563 46.083 181.979 45.668 181.979 45.1367C181.979 44.6055 181.563 44.1904 181.032 44.1904C180.501 44.1904 180.086 44.6055 180.086 45.1367C180.086 45.668 180.501 46.083 181.032 46.083Z" fill="black"/>
<path d="M343 34L354.258 53.5H331.742L343 34Z" fill="white"/>
<path d="M360 59.3333C360 38.1624 377.162 21 398.333 21C419.504 21 436.667 38.1624 436.667 59.3333V104.333C436.667 113.538 429.205 121 420 121H376.667C367.462 121 360 113.538 360 104.333V59.3333Z" fill="#74E903"/>
<rect x="380" y="49" width="7.80347" height="16.474" rx="3.90173" fill="black"/>
<rect x="397.341" y="49" width="7.80347" height="16.474" rx="3.90173" fill="black"/>
<path d="M401.676 92.3519C405.289 93.2189 413.121 92.9588 415.549 84.9819" stroke="black" stroke-width="2" stroke-linecap="round"/>
</svg>
