<svg width="408" height="109" viewBox="0 0 408 109" fill="none" xmlns="http://www.w3.org/2000/svg">
<rect width="318" height="58" rx="20" fill="white"/>
<path d="M37.8203 25.1875C40.8281 25.1875 42.6016 23.3828 42.6016 20.3359V19.9922C42.6016 19.5469 42.3281 19.2656 41.8984 19.2656H38.5703C38.1797 19.2656 37.8984 19.5156 37.8984 19.8828C37.8984 20.25 38.1797 20.5 38.5703 20.5H41.1953V20.7031C41.1953 22.5938 39.8203 23.8906 37.8203 23.8906C35.5234 23.8906 34.1016 22.1328 34.1016 19.2969C34.1016 16.5078 35.5 14.8359 37.8203 14.8359C39.2422 14.8359 40.3359 15.5234 40.9141 16.8281C41.0938 17.2422 41.3047 17.4141 41.6484 17.4141C42.0391 17.4141 42.2891 17.1562 42.2891 16.7734C42.2891 16.6016 42.2734 16.4219 42.1797 16.1797C41.5703 14.6016 39.8828 13.5391 37.8203 13.5391C34.6641 13.5391 32.6562 15.7812 32.6562 19.3047C32.6562 22.8906 34.6719 25.1875 37.8203 25.1875ZM44.875 25.1406C45.2734 25.1406 45.5547 24.8438 45.5547 24.4141V19.9531C45.5547 18.9141 46.0781 18.0312 47.3047 18.0312C47.6016 18.0312 47.8125 17.9766 47.9531 17.8594C48.0938 17.75 48.1641 17.5938 48.1641 17.3828C48.1641 17.1953 48.1094 17.0391 47.9922 16.9297C47.8594 16.8047 47.6484 16.7344 47.3516 16.7344C46.5391 16.7344 45.7422 17.3594 45.5078 18.2031H45.4766V17.4219C45.4766 17.0156 45.2109 16.7344 44.8359 16.7344C44.4609 16.7344 44.1953 17.0156 44.1953 17.4219V24.4141C44.1953 24.8438 44.4766 25.1406 44.875 25.1406ZM52.1484 25.1406C53.6328 25.1406 54.7734 24.5156 55.2969 23.4141C55.3594 23.2656 55.3984 23.125 55.3984 23.0156C55.3984 22.6562 55.1562 22.4219 54.7969 22.4219C54.5859 22.4219 54.4297 22.5 54.2891 22.6953C53.6562 23.6172 53.0625 23.9609 52.0938 23.9609C50.6406 23.9609 49.7422 22.9453 49.7422 21.3047H54.8203C55.2891 21.3047 55.5703 21.0078 55.5703 20.5156C55.5703 18.2891 54.1094 16.7344 52.0312 16.7344C49.7891 16.7344 48.3438 18.4062 48.3438 20.9688C48.3438 23.5938 49.75 25.1406 52.1484 25.1406ZM49.75 20.2422C49.8359 18.8438 50.7422 17.9141 52.0078 17.9141C53.2656 17.9141 54.1328 18.8359 54.1641 20.2422H49.75ZM59.3125 25.1406C60.4062 25.1406 61.4453 24.5312 61.9297 23.6016H61.9609V24.4531C61.9609 24.8594 62.2266 25.1406 62.6094 25.1406C62.9844 25.1406 63.25 24.8594 63.25 24.4531V19.3828C63.25 17.7656 62.0469 16.7344 60.1406 16.7344C58.8203 16.7344 57.6328 17.3203 57.1719 18.2109C57.0625 18.4062 57.0078 18.6016 57.0078 18.7734C57.0078 19.1406 57.2578 19.3828 57.6094 19.3828C57.8672 19.3828 58.0469 19.2812 58.1719 19.0547C58.625 18.25 59.2266 17.9297 60.1094 17.9297C61.2344 17.9297 61.8906 18.5234 61.8906 19.5156V20.1953L59.5547 20.3281C57.6797 20.4375 56.6094 21.3125 56.6094 22.7031C56.6094 24.1641 57.6953 25.1406 59.3125 25.1406ZM59.6172 23.9844C58.6406 23.9844 57.9922 23.4766 57.9922 22.7031C57.9922 21.9375 58.6172 21.4531 59.7109 21.3828L61.8906 21.25V21.9141C61.8906 23.0859 60.8984 23.9844 59.6172 23.9844ZM65.4141 23.125C65.4141 24.4219 66.0703 25.0625 67.3828 25.0625H67.4688C68.2266 25.0625 68.4609 24.8438 68.4609 24.4297C68.4609 24.1094 68.2578 23.9297 67.8125 23.8984L67.6953 23.8906C67.0156 23.8438 66.7734 23.5156 66.7734 22.8281V17.9922H67.8203C68.2109 17.9922 68.4297 17.7891 68.4297 17.4297C68.4297 17.0781 68.2109 16.875 67.8203 16.875H66.7734V15.4844C66.7734 15.0547 66.4922 14.7578 66.0938 14.7578C65.6953 14.7578 65.4141 15.0547 65.4141 15.4844V16.875H64.7344C64.3438 16.875 64.125 17.0781 64.125 17.4297C64.125 17.7891 64.3438 17.9922 64.7344 17.9922H65.4141V23.125ZM71.0547 21.3672C71.4375 21.3672 71.6641 21.1172 71.6719 20.7188L71.75 14.2891C71.75 13.8672 71.4453 13.5859 71.0547 13.5859C70.6641 13.5859 70.3594 13.8672 70.3594 14.2891L70.4375 20.7188C70.4453 21.1172 70.6719 21.3672 71.0547 21.3672ZM71.0547 25.0781C71.5625 25.0781 71.9453 24.6875 71.9453 24.1875C71.9453 23.6797 71.5625 23.2969 71.0547 23.2969C70.5547 23.2969 70.1641 23.6797 70.1641 24.1875C70.1641 24.6875 70.5547 25.0781 71.0547 25.0781ZM81.3672 25.1094C81.7969 25.1094 82.0703 24.8281 82.0703 24.3828V20.1484L85.7188 14.6875C85.8281 14.5234 85.8594 14.3906 85.8594 14.2344C85.8594 13.8828 85.5625 13.6172 85.1797 13.6172C84.8984 13.6172 84.7344 13.7188 84.5625 13.9766L81.3906 18.7891H81.3438L78.1719 13.9766C78 13.7188 77.8359 13.6172 77.5547 13.6172C77.1719 13.6172 76.875 13.8828 76.875 14.2344C76.875 14.3906 76.9062 14.5234 77.0156 14.6875L80.6641 20.1484V24.3828C80.6641 24.8281 80.9375 25.1094 81.3672 25.1094ZM89.0312 25.1406C91.2734 25.1406 92.7891 23.5234 92.7891 20.9375C92.7891 18.3438 91.2734 16.7344 89.0312 16.7344C86.7812 16.7344 85.2656 18.3438 85.2656 20.9375C85.2656 23.5234 86.7812 25.1406 89.0312 25.1406ZM89.0312 23.9453C87.5938 23.9453 86.6484 22.8516 86.6484 20.9375C86.6484 19.0234 87.5938 17.9297 89.0312 17.9297C90.4688 17.9297 91.4062 19.0234 91.4062 20.9375C91.4062 22.8516 90.4688 23.9453 89.0312 23.9453ZM96.9375 25.1406C98.1875 25.1406 99.0312 24.6172 99.5156 23.6797H99.5469V24.4531C99.5469 24.8438 99.8047 25.1406 100.195 25.1406C100.586 25.1406 100.836 24.8438 100.836 24.4531V17.4609C100.836 17.0312 100.555 16.7344 100.156 16.7344C99.7578 16.7344 99.4766 17.0312 99.4766 17.4609V21.6484C99.4766 23.0312 98.6797 23.9375 97.3594 23.9375C96.1016 23.9375 95.4844 23.2266 95.4844 21.9062V17.4609C95.4844 17.0312 95.2031 16.7344 94.8047 16.7344C94.4062 16.7344 94.125 17.0312 94.125 17.4609V22.1484C94.125 23.9922 95.1641 25.1406 96.9375 25.1406ZM107 25.1406C107.414 25.1406 107.68 24.8594 107.68 24.4219V17.9922H108.875C109.227 17.9922 109.453 17.7891 109.453 17.4375C109.453 17.1016 109.227 16.875 108.875 16.875H107.672V16.0156C107.672 15.1797 107.984 14.8203 108.703 14.8203C108.875 14.8203 109.008 14.8047 109.125 14.7734C109.375 14.7031 109.492 14.5469 109.492 14.2969C109.492 13.8984 109.109 13.6641 108.391 13.6641C107.062 13.6641 106.32 14.4141 106.32 15.9688V16.875H105.648C105.297 16.875 105.07 17.1016 105.07 17.4375C105.07 17.7891 105.297 17.9922 105.648 17.9922H106.32V24.4219C106.32 24.8594 106.586 25.1406 107 25.1406ZM113.719 25.1406C115.961 25.1406 117.477 23.5234 117.477 20.9375C117.477 18.3438 115.961 16.7344 113.719 16.7344C111.469 16.7344 109.953 18.3438 109.953 20.9375C109.953 23.5234 111.469 25.1406 113.719 25.1406ZM113.719 23.9453C112.281 23.9453 111.336 22.8516 111.336 20.9375C111.336 19.0234 112.281 17.9297 113.719 17.9297C115.156 17.9297 116.094 19.0234 116.094 20.9375C116.094 22.8516 115.156 23.9453 113.719 23.9453ZM121.625 25.1406C122.875 25.1406 123.719 24.6172 124.203 23.6797H124.234V24.4531C124.234 24.8438 124.492 25.1406 124.883 25.1406C125.273 25.1406 125.523 24.8438 125.523 24.4531V17.4609C125.523 17.0312 125.242 16.7344 124.844 16.7344C124.445 16.7344 124.164 17.0312 124.164 17.4609V21.6484C124.164 23.0312 123.367 23.9375 122.047 23.9375C120.789 23.9375 120.172 23.2266 120.172 21.9062V17.4609C120.172 17.0312 119.891 16.7344 119.492 16.7344C119.094 16.7344 118.812 17.0312 118.812 17.4609V22.1484C118.812 23.9922 119.852 25.1406 121.625 25.1406ZM127.969 25.1406C128.367 25.1406 128.648 24.8438 128.648 24.4141V20.2188C128.648 18.8438 129.484 17.9375 130.766 17.9375C132.016 17.9375 132.633 18.6562 132.633 19.9688V24.4141C132.633 24.8438 132.914 25.1406 133.312 25.1406C133.711 25.1406 133.992 24.8438 133.992 24.4141V19.7266C133.992 17.8828 132.961 16.7344 131.18 16.7344C129.922 16.7344 129.055 17.2969 128.602 18.1719H128.57V17.4219C128.57 17.0156 128.305 16.7344 127.93 16.7344C127.555 16.7344 127.289 17.0156 127.289 17.4219V24.4141C127.289 24.8438 127.57 25.1406 127.969 25.1406ZM138.805 25.1406C140.078 25.1406 140.922 24.5156 141.367 23.5469H141.391V24.4766C141.391 24.875 141.703 25.1406 142.086 25.1406C142.477 25.1406 142.75 24.8672 142.75 24.4766V14.3125C142.75 13.8828 142.469 13.5859 142.07 13.5859C141.672 13.5859 141.391 13.8828 141.391 14.3125V18.1953H141.359C140.875 17.3047 139.938 16.7344 138.773 16.7344C136.727 16.7344 135.328 18.3906 135.328 20.9375C135.328 23.4844 136.734 25.1406 138.805 25.1406ZM139.062 23.9453C137.625 23.9453 136.719 22.7812 136.719 20.9375C136.719 19.1016 137.625 17.9297 139.062 17.9297C140.461 17.9297 141.398 19.125 141.398 20.9375C141.398 22.7578 140.461 23.9453 139.062 23.9453ZM148.305 23.125C148.305 24.4219 148.961 25.0625 150.273 25.0625H150.359C151.117 25.0625 151.352 24.8438 151.352 24.4297C151.352 24.1094 151.148 23.9297 150.703 23.8984L150.586 23.8906C149.906 23.8438 149.664 23.5156 149.664 22.8281V17.9922H150.711C151.102 17.9922 151.32 17.7891 151.32 17.4297C151.32 17.0781 151.102 16.875 150.711 16.875H149.664V15.4844C149.664 15.0547 149.383 14.7578 148.984 14.7578C148.586 14.7578 148.305 15.0547 148.305 15.4844V16.875H147.625C147.234 16.875 147.016 17.0781 147.016 17.4297C147.016 17.7891 147.234 17.9922 147.625 17.9922H148.305V23.125ZM153.445 25.1406C153.844 25.1406 154.125 24.8438 154.125 24.4141V20.2656C154.125 18.8594 154.961 17.9375 156.312 17.9375C157.586 17.9375 158.234 18.7109 158.234 20V24.4141C158.234 24.8438 158.516 25.1406 158.914 25.1406C159.312 25.1406 159.594 24.8438 159.594 24.4141V19.75C159.594 17.9375 158.516 16.7344 156.734 16.7344C155.5 16.7344 154.609 17.2656 154.156 18.1719H154.125V14.2969C154.125 13.875 153.859 13.5859 153.445 13.5859C153.039 13.5859 152.766 13.875 152.766 14.2969V24.4141C152.766 24.8438 153.047 25.1406 153.445 25.1406ZM164.727 25.1406C166.211 25.1406 167.352 24.5156 167.875 23.4141C167.938 23.2656 167.977 23.125 167.977 23.0156C167.977 22.6562 167.734 22.4219 167.375 22.4219C167.164 22.4219 167.008 22.5 166.867 22.6953C166.234 23.6172 165.641 23.9609 164.672 23.9609C163.219 23.9609 162.32 22.9453 162.32 21.3047H167.398C167.867 21.3047 168.148 21.0078 168.148 20.5156C168.148 18.2891 166.688 16.7344 164.609 16.7344C162.367 16.7344 160.922 18.4062 160.922 20.9688C160.922 23.5938 162.328 25.1406 164.727 25.1406ZM162.328 20.2422C162.414 18.8438 163.32 17.9141 164.586 17.9141C165.844 17.9141 166.711 18.8359 166.742 20.2422H162.328ZM174.039 25H177.852C180.258 25 181.75 23.7578 181.75 21.7734C181.75 20.2812 180.625 19.1641 179.094 19.0469V18.9844C180.289 18.8047 181.211 17.7734 181.211 16.5391C181.211 14.8125 179.883 13.7266 177.766 13.7266H174.039C173.297 13.7266 172.859 14.1797 172.859 14.9531V23.7656C172.859 24.5469 173.297 25 174.039 25ZM175.219 18.4141V15.4844H177.156C178.258 15.4844 178.891 16 178.891 16.9062C178.891 17.8594 178.172 18.4141 176.914 18.4141H175.219ZM175.219 23.2422V19.9688H177.195C178.586 19.9688 179.344 20.5312 179.344 21.5859C179.344 22.6641 178.609 23.2422 177.25 23.2422H175.219ZM188.18 25.1875C191.516 25.1875 193.617 22.9531 193.617 19.3672C193.617 15.7734 191.516 13.5312 188.18 13.5312C184.836 13.5312 182.742 15.7734 182.742 19.3672C182.742 22.9531 184.836 25.1875 188.18 25.1875ZM188.18 23.2188C186.328 23.2188 185.148 21.7266 185.148 19.3672C185.148 17 186.336 15.5 188.18 15.5C190.023 15.5 191.203 17 191.203 19.3672C191.203 21.7266 190.023 23.2188 188.18 23.2188ZM198.391 25.1484C199.133 25.1484 199.57 24.6953 199.57 23.9219V15.6797H201.906C202.539 15.6797 202.969 15.3125 202.969 14.7031C202.969 14.0938 202.547 13.7266 201.906 13.7266H194.883C194.234 13.7266 193.812 14.0938 193.812 14.7031C193.812 15.3125 194.242 15.6797 194.883 15.6797H197.211V23.9219C197.211 24.6953 197.648 25.1484 198.391 25.1484ZM208.016 25.1484C208.758 25.1484 209.195 24.6953 209.195 23.9219V15.6797H211.531C212.164 15.6797 212.594 15.3125 212.594 14.7031C212.594 14.0938 212.172 13.7266 211.531 13.7266H204.508C203.859 13.7266 203.438 14.0938 203.438 14.7031C203.438 15.3125 203.867 15.6797 204.508 15.6797H206.836V23.9219C206.836 24.6953 207.273 25.1484 208.016 25.1484ZM214.945 25H220.125C220.773 25 221.195 24.6328 221.195 24.0234C221.195 23.4141 220.766 23.0469 220.125 23.0469H216.125V14.8047C216.125 14.0234 215.688 13.5703 214.945 13.5703C214.203 13.5703 213.766 14.0234 213.766 14.8047V23.7656C213.766 24.5469 214.203 25 214.945 25ZM223.633 25H228.992C229.641 25 230.062 24.6328 230.062 24.0234C230.062 23.4141 229.633 23.0469 228.992 23.0469H224.812V20.2031H228.789C229.383 20.2031 229.773 19.8594 229.773 19.2969C229.773 18.7344 229.375 18.3906 228.789 18.3906H224.812V15.6797H228.992C229.633 15.6797 230.062 15.3125 230.062 14.7031C230.062 14.0938 229.641 13.7266 228.992 13.7266H223.633C222.891 13.7266 222.453 14.1797 222.453 14.9531V23.7656C222.453 24.5469 222.891 25 223.633 25ZM232.82 21.3672C233.203 21.3672 233.43 21.1172 233.438 20.7188L233.516 14.2891C233.516 13.8672 233.211 13.5859 232.82 13.5859C232.43 13.5859 232.125 13.8672 232.125 14.2891L232.203 20.7188C232.211 21.1172 232.438 21.3672 232.82 21.3672ZM232.82 25.0781C233.328 25.0781 233.711 24.6875 233.711 24.1875C233.711 23.6797 233.328 23.2969 232.82 23.2969C232.32 23.2969 231.93 23.6797 231.93 24.1875C231.93 24.6875 232.32 25.0781 232.82 25.0781ZM33.7891 44.1094C34.2188 44.1094 34.4844 43.8281 34.4844 43.3828V35.1797H34.5547L40.4844 43.6484C40.7344 44.0078 40.9141 44.1094 41.2969 44.1094C41.7969 44.1094 42.0938 43.8203 42.0938 43.3438V33.3438C42.0938 32.8984 41.8281 32.6172 41.3984 32.6172C40.9688 32.6172 40.7031 32.8984 40.7031 33.3438V41.5781H40.6328L34.7109 33.0859C34.4609 32.7266 34.2734 32.6172 33.8984 32.6172C33.4141 32.6172 33.0938 32.9453 33.0938 33.4375V43.3828C33.0938 43.8281 33.3594 44.1094 33.7891 44.1094ZM47.4375 44.1406C49.6797 44.1406 51.1953 42.5234 51.1953 39.9375C51.1953 37.3438 49.6797 35.7344 47.4375 35.7344C45.1875 35.7344 43.6719 37.3438 43.6719 39.9375C43.6719 42.5234 45.1875 44.1406 47.4375 44.1406ZM47.4375 42.9453C46 42.9453 45.0547 41.8516 45.0547 39.9375C45.0547 38.0234 46 36.9297 47.4375 36.9297C48.875 36.9297 49.8125 38.0234 49.8125 39.9375C49.8125 41.8516 48.875 42.9453 47.4375 42.9453ZM54.8594 44.1406C55.2891 44.1406 55.5859 43.9141 55.7109 43.4844L57.3906 37.7109H57.4219L59.1094 43.4844C59.2422 43.9453 59.5 44.1406 59.9531 44.1406C60.375 44.1406 60.6562 43.9219 60.7812 43.4844L62.7656 36.6719C62.8047 36.5391 62.8203 36.4219 62.8203 36.3203C62.8203 35.9609 62.5625 35.7344 62.1562 35.7344C61.8203 35.7344 61.6406 35.8906 61.5391 36.2891L59.9375 42.4844H59.9062L58.1875 36.3359C58.0781 35.9375 57.8203 35.7344 57.4141 35.7344C57 35.7344 56.7266 35.9453 56.6172 36.3438L54.9141 42.4844H54.8828L53.2812 36.2891C53.1797 35.8906 53 35.7344 52.6641 35.7344C52.2578 35.7344 52 35.9609 52 36.3203C52 36.4219 52.0156 36.5391 52.0547 36.6719L54.0391 43.4844C54.1719 43.9375 54.4297 44.1406 54.8594 44.1406ZM64.2109 42.1875C63.8438 42.1875 63.625 42.3516 63.5391 42.7812L62.9844 45.6797C62.9766 45.7266 62.9609 45.8047 62.9609 45.9219C62.9609 46.2344 63.2031 46.4141 63.5156 46.4141C63.8438 46.4141 64.0234 46.2578 64.1094 45.9219L64.8281 43.2344C64.875 43.0625 64.8906 42.9453 64.8906 42.8047C64.8906 42.4219 64.6094 42.1875 64.2109 42.1875ZM70.4453 47.0391C71.7891 47.0391 72.4531 46.4375 73.1562 44.5703L76.1562 36.7188C76.2031 36.5859 76.2266 36.4609 76.2266 36.3594C76.2266 35.9922 75.9531 35.7344 75.5625 35.7344C75.2266 35.7344 75.0469 35.875 74.9219 36.2344L72.6719 42.6406H72.6484L70.4062 36.2344C70.2812 35.875 70.0781 35.7344 69.7578 35.7344C69.3672 35.7344 69.0781 35.9844 69.0781 36.3594C69.0781 36.4609 69.1016 36.5859 69.1484 36.7188L71.9453 44.0078L71.7578 44.5781C71.4375 45.5625 70.9453 45.875 70.4297 45.875C70.2188 45.875 70.1641 45.8672 69.9688 45.8672C69.625 45.8672 69.4219 46.0703 69.4219 46.3672C69.4219 46.7969 69.7891 47.0391 70.4453 47.0391ZM80.5625 44.1406C82.8047 44.1406 84.3203 42.5234 84.3203 39.9375C84.3203 37.3438 82.8047 35.7344 80.5625 35.7344C78.3125 35.7344 76.7969 37.3438 76.7969 39.9375C76.7969 42.5234 78.3125 44.1406 80.5625 44.1406ZM80.5625 42.9453C79.125 42.9453 78.1797 41.8516 78.1797 39.9375C78.1797 38.0234 79.125 36.9297 80.5625 36.9297C82 36.9297 82.9375 38.0234 82.9375 39.9375C82.9375 41.8516 82 42.9453 80.5625 42.9453ZM88.4688 44.1406C89.7188 44.1406 90.5625 43.6172 91.0469 42.6797H91.0781V43.4531C91.0781 43.8438 91.3359 44.1406 91.7266 44.1406C92.1172 44.1406 92.3672 43.8438 92.3672 43.4531V36.4609C92.3672 36.0312 92.0859 35.7344 91.6875 35.7344C91.2891 35.7344 91.0078 36.0312 91.0078 36.4609V40.6484C91.0078 42.0312 90.2109 42.9375 88.8906 42.9375C87.6328 42.9375 87.0156 42.2266 87.0156 40.9062V36.4609C87.0156 36.0312 86.7344 35.7344 86.3359 35.7344C85.9375 35.7344 85.6562 36.0312 85.6562 36.4609V41.1484C85.6562 42.9922 86.6953 44.1406 88.4688 44.1406ZM94.8984 36.8125C95.2266 36.8125 95.4062 36.6562 95.4922 36.3203L96.2109 33.6328C96.2578 33.4609 96.2734 33.3438 96.2734 33.2031C96.2734 32.8203 95.9922 32.5859 95.5938 32.5859C95.2266 32.5859 95.0078 32.75 94.9219 33.1797L94.3672 36.0781C94.3594 36.125 94.3438 36.2031 94.3438 36.3203C94.3438 36.6328 94.5859 36.8125 94.8984 36.8125ZM98.4688 44.1406C98.8672 44.1406 99.1484 43.8438 99.1484 43.4141V38.9531C99.1484 37.9141 99.6719 37.0312 100.898 37.0312C101.195 37.0312 101.406 36.9766 101.547 36.8594C101.688 36.75 101.758 36.5938 101.758 36.3828C101.758 36.1953 101.703 36.0391 101.586 35.9297C101.453 35.8047 101.242 35.7344 100.945 35.7344C100.133 35.7344 99.3359 36.3594 99.1016 37.2031H99.0703V36.4219C99.0703 36.0156 98.8047 35.7344 98.4297 35.7344C98.0547 35.7344 97.7891 36.0156 97.7891 36.4219V43.4141C97.7891 43.8438 98.0703 44.1406 98.4688 44.1406ZM105.742 44.1406C107.227 44.1406 108.367 43.5156 108.891 42.4141C108.953 42.2656 108.992 42.125 108.992 42.0156C108.992 41.6562 108.75 41.4219 108.391 41.4219C108.18 41.4219 108.023 41.5 107.883 41.6953C107.25 42.6172 106.656 42.9609 105.688 42.9609C104.234 42.9609 103.336 41.9453 103.336 40.3047H108.414C108.883 40.3047 109.164 40.0078 109.164 39.5156C109.164 37.2891 107.703 35.7344 105.625 35.7344C103.383 35.7344 101.938 37.4062 101.938 39.9688C101.938 42.5938 103.344 44.1406 105.742 44.1406ZM103.344 39.2422C103.43 37.8438 104.336 36.9141 105.602 36.9141C106.859 36.9141 107.727 37.8359 107.758 39.2422H103.344ZM114.5 44.1406C114.898 44.1406 115.18 43.8438 115.18 43.4141V38.9531C115.18 37.9141 115.703 37.0312 116.93 37.0312C117.227 37.0312 117.438 36.9766 117.578 36.8594C117.719 36.75 117.789 36.5938 117.789 36.3828C117.789 36.1953 117.734 36.0391 117.617 35.9297C117.484 35.8047 117.273 35.7344 116.977 35.7344C116.164 35.7344 115.367 36.3594 115.133 37.2031H115.102V36.4219C115.102 36.0156 114.836 35.7344 114.461 35.7344C114.086 35.7344 113.82 36.0156 113.82 36.4219V43.4141C113.82 43.8438 114.102 44.1406 114.5 44.1406ZM121.773 44.1406C123.258 44.1406 124.398 43.5156 124.922 42.4141C124.984 42.2656 125.023 42.125 125.023 42.0156C125.023 41.6562 124.781 41.4219 124.422 41.4219C124.211 41.4219 124.055 41.5 123.914 41.6953C123.281 42.6172 122.688 42.9609 121.719 42.9609C120.266 42.9609 119.367 41.9453 119.367 40.3047H124.445C124.914 40.3047 125.195 40.0078 125.195 39.5156C125.195 37.2891 123.734 35.7344 121.656 35.7344C119.414 35.7344 117.969 37.4062 117.969 39.9688C117.969 42.5938 119.375 44.1406 121.773 44.1406ZM119.375 39.2422C119.461 37.8438 120.367 36.9141 121.633 36.9141C122.891 36.9141 123.758 37.8359 123.789 39.2422H119.375ZM128.938 44.1406C130.031 44.1406 131.07 43.5312 131.555 42.6016H131.586V43.4531C131.586 43.8594 131.852 44.1406 132.234 44.1406C132.609 44.1406 132.875 43.8594 132.875 43.4531V38.3828C132.875 36.7656 131.672 35.7344 129.766 35.7344C128.445 35.7344 127.258 36.3203 126.797 37.2109C126.688 37.4062 126.633 37.6016 126.633 37.7734C126.633 38.1406 126.883 38.3828 127.234 38.3828C127.492 38.3828 127.672 38.2812 127.797 38.0547C128.25 37.25 128.852 36.9297 129.734 36.9297C130.859 36.9297 131.516 37.5234 131.516 38.5156V39.1953L129.18 39.3281C127.305 39.4375 126.234 40.3125 126.234 41.7031C126.234 43.1641 127.32 44.1406 128.938 44.1406ZM129.242 42.9844C128.266 42.9844 127.617 42.4766 127.617 41.7031C127.617 40.9375 128.242 40.4531 129.336 40.3828L131.516 40.25V40.9141C131.516 42.0859 130.523 42.9844 129.242 42.9844ZM137.68 44.1406C138.953 44.1406 139.797 43.5156 140.242 42.5469H140.266V43.4766C140.266 43.875 140.578 44.1406 140.961 44.1406C141.352 44.1406 141.625 43.8672 141.625 43.4766V33.3125C141.625 32.8828 141.344 32.5859 140.945 32.5859C140.547 32.5859 140.266 32.8828 140.266 33.3125V37.1953H140.234C139.75 36.3047 138.812 35.7344 137.648 35.7344C135.602 35.7344 134.203 37.3906 134.203 39.9375C134.203 42.4844 135.609 44.1406 137.68 44.1406ZM137.938 42.9453C136.5 42.9453 135.594 41.7812 135.594 39.9375C135.594 38.1016 136.5 36.9297 137.938 36.9297C139.336 36.9297 140.273 38.125 140.273 39.9375C140.273 41.7578 139.336 42.9453 137.938 42.9453ZM144.258 47.0391C145.602 47.0391 146.266 46.4375 146.969 44.5703L149.969 36.7188C150.016 36.5859 150.039 36.4609 150.039 36.3594C150.039 35.9922 149.766 35.7344 149.375 35.7344C149.039 35.7344 148.859 35.875 148.734 36.2344L146.484 42.6406H146.461L144.219 36.2344C144.094 35.875 143.891 35.7344 143.57 35.7344C143.18 35.7344 142.891 35.9844 142.891 36.3594C142.891 36.4609 142.914 36.5859 142.961 36.7188L145.758 44.0078L145.57 44.5781C145.25 45.5625 144.758 45.875 144.242 45.875C144.031 45.875 143.977 45.8672 143.781 45.8672C143.438 45.8672 143.234 46.0703 143.234 46.3672C143.234 46.7969 143.602 47.0391 144.258 47.0391ZM154.961 42.125C154.961 43.4219 155.617 44.0625 156.93 44.0625H157.016C157.773 44.0625 158.008 43.8438 158.008 43.4297C158.008 43.1094 157.805 42.9297 157.359 42.8984L157.242 42.8906C156.562 42.8438 156.32 42.5156 156.32 41.8281V36.9922H157.367C157.758 36.9922 157.977 36.7891 157.977 36.4297C157.977 36.0781 157.758 35.875 157.367 35.875H156.32V34.4844C156.32 34.0547 156.039 33.7578 155.641 33.7578C155.242 33.7578 154.961 34.0547 154.961 34.4844V35.875H154.281C153.891 35.875 153.672 36.0781 153.672 36.4297C153.672 36.7891 153.891 36.9922 154.281 36.9922H154.961V42.125ZM162.484 44.1406C164.727 44.1406 166.242 42.5234 166.242 39.9375C166.242 37.3438 164.727 35.7344 162.484 35.7344C160.234 35.7344 158.719 37.3438 158.719 39.9375C158.719 42.5234 160.234 44.1406 162.484 44.1406ZM162.484 42.9453C161.047 42.9453 160.102 41.8516 160.102 39.9375C160.102 38.0234 161.047 36.9297 162.484 36.9297C163.922 36.9297 164.859 38.0234 164.859 39.9375C164.859 41.8516 163.922 42.9453 162.484 42.9453ZM174.305 44.1406C175.789 44.1406 176.93 43.5156 177.453 42.4141C177.516 42.2656 177.555 42.125 177.555 42.0156C177.555 41.6562 177.312 41.4219 176.953 41.4219C176.742 41.4219 176.586 41.5 176.445 41.6953C175.812 42.6172 175.219 42.9609 174.25 42.9609C172.797 42.9609 171.898 41.9453 171.898 40.3047H176.977C177.445 40.3047 177.727 40.0078 177.727 39.5156C177.727 37.2891 176.266 35.7344 174.188 35.7344C171.945 35.7344 170.5 37.4062 170.5 39.9688C170.5 42.5938 171.906 44.1406 174.305 44.1406ZM171.906 39.2422C171.992 37.8438 172.898 36.9141 174.164 36.9141C175.422 36.9141 176.289 37.8359 176.32 39.2422H171.906ZM179.25 44.1406C179.469 44.1406 179.633 44.0547 179.758 43.875L181.789 40.9062H181.82L183.836 43.875C183.953 44.0547 184.133 44.1406 184.352 44.1406C184.719 44.1406 185 43.8828 185 43.5469C185 43.4141 184.953 43.2812 184.859 43.1406L182.57 39.8828L184.891 36.7109C184.977 36.5938 185.023 36.4531 185.023 36.3125C185.023 35.9844 184.734 35.7344 184.352 35.7344C184.133 35.7344 183.984 35.8281 183.828 36.0547L181.867 38.9219H181.836L179.828 36.0234C179.68 35.8125 179.547 35.7344 179.312 35.7344C178.938 35.7344 178.648 35.9844 178.648 36.3125C178.648 36.4609 178.695 36.5938 178.789 36.7266L181.086 39.9375L178.742 43.1641C178.656 43.2891 178.609 43.4219 178.609 43.5547C178.609 43.8906 178.883 44.1406 179.25 44.1406ZM187.141 46.8672C187.539 46.8672 187.82 46.5703 187.82 46.1406V42.6797H187.852C188.336 43.5703 189.273 44.1406 190.438 44.1406C192.484 44.1406 193.883 42.4844 193.883 39.9375C193.883 37.3906 192.477 35.7344 190.406 35.7344C189.227 35.7344 188.281 36.3359 187.781 37.25H187.75V36.4219C187.75 36.0156 187.484 35.7344 187.109 35.7344C186.727 35.7344 186.461 36.0156 186.461 36.4219V46.1406C186.461 46.5703 186.742 46.8672 187.141 46.8672ZM190.141 42.9453C188.75 42.9453 187.812 41.75 187.812 39.9375C187.812 38.1328 188.75 36.9297 190.141 36.9297C191.586 36.9297 192.492 38.1016 192.492 39.9375C192.492 41.7812 191.586 42.9453 190.141 42.9453ZM196.008 44.1406C196.406 44.1406 196.688 43.8438 196.688 43.4141V33.3125C196.688 32.8828 196.406 32.5859 196.008 32.5859C195.609 32.5859 195.328 32.8828 195.328 33.3125V43.4141C195.328 43.8438 195.609 44.1406 196.008 44.1406ZM201.891 44.1406C204.133 44.1406 205.648 42.5234 205.648 39.9375C205.648 37.3438 204.133 35.7344 201.891 35.7344C199.641 35.7344 198.125 37.3438 198.125 39.9375C198.125 42.5234 199.641 44.1406 201.891 44.1406ZM201.891 42.9453C200.453 42.9453 199.508 41.8516 199.508 39.9375C199.508 38.0234 200.453 36.9297 201.891 36.9297C203.328 36.9297 204.266 38.0234 204.266 39.9375C204.266 41.8516 203.328 42.9453 201.891 42.9453ZM207.703 44.1406C208.102 44.1406 208.383 43.8438 208.383 43.4141V38.9531C208.383 37.9141 208.906 37.0312 210.133 37.0312C210.43 37.0312 210.641 36.9766 210.781 36.8594C210.922 36.75 210.992 36.5938 210.992 36.3828C210.992 36.1953 210.938 36.0391 210.82 35.9297C210.688 35.8047 210.477 35.7344 210.18 35.7344C209.367 35.7344 208.57 36.3594 208.336 37.2031H208.305V36.4219C208.305 36.0156 208.039 35.7344 207.664 35.7344C207.289 35.7344 207.023 36.0156 207.023 36.4219V43.4141C207.023 43.8438 207.305 44.1406 207.703 44.1406ZM214.977 44.1406C216.461 44.1406 217.602 43.5156 218.125 42.4141C218.188 42.2656 218.227 42.125 218.227 42.0156C218.227 41.6562 217.984 41.4219 217.625 41.4219C217.414 41.4219 217.258 41.5 217.117 41.6953C216.484 42.6172 215.891 42.9609 214.922 42.9609C213.469 42.9609 212.57 41.9453 212.57 40.3047H217.648C218.117 40.3047 218.398 40.0078 218.398 39.5156C218.398 37.2891 216.938 35.7344 214.859 35.7344C212.617 35.7344 211.172 37.4062 211.172 39.9688C211.172 42.5938 212.578 44.1406 214.977 44.1406ZM212.578 39.2422C212.664 37.8438 213.57 36.9141 214.836 36.9141C216.094 36.9141 216.961 37.8359 216.992 39.2422H212.578ZM220.922 44.0781C221.422 44.0781 221.812 43.6875 221.812 43.1875C221.812 42.6875 221.422 42.2969 220.922 42.2969C220.422 42.2969 220.031 42.6875 220.031 43.1875C220.031 43.6875 220.422 44.0781 220.922 44.0781ZM227.25 44H232.836C233.234 44 233.508 43.7422 233.508 43.3672C233.508 42.9922 233.234 42.7344 232.836 42.7344H227.953V33.3438C227.953 32.8984 227.68 32.6172 227.25 32.6172C226.82 32.6172 226.547 32.8984 226.547 33.3438V43.2734C226.547 43.7188 226.82 44 227.25 44ZM237.898 44.1406C239.383 44.1406 240.523 43.5156 241.047 42.4141C241.109 42.2656 241.148 42.125 241.148 42.0156C241.148 41.6562 240.906 41.4219 240.547 41.4219C240.336 41.4219 240.18 41.5 240.039 41.6953C239.406 42.6172 238.812 42.9609 237.844 42.9609C236.391 42.9609 235.492 41.9453 235.492 40.3047H240.57C241.039 40.3047 241.32 40.0078 241.32 39.5156C241.32 37.2891 239.859 35.7344 237.781 35.7344C235.539 35.7344 234.094 37.4062 234.094 39.9688C234.094 42.5938 235.5 44.1406 237.898 44.1406ZM235.5 39.2422C235.586 37.8438 236.492 36.9141 237.758 36.9141C239.016 36.9141 239.883 37.8359 239.914 39.2422H235.5ZM243.133 42.125C243.133 43.4219 243.789 44.0625 245.102 44.0625H245.188C245.945 44.0625 246.18 43.8438 246.18 43.4297C246.18 43.1094 245.977 42.9297 245.531 42.8984L245.414 42.8906C244.734 42.8438 244.492 42.5156 244.492 41.8281V36.9922H245.539C245.93 36.9922 246.148 36.7891 246.148 36.4297C246.148 36.0781 245.93 35.875 245.539 35.875H244.492V34.4844C244.492 34.0547 244.211 33.7578 243.812 33.7578C243.414 33.7578 243.133 34.0547 243.133 34.4844V35.875H242.453C242.062 35.875 241.844 36.0781 241.844 36.4297C241.844 36.7891 242.062 36.9922 242.453 36.9922H243.133V42.125ZM248.055 36.8125C248.383 36.8125 248.562 36.6562 248.648 36.3203L249.367 33.6328C249.414 33.4609 249.43 33.3438 249.43 33.2031C249.43 32.8203 249.148 32.5859 248.75 32.5859C248.383 32.5859 248.164 32.75 248.078 33.1797L247.523 36.0781C247.516 36.125 247.5 36.2031 247.5 36.3203C247.5 36.6328 247.742 36.8125 248.055 36.8125ZM253.141 44.1406C255.07 44.1406 256.375 43.1641 256.375 41.7109C256.375 40.5156 255.75 39.9219 254.055 39.5078L252.844 39.2109C251.953 38.9922 251.516 38.6016 251.516 38.0391C251.516 37.3438 252.195 36.8516 253.172 36.8516C254 36.8516 254.523 37.1484 254.875 37.8281C255.023 38.1094 255.211 38.1953 255.477 38.1953C255.805 38.1953 256.008 37.9844 256.008 37.6641C256.008 37.6016 256 37.5391 255.984 37.4609C255.773 36.4844 254.586 35.7344 253.25 35.7344C251.414 35.7344 250.172 36.6953 250.172 38.1094C250.172 39.25 250.93 39.9922 252.5 40.3828L253.742 40.6953C254.656 40.9219 254.992 41.2344 254.992 41.8203C254.992 42.5781 254.289 43.0312 253.25 43.0312C252.211 43.0312 251.727 42.7109 251.32 42C251.164 41.7188 250.969 41.5938 250.727 41.5938C250.375 41.5938 250.109 41.7969 250.109 42.1562C250.109 42.2578 250.125 42.3594 250.172 42.4766C250.562 43.4922 251.695 44.1406 253.141 44.1406ZM264.336 47.0625C266.648 47.0859 268.086 45.7734 268.086 43.8359V36.4375C268.086 36.0156 267.797 35.7344 267.406 35.7344C267.016 35.7344 266.727 36.0156 266.727 36.4375V37.2109H266.703C266.164 36.2969 265.266 35.7344 264.117 35.7344C262.016 35.7344 260.656 37.3594 260.656 39.9062C260.656 42.4297 262.016 44.0625 264.086 44.0625C265.227 44.0625 266.195 43.4844 266.695 42.6016H266.727V43.8828C266.727 45.0938 265.844 45.9297 264.391 45.9062C263.562 45.8906 262.992 45.5938 262.297 44.8281C262.086 44.5938 261.953 44.5156 261.727 44.5156C261.367 44.5156 261.117 44.7578 261.117 45.1016C261.117 45.2812 261.164 45.4375 261.273 45.6094C261.844 46.5078 262.977 47.0469 264.336 47.0625ZM264.359 42.8672C262.961 42.8672 262.047 41.7266 262.047 39.9062C262.047 38.0859 262.961 36.9297 264.359 36.9297C265.773 36.9297 266.727 38.1172 266.727 39.9062C266.727 41.6953 265.773 42.8672 264.359 42.8672ZM273.219 44.1406C275.461 44.1406 276.977 42.5234 276.977 39.9375C276.977 37.3438 275.461 35.7344 273.219 35.7344C270.969 35.7344 269.453 37.3438 269.453 39.9375C269.453 42.5234 270.969 44.1406 273.219 44.1406ZM273.219 42.9453C271.781 42.9453 270.836 41.8516 270.836 39.9375C270.836 38.0234 271.781 36.9297 273.219 36.9297C274.656 36.9297 275.594 38.0234 275.594 39.9375C275.594 41.8516 274.656 42.9453 273.219 42.9453ZM279.602 40.3672C279.984 40.3672 280.211 40.1172 280.219 39.7188L280.297 33.2891C280.297 32.8672 279.992 32.5859 279.602 32.5859C279.211 32.5859 278.906 32.8672 278.906 33.2891L278.984 39.7188C278.992 40.1172 279.219 40.3672 279.602 40.3672ZM279.602 44.0781C280.109 44.0781 280.492 43.6875 280.492 43.1875C280.492 42.6797 280.109 42.2969 279.602 42.2969C279.102 42.2969 278.711 42.6797 278.711 43.1875C278.711 43.6875 279.102 44.0781 279.602 44.0781Z" fill="black"/>
<path d="M315 32L326.258 51.5H303.742L315 32Z" fill="white"/>
<path d="M331 47.3333C331 26.1624 348.162 9 369.333 9V9C390.504 9 407.667 26.1624 407.667 47.3333V92.3333C407.667 101.538 400.205 109 391 109H347.667C338.462 109 331 101.538 331 92.3333V47.3333Z" fill="#74E903"/>
<rect x="351" y="37" width="7.80347" height="16.474" rx="3.90173" fill="black"/>
<rect x="368.341" y="37" width="7.80347" height="16.474" rx="3.90173" fill="black"/>
<path d="M372.676 80.3519C376.289 81.2189 384.121 80.9588 386.549 72.9819" stroke="black" stroke-width="2" stroke-linecap="round"/>
</svg>
