<svg width="107" height="95" viewBox="0 0 107 95" fill="none" xmlns="http://www.w3.org/2000/svg">
<rect x="1.82812" y="1.98438" width="103.343" height="91" rx="14.5" fill="white" stroke="#ADC6F7" stroke-width="3"/>
<path d="M54.044 33.5613C54.044 33.5613 52.4451 25.4453 53.7103 23.5591C54.9754 21.6735 57.1521 22.6174 56.7885 23.7436C56.4249 24.8697 56.0214 32.8506 55.867 34.2603C55.7176 35.6706 54.044 33.5613 54.044 33.5613Z" fill="#B3632E"/>
<path d="M54.4777 32.7588C33.2889 31.6876 30.4099 62.0961 42.2645 69.119C54.119 76.1409 69.3706 72.1403 71.2136 57.4369C73.0515 42.7329 66.6212 33.372 54.4777 32.7588Z" fill="#F7A40E"/>
<path d="M54.9058 26.9956C54.9058 26.9956 61.7794 22.208 65.281 29.9754C65.281 29.9754 58.5119 35.9339 54.9058 26.9956Z" fill="#92D33E"/>
<path d="M63.3536 28.5589C62.9601 28.2658 62.4819 28.5096 62.0586 28.6553C61.69 28.467 61.2765 28.3431 60.8681 28.2422C61.0375 28.1862 61.2019 28.1228 61.3712 28.0786C61.8842 27.9457 61.6601 27.0057 61.1819 27.2008C60.6839 27.4042 60.2156 27.6626 59.7574 27.9552C59.4087 27.8594 59.0651 27.7607 58.7164 27.68C58.6965 27.6497 58.6815 27.6178 58.6666 27.587C58.552 27.3835 58.3229 27.4334 58.2233 27.5802C57.9294 27.5259 57.6355 27.4799 57.3416 27.4558C57.1025 27.4367 56.988 27.8364 57.2071 27.9614C57.6504 28.2187 58.1137 28.4261 58.5819 28.6122C58.6566 28.768 58.7413 28.9188 58.811 29.0786C58.9704 29.439 59.065 29.9261 59.344 30.18C59.4834 30.3044 59.6727 30.2355 59.6926 30.0287C59.7325 29.6296 59.5034 29.2434 59.339 28.8941C59.5283 28.9625 59.7225 29.0298 59.9168 29.097C60.2704 29.222 60.6639 29.3891 61.0574 29.5208C61.167 29.7775 61.2467 30.0421 61.2915 30.3235C61.3313 30.5791 61.3064 30.7843 61.4907 30.9636C61.6053 31.0763 61.7398 31.0511 61.8295 30.9216C62.0486 30.6144 61.8793 30.0987 61.685 29.6834C61.9639 29.7327 62.2429 29.7467 62.5069 29.685C62.6015 29.6632 62.6662 29.5836 62.7111 29.4911C63.0099 29.4205 63.2988 29.3033 63.4483 28.9961C63.528 28.8414 63.4881 28.657 63.3536 28.5589Z" fill="#C5E56B"/>
<path d="M40.6608 60.2697C40.4118 59.6032 40.0232 59.0264 39.7941 58.3442C39.565 57.6665 39.4953 56.9642 39.3309 56.2663C39.1267 55.365 37.9263 55.2904 37.6922 56.2181C37.2289 58.0746 37.9064 60.5892 39.306 61.7315C40.1777 62.4434 40.9846 61.1609 40.6608 60.2697Z" fill="#F58114"/>
<path d="M42.603 58.8264C42.1298 58.8107 41.7164 59.2474 41.7014 59.7816C41.6815 60.4766 41.7911 61.2232 42.1946 61.7709C42.603 62.3337 43.5892 61.9318 43.5444 61.184C43.5145 60.7115 43.395 60.3208 43.4498 59.8415C43.5096 59.3135 43.0413 58.8415 42.603 58.8264Z" fill="#F58114"/>
<path d="M47.7834 65.3472C47.2953 65.1079 46.7573 65.0221 46.2692 64.7805C45.7661 64.5344 45.2829 64.2643 44.8297 63.9251C44.1672 63.4352 43.3852 64.5204 43.958 65.1449C44.8645 66.132 46.2044 67.1628 47.5244 67.1443C48.5006 67.132 48.6003 65.753 47.7834 65.3472Z" fill="#F58114"/>
<path d="M50.8816 63.7944C50.3487 63.6133 49.746 63.8667 49.218 63.9951C47.9479 64.305 48.436 66.5859 49.6912 66.2041C50.2192 66.0444 50.8517 65.9592 51.2552 65.5236C51.7483 64.9844 51.5391 64.0175 50.8816 63.7944Z" fill="#F58114"/>
<path d="M53.7898 65.7361C53.2071 65.5202 52.6442 65.7943 52.0764 65.967C51.0204 66.2865 51.404 68.083 52.4749 67.8218C53.0477 67.6811 53.6653 67.6318 54.0937 67.1396C54.4921 66.6856 54.3278 65.9345 53.7898 65.7361Z" fill="#F58114"/>
<path d="M60.121 66.2937C59.1298 66.7124 58.1984 67.2774 57.3018 67.9142C56.4352 68.5313 57.1474 69.8766 58.0589 69.4517C58.8908 69.0655 59.7425 68.8094 60.6042 68.5319C61.8942 68.1171 61.3314 65.7842 60.121 66.2937Z" fill="#F58114"/>
<path d="M63.264 63.797C62.8257 63.8334 62.477 64.006 62.0785 64.1972C61.6203 64.4197 61.4958 65.1624 61.7199 65.6198C61.9839 66.1557 62.5168 66.2487 62.9801 66.0256C63.3038 65.8709 63.5728 65.7409 63.8417 65.4718C64.3548 64.9449 64.0211 63.7331 63.264 63.797Z" fill="#F58114"/>
<path d="M61.3164 36.4267C60.913 36.2977 60.5494 36.2647 60.136 36.2714C59.334 36.2837 59.2443 37.4216 59.9217 37.7551C60.3103 37.944 60.654 38.055 61.0724 38.1116C61.944 38.2305 62.1333 36.6884 61.3164 36.4267Z" fill="#FACC08"/>
<path d="M65.3412 37.8251C64.9726 37.5141 64.4994 37.3442 64.0361 37.3666C63.0848 37.4132 63.0399 38.9328 63.9913 39.0337C64.4695 39.0836 64.4495 39.7018 64.9128 39.9944C65.366 40.2814 65.8442 40.0264 66.0285 39.5112C66.2726 38.8408 65.7894 38.2007 65.3412 37.8251Z" fill="#FACC08"/>
<path d="M67.3334 42.5286C67.0793 42.1014 66.7855 41.7528 66.387 41.4876C66.0035 41.227 65.4755 41.3654 65.2414 41.801C64.9923 42.2634 65.1517 42.7937 65.5203 43.0919C65.6498 43.1995 65.7295 43.3256 65.8042 43.4843C66.0333 43.9495 66.5812 44.1233 66.9946 43.8665C67.3782 43.625 67.5974 42.9714 67.3334 42.5286Z" fill="#FACC08"/>
<path d="M69.1412 43.1983C68.937 42.7347 68.3692 42.5862 67.9856 42.8272C67.5423 43.1052 67.4876 43.6439 67.6569 44.126C67.7466 44.39 67.8213 44.6888 67.9657 44.9197C68.2098 45.3059 68.5983 45.5296 69.0167 45.3367C69.4102 45.1557 69.6243 44.7044 69.5347 44.2291C69.465 43.867 69.2857 43.529 69.1412 43.1983Z" fill="#FACC08"/>
<path d="M68.4393 48.546C67.7321 48.0387 66.98 49.1373 67.5378 49.8122C67.6374 49.9355 67.7121 50.1295 67.7271 50.1973C67.7918 50.6138 67.7769 50.9372 68.0708 51.2634C68.28 51.4938 68.6884 51.625 68.9524 51.4114C69.9536 50.6003 69.2761 49.1497 68.4393 48.546Z" fill="#FACC08"/>
</svg>
