<svg width="107" height="95" viewBox="0 0 107 95" fill="none" xmlns="http://www.w3.org/2000/svg">
<rect x="1.82812" y="1.98389" width="103.343" height="91" rx="14.5" fill="white" stroke="#ADC6F7" stroke-width="3"/>
<path d="M72.384 64.4565C72.384 65.6065 71.4506 66.5398 70.3006 66.5398C69.1506 66.5398 68.2173 65.6065 68.2173 64.4565V31.1229C68.2173 29.9715 69.1506 29.0396 70.3006 29.0396C71.4506 29.0396 72.384 29.9715 72.384 31.1229V64.4565Z" fill="#CCD6DD"/>
<path d="M77.7758 67.9286C77.8271 67.7009 77.8619 67.4703 77.8619 67.2342C77.8619 64.5495 74.441 62.373 70.2229 62.373C66.0048 62.373 62.584 64.5495 62.584 67.2342C62.584 67.4703 62.6187 67.7009 62.6701 67.9286H77.7758Z" fill="#CCD6DD"/>
<path d="M79.2509 35.984C79.7148 37.5465 78.0065 38.7618 76.4731 38.7618H63.973C62.4397 38.7618 60.7911 37.3729 61.1952 35.984L63.973 26.2617C64.3203 24.7561 65.2175 23.4839 66.7508 23.4839H73.6953C75.2301 23.4839 76.1259 25.0464 76.4731 26.2617L79.2509 35.984Z" fill="#FCAB40"/>
<path d="M69.6145 63.9024C69.6145 65.5899 68.202 66.9565 66.4603 66.9565H38.0726C36.331 66.9565 34.9185 65.5899 34.9185 63.9024V50.1523C34.9185 48.4647 36.331 47.0967 38.0726 47.0967H66.4603C68.202 47.0967 69.6145 48.4647 69.6145 50.1523V63.9024Z" fill="#5D9040"/>
<path d="M67.523 66.9564C67.523 68.6439 66.1549 70.012 64.4674 70.012H38.495C36.8075 70.012 35.4395 68.6439 35.4395 66.9564V65.4286C35.4395 63.7411 36.8075 62.373 38.495 62.373H64.4674C66.1549 62.373 67.523 63.7411 67.523 65.4286V66.9564Z" fill="#3F7123"/>
<path d="M52.2672 58.5536C61.8433 58.5536 69.6062 54.7448 69.6062 50.0466C69.6062 45.3483 61.8433 41.5396 52.2672 41.5396C42.6912 41.5396 34.9282 45.3483 34.9282 50.0466C34.9282 54.7448 42.6912 58.5536 52.2672 58.5536Z" fill="#5D9040"/>
<path d="M38.4949 56.2635C38.4949 58.794 36.4421 60.8468 33.9115 60.8468C31.3809 60.8468 29.3281 58.794 29.3281 56.2635C29.3281 53.7301 31.3809 51.6787 33.9115 51.6787C36.4435 51.6787 38.4949 53.7301 38.4949 56.2635Z" fill="#78B159"/>
<path d="M38.4949 70.0122C38.4949 71.6997 37.1269 73.0677 35.4394 73.0677C33.7519 73.0677 32.3838 71.6997 32.3838 70.0122V56.2635C32.3838 54.576 33.7519 53.2079 35.4394 53.2079C37.1269 53.2079 38.4949 54.576 38.4949 56.2635V70.0122ZM65.9951 56.2635C65.9951 58.794 68.0465 60.8468 70.5785 60.8468C73.1077 60.8468 75.1619 58.794 75.1619 56.2635C75.1619 53.7315 73.1077 51.6787 70.5785 51.6787C68.0479 51.6787 65.9951 53.7301 65.9951 56.2635Z" fill="#78B159"/>
<path d="M65.9948 70.0118C65.9948 71.6993 67.3615 73.0674 69.049 73.0674C70.7365 73.0674 72.1046 71.6993 72.1046 70.0118V56.2631C72.1046 54.5756 70.7365 53.2075 69.049 53.2075C67.3615 53.2075 65.9948 54.5756 65.9948 56.2631V70.0118ZM52.2447 62.3729C52.2447 64.0604 50.8767 65.4284 49.1891 65.4284H41.5502C39.8627 65.4284 38.4946 64.0604 38.4946 62.3729C38.4946 60.6853 39.8627 59.3173 41.5502 59.3173H49.1891C50.8767 59.3173 52.2447 60.6853 52.2447 62.3729ZM65.9948 62.3729C65.9948 64.0604 64.6268 65.4284 62.9392 65.4284H55.3003C53.6128 65.4284 52.2447 64.0604 52.2447 62.3729C52.2447 60.6853 53.6128 59.3173 55.3003 59.3173H62.9392C64.6268 59.3173 65.9948 60.6853 65.9948 62.3729Z" fill="#78B159"/>
<path d="M37.6616 62.373H66.8285V66.5397H37.6616V62.373Z" fill="#78B159"/>
</svg>
