<svg width="112" height="99" viewBox="0 0 112 99" fill="none" xmlns="http://www.w3.org/2000/svg">
<rect x="1.5" y="1.5" width="109" height="96" rx="14.5" fill="white" stroke="#ADC6F7" stroke-width="3"/>
<path d="M51.706 56.4445C51.706 59.2016 50.7249 61.4371 47.9851 61.4371H39.3029C34.3417 61.4371 34.3417 43.963 39.3029 43.963H47.9851C50.7249 43.963 51.706 46.1984 51.706 48.9556V56.4445Z" fill="#553788"/>
<path d="M75.2704 58.9408H74.0301V46.4593H75.2704C75.9563 46.4593 76.5107 45.9013 76.5107 45.2111C76.5107 44.5209 75.9563 43.963 75.2704 43.963H45.5031C40.5419 43.963 40.5419 61.4371 45.5031 61.4371H75.2704C75.9563 61.4371 76.5107 60.8792 76.5107 60.1889C76.5107 59.4987 75.9563 58.9408 75.2704 58.9408Z" fill="#9266CC"/>
<path d="M75.4845 58.9409H46.7442C44.2636 58.9409 44.2636 46.4594 46.7442 46.4594H75.4845C76.8538 46.4594 76.8538 58.9409 75.4845 58.9409Z" fill="#CCD6DD"/>
<path d="M47.3639 48.9557H76.325C76.1576 47.4891 75.8785 46.4594 75.4841 46.4594H46.7438C44.696 46.4594 44.3401 54.9568 45.6734 57.9274C45.1872 54.2341 45.7503 48.9557 47.3639 48.9557Z" fill="#99AAB5"/>
<path d="M47.9841 27.737C47.9841 30.4942 45.7628 32.7296 43.0229 32.7296H38.0617C33.1005 32.7296 33.1005 18.9999 38.0617 18.9999H43.0229C45.7628 18.9999 47.9841 21.2354 47.9841 23.9925V27.737Z" fill="#226699"/>
<path d="M71.5502 30.2333H70.3099V21.4962H71.5502C72.2361 21.4962 72.7905 20.9383 72.7905 20.2481C72.7905 19.5579 72.2361 18.9999 71.5502 18.9999H41.7829C36.8217 18.9999 36.8217 32.7296 41.7829 32.7296H71.5502C72.2361 32.7296 72.7905 32.1717 72.7905 31.4815C72.7905 30.7912 72.2361 30.2333 71.5502 30.2333Z" fill="#55ACEE"/>
<path d="M71.7638 30.2333H43.0235C40.5429 30.2333 40.5429 21.4962 43.0235 21.4962H71.7638C73.1331 21.4962 73.1331 30.2333 71.7638 30.2333Z" fill="#CCD6DD"/>
<path d="M43.0236 23.9925H72.6979C72.5565 22.5883 72.2464 21.4962 71.7639 21.4962H43.0236C41.544 21.4962 40.9536 24.6029 41.2401 27.1129C41.4336 25.4179 42.0227 23.9925 43.0236 23.9925Z" fill="#99AAB5"/>
<path d="M57.9064 38.9704C57.9064 41.7276 55.685 43.963 52.9452 43.963H40.5422C35.581 43.963 35.581 32.7297 40.5422 32.7297H52.9452C55.685 32.7297 57.9064 34.9651 57.9064 37.7223V38.9704Z" fill="#F4900C"/>
<path d="M76.5118 41.4667H75.2715V35.226H76.5118C77.1977 35.226 77.7521 34.6681 77.7521 33.9778C77.7521 33.2876 77.1977 32.7297 76.5118 32.7297H51.7058C46.7446 32.7297 46.7446 43.963 51.7058 43.963H76.5118C77.1977 43.963 77.7521 43.4051 77.7521 42.7149C77.7521 42.0247 77.1977 41.4667 76.5118 41.4667Z" fill="#FFAC33"/>
<path d="M76.724 41.4667H52.9449C50.4643 41.4667 50.4643 35.226 52.9449 35.226H76.724C78.0933 35.226 78.0933 41.4667 76.724 41.4667Z" fill="#CCD6DD"/>
<path d="M52.9445 37.7223H77.7307C77.6501 36.3967 77.3164 35.226 76.7236 35.226H52.9445C51.3644 35.226 50.7951 37.756 51.2292 39.5945C51.4747 38.5473 52.044 37.7223 52.9445 37.7223Z" fill="#99AAB5"/>
<path d="M42.7457 79.4268H45.6578C46.2633 79.4268 46.7828 79.3292 47.2164 79.1339C47.6539 78.9346 47.9899 78.6553 48.2242 78.296C48.4625 77.9327 48.5817 77.5049 48.5817 77.0128V77.001C48.5817 76.6417 48.4977 76.3155 48.3297 76.0225C48.1657 75.7296 47.9371 75.4913 47.6442 75.3077C47.3551 75.1241 47.0231 75.0186 46.6481 74.9913V74.8858C46.9371 74.8428 47.1969 74.7354 47.4274 74.5635C47.6578 74.3917 47.8395 74.1768 47.9723 73.919C48.109 73.6612 48.1774 73.3839 48.1774 73.087V73.0753C48.1774 72.6417 48.0719 72.2686 47.861 71.9561C47.6539 71.6397 47.3551 71.3975 46.9645 71.2296C46.5778 71.0577 46.109 70.9717 45.5582 70.9717H42.7457V72.2842H45.1071C45.5289 72.2842 45.8551 72.3819 46.0856 72.5772C46.3199 72.7686 46.4371 73.0362 46.4371 73.3799V73.3917C46.4371 73.7393 46.3102 74.0089 46.0563 74.2003C45.8024 74.3917 45.4371 74.4874 44.9606 74.4874H42.7457V75.6534H45.1657C45.5133 75.6534 45.8063 75.7003 46.0446 75.794C46.2867 75.8839 46.4684 76.0186 46.5895 76.1983C46.7145 76.378 46.777 76.5987 46.777 76.8604V76.8721C46.777 77.2745 46.6422 77.5811 46.3727 77.7921C46.1071 78.003 45.7184 78.1085 45.2067 78.1085H42.7457V79.4268ZM41.861 79.4268H43.6305V70.9717H41.861V79.4268ZM52.8766 79.5616C53.5407 79.5616 54.109 79.4288 54.5817 79.1631C55.0582 78.8936 55.4235 78.5089 55.6774 78.0089C55.9313 77.5049 56.0582 76.9034 56.0582 76.2042V76.1924C56.0582 75.4971 55.9293 74.8995 55.6715 74.3995C55.4137 73.8956 55.0465 73.5089 54.5699 73.2393C54.0973 72.9698 53.5328 72.835 52.8766 72.835C52.2203 72.835 51.6539 72.9717 51.1774 73.2452C50.7047 73.5147 50.3395 73.8995 50.0817 74.3995C49.8239 74.8995 49.6949 75.4971 49.6949 76.1924V76.2042C49.6949 76.9034 49.8219 77.5049 50.0758 78.0089C50.3297 78.5089 50.6949 78.8936 51.1715 79.1631C51.6481 79.4288 52.2164 79.5616 52.8766 79.5616ZM52.8766 78.2198C52.5719 78.2198 52.3121 78.1417 52.0973 77.9854C51.8864 77.8253 51.7242 77.5948 51.611 77.294C51.5016 76.9932 51.4469 76.6299 51.4469 76.2042V76.1924C51.4469 75.7706 51.5035 75.4112 51.6168 75.1143C51.7301 74.8135 51.8922 74.5831 52.1032 74.4229C52.318 74.2589 52.5758 74.1768 52.8766 74.1768C53.1774 74.1768 53.4332 74.2589 53.6442 74.4229C53.859 74.5831 54.0231 74.8135 54.1364 75.1143C54.2496 75.4112 54.3063 75.7706 54.3063 76.1924V76.2042C54.3063 76.626 54.2496 76.9874 54.1364 77.2881C54.0231 77.5889 53.861 77.8194 53.65 77.9796C53.4391 78.1397 53.1813 78.2198 52.8766 78.2198ZM60.318 79.5616C60.9821 79.5616 61.5504 79.4288 62.0231 79.1631C62.4996 78.8936 62.8649 78.5089 63.1188 78.0089C63.3727 77.5049 63.4996 76.9034 63.4996 76.2042V76.1924C63.4996 75.4971 63.3707 74.8995 63.1129 74.3995C62.8551 73.8956 62.4879 73.5089 62.0114 73.2393C61.5387 72.9698 60.9742 72.835 60.318 72.835C59.6617 72.835 59.0953 72.9717 58.6188 73.2452C58.1461 73.5147 57.7809 73.8995 57.5231 74.3995C57.2653 74.8995 57.1364 75.4971 57.1364 76.1924V76.2042C57.1364 76.9034 57.2633 77.5049 57.5172 78.0089C57.7711 78.5089 58.1364 78.8936 58.6129 79.1631C59.0895 79.4288 59.6578 79.5616 60.318 79.5616ZM60.318 78.2198C60.0133 78.2198 59.7535 78.1417 59.5387 77.9854C59.3278 77.8253 59.1657 77.5948 59.0524 77.294C58.943 76.9932 58.8883 76.6299 58.8883 76.2042V76.1924C58.8883 75.7706 58.9449 75.4112 59.0582 75.1143C59.1715 74.8135 59.3336 74.5831 59.5446 74.4229C59.7594 74.2589 60.0172 74.1768 60.318 74.1768C60.6188 74.1768 60.8746 74.2589 61.0856 74.4229C61.3004 74.5831 61.4645 74.8135 61.5778 75.1143C61.691 75.4112 61.7477 75.7706 61.7477 76.1924V76.2042C61.7477 76.626 61.691 76.9874 61.5778 77.2881C61.4645 77.5889 61.3024 77.8194 61.0914 77.9796C60.8805 78.1397 60.6227 78.2198 60.318 78.2198ZM64.9528 79.4268H66.6637V70.5089H64.9528V79.4268ZM69.0133 79.4268H71.0348L68.3102 75.6006L67.0328 76.626L69.0133 79.4268ZM66.5465 77.3878L67.2965 76.5909L68.2106 75.9053L70.8649 72.9756H68.9254L66.7692 75.5245H66.4879L66.5465 77.3878Z" fill="black"/>
</svg>
