<svg width="112" height="99" viewBox="0 0 112 99" fill="none" xmlns="http://www.w3.org/2000/svg">
<rect x="1.5" y="1.5" width="109" height="96" rx="14.5" fill="white" stroke="#ADC6F7" stroke-width="3"/>
<path d="M78.5476 45.6149H77.1024C76.3076 45.6149 75.6572 44.9646 75.6572 44.1698C75.6572 43.3749 76.3076 42.7246 77.1024 42.7246H78.5476C79.3424 42.7246 79.9927 43.3749 79.9927 44.1698C79.9927 44.9646 79.3424 45.6149 78.5476 45.6149Z" fill="#F4900C"/>
<path d="M46.7536 56.4535C46.7536 60.0447 43.8416 62.9567 40.2503 62.9567C36.6591 62.9567 33.7471 60.0447 33.7471 56.4535C33.7471 52.8622 36.6591 49.9502 40.2503 49.9502C43.8416 49.9502 46.7536 52.8622 46.7536 56.4535ZM81.4377 56.4535C81.4377 60.0447 78.5257 62.9567 74.9344 62.9567C71.3432 62.9567 68.4312 60.0447 68.4312 56.4535C68.4312 52.8622 71.3432 49.9502 74.9344 49.9502C78.5257 49.9502 81.4377 52.8622 81.4377 56.4535Z" fill="#292F33"/>
<path d="M43.8635 56.4537C43.8635 58.4495 42.2464 60.0667 40.2506 60.0667C38.2548 60.0667 36.6377 58.4495 36.6377 56.4537C36.6377 54.458 38.2548 52.8408 40.2506 52.8408C42.2464 52.8408 43.8635 54.458 43.8635 56.4537ZM78.5476 56.4537C78.5476 58.4495 76.9305 60.0667 74.9347 60.0667C72.9389 60.0667 71.3218 58.4495 71.3218 56.4537C71.3218 54.458 72.9389 52.8408 74.9347 52.8408C76.9305 52.8408 78.5476 54.458 78.5476 56.4537Z" fill="#99AAB5"/>
<path d="M40.7622 45.7333L44.5414 35.633L43.8636 34.0534C43.8636 34.0534 42.5398 34.0649 42.4184 32.6082C42.2984 31.1529 45.8984 28.1585 46.7539 28.2727C47.6109 28.3883 46.7539 31.163 46.7539 31.163C46.7539 31.163 50.1067 31.968 49.6442 34.0534C49.1832 36.1402 46.212 46.609 46.212 46.609C46.212 46.609 48.741 47.8735 49.6442 49.9503C50.2931 51.4417 52.0736 51.4214 53.9798 51.3954C55.8859 51.3723 60.3284 51.3853 61.2056 48.5051C62.0814 45.6278 62.6508 44.1696 62.6508 44.1696L61.2056 42.7244L75.6573 39.8341C75.6573 39.8341 74.3697 42.6984 77.1025 44.1696C80.2356 45.859 81.2357 48.0267 82.8832 51.3954C83.9656 53.6123 83.5306 54.1369 81.438 54.2858C78.6329 54.4881 75.0214 54.8436 73.0705 55.0589C71.3406 55.2526 69.7697 57.4435 67.0528 57.4435C64.3358 57.4435 52.5259 57.5143 49.6442 57.1747C44.5919 56.5836 42.7681 52.8392 35.1925 52.8392C32.1982 52.8392 33.6607 50.5804 35.233 48.9878C36.9802 47.216 40.7261 45.5194 40.7622 45.7333" fill="#DD2E44"/>
<path d="M64.096 58.6215H59.7605C58.1708 58.6215 56.8701 57.3208 56.8701 55.7312C56.8701 54.1415 58.1708 52.8408 59.7605 52.8408H64.096C65.6857 52.8408 66.9863 54.1415 66.9863 55.7312C66.9863 57.3208 65.6857 58.6215 64.096 58.6215Z" fill="#BE1931"/>
<path d="M59.7609 58.6218H52.535C51.7402 58.6218 51.0898 57.9715 51.0898 57.1766C51.0898 56.3818 51.7402 55.7314 52.535 55.7314H59.7609C60.5557 55.7314 61.206 56.3818 61.206 57.1766C61.206 57.9715 60.5557 58.6218 59.7609 58.6218Z" fill="#BE1931"/>
<path d="M64.0964 42.7244C61.7581 42.7244 60.5832 43.1667 59.7609 41.2793C58.9386 39.3919 59.732 38.3889 61.206 38.3889C62.6801 38.3889 69.484 38.1274 72.7674 36.9438C76.0508 35.7602 77.1795 35.7428 77.1029 36.9438C77.0263 38.1447 75.6577 39.8341 75.6577 39.8341C75.6577 39.8341 73.8455 42.7244 64.0964 42.7244ZM52.535 34.0534H47.8368C47.0419 34.0534 46.3916 33.4031 46.3916 32.6083C46.3916 31.8134 47.0419 31.1631 47.8368 31.1631H52.535C53.3299 31.1631 53.9802 31.8134 53.9802 32.6083C53.9802 33.4031 53.3299 34.0534 52.535 34.0534Z" fill="#292F33"/>
<path d="M43.1406 34.0534C42.7431 34.0534 42.418 33.7283 42.418 33.3308V31.8857C42.418 31.4882 42.7431 31.1631 43.1406 31.1631C43.538 31.1631 43.8631 31.4882 43.8631 31.8857V33.3308C43.8631 33.7283 43.538 34.0534 43.1406 34.0534Z" fill="#F4900C"/>
<path d="M51.1793 29.7182H50.9987C50.2529 29.7182 49.6445 29.1083 49.6445 28.3641V25.2916C49.6445 24.5474 50.2529 23.9375 51.0001 23.9375H51.1807C51.9265 23.9375 52.5349 24.5474 52.5349 25.2916V28.3641C52.5349 29.1083 51.9265 29.7182 51.1793 29.7182" fill="#292F33"/>
<path d="M46.7278 32.7041L46.696 32.6723C46.4243 32.4006 46.4243 31.954 46.696 31.6823L50.8147 27.5622C51.0878 27.2905 51.5329 27.2905 51.8046 27.5622L51.8379 27.594C52.1096 27.8671 52.1096 28.3122 51.8379 28.5839L47.7177 32.7041C47.446 32.9758 46.9994 32.9758 46.7278 32.7041" fill="#292F33"/>
<path d="M26.8721 84.9375H28.4482V79.1836H29.3213L27.6396 76.7168L30.7334 84.9375H31.8408L34.9404 76.7168L33.2529 79.1836H34.126V84.9375H35.7021V76.4824H33.6748L31.3428 82.6699H31.2373L28.8994 76.4824H26.8721V84.9375ZM40.4541 85.0723C41.1182 85.0723 41.6865 84.9395 42.1592 84.6738C42.6357 84.4043 43.001 84.0195 43.2549 83.5195C43.5088 83.0156 43.6357 82.4141 43.6357 81.7148V81.7031C43.6357 81.0078 43.5068 80.4102 43.249 79.9102C42.9912 79.4062 42.624 79.0195 42.1475 78.75C41.6748 78.4805 41.1104 78.3457 40.4541 78.3457C39.7979 78.3457 39.2314 78.4824 38.7549 78.7559C38.2822 79.0254 37.917 79.4102 37.6592 79.9102C37.4014 80.4102 37.2725 81.0078 37.2725 81.7031V81.7148C37.2725 82.4141 37.3994 83.0156 37.6533 83.5195C37.9072 84.0195 38.2725 84.4043 38.749 84.6738C39.2256 84.9395 39.7939 85.0723 40.4541 85.0723ZM40.4541 83.7305C40.1494 83.7305 39.8896 83.6523 39.6748 83.4961C39.4639 83.3359 39.3018 83.1055 39.1885 82.8047C39.0791 82.5039 39.0244 82.1406 39.0244 81.7148V81.7031C39.0244 81.2812 39.0811 80.9219 39.1943 80.625C39.3076 80.3242 39.4697 80.0938 39.6807 79.9336C39.8955 79.7695 40.1533 79.6875 40.4541 79.6875C40.7549 79.6875 41.0107 79.7695 41.2217 79.9336C41.4365 80.0938 41.6006 80.3242 41.7139 80.625C41.8271 80.9219 41.8838 81.2812 41.8838 81.7031V81.7148C41.8838 82.1367 41.8271 82.498 41.7139 82.7988C41.6006 83.0996 41.4385 83.3301 41.2275 83.4902C41.0166 83.6504 40.7588 83.7305 40.4541 83.7305ZM47.708 84.9609C47.876 84.9609 48.0342 84.9531 48.1826 84.9375C48.3311 84.9219 48.458 84.9043 48.5635 84.8848V83.6133C48.4814 83.6211 48.4033 83.6289 48.3291 83.6367C48.2588 83.6406 48.1689 83.6426 48.0596 83.6426C47.7705 83.6426 47.5596 83.5762 47.4268 83.4434C47.2979 83.3066 47.2334 83.0938 47.2334 82.8047V79.7754H48.5635V78.4863H47.2334V76.9453H45.5049V78.4863H44.5088V79.7754H45.5049V83.1973C45.5049 83.8223 45.6768 84.2734 46.0205 84.5508C46.3643 84.8242 46.9268 84.9609 47.708 84.9609ZM52.8057 85.0723C53.4697 85.0723 54.0381 84.9395 54.5107 84.6738C54.9873 84.4043 55.3525 84.0195 55.6064 83.5195C55.8604 83.0156 55.9873 82.4141 55.9873 81.7148V81.7031C55.9873 81.0078 55.8584 80.4102 55.6006 79.9102C55.3428 79.4062 54.9756 79.0195 54.499 78.75C54.0264 78.4805 53.4619 78.3457 52.8057 78.3457C52.1494 78.3457 51.583 78.4824 51.1064 78.7559C50.6338 79.0254 50.2686 79.4102 50.0107 79.9102C49.7529 80.4102 49.624 81.0078 49.624 81.7031V81.7148C49.624 82.4141 49.751 83.0156 50.0049 83.5195C50.2588 84.0195 50.624 84.4043 51.1006 84.6738C51.5771 84.9395 52.1455 85.0723 52.8057 85.0723ZM52.8057 83.7305C52.501 83.7305 52.2412 83.6523 52.0264 83.4961C51.8154 83.3359 51.6533 83.1055 51.54 82.8047C51.4307 82.5039 51.376 82.1406 51.376 81.7148V81.7031C51.376 81.2812 51.4326 80.9219 51.5459 80.625C51.6592 80.3242 51.8213 80.0938 52.0322 79.9336C52.2471 79.7695 52.5049 79.6875 52.8057 79.6875C53.1064 79.6875 53.3623 79.7695 53.5732 79.9336C53.7881 80.0938 53.9521 80.3242 54.0654 80.625C54.1787 80.9219 54.2354 81.2812 54.2354 81.7031V81.7148C54.2354 82.1367 54.1787 82.498 54.0654 82.7988C53.9521 83.0996 53.79 83.3301 53.5791 83.4902C53.3682 83.6504 53.1104 83.7305 52.8057 83.7305ZM57.3818 84.9375H59.0928V81.3281C59.0928 81.0234 59.1572 80.7617 59.2861 80.543C59.415 80.3242 59.5986 80.1562 59.8369 80.0391C60.0752 79.918 60.3564 79.8574 60.6807 79.8574C60.8135 79.8574 60.9443 79.8672 61.0732 79.8867C61.2061 79.9023 61.3369 79.9258 61.4658 79.957V78.4629C61.3799 78.4395 61.2803 78.4199 61.167 78.4043C61.0576 78.3887 60.9443 78.3809 60.8271 78.3809C60.4092 78.3809 60.0596 78.4785 59.7783 78.6738C59.4971 78.8652 59.3037 79.1367 59.1982 79.4883H59.0928V78.4863H57.3818V84.9375ZM66.417 85.0371C66.9561 85.0371 67.4209 84.9043 67.8115 84.6387C68.2021 84.3691 68.5029 83.9863 68.7139 83.4902C68.9287 82.9941 69.0361 82.4023 69.0361 81.7148V81.7031C69.0361 81.0117 68.9307 80.418 68.7197 79.9219C68.5088 79.4258 68.208 79.0449 67.8174 78.7793C67.4268 78.5137 66.96 78.3809 66.417 78.3809C65.9756 78.3809 65.583 78.4824 65.2393 78.6855C64.8994 78.8887 64.6475 79.166 64.4834 79.5176H64.3779V76.0195H62.667V84.9375H64.3779V83.9355H64.4834C64.6514 84.2832 64.9014 84.5547 65.2334 84.75C65.5654 84.9414 65.96 85.0371 66.417 85.0371ZM65.8311 83.6191C65.5303 83.6191 65.2686 83.543 65.0459 83.3906C64.8271 83.2383 64.6572 83.0195 64.5361 82.7344C64.4189 82.4492 64.3604 82.1113 64.3604 81.7207V81.709C64.3604 81.3105 64.4209 80.9707 64.542 80.6895C64.6631 80.4043 64.833 80.1855 65.0518 80.0332C65.2744 79.877 65.5342 79.7988 65.8311 79.7988C66.1357 79.7988 66.3955 79.877 66.6104 80.0332C66.8291 80.1855 66.9971 80.4043 67.1143 80.6895C67.2354 80.9707 67.2959 81.3086 67.2959 81.7031V81.7148C67.2959 82.1094 67.2354 82.4492 67.1143 82.7344C66.9971 83.0195 66.8291 83.2383 66.6104 83.3906C66.3955 83.543 66.1357 83.6191 65.8311 83.6191ZM70.4365 84.9375H72.1475V78.4863H70.4365V84.9375ZM71.2979 77.4961C71.5635 77.4961 71.79 77.4043 71.9775 77.2207C72.165 77.0332 72.2588 76.8086 72.2588 76.5469C72.2588 76.2812 72.165 76.0566 71.9775 75.873C71.79 75.6855 71.5635 75.5918 71.2979 75.5918C71.0361 75.5918 70.8096 75.6855 70.6182 75.873C70.4268 76.0566 70.3311 76.2812 70.3311 76.5469C70.3311 76.8086 70.4268 77.0332 70.6182 77.2207C70.8096 77.4043 71.0361 77.4961 71.2979 77.4961ZM73.9287 84.9375H75.6396V76.0195H73.9287V84.9375ZM77.9893 84.9375H80.0107L77.2861 81.1113L76.0088 82.1367L77.9893 84.9375ZM75.5225 82.8984L76.2725 82.1016L77.1865 81.416L79.8408 78.4863H77.9014L75.7451 81.0352H75.4639L75.5225 82.8984ZM83.5381 85.0723C84.0107 85.0723 84.4189 85.0137 84.7627 84.8965C85.1104 84.7754 85.3994 84.6191 85.6299 84.4277C85.8643 84.2363 86.0479 84.0312 86.1807 83.8125C86.3135 83.5898 86.4053 83.377 86.4561 83.1738L86.4678 83.1152H84.874L84.8564 83.1504C84.8174 83.2324 84.7432 83.3242 84.6338 83.4258C84.5283 83.5234 84.3877 83.6094 84.2119 83.6836C84.0361 83.7578 83.8232 83.7949 83.5732 83.7949C83.2646 83.7949 82.999 83.7266 82.7764 83.5898C82.5537 83.4531 82.3818 83.2559 82.2607 82.998C82.1396 82.7402 82.0791 82.4297 82.0791 82.0664V81.375C82.0791 81 82.1396 80.6836 82.2607 80.4258C82.3857 80.1641 82.5537 79.9668 82.7646 79.834C82.9795 79.6973 83.2236 79.6289 83.4971 79.6289C83.7744 79.6289 84.0166 79.6953 84.2236 79.8281C84.4346 79.957 84.5986 80.1504 84.7158 80.4082C84.8369 80.666 84.8975 80.9883 84.8975 81.375V82.0605L85.7002 81.0469H81.2412V82.1191H86.5205V81.5859C86.5205 80.9336 86.3975 80.3652 86.1514 79.8809C85.9053 79.3965 85.5537 79.0195 85.0967 78.75C84.6396 78.4805 84.0967 78.3457 83.4678 78.3457C82.8428 78.3457 82.2979 78.4844 81.833 78.7617C81.3721 79.0391 81.0146 79.4297 80.7607 79.9336C80.5107 80.4375 80.3857 81.0312 80.3857 81.7148V81.7207C80.3857 82.4121 80.5127 83.0078 80.7666 83.5078C81.0205 84.0078 81.3818 84.3945 81.8506 84.668C82.3232 84.9375 82.8857 85.0723 83.5381 85.0723Z" fill="black"/>
</svg>
