<svg width="107" height="95" viewBox="0 0 107 95" fill="none" xmlns="http://www.w3.org/2000/svg">
<rect x="1.82812" y="1.98404" width="103.343" height="91" rx="14.5" fill="white" stroke="#ADC6F7" stroke-width="3"/>
<path d="M44.9115 59.9934C26.8764 33.4257 38.7683 26.3072 40.9772 25.2625C41.1842 25.1653 41.3134 25.1166 41.3175 25.1139C41.8982 24.8235 42.2039 24.1761 42.0525 23.551C41.901 22.9258 41.3356 22.484 40.6841 22.484H35.0493C29.7799 22.484 22.367 37.7656 36.4552 61.3826C36.665 61.7341 43.5028 61.3826 43.5028 61.3826C44.2794 61.3826 45.3422 60.631 44.9115 59.9934ZM71.7001 22.484H66.1432C65.5014 22.484 64.9443 22.9258 64.7942 23.551C64.6456 24.1761 64.9457 24.8235 65.518 25.1139C65.5236 25.1166 65.65 25.1653 65.8542 25.2625C68.0325 26.3072 79.7605 33.4257 61.9755 59.9934C61.549 60.631 62.5979 61.3826 63.3647 61.3826C63.3647 61.3826 70.1081 61.7341 70.3137 61.3826C84.206 37.7656 76.8972 22.484 71.7001 22.484Z" fill="#C1694F"/>
<path d="M37.8861 62.544L37.8917 62.5579C37.8028 62.1509 45.3422 60.631 44.9115 59.9934C26.8764 33.4257 38.7683 26.3072 40.9772 25.2625H35.0465C29.7786 25.2625 23.7757 40.5441 37.8861 62.544ZM71.7029 25.2625H65.8542C68.0325 26.3072 79.7605 33.4257 61.9755 59.9934C61.549 60.631 68.8994 62.5482 68.9022 62.544C82.8168 40.5441 76.8986 25.2625 71.7029 25.2625Z" fill="#662113"/>
<path d="M42.0909 33.5979C41.3115 33.5979 40.6808 32.9755 40.6808 32.2087C40.6808 27.602 37.8634 25.2625 35.0461 25.2625C34.3931 25.2625 34.9349 24.1761 35.0864 23.551C35.2392 22.9258 35.8032 22.484 36.4547 22.484H43.4996C48.7662 22.484 50.3596 31.0084 50.5249 31.9795C50.593 32.3823 50.4777 32.7936 50.211 33.1061C49.9401 33.4187 49.5469 33.5979 49.1343 33.5979H42.0909V33.5979ZM64.7562 33.5979C65.5245 33.5979 66.1455 32.9755 66.1455 32.2087C66.1455 27.602 68.924 25.2625 71.7024 25.2625C72.3456 25.2625 71.8108 24.1761 71.6621 23.551C71.5135 22.9258 70.9564 22.484 70.3132 22.484H63.367C58.1741 22.484 56.6028 31.0084 56.4403 31.9795C56.3722 32.3823 56.4861 32.7936 56.7501 33.1061C57.0154 33.4187 57.403 33.5979 57.8101 33.5979H64.7562Z" fill="#C1694F"/>
<path d="M36.6514 66.9396C36.6514 66.9396 36.6514 72.4965 42.2083 72.4965H64.4361C64.4361 72.4965 69.993 72.4965 69.993 66.9396V36.3764C69.993 36.3764 69.993 30.8195 64.4361 30.8195H42.2083C36.6514 30.8195 36.6514 36.3764 36.6514 36.3764V66.9396Z" fill="#BE1931"/>
<path d="M61.6579 61.3826H44.987C41.9293 61.3826 40.8193 58.8903 40.8193 57.2149V37.7656C40.8193 36.9988 41.4417 36.3764 42.2086 36.3764C42.9754 36.3764 43.5978 36.9988 43.5978 37.7656V57.2149C43.6145 57.8401 43.8687 58.6041 44.987 58.6041H61.6579C62.283 58.5875 63.0471 58.3346 63.0471 57.2149V37.7656C63.0471 36.9988 63.6681 36.3764 64.4363 36.3764C65.2046 36.3764 65.8256 36.9988 65.8256 37.7656V57.2149C65.8256 60.2726 63.3333 61.3826 61.6579 61.3826Z" fill="#A0041E"/>
<path d="M50.5439 57.2149C50.5439 57.2149 50.5439 55.8257 51.9332 55.8257H54.7117C54.7117 55.8257 56.1009 55.8257 56.1009 57.2149V64.1611C56.1009 64.1611 56.1009 65.5503 54.7117 65.5503H51.9332C51.9332 65.5503 50.5439 65.5503 50.5439 64.1611V57.2149Z" fill="white"/>
</svg>
