<svg width="112" height="99" viewBox="0 0 112 99" fill="none" xmlns="http://www.w3.org/2000/svg">
<rect x="1.5" y="1.5" width="109" height="96" rx="14.5" fill="white" stroke="#ADC6F7" stroke-width="3"/>
<path d="M50.5116 53.9375H78.2894C78.2894 53.9375 82.4561 53.9375 82.4561 48.3819C82.4561 45.6042 82.4561 40.0486 81.0672 38.6597C79.6783 37.2708 69.9561 28.9375 65.7894 28.9375H57.4561C53.2894 28.9375 43.5672 38.6597 43.5672 38.6597L38.0116 40.0486C38.0116 40.0486 33.8449 41.4375 33.8449 44.2153V48.3819C33.8449 48.3819 32.4561 48.8514 32.4561 51.1C32.4561 53.9375 35.2338 53.9375 35.2338 53.9375H50.5116Z" fill="#DD2E44"/>
<path d="M60.2336 31.7148H57.4558C54.6781 31.7148 46.3447 40.0482 46.3447 40.0482C46.3447 40.0482 53.285 39.6829 60.2336 39.3273V31.7148ZM74.1225 35.8815C72.7336 34.4926 67.1781 31.7148 64.4003 31.7148H63.0114V39.1857C68.5822 38.9023 73.542 38.6593 74.1225 38.6593C75.5114 38.6593 75.5114 37.2704 74.1225 35.8815Z" fill="#BBDDF5"/>
<path d="M46.3446 58.1043C49.4129 58.1043 51.9002 55.617 51.9002 52.5487C51.9002 49.4805 49.4129 46.9932 46.3446 46.9932C43.2764 46.9932 40.7891 49.4805 40.7891 52.5487C40.7891 55.617 43.2764 58.1043 46.3446 58.1043Z" fill="#292F33"/>
<path d="M46.3452 55.3261C47.8793 55.3261 49.1229 54.0824 49.1229 52.5483C49.1229 51.0142 47.8793 49.7705 46.3452 49.7705C44.811 49.7705 43.5674 51.0142 43.5674 52.5483C43.5674 54.0824 44.811 55.3261 46.3452 55.3261Z" fill="#CCD6DD"/>
<path d="M69.9559 58.1043C73.0242 58.1043 75.5115 55.617 75.5115 52.5487C75.5115 49.4805 73.0242 46.9932 69.9559 46.9932C66.8877 46.9932 64.4004 49.4805 64.4004 52.5487C64.4004 55.617 66.8877 58.1043 69.9559 58.1043Z" fill="#292F33"/>
<path d="M69.9565 55.3261C71.4906 55.3261 72.7343 54.0824 72.7343 52.5483C72.7343 51.0142 71.4906 49.7705 69.9565 49.7705C68.4224 49.7705 67.1787 51.0142 67.1787 52.5483C67.1787 54.0824 68.4224 55.3261 69.9565 55.3261Z" fill="#CCD6DD"/>
<path d="M50.4736 85.1543C51.1572 85.1543 51.7627 85.0293 52.29 84.7793C52.8174 84.5254 53.2432 84.1758 53.5674 83.7305C53.8916 83.2852 54.085 82.7676 54.1475 82.1777V82.1074H52.4248L52.4131 82.1602C52.3545 82.4609 52.2354 82.7246 52.0557 82.9512C51.8799 83.1738 51.6572 83.3477 51.3877 83.4727C51.1221 83.5938 50.8193 83.6543 50.4795 83.6543C50.0342 83.6543 49.6494 83.5352 49.3252 83.2969C49.001 83.0586 48.751 82.7188 48.5752 82.2773C48.4033 81.8359 48.3174 81.3145 48.3174 80.7129V80.7012C48.3174 80.0957 48.4033 79.5742 48.5752 79.1367C48.751 78.6953 49.001 78.3574 49.3252 78.123C49.6494 77.8848 50.0322 77.7656 50.4736 77.7656C50.8096 77.7656 51.1123 77.832 51.3818 77.9648C51.6553 78.0977 51.8818 78.2852 52.0615 78.5273C52.2412 78.7656 52.3604 79.043 52.4189 79.3594L52.4248 79.4004H54.1416V79.3242C54.0869 78.7305 53.8955 78.2031 53.5674 77.7422C53.2393 77.2812 52.8076 76.9199 52.2725 76.6582C51.7412 76.3965 51.1416 76.2656 50.4736 76.2656C49.6533 76.2656 48.9463 76.4453 48.3525 76.8047C47.7627 77.1602 47.3076 77.6699 46.9873 78.334C46.667 78.998 46.5068 79.7871 46.5068 80.7012V80.7129C46.5068 81.627 46.667 82.416 46.9873 83.0801C47.3076 83.7441 47.7646 84.2559 48.3584 84.6152C48.9521 84.9746 49.6572 85.1543 50.4736 85.1543ZM57.3643 85.0371C57.6455 85.0371 57.9053 85 58.1436 84.9258C58.3857 84.8477 58.5967 84.7383 58.7764 84.5977C58.96 84.4531 59.1064 84.2812 59.2158 84.082H59.3213V84.9375H61.0088V80.5312C61.0088 80.0742 60.9033 79.6836 60.6924 79.3594C60.4854 79.0312 60.1826 78.7812 59.7842 78.6094C59.3857 78.4336 58.9014 78.3457 58.3311 78.3457C57.792 78.3457 57.3174 78.4238 56.9072 78.5801C56.501 78.7363 56.1768 78.9551 55.9346 79.2363C55.6963 79.5176 55.5537 79.8477 55.5068 80.2266L55.501 80.2793H57.083L57.0947 80.2559C57.1611 80.0645 57.29 79.918 57.4814 79.8164C57.6768 79.7109 57.9287 79.6582 58.2373 79.6582C58.5889 79.6582 58.8564 79.7344 59.04 79.8867C59.2275 80.0352 59.3213 80.25 59.3213 80.5312V82.5879C59.3213 82.8145 59.2607 83.0195 59.1396 83.2031C59.0186 83.3828 58.8545 83.5254 58.6475 83.6309C58.4404 83.7363 58.2041 83.7891 57.9385 83.7891C57.6416 83.7891 57.3994 83.7188 57.2119 83.5781C57.0244 83.4375 56.9307 83.2441 56.9307 82.998V82.9863C56.9307 82.752 57.0205 82.5664 57.2002 82.4297C57.3799 82.293 57.6533 82.2148 58.0205 82.1953L60.165 82.0547V81.0117L57.7627 81.1582C56.9619 81.2051 56.3447 81.3945 55.9111 81.7266C55.4775 82.0547 55.2607 82.5098 55.2607 83.0918V83.1035C55.2607 83.4941 55.3506 83.8359 55.5303 84.1289C55.71 84.418 55.958 84.6426 56.2744 84.8027C56.5947 84.959 56.958 85.0371 57.3643 85.0371ZM62.6846 84.9375H64.3955V81.3281C64.3955 81.0234 64.46 80.7617 64.5889 80.543C64.7178 80.3242 64.9014 80.1562 65.1396 80.0391C65.3779 79.918 65.6592 79.8574 65.9834 79.8574C66.1162 79.8574 66.2471 79.8672 66.376 79.8867C66.5088 79.9023 66.6396 79.9258 66.7686 79.957V78.4629C66.6826 78.4395 66.583 78.4199 66.4697 78.4043C66.3604 78.3887 66.2471 78.3809 66.1299 78.3809C65.7119 78.3809 65.3623 78.4785 65.0811 78.6738C64.7998 78.8652 64.6064 79.1367 64.501 79.4883H64.3955V78.4863H62.6846V84.9375Z" fill="black"/>
</svg>
