<svg width="112" height="99" viewBox="0 0 112 99" fill="none" xmlns="http://www.w3.org/2000/svg">
<rect x="1.5" y="1.5" width="109" height="96" rx="14.5" fill="white" stroke="#ADC6F7" stroke-width="3"/>
<path d="M54.314 62.3677H58.6005V54.8428H54.314V62.3677Z" fill="#383837"/>
<path d="M65.2186 64.272H47.8862L54.3133 60.2785H58.5996L65.2186 64.272Z" fill="#383837"/>
<path d="M54.3115 62.3662H56.55V54.8423H54.3115V62.3662Z" fill="#4A4A49"/>
<path d="M56.5507 60.2785V64.272H47.8853L54.3123 60.2785H56.5507Z" fill="#4A4A49"/>
<path d="M81.4561 54.5586C81.4561 56.451 79.9223 57.9863 78.0283 57.9863H34.8838C32.9914 57.9863 31.4561 56.451 31.4561 54.5586V26.3669C31.4561 24.4737 32.9914 22.9375 34.8838 22.9375H78.0283C79.9223 22.9375 81.4561 24.4737 81.4561 26.3669V54.5586Z" fill="#4A4A49"/>
<path d="M34.313 53.6997C34.313 54.8043 35.2084 55.6997 36.313 55.6997H76.5047C77.6093 55.6997 78.5047 54.8043 78.5047 53.6997V27.4149C78.5047 26.3103 77.6093 25.4149 76.5047 25.4149H36.313C35.2084 25.4149 34.313 26.3103 34.313 27.4149V53.6997Z" fill="#01BCD6"/>
<path d="M78.5048 55.6997H36.7341C35.997 55.6997 35.7021 54.7477 36.3102 54.331L77.3309 26.2194C77.8286 25.8783 78.5048 26.2347 78.5048 26.8381V55.6997Z" fill="#01A3B7"/>
<path d="M34.0381 84.9375H35.6143V79.1836H36.4873L34.8057 76.7168L37.8994 84.9375H39.0068L42.1064 76.7168L40.4189 79.1836H41.292V84.9375H42.8682V76.4824H40.8408L38.5088 82.6699H38.4033L36.0654 76.4824H34.0381V84.9375ZM47.6201 85.0723C48.2842 85.0723 48.8525 84.9395 49.3252 84.6738C49.8018 84.4043 50.167 84.0195 50.4209 83.5195C50.6748 83.0156 50.8018 82.4141 50.8018 81.7148V81.7031C50.8018 81.0078 50.6729 80.4102 50.415 79.9102C50.1572 79.4062 49.79 79.0195 49.3135 78.75C48.8408 78.4805 48.2764 78.3457 47.6201 78.3457C46.9639 78.3457 46.3975 78.4824 45.9209 78.7559C45.4482 79.0254 45.083 79.4102 44.8252 79.9102C44.5674 80.4102 44.4385 81.0078 44.4385 81.7031V81.7148C44.4385 82.4141 44.5654 83.0156 44.8193 83.5195C45.0732 84.0195 45.4385 84.4043 45.915 84.6738C46.3916 84.9395 46.96 85.0723 47.6201 85.0723ZM47.6201 83.7305C47.3154 83.7305 47.0557 83.6523 46.8408 83.4961C46.6299 83.3359 46.4678 83.1055 46.3545 82.8047C46.2451 82.5039 46.1904 82.1406 46.1904 81.7148V81.7031C46.1904 81.2812 46.2471 80.9219 46.3604 80.625C46.4736 80.3242 46.6357 80.0938 46.8467 79.9336C47.0615 79.7695 47.3193 79.6875 47.6201 79.6875C47.9209 79.6875 48.1768 79.7695 48.3877 79.9336C48.6025 80.0938 48.7666 80.3242 48.8799 80.625C48.9932 80.9219 49.0498 81.2812 49.0498 81.7031V81.7148C49.0498 82.1367 48.9932 82.498 48.8799 82.7988C48.7666 83.0996 48.6045 83.3301 48.3936 83.4902C48.1826 83.6504 47.9248 83.7305 47.6201 83.7305ZM52.1963 84.9375H53.9072V81.2051C53.9072 80.9121 53.958 80.6582 54.0596 80.4434C54.165 80.2285 54.3115 80.0625 54.499 79.9453C54.6904 79.8242 54.917 79.7637 55.1787 79.7637C55.585 79.7637 55.8838 79.8809 56.0752 80.1152C56.2666 80.3496 56.3623 80.6953 56.3623 81.1523V84.9375H58.0732V80.7656C58.0732 79.9922 57.8838 79.3965 57.5049 78.9785C57.1299 78.5566 56.583 78.3457 55.8643 78.3457C55.4033 78.3457 55.0166 78.4473 54.7041 78.6504C54.3916 78.8535 54.1611 79.1309 54.0127 79.4824H53.9072V78.4863H52.1963V84.9375ZM59.7432 84.9375H61.4541V78.4863H59.7432V84.9375ZM60.6045 77.4961C60.8701 77.4961 61.0967 77.4043 61.2842 77.2207C61.4717 77.0332 61.5654 76.8086 61.5654 76.5469C61.5654 76.2812 61.4717 76.0566 61.2842 75.873C61.0967 75.6855 60.8701 75.5918 60.6045 75.5918C60.3428 75.5918 60.1162 75.6855 59.9248 75.873C59.7334 76.0566 59.6377 76.2812 59.6377 76.5469C59.6377 76.8086 59.7334 77.0332 59.9248 77.2207C60.1162 77.4043 60.3428 77.4961 60.6045 77.4961ZM65.8545 84.9609C66.0225 84.9609 66.1807 84.9531 66.3291 84.9375C66.4775 84.9219 66.6045 84.9043 66.71 84.8848V83.6133C66.6279 83.6211 66.5498 83.6289 66.4756 83.6367C66.4053 83.6406 66.3154 83.6426 66.2061 83.6426C65.917 83.6426 65.7061 83.5762 65.5732 83.4434C65.4443 83.3066 65.3799 83.0938 65.3799 82.8047V79.7754H66.71V78.4863H65.3799V76.9453H63.6514V78.4863H62.6553V79.7754H63.6514V83.1973C63.6514 83.8223 63.8232 84.2734 64.167 84.5508C64.5107 84.8242 65.0732 84.9609 65.8545 84.9609ZM70.9521 85.0723C71.6162 85.0723 72.1846 84.9395 72.6572 84.6738C73.1338 84.4043 73.499 84.0195 73.7529 83.5195C74.0068 83.0156 74.1338 82.4141 74.1338 81.7148V81.7031C74.1338 81.0078 74.0049 80.4102 73.7471 79.9102C73.4893 79.4062 73.1221 79.0195 72.6455 78.75C72.1729 78.4805 71.6084 78.3457 70.9521 78.3457C70.2959 78.3457 69.7295 78.4824 69.2529 78.7559C68.7803 79.0254 68.415 79.4102 68.1572 79.9102C67.8994 80.4102 67.7705 81.0078 67.7705 81.7031V81.7148C67.7705 82.4141 67.8975 83.0156 68.1514 83.5195C68.4053 84.0195 68.7705 84.4043 69.2471 84.6738C69.7236 84.9395 70.292 85.0723 70.9521 85.0723ZM70.9521 83.7305C70.6475 83.7305 70.3877 83.6523 70.1729 83.4961C69.9619 83.3359 69.7998 83.1055 69.6865 82.8047C69.5771 82.5039 69.5225 82.1406 69.5225 81.7148V81.7031C69.5225 81.2812 69.5791 80.9219 69.6924 80.625C69.8057 80.3242 69.9678 80.0938 70.1787 79.9336C70.3936 79.7695 70.6514 79.6875 70.9521 79.6875C71.2529 79.6875 71.5088 79.7695 71.7197 79.9336C71.9346 80.0938 72.0986 80.3242 72.2119 80.625C72.3252 80.9219 72.3818 81.2812 72.3818 81.7031V81.7148C72.3818 82.1367 72.3252 82.498 72.2119 82.7988C72.0986 83.0996 71.9365 83.3301 71.7256 83.4902C71.5146 83.6504 71.2568 83.7305 70.9521 83.7305ZM75.5283 84.9375H77.2393V81.3281C77.2393 81.0234 77.3037 80.7617 77.4326 80.543C77.5615 80.3242 77.7451 80.1562 77.9834 80.0391C78.2217 79.918 78.5029 79.8574 78.8271 79.8574C78.96 79.8574 79.0908 79.8672 79.2197 79.8867C79.3525 79.9023 79.4834 79.9258 79.6123 79.957V78.4629C79.5264 78.4395 79.4268 78.4199 79.3135 78.4043C79.2041 78.3887 79.0908 78.3809 78.9736 78.3809C78.5557 78.3809 78.2061 78.4785 77.9248 78.6738C77.6436 78.8652 77.4502 79.1367 77.3447 79.4883H77.2393V78.4863H75.5283V84.9375Z" fill="black"/>
</svg>
