<svg width="112" height="99" viewBox="0 0 112 99" fill="none" xmlns="http://www.w3.org/2000/svg">
<rect x="1.5" y="1.5" width="109" height="96" rx="14.5" fill="white" stroke="#ADC6F7" stroke-width="3"/>
<path d="M58.0547 35.1451C58.0547 35.1451 57.2088 22.3677 61.7168 19.2925C63.3298 18.1939 65.3841 19.8619 64.9165 21.3377C64.4436 22.8135 59.9514 30.8294 59.8831 36.1367L58.0547 35.1451Z" fill="#B3632E"/>
<path d="M59.8672 31.2802C52.7426 28.9919 47.7617 23.538 40.054 32.0831C31.8576 41.1752 39.8334 61.2963 42.6968 64.1445C45.5603 66.9926 48.6392 63.9256 51.5026 66.3357C54.3661 68.7452 57.2243 72.0321 67.3542 62.8294C77.4788 53.628 77.7731 39.1672 74.2476 35.4428C70.7273 31.7177 66.6922 33.4709 59.8672 31.2802Z" fill="#EB1934"/>
<path d="M60.708 24.9945C60.708 24.9945 69.435 19.2077 74.4211 29.7295C74.4211 29.7295 64.1337 36.7432 60.708 24.9945Z" fill="#92D33E"/>
<path d="M71.4 27.4584C71.4 27.449 71.4 27.4389 71.3947 27.4289C71.3474 27.1149 71.0427 27.012 70.801 27.0499C70.6119 27.08 70.4227 27.1096 70.2336 27.1391C69.4507 26.9535 68.6731 26.7661 67.885 26.578C68.0742 26.5118 68.2633 26.4444 68.4472 26.3788C68.7782 26.2605 69.1513 26.1109 69.2564 25.6929C69.2721 25.6166 69.2563 25.512 69.1985 25.4593C68.9043 25.185 68.5471 25.2713 68.2056 25.3919C67.7747 25.5457 67.3386 25.7 66.9078 25.8531C66.7081 25.9247 66.6135 26.1003 66.5978 26.2854C66.0461 26.1588 65.4944 26.0228 64.9427 25.9105C64.9112 25.8987 64.8745 25.8898 64.8429 25.8916C64.2335 25.7692 63.6292 25.6521 63.025 25.5557C62.6099 25.4901 62.4523 26.0926 62.8516 26.2647C63.4821 26.5366 64.1231 26.7791 64.7746 27.0008C65.2527 27.8753 65.7414 28.735 66.2563 29.5864C66.4349 29.8833 66.7081 29.9418 66.9918 29.8046C67.0339 29.7845 67.0707 29.7455 67.1022 29.7094C67.2546 29.535 67.3281 29.1867 67.1862 28.9739C66.829 28.4441 66.4717 27.9232 66.1039 27.407C67.0864 27.6967 68.0847 27.9415 69.0777 28.1697C69.1355 28.2561 69.1986 28.3383 69.2458 28.4346C69.3719 28.6847 69.4035 29.0011 69.5874 29.2051C69.6452 29.2719 69.7555 29.2435 69.7765 29.1489C69.8343 28.8674 69.7187 28.5594 69.5453 28.2726C70.0077 28.3761 70.4753 28.4855 70.9377 28.5795C71.5629 28.7072 71.8624 27.7635 71.4 27.4584Z" fill="#C5E56B"/>
<path d="M43.0807 51.7767C42.2033 48.6287 41.8355 45.5541 41.6778 42.2737C41.6148 40.9865 40.1069 40.7878 39.7233 41.9763C38.7198 45.0757 38.8511 48.5229 39.4764 51.7116C39.9597 54.1831 40.4063 57.8769 42.8652 58.6578C43.254 58.7803 43.6902 58.5774 43.8951 58.1878C45.0089 56.025 43.6849 53.9567 43.0807 51.7767Z" fill="#CF1D2D"/>
<path d="M47.2783 60.6624C47.0944 60.2231 46.7109 59.993 46.3641 59.7281C46.1067 59.5267 45.8439 59.3237 45.5812 59.1216C44.5935 58.359 43.3588 60.1298 44.2888 61.0042C44.5357 61.2324 44.7774 61.4613 45.0243 61.6902C45.3396 61.9886 45.6443 62.3547 46.0646 62.4339C47.0156 62.6101 47.6881 61.6558 47.2783 60.6624Z" fill="#CF1D2D"/>
<path d="M72.6291 37.546C72.1562 36.4184 70.869 37.2988 70.9951 38.3218C71.2473 40.3279 71.7727 42.4435 71.7096 44.4728C71.6571 46.2596 70.538 47.6793 69.9916 49.3112C69.3033 51.3783 71.9251 52.1937 72.9128 50.6989C75.7763 46.3879 74.5311 42.0734 72.6291 37.546Z" fill="#EF3B45"/>
<path d="M69.9394 54.2643C69.808 53.7127 69.2668 53.378 68.7835 53.527C68.2476 53.6931 68.0584 54.259 68.1319 54.8248C68.1162 54.7113 68.1057 54.8107 68.1057 54.8603C68.1004 54.8781 68.0952 54.8952 68.0952 54.9053C68.0847 54.9224 68.0741 54.9407 68.0584 54.9821C68.2002 54.7829 67.7537 55.4439 67.864 55.2523C67.8377 55.2967 67.7694 55.4563 67.7274 55.545C67.4752 56.1552 67.7694 57.1338 68.4997 57.0463C69.1197 56.9718 69.5453 56.646 69.8027 55.9985C70.0234 55.441 70.076 54.858 69.9394 54.2643Z" fill="#EF3B45"/>
<path d="M39.335 84.9375H41.1924L43.2607 78.1699H43.7764V76.4824H42.2705L39.335 84.9375ZM40.9053 82.8867H45.6807L45.2471 81.5625H41.3389L40.9053 82.8867ZM45.4287 84.9375H47.292L44.3506 76.4824H43.3662V78.1699L45.4287 84.9375ZM48.5576 87.0762H50.2686V83.9062H50.374C50.4834 84.1406 50.6318 84.3418 50.8193 84.5098C51.0107 84.6777 51.2314 84.8086 51.4814 84.9023C51.7354 84.9922 52.0107 85.0371 52.3076 85.0371C52.8506 85.0371 53.3174 84.9043 53.708 84.6387C54.0986 84.373 54.3994 83.9922 54.6104 83.4961C54.8213 83 54.9268 82.4062 54.9268 81.7148V81.7031C54.9268 81.0156 54.8193 80.4258 54.6045 79.9336C54.3936 79.4375 54.0928 79.0547 53.7021 78.7852C53.3115 78.5156 52.8467 78.3809 52.3076 78.3809C52.0029 78.3809 51.7256 78.4258 51.4756 78.5156C51.2256 78.6016 51.0068 78.7266 50.8193 78.8906C50.6357 79.0547 50.4873 79.252 50.374 79.4824H50.2686V78.4863H48.5576V87.0762ZM51.7217 83.6191C51.4248 83.6191 51.165 83.543 50.9424 83.3906C50.7236 83.2383 50.5537 83.0195 50.4326 82.7344C50.3115 82.4453 50.251 82.1055 50.251 81.7148V81.7031C50.251 81.3047 50.3096 80.9648 50.4268 80.6836C50.5479 80.3984 50.7178 80.1797 50.9365 80.0273C51.1592 79.875 51.4209 79.7988 51.7217 79.7988C52.0264 79.7988 52.2861 79.875 52.501 80.0273C52.7197 80.1797 52.8877 80.3984 53.0049 80.6836C53.126 80.9688 53.1865 81.3086 53.1865 81.7031V81.7148C53.1865 82.1094 53.126 82.4492 53.0049 82.7344C52.8877 83.0195 52.7197 83.2383 52.501 83.3906C52.2861 83.543 52.0264 83.6191 51.7217 83.6191ZM56.3271 87.0762H58.0381V83.9062H58.1436C58.2529 84.1406 58.4014 84.3418 58.5889 84.5098C58.7803 84.6777 59.001 84.8086 59.251 84.9023C59.5049 84.9922 59.7803 85.0371 60.0771 85.0371C60.6201 85.0371 61.0869 84.9043 61.4775 84.6387C61.8682 84.373 62.1689 83.9922 62.3799 83.4961C62.5908 83 62.6963 82.4062 62.6963 81.7148V81.7031C62.6963 81.0156 62.5889 80.4258 62.374 79.9336C62.1631 79.4375 61.8623 79.0547 61.4717 78.7852C61.0811 78.5156 60.6162 78.3809 60.0771 78.3809C59.7725 78.3809 59.4951 78.4258 59.2451 78.5156C58.9951 78.6016 58.7764 78.7266 58.5889 78.8906C58.4053 79.0547 58.2568 79.252 58.1436 79.4824H58.0381V78.4863H56.3271V87.0762ZM59.4912 83.6191C59.1943 83.6191 58.9346 83.543 58.7119 83.3906C58.4932 83.2383 58.3232 83.0195 58.2021 82.7344C58.0811 82.4453 58.0205 82.1055 58.0205 81.7148V81.7031C58.0205 81.3047 58.0791 80.9648 58.1963 80.6836C58.3174 80.3984 58.4873 80.1797 58.7061 80.0273C58.9287 79.875 59.1904 79.7988 59.4912 79.7988C59.7959 79.7988 60.0557 79.875 60.2705 80.0273C60.4893 80.1797 60.6572 80.3984 60.7744 80.6836C60.8955 80.9688 60.9561 81.3086 60.9561 81.7031V81.7148C60.9561 82.1094 60.8955 82.4492 60.7744 82.7344C60.6572 83.0195 60.4893 83.2383 60.2705 83.3906C60.0557 83.543 59.7959 83.6191 59.4912 83.6191ZM64.1553 84.9375H65.8662V76.0195H64.1553V84.9375ZM70.4717 85.0723C70.9443 85.0723 71.3525 85.0137 71.6963 84.8965C72.0439 84.7754 72.333 84.6191 72.5635 84.4277C72.7979 84.2363 72.9814 84.0312 73.1143 83.8125C73.2471 83.5898 73.3389 83.377 73.3896 83.1738L73.4014 83.1152H71.8076L71.79 83.1504C71.751 83.2324 71.6768 83.3242 71.5674 83.4258C71.4619 83.5234 71.3213 83.6094 71.1455 83.6836C70.9697 83.7578 70.7568 83.7949 70.5068 83.7949C70.1982 83.7949 69.9326 83.7266 69.71 83.5898C69.4873 83.4531 69.3154 83.2559 69.1943 82.998C69.0732 82.7402 69.0127 82.4297 69.0127 82.0664V81.375C69.0127 81 69.0732 80.6836 69.1943 80.4258C69.3193 80.1641 69.4873 79.9668 69.6982 79.834C69.9131 79.6973 70.1572 79.6289 70.4307 79.6289C70.708 79.6289 70.9502 79.6953 71.1572 79.8281C71.3682 79.957 71.5322 80.1504 71.6494 80.4082C71.7705 80.666 71.8311 80.9883 71.8311 81.375V82.0605L72.6338 81.0469H68.1748V82.1191H73.4541V81.5859C73.4541 80.9336 73.3311 80.3652 73.085 79.8809C72.8389 79.3965 72.4873 79.0195 72.0303 78.75C71.5732 78.4805 71.0303 78.3457 70.4014 78.3457C69.7764 78.3457 69.2314 78.4844 68.7666 78.7617C68.3057 79.0391 67.9482 79.4297 67.6943 79.9336C67.4443 80.4375 67.3193 81.0312 67.3193 81.7148V81.7207C67.3193 82.4121 67.4463 83.0078 67.7002 83.5078C67.9541 84.0078 68.3154 84.3945 68.7842 84.668C69.2568 84.9375 69.8193 85.0723 70.4717 85.0723Z" fill="black"/>
</svg>
