<svg width="36" height="36" viewBox="0 0 36 36" fill="none" xmlns="http://www.w3.org/2000/svg">
<circle cx="18" cy="18" r="18" fill="#C1ECFF"/>
<g clip-path="url(#clip0_373_51773)">
<path fill-rule="evenodd" clip-rule="evenodd" d="M18.0785 11.2578C18.2403 11.3321 18.3774 11.4512 18.4735 11.601C18.5697 11.7509 18.6208 11.9251 18.621 12.1031V25.1376C18.6211 25.3157 18.5701 25.4901 18.4741 25.6401C18.3781 25.7901 18.2411 25.9094 18.0793 25.9839C17.9175 26.0584 17.7378 26.0849 17.5614 26.0603C17.385 26.0358 17.2194 25.9611 17.0841 25.8452L13 22.3445H10.8624C10.2862 22.3445 9.73363 22.1156 9.32623 21.7082C8.91882 21.3008 8.68994 20.7483 8.68994 20.1721V17.0687C8.68994 15.8695 9.66318 14.8963 10.8624 14.8963H13.0013L17.0841 11.3956C17.2194 11.28 17.3849 11.2056 17.5612 11.1812C17.7374 11.1568 17.9169 11.1833 18.0785 11.2578ZM16.7589 14.1266L13.9509 16.5336C13.7823 16.6784 13.5674 16.7581 13.3451 16.7583H10.8624C10.78 16.7583 10.7011 16.791 10.6429 16.8492C10.5847 16.9074 10.552 16.9864 10.552 17.0687V20.1721C10.552 20.3434 10.691 20.4825 10.8624 20.4825H13.3451C13.5672 20.4823 13.7821 20.5615 13.9509 20.7059L16.7589 23.1142V14.1266ZM24.3264 11.5967C24.5009 11.4223 24.7376 11.3244 24.9843 11.3244C25.231 11.3244 25.4676 11.4223 25.6422 11.5967C26.5645 12.5189 27.296 13.6137 27.7951 14.8186C28.2942 16.0235 28.5511 17.3149 28.5511 18.6191C28.5511 19.9234 28.2942 21.2148 27.7951 22.4197C27.296 23.6246 26.5645 24.7194 25.6422 25.6416C25.4657 25.8061 25.2323 25.8956 24.9911 25.8914C24.7499 25.8871 24.5197 25.7894 24.3492 25.6188C24.1786 25.4482 24.0809 25.2181 24.0766 24.9769C24.0724 24.7357 24.1619 24.5023 24.3264 24.3258C25.0757 23.5765 25.6702 22.6869 26.0758 21.7079C26.4813 20.7288 26.6901 19.6795 26.6901 18.6198C26.6901 17.56 26.4813 16.5107 26.0758 15.5317C25.6702 14.5526 25.0757 13.6631 24.3264 12.9138C24.152 12.7392 24.0541 12.5026 24.0541 12.2558C24.0541 12.0091 24.152 11.7725 24.3264 11.5979V11.5967ZM23.0105 14.2296C22.8358 14.055 22.5989 13.9569 22.3519 13.9569C22.1049 13.9569 21.868 14.055 21.6934 14.2296C21.5187 14.4043 21.4206 14.6412 21.4206 14.8882C21.4206 15.1352 21.5187 15.3721 21.6934 15.5467C22.0969 15.9502 22.417 16.4292 22.6353 16.9564C22.8537 17.4835 22.9661 18.0485 22.9661 18.6191C22.9661 19.1898 22.8537 19.7548 22.6353 20.2819C22.417 20.8091 22.0969 21.2881 21.6934 21.6916C21.6019 21.7768 21.5285 21.8796 21.4777 21.9938C21.4268 22.108 21.3994 22.2313 21.3972 22.3563C21.395 22.4813 21.418 22.6055 21.4648 22.7214C21.5116 22.8373 21.5813 22.9426 21.6698 23.0311C21.7582 23.1195 21.8635 23.1892 21.9794 23.236C22.0953 23.2828 22.2195 23.3058 22.3445 23.3036C22.4695 23.3014 22.5928 23.274 22.707 23.2232C22.8212 23.1723 22.924 23.0989 23.0092 23.0074C24.1729 21.8435 24.8265 20.265 24.8265 18.6191C24.8265 16.9733 24.1729 15.3948 23.0092 14.2309L23.0105 14.2296Z" fill="#174255"/>
</g>
<defs>
<clipPath id="clip0_373_51773">
<rect width="19.8621" height="19.8621" fill="white" transform="translate(8.68994 8.68945)"/>
</clipPath>
</defs>
</svg>
