<svg width="107" height="94" viewBox="0 0 107 94" fill="none" xmlns="http://www.w3.org/2000/svg">
<rect x="1.53027" y="1.5" width="103.343" height="91" rx="14.5" fill="white" stroke="#ADC6F7" stroke-width="3"/>
<path d="M45.1805 33.3685C43.961 33.0319 42.6049 33.4548 41.6878 34.3869C40.7719 35.3189 40.2988 36.7164 40.3722 38.0755C40.4506 39.5153 41.0907 40.8484 41.345 42.265C41.4436 42.8152 41.4841 43.3805 41.6448 43.9143C41.8054 44.448 42.1128 44.9627 42.5859 45.1926C43.054 45.4198 43.6055 45.3281 44.085 45.1269C44.9199 44.7765 45.6157 44.1141 46.2001 43.3777C47.6941 41.493 48.5479 39.0281 48.5682 36.5453C48.5707 36.1128 48.5479 35.6707 48.3961 35.271C48.133 34.5785 47.6043 34.3006 46.9844 34.1035C46.3709 33.9092 45.8079 33.541 45.1805 33.3685Z" fill="#929FA5"/>
<path d="M74.468 35.9841C75.7963 35.9376 77.1005 35.3176 78.0303 34.291C77.7052 35.0206 76.8437 36.0197 76.1442 36.3112C74.7615 36.8888 73.351 37.1406 72.8248 37.1858C72.1594 37.2419 71.1765 36.3988 70.6743 35.8431C70.3074 35.4366 70.2201 35.0465 70.7907 34.9713C71.3232 34.9015 71.8482 35.3504 72.3074 35.5557C72.9892 35.8595 73.7305 36.0101 74.468 35.9841Z" fill="#ACBCC6"/>
<path d="M73.3901 63.1371C73.4572 63.2001 73.528 63.2644 73.614 63.2904C73.6988 63.3137 73.7873 63.2986 73.8733 63.2795C75.2927 62.9743 76.5653 61.9532 77.2471 60.5722C77.2939 60.4778 77.3395 60.3765 77.3395 60.2697C77.3395 60.1178 77.2497 59.985 77.1662 59.8632C75.9657 58.1168 75.0966 56.1048 74.6285 53.9875C74.4527 53.1936 74.3313 52.3779 74.0239 51.632C73.7178 50.8874 73.1877 50.2003 72.4654 49.9622C71.59 49.672 70.6058 50.1251 70.0138 50.8819C69.4218 51.6388 69.1662 52.6421 69.0726 53.6289C68.7121 57.4626 70.8146 60.7214 73.3901 63.1371Z" fill="#929FA5"/>
<path d="M43.8939 59.6499C43.794 59.7334 43.6852 59.8306 43.6675 59.9647C43.6536 60.0715 43.7017 60.1755 43.751 60.2699C44.128 60.994 44.6529 61.6277 45.2791 62.1081C45.4663 62.2531 45.6738 62.3887 45.904 62.4051C46.1583 62.4229 46.3987 62.2942 46.6238 62.1656C47.9622 61.4046 49.2449 60.53 50.4593 59.5541C50.6086 59.4337 50.7604 59.3078 50.854 59.1339C50.9261 59.0025 50.959 58.8506 50.9881 58.7C51.1576 57.7994 51.1677 56.8468 50.8932 55.9764C50.6175 55.1072 50.033 54.3312 49.2462 53.9822C48.6972 53.7386 47.694 53.6441 47.226 54.1478C46.8756 54.5242 46.8174 55.3317 46.6238 55.8149C46.0242 57.3108 45.0805 58.6453 43.8939 59.6499Z" fill="#929FA5"/>
<path d="M36.3619 47.7982C38.3581 46.847 39.7509 44.8405 40.8072 42.7752C41.8635 40.7098 42.6857 38.4871 44.0077 36.6092C45.68 34.2359 48.0823 32.5374 50.6705 31.5082C53.2587 30.4789 56.0329 30.0875 58.7893 30.0122C61.2194 29.9465 63.6837 30.1258 65.9974 30.932C68.3111 31.7395 70.4768 33.2163 71.8746 35.3679C72.7235 36.6749 73.2662 38.1887 73.6507 39.7312C74.8044 44.3546 74.5818 49.2313 74.3515 54.0135C74.2896 55.274 74.1972 56.629 73.4572 57.6035C72.8575 58.3932 71.9303 58.7956 71.0233 59.083C69.3067 59.6278 67.5192 59.8755 65.7355 60.0261C62.4022 60.3066 59.0449 60.2588 55.7192 59.8728C53.0323 59.5621 50.2328 58.9653 48.1557 57.0944C46.0735 55.2165 45.0323 52.3477 44.0709 49.6049C43.5535 50.693 42.2885 51.0311 41.1715 51.2295C37.9407 51.8044 34.3329 52.0822 31.6827 50.0018C30.3873 48.9849 29.4752 47.5095 28.6074 46.0546C29.3512 45.8137 30.0584 45.4373 30.6884 44.9459C30.5986 45.0157 30.5872 46.0121 30.6087 46.1572C30.6568 46.4638 30.7668 46.6335 30.9641 46.8689C31.3879 47.3753 31.9471 47.738 32.5378 47.9666C33.7611 48.4402 35.1766 48.3649 36.3619 47.7982Z" fill="#ACBCC6"/>
<path d="M54.4604 36.1921C55.5597 36.8778 56.3415 38.0837 56.6919 39.4031C57.0435 40.7225 56.9866 42.1445 56.664 43.4722C56.4869 44.1962 56.2301 44.9066 55.8253 45.5143C55.0132 46.7351 53.6052 47.4605 52.2188 47.3716C50.831 47.284 49.5117 46.3834 48.8374 45.0694C49.313 46.6667 50.64 47.9314 52.1656 48.2379C53.69 48.5459 55.3497 47.8821 56.3237 46.575C56.8942 45.8099 57.2282 44.8682 57.4673 43.9184C57.7001 42.9904 57.8519 42.0227 57.7456 41.0674C57.6925 40.5774 57.571 40.0984 57.4281 39.6289C57.1498 38.7174 56.7817 37.825 56.2301 37.0736C55.6786 36.3208 54.931 35.7131 54.0695 35.4791C53.3117 35.2738 52.5161 35.3641 51.7406 35.4558C51.2612 35.5133 50.6059 35.6378 50.4288 36.2045C51.7507 35.5352 53.1372 35.3654 54.4604 36.1921Z" fill="#929FA5"/>
<path d="M52.5962 37.8331C53.383 38.0138 54.1243 38.5065 54.5405 39.2511C55.0794 40.2174 55.0098 41.4437 54.7745 42.5428C54.524 43.7116 54.0041 44.9558 52.9744 45.4006C52.2559 45.7113 51.4045 45.5471 50.7644 45.0776C50.1231 44.6081 49.6829 43.8636 49.4463 43.067C49.3742 42.822 49.3185 42.5606 49.3679 42.3087C49.4602 41.8311 49.8903 41.5259 50.1193 41.1043C50.6114 40.1928 49.8119 39.002 50.2597 38.2095C50.6354 37.5416 52.0244 37.7004 52.5962 37.8331Z" fill="#F7CDCB"/>
<path d="M45.9334 39.0114C46.1218 38.6665 46.4444 38.412 46.8062 38.323C46.9896 38.2792 47.1984 38.2819 47.3464 38.4079C47.4488 38.4955 47.507 38.6323 47.5386 38.7692C47.6689 39.3427 47.3679 39.9394 46.963 40.335C46.7847 40.5088 46.5671 40.6635 46.328 40.6621C45.5981 40.6553 45.693 39.4535 45.9334 39.0114Z" fill="#929FA5"/>
<path d="M45.7042 40.1517C45.7067 40.2804 45.7257 40.4132 45.7902 40.5213C45.856 40.628 45.9749 40.7047 46.0913 40.6842C46.2165 40.6609 46.3051 40.5391 46.3646 40.4173C46.5012 40.1422 46.6795 39.5303 46.2722 39.4085C45.8889 39.2936 45.6991 39.8356 45.7042 40.1517Z" fill="#4B5254"/>
<path d="M61.5572 58.014C63.3573 57.7896 65.1562 57.3187 66.7387 56.362C68.3199 55.404 69.6748 53.923 70.3073 52.0849C70.1744 54.5855 69.8961 57.0778 69.4736 59.5401C68.6324 59.9425 67.7406 60.2217 66.831 60.3654C65.8532 60.5187 64.8627 60.5187 63.876 60.5174C60.74 60.5146 57.5838 60.5091 54.4984 59.9083C53.809 59.7742 53.0955 59.5949 52.5554 59.1145C52.1367 58.7408 51.2208 57.1176 51.9684 56.6686C52.296 56.4715 52.9209 56.8917 53.2119 57.0149C53.723 57.2298 54.2454 57.4118 54.7742 57.5637C56.9778 58.1974 59.2979 58.296 61.5572 58.014Z" fill="#A4B3BA"/>
<path d="M49.8852 61.2801C50.2255 61.9371 50.5784 62.6119 51.1211 63.0854C51.383 63.314 51.684 63.4892 52.0016 63.6137C52.7732 63.919 53.6448 63.9176 54.4165 63.611C54.166 62.1766 54.0382 60.7162 54.0382 59.2559C54.0382 58.5291 54.0686 57.7955 53.9509 57.0796C53.5803 54.8241 51.6967 53.0653 49.6195 52.6246C48.2533 52.3344 45.4615 52.8805 46.5721 54.9335C47.7056 57.0304 48.7884 59.16 49.8852 61.2801Z" fill="#ACBCC6"/>
<path d="M67.1359 62.8074C67.0044 63.296 66.9032 63.9132 67.3042 64.2267C67.4851 64.3676 67.7254 64.4032 67.9544 64.4279C68.5477 64.4922 69.146 64.5209 69.7431 64.5155C70.1859 64.51 70.6527 64.4771 71.0208 64.2349C71.2649 64.0734 71.4433 63.8325 71.6065 63.5889C72.893 61.67 73.4711 59.3692 73.8493 57.0917C73.9733 56.3512 74.077 55.5848 73.8886 54.858C73.5293 53.4702 72.0037 52.4875 70.5856 52.7324C68.7855 53.0418 68.2289 54.6253 68.2871 56.1952C68.3668 58.3495 67.6913 60.742 67.1359 62.8074Z" fill="#ACBCC6"/>
<path d="M37.4906 50.9243C39.3691 50.7888 41.1477 49.9964 42.8833 49.2066C43.4019 49.6761 43.8763 50.2031 44.2976 50.7765C41.1705 51.777 39.0554 52.3998 35.7752 51.9166C35.0655 51.8112 33.0048 51.1639 32.3445 50.8641C30.4331 49.9964 29.1706 48.0323 28.0713 46.1312C28.5849 45.9779 28.9808 45.6919 29.3603 46.1052C29.6715 46.4446 29.8739 47.0058 30.1598 47.389C30.743 48.1665 31.4425 48.8412 32.2192 49.3859C33.7701 50.4754 35.6386 51.0571 37.4906 50.9243Z" fill="#A4B3BA"/>
<path d="M39.8116 47.826C39.6421 47.774 39.4397 47.7343 39.3081 47.8616C39.1019 48.0615 39.2815 48.4269 39.47 48.6472C40.7856 50.187 42.5288 51.4722 44.4656 51.5146C44.6199 51.5187 44.778 51.5133 44.9159 51.4393C45.1917 51.2915 45.2954 50.9261 45.3384 50.5962C45.4118 50.0378 45.3625 49.3877 44.8653 49.0715C44.4592 48.8128 43.9393 48.9634 43.4852 48.9169C42.2126 48.7869 41.0298 48.1969 39.8116 47.826Z" fill="#CCDEE2"/>
<path d="M28.2571 45.6512C28.8049 45.2214 29.4425 44.9285 30.1079 44.8053C30.2989 44.7711 30.5468 44.7821 30.6189 44.9764C30.6644 45.101 30.61 45.2392 30.5481 45.3542C30.1382 46.1151 29.3197 46.5942 28.5063 46.5477C28.0142 46.5189 27.8574 45.9646 28.2571 45.6512Z" fill="#F7CDCB"/>
</svg>
