<svg width="107" height="94" viewBox="0 0 107 94" fill="none" xmlns="http://www.w3.org/2000/svg">
<rect x="1.84375" y="1.5" width="103.343" height="91" rx="14.5" fill="white" stroke="#ADC6F7" stroke-width="3"/>
<path d="M78.3438 36.0001C78.3438 36.0001 77.3979 49.1795 64.2507 54.0377C61.2808 55.1343 57.6867 55.8054 53.3437 55.8054C48.999 55.8054 45.4053 55.1343 42.4365 54.0377C29.2876 49.1795 28.3438 36.0001 28.3438 36.0001H78.3438Z" fill="#BF7B81"/>
<path d="M64.2508 54.0375C64.2302 54.9399 63.957 55.7558 63.5252 56.3562C63.0772 56.9761 62.4589 57.3611 61.7788 57.3611H44.9075C43.5709 57.3611 42.4743 55.8759 42.4365 54.0375C45.4054 55.1342 48.9991 55.8053 53.3437 55.8053C57.6868 55.8053 61.2809 55.1342 64.2508 54.0375Z" fill="#A56869"/>
<path d="M30.532 41.4514C30.2395 41.266 29.9675 41.1053 29.7002 40.964L29.9561 40.27C30.2367 40.4183 30.5214 40.5861 30.8268 40.7803L30.532 41.4514Z" fill="#A56869"/>
<path d="M58.8762 40.9853L58.8557 40.2259C59.4799 40.2012 60.1159 40.1994 60.7519 40.2206L60.7343 40.9782C60.1115 40.9588 59.4887 40.9606 58.8762 40.9853ZM63.8217 41.2678C63.2092 41.1725 62.5864 41.1001 61.9724 41.0489L62.015 40.293C62.6422 40.3442 63.2767 40.4184 63.901 40.5138L63.8217 41.2678ZM55.7915 41.2961L55.707 40.5438C56.3294 40.4414 56.9639 40.3619 57.5925 40.3072L57.6395 41.0648C57.0226 41.1177 56.4013 41.1972 55.7915 41.2961ZM66.8694 41.923C66.2687 41.7552 65.6547 41.6087 65.0466 41.4851L65.1524 40.738C65.7722 40.8634 66.3979 41.0135 67.0104 41.1831L66.8694 41.923ZM52.7493 41.9813L52.6011 41.2449L52.6612 41.2272C53.2531 41.0559 53.8575 40.9058 54.4577 40.7769L54.5677 41.5257C53.9799 41.6511 53.388 41.7976 52.8085 41.9654L52.7493 41.9813ZM69.8481 42.9385C69.265 42.7018 68.6672 42.4811 68.0709 42.2868L68.2368 41.5539C68.8449 41.7535 69.4559 41.9778 70.0508 42.2197L69.8481 42.9385ZM49.7557 42.9914L49.5703 42.2656C50.2796 42.0042 50.8546 41.8012 51.3797 41.6263L51.5482 42.3574C51.0288 42.5305 50.4592 42.7318 49.7557 42.9914ZM33.2206 43.3429C32.9053 43.1221 32.588 42.8925 32.2814 42.6683C32.0572 42.5058 31.8329 42.3433 31.6079 42.1826L31.93 41.5292C32.1567 41.6917 32.3824 41.8559 32.6082 42.0201C32.9128 42.2409 33.2276 42.4705 33.5383 42.6877L33.2206 43.3429ZM46.7621 44.1005L46.5829 43.3729C47.1662 43.1645 47.739 42.9508 48.3737 42.7142L48.5617 43.4382C47.9245 43.6766 47.3495 43.8921 46.7621 44.1005ZM72.7284 44.3036C72.1673 43.998 71.5901 43.7084 71.0128 43.4435L71.239 42.7336C71.828 43.0056 72.4155 43.3005 72.9883 43.6131L72.7284 44.3036ZM36.1211 44.9517C35.8643 44.8563 35.6089 44.7503 35.3617 44.6338C35.0317 44.4766 34.6959 44.2947 34.3355 44.0775L34.6192 43.3994C34.9622 43.606 35.2805 43.7791 35.5926 43.9256C35.8249 44.0369 36.065 44.1375 36.3064 44.2258L36.1211 44.9517ZM43.7081 45.0488L43.5796 44.3053C43.7543 44.2612 43.9285 44.2152 44.1022 44.1676C44.5114 44.0545 44.9313 43.9292 45.3863 43.7808L45.5508 44.5137C45.0879 44.6638 44.6601 44.7927 44.243 44.9075C44.0653 44.957 43.8868 45.0029 43.7081 45.0488ZM40.5605 45.5503L40.5298 44.7927C41.116 44.7592 41.7334 44.6832 42.3649 44.5684L42.4593 45.319C41.8067 45.4373 41.168 45.515 40.5605 45.5503ZM39.2832 45.5645C38.6233 45.5362 37.9801 45.455 37.3714 45.319L37.4863 44.572C38.0643 44.7009 38.676 44.7786 39.3047 44.8051L39.2832 45.5645Z" fill="#A56869"/>
<path d="M74.6819 45.469C74.4073 45.2906 74.1267 45.1158 73.8506 44.948L74.1341 44.2699C74.4161 44.4412 74.701 44.6196 74.9816 44.8015L74.6819 45.469Z" fill="#A56869"/>
<path d="M32.0994 45.0559C31.8748 44.9182 31.6658 44.7963 31.4608 44.6815C31.3944 44.6444 31.3289 44.6091 31.2622 44.5738L31.3894 44.2277L31.3887 43.848H31.4567L31.5176 43.8798C31.5875 43.9169 31.6563 43.9539 31.7261 43.9928C31.9384 44.1111 32.1543 44.2383 32.386 44.3795L32.0994 45.0559Z" fill="#A56869"/>
<path d="M62.5998 43.4611C61.9741 43.4205 61.3425 43.4063 60.7183 43.4134L60.7109 42.6558C61.3484 42.647 61.9932 42.6629 62.6336 42.7035L62.5998 43.4611ZM57.5883 43.6571L57.5134 42.9048C58.1479 42.813 58.7927 42.7459 59.4287 42.7052L59.464 43.4628C58.8397 43.5035 58.2096 43.5688 57.5883 43.6571ZM65.7195 43.8584C65.1012 43.7401 64.4725 43.643 63.8512 43.5723L63.9114 42.8165C64.546 42.8889 65.1878 42.9878 65.8194 43.1097L65.7195 43.8584ZM54.498 44.3034L54.3564 43.5635C54.9765 43.3922 55.6116 43.2421 56.2429 43.1185L56.3457 43.8672C55.7263 43.9891 55.1049 44.1357 54.498 44.3034ZM68.7849 44.6513C68.1827 44.4553 67.5673 44.2787 66.9548 44.1286L67.0796 43.3851C67.7053 43.5388 68.3354 43.7189 68.9508 43.9202L68.7849 44.6513ZM51.4826 45.3454L51.2781 44.6284C51.503 44.5348 51.7279 44.4447 51.9523 44.3582C52.3352 44.2098 52.7257 44.0703 53.1134 43.9414L53.2812 44.6743C52.9021 44.7997 52.52 44.9357 52.1454 45.0805C51.9245 45.167 51.7036 45.2553 51.4826 45.3454ZM71.7636 45.8345C71.1834 45.5608 70.5856 45.3065 69.9893 45.0787L70.1802 44.3547C70.7898 44.5878 71.4008 44.8474 71.9942 45.1264L71.7636 45.8345ZM48.5119 46.6557L48.2904 45.9458L48.8163 45.7074C49.2365 45.5184 49.6564 45.3277 50.0756 45.1423L50.2931 45.8557C49.8754 46.0394 49.4571 46.2284 49.0385 46.4173L48.5119 46.6557ZM34.8728 46.8871C34.5094 46.6504 34.1434 46.4032 33.7893 46.163C33.5954 46.0323 33.4015 45.8999 33.207 45.771L33.514 45.107C33.7092 45.2376 33.9041 45.3701 34.0989 45.5025C34.4506 45.7392 34.8145 45.9864 35.1732 46.2195L34.8728 46.8871ZM45.4997 47.9202L45.3142 47.1943C45.8477 46.9965 46.433 46.7599 47.1037 46.4703L47.3172 47.1855C46.6372 47.4787 46.0426 47.7188 45.4997 47.9202ZM37.8339 48.4429C37.2623 48.238 36.6684 47.959 36.0179 47.5899L36.288 46.903C36.9088 47.2561 37.4731 47.521 38.0132 47.7153L37.8339 48.4429ZM42.3626 48.7855L42.2784 48.0332C42.8599 47.9396 43.4587 47.7983 44.1091 47.6005L44.263 48.3369C43.5894 48.54 42.9679 48.6866 42.3626 48.7855ZM40.6843 48.9268C40.1476 48.9268 39.619 48.8791 39.1129 48.7855L39.2083 48.0349C39.7966 48.1444 40.421 48.1851 41.0471 48.1603L41.0683 48.9179C40.9403 48.9232 40.8123 48.9268 40.6843 48.9268Z" fill="#A56869"/>
<path d="M73.7772 46.8872C73.4967 46.7247 73.2102 46.5658 72.9268 46.4157L73.1823 45.7217C73.4717 45.8753 73.764 46.0378 74.0504 46.202L73.7772 46.8872Z" fill="#A56869"/>
</svg>
