<svg width="112" height="99" viewBox="0 0 112 99" fill="none" xmlns="http://www.w3.org/2000/svg">
<rect x="1.5" y="1.5" width="109" height="96" rx="14.5" fill="white" stroke="#ADC6F7" stroke-width="3"/>
<path d="M48.956 47.7153C47.4282 47.7153 46.1782 48.9653 46.1782 50.4931V64.382C46.1782 65.9098 47.4282 67.1598 48.956 67.1598C50.4838 67.1598 51.7338 65.9098 51.7338 64.382V50.4931C51.7338 48.9653 50.4838 47.7153 48.956 47.7153ZM73.956 47.7153C72.4282 47.7153 71.1782 48.9653 71.1782 50.4931V64.382C71.1782 65.9098 72.4282 67.1598 73.956 67.1598C75.4838 67.1598 76.7338 65.9098 76.7338 64.382V50.4931C76.7338 48.9653 75.4838 47.7153 73.956 47.7153Z" fill="#A4523A"/>
<path d="M50.3447 22.7153H72.5669V33.8264H50.3447V22.7153Z" fill="#C1694F"/>
<path d="M54.5117 32.4375H57.2894V50.4931H54.5117V32.4375ZM60.0672 32.4375H62.845V50.4931H60.0672V32.4375ZM65.6228 32.4375H68.4006V50.4931H65.6228V32.4375ZM42.0117 51.8819C40.4839 51.8819 39.2339 53.1319 39.2339 54.6597V67.1597C39.2339 68.6875 40.4839 69.9375 42.0117 69.9375C43.5394 69.9375 44.7894 68.6875 44.7894 67.1597V54.6597C44.7894 53.1319 43.5394 51.8819 42.0117 51.8819Z" fill="#C1694F"/>
<path d="M67.0116 49.1042C65.4838 49.1042 64.2338 50.3542 64.2338 51.8819V67.1597C64.2338 68.6875 65.4838 69.9375 67.0116 69.9375C68.5393 69.9375 69.7893 68.6875 69.7893 67.1597V51.8819C69.7893 50.3542 68.5393 49.1042 67.0116 49.1042ZM48.956 19.9375C47.4282 19.9375 46.1782 21.1875 46.1782 22.7153V50.4931H51.7338V22.7153C51.7338 21.1875 50.4838 19.9375 48.956 19.9375ZM73.956 19.9375C72.4282 19.9375 71.1782 21.1875 71.1782 22.7153V50.4931H76.7338V22.7153C76.7338 21.1875 75.4838 19.9375 73.956 19.9375Z" fill="#C1694F"/>
<path d="M51.7339 22.7153H53.1228V33.8264H51.7339V22.7153ZM71.1783 33.8264H69.7894V22.7153H71.1783V33.8264Z" fill="#A4523A"/>
<path d="M75.0243 47.7153H46.652C46.3423 47.7153 46.0381 47.8001 45.7729 47.9584L37.5034 52.182C37.5034 52.182 69.0673 55.5403 71.8451 55.5403L76.052 52.3945C76.4812 52.0723 76.734 51.5653 76.734 51.0264V49.4251C76.734 48.4806 75.9687 47.7153 75.0243 47.7153V47.7153Z" fill="#D99E82"/>
<path d="M54.5117 33.8262H57.2894V35.2151H54.5117V33.8262ZM39.2339 56.0484H44.7894V57.4373H39.2339V56.0484ZM64.2339 56.0484H69.7894V57.4373H64.2339V56.0484ZM60.0672 33.8262H62.845V35.2151H60.0672V33.8262ZM65.6228 33.8262H68.4006V35.2151H65.6228V33.8262Z" fill="#A4523A"/>
<path d="M70.4005 56.0485H38.6227C37.4255 56.0485 36.4561 55.1152 36.4561 53.9652C36.4561 52.8152 37.4255 51.8818 38.6227 51.8818H70.4005C71.5977 51.8818 72.5672 52.8152 72.5672 53.9652C72.5672 55.1152 71.5977 56.0485 70.4005 56.0485V56.0485Z" fill="#C1694F"/>
<path d="M44.9541 85.1543C45.6377 85.1543 46.2432 85.0293 46.7705 84.7793C47.2979 84.5254 47.7236 84.1758 48.0479 83.7305C48.3721 83.2852 48.5654 82.7676 48.6279 82.1777V82.1074H46.9053L46.8936 82.1602C46.835 82.4609 46.7158 82.7246 46.5361 82.9512C46.3604 83.1738 46.1377 83.3477 45.8682 83.4727C45.6025 83.5938 45.2998 83.6543 44.96 83.6543C44.5146 83.6543 44.1299 83.5352 43.8057 83.2969C43.4814 83.0586 43.2314 82.7188 43.0557 82.2773C42.8838 81.8359 42.7979 81.3145 42.7979 80.7129V80.7012C42.7979 80.0957 42.8838 79.5742 43.0557 79.1367C43.2314 78.6953 43.4814 78.3574 43.8057 78.123C44.1299 77.8848 44.5127 77.7656 44.9541 77.7656C45.29 77.7656 45.5928 77.832 45.8623 77.9648C46.1357 78.0977 46.3623 78.2852 46.542 78.5273C46.7217 78.7656 46.8408 79.043 46.8994 79.3594L46.9053 79.4004H48.6221V79.3242C48.5674 78.7305 48.376 78.2031 48.0479 77.7422C47.7197 77.2812 47.2881 76.9199 46.7529 76.6582C46.2217 76.3965 45.6221 76.2656 44.9541 76.2656C44.1338 76.2656 43.4268 76.4453 42.833 76.8047C42.2432 77.1602 41.7881 77.6699 41.4678 78.334C41.1475 78.998 40.9873 79.7871 40.9873 80.7012V80.7129C40.9873 81.627 41.1475 82.416 41.4678 83.0801C41.7881 83.7441 42.2451 84.2559 42.8389 84.6152C43.4326 84.9746 44.1377 85.1543 44.9541 85.1543ZM50.1455 84.9375H51.8564V81.2051C51.8564 80.9121 51.9072 80.6582 52.0088 80.4434C52.1143 80.2285 52.2607 80.0625 52.4482 79.9453C52.6396 79.8242 52.8662 79.7637 53.1279 79.7637C53.5342 79.7637 53.833 79.8809 54.0244 80.1152C54.2158 80.3496 54.3115 80.6953 54.3115 81.1523V84.9375H56.0225V80.7656C56.0225 80.25 55.9365 79.8125 55.7646 79.4531C55.5967 79.0938 55.3486 78.8203 55.0205 78.6328C54.6963 78.4414 54.2939 78.3457 53.8135 78.3457C53.3525 78.3457 52.9658 78.4473 52.6533 78.6504C52.3408 78.8535 52.1104 79.1309 51.9619 79.4824H51.8564V76.0195H50.1455V84.9375ZM59.4385 85.0371C59.7197 85.0371 59.9795 85 60.2178 84.9258C60.46 84.8477 60.6709 84.7383 60.8506 84.5977C61.0342 84.4531 61.1807 84.2812 61.29 84.082H61.3955V84.9375H63.083V80.5312C63.083 80.0742 62.9775 79.6836 62.7666 79.3594C62.5596 79.0312 62.2568 78.7812 61.8584 78.6094C61.46 78.4336 60.9756 78.3457 60.4053 78.3457C59.8662 78.3457 59.3916 78.4238 58.9814 78.5801C58.5752 78.7363 58.251 78.9551 58.0088 79.2363C57.7705 79.5176 57.6279 79.8477 57.5811 80.2266L57.5752 80.2793H59.1572L59.1689 80.2559C59.2354 80.0645 59.3643 79.918 59.5557 79.8164C59.751 79.7109 60.0029 79.6582 60.3115 79.6582C60.6631 79.6582 60.9307 79.7344 61.1143 79.8867C61.3018 80.0352 61.3955 80.25 61.3955 80.5312V82.5879C61.3955 82.8145 61.335 83.0195 61.2139 83.2031C61.0928 83.3828 60.9287 83.5254 60.7217 83.6309C60.5146 83.7363 60.2783 83.7891 60.0127 83.7891C59.7158 83.7891 59.4736 83.7188 59.2861 83.5781C59.0986 83.4375 59.0049 83.2441 59.0049 82.998V82.9863C59.0049 82.752 59.0947 82.5664 59.2744 82.4297C59.4541 82.293 59.7275 82.2148 60.0947 82.1953L62.2393 82.0547V81.0117L59.8369 81.1582C59.0361 81.2051 58.4189 81.3945 57.9854 81.7266C57.5518 82.0547 57.335 82.5098 57.335 83.0918V83.1035C57.335 83.4941 57.4248 83.8359 57.6045 84.1289C57.7842 84.418 58.0322 84.6426 58.3486 84.8027C58.6689 84.959 59.0322 85.0371 59.4385 85.0371ZM64.7705 84.9375H66.4814V78.4863H64.7705V84.9375ZM65.6318 77.4961C65.8975 77.4961 66.124 77.4043 66.3115 77.2207C66.499 77.0332 66.5928 76.8086 66.5928 76.5469C66.5928 76.2812 66.499 76.0566 66.3115 75.873C66.124 75.6855 65.8975 75.5918 65.6318 75.5918C65.3701 75.5918 65.1436 75.6855 64.9521 75.873C64.7607 76.0566 64.665 76.2812 64.665 76.5469C64.665 76.8086 64.7607 77.0332 64.9521 77.2207C65.1436 77.4043 65.3701 77.4961 65.6318 77.4961ZM68.2041 84.9375H69.915V81.3281C69.915 81.0234 69.9795 80.7617 70.1084 80.543C70.2373 80.3242 70.4209 80.1562 70.6592 80.0391C70.8975 79.918 71.1787 79.8574 71.5029 79.8574C71.6357 79.8574 71.7666 79.8672 71.8955 79.8867C72.0283 79.9023 72.1592 79.9258 72.2881 79.957V78.4629C72.2021 78.4395 72.1025 78.4199 71.9893 78.4043C71.8799 78.3887 71.7666 78.3809 71.6494 78.3809C71.2314 78.3809 70.8818 78.4785 70.6006 78.6738C70.3193 78.8652 70.126 79.1367 70.0205 79.4883H69.915V78.4863H68.2041V84.9375Z" fill="black"/>
</svg>
