<svg width="108" height="94" viewBox="0 0 108 94" fill="none" xmlns="http://www.w3.org/2000/svg">
<rect x="2.1875" y="1.5" width="103.343" height="91" rx="14.5" fill="white" stroke="#ADC6F7" stroke-width="3"/>
<path d="M46.5377 28.679L45.3135 29.1655C48.4894 37.1474 53.9948 50.9916 59.3336 64.4731L60.5274 63.9988C52.9128 44.7523 48.7855 34.335 46.5377 28.679Z" fill="#742B59"/>
<path d="M44.6375 22.6623C44.4152 22.1193 43.7971 21.8585 43.2526 22.0773L43.2511 22.0778C42.7063 22.2966 42.4406 22.9134 42.6578 23.4589C43.1033 24.5779 43.9106 26.6039 44.9829 29.2966L46.9763 28.5045C45.6665 25.2086 44.992 23.528 44.6375 22.6623Z" fill="#300B1D"/>
<path d="M67.0615 64.2646C66.4599 64.4394 66.1516 65.0856 66.3893 65.6835L66.4497 65.8351C66.9062 66.9842 66.388 68.336 65.2347 68.782C64.648 69.009 64.0035 68.9764 63.4367 68.6863C62.9429 68.4334 62.5755 67.9844 62.3719 67.4683C61.8898 66.2461 61.4209 65.0577 60.9642 63.8999C60.8004 63.485 60.3312 63.2826 59.9165 63.4474L59.4722 63.6242C59.059 63.7883 58.8572 64.2572 59.0205 64.6706C59.5013 65.8881 59.9807 67.1018 60.456 68.3071C61.0365 69.7785 62.3597 70.8152 64.0341 71.0121C64.2325 71.0352 64.4337 71.0402 64.633 71.027C67.7336 70.8202 69.4682 67.7714 68.4264 65.1504L68.3364 64.9239C68.1353 64.4173 67.5851 64.1127 67.0615 64.2646Z" fill="#300B1D"/>
<path d="M48.9372 50.2718C48.9372 50.2718 42.0363 47.6141 38.8123 53.3037C38.8123 53.3037 38.7945 53.2965 38.7686 53.2866C39.4532 55.9453 40.1497 57.6423 40.1497 57.6423C43.4514 51.816 50.5184 54.5378 50.5184 54.5378C50.5184 54.5378 49.8548 52.8609 48.9859 50.1903C48.9697 50.2179 48.9533 50.244 48.9372 50.2718Z" fill="#7E97D5"/>
<path d="M37.9763 49.5515C41.2028 43.8776 47.8112 46.497 47.8112 46.497L47.8433 46.4433C46.234 40.791 44.5758 33.1308 45.0216 26.6618C36.9903 32.6982 36.8151 42.5746 37.9763 49.5515Z" fill="#F4718C"/>
<path d="M48.3755 48.2497C48.2007 47.6752 48.0225 47.0718 47.8435 46.4433L47.8114 46.497C47.8114 46.497 41.203 43.8775 37.9766 49.5515C38.0775 50.1578 38.1884 50.7416 38.3053 51.2997C38.3311 51.3097 38.3487 51.3169 38.3487 51.3169C41.3502 46.0201 47.5354 47.9571 48.3755 48.2497Z" fill="#FABB5A"/>
<path d="M38.3481 51.317C38.3481 51.317 38.3305 51.3098 38.3047 51.2999C38.4527 52.0072 38.6098 52.6727 38.7679 53.2866C38.7939 53.2965 38.8116 53.3037 38.8116 53.3037C42.0357 47.6141 48.9366 50.2718 48.9366 50.2718C48.9527 50.244 48.9691 50.2179 48.9853 50.1903C48.7904 49.5911 48.5853 48.9417 48.3749 48.2498C47.5349 47.9572 41.3496 46.0202 38.3481 51.317Z" fill="white"/>
<path d="M37.9694 49.5632L37.9765 49.5517C36.8153 42.5748 36.9905 32.6984 45.0218 26.662C32.1724 31.1975 29.2238 41.912 28.9229 49.7712C32.8405 47.523 37.9694 49.5632 37.9694 49.5632Z" fill="#F1426B"/>
<path d="M38.3047 51.2999C38.1877 50.7418 38.0768 50.158 37.9759 49.5516L37.9688 49.5631C37.9688 49.5631 32.8399 47.5229 28.9223 49.7712C28.8926 50.5439 28.8879 51.2895 28.9026 51.9985C32.6516 49.2008 37.8059 51.1055 38.3047 51.2999Z" fill="#FABB5A"/>
<path d="M38.7677 53.2866C38.6096 52.6727 38.4524 52.0072 38.3044 51.2999C37.8056 51.1055 32.6514 49.2008 28.9023 51.9985C28.9191 52.8058 28.9603 53.5645 29.0155 54.2651C32.7841 51.0669 38.2512 53.0852 38.7677 53.2866Z" fill="white"/>
<path d="M29.0156 54.265C29.2413 57.1335 29.7027 59.0051 29.7027 59.0051C33.7492 55.0121 40.149 57.6422 40.149 57.6422C40.149 57.6422 39.4525 55.9451 38.7678 53.2864C38.2514 53.0851 32.7842 51.0668 29.0156 54.265Z" fill="#7E97D5"/>
<path d="M56.9443 42.8022C57.2723 43.4724 57.5835 44.1231 57.8757 44.7456C60.869 37.2055 66.8753 39.7288 66.8753 39.7288L66.8853 39.7109C66.5019 39.0607 66.084 38.385 65.631 37.6966C64.7927 37.394 59.6851 35.8834 56.9443 42.8022Z" fill="#FABB5A"/>
<path d="M57.876 44.7455C58.24 45.5214 58.5738 46.2519 58.8737 46.9202C61.6565 39.9248 67.0335 41.0923 67.7811 41.293C67.5084 40.79 67.2088 40.2595 66.8856 39.7108L66.8757 39.7287C66.8757 39.7287 60.8693 37.2054 57.876 44.7455Z" fill="white"/>
<path d="M56.9447 42.8022C59.6855 35.8835 64.7931 37.3941 65.6314 37.6966C61.4788 31.385 54.4267 24.0632 45.0215 26.662C49.0927 28.1485 53.7915 36.3583 56.9447 42.8022Z" fill="#F4718C"/>
<path d="M58.874 46.9201C59.9237 49.2601 60.5512 50.8286 60.5512 50.8286C63.6142 43.0864 69.9086 45.7347 69.9086 45.7347C69.9086 45.7347 69.1802 43.8711 67.7815 41.2929C67.0339 41.0923 61.6568 39.9248 58.874 46.9201Z" fill="#7E97D5"/>
<path d="M65.7504 37.7419C65.7504 37.7419 65.7087 37.724 65.6318 37.6964C66.0848 38.3848 66.5027 39.0606 66.8861 39.7107C69.2577 35.1133 72.6878 34.9904 74.2101 35.2005C73.775 34.5708 73.3039 33.9363 72.7962 33.3071C70.9498 33.1877 67.8356 33.6842 65.7504 37.7419Z" fill="#FABB5A"/>
<path d="M75.4859 37.1858C75.0983 36.5387 74.6744 35.8727 74.2098 35.2006C72.6875 34.9906 69.2573 35.1134 66.8857 39.7108C67.2089 40.2595 67.5085 40.7901 67.7813 41.293C67.8382 41.3082 67.8693 41.3181 67.8693 41.3181C70.5601 36.0815 74.4502 36.8644 75.4859 37.1858Z" fill="white"/>
<path d="M75.4859 37.1859C74.4502 36.8644 70.56 36.0816 67.8693 41.3182C67.8693 41.3182 67.8382 41.3082 67.7812 41.2931C69.18 43.8712 69.9084 45.7349 69.9084 45.7349C73.1119 39.5008 77.672 41.31 77.672 41.31C77.127 40.1653 76.4113 38.7298 75.4859 37.1859Z" fill="#7E97D5"/>
<path d="M65.6314 37.6964C65.7083 37.724 65.75 37.7419 65.75 37.7419C67.8352 33.6843 70.9494 33.1878 72.7958 33.3071C67.8518 27.1824 59.3524 21.6035 45.0215 26.6618C54.4267 24.063 61.4788 31.3848 65.6314 37.6964Z" fill="#F1426B"/>
<path d="M57.8692 44.7619C57.8692 44.7619 52.3457 41.5975 48.4732 48.2853C48.4732 48.2853 48.4372 48.2718 48.375 48.25C48.5853 48.9419 48.7904 49.5913 48.9854 50.1904C52.8601 43.6135 58.8627 46.9472 58.8627 46.9472L58.8736 46.9204C58.5738 46.2521 58.2399 45.5216 57.8759 44.7457L57.8692 44.7619Z" fill="white"/>
<path d="M48.473 48.2852C52.3455 41.5974 57.869 44.7618 57.869 44.7618L57.8757 44.7456C57.5836 44.1231 57.2723 43.4724 56.9444 42.8022L56.9419 42.8081C56.9419 42.8081 51.7123 39.8267 47.8428 46.4434C48.0218 47.0719 48.2 47.6753 48.3748 48.2499C48.437 48.2717 48.473 48.2852 48.473 48.2852Z" fill="#FABB5A"/>
<path d="M47.8435 46.4434C51.713 39.8267 56.9427 42.8081 56.9427 42.8081L56.9452 42.8021C53.7919 36.3582 49.0931 28.1484 45.0219 26.6619C44.576 33.1309 46.2343 40.791 47.8435 46.4434Z" fill="#F1426B"/>
<path d="M58.8627 46.9471C58.8627 46.9471 52.8601 43.6134 48.9854 50.1903C49.8543 52.8609 50.5178 54.5378 50.5178 54.5378C54.4838 47.6887 60.5508 50.8287 60.5508 50.8287C60.5508 50.8287 59.9233 49.2602 58.8736 46.9202L58.8627 46.9471Z" fill="#7E97D5"/>
<path d="M30.7184 59.0052C30.7184 59.5658 30.2638 60.0205 29.703 60.0205C29.1421 60.0205 28.6875 59.5658 28.6875 59.0052C28.6875 58.4443 29.1421 57.9896 29.703 57.9896C30.2638 57.9896 30.7184 58.4443 30.7184 59.0052Z" fill="#8467BA"/>
<path d="M41.1647 57.6424C41.1647 58.2032 40.7101 58.658 40.1492 58.658C39.5884 58.658 39.1338 58.2032 39.1338 57.6424C39.1338 57.0817 39.5884 56.627 40.1492 56.627C40.7101 56.627 41.1647 57.0817 41.1647 57.6424Z" fill="#548CD1"/>
<path d="M51.5329 54.5379C51.5329 55.0985 51.0782 55.5532 50.5176 55.5532C49.9567 55.5532 49.502 55.0985 49.502 54.5379C49.502 53.977 49.9567 53.5223 50.5176 53.5223C51.0782 53.5223 51.5329 53.977 51.5329 54.5379Z" fill="#40BC80"/>
<path d="M61.5661 50.8286C61.5661 51.3895 61.1114 51.8442 60.5508 51.8442C59.9899 51.8442 59.5352 51.3895 59.5352 50.8286C59.5352 50.268 59.9899 49.8133 60.5508 49.8133C61.1114 49.8133 61.5661 50.268 61.5661 50.8286Z" fill="#FABB5A"/>
<path d="M70.9235 45.7349C70.9235 46.2958 70.4688 46.7502 69.9082 46.7502C69.3473 46.7502 68.8926 46.2958 68.8926 45.7349C68.8926 45.174 69.3473 44.7195 69.9082 44.7195C70.4688 44.7195 70.9235 45.174 70.9235 45.7349Z" fill="#F1426B"/>
<path d="M78.6872 41.3098C78.6872 41.8707 78.2325 42.3252 77.6716 42.3252C77.1107 42.3252 76.6562 41.8707 76.6562 41.3098C76.6562 40.749 77.1107 40.2945 77.6716 40.2945C78.2325 40.2945 78.6872 40.749 78.6872 41.3098Z" fill="#F4718C"/>
<path d="M66.9203 29.6942C67.4471 29.8851 67.9399 30.1504 68.404 30.4584C68.8692 30.766 69.3053 31.1185 69.7068 31.5074C70.1071 31.8972 70.4795 32.3173 70.8024 32.7736C71.1269 33.2278 71.4118 33.7113 71.6209 34.23C71.6435 34.2859 71.6167 34.3495 71.561 34.3722C71.5182 34.3896 71.4705 34.3774 71.4404 34.3458L70.3298 33.1644C69.9579 32.781 69.5852 32.4031 69.1976 32.0401C68.8113 31.6759 68.4165 31.3204 68.0162 30.9654C67.6152 30.6106 67.2079 30.2585 66.8077 29.8764C66.7637 29.8349 66.7619 29.7655 66.8034 29.7218C66.8343 29.6892 66.8808 29.68 66.9203 29.6942Z" fill="white"/>
<path d="M55.1779 26.4389C56.0935 26.3375 57.0089 26.3596 57.9196 26.4424C58.8305 26.5235 59.7345 26.6789 60.6243 26.8942C61.0698 26.9993 61.5109 27.1251 61.9482 27.2596C62.3806 27.4123 62.8194 27.5443 63.239 27.7308C64.0918 28.0641 64.9043 28.5 65.6725 28.9908C65.7225 29.0228 65.7371 29.0895 65.7051 29.1394C65.6777 29.1824 65.625 29.1993 65.5788 29.1832L65.5745 29.1814C64.7203 28.8816 63.8899 28.5589 63.0324 28.3083C62.8211 28.2377 62.6068 28.177 62.392 28.1174L61.7503 27.9334C61.3162 27.8317 60.8908 27.7012 60.4543 27.6114C59.5878 27.4088 58.7147 27.2295 57.8351 27.0752C56.956 26.92 56.0692 26.7808 55.1791 26.6533L55.1744 26.6528C55.1155 26.6443 55.0747 26.5896 55.0831 26.5307C55.0901 26.4812 55.1301 26.4442 55.1779 26.4389Z" fill="white"/>
</svg>
