<svg width="112" height="99" viewBox="0 0 112 99" fill="none" xmlns="http://www.w3.org/2000/svg">
<rect x="1.5" y="1.5" width="109" height="96" rx="14.5" fill="white" stroke="#ADC6F7" stroke-width="3"/>
<path d="M81.4561 43.9378C81.4561 57.7447 70.2632 68.9375 56.4561 68.9375C42.6489 68.9375 31.4561 57.7447 31.4561 43.9378C31.4561 30.1306 42.6489 18.9377 56.4561 18.9377C70.2632 18.9377 81.4561 30.1306 81.4561 43.9378Z" fill="url(#paint0_linear_259_24705)"/>
<path d="M78.9109 44.4053C78.9109 56.7288 68.9206 66.7188 56.5972 66.7188C44.2739 66.7188 34.2837 56.7288 34.2837 44.4053C34.2837 32.0818 44.2739 22.0918 56.5972 22.0918C68.9206 22.0918 78.9109 32.0818 78.9109 44.4053Z" fill="url(#paint1_linear_259_24705)"/>
<path d="M76.6523 43.8743C76.6523 55.0281 67.6101 64.0703 56.4563 64.0703C45.3024 64.0703 36.2603 55.0281 36.2603 43.8743C36.2603 32.7205 45.3024 23.6783 56.4563 23.6783C67.6101 23.6783 76.6523 32.7205 76.6523 43.8743Z" fill="url(#paint2_radial_259_24705)"/>
<path d="M57.4039 64.9556H56.0449V60.8152H57.4039V64.9556Z" fill="#EBEBEB"/>
<path d="M57.2777 26.6182H55.9185V22.4778H57.2777V26.6182Z" fill="#E8E8E8"/>
<path d="M73.4595 44.4434V43.0844H77.5998V44.4434H73.4595Z" fill="#E7E7E7"/>
<path d="M35.501 44.3799V43.0209H39.6413V44.3799H35.501Z" fill="#F2F2F2"/>
<path d="M65.8515 28.1611L64.9756 27.6554L65.6053 26.5647L66.4812 27.0705L65.8515 28.1611Z" fill="#E5E5E5"/>
<path d="M47.2992 61.3149L46.4233 60.8092L47.0533 59.7186L47.9292 60.2243L47.2992 61.3149Z" fill="#EFEFEF"/>
<path d="M40.0253 54.2534L39.5195 53.3775L40.6104 52.7478L41.1162 53.6237L40.0253 54.2534Z" fill="#F0F0F0"/>
<path d="M72.3518 34.8146L71.9205 34.0678C71.9002 34.0323 71.9122 33.9868 71.9479 33.9662L72.9098 33.4109C72.9453 33.3903 72.9908 33.4023 73.0114 33.438L73.4427 34.1849C73.4633 34.2206 73.451 34.2662 73.4156 34.2865L72.4537 34.8421C72.418 34.8627 72.3724 34.8504 72.3518 34.8146Z" fill="#E4E4E4"/>
<path d="M72.1372 53.4948L72.656 52.6265L73.7374 53.2725L73.2186 54.1406L72.1372 53.4948Z" fill="#E0E0E0"/>
<path d="M39.2637 34.4494L39.7825 33.5811L40.8638 34.2271L40.345 35.0952L39.2637 34.4494Z" fill="#F1F1F1"/>
<path d="M46.4331 27.2814L47.3165 26.7887L47.9299 27.889L47.0465 28.3813L46.4331 27.2814Z" fill="#EFEFEF"/>
<path d="M65.2593 59.9303L66.1425 59.4377L66.7558 60.5379L65.8726 61.0303L65.2593 59.9303Z" fill="#EFEFEF"/>
<path d="M52.1249 55.1465C52.0474 55.1946 50.9847 55.8512 50.8303 55.8703C50.7594 55.8791 50.7088 55.8524 50.7088 55.8524C50.7088 55.8524 50.6613 55.8275 50.6306 55.7705C50.5594 55.6392 50.4234 54.3913 50.4131 54.296C51.4683 52.172 52.5235 50.0483 53.579 47.9246C54.6342 45.8008 55.6894 43.6771 56.7446 41.5534L58.4564 42.4039L55.2905 48.7753L52.1249 55.1465Z" fill="#6079DE"/>
<path d="M49.9199 28.7349C49.929 28.6182 50.0557 27.0201 50.1377 26.8649C50.1757 26.7935 50.2297 26.7759 50.2297 26.7759C50.2297 26.7759 50.2808 26.7593 50.3479 26.7897C50.5031 26.8601 51.6325 28.0016 51.7188 28.0888C53.9275 34.2383 56.136 40.3874 58.3447 46.5366L56.5459 47.1826L49.9199 28.7349Z" fill="#ECECEC"/>
<path d="M52.0009 55.1726C51.9234 55.2204 50.8607 55.877 50.7063 55.8962C50.6351 55.905 50.5848 55.8785 50.5848 55.8785C50.5848 55.8785 50.5373 55.8537 50.5066 55.7966C50.4354 55.665 50.2994 54.4175 50.2891 54.3219C52.3995 50.0744 54.5101 45.8269 56.6205 41.5795L58.3324 42.43L52.0009 55.1726Z" fill="#EBEBEB"/>
<path d="M57.7212 43.9375C57.7212 44.6356 57.1552 45.2017 56.4571 45.2017C55.7587 45.2017 55.1929 44.6356 55.1929 43.9375C55.1929 43.2391 55.7587 42.673 56.4571 42.673C57.1552 42.673 57.7212 43.2391 57.7212 43.9375Z" fill="url(#paint3_linear_259_24705)"/>
<path d="M43.999 85.1543C44.6826 85.1543 45.2881 85.0293 45.8154 84.7793C46.3428 84.5254 46.7686 84.1758 47.0928 83.7305C47.417 83.2852 47.6104 82.7676 47.6729 82.1777V82.1074H45.9502L45.9385 82.1602C45.8799 82.4609 45.7607 82.7246 45.5811 82.9512C45.4053 83.1738 45.1826 83.3477 44.9131 83.4727C44.6475 83.5938 44.3447 83.6543 44.0049 83.6543C43.5596 83.6543 43.1748 83.5352 42.8506 83.2969C42.5264 83.0586 42.2764 82.7188 42.1006 82.2773C41.9287 81.8359 41.8428 81.3145 41.8428 80.7129V80.7012C41.8428 80.0957 41.9287 79.5742 42.1006 79.1367C42.2764 78.6953 42.5264 78.3574 42.8506 78.123C43.1748 77.8848 43.5576 77.7656 43.999 77.7656C44.335 77.7656 44.6377 77.832 44.9072 77.9648C45.1807 78.0977 45.4072 78.2852 45.5869 78.5273C45.7666 78.7656 45.8857 79.043 45.9443 79.3594L45.9502 79.4004H47.667V79.3242C47.6123 78.7305 47.4209 78.2031 47.0928 77.7422C46.7646 77.2812 46.333 76.9199 45.7979 76.6582C45.2666 76.3965 44.667 76.2656 43.999 76.2656C43.1787 76.2656 42.4717 76.4453 41.8779 76.8047C41.2881 77.1602 40.833 77.6699 40.5127 78.334C40.1924 78.998 40.0322 79.7871 40.0322 80.7012V80.7129C40.0322 81.627 40.1924 82.416 40.5127 83.0801C40.833 83.7441 41.29 84.2559 41.8838 84.6152C42.4775 84.9746 43.1826 85.1543 43.999 85.1543ZM49.1904 84.9375H50.9014V76.0195H49.1904V84.9375ZM55.5361 85.0723C56.2002 85.0723 56.7686 84.9395 57.2412 84.6738C57.7178 84.4043 58.083 84.0195 58.3369 83.5195C58.5908 83.0156 58.7178 82.4141 58.7178 81.7148V81.7031C58.7178 81.0078 58.5889 80.4102 58.3311 79.9102C58.0732 79.4062 57.7061 79.0195 57.2295 78.75C56.7568 78.4805 56.1924 78.3457 55.5361 78.3457C54.8799 78.3457 54.3135 78.4824 53.8369 78.7559C53.3643 79.0254 52.999 79.4102 52.7412 79.9102C52.4834 80.4102 52.3545 81.0078 52.3545 81.7031V81.7148C52.3545 82.4141 52.4814 83.0156 52.7354 83.5195C52.9893 84.0195 53.3545 84.4043 53.8311 84.6738C54.3076 84.9395 54.876 85.0723 55.5361 85.0723ZM55.5361 83.7305C55.2314 83.7305 54.9717 83.6523 54.7568 83.4961C54.5459 83.3359 54.3838 83.1055 54.2705 82.8047C54.1611 82.5039 54.1064 82.1406 54.1064 81.7148V81.7031C54.1064 81.2812 54.1631 80.9219 54.2764 80.625C54.3896 80.3242 54.5518 80.0938 54.7627 79.9336C54.9775 79.7695 55.2354 79.6875 55.5361 79.6875C55.8369 79.6875 56.0928 79.7695 56.3037 79.9336C56.5186 80.0938 56.6826 80.3242 56.7959 80.625C56.9092 80.9219 56.9658 81.2812 56.9658 81.7031V81.7148C56.9658 82.1367 56.9092 82.498 56.7959 82.7988C56.6826 83.0996 56.5205 83.3301 56.3096 83.4902C56.0986 83.6504 55.8408 83.7305 55.5361 83.7305ZM62.9541 85.0723C63.5166 85.0723 64.001 84.9785 64.4072 84.791C64.8135 84.5996 65.1357 84.3301 65.374 83.9824C65.6123 83.6348 65.7627 83.2285 65.8252 82.7637V82.7227L64.2432 82.7285L64.2314 82.7461C64.1572 83.0742 64.0146 83.3203 63.8037 83.4844C63.5928 83.6484 63.3115 83.7305 62.96 83.7305C62.6553 83.7305 62.3975 83.6523 62.1865 83.4961C61.9756 83.3398 61.8135 83.1113 61.7002 82.8105C61.5908 82.5059 61.5361 82.1367 61.5361 81.7031V81.6914C61.5361 81.2578 61.5908 80.8926 61.7002 80.5957C61.8096 80.2988 61.9697 80.0742 62.1807 79.9219C62.3955 79.7656 62.6553 79.6875 62.96 79.6875C63.3271 79.6875 63.6162 79.7832 63.8271 79.9746C64.042 80.1621 64.1787 80.4121 64.2373 80.7246L64.2432 80.7363H65.8311V80.7188C65.7803 80.2383 65.6357 79.8203 65.3975 79.4648C65.1592 79.1094 64.835 78.834 64.4248 78.6387C64.0146 78.4434 63.5244 78.3457 62.9541 78.3457C62.2822 78.3457 61.71 78.4785 61.2373 78.7441C60.7686 79.0059 60.4111 79.3848 60.165 79.8809C59.9189 80.377 59.7959 80.9805 59.7959 81.6914V81.7031C59.7959 82.418 59.9189 83.0273 60.165 83.5312C60.4111 84.0312 60.7686 84.4141 61.2373 84.6797C61.71 84.9414 62.2822 85.0723 62.9541 85.0723ZM67.2256 84.9375H68.9365V76.0195H67.2256V84.9375ZM71.2861 84.9375H73.3076L70.583 81.1113L69.3057 82.1367L71.2861 84.9375ZM68.8193 82.8984L69.5693 82.1016L70.4834 81.416L73.1377 78.4863H71.1982L69.042 81.0352H68.7607L68.8193 82.8984Z" fill="black"/>
<defs>
<linearGradient id="paint0_linear_259_24705" x1="31.4561" y1="43.9377" x2="81.4561" y2="43.9377" gradientUnits="userSpaceOnUse">
<stop stop-color="#A4B2F2"/>
<stop offset="1" stop-color="#7587E7"/>
</linearGradient>
<linearGradient id="paint1_linear_259_24705" x1="34.2837" y1="44.4053" x2="78.9106" y2="44.4053" gradientUnits="userSpaceOnUse">
<stop stop-color="#4264E2"/>
<stop offset="1" stop-color="#AAB6F8"/>
</linearGradient>
<radialGradient id="paint2_radial_259_24705" cx="0" cy="0" r="1" gradientUnits="userSpaceOnUse" gradientTransform="translate(56.4563 43.8743) scale(20.1959)">
<stop stop-color="#8C9EF0"/>
<stop offset="1" stop-color="#8C9EF0"/>
</radialGradient>
<linearGradient id="paint3_linear_259_24705" x1="55.1929" y1="43.9375" x2="57.7213" y2="43.9375" gradientUnits="userSpaceOnUse">
<stop stop-color="#FAFAFA"/>
<stop offset="1" stop-color="#C8C8C8"/>
</linearGradient>
</defs>
</svg>
