<svg width="107" height="94" viewBox="0 0 107 94" fill="none" xmlns="http://www.w3.org/2000/svg">
<rect x="1.87402" y="1.5" width="103.343" height="91" rx="14.5" fill="white" stroke="#ADC6F7" stroke-width="3"/>
<path d="M80.2276 37.3926C80.13 38.5459 80.0122 39.7267 79.8629 40.9248C79.7021 42.2127 79.5068 43.5213 79.2713 44.8334V44.8369C78.0106 45.8209 76.6351 46.615 75.2394 47.2193C72.695 48.3207 70.0387 48.8801 67.3622 49.2979C65.9665 49.5154 64.5623 49.6984 63.1666 49.8987C61.0673 50.199 58.9537 50.5547 56.8976 51.1451H56.8918C54.962 51.701 53.0752 52.4641 51.3091 53.5862C48.7102 55.2367 46.3755 57.7952 45.0028 60.9511L45.0002 60.9545C44.8572 61.2825 44.7262 61.6174 44.6079 61.9558C44.4994 61.8212 44.3905 61.683 44.2846 61.5449C43.5488 60.5781 42.8771 59.5389 42.27 58.4409C42.5537 57.4672 42.9538 56.5418 43.4403 55.7062C44.7337 53.4826 46.5974 51.8529 48.581 50.6514C52.6789 48.1688 57.2852 47.4126 61.8025 46.6634C62.0236 46.6254 62.2476 46.5874 62.4716 46.5494C66.7706 45.8278 71.1242 44.9715 74.9867 42.5304C76.9653 41.277 78.8061 39.5195 80.2276 37.3926Z" fill="#72AF83"/>
<path d="M79.2718 44.8367C77.6924 53.6309 74.2893 62.5184 67.2019 66.4857C64.7695 67.8461 61.9064 68.6299 58.5321 68.6299C55.1578 68.6299 52.2917 67.8461 49.8594 66.4857H49.8565C48.4465 65.695 47.1829 64.7144 46.0497 63.575C45.5437 63.064 45.0624 62.5219 44.6084 61.9556C44.7267 61.6172 44.8577 61.2823 45.0007 60.9543L45.0033 60.9509C46.376 57.795 48.7107 55.2365 51.3096 53.586C53.0757 52.4639 54.9625 51.7008 56.8923 51.1449H56.898C58.9542 50.5545 61.0678 50.1989 63.1671 49.8985C64.5627 49.6982 65.967 49.5152 67.3627 49.2977C70.0391 48.8799 72.6955 48.3205 75.2399 47.2191C76.6355 46.6149 78.0111 45.8207 79.2718 44.8367Z" fill="#ECE7DF"/>
<path d="M80.5268 31.6645C80.4837 33.4358 80.3947 35.3659 80.2281 37.3892V37.3927C78.8066 39.5196 76.9658 41.2771 74.9872 42.5304C71.1247 44.9716 66.7711 45.8279 62.4721 46.5495C62.2481 46.5875 62.0241 46.6254 61.803 46.6634C57.2857 47.4127 52.6794 48.1688 48.5815 50.6514C46.5979 51.853 44.7342 53.4827 43.4407 55.7063C42.9543 56.5419 42.5542 57.4672 42.2705 58.4409C41.9101 57.7883 41.5718 57.1185 41.2536 56.4314L41.251 56.4279C40.6635 55.1504 40.1451 53.8176 39.6885 52.4503C37.622 46.2491 36.8397 39.3021 36.5977 33.6119C36.5707 32.9869 36.5508 32.3792 36.5359 31.7922C36.5213 31.15 36.5112 30.532 36.5063 29.9346C38.9875 31.7059 41.6066 33.1526 44.4108 33.7845C48.9433 34.7996 53.7822 33.5152 57.5873 30.2868C60.0512 28.1944 62.0643 25.3044 63.4169 22.0001H80.2884C80.2884 22.0001 80.6589 26.0053 80.5268 31.6645Z" fill="#ECE7DF"/>
<path d="M63.4163 22.0001C62.0637 25.3044 60.0506 28.1944 57.5867 30.2868C53.7816 33.5152 48.9427 34.7996 44.4102 33.7845C41.606 33.1526 38.9869 31.7059 36.5057 29.9346C36.5009 28.9886 36.5057 28.1081 36.5207 27.3002C39.0116 28.6502 41.5787 29.762 44.2646 30.1522C48.4114 30.746 52.7162 29.5168 56.2398 26.727C57.8566 25.446 59.3068 23.8405 60.5245 22.0001H63.4163Z" fill="#72AF83"/>
<path d="M60.5248 22C59.3072 23.8404 57.8569 25.4459 56.2401 26.7269C52.7165 29.5168 48.4118 30.746 44.265 30.1521C41.579 29.7619 39.0119 28.6501 36.521 27.3001C36.5259 26.9859 36.5334 26.682 36.5408 26.3885C36.5581 25.7463 36.5802 25.1628 36.6048 24.6414C36.6789 22.9737 36.7703 22 36.7703 22H60.5248Z" fill="#ECE7DF"/>
<path d="M41.2506 56.4277C13.6393 30.5559 32.0774 31.3017 36.5355 31.792C36.5504 32.379 36.5702 32.9867 36.5972 33.6116C36.5972 33.6116 15.7403 30.0898 39.6881 52.4501C40.1447 53.8174 40.6631 55.1502 41.2506 56.4277Z" fill="#C6BFAD"/>
<path d="M68.6573 69.1273V69.1583C68.6573 70.7225 67.6263 72 66.3743 72H50.6859C49.428 72 48.4028 70.7225 48.4028 69.1583V69.1273C48.4028 67.9326 49.0059 66.8968 49.856 66.4859H49.8588C52.2912 67.8463 55.1572 68.6301 58.5315 68.6301C61.9058 68.6301 64.7689 67.8463 67.2013 66.4859C68.0513 66.8968 68.6573 67.9326 68.6573 69.1273Z" fill="#C6BFAD"/>
<path d="M46.2818 58.3926C45.5578 57.4741 44.9513 56.0274 44.4438 54.232C45.0024 53.5207 45.6224 52.8854 46.2818 52.3157V58.3926Z" fill="#DEE5E0"/>
<path d="M44.4437 54.2319C42.8958 48.7523 42.2683 40.0271 42.0205 33.0421C42.8025 33.3494 43.5986 33.6015 44.4104 33.7845C45.0298 33.9226 45.6542 34.0193 46.2816 34.0711V52.3156C45.6223 52.8853 45.0023 53.5207 44.4437 54.2319Z" fill="#F8F7F5"/>
<path d="M46.2822 34.071C45.6547 34.0193 45.0304 33.9226 44.411 33.7845C43.5991 33.6015 42.803 33.3494 42.0211 33.0421C41.9786 31.8474 41.9473 30.7011 41.9243 29.6307C42.6951 29.8586 43.475 30.0347 44.2654 30.1521C44.284 30.1521 44.3027 30.1556 44.3214 30.159C44.9727 30.2488 45.6271 30.2971 46.2822 30.2971V34.071Z" fill="#DEE5E0"/>
<path d="M46.2816 30.2971C45.6265 30.2971 44.972 30.2488 44.3207 30.159C44.3021 30.1556 44.2834 30.1521 44.2647 30.1521C43.4744 30.0347 42.6945 29.8586 41.9237 29.6307C41.8284 25.187 41.8783 22.0587 41.8783 22.0587H46.2816V30.2971Z" fill="#F8F7F5"/>
</svg>
