<svg width="112" height="99" viewBox="0 0 112 99" fill="none" xmlns="http://www.w3.org/2000/svg">
<rect x="1.5" y="1.5" width="109" height="96" rx="14.5" fill="white" stroke="#ADC6F7" stroke-width="3"/>
<path d="M64.4826 23.4291C63.9843 22.4365 63.0116 21.5837 61.8595 21.519C60.9604 21.4685 60.1095 21.8917 59.3571 22.364C58.6048 22.8364 57.8764 23.3799 57.0127 23.6232C56.3362 23.8134 55.5408 23.8445 55.077 24.3505C54.6557 24.8112 54.6986 25.5747 55.1298 26.0263C55.5609 26.4793 56.306 26.6035 56.8982 26.3693C57.127 26.2787 57.3349 26.1428 57.5707 26.069C58.2169 25.8685 58.9011 26.1816 59.5127 26.4637C60.981 27.1419 62.6484 27.6996 64.2199 27.2816C65.0637 27.0577 65.2286 26.6708 65.1253 25.928C65.0062 25.07 64.8785 24.2185 64.4826 23.4291Z" fill="#F2D24C"/>
<path d="M60.9849 20.0365C61.0042 19.8761 61.0631 19.682 61.2111 19.6561C61.4014 19.6237 61.502 19.889 61.5322 20.0948C61.5919 20.4998 61.6517 20.9049 61.7114 21.3086C61.7476 21.5545 61.7862 21.8082 61.9047 22.0204C62.0235 22.2339 62.2429 22.4009 62.4713 22.3711C62.6551 22.3465 62.8094 22.2003 62.9043 22.0282C62.9991 21.856 63.0448 21.6593 63.0944 21.4652C63.2205 20.9735 63.3789 20.4921 63.5678 20.0236C63.6026 19.9382 63.6467 19.8437 63.7287 19.8127C63.8317 19.7738 63.9457 19.8618 63.986 19.9718C64.0263 20.0805 64.0128 20.2035 63.9987 20.3212C63.9218 20.9579 63.8447 21.5959 63.7677 22.2326C63.7386 22.4733 63.7045 22.727 63.5635 22.9159C63.3596 23.189 63.0005 23.242 62.6775 23.2718C62.0077 23.3352 60.8963 23.2821 60.8289 22.2999C60.81 22.0269 60.9466 21.7577 60.9808 21.4898C61.0422 21.0084 60.9264 20.5244 60.9849 20.0365Z" fill="#F2D24C"/>
<path d="M60.6062 20.1849C60.5327 20.1137 60.462 20.036 60.4199 19.939C60.3213 19.7125 60.4085 19.4304 60.5765 19.2583C60.7444 19.0862 60.9759 19.0059 61.2037 18.9632C61.4749 18.9115 61.7957 18.9231 61.9703 19.1547C62.085 19.3049 62.1062 19.5197 62.0686 19.7112C62.0309 19.9027 61.9418 20.0774 61.8538 20.2483C61.7594 20.432 61.6371 20.6365 61.4443 20.6611C61.3651 20.6701 61.2861 20.6468 61.2095 20.6236C60.9853 20.5537 60.7778 20.3505 60.6062 20.1849Z" fill="#C6985C"/>
<path d="M63.0399 20.0539C62.9964 19.9582 62.9582 19.8572 62.9528 19.7511C62.94 19.5013 63.1193 19.2736 63.3347 19.183C63.5502 19.0924 63.7923 19.1131 64.0184 19.1662C64.2874 19.2283 64.5805 19.3706 64.6622 19.6541C64.7158 19.8417 64.6607 20.0487 64.5594 20.2118C64.4579 20.3736 64.3146 20.4991 64.1736 20.6208C64.0223 20.7528 63.8379 20.8925 63.6508 20.8356C63.5742 20.8123 63.5092 20.7592 63.4465 20.7062C63.2627 20.5509 63.1412 20.2778 63.0399 20.0539Z" fill="#C6985C"/>
<path d="M44.2691 48.5478C43.5684 47.7519 42.2603 48.0845 41.4566 47.4128C41.4459 48.1117 41.5901 48.8131 41.8736 49.4407C42.2085 50.1809 42.803 50.8564 43.5596 50.96C44.8383 51.1347 44.9385 49.3074 44.2691 48.5478Z" fill="#C6985C"/>
<path d="M56.2773 25.9407C56.6439 25.7634 56.9838 25.5162 57.3686 25.392C58.0715 25.1655 58.8317 25.3738 59.5097 25.6767C60.1877 25.9795 60.8359 26.3794 61.5514 26.5541C62.4262 26.7676 63.4309 26.5877 64.0461 25.8824C63.9803 26.2215 63.9093 26.5735 63.7148 26.8478C63.459 27.2102 63.0305 27.3797 62.6138 27.447C62.2242 27.5091 61.8247 27.4975 61.4387 27.4133C61.0817 27.3357 60.7389 27.1959 60.398 27.0562C59.9585 26.8776 59.5189 26.6977 59.0794 26.5191C58.7949 26.4027 58.5064 26.2862 58.204 26.2551C57.793 26.2124 57.3844 26.3315 56.983 26.4363C56.5817 26.5411 56.1622 26.633 55.759 26.5372C55.3557 26.4415 54.9723 26.1089 54.9233 25.665C55.0023 26.382 55.8745 26.1361 56.2773 25.9407Z" fill="#E5BE45"/>
<path d="M60.7148 22.678C60.8885 22.5718 61.1056 22.5317 61.2897 22.6145C61.4739 22.6974 61.6069 22.9212 61.5627 23.1322C61.5351 23.2642 61.4479 23.3703 61.3586 23.4635C61.247 23.5812 61.1251 23.6912 60.9835 23.7611C60.7628 23.8698 60.2838 23.8776 60.3028 23.5036C60.3198 23.1671 60.4344 22.8488 60.7148 22.678Z" fill="#E5BE45"/>
<path d="M60.5198 23.0042C60.3982 23.0948 60.3271 23.2527 60.3191 23.4119C60.3156 23.4818 60.3243 23.5542 60.3619 23.6099C60.4046 23.6746 60.4785 23.7056 60.5509 23.716C60.6933 23.7354 60.8445 23.6785 60.9399 23.562C61.0384 23.4416 61.0929 23.1893 61.0032 23.0456C60.9018 22.8852 60.6493 22.9072 60.5198 23.0042Z" fill="#493832"/>
<path d="M60.91 23.1634C60.8677 23.1117 60.803 23.0806 60.7384 23.0832C60.674 23.0845 60.6111 23.1194 60.5721 23.1751C60.5569 23.1971 60.5449 23.2229 60.5449 23.2501C60.5449 23.2773 60.5596 23.3058 60.5836 23.3148C60.6272 23.3291 60.6696 23.276 60.7149 23.2825C60.7389 23.2864 60.7578 23.3058 60.7798 23.3174C60.818 23.3368 60.867 23.3265 60.8956 23.2928C60.9243 23.2592 60.9303 23.2061 60.9098 23.166L60.91 23.1634Z" fill="white"/>
<path d="M54.7597 24.9368C54.6474 25.3703 54.7428 25.8699 55.0319 26.1934C55.4115 26.6204 56.0286 26.68 56.5672 26.5751C57.1059 26.4716 57.6192 26.2335 58.1624 26.1636C58.1672 25.9113 58.172 25.6576 58.1769 25.4053C58.1835 25.0649 58.1891 24.7168 58.0964 24.3907C58.0036 24.0646 57.7937 23.7579 57.4939 23.6531C57.2376 23.5625 56.9595 23.6298 56.6973 23.6971C55.9046 23.8989 55.0221 23.9365 54.7597 24.9368Z" fill="#C6985C"/>
<path d="M54.9941 26.1485C55.0801 26.2585 55.2363 26.2844 55.3604 26.2948C55.5626 26.3116 55.7728 26.2753 55.9634 26.2016C56.167 26.1239 56.357 26.0023 56.53 25.8638C56.6705 25.7512 56.8093 25.6244 56.9075 25.4665C56.9531 25.3928 56.8431 25.3229 56.7978 25.3967C56.7125 25.5338 56.5877 25.6477 56.4659 25.7448C56.3111 25.8703 56.141 25.9829 55.9602 26.0579C55.7896 26.1278 55.6061 26.1653 55.4234 26.1602C55.3163 26.1576 55.1598 26.1485 55.0839 26.0515C55.0307 25.9842 54.9414 26.0825 54.9941 26.1485Z" fill="#493832"/>
<path d="M56.8249 25.2951C56.8363 25.2951 56.8475 25.2964 56.8589 25.2977L56.842 25.2951C56.8615 25.2977 56.8804 25.3042 56.8986 25.3119L56.8834 25.3055C56.8968 25.3119 56.9096 25.3184 56.9217 25.3275L56.9293 25.3339L56.9343 25.3378L56.9263 25.3313L56.9426 25.3469L56.9565 25.3624C56.9597 25.3663 56.9672 25.3779 56.9554 25.3598L56.9608 25.3676C56.9692 25.3805 56.976 25.3948 56.9818 25.409C56.9877 25.4245 57.0061 25.4362 57.0197 25.4413C57.0349 25.4452 57.0552 25.4439 57.0687 25.4336C57.0823 25.4245 57.0941 25.4103 57.0979 25.3922C57.1019 25.374 57.0987 25.3572 57.0915 25.3404C57.0473 25.2291 56.9348 25.1566 56.8249 25.1579C56.7917 25.1592 56.7598 25.189 56.7613 25.2265C56.7628 25.264 56.7893 25.2964 56.8249 25.2951Z" fill="#493832"/>
<path d="M55.0949 24.8355C55.0402 24.9351 55.0247 25.0568 55.0528 25.168C55.0644 25.2133 55.085 25.2599 55.1224 25.2832L55.1475 25.2871L55.1561 25.269C55.1655 25.2211 55.1698 25.1732 55.1875 25.1292C55.2409 24.9959 55.3939 24.9493 55.4831 24.8406C55.5809 24.7216 55.4714 24.6336 55.3556 24.6413C55.2494 24.6491 55.148 24.7397 55.0949 24.8355Z" fill="#493832"/>
<path d="M54.899 63.5526C55.2247 64.8402 55.5504 66.1291 55.8761 67.418C55.9328 67.6419 55.9937 67.8749 56.1364 68.0483C56.2789 68.223 56.5293 68.3174 56.7147 68.1997C56.9294 68.0625 56.9489 67.7416 56.943 67.4711C56.8912 65.1094 56.8394 62.7489 56.7877 60.3872C56.7605 59.1448 56.7331 57.9012 56.5896 56.6679C56.4685 55.6301 56.2295 54.5301 55.5201 53.8183C55.3904 53.6876 55.2417 53.5711 55.0693 53.5271C54.5746 53.4003 54.1372 53.9063 53.9181 54.4019C53.369 55.6456 53.4417 57.073 53.6948 58.3813C54.0315 60.1219 54.4658 61.8379 54.899 63.5526Z" fill="#EABC4B"/>
<path d="M70.4562 55.0835C70.7775 55.464 71.0994 55.8509 71.3343 56.3C71.6591 56.9212 71.8034 57.6355 71.8701 58.346C71.9933 59.6543 71.8652 60.9898 71.4963 62.2438C71.3604 62.7058 71.0969 63.2338 70.6488 63.248C70.5505 63.1833 70.5372 63.0371 70.5389 62.9129C70.5492 62.1519 70.7065 61.4027 70.7676 60.6443C70.8288 59.8847 70.7841 59.0823 70.4259 58.4275C69.9194 57.5009 68.9041 57.0609 67.9359 56.8138C67.4432 56.6882 66.9394 56.5938 66.474 56.3789C65.8763 56.102 65.3489 55.6128 65.0796 54.9735C64.8104 54.333 64.8272 53.5397 65.1912 52.9573C65.7584 52.0502 66.9306 51.913 67.7386 52.4384C68.7873 53.1204 69.639 54.113 70.4562 55.0835Z" fill="#EABC4B"/>
<path d="M63.2953 41.4001C63.2399 42.3435 63.1387 43.3373 62.62 44.0983C62.0149 44.9847 60.9783 45.3639 60.0136 45.7185C58.0571 46.4367 56.1309 47.2507 54.2426 48.1566C53.6997 48.418 53.1484 48.6937 52.7208 49.1401C51.921 49.9748 51.6874 51.2495 51.5782 52.4466C51.4389 53.9697 51.4356 55.5084 51.5683 57.0328C51.5969 57.3628 51.6371 57.7058 51.8124 57.9763C52.0422 58.3321 52.4521 58.4848 52.8372 58.6039C56.3 59.6702 60.0371 59.6741 63.5016 58.613C64.9789 58.1613 67.8846 57.1454 68.1053 51.0981C68.4288 42.2296 67.5385 33.1644 65.2514 26.153C64.8837 25.0258 64.4779 23.1623 63.0298 23.5104C61.9517 23.7705 61.7927 24.7644 62.0608 25.7233C62.9234 28.8072 63.1552 31.9376 63.306 35.1677C63.4029 37.2434 63.4171 39.3256 63.2953 41.4001Z" fill="#F2D24C"/>
<path d="M51.9695 49.702C51.5315 50.032 51.0902 50.3646 50.6031 50.6014C49.5222 51.1242 48.2796 51.1397 47.1158 50.9016C46.0114 50.6751 44.946 50.2261 43.9898 49.5868C43.9447 49.557 43.8976 49.526 43.8447 49.5208C43.728 49.5105 43.6323 49.6412 43.6309 49.768C43.6293 49.8948 43.696 50.01 43.7711 50.107C44.0359 50.4513 44.4205 50.6557 44.7978 50.8382C46.2697 51.5513 47.8416 52.0922 49.4541 52.122C51.0668 52.1504 52.7308 51.6237 53.9074 50.4306C54.2115 50.1226 54.4923 49.7447 54.5393 49.2956C54.5522 49.1714 54.5419 49.0329 54.4613 48.9449C54.3988 48.875 54.3067 48.8505 54.2191 48.8324C53.2152 48.6292 52.7673 49.1015 51.9695 49.702Z" fill="#F2D24C"/>
<path d="M63.2488 44.2707C63.2569 44.9242 63.4544 45.5544 63.6496 46.173C63.6722 46.2442 63.6986 46.3218 63.7573 46.3619C63.8053 46.3956 63.8654 46.3982 63.9223 46.3995C64.4188 46.4137 64.9153 46.4279 65.4118 46.4409C65.462 46.4422 65.5153 46.4435 65.5584 46.415C65.6006 46.3878 65.625 46.3373 65.6474 46.2895C65.884 45.7886 66.1204 45.2878 66.3569 44.787C66.4693 44.5489 66.5851 44.2849 66.5278 44.0248C66.3948 43.4191 65.5407 43.4217 65.2013 42.9209C64.8071 42.3386 64.5953 42.006 63.9242 42.5676C63.443 42.9701 63.2406 43.621 63.2488 44.2707Z" fill="#C6985C"/>
<path d="M60.0546 46.3735C59.8714 46.6103 59.7946 46.9196 59.7228 47.2185C59.5709 47.8514 59.419 48.4855 59.267 49.1183C59.2496 49.1907 59.2326 49.2684 59.258 49.3383C59.2895 49.4237 59.3749 49.4677 59.4532 49.5039C60.131 49.8132 60.8417 50.0371 61.5668 50.1691C61.6332 50.182 61.7022 50.1937 61.7671 50.1743C61.8545 50.1471 61.9196 50.0707 61.9797 49.997C62.2274 49.6942 62.475 49.3926 62.7224 49.0898C62.9709 48.7857 63.2337 48.4428 63.2334 48.0377C63.2332 47.6119 62.9431 47.2587 62.6802 46.9403C62.4172 46.6232 62.1481 46.2389 62.2019 45.8157C62.2199 45.676 61.2308 45.8481 61.1136 45.8727C60.7213 45.9555 60.3281 46.0189 60.0546 46.3735Z" fill="#C6985C"/>
<path d="M55.4073 49.4975C55.2803 49.7485 55.2792 50.0578 55.3521 50.3322C55.4249 50.6078 55.5653 50.855 55.7123 51.0931C55.9429 51.4658 56.2659 51.8618 56.6796 51.8346C56.8463 51.823 57.001 51.7414 57.1506 51.6612C57.357 51.5512 57.5635 51.4399 57.7699 51.3299C57.9078 51.2561 58.0497 51.1785 58.1505 51.053C58.3159 50.8472 58.3391 50.5509 58.3322 50.2765C58.3254 50.0086 58.297 49.7395 58.2475 49.4768C58.2344 49.4069 58.2186 49.3344 58.1772 49.2788C58.1022 49.1765 57.9684 49.1597 57.8489 49.1493C57.3536 49.1092 56.8023 49.029 56.4911 48.6097C56.4457 48.5489 56.3953 48.4751 56.3229 48.4751C56.2694 48.4751 56.225 48.5178 56.1861 48.5579C55.9146 48.8362 55.5891 49.139 55.4073 49.4975Z" fill="#C6985C"/>
<path d="M60.0603 52.8761C60.0287 52.8825 59.9947 52.8916 59.9738 52.9188C59.9554 52.9421 59.9511 52.9744 59.9476 53.0055C59.9037 53.3898 59.8598 53.7729 59.8159 54.1572C59.7922 54.3643 59.7774 54.6011 59.911 54.7512C59.9878 54.8379 60.0988 54.8755 60.2061 54.9039C60.5477 54.9958 60.9022 55.0321 61.2536 55.0088C61.3898 54.9997 61.5334 54.979 61.6405 54.8871C61.7408 54.8017 61.7935 54.6684 61.8391 54.539C61.9876 54.1184 62.1025 53.6836 62.1815 53.241C62.19 53.1944 62.1979 53.1439 62.1807 53.0987C62.1641 53.0547 62.1272 53.0262 62.0913 52.999C61.4154 52.5073 60.8066 52.7078 60.0603 52.8761Z" fill="#C6985C"/>
<path d="M53.5827 49.1758C53.2676 49.1538 52.9654 49.4566 52.961 49.7982C52.9571 50.0972 53.1427 50.3534 53.3187 50.5824C53.4223 50.7183 53.5485 50.8646 53.7107 50.8633C53.834 50.862 53.94 50.7727 54.0341 50.686C54.2214 50.5152 54.411 50.3249 54.4861 50.0726C54.571 49.7866 54.4806 49.4488 54.2672 49.256C54.0539 49.0645 53.7309 49.0282 53.4862 49.1706L53.5827 49.1758Z" fill="#C6985C"/>
<path d="M57.0087 59.3975C58.977 59.3987 60.9454 59.2202 62.8866 58.8669C63.4066 58.7724 63.9277 58.6637 64.4204 58.4605C64.1148 57.1962 63.8959 55.9073 63.7664 54.608C63.5981 54.9962 63.6492 55.4517 63.5486 55.8659C63.3472 56.6954 62.5853 57.2117 61.8417 57.5068C60.4839 58.0464 59.0116 58.1266 57.5657 58.1719C56.7678 58.1978 55.9697 58.2146 55.1715 58.2224C55.1362 58.2237 55.098 58.2224 55.0696 58.2004C55.0168 58.1577 55.0278 58.071 55.0423 58.0024C55.2483 57.015 54.9826 55.9267 54.3531 55.1787C54.3211 56.5634 53.6789 57.9183 52.6576 58.7556C52.6248 58.7815 53.0517 58.9212 53.0975 58.9225C53.2211 58.9251 53.3172 58.8785 53.4428 58.8953C53.8282 58.9471 54.2211 59.1438 54.6103 59.2176C55.4012 59.3664 56.2072 59.3975 57.0087 59.3975Z" fill="#EFC44B"/>
<path d="M51.312 54.0538C51.1286 56.2978 51.2675 58.556 51.2599 60.8091C51.2524 63.0621 51.09 65.3539 50.3369 67.4543C50.2723 67.6342 50.2024 67.8321 50.2569 68.0159C50.3229 68.2398 50.5595 68.3627 50.7756 68.3485C51.3238 68.3148 51.6188 67.6536 51.7986 67.0932C52.1411 66.0243 52.4835 64.9566 52.8258 63.8877C53.6674 61.2633 54.5112 58.6298 55.0459 55.9122C55.2768 54.7384 55.4012 53.3602 54.6453 52.4815C54.104 51.8526 53.0575 50.3553 52.3508 50.6853C51.5048 51.08 51.3923 53.0703 51.312 54.0538Z" fill="#F2D24C"/>
<path d="M64.5237 66.5548C64.5483 67.2044 64.571 67.8631 64.7537 68.483C64.8076 68.6654 64.8952 68.8647 65.0648 68.923C65.2344 68.9799 65.421 68.8621 65.5149 68.6991C65.6086 68.5347 65.6314 68.3367 65.6514 68.1465C66.0894 63.9756 66.3118 59.7439 67.4091 55.7179C67.6677 54.7693 67.9519 53.659 67.4085 52.8631C67.0586 52.3507 66.4233 52.1229 65.839 52.1992C65.2547 52.2769 64.7227 52.6224 64.3007 53.0676C63.4685 53.9424 63.6835 54.6218 63.7835 55.6506C63.9019 56.8645 64.0092 58.081 64.1038 59.2987C64.2916 61.7135 64.4316 64.1322 64.5237 66.5548Z" fill="#F2D24C"/>
<path d="M65.101 49.545C64.9742 49.5683 64.8411 49.5942 64.7414 49.6822C64.563 49.8401 64.5578 50.1261 64.5329 50.3732C64.467 51.028 64.1635 51.6324 64.0824 52.2859C64.0722 52.3687 64.0677 52.4593 64.1138 52.5253C64.1495 52.5758 64.2077 52.6004 64.2631 52.6224C64.8089 52.8411 65.3546 53.0611 65.9005 53.2798C65.9514 53.3005 66.0066 53.3212 66.0588 53.3044C66.1073 53.2888 66.1426 53.2448 66.175 53.2034C66.3761 52.9433 66.577 52.6819 66.7781 52.4218C66.9582 52.1889 67.141 51.9507 67.2532 51.6712C67.3654 51.393 67.3993 51.0617 67.2783 50.7873C67.1295 50.4496 66.778 50.2542 66.6414 49.9112C66.3564 49.1943 65.6943 49.4376 65.101 49.545Z" fill="#C6985C"/>
<path d="M53.5007 55.1286C53.5288 55.1622 53.5587 55.1985 53.5987 55.2127C53.6532 55.2321 53.712 55.2075 53.7651 55.1842C54.2211 54.9798 54.7202 54.73 54.9091 54.2369C54.986 54.0364 55.0015 53.8151 55.0081 53.5977C55.019 53.2379 55.0079 52.8782 54.9968 52.5197C54.9944 52.4394 54.9885 52.3514 54.9353 52.2971C54.8838 52.244 54.8053 52.2402 54.7341 52.2389C54.1712 52.2324 53.6085 52.2285 53.0456 52.2272C52.9931 52.2272 52.9376 52.2285 52.8925 52.2583C52.848 52.2867 52.8211 52.3385 52.7974 52.3877C52.6121 52.7785 52.3588 53.5084 52.5161 53.9458C52.6572 54.3379 53.2376 54.8102 53.5007 55.1286Z" fill="#C6985C"/>
<path d="M51.9604 66.6026C51.9147 66.7566 51.8691 66.9106 51.8234 67.0659C51.7367 67.3596 51.6479 67.6573 51.4852 67.9109C51.3225 68.1633 51.0721 68.369 50.7879 68.3897C50.6752 68.3988 50.558 68.3755 50.4633 68.3095C50.3099 68.2021 50.2382 67.9937 50.2373 67.7957C50.2364 67.5977 50.2953 67.4062 50.3537 67.2186C50.4271 66.9817 50.478 66.6776 50.5984 66.4706C50.7842 66.6013 50.9247 66.6608 51.1636 66.6815C51.2593 66.6906 51.9289 66.7216 51.9604 66.6026Z" fill="#493832"/>
<path d="M55.8523 67.4127C55.9017 67.6288 55.9542 67.854 56.0814 68.03C56.2085 68.206 56.4325 68.3212 56.6259 68.2422C56.7525 68.1905 56.8443 68.0662 56.8929 67.9291C56.9415 67.7932 56.9523 67.6444 56.9588 67.4981C56.9744 67.141 56.966 66.7825 56.9337 66.4266C56.7937 66.6181 56.5628 66.7113 56.3377 66.7256C56.1958 66.7346 55.7163 66.723 55.7163 66.723C55.7163 66.723 55.8213 67.2756 55.8523 67.4127Z" fill="#493832"/>
<path d="M65.2035 67.5665C65.4032 67.5859 65.6087 67.5277 65.774 67.406C65.7488 67.6429 65.7238 67.8797 65.6988 68.1165C65.6802 68.2925 65.6605 68.4724 65.5876 68.6303C65.5147 68.7894 65.3767 68.924 65.2134 68.9357C65.054 68.9473 64.9032 68.8386 64.8135 68.695C64.7238 68.5526 64.685 68.3805 64.655 68.2097C64.6036 67.9198 64.5074 67.5018 64.5706 67.2106C64.6328 67.2598 64.6666 67.3504 64.7292 67.406C64.8506 67.5134 65.0504 67.5523 65.2035 67.5665Z" fill="#493832"/>
<path d="M71.5669 61.9933C71.477 62.2108 71.3898 63.1749 71.2762 63.3017C71.1624 63.4298 70.9931 63.5139 70.8341 63.4712C70.6791 63.4298 70.5657 63.2771 70.52 63.1114C70.4742 62.9458 70.4853 62.7685 70.504 62.5977C70.5359 62.3039 70.5772 61.9571 70.6481 61.6168C70.6934 61.684 70.7544 61.7811 70.7987 61.8549C70.8846 61.9959 71.3751 62.0568 71.5669 61.9933Z" fill="#493832"/>
<path d="M40.3545 85.1543C41.124 85.1543 41.7881 85.0059 42.3467 84.709C42.9092 84.4121 43.3428 83.9902 43.6475 83.4434C43.9521 82.8965 44.1045 82.25 44.1045 81.5039V80.4316H40.5537V81.7207H42.3818L42.376 81.8789C42.3643 82.2344 42.2744 82.5449 42.1064 82.8105C41.9385 83.0762 41.7061 83.2832 41.4092 83.4316C41.1123 83.5801 40.7705 83.6543 40.3838 83.6543C39.9189 83.6543 39.5166 83.5352 39.1768 83.2969C38.8369 83.0547 38.5732 82.7129 38.3857 82.2715C38.1982 81.8262 38.1045 81.2988 38.1045 80.6895V80.6777C38.1045 80.0801 38.1943 79.5645 38.374 79.1309C38.5537 78.6934 38.8076 78.3574 39.1357 78.123C39.4678 77.8848 39.8604 77.7656 40.3135 77.7656C40.8096 77.7656 41.2295 77.8828 41.5732 78.1172C41.917 78.3516 42.1475 78.6797 42.2646 79.1016L42.2764 79.1602H44.0342L44.0225 79.1016C43.9404 78.5391 43.7314 78.0449 43.3955 77.6191C43.0635 77.1934 42.6338 76.8613 42.1064 76.623C41.5791 76.3848 40.9814 76.2656 40.3135 76.2656C39.4971 76.2656 38.7881 76.4473 38.1865 76.8105C37.585 77.1699 37.1201 77.6816 36.792 78.3457C36.4639 79.0059 36.2998 79.7891 36.2998 80.6953V80.707C36.2998 81.625 36.4639 82.416 36.792 83.0801C37.1201 83.7441 37.5869 84.2559 38.1924 84.6152C38.7979 84.9746 39.5186 85.1543 40.3545 85.1543ZM45.6455 84.9375H47.3564V78.4863H45.6455V84.9375ZM46.5068 77.4961C46.7725 77.4961 46.999 77.4043 47.1865 77.2207C47.374 77.0332 47.4678 76.8086 47.4678 76.5469C47.4678 76.2812 47.374 76.0566 47.1865 75.873C46.999 75.6855 46.7725 75.5918 46.5068 75.5918C46.2451 75.5918 46.0186 75.6855 45.8271 75.873C45.6357 76.0566 45.54 76.2812 45.54 76.5469C45.54 76.8086 45.6357 77.0332 45.8271 77.2207C46.0186 77.4043 46.2451 77.4961 46.5068 77.4961ZM49.0791 84.9375H50.79V81.3281C50.79 81.0234 50.8545 80.7617 50.9834 80.543C51.1123 80.3242 51.2959 80.1562 51.5342 80.0391C51.7725 79.918 52.0537 79.8574 52.3779 79.8574C52.5107 79.8574 52.6416 79.8672 52.7705 79.8867C52.9033 79.9023 53.0342 79.9258 53.1631 79.957V78.4629C53.0771 78.4395 52.9775 78.4199 52.8643 78.4043C52.7549 78.3887 52.6416 78.3809 52.5244 78.3809C52.1064 78.3809 51.7568 78.4785 51.4756 78.6738C51.1943 78.8652 51.001 79.1367 50.8955 79.4883H50.79V78.4863H49.0791V84.9375ZM55.9463 85.0371C56.2275 85.0371 56.4873 85 56.7256 84.9258C56.9678 84.8477 57.1787 84.7383 57.3584 84.5977C57.542 84.4531 57.6885 84.2812 57.7979 84.082H57.9033V84.9375H59.5908V80.5312C59.5908 80.0742 59.4854 79.6836 59.2744 79.3594C59.0674 79.0312 58.7646 78.7812 58.3662 78.6094C57.9678 78.4336 57.4834 78.3457 56.9131 78.3457C56.374 78.3457 55.8994 78.4238 55.4893 78.5801C55.083 78.7363 54.7588 78.9551 54.5166 79.2363C54.2783 79.5176 54.1357 79.8477 54.0889 80.2266L54.083 80.2793H55.665L55.6768 80.2559C55.7432 80.0645 55.8721 79.918 56.0635 79.8164C56.2588 79.7109 56.5107 79.6582 56.8193 79.6582C57.1709 79.6582 57.4385 79.7344 57.6221 79.8867C57.8096 80.0352 57.9033 80.25 57.9033 80.5312V82.5879C57.9033 82.8145 57.8428 83.0195 57.7217 83.2031C57.6006 83.3828 57.4365 83.5254 57.2295 83.6309C57.0225 83.7363 56.7861 83.7891 56.5205 83.7891C56.2236 83.7891 55.9814 83.7188 55.7939 83.5781C55.6064 83.4375 55.5127 83.2441 55.5127 82.998V82.9863C55.5127 82.752 55.6025 82.5664 55.7822 82.4297C55.9619 82.293 56.2354 82.2148 56.6025 82.1953L58.7471 82.0547V81.0117L56.3447 81.1582C55.5439 81.2051 54.9268 81.3945 54.4932 81.7266C54.0596 82.0547 53.8428 82.5098 53.8428 83.0918V83.1035C53.8428 83.4941 53.9326 83.8359 54.1123 84.1289C54.292 84.418 54.54 84.6426 54.8564 84.8027C55.1768 84.959 55.54 85.0371 55.9463 85.0371ZM61.7646 84.9375H63.4756V79.7754H64.8057V78.4863H63.4404V78C63.4404 77.7188 63.5088 77.5039 63.6455 77.3555C63.7822 77.2031 64.0166 77.127 64.3486 77.127C64.458 77.127 64.5557 77.1309 64.6416 77.1387C64.7314 77.1426 64.8037 77.1504 64.8584 77.1621V76.0195C64.7334 76 64.5986 75.9844 64.4541 75.9727C64.3135 75.9609 64.1553 75.9551 63.9795 75.9551C63.2021 75.9551 62.6377 76.1172 62.2861 76.4414C61.9385 76.7617 61.7646 77.2422 61.7646 77.8828V78.4863H60.7217V79.7754H61.7646V84.9375ZM66.7217 84.9375H68.4326V79.7754H69.7627V78.4863H68.3975V78C68.3975 77.7188 68.4658 77.5039 68.6025 77.3555C68.7393 77.2031 68.9736 77.127 69.3057 77.127C69.415 77.127 69.5127 77.1309 69.5986 77.1387C69.6885 77.1426 69.7607 77.1504 69.8154 77.1621V76.0195C69.6904 76 69.5557 75.9844 69.4111 75.9727C69.2705 75.9609 69.1123 75.9551 68.9365 75.9551C68.1592 75.9551 67.5947 76.1172 67.2432 76.4414C66.8955 76.7617 66.7217 77.2422 66.7217 77.8828V78.4863H65.6787V79.7754H66.7217V84.9375ZM73.7354 85.0723C74.208 85.0723 74.6162 85.0137 74.96 84.8965C75.3076 84.7754 75.5967 84.6191 75.8271 84.4277C76.0615 84.2363 76.2451 84.0312 76.3779 83.8125C76.5107 83.5898 76.6025 83.377 76.6533 83.1738L76.665 83.1152H75.0713L75.0537 83.1504C75.0146 83.2324 74.9404 83.3242 74.8311 83.4258C74.7256 83.5234 74.585 83.6094 74.4092 83.6836C74.2334 83.7578 74.0205 83.7949 73.7705 83.7949C73.4619 83.7949 73.1963 83.7266 72.9736 83.5898C72.751 83.4531 72.5791 83.2559 72.458 82.998C72.3369 82.7402 72.2764 82.4297 72.2764 82.0664V81.375C72.2764 81 72.3369 80.6836 72.458 80.4258C72.583 80.1641 72.751 79.9668 72.9619 79.834C73.1768 79.6973 73.4209 79.6289 73.6943 79.6289C73.9717 79.6289 74.2139 79.6953 74.4209 79.8281C74.6318 79.957 74.7959 80.1504 74.9131 80.4082C75.0342 80.666 75.0947 80.9883 75.0947 81.375V82.0605L75.8975 81.0469H71.4385V82.1191H76.7178V81.5859C76.7178 80.9336 76.5947 80.3652 76.3486 79.8809C76.1025 79.3965 75.751 79.0195 75.2939 78.75C74.8369 78.4805 74.2939 78.3457 73.665 78.3457C73.04 78.3457 72.4951 78.4844 72.0303 78.7617C71.5693 79.0391 71.2119 79.4297 70.958 79.9336C70.708 80.4375 70.583 81.0312 70.583 81.7148V81.7207C70.583 82.4121 70.71 83.0078 70.9639 83.5078C71.2178 84.0078 71.5791 84.3945 72.0479 84.668C72.5205 84.9375 73.083 85.0723 73.7354 85.0723Z" fill="black"/>
</svg>
