<svg width="900" height="515" viewBox="0 0 900 515" fill="none" xmlns="http://www.w3.org/2000/svg">
<path d="M900 514.286H0V-0.00012207H900V514.286Z" fill="#F5F5F5"/>
<path d="M763.042 378.646C763.04 378.65 763.038 378.65 763.038 378.646H763.042Z" fill="#F47458"/>
<path d="M306.37 296.594L282.052 244.87C267.771 251.584 261.635 268.606 268.349 282.891C275.063 297.172 292.086 303.308 306.37 296.594Z" fill="#B75742"/>
<path d="M285.254 291.137L290.345 273.343L274.33 280.872C276.683 285.487 280.504 289.072 285.254 291.137Z" fill="#F47458"/>
<path d="M293.166 274.976L288.239 292.194C292.49 293.374 296.969 293.277 301.132 291.916L293.166 274.976Z" fill="#F47458"/>
<path d="M289.476 270.26C283.647 267.606 278.509 265.348 273.186 263.386C271.512 268.141 271.491 273.212 273.122 277.948L289.476 270.26Z" fill="#F47458"/>
<path d="M274.441 260.481C279.332 262.291 284.053 264.335 289.275 266.698L282.312 251.887C278.99 253.99 276.261 256.968 274.441 260.481Z" fill="#F47458"/>
<path d="M293.385 283.809C294.048 283.909 294.683 283.366 294.801 282.592C294.92 281.821 294.382 279.615 293.711 279.561C293.04 279.509 292.513 281.451 292.395 282.225C292.276 282.996 292.719 283.706 293.385 283.809Z" fill="#F7CC7F"/>
<path d="M297.429 290.667C298.072 290.469 298.409 289.702 298.178 288.954C297.949 288.208 296.501 286.455 295.874 286.701C295.249 286.946 295.619 288.923 295.851 289.671C296.079 290.417 296.787 290.865 297.429 290.667Z" fill="#F7CC7F"/>
<path d="M280.988 288.483C281.587 288.789 282.361 288.476 282.718 287.779C283.076 287.084 283.261 284.819 282.641 284.557C282.021 284.297 280.908 285.971 280.551 286.668C280.196 287.362 280.391 288.175 280.988 288.483Z" fill="#F7CC7F"/>
<path d="M280.839 281.931C281.098 282.554 281.893 282.813 282.615 282.515C283.335 282.214 284.943 280.607 284.639 280.008C284.336 279.406 282.402 279.964 281.679 280.265C280.959 280.563 280.581 281.309 280.839 281.931Z" fill="#F7CC7F"/>
<path d="M275.416 273.944C275.673 274.564 276.467 274.826 277.19 274.526C277.91 274.227 279.517 272.62 279.214 272.018C278.91 271.419 276.976 271.977 276.254 272.276C275.534 272.576 275.156 273.322 275.416 273.944Z" fill="#F7CC7F"/>
<path d="M280.887 270.584C280.746 271.242 281.253 271.908 282.016 272.073C282.78 272.237 285.015 271.831 285.107 271.162C285.2 270.496 283.292 269.856 282.528 269.691C281.764 269.527 281.029 269.925 280.887 270.584Z" fill="#F7CC7F"/>
<path d="M278.1 259.184C277.719 259.737 277.933 260.547 278.576 260.989C279.219 261.432 281.44 261.907 281.78 261.326C282.119 260.745 280.602 259.426 279.957 258.984C279.314 258.539 278.481 258.629 278.1 259.184Z" fill="#F7CC7F"/>
<path d="M282.919 259.498C282.327 259.817 282.145 260.632 282.515 261.321C282.885 262.01 284.642 263.45 285.21 263.09C285.776 262.73 285.032 260.861 284.662 260.172C284.292 259.482 283.513 259.181 282.919 259.498Z" fill="#F7CC7F"/>
<path d="M702.193 390.839C702.193 407.643 587.368 421.264 445.724 421.264C304.079 421.264 189.253 407.643 189.253 390.839C189.253 374.037 304.079 360.414 445.724 360.414C587.368 360.414 702.193 374.037 702.193 390.839Z" fill="#9BC1F9"/>
<path d="M492.297 382.436C492.297 382.436 524.821 362.201 528.796 355.106C532.772 348.012 527.86 346.299 527.364 342.694C526.729 338.109 527.793 336.536 532.697 333.02C537.598 329.505 546.989 326.826 549.813 320.135C552.639 313.442 546.868 293.233 546.868 293.233L542.052 291.173L547.005 288.08C547.005 288.08 553.608 252.085 549.162 245.828C549.162 245.828 539.653 253.797 533.844 263.036C528.035 272.273 524.101 272.407 524.101 272.407L528.763 276.953L523.517 273.806C523.517 273.806 515.304 283.235 515.134 292.906C514.962 302.575 512.941 304.182 512.941 304.182L518.837 308.129L511.779 306.391C511.779 306.391 507.605 315.216 502.791 318.541C496.522 322.871 488.507 328.847 488.209 342.766C487.908 356.685 492.297 382.436 492.297 382.436Z" fill="#3C8F7C"/>
<path d="M526.58 378.095C526.58 378.095 571.431 365.089 578.502 357.727C585.571 350.362 580.438 346.371 581.097 341.678C581.935 335.713 583.714 334.149 590.637 331.609C597.556 329.068 609.418 329.264 615.011 321.968C620.602 314.673 620.823 287.252 620.823 287.252L611.378 283.24L622.751 280.864C622.751 280.864 641.5 245.553 638.47 236.062C638.47 236.062 622.507 235.314 612.566 244.661C602.625 254.008 602.625 254.008 602.625 254.008L607.485 263.047L599.804 257.102C599.804 257.102 587.474 262.856 583.951 274.87C580.428 286.886 577.522 288.131 577.522 288.131L583.038 295.287L575.406 290.45C575.406 290.45 570.019 302.181 560.762 302.238C551.505 302.294 537.843 303.292 532.713 320.567C527.58 337.844 526.58 378.095 526.58 378.095Z" fill="#50BFA5"/>
<path d="M578.502 357.727C585.571 350.362 580.438 346.371 581.097 341.678C581.935 335.713 583.714 334.149 590.637 331.609C597.556 329.068 609.418 329.264 615.011 321.968C620.602 314.673 620.823 287.252 620.823 287.252L611.378 283.24L622.751 280.864C622.751 280.864 641.5 245.553 638.47 236.062C638.47 236.062 622.108 257.598 607.071 269.488C592.033 281.378 605.672 292.919 591.683 306.558C577.695 320.197 577.345 311.804 559.859 323.344C542.374 334.885 526.58 378.095 526.58 378.095C526.58 378.095 571.431 365.089 578.502 357.727Z" fill="#3C8F7C"/>
<path d="M557.527 408.145C557.527 408.145 612.195 400.734 621.147 395.694C630.095 390.654 624.183 387.512 625.269 384.123C626.649 379.815 628.884 378.759 637.354 377.226C645.825 375.693 660.194 375.616 667.365 370.558C674.537 365.5 677.741 346.896 677.741 346.896L668.474 343.106L679.099 341.735C679.099 341.735 676.059 327.883 700.786 309.819C700.786 309.819 681.668 308.541 669.145 314.892C656.619 321.246 656.619 321.246 656.619 321.246L661.888 328.053L653.04 323.37C653.04 323.37 637.874 326.993 632.89 335.584C627.907 344.175 624.34 344.949 624.34 344.949L630.514 350.416L621.653 346.541C621.653 346.541 614.451 354.842 603.332 354.456C592.21 354.07 575.748 354.171 568.502 366.519C561.255 378.869 557.527 408.145 557.527 408.145Z" fill="#50BFA5"/>
<path d="M282.276 423.033C282.268 423.113 282.266 423.19 282.266 423.267C282.266 434.389 355.135 443.402 445.024 443.402C534.911 443.402 607.783 434.389 607.783 423.267C607.783 423.19 607.778 423.113 607.77 423.033H282.276Z" fill="#466EB6"/>
<path d="M212.351 386.992C212.341 387.185 212.334 387.378 212.334 387.571C212.334 414.928 316.826 437.107 445.724 437.107C574.619 437.107 679.112 414.928 679.112 387.571C679.112 387.378 679.104 387.185 679.094 386.992H212.351Z" fill="#355389"/>
<path d="M658.79 385.555C658.79 394.938 562.649 402.544 444.05 402.544C374.256 402.544 312.241 399.909 273.019 395.828C270.79 395.596 268.635 395.36 266.554 395.118C247.84 392.948 235.313 390.417 230.989 387.687C230.984 387.684 230.981 387.681 230.975 387.676C229.879 386.982 229.314 386.272 229.314 385.555C229.314 383.673 233.184 381.862 240.33 380.17C245.801 378.872 253.195 377.648 262.24 376.511C300.256 371.739 367.47 368.565 444.05 368.565C562.649 368.565 658.79 376.172 658.79 385.555Z" fill="#466EB6"/>
<path d="M475.244 388.545C475.244 388.545 461.595 370.337 463.31 364.003C465.027 357.67 468.831 358.249 470.96 356.559C473.665 354.409 471.919 351.619 471.307 346.703C470.695 341.784 472.153 335.767 474.233 330.354C476.313 324.941 484.979 316.111 484.979 316.111L489.489 320.767L487.599 313.179C487.599 313.179 499.904 292.047 505.381 291.286C505.381 291.286 510.038 300.816 508.119 309.445C506.201 318.078 506.201 318.078 506.201 318.078L501.835 320.374L506.073 319.682C506.073 319.682 508.51 330.819 503.553 336.268C498.597 341.714 499.953 343.699 499.953 343.699L501.048 345.574C501.048 345.574 497.8 350.617 500.261 356.279C502.722 361.939 499.405 371.119 492.3 378.992C485.193 386.869 475.244 388.545 475.244 388.545Z" fill="#50BFA5"/>
<path d="M497.672 356.95C504.244 361.702 503.514 373.935 496.042 384.267C488.572 394.601 477.185 399.127 470.613 394.375C464.04 389.623 464.77 377.393 472.243 367.059C479.716 356.724 491.099 352.198 497.672 356.95Z" fill="#184655"/>
<path d="M294.868 410.991C294.868 410.991 303.472 351.995 298.183 336.597C292.893 321.2 285.297 331.73 285.297 331.73C285.297 331.73 280.707 298.969 271.808 296.064C262.908 293.158 263.232 308.715 263.232 308.715C263.232 308.715 246.011 276.21 239.737 280.106C228.05 287.362 245.132 323.902 245.132 323.902C245.132 323.902 235.555 311.4 231.112 319.235C224.411 331.051 251.153 351.401 251.153 351.401L294.868 410.991Z" fill="#50BFA5"/>
<path d="M239.103 354.147C235.352 344.564 244.328 348.061 244.328 348.061C244.328 348.061 224.411 331.051 231.112 319.235C235.555 311.4 245.133 323.902 245.133 323.902C245.133 323.902 228.051 287.362 239.737 280.106L294.521 410.336C287.846 405.694 244.909 368.982 239.103 354.147Z" fill="#3C8F7C"/>
<path d="M647.499 376.894C647.499 376.894 643.443 401.228 611.553 397.738C578.998 394.174 568.463 405.339 540.807 404.136C518.526 403.167 489.7 372.801 500.999 335.083C512.298 297.368 642.5 283.963 647.499 376.894Z" fill="#F7CC7F"/>
<path d="M647.445 375.269C647.632 377.12 647.385 378.995 646.75 380.744C644.356 387.339 636.207 401.888 611.396 399.173C578.839 395.612 568.44 405.566 540.802 404.182C518.536 403.069 489.417 375.377 500.297 341.493C511.074 307.928 639.19 294.05 647.445 375.269Z" fill="#F47458"/>
<path d="M500.297 341.493C511.658 310.567 625.675 297.895 644.989 363.916C646.079 367.624 646.879 371.422 647.445 375.269C645.794 351.28 632.818 332.092 607.69 321.459C570.703 306.064 523.612 315.579 506.649 331.781C503.781 334.44 501.4 337.749 500.297 341.493Z" fill="#FAE0B2"/>
<path d="M526.636 391.32C526.636 391.32 506.157 381.279 505.432 363.543C504.707 345.808 520.354 330.686 533.607 327.618C546.858 324.553 531 331.439 525.345 353.816C519.693 376.19 537.483 391.685 526.636 391.32Z" fill="#F48C7F"/>
<path d="M632.25 376.138C638.319 375.948 642.939 370.52 642.034 364.52C641.296 359.619 638.347 353.399 630.442 346.428C611.316 329.552 554.066 315.635 549.123 328.158C544.179 340.683 574.593 343.838 578.739 362.034C581.945 376.123 616.716 376.627 632.25 376.138Z" fill="#F48C7F"/>
<path d="M630.535 383.421C634.068 384.141 635.678 388.296 633.52 391.184C630.908 394.676 626.032 398.078 617.053 397.095C599.78 395.205 580.158 396.766 564.377 398.733C548.596 400.703 536.107 400.978 536.685 395.704C537.261 390.43 566.974 382.215 573.254 377.74C579.17 373.523 616.011 380.469 630.535 383.421Z" fill="#F48C7F"/>
<path d="M317.646 384.986L317.566 384.554C317.374 383.634 317.718 382.654 318.459 382.047C318.459 382.047 318.477 382.045 318.474 382.024C319.13 381.515 319.513 380.731 319.48 379.903V379.476C319.446 378.648 319.022 377.894 318.361 377.408C318.34 377.411 318.338 377.393 318.317 377.396C317.543 376.85 317.16 375.884 317.307 374.942L317.368 374.503C317.497 373.564 318.137 372.752 319.058 372.458L319.078 372.453C319.863 372.183 320.5 371.576 320.76 370.795L320.886 370.386C321.146 369.604 321.025 368.732 320.554 368.069C320.529 368.051 320.529 368.051 320.526 368.033C319.971 367.241 319.94 366.21 320.392 365.372L320.606 364.988C321.058 364.15 321.935 363.618 322.894 363.641C322.915 363.638 322.915 363.638 322.936 363.636C323.753 363.664 324.543 363.312 325.072 362.664L325.335 362.33C325.844 361.684 326.006 360.82 325.798 360.026C325.792 360.008 325.792 360.008 325.79 359.987C325.556 359.074 325.88 358.079 326.595 357.457L326.908 357.174C327.621 356.531 328.639 356.32 329.521 356.683C329.542 356.68 329.542 356.68 329.565 356.696C330.334 356.999 331.198 356.937 331.889 356.503L332.272 356.269C332.962 355.834 333.414 355.099 333.484 354.273C333.499 354.248 333.499 354.248 333.496 354.23C333.581 353.278 334.222 352.466 335.111 352.116L335.51 351.959C336.4 351.609 337.426 351.764 338.135 352.404L338.158 352.419C338.77 352.975 339.609 353.204 340.414 353.052L340.843 352.952C341.663 352.777 342.337 352.244 342.682 351.488L342.697 351.465C343.106 350.596 343.978 350.046 344.95 350.025L345.374 350.007C346.328 349.989 347.233 350.491 347.696 351.321C347.698 351.339 347.698 351.339 347.704 351.36C348.102 352.077 348.809 352.597 349.624 352.707L350.041 352.772C350.879 352.898 351.679 352.607 352.281 352.026L352.299 352.003C352.983 351.324 353.983 351.116 354.893 351.414L355.305 351.56C356.215 351.856 356.889 352.625 357.028 353.576C357.03 353.594 357.03 353.594 357.035 353.615C357.166 354.425 357.647 355.148 358.372 355.541L358.758 355.752C359.481 356.145 360.36 356.163 361.106 355.801L361.124 355.796C362.003 355.387 363.029 355.541 363.772 356.132L364.104 356.397C364.868 356.986 365.23 357.956 365.043 358.904L365.048 358.925C364.873 359.73 365.076 360.589 365.637 361.193L365.922 361.527C366.465 362.137 367.275 362.453 368.095 362.378C368.116 362.376 368.136 362.373 368.136 362.373C369.098 362.294 370.003 362.795 370.499 363.597L370.731 363.96C371.232 364.78 371.263 365.811 370.746 366.642C370.746 366.642 370.746 366.642 370.731 366.665C370.312 367.354 370.211 368.226 370.517 369.002L370.674 369.401C370.983 370.178 371.638 370.746 372.433 370.962C372.451 370.959 372.451 370.959 372.472 370.954C373.395 371.209 374.089 371.993 374.282 372.914L374.364 373.346C374.452 373.816 374.423 374.31 374.261 374.747L369.468 375.647L324.977 384.058L317.788 385.408C317.721 385.277 317.672 385.125 317.646 384.986Z" fill="#3C8F7C"/>
<path d="M324.977 384.058C322.846 372.703 330.555 361.718 342.208 359.529C353.826 357.349 364.966 364.757 367.131 376.087L324.977 384.058Z" fill="#50BFA5"/>
<path d="M360.573 369.854C361.62 369.347 362.883 369.784 363.392 370.831C363.901 371.88 363.464 373.142 362.415 373.649C361.368 374.158 357.122 374.919 356.613 373.873C356.104 372.824 359.524 370.363 360.573 369.854Z" fill="#F7CC7F"/>
<path d="M351.64 365.48C351.897 364.343 353.026 363.631 354.163 363.888C355.299 364.145 356.012 365.274 355.755 366.41C355.497 367.547 353.44 371.337 352.304 371.08C351.167 370.823 351.383 366.616 351.64 365.48Z" fill="#F7CC7F"/>
<path d="M341.069 366.629C340.601 365.562 341.085 364.317 342.152 363.849C343.219 363.381 344.463 363.864 344.931 364.932C345.399 365.999 346.001 370.27 344.934 370.738C343.867 371.206 341.537 367.696 341.069 366.629Z" fill="#F7CC7F"/>
<path d="M333.37 372.214C332.509 371.43 332.447 370.095 333.231 369.234C334.016 368.372 335.35 368.311 336.212 369.095C337.073 369.879 339.357 373.538 338.572 374.4C337.785 375.261 334.232 372.998 333.37 372.214Z" fill="#F7CC7F"/>
<path d="M329.418 380.772C328.279 380.52 327.562 379.394 327.811 378.257C328.063 377.121 329.189 376.401 330.326 376.653C331.465 376.905 335.266 378.941 335.016 380.078C334.764 381.217 330.555 381.024 329.418 380.772Z" fill="#F7CC7F"/>
<path d="M469.129 349.385C450.679 345.685 448.791 354.253 424.713 353.782C404.373 353.386 401.752 362.72 401.428 365.631L401.464 365.642C401.053 367.418 400.374 368.73 400.374 368.73C399.183 371.407 396.735 380.79 414.494 390.71C435.52 402.457 432.825 410.804 450.622 416.921C466.154 422.259 481.299 413.848 489.042 400.225C497.386 385.539 494.995 364.5 480.633 354.309C477.201 351.874 473.251 350.213 469.129 349.385Z" fill="#F7CC7F"/>
<path d="M382.582 363.263L382.549 363.268C382.513 363.348 385.478 365.274 391.778 366.622C394.879 367.123 395.607 367.514 402.645 367.789L402.969 367.802C404.244 367.853 404.283 369.751 402.997 369.841C402.053 369.905 401.117 369.977 400.179 370.029C400.125 370.029 388.124 370.731 380.919 367.331C379.795 366.871 379.257 365.588 379.718 364.464C380.175 363.343 381.459 362.806 382.582 363.263Z" fill="#13375B"/>
<path d="M273.019 395.828C270.79 395.596 268.635 395.36 266.554 395.118C247.84 392.948 235.313 390.417 230.989 387.686C231.04 387.679 231.068 387.676 231.068 387.676C231.068 387.676 231.037 387.676 230.975 387.676C229.454 387.686 209.655 387.674 209.218 379.7C208.922 374.282 218.099 376.552 218.368 376.619C218.009 376.431 196.646 365.325 200.412 357.413C202.441 353.157 222.64 362.229 222.897 362.342C222.787 362.193 217.436 354.896 223.168 352.934C228.959 350.951 245.047 359.681 253.188 365.138C256.197 367.156 258.349 370.208 262.24 376.511C266.531 383.456 270.646 391.214 273.019 395.828Z" fill="#50BFA5"/>
<path d="M230.989 387.686C231.04 387.679 231.068 387.676 231.068 387.676C231.068 387.676 231.036 387.676 230.975 387.676C229.454 387.686 205.327 386.321 204.89 378.347C204.594 372.929 212.177 373.814 212.446 373.88C212.088 373.695 196.645 365.325 200.412 357.413L240.33 380.17L266.554 395.118C247.84 392.948 235.313 390.417 230.989 387.686Z" fill="#3C8F7C"/>
<path d="M255.869 324.391C238.909 351.864 244.121 385.84 267.508 400.279C290.898 414.717 323.607 404.149 340.565 376.675C340.822 376.259 256.125 323.977 255.869 324.391Z" fill="#B75742"/>
<path d="M302.518 351.481L301.768 351.018L302.04 352.532L302.518 351.481Z" fill="#FFFC97"/>
<path d="M302.04 352.532L302.518 351.481L301.768 351.018L302.04 352.532Z" fill="#FFFFE9"/>
<path d="M304.755 355.41L312.323 397.823C322.869 393.673 332.015 386.064 338.338 376.141L304.755 355.41Z" fill="#F7CC7F"/>
<path d="M257.029 381.044C260.63 386.645 265.302 391.237 270.941 394.719C273.392 396.234 276.004 397.507 278.722 398.515L299.523 352.828L257.029 381.044Z" fill="#F7CC7F"/>
<path d="M249.551 350.676C248.894 360.036 250.749 369.337 254.852 377.282L294.771 350.776L249.551 350.676Z" fill="#F7CC7F"/>
<path d="M257.343 326.142C253.566 332.455 251.113 339.235 250.034 346.34L290.204 346.428L257.343 326.142Z" fill="#F7CC7F"/>
<path d="M282.891 399.832C291.047 401.974 299.705 401.778 308.17 399.256L301.127 359.771L282.891 399.832Z" fill="#F7CC7F"/>
<path d="M285.964 398.314L300.214 367.009L305.689 397.692C299.075 399.376 292.382 399.587 285.964 398.314ZM272.08 392.873C267.326 389.939 263.294 386.169 260.054 381.638L294.408 358.827L277.606 395.735C275.691 394.917 273.842 393.961 272.08 392.873ZM335.289 376.807C329.809 384.693 322.421 390.908 313.979 394.763L307.744 359.802L335.289 376.807ZM255.725 374.099C252.808 367.598 251.389 360.277 251.614 352.849L287.607 352.928L255.725 374.099ZM252.619 344.175C253.67 338.955 255.509 333.931 258.112 329.166L282.533 344.242L252.619 344.175ZM340.622 376.585C340.858 376.2 341.074 375.809 341.303 375.421L301.773 351.031L301.768 351.018C299.618 349.688 259.002 324.617 256.659 323.169C251.455 331.189 248.501 339.817 247.567 348.503C246.351 359.817 248.632 371.031 254.087 380.394H254.087C257.853 386.858 263.124 392.443 269.802 396.565C273.024 398.553 276.406 400.091 279.88 401.21C289.857 404.424 300.61 404.131 310.642 400.747C322.468 396.753 333.286 388.468 340.622 376.585Z" fill="#FAE0B2"/>
<path d="M656.982 373.585L644.799 379.509C653.84 381.389 658.79 383.426 658.79 385.555C658.79 394.938 562.646 402.544 444.052 402.544C328.376 402.544 234.064 395.308 229.489 386.244L202.358 381.214C193.859 384.238 189.253 387.476 189.253 390.839C189.253 407.643 304.079 421.264 445.724 421.264C587.368 421.264 702.193 407.643 702.193 390.839C702.193 384.431 685.494 378.489 656.982 373.585Z" fill="#9BC1F9"/>
<path d="M250.332 392.708C249.59 392.235 229.733 386.727 229.489 386.244L206.796 382.034C212.388 386.588 249.014 392.719 250.332 392.708Z" fill="#3C8F7C"/>
<path d="M631.772 392.788C631.772 398.955 623.911 403.954 614.212 403.954C604.515 403.954 596.654 398.955 596.654 392.788C596.654 386.622 604.515 381.621 614.212 381.621C623.911 381.621 631.772 386.622 631.772 392.788Z" fill="#184655"/>
<path d="M583.966 379.921C583.966 379.921 583.954 405.344 560.404 411.706C536.855 418.068 498.13 403.984 494.275 398.726C491.115 394.413 491.084 389.692 491.59 384.608C492.03 380.206 493.141 382.793 508.017 377.354C522.89 371.913 524.721 376.568 539.113 368.264C553.505 359.961 583.362 362.764 583.966 379.921Z" fill="#184655"/>
<path d="M499.703 393.305C496.517 392.235 493.938 389.91 492.439 386.904C492.431 386.889 492.423 386.876 492.416 386.861C490.415 382.916 490.888 377.753 505.761 372.312C520.635 366.873 523.646 368.863 538.038 360.563C552.433 352.26 583.565 362.432 584.169 379.589C584.169 379.589 584.169 380.874 583.822 382.186C579.893 389.792 572.84 397.332 560.186 400.368C542.757 404.55 517.839 399.404 499.703 393.305Z" fill="#3C8F7C"/>
<path d="M578.978 385.532C581.516 382.014 581.781 377.326 579.543 373.611C572.742 362.322 550.227 356.292 539.234 362.633C529.93 368 525.225 369.201 519.264 370.723C513.306 372.243 489.181 377.226 494.581 387.301C497.497 392.742 507.541 393.339 512.846 394.725C518.04 396.082 523.296 397.219 528.601 398.052C533.872 398.88 540.429 400.312 545.755 399.495C549.55 398.911 567.987 400.747 578.978 385.532Z" fill="#F7CC7F"/>
<path d="M544.194 368.537C533.523 370.329 525.873 377.745 527.107 385.102C528.344 392.459 537.994 396.972 548.666 395.18C559.337 393.387 566.987 385.971 565.753 378.615C564.516 371.258 554.866 366.745 544.194 368.537Z" fill="#B75742"/>
<path d="M245.469 214.688C255.885 222.799 254.118 242.485 241.524 258.658C228.929 274.83 210.275 281.364 199.859 273.252C189.444 265.141 191.21 245.455 203.805 229.282C216.4 213.11 235.053 206.576 245.469 214.688Z" fill="#FAE0B2"/>
<path d="M229.368 233.55C235.78 238.544 235.783 249.263 229.373 257.493C222.964 265.723 212.571 268.346 206.158 263.352C199.745 258.358 199.741 247.637 206.15 239.407C212.559 231.177 222.955 228.555 229.368 233.55Z" fill="#F7CC7F"/>
<path d="M291.886 201.862C290.404 206.866 283.999 209.384 277.581 207.483C271.162 205.583 267.159 199.988 268.64 194.984C270.121 189.98 276.526 187.462 282.945 189.363C289.363 191.263 293.367 196.858 291.886 201.862Z" fill="#3C8F7C"/>
<path d="M290.77 200.8C290.77 202.297 289.556 203.513 288.057 203.513C286.56 203.513 285.346 202.297 285.346 200.8C285.346 199.301 286.56 198.087 288.057 198.087C289.556 198.087 290.77 199.301 290.77 200.8Z" fill="#184655"/>
<path d="M594.278 226.177C598.441 229.327 598.536 236.209 594.496 241.547C590.454 246.883 583.807 248.657 579.646 245.507C575.486 242.357 575.388 235.476 579.428 230.137C583.47 224.802 590.12 223.027 594.278 226.177Z" fill="#3C8F7C"/>
<path d="M592.889 226.849C594.293 227.376 595 228.939 594.473 230.343C593.944 231.745 592.38 232.452 590.979 231.925C589.577 231.395 588.868 229.832 589.397 228.43C589.924 227.029 591.488 226.322 592.889 226.849Z" fill="#184655"/>
<path d="M615.106 200.036C615.106 201.775 613.463 203.184 611.437 203.184C609.408 203.184 607.765 201.775 607.765 200.036C607.765 198.298 609.408 196.892 611.437 196.892C613.463 196.892 615.106 198.298 615.106 200.036Z" fill="#184655"/>
<path d="M321.339 336.443C321.339 338.76 319.462 340.639 317.142 340.639C314.825 340.639 312.948 338.76 312.948 336.443C312.948 334.126 314.825 332.246 317.142 332.246C319.462 332.246 321.339 334.126 321.339 336.443Z" fill="#184655"/>
<path d="M334.407 255.589C336.819 253.658 337.924 249.392 338.058 246.746C338.23 243.306 337.217 239.739 335.206 236.702C333.206 233.683 330.336 231.366 327.127 230.176C324.656 229.26 321.807 228.936 319.202 229.68C318.037 230.011 316.509 230.538 315.895 231.616C315.188 232.858 315.409 234.498 316.173 235.653C317.361 237.448 319.644 238.026 321.274 236.946C321.277 236.944 321.282 236.941 321.285 236.939L329.503 249.487C329.493 249.492 329.485 249.498 329.477 249.503C327.847 250.583 327.489 252.91 328.677 254.705C329.554 256.029 331.275 256.896 332.859 256.42C333.424 256.248 333.939 255.962 334.407 255.589Z" fill="#F7CC7F"/>
<path d="M329.176 254.376C328.171 252.862 328.454 250.902 329.801 250.005C329.811 250 329.819 249.995 329.827 249.989C329.961 249.902 330.053 249.766 330.084 249.611C330.117 249.457 330.087 249.295 330.002 249.161L321.783 236.61C321.693 236.474 321.552 236.381 321.393 236.353C321.233 236.325 321.069 236.361 320.937 236.453C319.585 237.346 317.672 236.839 316.669 235.325C315.972 234.273 315.867 232.869 316.412 231.912C316.905 231.048 318.25 230.573 319.366 230.254C321.645 229.603 324.327 229.775 326.919 230.737C330.012 231.881 332.779 234.119 334.707 237.032C336.649 239.963 337.629 243.404 337.461 246.716C337.343 249.087 336.333 253.283 334.034 255.125C333.609 255.464 333.157 255.708 332.686 255.85C331.298 256.266 329.871 255.425 329.176 254.376Z" fill="#FAE0B2"/>
<path d="M314.591 256.369C311.246 254.584 309.405 251.802 309.065 248.027C313.524 243.872 318.536 240.552 324.1 238.068C327.446 239.853 329.289 242.632 329.626 246.41C325.167 250.563 320.156 253.882 314.591 256.369Z" fill="#FAE0B2"/>
<path d="M325.417 240.534C325.417 240.534 321.205 233.1 320.86 233.277C319.636 233.897 325.417 240.534 325.417 240.534Z" fill="#F7CC7F"/>
<path d="M325.911 240.488C325.911 240.488 324.252 232.107 323.869 232.167C322.511 232.372 325.911 240.488 325.911 240.488Z" fill="#F7CC7F"/>
<path d="M326.479 240.655C326.479 240.655 328.004 232.249 327.623 232.161C326.289 231.855 326.479 240.655 326.479 240.655Z" fill="#F7CC7F"/>
<path d="M327.016 241.136C327.016 241.136 332.247 234.38 331.951 234.128C330.907 233.241 327.016 241.136 327.016 241.136Z" fill="#F7CC7F"/>
<path d="M327.235 241.629C327.235 241.629 334.337 236.88 334.137 236.548C333.427 235.373 327.235 241.629 327.235 241.629Z" fill="#F7CC7F"/>
<path d="M327.59 243.702C327.59 243.702 333.525 249.848 333.257 250.131C332.316 251.126 327.59 243.702 327.59 243.702Z" fill="#F7CC7F"/>
<path d="M327.78 243.141C327.78 243.141 335.551 246.69 335.404 247.05C334.893 248.32 327.78 243.141 327.78 243.141Z" fill="#F7CC7F"/>
<path d="M327.693 242.427C327.693 242.427 336.225 241.987 336.261 242.373C336.394 243.738 327.693 242.427 327.693 242.427Z" fill="#F7CC7F"/>
<path d="M327.41 241.964C327.41 241.964 335.363 238.844 335.523 239.199C336.081 240.452 327.41 241.964 327.41 241.964Z" fill="#F7CC7F"/>
<path d="M677.97 391.07C681.848 389.741 685.144 384.914 686.494 381.672C688.251 377.455 688.588 372.548 687.438 367.855C686.296 363.193 683.756 359.015 680.282 356.091C677.608 353.839 674.198 352.159 670.616 351.918C669.009 351.81 666.867 351.781 665.617 352.851C664.177 354.085 663.719 356.233 664.154 358.015C664.833 360.787 667.422 362.533 669.94 361.918C669.947 361.915 669.952 361.913 669.96 361.913L674.586 381.258C674.573 381.26 674.56 381.263 674.548 381.265C672.03 381.883 670.541 384.626 671.22 387.398C671.719 389.443 673.478 391.299 675.669 391.412C676.45 391.453 677.222 391.327 677.97 391.07Z" fill="#F7CC7F"/>
<path d="M671.987 387.211C671.416 384.871 672.645 382.552 674.728 382.037C674.743 382.032 674.756 382.03 674.769 382.027C674.972 381.978 675.149 381.852 675.26 381.672C675.371 381.492 675.404 381.279 675.355 381.073C675.355 381.073 670.727 361.726 670.727 361.723C670.675 361.515 670.541 361.337 670.356 361.229C670.171 361.121 669.95 361.093 669.744 361.152C667.656 361.656 665.496 360.167 664.923 357.827C664.524 356.202 665.021 354.402 666.131 353.453C667.134 352.594 669.027 352.602 670.562 352.708C673.697 352.918 676.967 354.335 679.773 356.696C683.118 359.514 685.569 363.544 686.669 368.044C687.778 372.574 687.456 377.306 685.764 381.366C684.553 384.272 681.411 389.055 677.716 390.322C677.034 390.556 676.361 390.659 675.71 390.623C673.789 390.523 672.385 388.831 671.987 387.211Z" fill="#FAE0B2"/>
<path d="M652.891 383.158C651.392 381.502 650.35 379.733 649.769 377.851C648.545 373.899 650.775 369.707 654.686 368.355C660.587 366.313 666.682 365.056 672.969 364.582C676.342 368.311 677.394 372.608 676.124 377.47C668.695 380.656 660.952 382.552 652.891 383.158Z" fill="#FAE0B2"/>
<path d="M673.506 368.249C673.506 368.249 671.58 357.084 671.071 357.148C669.266 357.377 673.506 368.249 673.506 368.249Z" fill="#F7CC7F"/>
<path d="M674.141 368.416C674.141 368.416 675.828 357.212 675.322 357.112C673.54 356.76 674.141 368.416 674.141 368.416Z" fill="#F7CC7F"/>
<path d="M674.776 368.876C674.776 368.876 680.446 359.069 680.012 358.791C678.482 357.811 674.776 368.876 674.776 368.876Z" fill="#F7CC7F"/>
<path d="M675.231 369.717C675.231 369.717 684.787 363.633 684.532 363.186C683.625 361.61 675.231 369.717 675.231 369.717Z" fill="#F7CC7F"/>
<path d="M675.283 370.432C675.283 370.432 686.273 367.688 686.173 367.184C685.813 365.402 675.283 370.432 675.283 370.432Z" fill="#F7CC7F"/>
<path d="M674.794 373.178C674.794 373.178 679.444 383.51 678.986 383.742C677.363 384.565 674.794 373.178 674.794 373.178Z" fill="#F7CC7F"/>
<path d="M675.283 372.564C675.283 372.564 683.391 380.476 683.049 380.859C681.84 382.217 675.283 372.564 675.283 372.564Z" fill="#F7CC7F"/>
<path d="M675.494 371.63C675.494 371.63 686.337 374.909 686.211 375.408C685.767 377.169 675.494 371.63 675.494 371.63Z" fill="#F7CC7F"/>
<path d="M675.35 370.928C675.35 370.928 686.674 370.602 686.713 371.116C686.849 372.929 675.35 370.928 675.35 370.928Z" fill="#F7CC7F"/>
<path d="M570.307 258.871C565.766 256.467 557.81 256.96 553.559 258.403C547.959 260.134 543.454 263.734 541.073 267.861C538.673 271.978 538.434 276.272 539.71 279.818C540.689 282.569 542.595 285.107 545.148 286.83C546.305 287.599 547.823 288.594 549.265 288.473C550.926 288.327 552.446 287.172 553.251 285.791C554.495 283.66 553.932 281.086 551.631 280.16C551.626 280.157 551.618 280.157 551.613 280.155C554.758 275.076 558.707 270.247 563.411 265.886C563.423 265.894 563.436 265.901 563.449 265.909C565.982 267.236 569.554 267.043 571.793 265.436C573.429 264.24 574.074 262.186 572.49 260.458C571.925 259.846 571.181 259.316 570.307 258.871Z" fill="#F7CC7F"/>
<path d="M571.047 264.937C569.163 266.318 566.128 266.508 564.017 265.392C564.002 265.384 563.991 265.376 563.979 265.371C563.773 265.258 563.513 265.207 563.261 265.225C563.009 265.245 562.783 265.335 562.634 265.477C562.641 265.459 559.072 268.784 556.197 272.417C553.209 276.004 550.911 279.897 550.913 279.882C550.813 280.046 550.797 280.237 550.864 280.404C550.931 280.571 551.08 280.705 551.271 280.772C553.163 281.528 553.652 283.683 552.61 285.498C551.888 286.766 550.53 287.694 549.234 287.807C548.064 287.905 546.711 287.025 545.611 286.277C543.384 284.747 541.494 282.42 540.496 279.525C539.308 276.092 539.591 271.959 541.931 268.015C544.253 264.062 548.591 260.637 553.953 258.999C557.733 257.719 565.426 257.117 569.741 259.382C570.533 259.778 571.173 260.241 571.644 260.743C573.035 262.239 572.336 263.972 571.047 264.937Z" fill="#FAE0B2"/>
<path d="M574.275 278.239C572.464 282.009 569.608 284.277 565.902 285.732C561.22 282.497 556.252 279.507 550.862 276.619C551.232 272.687 553.618 269.121 558.358 266.686C565.65 268.378 571.084 272.669 574.275 278.239Z" fill="#FAE0B2"/>
<path d="M553.392 274.122C553.15 274.027 547.095 282.592 547.761 282.862C549.028 283.508 553.184 274.084 553.392 274.122Z" fill="#F7CC7F"/>
<path d="M553.019 273.672C552.772 273.466 543.819 280.515 544.423 280.98C545.369 281.857 552.744 273.533 553.019 273.672Z" fill="#F7CC7F"/>
<path d="M552.862 273.029C552.87 273.026 549.851 273.839 547.007 275.009C544.14 276.133 541.45 277.614 541.558 277.799C541.916 278.473 544.539 277.027 547.293 275.688C550.011 274.304 552.86 273.029 552.862 273.029Z" fill="#F7CC7F"/>
<path d="M553.14 272.237C553.148 272.242 550.044 271.895 546.868 271.967C543.7 271.98 540.46 272.414 540.435 272.641C540.321 273.435 543.487 272.983 546.693 272.713C549.895 272.384 553.137 272.237 553.14 272.237Z" fill="#F7CC7F"/>
<path d="M553.654 271.751C553.659 271.759 550.916 270.653 547.959 269.902C545.03 269.102 541.887 268.658 541.756 268.879C541.275 269.65 544.379 270.038 547.462 270.591C550.566 271.09 553.654 271.748 553.654 271.751Z" fill="#F7CC7F"/>
<path d="M556.239 270.313C556.064 270.259 561.379 261.45 562.168 261.694C564.092 262.218 555.994 270.187 556.239 270.313Z" fill="#F7CC7F"/>
<path d="M555.349 270.411C555.334 270.411 555.264 260.889 555.951 260.851C558.208 260.732 555.233 270.401 555.349 270.411Z" fill="#F7CC7F"/>
<path d="M554.428 270.875C554.611 270.782 547.863 262.965 548.234 262.764C550.304 261.689 554.549 270.846 554.428 270.875Z" fill="#F7CC7F"/>
<path d="M553.988 271.396C554.207 271.185 544.091 265.837 544.248 265.657C545.78 264.057 554.212 271.26 553.988 271.396Z" fill="#F7CC7F"/>
<path d="M533 277.362C533 281.581 530.091 285 526.5 285C522.909 285 520 281.581 520 277.362C520 273.143 526.395 259 526.395 259C526.395 259 533 273.143 533 277.362Z" fill="#F7CC7F"/>
<path d="M542 388.711C542 391.634 539.986 394 537.5 394C535.014 394 533 391.634 533 388.711C533 385.789 537.427 376 537.427 376C537.427 376 542 385.789 542 388.711Z" fill="#F7CC7F"/>
<path d="M466.173 191.701L384.827 248.435C381.473 250.776 376.95 250.465 373.959 247.674C373.92 247.634 373.875 247.595 373.836 247.555C370.393 244.319 366.543 239.69 362.997 234.528C359.452 229.365 356.51 224.109 354.712 219.722C354.688 219.658 354.663 219.599 354.639 219.539C353.107 215.745 354.403 211.388 357.752 209.056L439.109 152.313C444.118 148.815 451.018 150.08 454.485 155.129V155.134C455.379 156.433 457.211 156.641 458.37 155.569L474.09 141L489 162.697L469.926 172.4C468.526 173.111 468.069 174.909 468.963 176.209C468.973 176.224 468.973 176.224 468.968 176.214C472.435 181.263 471.183 188.209 466.173 191.701Z" fill="#3C8F7C"/>
<path d="M481.865 151.7C477.583 145.135 476.014 140.479 476 139C477.303 139.539 480.852 142.73 485.139 149.295C489.422 155.865 490.986 160.516 491 162C489.702 161.461 486.148 158.27 481.865 151.7Z" fill="#3C8F7C"/>
<path d="M534.459 104.652C534.46 104.654 534.46 104.654 534.459 104.652V104.652Z" fill="#F7CC7F"/>
<path d="M468.968 176.432C468.968 176.432 468.968 176.427 468.963 176.427C468.069 175.131 468.526 173.339 469.926 172.629L489 162.955L486.962 160C478.269 161.453 464.288 169.098 464.184 173.866C464.062 179.289 460.545 192.519 440.936 191.923C422.603 191.366 393.618 187.327 389.925 186.805L357.752 209.177C354.403 211.502 353.107 215.846 354.639 219.629C354.663 219.688 354.688 219.748 354.712 219.812C356.51 224.186 359.452 229.426 362.997 234.574C366.543 239.721 370.393 244.336 373.836 247.562C373.875 247.602 373.92 247.641 373.959 247.681C376.95 250.464 381.473 250.774 384.827 248.439L466.173 191.874C471.183 188.391 472.435 181.466 468.968 176.432Z" fill="#F7CC7F"/>
<path d="M520.545 122.043C520.588 122.013 520.621 121.97 520.643 121.914L520.39 122.091C520.449 122.086 520.502 122.073 520.545 122.043Z" fill="#899DAD"/>
<path d="M505.718 100.581C505.669 100.615 505.633 100.666 505.607 100.731L505.896 100.532C505.826 100.532 505.767 100.548 505.718 100.581Z" fill="#899DAD"/>
<path d="M488.566 157.469C487.651 158.104 484.372 154.949 481.245 150.423C478.118 145.897 476.324 141.716 477.239 141.081C478.154 140.446 481.433 143.601 484.56 148.127C487.687 152.653 489.482 156.834 488.566 157.469Z" fill="#EBECED"/>
<path d="M438.96 180.059C432.659 170.878 427.832 163.242 428.18 163L371.432 202.609C369.688 203.827 373.382 212.258 379.679 221.434C385.981 230.614 392.503 237.067 394.247 235.853L451 196.24C450.652 196.482 445.262 189.24 438.96 180.059Z" fill="#FAE0B2"/>
<path d="M482.026 152.007C477.427 145.424 475.741 140.755 475.726 139.272C477.126 139.812 480.938 143.013 485.543 149.596C490.143 156.185 491.823 160.848 491.838 162.337C490.444 161.796 486.626 158.596 482.026 152.007ZM486.667 148.827C481.72 141.747 476.293 136.985 474.547 138.185C472.797 139.381 475.385 146.093 480.331 153.168C485.277 160.248 490.705 165.016 492.455 163.815C494.201 162.614 491.613 155.907 486.667 148.827Z" fill="#184655"/>
<path d="M470.007 141.765C469.913 142.014 470.578 154.501 483.7 165.278C484.547 165.975 485.688 166.179 486.727 165.84C488.591 165.234 491.421 164.244 491.898 163.692C492.626 162.856 489.221 162.349 489.221 162.349L484.232 157.212L478.121 147.802L474.824 140.527L474.332 138C474.332 138 471.267 138.507 470.007 141.765Z" fill="#184655"/>
<path d="M512.333 194.516C506.125 180.635 498.398 160.512 490.723 160.019C490.197 159.985 489.618 159.999 489 160.048L490.979 163.519C493.185 168.07 494.908 170.956 497.456 178.611C500.005 186.266 500.7 194.371 499.908 202.398C499.696 204.572 500.01 206.892 501.487 208.886C505.705 214.59 518.545 208.402 512.333 194.516Z" fill="#F7CC7F"/>
<path d="M284.045 350.91C278.445 361.643 285.593 373.752 285.609 373.857C288.293 378.62 292.647 382.736 298.898 385.542C300.7 386.331 302.536 386.951 304.493 387.347L305.278 383.729C303.67 383.86 298.929 382.744 295.411 380.479C292.338 378.591 289.666 375.94 287.846 372.718C284.557 367.107 283.451 358.992 286.56 352.923C285.799 352.113 284.93 351.424 284.045 350.91Z" fill="#184655"/>
<path d="M439.028 381.376C439.028 364.114 420.935 350.121 398.62 350.121C382.39 350.121 368.401 357.526 361.975 368.205C328.636 369.648 302.899 378.995 302.899 390.317C302.899 395.604 308.137 399.315 312.256 401.616C319.868 405.864 328.636 408.083 337.14 409.683C347.724 411.675 358.437 412.961 369.18 413.686C379.497 414.381 390.04 414.923 400.356 414.057C408.59 413.367 416.751 411.382 423.98 407.276C429.984 403.866 434.883 398.744 437.248 392.181C438.495 388.723 439.028 385.043 439.028 381.376Z" fill="#355389"/>
<path d="M320.637 383.21C320.637 383.21 366.562 379.412 370.962 377.859C375.362 376.305 374.256 366.164 391.402 362.659C408.551 359.157 418.968 364.873 421.043 373.906C423.118 382.942 410.948 390.317 406.522 384.233C402.097 378.149 400.806 371.183 390.85 372.453C380.893 373.724 373.333 382.312 373.333 382.312L320.637 383.21Z" fill="#466EB6"/>
<path d="M323.542 381.711L320.477 383.292C320.066 383.503 319.996 384.061 320.341 384.369L322.64 386.419C323.02 386.758 322.889 387.381 322.406 387.537L319.444 388.499C318.924 388.666 318.824 389.355 319.271 389.667L323.332 392.472L323.499 392.583L318.556 395.388C318.158 395.614 318.106 396.17 318.459 396.465L321.591 399.099C321.961 399.412 321.881 400.004 321.439 400.204L317.129 402.156C316.849 402.282 316.692 402.585 316.754 402.889L317.227 405.203C317.317 405.653 316.931 406.059 316.479 405.987C302.022 403.642 298.808 392.498 298.615 391.778C298.607 391.755 298.605 391.731 298.6 391.706C298.35 390.127 298.306 388.666 298.44 387.337C299.667 374.853 316.214 372.831 322.455 372.513C323.128 372.479 323.411 373.361 322.846 373.726L322.18 374.153C321.712 374.454 321.807 375.169 322.339 375.336C322.838 375.493 322.964 376.138 322.56 376.473L321.11 377.668C320.781 377.941 320.791 378.445 321.13 378.702L323.638 380.6C324.023 380.893 323.972 381.489 323.542 381.711Z" fill="#3C8F7C"/>
<path d="M486.113 421.321C486.81 422.023 486.622 421.629 487.278 422.319C471.106 431.702 461.965 435.214 458.851 430.079C456.907 429.13 460.862 422.895 463.163 421.452C469.443 417.51 481.148 420.557 486.113 421.321Z" fill="#F47458"/>
<path d="M470.199 380.695C472.382 388.448 472.814 392.523 468.81 399.423C468.887 399.446 468.959 399.461 469.041 399.474C470.942 399.95 472.857 400.058 474.83 399.7C475.334 399.603 477.337 399.752 478.322 399.613C478.322 399.613 478.322 399.623 478.329 399.61C478.566 399.582 478.741 399.533 478.828 399.464C484.321 394.804 484.956 389.35 484.514 382.153C484.537 380.867 476.195 378.121 470.199 380.695Z" fill="#F47458"/>
<path d="M470.474 380.597C466.362 378.646 459.653 382.294 456.439 384.256C460.589 389.011 461.242 393.349 459.82 399.536C461.608 399.893 467.735 400.827 469.042 399.474C469.085 399.436 469.119 399.397 469.152 399.351C473.331 394.375 473.966 389.924 473.408 386.617C472.855 383.251 470.908 380.71 470.474 380.597Z" fill="#F47458"/>
<path d="M494.154 386.794C490.385 381.101 484.27 381.872 484.169 382.024C484.11 382.027 484.059 382.027 484 382.04C484.601 391.675 482.439 394.598 477.875 399.374C478.021 399.456 478.165 399.536 478.322 399.613C478.322 399.613 478.322 399.623 478.33 399.61C479.754 400.348 482.909 401.402 484.316 400.716C487.188 399.374 489.148 397.833 490.629 395.946C492.316 393.778 494.661 388.381 494.37 387.265C494.334 387.11 494.265 386.954 494.154 386.794Z" fill="#F47458"/>
<path d="M503.442 407.533C502.753 418.266 494.781 419.598 487.921 422.187C487.419 422.375 486.921 422.452 486.471 422.426C485.483 422.365 484.814 421.786 485.257 420.719C486.62 417.451 488.841 413.907 488.852 409.06C488.859 409.05 488.857 409.04 488.854 409.029C493.953 410.804 498.348 409.567 503.442 407.533Z" fill="#F47458"/>
<path d="M494.378 387.244C494.378 387.255 494.37 387.255 494.37 387.265C491.503 395.416 491.009 395.841 483.562 400.22C484.059 401.711 486.622 405.959 488.044 405.656C489.842 405.183 491.539 404.648 493.141 403.971C497.883 401.948 500.95 398.656 501.117 398.147L501.128 398.145C501.57 397.034 499.071 390.425 494.378 387.244Z" fill="#F47458"/>
<path d="M501.128 398.144L501.117 398.147C495.615 403.426 495.635 402.439 488.211 404.861C487.944 404.948 487.787 405.244 487.731 405.663C487.545 406.851 488.145 408.926 489.186 409.243C495.105 411.264 501.879 410.516 503.344 408.494C505.185 406.026 503.388 400.379 501.128 398.144Z" fill="#F47458"/>
<path d="M486.563 421.491C480.831 420.771 470.857 418.765 465.081 421.372C464.14 421.799 462.752 422.614 461.818 423.141C459.378 421.786 462.057 415.281 472.004 416.343C475.763 416.741 483.161 420.261 486.563 421.491Z" fill="#B75742"/>
<path d="M439.794 406.983C434.404 410.688 432.324 413.252 423.666 413.241C436.081 411.151 434.445 405.921 439.005 406.918C439.218 406.967 439.452 406.957 439.794 406.983Z" fill="#B75742"/>
<path d="M432.928 415.89C436.526 414.213 439.743 412.82 442.417 408.387C443.566 406.481 444.394 406.918 445.896 406.759C442.918 411.495 438.655 414.738 432.928 415.89Z" fill="#B75742"/>
<path d="M472.269 407.044C473.027 404.766 476.038 401.367 478.108 399.862C478.445 400.078 479.597 400.816 479.962 401.05C477.571 402.146 473.757 405.105 472.269 407.044Z" fill="#B75742"/>
<path d="M471.024 400.176C470.042 402.344 468.622 406.286 468.934 408.451C467.902 407.25 468.779 402.007 469.607 399.757C469.944 399.834 470.643 400.091 471.024 400.176Z" fill="#B75742"/>
<path d="M474.953 399.502C473.503 401.227 470.625 405.928 470.137 407.959C469.664 406.53 470.546 404.431 471.227 402.999C472.521 399.62 473.817 399.327 474.953 399.502Z" fill="#B75742"/>
<path d="M495.969 407.924C493.447 406.43 493.154 404.614 494.126 402.935L494.136 402.933C494.486 402.328 494.897 401.948 494.897 401.948C489.446 400.438 494.715 395.923 490.117 395.463C486.154 395.18 484.807 385.514 484.421 381.939C484.421 381.88 484.416 381.849 484.416 381.849C484.416 381.849 484.411 381.883 484.388 381.947C484.362 382.053 484.295 382.238 484.215 382.477C483.619 384.2 481.634 388.972 477.867 389.769C475.938 390.178 474.002 388.666 472.4 386.763C470.26 384.197 468.638 380.751 468.625 380.728C468.028 387.026 462.86 391.392 458.751 393.902L458.542 401.13C459.725 403.75 465.31 404.056 467.301 402.935C471.217 403.601 472.863 402.861 474.994 402.817C475.786 402.794 476.892 402.917 477.792 402.817C479.443 403.491 480.122 402.629 481.989 402.467C482.768 403.851 485.568 405.229 487.129 405.849C487.101 406.944 487.535 408.299 488.42 409.022C488.42 413.604 486.278 416.829 484.73 420.495C484.218 421.568 484.943 422.128 486.036 422.169C490.587 419.189 500.163 410.41 495.969 407.924Z" fill="#B75742"/>
<path d="M461.595 400.433C447.387 415.91 403.331 402.819 403.035 402.665C403.601 402.308 427.572 391.055 429.951 390.392C431.072 396.643 440.887 392.775 437.886 387.725C444.065 385.982 449.758 384.446 457.334 383.788C457.588 383.765 457.928 383.878 458.069 384.035C463.986 390.872 463.212 399.042 461.595 400.433Z" fill="#F47458"/>
<path d="M439.149 389.962C439.719 393.094 437.84 396.136 434.952 396.753C432.064 397.373 429.261 395.336 428.691 392.204C428.12 389.072 429.999 386.03 432.887 385.411C435.775 384.791 438.578 386.83 439.149 389.962Z" fill="#184655"/>
<path d="M390.124 402.691C395.789 397.083 404.519 390.667 411.706 393.665C415.949 395.393 418.449 400.433 418.433 400.41C418.809 401.079 419.611 401.287 420.225 400.881C420.848 400.469 421.051 399.561 420.619 398.872C417.253 393.562 412.992 390.222 407.029 390.847C399.261 391.672 390.906 399.515 386.02 406C385.712 406.409 386.264 406.926 386.591 406.533C386.591 406.533 388.872 403.938 390.124 402.691Z" fill="#F47458"/>
<path d="M671.282 264.286L671.446 264.469C671.806 264.855 671.927 265.425 671.747 265.929C671.747 265.929 671.739 265.937 671.747 265.945C671.58 266.382 671.624 266.868 671.881 267.254L672.004 267.459C672.259 267.848 672.683 268.084 673.141 268.125C673.149 268.118 673.156 268.128 673.164 268.12C673.694 268.156 674.159 268.509 674.362 269.002L674.46 269.231C674.671 269.72 674.599 270.293 674.244 270.702L674.236 270.71C673.938 271.067 673.809 271.543 673.91 271.993L673.969 272.227C674.072 272.677 674.383 273.06 674.802 273.243C674.818 273.243 674.817 273.243 674.825 273.25C675.321 273.469 675.635 273.955 675.661 274.487L675.671 274.734C675.697 275.266 675.429 275.775 674.964 276.043C674.956 276.051 674.956 276.051 674.946 276.058C674.545 276.282 674.27 276.681 674.205 277.143L674.175 277.38C674.118 277.838 674.29 278.301 674.622 278.619C674.63 278.627 674.63 278.627 674.638 278.635C675.013 279.005 675.149 279.576 674.985 280.083L674.918 280.309C674.764 280.826 674.337 281.222 673.807 281.304C673.799 281.312 673.799 281.312 673.784 281.309C673.326 281.389 672.93 281.669 672.724 282.078L672.609 282.302C672.403 282.711 672.4 283.194 672.609 283.611C672.606 283.626 672.606 283.626 672.614 283.634C672.85 284.115 672.778 284.691 672.452 285.117L672.308 285.308C671.981 285.735 671.446 285.958 670.919 285.858L670.904 285.855C670.449 285.768 669.981 285.899 669.639 286.208L669.464 286.38C669.119 286.701 668.952 287.151 669.006 287.617L669.004 287.632C669.063 288.167 668.803 288.684 668.343 288.975L668.145 289.108C667.692 289.391 667.114 289.414 666.651 289.152C666.643 289.144 666.643 289.144 666.635 289.134C666.237 288.908 665.745 288.864 665.324 289.047L665.105 289.137C664.665 289.319 664.367 289.692 664.246 290.145V290.16C664.115 290.685 663.696 291.075 663.174 291.196L662.932 291.248C662.41 291.369 661.865 291.196 661.521 290.78C661.516 290.772 661.516 290.772 661.508 290.762C661.21 290.412 660.767 290.206 660.307 290.229L660.06 290.24C659.597 290.26 659.173 290.507 658.921 290.898L658.913 290.906C658.61 291.356 658.072 291.579 657.545 291.513L657.309 291.482C656.774 291.42 656.316 291.063 656.131 290.551L656.123 290.543C655.971 290.106 655.627 289.754 655.182 289.628L654.948 289.551C654.511 289.414 654.03 289.499 653.657 289.772C653.649 289.779 653.642 289.787 653.642 289.787C653.205 290.103 652.623 290.127 652.153 289.887L651.937 289.779C651.459 289.533 651.142 289.047 651.15 288.499C651.15 288.499 651.15 288.499 651.15 288.483C651.153 288.031 650.947 287.583 650.574 287.301L650.384 287.154C650.011 286.871 649.53 286.789 649.088 286.917C649.08 286.923 649.08 286.923 649.07 286.93C648.555 287.077 647.992 286.902 647.635 286.519L647.47 286.334C647.29 286.133 647.162 285.889 647.11 285.632L649.149 283.809L668.037 266.86L671.094 264.124C671.163 264.168 671.23 264.227 671.282 264.286Z" fill="#3C8F7C"/>
<path d="M668.037 266.86C672.357 271.684 671.85 279.19 666.898 283.623C661.96 288.041 654.47 287.725 650.142 282.921L668.037 266.86Z" fill="#50BFA5"/>
<path d="M655.095 284.004C654.74 284.552 654.009 284.709 653.459 284.354C652.911 283.999 652.755 283.269 653.109 282.718C653.464 282.171 655.28 280.574 655.827 280.929C656.375 281.283 655.449 283.456 655.095 284.004Z" fill="#F7CC7F"/>
<path d="M660.649 283.508C660.855 284.127 660.52 284.798 659.901 285.004C659.281 285.21 658.612 284.876 658.404 284.256C658.198 283.636 658.085 281.222 658.705 281.016C659.322 280.808 660.443 282.888 660.649 283.508Z" fill="#F7CC7F"/>
<path d="M665.46 280.299C665.995 280.674 666.123 281.412 665.748 281.947C665.373 282.482 664.635 282.61 664.102 282.235C663.567 281.859 662.037 279.985 662.413 279.45C662.788 278.918 664.925 279.923 665.46 280.299Z" fill="#F7CC7F"/>
<path d="M667.453 274.976C668.093 275.102 668.51 275.724 668.384 276.364C668.258 277.005 667.636 277.421 666.995 277.295C666.355 277.169 664.198 276.076 664.324 275.436C664.45 274.796 666.813 274.85 667.453 274.976Z" fill="#F7CC7F"/>
<path d="M666.864 269.725C667.481 269.514 668.152 269.846 668.363 270.463C668.572 271.082 668.242 271.754 667.623 271.962C667.006 272.173 664.591 272.301 664.38 271.682C664.172 271.062 666.244 269.933 666.864 269.725Z" fill="#F7CC7F"/>
<path d="M674.447 379.242C676.07 386.198 668.518 393.904 657.579 396.455C646.642 399.003 636.462 395.434 634.84 388.478C633.217 381.523 640.769 373.816 651.706 371.265C662.642 368.714 672.825 372.286 674.447 379.242Z" fill="#184655"/>
<path d="M670.737 234.851C666.445 239.654 658.227 238.909 651.477 234.401C644.763 229.837 640.985 222.5 643.824 216.72C646.632 210.97 656.321 209.522 664.511 215.053C672.714 220.567 675.01 230.089 670.737 234.851Z" fill="#3C8F7C"/>
<path d="M669.171 232.935C665.807 237.291 658.759 236.991 652.837 233.223C646.941 229.415 643.582 223.084 645.845 218.093C648.085 213.125 656.074 211.757 663.089 216.193C670.112 220.613 672.521 228.61 669.171 232.935Z" fill="#50BFA5"/>
<path d="M650.87 228.957C650.304 229.132 649.571 228.831 649.219 228.283C648.864 227.736 649.026 227.142 649.589 226.957C650.152 226.764 652.539 226.699 652.891 227.273C653.238 227.836 651.428 228.777 650.87 228.957Z" fill="#96D9C9"/>
<path d="M656.254 232.38C656.144 232.922 655.539 233.154 654.904 232.912C654.267 232.67 653.835 232.043 653.932 231.5C654.033 230.96 655.028 229.261 655.683 229.502C656.342 229.747 656.37 231.84 656.254 232.38Z" fill="#96D9C9"/>
<path d="M661.971 233.434C662.243 234.043 661.983 234.607 661.4 234.694C660.819 234.781 660.132 234.37 659.854 233.771C659.587 233.172 659.147 230.937 659.728 230.832C660.322 230.724 661.706 232.822 661.971 233.434Z" fill="#96D9C9"/>
<path d="M666.548 231.344C667.044 231.894 667.085 232.593 666.651 232.907C666.216 233.221 665.473 233.033 664.984 232.496C664.506 231.95 663.146 229.739 663.562 229.412C663.994 229.073 666.062 230.788 666.548 231.344Z" fill="#96D9C9"/>
<path d="M668.088 226.442C668.764 226.7 669.276 227.391 669.225 227.978C669.173 228.564 668.59 228.816 667.924 228.556C667.263 228.286 664.912 226.831 664.938 226.257C664.969 225.669 667.409 226.172 668.088 226.442Z" fill="#96D9C9"/>
<path d="M647.779 221.158C647.085 221.076 646.588 221.475 646.666 222.043C646.74 222.609 647.35 223.131 648.034 223.221C648.713 223.3 651.091 223.087 651.037 222.519C650.978 221.935 648.471 221.23 647.779 221.158Z" fill="#96D9C9"/>
<path d="M650.425 217.561C649.88 217.075 649.059 216.951 648.602 217.283C648.147 217.612 648.224 218.263 648.766 218.738C649.314 219.206 651.664 220.621 652.122 220.317C652.595 220.001 650.98 218.039 650.425 217.561Z" fill="#96D9C9"/>
<path d="M655.686 216.033C655.529 215.436 654.822 214.907 654.112 214.86C653.403 214.812 652.968 215.259 653.135 215.848C653.31 216.434 654.562 218.589 655.249 218.653C655.946 218.715 655.851 216.63 655.686 216.033Z" fill="#96D9C9"/>
<path d="M661.932 218.034C662.097 217.517 661.662 216.818 660.958 216.486C660.253 216.154 659.554 216.314 659.402 216.833C659.253 217.353 659.384 219.518 660.065 219.847C660.749 220.179 661.768 218.551 661.932 218.034Z" fill="#96D9C9"/>
<path d="M666.777 222.058C667.275 221.806 667.283 221.125 666.784 220.541C666.285 219.96 665.473 219.705 664.979 219.97C664.483 220.235 663.236 221.757 663.729 222.32C664.218 222.881 666.278 222.31 666.777 222.058Z" fill="#96D9C9"/>
</svg>
