<svg width="112" height="99" viewBox="0 0 112 99" fill="none" xmlns="http://www.w3.org/2000/svg">
<rect x="1.5" y="1.5" width="109" height="96" rx="14.5" fill="white" stroke="#ADC6F7" stroke-width="3"/>
<path d="M42.1779 44.4618C44.8959 44.4618 47.2237 46.0382 48.3654 48.3118L53.1946 45.8965C51.189 41.7646 46.964 38.9062 42.0612 38.9062C40.2543 38.9062 38.5418 39.3021 36.9932 39.9993L39.3098 45.0965C40.1862 44.6979 41.1529 44.4618 42.1779 44.4618ZM72.7334 44.4618C74.7709 44.4618 76.5834 45.3549 77.8557 46.7507L81.8793 43.091C79.6112 40.5299 76.3071 38.9062 72.6168 38.9062C67.6501 38.9062 63.3779 41.8382 61.4043 46.059L66.4709 48.4507C67.5848 46.1007 69.9598 44.4618 72.7334 44.4618Z" fill="#EA596E"/>
<path d="M42.1783 41.6846C36.8088 41.6846 32.4561 46.0373 32.4561 51.4068C32.4561 56.7762 36.8088 61.129 42.1783 61.129C47.5477 61.129 51.9005 56.7762 51.9005 51.4068C51.9005 46.0373 47.5491 41.6846 42.1783 41.6846ZM42.1783 58.3512C38.3436 58.3512 35.2338 55.2429 35.2338 51.4068C35.2338 47.5707 38.3436 44.4623 42.1783 44.4623C46.013 44.4623 49.1227 47.5707 49.1227 51.4068C49.1227 55.2429 46.0144 58.3512 42.1783 58.3512ZM72.7338 41.6846C67.3658 41.6846 63.0116 46.0373 63.0116 51.4068C63.0116 56.7762 67.3658 61.129 72.7338 61.129C78.1047 61.129 82.4561 56.7762 82.4561 51.4068C82.4561 46.0373 78.1047 41.6846 72.7338 41.6846ZM72.7338 58.3512C68.8991 58.3512 65.7894 55.2429 65.7894 51.4068C65.7894 47.5707 68.8991 44.4623 72.7338 44.4623C76.5699 44.4623 79.6783 47.5707 79.6783 51.4068C79.6783 55.2429 76.5699 58.3512 72.7338 58.3512Z" fill="#292F33"/>
<path d="M74.1001 51.2985C74.0931 51.2054 74.0709 51.1151 74.0445 51.0235C74.0181 50.9332 73.989 50.8485 73.9459 50.7651C73.9278 50.7318 73.9251 50.6929 73.9056 50.661L64.1834 35.3832C63.7709 34.736 62.914 34.5443 62.2653 34.9568C61.8501 35.2207 61.6487 35.6693 61.6473 36.1276H49.1223C48.3556 36.1276 47.7334 36.7485 47.7334 37.5165C47.7334 38.2846 48.3556 38.9054 49.1223 38.9054H63.0112C63.0487 38.9054 63.0806 38.886 63.1181 38.8832L70.2028 50.0179H57.4556C56.689 50.0179 56.0667 50.6388 56.0667 51.4068C56.0667 52.1749 56.689 52.7957 57.4556 52.7957H72.7348C72.8959 52.7957 73.0542 52.7568 73.2112 52.6999C73.2584 52.6818 73.3001 52.6624 73.3459 52.6401C73.389 52.6165 73.4376 52.6068 73.4806 52.579C73.5223 52.5513 73.5473 52.5082 73.5848 52.479C73.6612 52.4179 73.7278 52.3554 73.789 52.2804C73.8459 52.2124 73.8917 52.1429 73.9334 52.0665C73.9751 51.9888 74.0098 51.9137 74.0376 51.8276C74.0667 51.736 74.0834 51.6443 74.0931 51.5485C74.0987 51.4985 74.1223 51.4568 74.1223 51.4068C74.1223 51.3693 74.1028 51.336 74.1001 51.2985Z" fill="#DD2E44"/>
<path d="M62.4298 33.3516L58.4034 44.6252L50.1687 35.2155C49.6631 34.6391 48.7853 34.578 48.2089 35.0849C47.6325 35.5905 47.5742 36.4668 48.0784 37.0446L57.3339 47.621L56.1478 50.9405C55.8909 51.6613 56.2673 52.4571 56.9895 52.7141C57.1437 52.7696 57.3006 52.796 57.4562 52.796C58.027 52.796 58.5617 52.4418 58.7645 51.8738L65.3798 33.3516H62.4298Z" fill="#DD2E44"/>
<path d="M42.1783 52.7955C41.97 52.7955 41.7575 52.7482 41.5589 52.6496C40.8727 52.3066 40.595 51.4718 40.938 50.7857L45.1908 42.3052C45.2144 42.2663 47.7339 38.4218 47.7339 34.7399C47.7339 30.2371 44.5491 29.1246 44.5172 29.1135C43.7894 28.8705 43.3964 28.0843 43.6394 27.3566C43.8811 26.6288 44.6658 26.2316 45.3964 26.4788C45.6047 26.5482 50.5116 28.258 50.5116 34.7399C50.5116 39.001 47.9616 43.1316 47.5519 43.7635L43.4214 52.026C43.1783 52.5149 42.688 52.7955 42.1783 52.7955Z" fill="#DD2E44"/>
<path d="M52.7507 30.1053C52.6757 30.1053 52.5979 30.0997 52.5215 30.0858L44.1882 28.6969C43.4326 28.5705 42.9201 27.8553 43.0465 27.0983C43.1729 26.3428 43.8812 25.8303 44.6451 25.9567L52.9784 27.3455C53.734 27.4719 54.2465 28.1872 54.1201 28.9442C54.0062 29.6233 53.4173 30.1053 52.7507 30.1053ZM69.0993 34.74C69.0576 34.74 69.0173 34.7372 68.9757 34.7317L61.0979 33.7483C60.5812 33.6844 60.2034 33.2289 60.2368 32.7094C60.2687 32.19 60.6993 31.7858 61.2187 31.7858C61.2757 31.7858 66.8673 31.7608 69.5368 29.9817C69.884 29.7497 70.3451 29.7636 70.6812 30.0178C71.0132 30.2747 71.1493 30.7136 71.0159 31.1122L70.0312 34.0664C69.8979 34.4733 69.5187 34.74 69.0993 34.74Z" fill="#292F33"/>
<path d="M60.2343 51.4067C60.2343 52.94 58.9912 54.1845 57.4565 54.1845C55.9232 54.1845 54.6787 52.94 54.6787 51.4067C54.6787 49.8734 55.9232 48.6289 57.4565 48.6289C58.9912 48.6289 60.2343 49.8734 60.2343 51.4067Z" fill="#66757F"/>
<path d="M36.5986 84.9375H39.5107C40.1162 84.9375 40.6357 84.8398 41.0693 84.6445C41.5068 84.4453 41.8428 84.166 42.0771 83.8066C42.3154 83.4434 42.4346 83.0156 42.4346 82.5234V82.5117C42.4346 82.1523 42.3506 81.8262 42.1826 81.5332C42.0186 81.2402 41.79 81.002 41.4971 80.8184C41.208 80.6348 40.876 80.5293 40.501 80.502V80.3965C40.79 80.3535 41.0498 80.2461 41.2803 80.0742C41.5107 79.9023 41.6924 79.6875 41.8252 79.4297C41.9619 79.1719 42.0303 78.8945 42.0303 78.5977V78.5859C42.0303 78.1523 41.9248 77.7793 41.7139 77.4668C41.5068 77.1504 41.208 76.9082 40.8174 76.7402C40.4307 76.5684 39.9619 76.4824 39.4111 76.4824H36.5986V77.7949H38.96C39.3818 77.7949 39.708 77.8926 39.9385 78.0879C40.1729 78.2793 40.29 78.5469 40.29 78.8906V78.9023C40.29 79.25 40.1631 79.5195 39.9092 79.7109C39.6553 79.9023 39.29 79.998 38.8135 79.998H36.5986V81.1641H39.0186C39.3662 81.1641 39.6592 81.2109 39.8975 81.3047C40.1396 81.3945 40.3213 81.5293 40.4424 81.709C40.5674 81.8887 40.6299 82.1094 40.6299 82.3711V82.3828C40.6299 82.7852 40.4951 83.0918 40.2256 83.3027C39.96 83.5137 39.5713 83.6191 39.0596 83.6191H36.5986V84.9375ZM35.7139 84.9375H37.4834V76.4824H35.7139V84.9375ZM43.876 84.9375H45.5869V78.4863H43.876V84.9375ZM44.7373 77.4961C45.0029 77.4961 45.2295 77.4043 45.417 77.2207C45.6045 77.0332 45.6982 76.8086 45.6982 76.5469C45.6982 76.2812 45.6045 76.0566 45.417 75.873C45.2295 75.6855 45.0029 75.5918 44.7373 75.5918C44.4756 75.5918 44.249 75.6855 44.0576 75.873C43.8662 76.0566 43.7705 76.2812 43.7705 76.5469C43.7705 76.8086 43.8662 77.0332 44.0576 77.2207C44.249 77.4043 44.4756 77.4961 44.7373 77.4961ZM50.1514 85.0723C50.7139 85.0723 51.1982 84.9785 51.6045 84.791C52.0107 84.5996 52.333 84.3301 52.5713 83.9824C52.8096 83.6348 52.96 83.2285 53.0225 82.7637V82.7227L51.4404 82.7285L51.4287 82.7461C51.3545 83.0742 51.2119 83.3203 51.001 83.4844C50.79 83.6484 50.5088 83.7305 50.1572 83.7305C49.8525 83.7305 49.5947 83.6523 49.3838 83.4961C49.1729 83.3398 49.0107 83.1113 48.8975 82.8105C48.7881 82.5059 48.7334 82.1367 48.7334 81.7031V81.6914C48.7334 81.2578 48.7881 80.8926 48.8975 80.5957C49.0068 80.2988 49.167 80.0742 49.3779 79.9219C49.5928 79.7656 49.8525 79.6875 50.1572 79.6875C50.5244 79.6875 50.8135 79.7832 51.0244 79.9746C51.2393 80.1621 51.376 80.4121 51.4346 80.7246L51.4404 80.7363H53.0283V80.7188C52.9775 80.2383 52.833 79.8203 52.5947 79.4648C52.3564 79.1094 52.0322 78.834 51.6221 78.6387C51.2119 78.4434 50.7217 78.3457 50.1514 78.3457C49.4795 78.3457 48.9072 78.4785 48.4346 78.7441C47.9658 79.0059 47.6084 79.3848 47.3623 79.8809C47.1162 80.377 46.9932 80.9805 46.9932 81.6914V81.7031C46.9932 82.418 47.1162 83.0273 47.3623 83.5312C47.6084 84.0312 47.9658 84.4141 48.4346 84.6797C48.9072 84.9414 49.4795 85.0723 50.1514 85.0723ZM55.1318 87.2109C55.6631 87.2109 56.1182 87.1387 56.4971 86.9941C56.876 86.8535 57.1982 86.6152 57.4639 86.2793C57.7295 85.9473 57.958 85.498 58.1494 84.9316L60.3467 78.4863H58.542L57.001 84.0527L57.376 83.373H56.8662L57.2588 84.0527L55.7178 78.4863H53.8369L56.1045 84.9375L56.0459 85.1836C55.9873 85.4336 55.8682 85.6191 55.6885 85.7402C55.5088 85.8613 55.2666 85.9219 54.9619 85.9219C54.8838 85.9219 54.8037 85.9199 54.7217 85.916C54.6436 85.916 54.5752 85.9121 54.5166 85.9043V87.1934C54.6182 87.1973 54.7217 87.2012 54.8271 87.2051C54.9326 87.209 55.0342 87.2109 55.1318 87.2109ZM64.1084 85.0723C64.6709 85.0723 65.1553 84.9785 65.5615 84.791C65.9678 84.5996 66.29 84.3301 66.5283 83.9824C66.7666 83.6348 66.917 83.2285 66.9795 82.7637V82.7227L65.3975 82.7285L65.3857 82.7461C65.3115 83.0742 65.1689 83.3203 64.958 83.4844C64.7471 83.6484 64.4658 83.7305 64.1143 83.7305C63.8096 83.7305 63.5518 83.6523 63.3408 83.4961C63.1299 83.3398 62.9678 83.1113 62.8545 82.8105C62.7451 82.5059 62.6904 82.1367 62.6904 81.7031V81.6914C62.6904 81.2578 62.7451 80.8926 62.8545 80.5957C62.9639 80.2988 63.124 80.0742 63.335 79.9219C63.5498 79.7656 63.8096 79.6875 64.1143 79.6875C64.4814 79.6875 64.7705 79.7832 64.9814 79.9746C65.1963 80.1621 65.333 80.4121 65.3916 80.7246L65.3975 80.7363H66.9854V80.7188C66.9346 80.2383 66.79 79.8203 66.5518 79.4648C66.3135 79.1094 65.9893 78.834 65.5791 78.6387C65.1689 78.4434 64.6787 78.3457 64.1084 78.3457C63.4365 78.3457 62.8643 78.4785 62.3916 78.7441C61.9229 79.0059 61.5654 79.3848 61.3193 79.8809C61.0732 80.377 60.9502 80.9805 60.9502 81.6914V81.7031C60.9502 82.418 61.0732 83.0273 61.3193 83.5312C61.5654 84.0312 61.9229 84.4141 62.3916 84.6797C62.8643 84.9414 63.4365 85.0723 64.1084 85.0723ZM68.3799 84.9375H70.0908V76.0195H68.3799V84.9375ZM74.6963 85.0723C75.1689 85.0723 75.5771 85.0137 75.9209 84.8965C76.2686 84.7754 76.5576 84.6191 76.7881 84.4277C77.0225 84.2363 77.2061 84.0312 77.3389 83.8125C77.4717 83.5898 77.5635 83.377 77.6143 83.1738L77.626 83.1152H76.0322L76.0146 83.1504C75.9756 83.2324 75.9014 83.3242 75.792 83.4258C75.6865 83.5234 75.5459 83.6094 75.3701 83.6836C75.1943 83.7578 74.9814 83.7949 74.7314 83.7949C74.4229 83.7949 74.1572 83.7266 73.9346 83.5898C73.7119 83.4531 73.54 83.2559 73.4189 82.998C73.2979 82.7402 73.2373 82.4297 73.2373 82.0664V81.375C73.2373 81 73.2979 80.6836 73.4189 80.4258C73.5439 80.1641 73.7119 79.9668 73.9229 79.834C74.1377 79.6973 74.3818 79.6289 74.6553 79.6289C74.9326 79.6289 75.1748 79.6953 75.3818 79.8281C75.5928 79.957 75.7568 80.1504 75.874 80.4082C75.9951 80.666 76.0557 80.9883 76.0557 81.375V82.0605L76.8584 81.0469H72.3994V82.1191H77.6787V81.5859C77.6787 80.9336 77.5557 80.3652 77.3096 79.8809C77.0635 79.3965 76.7119 79.0195 76.2549 78.75C75.7979 78.4805 75.2549 78.3457 74.626 78.3457C74.001 78.3457 73.4561 78.4844 72.9912 78.7617C72.5303 79.0391 72.1729 79.4297 71.9189 79.9336C71.6689 80.4375 71.5439 81.0312 71.5439 81.7148V81.7207C71.5439 82.4121 71.6709 83.0078 71.9248 83.5078C72.1787 84.0078 72.54 84.3945 73.0088 84.668C73.4814 84.9375 74.0439 85.0723 74.6963 85.0723Z" fill="black"/>
</svg>
