<svg width="112" height="99" viewBox="0 0 112 99" fill="none" xmlns="http://www.w3.org/2000/svg">
<rect x="1.5" y="1.5" width="109" height="96" rx="14.5" fill="white" stroke="#ADC6F7" stroke-width="3"/>
<path d="M71.9498 21.962C70.2882 21.8394 68.5989 22.1757 67.0865 22.9289C67.1749 23.168 67.2633 23.4071 67.3517 23.6462C67.1873 23.4803 67.0229 23.3144 66.8586 23.15C65.871 24.1662 65.1569 25.4903 64.824 26.919C65.2992 27.1461 65.7577 27.4181 66.1901 27.729C65.5726 27.6034 64.9538 27.4779 64.3364 27.3524C63.9594 28.9215 63.5326 30.4757 63.056 32.0105C63.6251 32.4469 64.1058 33.0192 64.4538 33.6723C63.8309 33.5049 63.2273 33.2509 62.6624 32.9191C62.074 34.0668 60.8461 34.6078 59.7093 35.0651C59.893 35.5717 60.0367 36.0948 60.1416 36.6268C59.7798 36.2517 59.5118 35.772 59.3737 35.2504C59.0173 35.3476 58.6596 35.4462 58.3032 35.5448C58.7162 37.2007 59.1016 38.8669 59.4579 40.5392C61.0091 40.7514 62.6237 40.3808 63.9621 39.5081C65.3019 38.6338 66.3572 37.2619 66.9083 35.6778C67.4 34.2626 67.4925 32.7204 67.9221 31.2812C68.4511 29.5133 69.4719 27.9621 70.6183 26.5783C71.1473 25.9416 71.5755 25.302 71.6542 24.4248C71.6777 24.1737 71.6266 21.9381 71.9498 21.962Z" fill="#493832"/>
<path d="M37.3443 40.2065C35.2434 40.2917 33.1329 41.0284 31.5265 42.4945C31.8235 42.9114 32.1191 43.3283 32.4146 43.7438C32.9409 43.2985 33.5431 42.9592 34.1812 42.7485C32.9699 43.6168 32.0072 44.884 31.4561 46.3366C32.1771 47.1048 32.9879 47.7743 33.8622 48.3242C34.2199 47.2961 34.8318 46.374 35.6163 45.6776C35.1951 46.2709 34.8442 46.9239 34.5763 47.6129C34.8981 47.7788 35.1937 48.0074 35.4437 48.2839C36.0279 46.362 37.2531 44.6748 38.8401 43.6063C40.47 42.5079 42.3001 42.1926 44.1841 42.357C42.3471 40.616 39.7614 40.1093 37.3443 40.2065Z" fill="#493832"/>
<path d="M44.1248 45.6074C43.7794 47.3111 44.2311 49.073 44.9783 50.6003C45.7256 52.1291 46.756 53.4801 47.6662 54.9073C49.4383 57.6869 50.7616 60.7774 51.5696 64.0203C51.6608 64.3894 51.756 64.7795 52.0143 65.0485C52.274 65.3174 52.7561 65.3966 53.0074 65.1052C52.8583 59.5564 52.5641 54.0151 52.1262 48.4917C52.0033 46.9435 51.8431 45.316 50.9784 44.0652C50.2077 42.9489 50.2864 40.8955 48.93 41.2841C46.0654 42.1045 44.4079 44.2042 44.1248 45.6074Z" fill="#CCB5A6"/>
<path d="M72.9811 22.42C73.0391 22.3378 73.1124 22.2496 73.2077 22.2526C73.2657 22.2541 73.3182 22.2914 73.3651 22.3303C73.8223 22.7203 73.9922 23.3809 74.0944 24.0011C74.2035 24.6646 74.2643 25.3386 74.2781 26.0141C74.2836 26.2875 74.274 26.5849 74.1137 26.7986C73.9549 27.0079 73.6897 27.0796 73.4411 27.1184C72.9259 27.1991 72.3982 27.1947 71.8844 27.105C70.843 26.9227 71.4148 25.7406 71.6634 25.0098C71.9784 24.0803 72.4231 23.203 72.9811 22.42Z" fill="#DDC3B1"/>
<path d="M69.4285 51.9968C70.5887 55.546 69.9451 59.7185 67.7834 62.667C67.3705 62.5534 66.9561 62.4413 66.5431 62.3277C67.3346 60.4567 67.492 58.2823 66.9823 56.3007C66.6481 54.9976 65.9782 53.7228 64.8843 53.0683C63.2323 52.0805 61.0651 52.7305 59.3911 51.7861C57.7778 50.8745 57.0955 48.4565 57.9228 46.702C60.7709 40.657 68.2365 48.3504 69.4285 51.9968Z" fill="#CCB5A6"/>
<path d="M71.02 27.3941C70.4385 26.3405 70.0034 25.2137 68.944 25.6501C68.1539 25.9759 67.0779 26.874 66.7685 28.0785C66.5434 28.9588 66.4716 29.9526 66.4039 30.8642C66.1746 33.9606 64.4177 37.8596 62.4425 38.6905C58.7974 39.9847 54.8968 40.2447 51.0584 40.1132C47.7669 40.0011 42.6536 40.04 41.4174 44.3006C40.1853 48.5477 42.8525 52.4975 46.5072 53.578C51.8761 55.1651 57.7864 54.4821 62.7339 51.7294C62.7339 52.2569 62.8251 52.6051 63.1566 52.5364C64.8638 52.1852 67.7768 48.2952 68.8929 44.9357C70.3901 40.427 71.6208 35.7509 71.665 30.9613C71.676 29.7344 71.6015 28.4477 71.02 27.3941Z" fill="#F7D8BA"/>
<path d="M70.5159 25.2857C72.4593 25.2349 74.3502 26.1495 76.1499 27.0432C77.1624 27.5453 78.1762 28.0489 79.1886 28.551C79.8378 28.8723 80.5132 29.2175 80.958 29.8004C81.7163 30.7972 81.5533 32.2512 80.842 33.1838C80.1292 34.1148 78.9952 34.6109 77.853 34.9083C75.1775 35.6062 72.2189 35.3791 69.5573 34.2717C68.9413 34.0162 68.3266 33.7038 67.8473 33.2241C65.0117 30.3862 66.7769 25.3799 70.5159 25.2857Z" fill="#F7D8BA"/>
<path d="M48.7588 52.6353C50.0378 52.7624 51.3251 52.6652 52.6014 52.5218C55.828 52.1601 59.1402 51.4607 61.7977 49.4462C61.9012 49.7601 62.1195 50.0096 62.3322 50.2487C62.7714 50.7449 63.2107 51.241 63.6499 51.7372C62.1941 52.4515 60.7341 53.1674 59.2106 53.6919C56.2271 54.7201 53.0641 54.9921 49.9329 55.0219C49.042 55.0309 48.1511 55.019 47.2657 54.9278C46.6276 54.862 45.9673 54.7425 45.4494 54.336C45.0861 54.0491 44.8196 53.6426 44.5875 53.2241C44.4273 52.9372 44.2767 52.6338 44.2325 52.3006C44.1759 51.8732 44.3389 51.3337 44.7767 51.2336C45.1704 51.1439 45.3237 51.5235 45.6193 51.7267C46.4991 52.329 47.7422 52.5352 48.7588 52.6353Z" fill="#DDC3B1"/>
<path d="M59.1817 47.9057C58.9082 50.0607 59.487 51.6388 60.3102 53.2842C59.8184 53.2438 58.8723 53.2767 58.4773 52.9046C58.1914 52.6356 58.3101 52.114 58.3129 51.7464C58.3198 51.0724 58.4013 50.4223 58.5629 49.7708C58.7148 49.1655 59.0988 48.514 59.1817 47.9057Z" fill="#DDC3B1"/>
<path d="M48.1618 49.6451C48.358 51.2218 48.9339 52.7565 48.8469 54.3451C48.8428 54.4258 48.8345 54.5125 48.7903 54.5782C48.724 54.6739 48.6011 54.6963 48.4906 54.7083C48.253 54.7337 47.0845 54.9429 46.985 54.647C46.945 54.5244 47.1811 54.2031 47.2295 54.0926C47.3524 53.8071 47.4422 53.4978 47.5347 53.1989C47.8455 52.1827 48.2958 50.7301 48.1618 49.6451Z" fill="#DDC3B1"/>
<path d="M73.0601 28.1402C73.0021 27.7681 73.0698 27.3601 73.3033 27.0806C73.5381 26.8026 73.9566 26.698 74.2494 26.9013C74.4331 27.0268 74.5436 27.245 74.6334 27.4587C74.7466 27.7262 74.8405 28.0072 74.8626 28.3001C74.8986 28.7559 74.6279 29.6122 74.0712 29.3581C73.5712 29.1295 73.1554 28.7379 73.0601 28.1402Z" fill="#DDC3B1"/>
<path d="M73.4416 28.6792C73.5079 28.9482 73.7054 29.1679 73.943 29.2755C74.0466 29.3218 74.1626 29.3502 74.2689 29.3158C74.3905 29.277 74.4817 29.1649 74.5397 29.0424C74.6529 28.8003 74.6557 28.4984 74.5355 28.2608C74.4112 28.0142 74.0604 27.7691 73.7896 27.8438C73.4844 27.929 73.3711 28.3908 73.4416 28.6792Z" fill="#493832"/>
<path d="M73.9138 28.0789C73.8088 28.1237 73.7245 28.2208 73.6886 28.3359C73.6541 28.4525 73.6707 28.584 73.7328 28.6871C73.7563 28.7259 73.7881 28.7633 73.8295 28.7783C73.871 28.7947 73.9234 28.7857 73.9497 28.7484C73.998 28.6796 73.9414 28.572 73.9787 28.4958C73.9994 28.4555 74.0395 28.433 74.0699 28.4002C74.121 28.3449 74.1348 28.2507 74.1016 28.1805C74.0671 28.1102 73.9897 28.0684 73.9165 28.0804L73.9138 28.0789Z" fill="white"/>
<path d="M80.9265 29.8225C80.4818 29.2397 79.8064 28.896 79.1572 28.5732C78.9942 28.4925 78.8326 28.4118 78.6696 28.3311C78.2359 28.4611 77.979 28.8003 77.8533 29.4549C77.7635 29.9241 77.7898 30.4083 77.8229 30.8851C77.8809 31.7175 77.9638 32.5558 78.2055 33.3479C78.3478 33.8171 78.595 34.3088 78.9749 34.5449C79.6903 34.2416 80.3409 33.8186 80.8091 33.2059C81.5205 32.2734 81.6848 30.8193 80.9265 29.8225Z" fill="#493832"/>
<path d="M66.9358 61.1955L66.3999 62.409L67.7715 62.79L68.4234 61.6827L66.9358 61.1955Z" fill="#493832"/>
<path d="M69.2466 22.8559C69.2743 22.7573 69.3129 22.6467 69.4027 22.6138C69.4594 22.5929 69.5201 22.6079 69.5768 22.6258C70.132 22.8156 70.5063 23.3685 70.8033 23.911C71.121 24.4908 71.3986 25.0976 71.6306 25.7237C71.7259 25.9778 71.813 26.2602 71.7329 26.5203C71.6527 26.7788 71.4276 26.9462 71.208 27.0777C70.7522 27.3497 70.2577 27.5469 69.7467 27.659C68.7135 27.8847 68.8627 26.5621 68.8571 25.782C68.8489 24.7927 68.9801 23.8019 69.2466 22.8559Z" fill="#F7D8BA"/>
<path d="M69.7283 23.9142C69.731 23.8754 69.7352 23.832 69.7628 23.8066C69.7821 23.7872 69.8112 23.7827 69.8374 23.7812C69.999 23.7753 70.1496 23.8799 70.2504 24.0159C70.3498 24.1519 70.4078 24.3192 70.4603 24.4836C70.6647 25.1113 70.8333 25.7539 70.9299 26.4114C70.9369 26.4563 70.9424 26.5071 70.9203 26.5474C70.9023 26.5818 70.8678 26.6027 70.8346 26.6206C70.5225 26.7925 70.2103 26.9659 69.8982 27.1377C69.4161 27.4037 69.6247 26.1977 69.633 25.9272C69.6523 25.2547 69.6841 24.5837 69.7283 23.9142Z" fill="#DDC3B1"/>
<path d="M41.7364 43.1442C40.9864 44.7746 40.9919 46.7054 41.3386 48.4883C41.6853 50.2696 42.3483 51.9583 42.8773 53.6859C43.9063 57.0528 44.427 60.5991 44.4132 64.1454C44.4119 64.5489 44.4077 64.9748 44.5914 65.3275C44.7751 65.6787 45.2213 65.9043 45.5348 65.6846C46.7475 59.9894 47.8194 54.2583 48.7476 48.5002C49.0086 46.8862 49.2503 45.1826 48.7227 43.6463C48.2531 42.2759 48.8318 40.2106 47.4285 40.1957C44.4644 40.1658 42.3525 41.8022 41.7364 43.1442Z" fill="#F7D8BA"/>
<path d="M60.3873 47.2525C59.4342 48.3553 59.3154 50.0007 59.2478 51.5086C59.0281 56.4626 58.8196 61.4181 58.6221 66.3737C58.9232 66.3961 59.2243 66.4185 59.5254 66.4424C60.4688 60.9937 62.1304 55.693 64.4467 50.7494C64.7547 50.0904 65.0793 49.4254 65.2036 48.7006C65.328 47.9743 65.223 47.1613 64.7589 46.6203C63.7906 45.492 61.2215 46.2856 60.3873 47.2525Z" fill="#F7D8BA"/>
<path d="M44.4339 64.7675L45.6936 64.9379L45.5928 66.3262L44.2295 66.2261L44.4339 64.7675Z" fill="#493832"/>
<path d="M51.7466 64.615L52.0242 66.084L53.3516 65.942L52.9869 64.3848L51.7466 64.615Z" fill="#493832"/>
<path d="M58.6651 65.2886L59.7149 65.3977V66.5693H58.4731L58.6651 65.2886Z" fill="#493832"/>
<path d="M55.4395 40.066C55.184 43.1146 55.608 46.229 56.6757 49.0654C56.4271 46.0392 56.2696 42.9771 56.6025 39.9658C56.2157 40.0062 55.8276 40.0391 55.4395 40.066Z" fill="#493832"/>
<path d="M52.3444 44.7583C52.4356 43.4716 52.5516 42.1834 52.8058 40.9221C52.8583 40.665 52.919 40.4035 52.9991 40.1494C52.5544 40.1524 52.111 40.1479 51.669 40.1375C50.709 43.6673 51.0654 47.5977 52.6511 50.8525C52.1248 48.8874 52.2008 46.7982 52.3444 44.7583Z" fill="#493832"/>
<path d="M46.3915 40.2537C45.8431 40.3613 45.2713 40.4181 44.7644 40.6154C44.5558 41.3656 44.1843 42.2503 44.0309 43.0333C43.8638 43.8837 43.8072 44.7594 43.8445 45.6262C43.926 47.4643 44.4177 49.2591 45.0986 50.9434C44.2533 47.7034 44.56 44.1273 45.9439 41.11C46.0586 40.8604 46.2464 40.4958 46.3915 40.2537Z" fill="#493832"/>
<path d="M49.5077 41.5604C49.6817 41.0284 49.8903 40.4874 50.2646 40.0989C49.7591 40.0899 49.2246 40.0899 48.679 40.1108C47.6679 43.0922 47.6127 46.4442 48.5339 49.46C48.3461 46.7924 48.679 44.0815 49.5077 41.5604Z" fill="#493832"/>
<path d="M61.7523 38.9303C61.0921 39.1395 60.4236 39.3158 59.7495 39.4653C59.8987 42.4347 60.9111 45.3503 62.6183 47.6816C61.8089 44.8631 61.5147 41.8713 61.7523 38.9303Z" fill="#493832"/>
<path d="M66.1967 32.3293C66.0848 32.8807 65.9343 33.4382 65.752 33.9821C66.8376 34.7219 68.1235 35.1164 69.4081 35.097C68.0835 34.6173 66.9274 33.6175 66.1967 32.3293Z" fill="#493832"/>
<path d="M65.3183 35.5389C65.2879 35.4642 65.2589 35.385 65.234 35.3028C65.0254 35.7616 64.7962 36.198 64.5503 36.597C64.9426 37.0662 65.2948 37.5818 65.6995 38.0406C66.2934 38.7116 67.0793 39.2869 67.9371 39.2361C66.8155 38.2453 65.9108 36.9691 65.3183 35.5389Z" fill="#493832"/>
<path d="M65.7064 43.9238C64.9177 41.7868 64.3777 39.5437 64.0987 37.2632C63.8197 37.6338 63.5241 37.9536 63.2202 38.2076C63.3625 40.3566 64.263 42.4384 65.7064 43.9238Z" fill="#493832"/>
<path d="M69.832 32.2077C70.7906 34.545 72.8873 35.2803 74.8956 35.3416C73.7713 35.349 72.647 35.2564 71.5365 35.0651C71.3293 36.8733 70.897 38.6517 70.2575 40.3359C70.4412 39.8637 70.553 39.0986 70.5447 38.5875C70.5337 37.8761 70.4978 37.1648 70.4411 36.4564C70.3265 35.0277 70.1235 33.6065 69.832 32.2077Z" fill="#DDC3B1"/>
<path d="M39.6572 84.9375H46.1846V83.4785H41.8252V83.373L46.0674 77.6309V76.4824H39.7568V77.9414H43.9111V78.0469L39.6572 83.7832V84.9375ZM50.5146 85.0723C50.9873 85.0723 51.3955 85.0137 51.7393 84.8965C52.0869 84.7754 52.376 84.6191 52.6064 84.4277C52.8408 84.2363 53.0244 84.0312 53.1572 83.8125C53.29 83.5898 53.3818 83.377 53.4326 83.1738L53.4443 83.1152H51.8506L51.833 83.1504C51.7939 83.2324 51.7197 83.3242 51.6104 83.4258C51.5049 83.5234 51.3643 83.6094 51.1885 83.6836C51.0127 83.7578 50.7998 83.7949 50.5498 83.7949C50.2412 83.7949 49.9756 83.7266 49.7529 83.5898C49.5303 83.4531 49.3584 83.2559 49.2373 82.998C49.1162 82.7402 49.0557 82.4297 49.0557 82.0664V81.375C49.0557 81 49.1162 80.6836 49.2373 80.4258C49.3623 80.1641 49.5303 79.9668 49.7412 79.834C49.9561 79.6973 50.2002 79.6289 50.4736 79.6289C50.751 79.6289 50.9932 79.6953 51.2002 79.8281C51.4111 79.957 51.5752 80.1504 51.6924 80.4082C51.8135 80.666 51.874 80.9883 51.874 81.375V82.0605L52.6768 81.0469H48.2178V82.1191H53.4971V81.5859C53.4971 80.9336 53.374 80.3652 53.1279 79.8809C52.8818 79.3965 52.5303 79.0195 52.0732 78.75C51.6162 78.4805 51.0732 78.3457 50.4443 78.3457C49.8193 78.3457 49.2744 78.4844 48.8096 78.7617C48.3486 79.0391 47.9912 79.4297 47.7373 79.9336C47.4873 80.4375 47.3623 81.0312 47.3623 81.7148V81.7207C47.3623 82.4121 47.4893 83.0078 47.7432 83.5078C47.9971 84.0078 48.3584 84.3945 48.8271 84.668C49.2998 84.9375 49.8623 85.0723 50.5146 85.0723ZM58.7061 85.0371C59.2451 85.0371 59.71 84.9043 60.1006 84.6387C60.4912 84.3691 60.792 83.9863 61.0029 83.4902C61.2178 82.9941 61.3252 82.4023 61.3252 81.7148V81.7031C61.3252 81.0117 61.2197 80.418 61.0088 79.9219C60.7979 79.4258 60.4971 79.0449 60.1064 78.7793C59.7158 78.5137 59.249 78.3809 58.7061 78.3809C58.2646 78.3809 57.8721 78.4824 57.5283 78.6855C57.1885 78.8887 56.9365 79.166 56.7725 79.5176H56.667V76.0195H54.9561V84.9375H56.667V83.9355H56.7725C56.9404 84.2832 57.1904 84.5547 57.5225 84.75C57.8545 84.9414 58.249 85.0371 58.7061 85.0371ZM58.1201 83.6191C57.8193 83.6191 57.5576 83.543 57.335 83.3906C57.1162 83.2383 56.9463 83.0195 56.8252 82.7344C56.708 82.4492 56.6494 82.1113 56.6494 81.7207V81.709C56.6494 81.3105 56.71 80.9707 56.8311 80.6895C56.9521 80.4043 57.1221 80.1855 57.3408 80.0332C57.5635 79.877 57.8232 79.7988 58.1201 79.7988C58.4248 79.7988 58.6846 79.877 58.8994 80.0332C59.1182 80.1855 59.2861 80.4043 59.4033 80.6895C59.5244 80.9707 59.585 81.3086 59.585 81.7031V81.7148C59.585 82.1094 59.5244 82.4492 59.4033 82.7344C59.2861 83.0195 59.1182 83.2383 58.8994 83.3906C58.6846 83.543 58.4248 83.6191 58.1201 83.6191ZM62.7139 84.9375H64.4248V81.3281C64.4248 81.0234 64.4893 80.7617 64.6182 80.543C64.7471 80.3242 64.9307 80.1562 65.1689 80.0391C65.4072 79.918 65.6885 79.8574 66.0127 79.8574C66.1455 79.8574 66.2764 79.8672 66.4053 79.8867C66.5381 79.9023 66.6689 79.9258 66.7979 79.957V78.4629C66.7119 78.4395 66.6123 78.4199 66.499 78.4043C66.3896 78.3887 66.2764 78.3809 66.1592 78.3809C65.7412 78.3809 65.3916 78.4785 65.1104 78.6738C64.8291 78.8652 64.6357 79.1367 64.5303 79.4883H64.4248V78.4863H62.7139V84.9375ZM69.5811 85.0371C69.8623 85.0371 70.1221 85 70.3604 84.9258C70.6025 84.8477 70.8135 84.7383 70.9932 84.5977C71.1768 84.4531 71.3232 84.2812 71.4326 84.082H71.5381V84.9375H73.2256V80.5312C73.2256 80.0742 73.1201 79.6836 72.9092 79.3594C72.7021 79.0312 72.3994 78.7812 72.001 78.6094C71.6025 78.4336 71.1182 78.3457 70.5479 78.3457C70.0088 78.3457 69.5342 78.4238 69.124 78.5801C68.7178 78.7363 68.3936 78.9551 68.1514 79.2363C67.9131 79.5176 67.7705 79.8477 67.7236 80.2266L67.7178 80.2793H69.2998L69.3115 80.2559C69.3779 80.0645 69.5068 79.918 69.6982 79.8164C69.8936 79.7109 70.1455 79.6582 70.4541 79.6582C70.8057 79.6582 71.0732 79.7344 71.2568 79.8867C71.4443 80.0352 71.5381 80.25 71.5381 80.5312V82.5879C71.5381 82.8145 71.4775 83.0195 71.3564 83.2031C71.2354 83.3828 71.0713 83.5254 70.8643 83.6309C70.6572 83.7363 70.4209 83.7891 70.1553 83.7891C69.8584 83.7891 69.6162 83.7188 69.4287 83.5781C69.2412 83.4375 69.1475 83.2441 69.1475 82.998V82.9863C69.1475 82.752 69.2373 82.5664 69.417 82.4297C69.5967 82.293 69.8701 82.2148 70.2373 82.1953L72.3818 82.0547V81.0117L69.9795 81.1582C69.1787 81.2051 68.5615 81.3945 68.1279 81.7266C67.6943 82.0547 67.4775 82.5098 67.4775 83.0918V83.1035C67.4775 83.4941 67.5674 83.8359 67.7471 84.1289C67.9268 84.418 68.1748 84.6426 68.4912 84.8027C68.8115 84.959 69.1748 85.0371 69.5811 85.0371Z" fill="black"/>
</svg>
