<svg width="112" height="99" viewBox="0 0 112 99" fill="none" xmlns="http://www.w3.org/2000/svg">
<rect x="1.5" y="1.5" width="109" height="96" rx="14.5" fill="white" stroke="#ADC6F7" stroke-width="3"/>
<path d="M49.6221 51.8624C33.9207 28.5861 44.2738 22.3495 46.1969 21.4342C46.3771 21.349 46.4895 21.3065 46.4932 21.304C46.9987 21.0496 47.2648 20.4825 47.133 19.9348C47.0011 19.387 46.5089 19 45.9417 19H41.036C36.4485 19 29.9948 32.3884 42.26 53.0795C42.4427 53.3874 48.3957 53.0795 48.3957 53.0795C49.0718 53.0795 49.997 52.421 49.6221 51.8624ZM72.9443 19H68.1064C67.5476 19 67.0626 19.387 66.932 19.9348C66.8026 20.4825 67.0638 21.0496 67.5621 21.304C67.567 21.3065 67.677 21.349 67.8548 21.4342C69.7513 22.3495 79.9616 28.5861 64.478 51.8624C64.1067 52.421 65.0198 53.0795 65.6874 53.0795C65.6874 53.0795 71.5582 53.3874 71.7372 53.0795C83.8319 32.3884 77.4689 19 72.9443 19Z" fill="#C1694F"/>
<path d="M43.506 54.0969L43.5108 54.1091C43.4334 53.7525 49.9972 52.421 49.6223 51.8623C33.9209 28.586 44.274 22.3495 46.1971 21.4342H41.0338C36.4475 21.4342 31.2214 34.8226 43.506 54.0969ZM72.9469 21.4342H67.855C69.7515 22.3495 79.9618 28.586 64.4782 51.8623C64.1069 52.421 70.5062 54.1006 70.5086 54.0969C82.6226 34.8226 77.4703 21.4342 72.9469 21.4342Z" fill="#662113"/>
<path d="M47.1664 28.737C46.4879 28.737 45.9388 28.1917 45.9388 27.5199C45.9388 23.4839 43.486 21.4342 41.0332 21.4342C40.4647 21.4342 40.9364 20.4825 41.0683 19.9348C41.2013 19.387 41.6923 19 42.2596 19H48.3928C52.9779 19 54.3652 26.4683 54.5091 27.319C54.5684 27.672 54.468 28.0323 54.2358 28.3061C53.9999 28.58 53.6576 28.737 53.2984 28.737H47.1664ZM66.8989 28.737C67.5677 28.737 68.1084 28.1917 68.1084 27.5199C68.1084 23.4839 70.5273 21.4342 72.9462 21.4342C73.5062 21.4342 73.0406 20.4825 72.9112 19.9348C72.7818 19.387 72.2968 19 71.7368 19H65.6894C61.1684 19 59.8005 26.4683 59.659 27.319C59.5998 27.672 59.6989 28.0323 59.9287 28.3061C60.1597 28.58 60.4972 28.737 60.8516 28.737H66.8989Z" fill="#C1694F"/>
<path d="M42.4312 57.9479C42.4312 57.9479 42.4312 62.8164 47.269 62.8164H66.6205C66.6205 62.8164 71.4584 62.8164 71.4584 57.9479V31.1712C71.4584 31.1712 71.4584 26.3027 66.6205 26.3027H47.269C42.4312 26.3027 42.4312 31.1712 42.4312 31.1712V57.9479Z" fill="#BE1931"/>
<path d="M64.2016 53.0794H49.688C47.0259 53.0794 46.0596 50.8959 46.0596 49.4281V32.3883C46.0596 31.7165 46.6014 31.1712 47.269 31.1712C47.9367 31.1712 48.4785 31.7165 48.4785 32.3883V49.4281C48.493 49.9758 48.7144 50.6452 49.688 50.6452H64.2016C64.7459 50.6306 65.4111 50.4091 65.4111 49.4281V32.3883C65.4111 31.7165 65.9517 31.1712 66.6205 31.1712C67.2894 31.1712 67.83 31.7165 67.83 32.3883V49.4281C67.83 52.107 65.6602 53.0794 64.2016 53.0794Z" fill="#A0041E"/>
<path d="M54.5259 49.4281C54.5259 49.4281 54.5259 48.211 55.7353 48.211H58.1543C58.1543 48.211 59.3638 48.211 59.3638 49.4281V55.5137C59.3638 55.5137 59.3638 56.7309 58.1543 56.7309H55.7353C55.7353 56.7309 54.5259 56.7309 54.5259 55.5137V49.4281Z" fill="white"/>
<path d="M27.9102 80.8132H30.8223C31.4277 80.8132 31.9473 80.7156 32.3809 80.5203C32.8184 80.321 33.1543 80.0417 33.3887 79.6824C33.627 79.3191 33.7461 78.8914 33.7461 78.3992V78.3875C33.7461 78.0281 33.6621 77.7019 33.4941 77.4089C33.3301 77.116 33.1016 76.8777 32.8086 76.6941C32.5195 76.5105 32.1875 76.405 31.8125 76.3777V76.2722C32.1016 76.2292 32.3613 76.1218 32.5918 75.95C32.8223 75.7781 33.0039 75.5632 33.1367 75.3054C33.2734 75.0476 33.3418 74.7703 33.3418 74.4734V74.4617C33.3418 74.0281 33.2363 73.655 33.0254 73.3425C32.8184 73.0261 32.5195 72.7839 32.1289 72.616C31.7422 72.4441 31.2734 72.3582 30.7227 72.3582H27.9102V73.6707H30.2715C30.6934 73.6707 31.0195 73.7683 31.25 73.9636C31.4844 74.155 31.6016 74.4226 31.6016 74.7664V74.7781C31.6016 75.1257 31.4746 75.3953 31.2207 75.5867C30.9668 75.7781 30.6016 75.8738 30.125 75.8738H27.9102V77.0398H30.3301C30.6777 77.0398 30.9707 77.0867 31.209 77.1804C31.4512 77.2703 31.6328 77.405 31.7539 77.5847C31.8789 77.7644 31.9414 77.9851 31.9414 78.2468V78.2585C31.9414 78.6609 31.8066 78.9675 31.5371 79.1785C31.2715 79.3894 30.8828 79.4949 30.3711 79.4949H27.9102V80.8132ZM27.0254 80.8132H28.7949V72.3582H27.0254V80.8132ZM36.9336 80.9128C37.2148 80.9128 37.4746 80.8757 37.7129 80.8015C37.9551 80.7234 38.166 80.614 38.3457 80.4734C38.5293 80.3289 38.6758 80.157 38.7852 79.9578H38.8906V80.8132H40.5781V76.407C40.5781 75.95 40.4727 75.5593 40.2617 75.2351C40.0547 74.907 39.752 74.657 39.3535 74.4851C38.9551 74.3093 38.4707 74.2214 37.9004 74.2214C37.3613 74.2214 36.8867 74.2996 36.4766 74.4558C36.0703 74.6121 35.7461 74.8308 35.5039 75.1121C35.2656 75.3933 35.123 75.7234 35.0762 76.1023L35.0703 76.155H36.6523L36.6641 76.1316C36.7305 75.9402 36.8594 75.7937 37.0508 75.6921C37.2461 75.5867 37.498 75.5339 37.8066 75.5339C38.1582 75.5339 38.4258 75.6101 38.6094 75.7625C38.7969 75.9109 38.8906 76.1257 38.8906 76.407V78.4636C38.8906 78.6902 38.8301 78.8953 38.709 79.0789C38.5879 79.2585 38.4238 79.4011 38.2168 79.5066C38.0098 79.6121 37.7734 79.6648 37.5078 79.6648C37.2109 79.6648 36.9688 79.5945 36.7812 79.4539C36.5938 79.3132 36.5 79.1199 36.5 78.8738V78.8621C36.5 78.6277 36.5898 78.4421 36.7695 78.3054C36.9492 78.1687 37.2227 78.0906 37.5898 78.071L39.7344 77.9304V76.8875L37.332 77.0339C36.5312 77.0808 35.9141 77.2703 35.4805 77.6023C35.0469 77.9304 34.8301 78.3855 34.8301 78.9675V78.9792C34.8301 79.3699 34.9199 79.7117 35.0996 80.0046C35.2793 80.2937 35.5273 80.5183 35.8438 80.6785C36.1641 80.8347 36.5273 80.9128 36.9336 80.9128ZM45.0957 80.948C45.6582 80.948 46.1426 80.8542 46.5488 80.6667C46.9551 80.4753 47.2773 80.2058 47.5156 79.8582C47.7539 79.5105 47.9043 79.1042 47.9668 78.6394V78.5984L46.3848 78.6042L46.373 78.6218C46.2988 78.95 46.1562 79.196 45.9453 79.3601C45.7344 79.5242 45.4531 79.6062 45.1016 79.6062C44.7969 79.6062 44.5391 79.5281 44.3281 79.3718C44.1172 79.2156 43.9551 78.9871 43.8418 78.6863C43.7324 78.3816 43.6777 78.0125 43.6777 77.5789V77.5671C43.6777 77.1335 43.7324 76.7683 43.8418 76.4714C43.9512 76.1746 44.1113 75.95 44.3223 75.7976C44.5371 75.6414 44.7969 75.5632 45.1016 75.5632C45.4688 75.5632 45.7578 75.6589 45.9688 75.8503C46.1836 76.0378 46.3203 76.2878 46.3789 76.6003L46.3848 76.6121H47.9727V76.5945C47.9219 76.114 47.7773 75.696 47.5391 75.3406C47.3008 74.9851 46.9766 74.7097 46.5664 74.5144C46.1562 74.3191 45.666 74.2214 45.0957 74.2214C44.4238 74.2214 43.8516 74.3542 43.3789 74.6199C42.9102 74.8816 42.5527 75.2605 42.3066 75.7566C42.0605 76.2527 41.9375 76.8562 41.9375 77.5671V77.5789C41.9375 78.2937 42.0605 78.9031 42.3066 79.407C42.5527 79.907 42.9102 80.2898 43.3789 80.5554C43.8516 80.8171 44.4238 80.948 45.0957 80.948ZM49.3672 80.8132H51.0781V71.8953H49.3672V80.8132ZM53.4277 80.8132H55.4492L52.7246 76.9871L51.4473 78.0125L53.4277 80.8132ZM50.9609 78.7742L51.7109 77.9773L52.625 77.2917L55.2793 74.3621H53.3398L51.1836 76.9109H50.9023L50.9609 78.7742ZM56.5273 82.9519H58.2383V79.782H58.3438C58.4531 80.0164 58.6016 80.2175 58.7891 80.3855C58.9805 80.5535 59.2012 80.6843 59.4512 80.7781C59.7051 80.8679 59.9805 80.9128 60.2773 80.9128C60.8203 80.9128 61.2871 80.78 61.6777 80.5144C62.0684 80.2488 62.3691 79.8679 62.5801 79.3718C62.791 78.8757 62.8965 78.282 62.8965 77.5906V77.5789C62.8965 76.8914 62.7891 76.3015 62.5742 75.8093C62.3633 75.3132 62.0625 74.9304 61.6719 74.6609C61.2812 74.3914 60.8164 74.2566 60.2773 74.2566C59.9727 74.2566 59.6953 74.3015 59.4453 74.3914C59.1953 74.4773 58.9766 74.6023 58.7891 74.7664C58.6055 74.9304 58.457 75.1277 58.3438 75.3582H58.2383V74.3621H56.5273V82.9519ZM59.6914 79.4949C59.3945 79.4949 59.1348 79.4187 58.9121 79.2664C58.6934 79.114 58.5234 78.8953 58.4023 78.6101C58.2812 78.321 58.2207 77.9812 58.2207 77.5906V77.5789C58.2207 77.1804 58.2793 76.8406 58.3965 76.5593C58.5176 76.2742 58.6875 76.0554 58.9062 75.9031C59.1289 75.7507 59.3906 75.6746 59.6914 75.6746C59.9961 75.6746 60.2559 75.7507 60.4707 75.9031C60.6895 76.0554 60.8574 76.2742 60.9746 76.5593C61.0957 76.8445 61.1562 77.1843 61.1562 77.5789V77.5906C61.1562 77.9851 61.0957 78.325 60.9746 78.6101C60.8574 78.8953 60.6895 79.114 60.4707 79.2664C60.2559 79.4187 59.9961 79.4949 59.6914 79.4949ZM66.0547 80.9128C66.3359 80.9128 66.5957 80.8757 66.834 80.8015C67.0762 80.7234 67.2871 80.614 67.4668 80.4734C67.6504 80.3289 67.7969 80.157 67.9062 79.9578H68.0117V80.8132H69.6992V76.407C69.6992 75.95 69.5938 75.5593 69.3828 75.2351C69.1758 74.907 68.873 74.657 68.4746 74.4851C68.0762 74.3093 67.5918 74.2214 67.0215 74.2214C66.4824 74.2214 66.0078 74.2996 65.5977 74.4558C65.1914 74.6121 64.8672 74.8308 64.625 75.1121C64.3867 75.3933 64.2441 75.7234 64.1973 76.1023L64.1914 76.155H65.7734L65.7852 76.1316C65.8516 75.9402 65.9805 75.7937 66.1719 75.6921C66.3672 75.5867 66.6191 75.5339 66.9277 75.5339C67.2793 75.5339 67.5469 75.6101 67.7305 75.7625C67.918 75.9109 68.0117 76.1257 68.0117 76.407V78.4636C68.0117 78.6902 67.9512 78.8953 67.8301 79.0789C67.709 79.2585 67.5449 79.4011 67.3379 79.5066C67.1309 79.6121 66.8945 79.6648 66.6289 79.6648C66.332 79.6648 66.0898 79.5945 65.9023 79.4539C65.7148 79.3132 65.6211 79.1199 65.6211 78.8738V78.8621C65.6211 78.6277 65.7109 78.4421 65.8906 78.3054C66.0703 78.1687 66.3438 78.0906 66.7109 78.071L68.8555 77.9304V76.8875L66.4531 77.0339C65.6523 77.0808 65.0352 77.2703 64.6016 77.6023C64.168 77.9304 63.9512 78.3855 63.9512 78.9675V78.9792C63.9512 79.3699 64.041 79.7117 64.2207 80.0046C64.4004 80.2937 64.6484 80.5183 64.9648 80.6785C65.2852 80.8347 65.6484 80.9128 66.0547 80.9128ZM74.2168 80.948C74.7793 80.948 75.2637 80.8542 75.6699 80.6667C76.0762 80.4753 76.3984 80.2058 76.6367 79.8582C76.875 79.5105 77.0254 79.1042 77.0879 78.6394V78.5984L75.5059 78.6042L75.4941 78.6218C75.4199 78.95 75.2773 79.196 75.0664 79.3601C74.8555 79.5242 74.5742 79.6062 74.2227 79.6062C73.918 79.6062 73.6602 79.5281 73.4492 79.3718C73.2383 79.2156 73.0762 78.9871 72.9629 78.6863C72.8535 78.3816 72.7988 78.0125 72.7988 77.5789V77.5671C72.7988 77.1335 72.8535 76.7683 72.9629 76.4714C73.0723 76.1746 73.2324 75.95 73.4434 75.7976C73.6582 75.6414 73.918 75.5632 74.2227 75.5632C74.5898 75.5632 74.8789 75.6589 75.0898 75.8503C75.3047 76.0378 75.4414 76.2878 75.5 76.6003L75.5059 76.6121H77.0938V76.5945C77.043 76.114 76.8984 75.696 76.6602 75.3406C76.4219 74.9851 76.0977 74.7097 75.6875 74.5144C75.2773 74.3191 74.7871 74.2214 74.2168 74.2214C73.5449 74.2214 72.9727 74.3542 72.5 74.6199C72.0312 74.8816 71.6738 75.2605 71.4277 75.7566C71.1816 76.2527 71.0586 76.8562 71.0586 77.5671V77.5789C71.0586 78.2937 71.1816 78.9031 71.4277 79.407C71.6738 79.907 72.0312 80.2898 72.5 80.5554C72.9727 80.8171 73.5449 80.948 74.2168 80.948ZM78.4883 80.8132H80.1992V71.8953H78.4883V80.8132ZM82.5488 80.8132H84.5703L81.8457 76.9871L80.5684 78.0125L82.5488 80.8132ZM80.082 78.7742L80.832 77.9773L81.7461 77.2917L84.4004 74.3621H82.4609L80.3047 76.9109H80.0234L80.082 78.7742Z" fill="black"/>
</svg>
