<svg width="107" height="95" viewBox="0 0 107 95" fill="none" xmlns="http://www.w3.org/2000/svg">
<rect x="1.82812" y="1.98438" width="103.343" height="91" rx="14.5" fill="white" stroke="#ADC6F7" stroke-width="3"/>
<path d="M73.3837 53.0958H45.6059V51.7069C45.6059 48.6389 43.1184 46.1514 40.0503 46.1514H35.8837C32.8156 46.1514 30.3281 48.6389 30.3281 51.7069V55.8736C30.3281 58.9416 32.8156 61.4291 35.8837 61.4291H74.7726C77.8406 61.4291 80.3281 58.9416 80.3281 55.8736V53.0958H73.3837Z" fill="#99AAB5"/>
<path d="M44.217 35.04H40.2531C35.8837 35.04 34.4948 37.8178 34.4948 37.8178L30.3281 46.0942V53.0956H48.3837V39.2067C48.3837 36.9053 46.5184 35.04 44.217 35.04Z" fill="#FFCC4D"/>
<path d="M42.8277 46.1507H33.1055L35.8832 40.5952C35.8832 40.5952 37.2721 37.8174 40.0499 37.8174H42.8277V46.1507Z" fill="#55ACEE"/>
<path d="M38.661 66.9842C41.7293 66.9842 44.2166 64.4969 44.2166 61.4286C44.2166 58.3604 41.7293 55.873 38.661 55.873C35.5928 55.873 33.1055 58.3604 33.1055 61.4286C33.1055 64.4969 35.5928 66.9842 38.661 66.9842Z" fill="#292F33"/>
<path d="M38.6616 64.2069C40.1957 64.2069 41.4393 62.9633 41.4393 61.4291C41.4393 59.895 40.1957 58.6514 38.6616 58.6514C37.1274 58.6514 35.8838 59.895 35.8838 61.4291C35.8838 62.9633 37.1274 64.2069 38.6616 64.2069Z" fill="#CCD6DD"/>
<path d="M71.995 66.9842C75.0633 66.9842 77.5506 64.4969 77.5506 61.4286C77.5506 58.3604 75.0633 55.873 71.995 55.873C68.9268 55.873 66.4395 58.3604 66.4395 61.4286C66.4395 64.4969 68.9268 66.9842 71.995 66.9842Z" fill="#292F33"/>
<path d="M71.9946 64.2069C73.5287 64.2069 74.7724 62.9633 74.7724 61.4291C74.7724 59.895 73.5287 58.6514 71.9946 58.6514C70.4605 58.6514 69.2168 59.895 69.2168 61.4291C69.2168 62.9633 70.4605 64.2069 71.9946 64.2069Z" fill="#CCD6DD"/>
<path d="M58.1063 66.9842C61.1746 66.9842 63.6619 64.4969 63.6619 61.4286C63.6619 58.3604 61.1746 55.873 58.1063 55.873C55.0381 55.873 52.5508 58.3604 52.5508 61.4286C52.5508 64.4969 55.0381 66.9842 58.1063 66.9842Z" fill="#292F33"/>
<path d="M58.1059 64.2069C59.64 64.2069 60.8837 62.9633 60.8837 61.4291C60.8837 59.895 59.64 58.6514 58.1059 58.6514C56.5718 58.6514 55.3281 59.895 55.3281 61.4291C55.3281 62.9633 56.5718 64.2069 58.1059 64.2069Z" fill="#CCD6DD"/>
<path d="M74.7722 29.4844H56.7167C53.6486 29.4844 51.1611 31.9719 51.1611 35.0399V53.0955H80.3278V35.0399C80.3278 31.9719 77.8403 29.4844 74.7722 29.4844Z" fill="#77B255"/>
</svg>
