<svg width="112" height="99" viewBox="0 0 112 99" fill="none" xmlns="http://www.w3.org/2000/svg">
<rect x="1.5" y="1.5" width="109" height="96" rx="14.5" fill="white" stroke="#ADC6F7" stroke-width="3"/>
<path d="M81.4561 32.9373C81.4561 32.9373 80.5102 46.1168 67.363 50.9749C64.3932 52.0716 60.799 52.7427 56.456 52.7427C52.1113 52.7427 48.5176 52.0716 45.5488 50.9749C32.3999 46.1168 31.4561 32.9373 31.4561 32.9373H81.4561Z" fill="#BF7B81"/>
<path d="M67.3631 50.9753C67.3425 51.8777 67.0694 52.6936 66.6375 53.294C66.1895 53.9138 65.5712 54.2988 64.8911 54.2988H48.0198C46.6832 54.2988 45.5866 52.8136 45.5488 50.9753C48.5177 52.0719 52.1114 52.743 56.456 52.743C60.7991 52.743 64.3932 52.0719 67.3631 50.9753Z" fill="#A56869"/>
<path d="M33.6443 38.3892C33.3518 38.2037 33.0798 38.043 32.8125 37.9018L33.0684 37.2077C33.349 37.3561 33.6337 37.5238 33.9391 37.7181L33.6443 38.3892Z" fill="#A56869"/>
<path d="M61.9886 37.9228L61.968 37.1634C62.5922 37.1387 63.2282 37.1369 63.8642 37.1581L63.8466 37.9157C63.2238 37.8963 62.601 37.8981 61.9886 37.9228ZM66.934 38.2053C66.3215 38.11 65.6987 38.0376 65.0847 37.9864L65.1273 37.2305C65.7545 37.2817 66.389 37.3559 67.0133 37.4513L66.934 38.2053ZM58.9038 38.2336L58.8193 37.4813C59.4417 37.3789 60.0762 37.2994 60.7048 37.2447L60.7518 38.0023C60.1349 38.0552 59.5136 38.1347 58.9038 38.2336ZM69.9817 38.8605C69.381 38.6927 68.767 38.5462 68.1589 38.4226L68.2647 37.6755C68.8845 37.8009 69.5102 37.951 70.1227 38.1206L69.9817 38.8605ZM55.8616 38.9188L55.7134 38.1824L55.7735 38.1647C56.3654 37.9934 56.9699 37.8433 57.57 37.7144L57.68 38.4632C57.0922 38.5886 56.5003 38.7351 55.9208 38.9029L55.8616 38.9188ZM72.9604 39.876C72.3773 39.6393 71.7795 39.4186 71.1832 39.2243L71.3491 38.4914C71.9572 38.691 72.5682 38.9153 73.1631 39.1572L72.9604 39.876ZM52.868 39.9289L52.6826 39.2031C53.3919 38.9417 53.9669 38.7387 54.492 38.5638L54.6605 39.2949C54.1411 39.468 53.5715 39.6693 52.868 39.9289ZM36.333 40.2804C36.0176 40.0596 35.7003 39.83 35.3937 39.6058C35.1695 39.4433 34.9452 39.2808 34.7202 39.1201L35.0423 38.4667C35.269 38.6292 35.4947 38.7934 35.7205 38.9576C36.0251 39.1784 36.3399 39.408 36.6507 39.6252L36.333 40.2804ZM49.8744 41.038L49.6952 40.3104C50.2785 40.102 50.8513 39.8883 51.486 39.6517L51.674 40.3757C51.0368 40.6141 50.4618 40.8296 49.8744 41.038ZM75.8407 41.2411C75.2796 40.9355 74.7024 40.6459 74.1251 40.381L74.3513 39.6711C74.9403 39.9431 75.5278 40.238 76.1007 40.5506L75.8407 41.2411ZM39.2334 41.8892C38.9766 41.7938 38.7212 41.6878 38.474 41.5713C38.144 41.4141 37.8082 41.2322 37.4478 41.015L37.7315 40.3369C38.0745 40.5435 38.3928 40.7166 38.7049 40.8631C38.9373 40.9744 39.1773 41.075 39.4187 41.1633L39.2334 41.8892ZM46.8204 41.9863L46.6919 41.2428C46.8666 41.1987 47.0408 41.1527 47.2145 41.1051C47.6237 40.992 48.0436 40.8667 48.4986 40.7183L48.6631 41.4512C48.2002 41.6013 47.7724 41.7302 47.3553 41.845C47.1776 41.8945 46.9991 41.9404 46.8204 41.9863ZM43.6728 42.4878L43.6421 41.7302C44.2283 41.6967 44.8457 41.6207 45.4772 41.5059L45.5716 42.2565C44.919 42.3748 44.2803 42.4525 43.6728 42.4878ZM42.3955 42.502C41.7356 42.4737 41.0924 42.3925 40.4837 42.2565L40.5986 41.5095C41.1766 41.6384 41.7883 41.7161 42.417 41.7426L42.3955 42.502Z" fill="#A56869"/>
<path d="M77.7942 42.4067C77.5196 42.2284 77.239 42.0535 76.9629 41.8858L77.2464 41.2076C77.5284 41.3789 77.8133 41.5573 78.0939 41.7392L77.7942 42.4067Z" fill="#A56869"/>
<path d="M35.2117 41.9932C34.9871 41.8554 34.7781 41.7336 34.5731 41.6188C34.5067 41.5817 34.4412 41.5464 34.3745 41.5111L34.5017 41.1649L34.501 40.7852H34.569L34.6299 40.817C34.6998 40.8541 34.7686 40.8912 34.8384 40.9301C35.0507 41.0484 35.2666 41.1755 35.4983 41.3168L35.2117 41.9932Z" fill="#A56869"/>
<path d="M65.7121 40.3986C65.0864 40.358 64.4548 40.3438 63.8306 40.3509L63.8232 39.5933C64.4607 39.5845 65.1055 39.6004 65.7459 39.641L65.7121 40.3986ZM60.7006 40.5946L60.6257 39.8423C61.2602 39.7505 61.905 39.6834 62.541 39.6427L62.5763 40.4003C61.952 40.441 61.3219 40.5063 60.7006 40.5946ZM68.8318 40.7959C68.2135 40.6776 67.5848 40.5805 66.9635 40.5098L67.0237 39.754C67.6583 39.8264 68.3001 39.9253 68.9317 40.0472L68.8318 40.7959ZM57.6103 41.2409L57.4687 40.501C58.0888 40.3297 58.7239 40.1796 59.3552 40.056L59.458 40.8047C58.8386 40.9266 58.2172 41.0732 57.6103 41.2409ZM71.8972 41.5888C71.295 41.3928 70.6796 41.2162 70.0671 41.0661L70.1919 40.3226C70.8176 40.4763 71.4477 40.6564 72.0631 40.8577L71.8972 41.5888ZM54.5949 42.2829L54.3904 41.5659C54.6153 41.4723 54.8402 41.3822 55.0646 41.2957C55.4475 41.1473 55.838 41.0078 56.2257 40.8789L56.3935 41.6118C56.0144 41.7372 55.6323 41.8732 55.2577 42.018C55.0368 42.1045 54.8159 42.1928 54.5949 42.2829ZM74.8759 42.772C74.2957 42.4983 73.6979 42.244 73.1016 42.0162L73.2925 41.2922C73.9021 41.5253 74.5131 41.7849 75.1065 42.0639L74.8759 42.772ZM51.6242 43.5932L51.4027 42.8833L51.9286 42.6449C52.3488 42.4559 52.7687 42.2652 53.1879 42.0798L53.4054 42.7932C52.9877 42.9769 52.5694 43.1659 52.1508 43.3548L51.6242 43.5932ZM37.9851 43.8246C37.6217 43.5879 37.2557 43.3407 36.9016 43.1005C36.7077 42.9698 36.5138 42.8374 36.3193 42.7085L36.6263 42.0445C36.8215 42.1751 37.0164 42.3076 37.2112 42.44C37.563 42.6767 37.9268 42.9239 38.2855 43.157L37.9851 43.8246ZM48.6121 44.8577L48.4265 44.1318C48.96 43.934 49.5453 43.6974 50.216 43.4078L50.4295 44.123C49.7495 44.4162 49.1549 44.6563 48.6121 44.8577ZM40.9462 45.3804C40.3747 45.1755 39.7807 44.8965 39.1302 44.5274L39.4003 43.8405C40.0211 44.1936 40.5854 44.4585 41.1255 44.6528L40.9462 45.3804ZM45.4749 45.723L45.3907 44.9707C45.9722 44.8771 46.571 44.7358 47.2214 44.538L47.3753 45.2744C46.7017 45.4775 46.0802 45.6241 45.4749 45.723ZM43.7966 45.8643C43.2599 45.8643 42.7313 45.8166 42.2252 45.723L42.3207 44.9724C42.9089 45.0819 43.5333 45.1226 44.1594 45.0978L44.1806 45.8554C44.0526 45.8607 43.9246 45.8643 43.7966 45.8643Z" fill="#A56869"/>
<path d="M76.8895 43.8247C76.609 43.6622 76.3225 43.5033 76.0391 43.3532L76.2946 42.6592C76.584 42.8128 76.8763 42.9753 77.1627 43.1395L76.8895 43.8247Z" fill="#A56869"/>
<path d="M43.7646 84.9375H46.6768C47.2822 84.9375 47.8018 84.8398 48.2354 84.6445C48.6729 84.4453 49.0088 84.166 49.2432 83.8066C49.4814 83.4434 49.6006 83.0156 49.6006 82.5234V82.5117C49.6006 82.1523 49.5166 81.8262 49.3486 81.5332C49.1846 81.2402 48.9561 81.002 48.6631 80.8184C48.374 80.6348 48.042 80.5293 47.667 80.502V80.3965C47.9561 80.3535 48.2158 80.2461 48.4463 80.0742C48.6768 79.9023 48.8584 79.6875 48.9912 79.4297C49.1279 79.1719 49.1963 78.8945 49.1963 78.5977V78.5859C49.1963 78.1523 49.0908 77.7793 48.8799 77.4668C48.6729 77.1504 48.374 76.9082 47.9834 76.7402C47.5967 76.5684 47.1279 76.4824 46.5771 76.4824H43.7646V77.7949H46.126C46.5479 77.7949 46.874 77.8926 47.1045 78.0879C47.3389 78.2793 47.4561 78.5469 47.4561 78.8906V78.9023C47.4561 79.25 47.3291 79.5195 47.0752 79.7109C46.8213 79.9023 46.4561 79.998 45.9795 79.998H43.7646V81.1641H46.1846C46.5322 81.1641 46.8252 81.2109 47.0635 81.3047C47.3057 81.3945 47.4873 81.5293 47.6084 81.709C47.7334 81.8887 47.7959 82.1094 47.7959 82.3711V82.3828C47.7959 82.7852 47.6611 83.0918 47.3916 83.3027C47.126 83.5137 46.7373 83.6191 46.2256 83.6191H43.7646V84.9375ZM42.8799 84.9375H44.6494V76.4824H42.8799V84.9375ZM53.8955 85.0723C54.5596 85.0723 55.1279 84.9395 55.6006 84.6738C56.0771 84.4043 56.4424 84.0195 56.6963 83.5195C56.9502 83.0156 57.0771 82.4141 57.0771 81.7148V81.7031C57.0771 81.0078 56.9482 80.4102 56.6904 79.9102C56.4326 79.4062 56.0654 79.0195 55.5889 78.75C55.1162 78.4805 54.5518 78.3457 53.8955 78.3457C53.2393 78.3457 52.6729 78.4824 52.1963 78.7559C51.7236 79.0254 51.3584 79.4102 51.1006 79.9102C50.8428 80.4102 50.7139 81.0078 50.7139 81.7031V81.7148C50.7139 82.4141 50.8408 83.0156 51.0947 83.5195C51.3486 84.0195 51.7139 84.4043 52.1904 84.6738C52.667 84.9395 53.2354 85.0723 53.8955 85.0723ZM53.8955 83.7305C53.5908 83.7305 53.3311 83.6523 53.1162 83.4961C52.9053 83.3359 52.7432 83.1055 52.6299 82.8047C52.5205 82.5039 52.4658 82.1406 52.4658 81.7148V81.7031C52.4658 81.2812 52.5225 80.9219 52.6357 80.625C52.749 80.3242 52.9111 80.0938 53.1221 79.9336C53.3369 79.7695 53.5947 79.6875 53.8955 79.6875C54.1963 79.6875 54.4521 79.7695 54.6631 79.9336C54.8779 80.0938 55.042 80.3242 55.1553 80.625C55.2686 80.9219 55.3252 81.2812 55.3252 81.7031V81.7148C55.3252 82.1367 55.2686 82.498 55.1553 82.7988C55.042 83.0996 54.8799 83.3301 54.6689 83.4902C54.458 83.6504 54.2002 83.7305 53.8955 83.7305ZM59.4268 84.9375H61.2197L62.3623 80.4375H62.4678L63.6221 84.9375H65.4385L67.1553 78.4863H65.4619L64.501 83.1562H64.3955L63.2588 78.4863H61.6299L60.499 83.1562H60.3936L59.4326 78.4863H57.7041L59.4268 84.9375ZM68.4326 84.9375H70.1436V76.0195H68.4326V84.9375Z" fill="black"/>
</svg>
