<svg width="112" height="99" viewBox="0 0 112 99" fill="none" xmlns="http://www.w3.org/2000/svg">
<rect x="1.5" y="1.5" width="109" height="96" rx="14.5" fill="white" stroke="#ADC6F7" stroke-width="3"/>
<path d="M65.3581 33.2407C57.1321 40.7961 51.6135 54.7283 50.2111 68.1479C48.5243 67.7155 46.913 67.1136 45.3846 66.3567C37.2634 62.3409 31.64 54.0431 31.46 44.4189C41.8052 37.8512 53.4843 33.2551 65.3581 33.2407Z" fill="#F7F7F7"/>
<path d="M65.657 32.9705C65.5597 33.0607 65.4586 33.1509 65.3579 33.2408C53.484 33.2552 41.805 37.8513 31.4597 44.4189C31.4561 44.2568 31.4561 44.0978 31.4561 43.9395C31.4561 39.9489 32.3897 36.1787 34.0552 32.8336C36.8883 27.1273 41.8374 22.6579 47.8752 20.4515C54.9655 22.9675 61.043 27.2968 65.657 32.9705Z" fill="#EE2659"/>
<path d="M75.5587 27.8157C71.9542 28.4896 68.6343 30.3138 65.6568 32.9702C61.0428 27.2965 54.9653 22.9672 47.875 20.4512C50.5532 19.4708 53.4407 18.9373 56.4577 18.9373C56.5442 18.9373 56.6343 18.9373 56.7209 18.9412C61.7564 18.9914 66.4318 20.5305 70.3357 23.1406C72.2894 24.4488 74.0483 26.0241 75.5587 27.8157Z" fill="#0063D7"/>
<path d="M80.0792 35.8428C75.368 34.1632 70.8556 33.2943 66.1265 33.2476C66.0507 33.1539 65.9787 33.0637 65.8994 32.9735C66.4614 30.885 69.2348 25.592 72.8397 24.9177C74.156 26.234 76.9267 28.6393 77.8207 30.4491C78.2893 31.3898 79.7296 34.841 80.0792 35.8428Z" fill="#F6F6F6"/>
<path d="M81.4559 43.9394C81.4559 48.3986 80.2881 52.5868 78.2368 56.2131C77.4007 57.6947 76.42 59.0826 75.3027 60.355C75.0974 49.8153 71.6582 40.4645 65.8838 33.2446C70.6129 33.2913 75.3712 34.0698 80.0824 35.7494C80.9729 38.3125 81.4559 41.0703 81.4559 43.9394Z" fill="#EE2659"/>
<path d="M75.303 60.355C70.7287 65.614 63.9844 68.9375 56.4579 68.9375C54.2987 68.9375 52.2081 68.6637 50.2109 68.148C51.6133 54.7283 57.1319 40.7962 65.3579 33.2407C65.5341 33.2407 65.7075 33.2407 65.8841 33.2446C71.6585 40.4645 75.0977 49.8153 75.303 60.355Z" fill="#0063D7"/>
<path d="M68.8005 33.2401C68.8005 35.0758 67.3119 36.5645 65.4758 36.5645C63.6396 36.5645 62.1514 35.0758 62.1514 33.2401C62.1514 31.4039 63.6396 29.9153 65.4758 29.9153C67.3119 29.9153 68.8005 31.4039 68.8005 33.2401Z" fill="white"/>
<path d="M50.1999 68.0913C39.5381 65.1955 31.5088 55.9522 31.5088 45.2642C31.5088 44.978 31.4978 44.6823 31.5088 44.3984C32.3276 43.9896 33.879 42.5556 33.9989 43.2137C35.0537 49.0012 38.0487 54.5563 42.9833 59.0205C45.3263 61.1397 47.9414 62.9458 50.7264 64.2741C50.3774 65.6104 50.4719 66.7426 50.1999 68.0913Z" fill="#BAB9B8"/>
<path d="M31.5088 44.2671C31.5088 41.5029 31.6378 38.6608 32.6934 36.2378C32.4719 38.5008 33.5076 40.7033 33.8781 42.9508C33.2075 43.2976 32.1709 43.9017 31.5088 44.2671Z" fill="#EC1D41"/>
<path d="M57.0441 68.8813C54.6536 68.8813 52.481 68.8076 50.3311 68.0915C50.551 66.8859 50.4438 65.4689 50.7259 64.2743C54.5067 66.2677 58.9136 66.9912 63.0825 66.9912C64.0056 66.9912 65.0754 67.0888 65.9947 66.9912C63.3071 68.1891 60.1768 68.8813 57.0441 68.8813Z" fill="#025ECA"/>
<path d="M47.1279 84.9375H50.04C50.6455 84.9375 51.165 84.8398 51.5986 84.6445C52.0361 84.4453 52.3721 84.166 52.6064 83.8066C52.8447 83.4434 52.9639 83.0156 52.9639 82.5234V82.5117C52.9639 82.1523 52.8799 81.8262 52.7119 81.5332C52.5479 81.2402 52.3193 81.002 52.0264 80.8184C51.7373 80.6348 51.4053 80.5293 51.0303 80.502V80.3965C51.3193 80.3535 51.5791 80.2461 51.8096 80.0742C52.04 79.9023 52.2217 79.6875 52.3545 79.4297C52.4912 79.1719 52.5596 78.8945 52.5596 78.5977V78.5859C52.5596 78.1523 52.4541 77.7793 52.2432 77.4668C52.0361 77.1504 51.7373 76.9082 51.3467 76.7402C50.96 76.5684 50.4912 76.4824 49.9404 76.4824H47.1279V77.7949H49.4893C49.9111 77.7949 50.2373 77.8926 50.4678 78.0879C50.7021 78.2793 50.8193 78.5469 50.8193 78.8906V78.9023C50.8193 79.25 50.6924 79.5195 50.4385 79.7109C50.1846 79.9023 49.8193 79.998 49.3428 79.998H47.1279V81.1641H49.5479C49.8955 81.1641 50.1885 81.2109 50.4268 81.3047C50.6689 81.3945 50.8506 81.5293 50.9717 81.709C51.0967 81.8887 51.1592 82.1094 51.1592 82.3711V82.3828C51.1592 82.7852 51.0244 83.0918 50.7549 83.3027C50.4893 83.5137 50.1006 83.6191 49.5889 83.6191H47.1279V84.9375ZM46.2432 84.9375H48.0127V76.4824H46.2432V84.9375ZM56.1514 85.0371C56.4326 85.0371 56.6924 85 56.9307 84.9258C57.1729 84.8477 57.3838 84.7383 57.5635 84.5977C57.7471 84.4531 57.8936 84.2812 58.0029 84.082H58.1084V84.9375H59.7959V80.5312C59.7959 80.0742 59.6904 79.6836 59.4795 79.3594C59.2725 79.0312 58.9697 78.7812 58.5713 78.6094C58.1729 78.4336 57.6885 78.3457 57.1182 78.3457C56.5791 78.3457 56.1045 78.4238 55.6943 78.5801C55.2881 78.7363 54.9639 78.9551 54.7217 79.2363C54.4834 79.5176 54.3408 79.8477 54.2939 80.2266L54.2881 80.2793H55.8701L55.8818 80.2559C55.9482 80.0645 56.0771 79.918 56.2686 79.8164C56.4639 79.7109 56.7158 79.6582 57.0244 79.6582C57.376 79.6582 57.6436 79.7344 57.8271 79.8867C58.0146 80.0352 58.1084 80.25 58.1084 80.5312V82.5879C58.1084 82.8145 58.0479 83.0195 57.9268 83.2031C57.8057 83.3828 57.6416 83.5254 57.4346 83.6309C57.2275 83.7363 56.9912 83.7891 56.7256 83.7891C56.4287 83.7891 56.1865 83.7188 55.999 83.5781C55.8115 83.4375 55.7178 83.2441 55.7178 82.998V82.9863C55.7178 82.752 55.8076 82.5664 55.9873 82.4297C56.167 82.293 56.4404 82.2148 56.8076 82.1953L58.9521 82.0547V81.0117L56.5498 81.1582C55.749 81.2051 55.1318 81.3945 54.6982 81.7266C54.2646 82.0547 54.0479 82.5098 54.0479 83.0918V83.1035C54.0479 83.4941 54.1377 83.8359 54.3174 84.1289C54.4971 84.418 54.7451 84.6426 55.0615 84.8027C55.3818 84.959 55.7451 85.0371 56.1514 85.0371ZM61.5303 84.9375H63.2412V76.0195H61.5303V84.9375ZM65.0693 84.9375H66.7803V76.0195H65.0693V84.9375Z" fill="black"/>
</svg>
