<svg width="112" height="99" viewBox="0 0 112 99" fill="none" xmlns="http://www.w3.org/2000/svg">
<rect x="1.5" y="1.5" width="109" height="96" rx="14.5" fill="white" stroke="#ADC6F7" stroke-width="3"/>
<path d="M57.1719 30.0145C57.1719 30.0145 55.5731 21.8985 56.8382 20.0123C58.1034 18.1266 60.28 19.0706 59.9164 20.1967C59.5528 21.3228 59.1494 29.3037 58.9949 30.7135C58.8455 32.1238 57.1719 30.0145 57.1719 30.0145Z" fill="#B3632E"/>
<path d="M57.6056 29.2119C36.4168 28.1407 33.5378 58.5492 45.3924 65.5721C57.247 72.594 72.4986 68.5934 74.3415 53.89C76.1795 39.1861 69.7491 29.8251 57.6056 29.2119Z" fill="#F7A40E"/>
<path d="M58.0337 23.4487C58.0337 23.4487 64.9074 18.6612 68.4089 26.4285C68.4089 26.4285 61.6399 32.387 58.0337 23.4487Z" fill="#92D33E"/>
<path d="M66.4815 25.0121C66.088 24.7189 65.6099 24.9627 65.1865 25.1085C64.8179 24.9201 64.4045 24.7962 63.996 24.6954C64.1654 24.6393 64.3298 24.576 64.4991 24.5317C65.0122 24.3988 64.788 23.4588 64.3099 23.6539C63.8118 23.8574 63.3436 24.1158 62.8853 24.4084C62.5366 24.3125 62.193 24.2139 61.8443 24.1331C61.8244 24.1029 61.8095 24.0709 61.7945 24.0401C61.68 23.8366 61.4508 23.8865 61.3512 24.0334C61.0573 23.979 60.7634 23.933 60.4696 23.9089C60.2305 23.8899 60.1159 24.2895 60.3351 24.4145C60.7784 24.6718 61.2416 24.8792 61.7098 25.0653C61.7845 25.2211 61.8692 25.3719 61.9389 25.5317C62.0983 25.8921 62.193 26.3792 62.4719 26.6331C62.6114 26.7576 62.8006 26.6886 62.8206 26.4818C62.8604 26.0827 62.6313 25.6965 62.4669 25.3473C62.6562 25.4156 62.8504 25.4829 63.0447 25.5502C63.3984 25.6752 63.7919 25.8422 64.1854 25.9739C64.2949 26.2307 64.3746 26.4952 64.4194 26.7766C64.4593 27.0322 64.4344 27.2374 64.6187 27.4168C64.7332 27.5294 64.8677 27.5042 64.9574 27.3747C65.1766 27.0675 65.0072 26.5518 64.8129 26.1365C65.0919 26.1858 65.3708 26.1998 65.6348 26.1382C65.7294 26.1163 65.7942 26.0367 65.839 25.9442C66.1378 25.8736 66.4268 25.7564 66.5762 25.4493C66.6559 25.2946 66.616 25.1102 66.4815 25.0121Z" fill="#C5E56B"/>
<path d="M43.7888 56.7228C43.5397 56.0563 43.1512 55.4795 42.9221 54.7974C42.6929 54.1197 42.6232 53.4173 42.4588 52.7194C42.2546 51.8181 41.0542 51.7436 40.8201 52.6712C40.3569 54.5277 41.0343 57.0423 42.4339 58.1847C43.3056 58.8965 44.1125 57.614 43.7888 56.7228Z" fill="#F58114"/>
<path d="M45.731 55.2795C45.2578 55.2638 44.8443 55.7005 44.8294 56.2347C44.8095 56.9297 44.9191 57.6764 45.3225 58.224C45.7309 58.7868 46.7171 58.3849 46.6723 57.6371C46.6424 57.1646 46.5229 56.7739 46.5777 56.2947C46.6375 55.7666 46.1693 55.2947 45.731 55.2795Z" fill="#F58114"/>
<path d="M50.9113 61.8003C50.4232 61.561 49.8852 61.4752 49.3971 61.2336C48.894 60.9876 48.4109 60.7174 47.9576 60.3783C47.2951 59.8884 46.5131 60.9735 47.0859 61.598C47.9925 62.5851 49.3324 63.6159 50.6523 63.5974C51.6286 63.5851 51.7282 62.2062 50.9113 61.8003Z" fill="#F58114"/>
<path d="M54.0095 60.2475C53.4766 60.0665 52.8739 60.3198 52.346 60.4482C51.0758 60.7582 51.5639 63.039 52.8191 62.6573C53.3471 62.4975 53.9797 62.4123 54.3831 61.9768C54.8762 61.4375 54.667 60.4706 54.0095 60.2475Z" fill="#F58114"/>
<path d="M56.9178 62.1892C56.335 61.9734 55.7721 62.2475 55.2043 62.4201C54.1484 62.7396 54.5319 64.5361 55.6028 64.2749C56.1756 64.1342 56.7932 64.0849 57.2216 63.5928C57.6201 63.1387 57.4557 62.3876 56.9178 62.1892Z" fill="#F58114"/>
<path d="M63.249 62.7468C62.2577 63.1655 61.3263 63.7305 60.4298 64.3673C59.5631 64.9845 60.2754 66.3297 61.1869 65.9049C62.0187 65.5186 62.8704 65.2625 63.7321 64.985C65.0222 64.5702 64.4593 62.2373 63.249 62.7468Z" fill="#F58114"/>
<path d="M66.3919 60.2501C65.9536 60.2865 65.6049 60.4592 65.2065 60.6503C64.7482 60.8728 64.6237 61.6155 64.8478 62.0729C65.1118 62.6088 65.6448 62.7019 66.108 62.4788C66.4317 62.3241 66.7007 62.194 66.9697 61.925C67.4827 61.3981 67.149 60.1862 66.3919 60.2501Z" fill="#F58114"/>
<path d="M64.4443 32.8798C64.0409 32.7509 63.6773 32.7178 63.2639 32.7245C62.462 32.7369 62.3723 33.8747 63.0497 34.2083C63.4382 34.3972 63.7819 34.5082 64.2003 34.5648C65.072 34.6836 65.2612 33.1416 64.4443 32.8798Z" fill="#FACC08"/>
<path d="M68.4691 34.2783C68.1005 33.9672 67.6273 33.7973 67.1641 33.8198C66.2127 33.8663 66.1679 35.3859 67.1192 35.4868C67.5974 35.5367 67.5775 36.155 68.0407 36.4476C68.494 36.7346 68.9721 36.4795 69.1564 35.9644C69.4005 35.294 68.9174 34.6538 68.4691 34.2783Z" fill="#FACC08"/>
<path d="M70.4613 38.9817C70.2073 38.5546 69.9134 38.2059 69.5149 37.9408C69.1314 37.6801 68.6034 37.8186 68.3693 38.2541C68.1203 38.7165 68.2796 39.2468 68.6482 39.545C68.7777 39.6526 68.8574 39.7788 68.9321 39.9374C69.1613 40.4026 69.7091 40.5764 70.1226 40.3197C70.5061 40.0781 70.7253 39.4245 70.4613 38.9817Z" fill="#FACC08"/>
<path d="M72.2692 39.6514C72.0649 39.1879 71.4971 39.0393 71.1136 39.2803C70.6703 39.5584 70.6155 40.097 70.7849 40.5791C70.8745 40.8431 70.9492 41.1419 71.0936 41.3728C71.3377 41.759 71.7262 41.9827 72.1446 41.7899C72.5381 41.6088 72.7523 41.1576 72.6626 40.6822C72.5929 40.3201 72.4136 39.9821 72.2692 39.6514Z" fill="#FACC08"/>
<path d="M71.5673 44.9991C70.86 44.4918 70.1079 45.5905 70.6657 46.2654C70.7654 46.3887 70.8401 46.5826 70.855 46.6504C70.9198 47.0669 70.9048 47.3903 71.1987 47.7166C71.4079 47.947 71.8164 48.0781 72.0803 47.8646C73.0815 47.0535 72.4041 45.6028 71.5673 44.9991Z" fill="#FACC08"/>
<path d="M39.1123 85.1543C39.9443 85.1543 40.665 84.9746 41.2744 84.6152C41.8838 84.252 42.3525 83.7383 42.6807 83.0742C43.0127 82.4102 43.1787 81.623 43.1787 80.7129V80.7012C43.1787 79.791 43.0127 79.0039 42.6807 78.3398C42.3486 77.6758 41.8779 77.1641 41.2686 76.8047C40.6631 76.4453 39.9443 76.2656 39.1123 76.2656C38.2842 76.2656 37.5654 76.4453 36.9561 76.8047C36.3467 77.1641 35.874 77.6758 35.5381 78.3398C35.2061 79 35.04 79.7871 35.04 80.7012V80.7129C35.04 81.623 35.2041 82.4102 35.5322 83.0742C35.8643 83.7383 36.335 84.252 36.9443 84.6152C37.5537 84.9746 38.2764 85.1543 39.1123 85.1543ZM39.1123 83.6543C38.6475 83.6543 38.2451 83.5332 37.9053 83.291C37.5693 83.0488 37.3076 82.707 37.1201 82.2656C36.9365 81.8242 36.8447 81.3066 36.8447 80.7129V80.7012C36.8447 80.1035 36.9385 79.5859 37.126 79.1484C37.3135 78.707 37.5771 78.3672 37.917 78.1289C38.2568 77.8867 38.6553 77.7656 39.1123 77.7656C39.5693 77.7656 39.9678 77.8867 40.3076 78.1289C40.6475 78.3672 40.9092 78.707 41.0928 79.1484C41.2803 79.5859 41.374 80.1035 41.374 80.7012V80.7129C41.374 81.3066 41.2803 81.8242 41.0928 82.2656C40.9092 82.707 40.6475 83.0488 40.3076 83.291C39.9678 83.5332 39.5693 83.6543 39.1123 83.6543ZM44.6904 84.9375H46.4014V81.3281C46.4014 81.0234 46.4658 80.7617 46.5947 80.543C46.7236 80.3242 46.9072 80.1562 47.1455 80.0391C47.3838 79.918 47.665 79.8574 47.9893 79.8574C48.1221 79.8574 48.2529 79.8672 48.3818 79.8867C48.5146 79.9023 48.6455 79.9258 48.7744 79.957V78.4629C48.6885 78.4395 48.5889 78.4199 48.4756 78.4043C48.3662 78.3887 48.2529 78.3809 48.1357 78.3809C47.7178 78.3809 47.3682 78.4785 47.0869 78.6738C46.8057 78.8652 46.6123 79.1367 46.5068 79.4883H46.4014V78.4863H44.6904V84.9375ZM51.5576 85.0371C51.8389 85.0371 52.0986 85 52.3369 84.9258C52.5791 84.8477 52.79 84.7383 52.9697 84.5977C53.1533 84.4531 53.2998 84.2812 53.4092 84.082H53.5146V84.9375H55.2021V80.5312C55.2021 80.0742 55.0967 79.6836 54.8857 79.3594C54.6787 79.0312 54.376 78.7812 53.9775 78.6094C53.5791 78.4336 53.0947 78.3457 52.5244 78.3457C51.9854 78.3457 51.5107 78.4238 51.1006 78.5801C50.6943 78.7363 50.3701 78.9551 50.1279 79.2363C49.8896 79.5176 49.7471 79.8477 49.7002 80.2266L49.6943 80.2793H51.2764L51.2881 80.2559C51.3545 80.0645 51.4834 79.918 51.6748 79.8164C51.8701 79.7109 52.1221 79.6582 52.4307 79.6582C52.7822 79.6582 53.0498 79.7344 53.2334 79.8867C53.4209 80.0352 53.5146 80.25 53.5146 80.5312V82.5879C53.5146 82.8145 53.4541 83.0195 53.333 83.2031C53.2119 83.3828 53.0479 83.5254 52.8408 83.6309C52.6338 83.7363 52.3975 83.7891 52.1318 83.7891C51.835 83.7891 51.5928 83.7188 51.4053 83.5781C51.2178 83.4375 51.124 83.2441 51.124 82.998V82.9863C51.124 82.752 51.2139 82.5664 51.3936 82.4297C51.5732 82.293 51.8467 82.2148 52.2139 82.1953L54.3584 82.0547V81.0117L51.9561 81.1582C51.1553 81.2051 50.5381 81.3945 50.1045 81.7266C49.6709 82.0547 49.4541 82.5098 49.4541 83.0918V83.1035C49.4541 83.4941 49.5439 83.8359 49.7236 84.1289C49.9033 84.418 50.1514 84.6426 50.4678 84.8027C50.7881 84.959 51.1514 85.0371 51.5576 85.0371ZM56.8779 84.9375H58.5889V81.2051C58.5889 80.9121 58.6396 80.6582 58.7412 80.4434C58.8467 80.2285 58.9932 80.0625 59.1807 79.9453C59.3721 79.8242 59.5986 79.7637 59.8604 79.7637C60.2666 79.7637 60.5654 79.8809 60.7568 80.1152C60.9482 80.3496 61.0439 80.6953 61.0439 81.1523V84.9375H62.7549V80.7656C62.7549 79.9922 62.5654 79.3965 62.1865 78.9785C61.8115 78.5566 61.2646 78.3457 60.5459 78.3457C60.085 78.3457 59.6982 78.4473 59.3857 78.6504C59.0732 78.8535 58.8428 79.1309 58.6943 79.4824H58.5889V78.4863H56.8779V84.9375ZM67.2607 87.2051C67.9131 87.2051 68.4775 87.1035 68.9541 86.9004C69.4307 86.7012 69.7979 86.416 70.0557 86.0449C70.3174 85.6777 70.4482 85.2422 70.4482 84.7383V78.4863H68.7373V79.541H68.6553C68.542 79.2988 68.3916 79.0918 68.2041 78.9199C68.0166 78.748 67.7979 78.6152 67.5479 78.5215C67.3018 78.4277 67.0303 78.3809 66.7334 78.3809C66.1826 78.3809 65.708 78.5137 65.3096 78.7793C64.915 79.0449 64.6104 79.416 64.3955 79.8926C64.1846 80.3691 64.0791 80.9238 64.0791 81.5566V81.5684C64.0791 82.1777 64.1846 82.7148 64.3955 83.1797C64.6104 83.6445 64.9131 84.0078 65.3037 84.2695C65.6982 84.5273 66.165 84.6562 66.7041 84.6562C67.001 84.6562 67.2725 84.6172 67.5186 84.5391C67.7686 84.457 67.9873 84.3379 68.1748 84.1816C68.3662 84.0254 68.5205 83.834 68.6377 83.6074H68.7432V84.8086C68.7432 85.1836 68.6162 85.4727 68.3623 85.6758C68.1084 85.8828 67.7529 85.9863 67.2959 85.9863C66.917 85.9863 66.6162 85.9277 66.3936 85.8105C66.1748 85.6934 66.042 85.541 65.9951 85.3535L65.9893 85.3301H64.2959V85.3594C64.3428 85.7227 64.4873 86.043 64.7295 86.3203C64.9717 86.6016 65.3037 86.8184 65.7256 86.9707C66.1514 87.127 66.6631 87.2051 67.2607 87.2051ZM67.2842 83.3438C66.9756 83.3438 66.7139 83.2695 66.499 83.1211C66.2842 82.9688 66.1182 82.7598 66.001 82.4941C65.8877 82.2246 65.8311 81.9141 65.8311 81.5625V81.5508C65.8311 81.1953 65.8877 80.8848 66.001 80.6191C66.1182 80.3496 66.2842 80.1406 66.499 79.9922C66.7139 79.8438 66.9756 79.7695 67.2842 79.7695C67.5928 79.7695 67.8564 79.8438 68.0752 79.9922C68.2939 80.1406 68.4619 80.3496 68.5791 80.6191C68.7002 80.8887 68.7607 81.1992 68.7607 81.5508V81.5625C68.7607 81.918 68.7002 82.2285 68.5791 82.4941C68.4619 82.7598 68.2939 82.9688 68.0752 83.1211C67.8564 83.2695 67.5928 83.3438 67.2842 83.3438ZM74.9951 85.0723C75.4678 85.0723 75.876 85.0137 76.2197 84.8965C76.5674 84.7754 76.8564 84.6191 77.0869 84.4277C77.3213 84.2363 77.5049 84.0312 77.6377 83.8125C77.7705 83.5898 77.8623 83.377 77.9131 83.1738L77.9248 83.1152H76.3311L76.3135 83.1504C76.2744 83.2324 76.2002 83.3242 76.0908 83.4258C75.9854 83.5234 75.8447 83.6094 75.6689 83.6836C75.4932 83.7578 75.2803 83.7949 75.0303 83.7949C74.7217 83.7949 74.4561 83.7266 74.2334 83.5898C74.0107 83.4531 73.8389 83.2559 73.7178 82.998C73.5967 82.7402 73.5361 82.4297 73.5361 82.0664V81.375C73.5361 81 73.5967 80.6836 73.7178 80.4258C73.8428 80.1641 74.0107 79.9668 74.2217 79.834C74.4365 79.6973 74.6807 79.6289 74.9541 79.6289C75.2314 79.6289 75.4736 79.6953 75.6807 79.8281C75.8916 79.957 76.0557 80.1504 76.1729 80.4082C76.2939 80.666 76.3545 80.9883 76.3545 81.375V82.0605L77.1572 81.0469H72.6982V82.1191H77.9775V81.5859C77.9775 80.9336 77.8545 80.3652 77.6084 79.8809C77.3623 79.3965 77.0107 79.0195 76.5537 78.75C76.0967 78.4805 75.5537 78.3457 74.9248 78.3457C74.2998 78.3457 73.7549 78.4844 73.29 78.7617C72.8291 79.0391 72.4717 79.4297 72.2178 79.9336C71.9678 80.4375 71.8428 81.0312 71.8428 81.7148V81.7207C71.8428 82.4121 71.9697 83.0078 72.2236 83.5078C72.4775 84.0078 72.8389 84.3945 73.3076 84.668C73.7803 84.9375 74.3428 85.0723 74.9951 85.0723Z" fill="black"/>
</svg>
