<svg width="107" height="94" viewBox="0 0 107 94" fill="none" xmlns="http://www.w3.org/2000/svg">
<rect x="1.84351" y="1.5" width="103.343" height="91" rx="14.5" fill="white" stroke="#ADC6F7" stroke-width="3"/>
<path d="M68.8375 25.0245C67.1759 24.9019 65.4866 25.2382 63.9741 25.9914C64.0625 26.2305 64.151 26.4696 64.2394 26.7087C64.075 26.5428 63.9106 26.3769 63.7462 26.2125C62.7587 27.2287 62.0446 28.5528 61.7117 29.9815C62.1869 30.2086 62.6454 30.4806 63.0778 30.7915C62.4603 30.6659 61.8415 30.5404 61.2241 30.4149C60.847 31.984 60.4203 33.5382 59.9437 35.073C60.5128 35.5094 60.9935 36.0817 61.3415 36.7348C60.7186 36.5674 60.115 36.3134 59.5501 35.9816C58.9617 37.1293 57.7337 37.6703 56.597 38.1276C56.7807 38.6342 56.9244 39.1573 57.0293 39.6893C56.6674 39.3142 56.3995 38.8345 56.2614 38.3129C55.905 38.4101 55.5473 38.5087 55.1909 38.6073C55.6039 40.2632 55.9893 41.9294 56.3456 43.6017C57.8967 43.8139 59.5114 43.4433 60.8498 42.5706C62.1896 41.6963 63.2449 40.3244 63.796 38.7403C64.2877 37.3251 64.3802 35.7829 64.8098 34.3437C65.3388 32.5758 66.3596 31.0246 67.506 29.6408C68.035 29.0041 68.4632 28.3645 68.5419 27.4873C68.5654 27.2362 68.5143 25.0006 68.8375 25.0245Z" fill="#493832"/>
<path d="M34.232 43.2685C32.1311 43.3537 30.0206 44.0904 28.4142 45.5565C28.7112 45.9734 29.0067 46.3904 29.3023 46.8058C29.8286 46.3605 30.4308 46.0212 31.0689 45.8105C29.8576 46.6788 28.8949 47.9461 28.3438 49.3986C29.0648 50.1668 29.8756 50.8363 30.7499 51.3862C31.1076 50.3581 31.7195 49.436 32.504 48.7396C32.0828 49.3329 31.7319 49.986 31.464 50.6749C31.7858 50.8408 32.0814 51.0694 32.3314 51.3459C32.9156 49.424 34.1408 47.7368 35.7278 46.6683C37.3577 45.5699 39.1878 45.2546 41.0718 45.419C39.2348 43.678 36.6491 43.1714 34.232 43.2685Z" fill="#493832"/>
<path d="M41.0124 48.6695C40.6671 50.3731 41.1188 52.135 41.866 53.6623C42.6133 55.1911 43.6437 56.5421 44.5539 57.9693C46.326 60.7489 47.6493 63.8394 48.4573 67.0823C48.5484 67.4514 48.6437 67.8415 48.902 68.1105C49.1617 68.3794 49.6438 68.4587 49.8951 68.1672C49.746 62.6185 49.4518 57.0771 49.0139 51.5537C48.891 50.0055 48.7308 48.378 47.8661 47.1272C47.0954 46.0109 47.1741 43.9575 45.8177 44.3461C42.9531 45.1665 41.2956 47.2662 41.0124 48.6695Z" fill="#CCB5A6"/>
<path d="M69.8688 25.482C69.9268 25.3998 70 25.3116 70.0954 25.3146C70.1534 25.3161 70.2059 25.3534 70.2528 25.3923C70.71 25.7824 70.8799 26.4429 70.9821 27.0631C71.0912 27.7266 71.152 28.4006 71.1658 29.0761C71.1713 29.3496 71.1617 29.6469 71.0014 29.8606C70.8426 30.0699 70.5774 30.1416 70.3288 30.1805C69.8136 30.2612 69.2859 30.2567 68.7721 30.167C67.7307 29.9847 68.3025 28.8026 68.5511 28.0718C68.866 27.1423 69.3108 26.2651 69.8688 25.482Z" fill="#DDC3B1"/>
<path d="M66.3162 55.0598C67.4764 58.609 66.8328 62.7815 64.6711 65.73C64.2581 65.6164 63.8438 65.5043 63.4308 65.3907C64.2223 63.5197 64.3797 61.3453 63.87 59.3637C63.5358 58.0606 62.8659 56.7858 61.772 56.1313C60.12 55.1434 57.9528 55.7935 56.2788 54.849C54.6655 53.9374 53.9832 51.5195 54.8105 49.765C57.6586 43.72 65.1242 51.4134 66.3162 55.0598Z" fill="#CCB5A6"/>
<path d="M67.9076 30.4571C67.3262 29.4035 66.8911 28.2767 65.8316 28.7131C65.0416 29.0389 63.9656 29.937 63.6562 31.1415C63.4311 32.0218 63.3593 33.0155 63.2916 33.9271C63.0623 37.0236 61.3054 40.9226 59.3302 41.7535C55.6851 43.0477 51.7845 43.3077 47.9461 43.1762C44.6546 43.0641 39.5413 43.1029 38.3051 47.3636C37.073 51.6107 39.7402 55.5605 43.3949 56.641C48.7638 58.2281 54.6741 57.5451 59.6216 54.7924C59.6216 55.3199 59.7128 55.6681 60.0443 55.5994C61.7515 55.2482 64.6645 51.3582 65.7806 47.9987C67.2778 43.49 68.5085 38.8139 68.5527 34.0243C68.5637 32.7974 68.4891 31.5107 67.9076 30.4571Z" fill="#F7D8BA"/>
<path d="M67.4036 28.3482C69.347 28.2974 71.2379 29.212 73.0376 30.1057C74.0501 30.6078 75.0639 31.1114 76.0763 31.6135C76.7255 31.9348 77.4009 32.28 77.8457 32.8629C78.604 33.8597 78.441 35.3137 77.7297 36.2463C77.0169 37.1773 75.8829 37.6734 74.7407 37.9708C72.0652 38.6687 69.1066 38.4416 66.445 37.3342C65.829 37.0787 65.2143 36.7663 64.735 36.2866C61.8994 33.4487 63.6646 28.4424 67.4036 28.3482Z" fill="#F7D8BA"/>
<path d="M45.6465 55.6978C46.9255 55.8249 48.2128 55.7277 49.4891 55.5843C52.7157 55.2226 56.0279 54.5232 58.6854 52.5087C58.7889 52.8226 59.0072 53.0721 59.2199 53.3112C59.6591 53.8074 60.0983 54.3035 60.5376 54.7997C59.0818 55.514 57.6218 56.2299 56.0983 56.7544C53.1148 57.7826 49.9518 58.0546 46.8206 58.0844C45.9297 58.0934 45.0388 58.0815 44.1534 57.9903C43.5153 57.9245 42.855 57.805 42.3371 57.3985C41.9738 57.1116 41.7073 56.7051 41.4752 56.2866C41.315 55.9997 41.1644 55.6963 41.1202 55.3631C41.0636 54.9357 41.2266 54.3962 41.6644 54.2961C42.0581 54.2064 42.2114 54.586 42.507 54.7892C43.3868 55.3915 44.6299 55.5977 45.6465 55.6978Z" fill="#DDC3B1"/>
<path d="M56.0694 50.9677C55.7959 53.1227 56.3746 54.7008 57.1979 56.3462C56.7061 56.3058 55.76 56.3387 55.365 55.9666C55.0791 55.6976 55.1978 55.1761 55.2006 54.8084C55.2075 54.1344 55.289 53.4844 55.4506 52.8328C55.6025 52.2275 55.9865 51.576 56.0694 50.9677Z" fill="#DDC3B1"/>
<path d="M45.0495 52.7076C45.2456 54.2843 45.8216 55.819 45.7346 57.4076C45.7305 57.4883 45.7222 57.575 45.678 57.6407C45.6117 57.7364 45.4888 57.7588 45.3783 57.7708C45.1407 57.7962 43.9722 58.0054 43.8727 57.7095C43.8327 57.5869 44.0688 57.2656 44.1172 57.1551C44.2401 56.8696 44.3299 56.5603 44.4224 56.2614C44.7332 55.2452 45.1835 53.7926 45.0495 52.7076Z" fill="#DDC3B1"/>
<path d="M69.9478 31.2027C69.8898 30.8306 69.9575 30.4226 70.191 30.1431C70.4258 29.8651 70.8443 29.7605 71.1371 29.9638C71.3208 30.0893 71.4313 30.3075 71.5211 30.5212C71.6343 30.7887 71.7282 31.0697 71.7503 31.3626C71.7863 31.8184 71.5155 32.6747 70.9589 32.4206C70.4589 32.192 70.0431 31.8004 69.9478 31.2027Z" fill="#DDC3B1"/>
<path d="M70.3293 31.7422C70.3956 32.0112 70.5931 32.2309 70.8307 32.3385C70.9342 32.3848 71.0503 32.4132 71.1566 32.3788C71.2782 32.34 71.3694 32.2279 71.4274 32.1054C71.5406 31.8633 71.5434 31.5614 71.4232 31.3238C71.2989 31.0772 70.9481 30.8321 70.6773 30.9068C70.3721 30.992 70.2588 31.4538 70.3293 31.7422Z" fill="#493832"/>
<path d="M70.8015 31.1414C70.6965 31.1862 70.6122 31.2833 70.5763 31.3984C70.5418 31.515 70.5584 31.6465 70.6205 31.7496C70.644 31.7884 70.6758 31.8258 70.7172 31.8408C70.7586 31.8572 70.8111 31.8482 70.8374 31.8109C70.8857 31.7421 70.8291 31.6345 70.8664 31.5583C70.8871 31.518 70.9272 31.4955 70.9575 31.4627C71.0087 31.4074 71.0225 31.3132 70.9893 31.243C70.9548 31.1727 70.8774 31.1309 70.8042 31.1429L70.8015 31.1414Z" fill="white"/>
<path d="M77.8142 32.8855C77.3695 32.3027 76.6941 31.959 76.0449 31.6362C75.8819 31.5555 75.7203 31.4748 75.5573 31.3941C75.1236 31.5241 74.8667 31.8633 74.741 32.5179C74.6512 32.9871 74.6775 33.4713 74.7106 33.9481C74.7686 34.7805 74.8515 35.6188 75.0932 36.4109C75.2355 36.8801 75.4827 37.3718 75.8626 37.6079C76.578 37.3045 77.2286 36.8816 77.6968 36.2689C78.4082 35.3364 78.5725 33.8823 77.8142 32.8855Z" fill="#493832"/>
<path d="M63.8235 64.258L63.2876 65.4715L64.6592 65.8525L65.3111 64.7452L63.8235 64.258Z" fill="#493832"/>
<path d="M66.1343 25.9184C66.162 25.8198 66.2006 25.7092 66.2904 25.6763C66.3471 25.6554 66.4078 25.6704 66.4645 25.6883C67.0197 25.8781 67.394 26.431 67.691 26.9735C68.0087 27.5533 68.2863 28.1601 68.5183 28.7862C68.6136 29.0403 68.7007 29.3227 68.6206 29.5828C68.5404 29.8413 68.3153 30.0087 68.0957 30.1402C67.6399 30.4122 67.1454 30.6094 66.6344 30.7215C65.6012 30.9472 65.7504 29.6246 65.7448 28.8445C65.7366 27.8552 65.8678 26.8644 66.1343 25.9184Z" fill="#F7D8BA"/>
<path d="M66.616 26.9762C66.6187 26.9374 66.6229 26.8941 66.6505 26.8687C66.6698 26.8492 66.6988 26.8447 66.7251 26.8432C66.8867 26.8373 67.0373 26.9419 67.1381 27.0779C67.2375 27.2139 67.2955 27.3812 67.348 27.5456C67.5524 28.1733 67.721 28.8159 67.8176 29.4734C67.8245 29.5183 67.8301 29.5691 67.808 29.6094C67.79 29.6438 67.7555 29.6647 67.7223 29.6827C67.4102 29.8545 67.098 30.0279 66.7859 30.1997C66.3038 30.4657 66.5124 29.2597 66.5207 28.9892C66.54 28.3168 66.5718 27.6458 66.616 26.9762Z" fill="#DDC3B1"/>
<path d="M38.6241 46.2067C37.8741 47.8371 37.8796 49.7679 38.2263 51.5508C38.573 53.3321 39.236 55.0208 39.765 56.7484C40.794 60.1153 41.3147 63.6616 41.3009 67.2079C41.2996 67.6114 41.2954 68.0373 41.4791 68.39C41.6628 68.7412 42.109 68.9668 42.4225 68.7471C43.6352 63.0519 44.7071 57.3208 45.6352 51.5627C45.8963 49.9487 46.138 48.2451 45.6104 46.7088C45.1408 45.3384 45.7195 43.2731 44.3162 43.2582C41.352 43.2283 39.2401 44.8647 38.6241 46.2067Z" fill="#F7D8BA"/>
<path d="M57.275 50.315C56.3219 51.4178 56.2031 53.0632 56.1354 54.5711C55.9158 59.5251 55.7073 64.4806 55.5098 69.4362C55.8109 69.4586 56.112 69.481 56.4131 69.5049C57.3565 64.0562 59.0181 58.7555 61.3344 53.8119C61.6424 53.1529 61.967 52.4879 62.0913 51.7631C62.2156 51.0368 62.1107 50.2238 61.6466 49.6828C60.6783 48.5545 58.1092 49.3481 57.275 50.315Z" fill="#F7D8BA"/>
<path d="M41.3216 67.8295L42.5813 67.9999L42.4805 69.3882L41.1172 69.2881L41.3216 67.8295Z" fill="#493832"/>
<path d="M48.6343 67.677L48.9119 69.146L50.2393 69.004L49.8746 67.4468L48.6343 67.677Z" fill="#493832"/>
<path d="M55.5528 68.3511L56.6026 68.4602V69.6318H55.3608L55.5528 68.3511Z" fill="#493832"/>
<path d="M52.3272 43.128C52.0717 46.1766 52.4957 49.291 53.5634 52.1274C53.3148 49.1012 53.1573 46.0391 53.4902 43.0279C53.1034 43.0682 52.7153 43.1011 52.3272 43.128Z" fill="#493832"/>
<path d="M49.2321 47.8208C49.3233 46.5341 49.4393 45.2459 49.6935 43.9846C49.7459 43.7275 49.8067 43.466 49.8868 43.2119C49.4421 43.2149 48.9987 43.2104 48.5567 43.2C47.5967 46.7298 47.9531 50.6602 49.5387 53.915C49.0125 51.9499 49.0885 49.8607 49.2321 47.8208Z" fill="#493832"/>
<path d="M43.2792 43.3167C42.7308 43.4243 42.159 43.4811 41.6521 43.6783C41.4435 44.4286 41.072 45.3133 40.9186 46.0963C40.7515 46.9467 40.6949 47.8224 40.7322 48.6892C40.8137 50.5273 41.3054 52.3221 41.9863 54.0063C41.141 50.7664 41.4476 47.1903 42.8316 44.173C42.9463 43.9234 43.1341 43.5588 43.2792 43.3167Z" fill="#493832"/>
<path d="M46.3954 44.6224C46.5694 44.0904 46.778 43.5494 47.1523 43.1609C46.6468 43.1519 46.1123 43.1519 45.5667 43.1728C44.5556 46.1542 44.5004 49.5062 45.4216 52.522C45.2338 49.8544 45.5667 47.1435 46.3954 44.6224Z" fill="#493832"/>
<path d="M58.64 41.9923C57.9798 42.2015 57.3112 42.3778 56.6372 42.5273C56.7864 45.4967 57.7988 48.4123 59.506 50.7437C58.6966 47.9252 58.4024 44.9333 58.64 41.9923Z" fill="#493832"/>
<path d="M63.0844 35.3913C62.9725 35.9427 62.822 36.5002 62.6396 37.0441C63.7253 37.7839 65.0112 38.1784 66.2958 38.159C64.9712 37.6793 63.8151 36.6795 63.0844 35.3913Z" fill="#493832"/>
<path d="M62.2059 38.6014C62.1756 38.5267 62.1466 38.4475 62.1217 38.3653C61.9131 38.8241 61.6838 39.2605 61.438 39.6595C61.8303 40.1287 62.1825 40.6443 62.5872 41.1031C63.1811 41.7741 63.967 42.3494 64.8248 42.2986C63.7032 41.3078 62.7985 40.0316 62.2059 38.6014Z" fill="#493832"/>
<path d="M62.5941 46.9868C61.8054 44.8498 61.2654 42.6066 60.9864 40.3261C60.7074 40.6968 60.4118 41.0166 60.1079 41.2706C60.2502 43.4196 61.1507 45.5014 62.5941 46.9868Z" fill="#493832"/>
<path d="M66.7197 35.2707C67.6783 37.608 69.775 38.3433 71.7833 38.4045C70.659 38.412 69.5347 38.3194 68.4242 38.1281C68.217 39.9363 67.7847 41.7147 67.1452 43.3989C67.3289 42.9267 67.4407 42.1615 67.4324 41.6504C67.4214 40.9391 67.3855 40.2277 67.3288 39.5194C67.2142 38.0907 67.0112 36.6695 66.7197 35.2707Z" fill="#DDC3B1"/>
</svg>
