<svg width="107" height="95" viewBox="0 0 107 95" fill="none" xmlns="http://www.w3.org/2000/svg">
<g id="Object Card">
<rect id="Rectangle 24" x="1.82812" y="1.98404" width="103.343" height="91" rx="14.5" fill="white" stroke="#ADC6F7" stroke-width="3"/>
<g id="Object/Book">
<path id="Vector" d="M48.3283 68.3412C48.3283 71.4969 47.1983 74.0555 44.0426 74.0555H34.0426C28.3283 74.0555 28.3283 54.0555 34.0426 54.0555H44.0426C47.1983 54.0555 48.3283 56.6141 48.3283 59.7698V68.3412Z" fill="#553788"/>
<path id="Vector_2" d="M75.4708 71.1983H74.0423V56.9126H75.4708C76.2608 56.9126 76.8994 56.2741 76.8994 55.4841C76.8994 54.6941 76.2608 54.0555 75.4708 54.0555H41.1851C35.4708 54.0555 35.4708 74.0555 41.1851 74.0555H75.4708C76.2608 74.0555 76.8994 73.4169 76.8994 72.6269C76.8994 71.8369 76.2608 71.1983 75.4708 71.1983Z" fill="#9266CC"/>
<path id="Vector_3" d="M75.7169 71.1983H42.614C39.7569 71.1983 39.7569 56.9126 42.614 56.9126H75.7169C77.294 56.9126 77.294 71.1983 75.7169 71.1983Z" fill="#CCD6DD"/>
<path id="Vector_4" d="M43.3282 59.7697H76.6854C76.4925 58.0912 76.1711 56.9126 75.7168 56.9126H42.6139C40.2554 56.9126 39.8454 66.6383 41.3811 70.0383C40.8211 65.8112 41.4696 59.7697 43.3282 59.7697Z" fill="#99AAB5"/>
<path id="Vector_5" d="M44.0424 35.484C44.0424 38.6398 41.4838 41.1983 38.3281 41.1983H32.6138C26.8996 41.1983 26.8996 25.484 32.6138 25.484H38.3281C41.4838 25.484 44.0424 28.0426 44.0424 31.1983V35.484Z" fill="#226699"/>
<path id="Vector_6" d="M71.1852 38.3412H69.7566V28.3412H71.1852C71.9752 28.3412 72.6138 27.7026 72.6138 26.9126C72.6138 26.1226 71.9752 25.484 71.1852 25.484H36.8995C31.1852 25.484 31.1852 41.1983 36.8995 41.1983H71.1852C71.9752 41.1983 72.6138 40.5598 72.6138 39.7698C72.6138 38.9798 71.9752 38.3412 71.1852 38.3412Z" fill="#55ACEE"/>
<path id="Vector_7" d="M71.4308 38.3412H38.3279C35.4708 38.3412 35.4708 28.3412 38.3279 28.3412H71.4308C73.0079 28.3412 73.0079 38.3412 71.4308 38.3412Z" fill="#CCD6DD"/>
<path id="Vector_8" d="M38.328 31.1983H72.5065C72.3437 29.5912 71.9865 28.3412 71.4308 28.3412H38.328C36.6237 28.3412 35.9437 31.8969 36.2737 34.7698C36.4965 32.8298 37.1751 31.1983 38.328 31.1983Z" fill="#99AAB5"/>
<path id="Vector_9" d="M55.4708 48.3412C55.4708 51.4969 52.9122 54.0555 49.7565 54.0555H35.4708C29.7565 54.0555 29.7565 41.1983 35.4708 41.1983H49.7565C52.9122 41.1983 55.4708 43.7569 55.4708 46.9126V48.3412Z" fill="#F4900C"/>
<path id="Vector_10" d="M76.8996 51.1983H75.4711V44.0555H76.8996C77.6896 44.0555 78.3282 43.4169 78.3282 42.6269C78.3282 41.8369 77.6896 41.1983 76.8996 41.1983H48.3282C42.6139 41.1983 42.6139 54.0555 48.3282 54.0555H76.8996C77.6896 54.0555 78.3282 53.4169 78.3282 52.6269C78.3282 51.8369 77.6896 51.1983 76.8996 51.1983Z" fill="#FFAC33"/>
<path id="Vector_11" d="M77.1452 51.1983H49.7566C46.8995 51.1983 46.8995 44.0555 49.7566 44.0555H77.1452C78.7223 44.0555 78.7223 51.1983 77.1452 51.1983Z" fill="#CCD6DD"/>
<path id="Vector_12" d="M49.7565 46.9126H78.3051C78.2122 45.3955 77.8279 44.0555 77.1451 44.0555H49.7565C47.9365 44.0555 47.2808 46.9512 47.7808 49.0555C48.0637 47.8569 48.7194 46.9126 49.7565 46.9126Z" fill="#99AAB5"/>
</g>
</g>
</svg>
