<svg width="107" height="95" viewBox="0 0 107 95" fill="none" xmlns="http://www.w3.org/2000/svg">
<rect x="1.82812" y="1.98401" width="103.343" height="91" rx="14.5" fill="white" stroke="#ADC6F7" stroke-width="3"/>
<path d="M55.5299 22.7969C54.0672 22.7969 52.666 22.9345 51.3701 23.1857C52.1323 23.106 52.9204 23.064 53.7272 23.064C60.3477 23.064 63.7324 25.59 63.7324 29.0597C63.7324 31.8436 60.6587 32.5626 56.3776 33.4601C61.8499 32.9642 65.5351 31.9439 65.5351 28.7926C65.5351 25.3229 62.1503 22.7969 55.5299 22.7969Z" fill="#418C94"/>
<path d="M63.4167 45.7269C63.4167 36.9987 58.2481 29.923 51.8724 29.923C45.4967 29.923 40.3281 36.9987 40.3281 45.7269C40.3281 47.3533 40.5076 48.9222 40.841 50.3987C41.4524 53.1065 41.4524 55.9249 40.841 58.6327C40.5076 60.1091 40.3281 61.678 40.3281 63.3045C40.3281 72.0328 45.4967 72.484 51.8724 72.484C58.2481 72.484 63.4167 72.0328 63.4167 63.3045C63.4167 61.678 63.2371 60.1091 62.9038 58.6327C62.2923 55.9249 62.2923 53.1065 62.9038 50.3987C63.2371 48.9222 63.4167 47.3533 63.4167 45.7269Z" fill="#C3EBF7"/>
<path d="M57.5155 34.6897H46.1121C45.314 34.6897 44.6611 34.0368 44.6611 33.2388V30.1943C44.6611 29.3962 45.314 28.7433 46.1121 28.7433H57.5155C58.3135 28.7433 58.9664 29.3962 58.9664 30.1943V33.2388C58.9664 34.0368 58.3135 34.6897 57.5155 34.6897Z" fill="#C7EDF9"/>
<path d="M59.0313 31.2817H44.688C44.5204 31.2817 44.3833 31.1446 44.3833 30.977V30.6127C44.3833 30.4452 44.5204 30.308 44.688 30.308H59.0313C59.1989 30.308 59.336 30.4452 59.336 30.6127V30.977C59.336 31.1446 59.1989 31.2817 59.0313 31.2817Z" fill="#9CCCDB"/>
<path d="M59.075 31.8381H44.5527C44.5109 31.8381 44.4766 31.8038 44.4766 31.762V31.6708C44.4766 31.629 44.5109 31.5946 44.5527 31.5946H59.075C59.1169 31.5946 59.1511 31.629 59.1511 31.6708V31.762C59.1511 31.8038 59.1169 31.8381 59.075 31.8381Z" fill="#9CCCDB"/>
<path d="M59.075 32.4598H44.5527C44.5109 32.4598 44.4766 32.4255 44.4766 32.3837V32.2925C44.4766 32.2507 44.5109 32.2163 44.5527 32.2163H59.075C59.1169 32.2163 59.1511 32.2507 59.1511 32.2925V32.3837C59.1511 32.4255 59.1169 32.4598 59.075 32.4598Z" fill="#9CCCDB"/>
<path d="M59.336 29.9231H44.3833V27.1401C44.3833 24.5687 46.4679 22.4841 49.0393 22.4841H54.68C57.2515 22.4841 59.336 24.5687 59.336 27.1401V29.9231Z" fill="#3C828A"/>
<path d="M46.2489 29.3171H46.1123C46.0495 29.3171 45.998 29.2656 45.998 29.2029V24.876C45.998 24.8131 46.0495 24.7617 46.1123 24.7617H46.2489C46.3118 24.7617 46.3632 24.8131 46.3632 24.876V29.2029C46.3632 29.2656 46.3118 29.3171 46.2489 29.3171Z" fill="#2F656B"/>
<path d="M47.5008 29.3171H47.3642C47.3014 29.3171 47.25 29.2656 47.25 29.2029V24.876C47.25 24.8131 47.3014 24.7617 47.3642 24.7617H47.5008C47.5637 24.7617 47.6151 24.8131 47.6151 24.876V29.2029C47.6151 29.2656 47.5637 29.3171 47.5008 29.3171Z" fill="#2F656B"/>
<path d="M48.7528 29.3171H48.6162C48.5534 29.3171 48.502 29.2656 48.502 29.2029V24.876C48.502 24.8131 48.5534 24.7617 48.6162 24.7617H48.7528C48.8157 24.7617 48.8671 24.8131 48.8671 24.876V29.2029C48.8671 29.2656 48.8157 29.3171 48.7528 29.3171Z" fill="#2F656B"/>
<path d="M50.0043 29.3171H49.8677C49.8049 29.3171 49.7534 29.2656 49.7534 29.2029V24.876C49.7534 24.8131 49.8049 24.7617 49.8677 24.7617H50.0043C50.0671 24.7617 50.1186 24.8131 50.1186 24.876V29.2029C50.1186 29.2656 50.0671 29.3171 50.0043 29.3171Z" fill="#2F656B"/>
<path d="M51.2563 29.3171H51.1197C51.0568 29.3171 51.0054 29.2656 51.0054 29.2029V24.876C51.0054 24.8131 51.0568 24.7617 51.1197 24.7617H51.2563C51.3191 24.7617 51.3705 24.8131 51.3705 24.876V29.2029C51.3705 29.2656 51.3191 29.3171 51.2563 29.3171Z" fill="#2F656B"/>
<path d="M52.5082 29.3171H52.3716C52.3087 29.3171 52.2573 29.2656 52.2573 29.2029V24.876C52.2573 24.8131 52.3087 24.7617 52.3716 24.7617H52.5082C52.5711 24.7617 52.6224 24.8131 52.6224 24.876V29.2029C52.6224 29.2656 52.5711 29.3171 52.5082 29.3171Z" fill="#2F656B"/>
<path d="M53.7602 29.3171H53.6235C53.5607 29.3171 53.5093 29.2656 53.5093 29.2029V24.876C53.5093 24.8131 53.5607 24.7617 53.6235 24.7617H53.7602C53.8229 24.7617 53.8744 24.8131 53.8744 24.876V29.2029C53.8744 29.2656 53.8229 29.3171 53.7602 29.3171Z" fill="#2F656B"/>
<path d="M55.0121 29.3171H54.8755C54.8127 29.3171 54.7612 29.2656 54.7612 29.2029V24.876C54.7612 24.8131 54.8127 24.7617 54.8755 24.7617H55.0121C55.075 24.7617 55.1264 24.8131 55.1264 24.876V29.2029C55.1264 29.2656 55.075 29.3171 55.0121 29.3171Z" fill="#2F656B"/>
<path d="M56.2636 29.3171H56.127C56.0641 29.3171 56.0127 29.2656 56.0127 29.2029V24.876C56.0127 24.8131 56.0641 24.7617 56.127 24.7617H56.2636C56.3265 24.7617 56.3778 24.8131 56.3778 24.876V29.2029C56.3778 29.2656 56.3265 29.3171 56.2636 29.3171Z" fill="#2F656B"/>
<path d="M57.5154 29.3171H57.3789C57.316 29.3171 57.2646 29.2656 57.2646 29.2029V24.876C57.2646 24.8131 57.316 24.7617 57.3789 24.7617H57.5154C57.5783 24.7617 57.6297 24.8131 57.6297 24.876V29.2029C57.6297 29.2656 57.5783 29.3171 57.5154 29.3171Z" fill="#2F656B"/>
<path d="M58.9047 33.4601H44.723C44.5875 33.4601 44.4766 33.3492 44.4766 33.2137V32.9191C44.4766 32.7836 44.5875 32.6727 44.723 32.6727H58.9047C59.0403 32.6727 59.1511 32.7836 59.1511 32.9191V33.2137C59.1511 33.3492 59.0403 33.4601 58.9047 33.4601Z" fill="#2F656B"/>
<path d="M62.3737 45.7269C62.3737 42.201 61.4892 38.9604 60.0162 36.419C57.8118 36.8302 55.3036 37.0632 52.6421 37.0632C49.4127 37.0632 46.4086 36.7203 43.8997 36.1317C42.3247 38.714 41.3716 42.0667 41.3716 45.7269C41.3716 47.2423 41.5356 48.7368 41.859 50.1689C42.501 53.0126 42.501 56.0187 41.859 58.8624C41.5356 60.2946 41.3716 61.789 41.3716 63.3044C41.3716 68.0655 43.0032 69.5563 44.2305 70.2635C46.1174 71.3508 48.9221 71.4409 51.8726 71.4409C54.8232 71.4409 57.628 71.3508 59.5148 70.2635C60.7422 69.5563 62.3737 68.0655 62.3737 63.3044C62.3737 61.7892 62.2098 60.2946 61.8863 58.8624C61.2443 56.0187 61.2443 53.0126 61.8863 50.1689C62.2098 48.7368 62.3737 47.2423 62.3737 45.7269Z" fill="#A4E5F9"/>
<path d="M40.3281 45.727C40.3281 47.3533 40.5076 48.9222 40.841 50.3987C40.9457 50.8624 41.0311 51.3293 41.1 51.7983H62.6448C62.7137 51.3293 62.7991 50.8624 62.9038 50.3987C63.2371 48.9222 63.4167 47.3533 63.4167 45.727C63.4167 44.7362 63.3494 43.767 63.222 42.8267H40.5228C40.3954 43.767 40.3281 44.7362 40.3281 45.727Z" fill="#F8B741"/>
<path d="M51.8723 71.4409C49.3295 71.4409 46.8952 71.3741 45.0631 70.6596C43.1426 69.4436 41.9648 67.2017 41.9648 63.0776C41.9648 61.4811 42.1414 59.9409 42.4692 58.4914C42.9662 56.2938 43.0523 54.0217 42.7275 51.7983H46.4716C46.7342 53.9007 46.631 56.0401 46.1621 58.1134C45.8343 59.5628 45.6578 61.103 45.6578 62.6996C45.6578 68.8778 48.2998 70.8314 52.1245 71.4407C52.0406 71.4408 51.9564 71.4409 51.8723 71.4409Z" fill="#B7EBFB"/>
<path d="M47.5959 36.7723C46.4645 36.6376 45.3899 36.4589 44.3877 36.2419C44.7318 35.6439 45.1074 35.0812 45.5111 34.5586C45.6944 34.6426 45.8979 34.6897 46.1119 34.6897H48.829C48.3759 35.333 47.963 36.0298 47.5959 36.7723Z" fill="#CCEFFA"/>
<path d="M48.8292 34.6897H46.1121C45.8981 34.6897 45.6945 34.6427 45.5112 34.5586C45.8118 34.1695 46.1276 33.8029 46.4579 33.4602H49.8016C49.4602 33.8441 49.1355 34.2547 48.8292 34.6897Z" fill="#CFF0FB"/>
<path d="M45.8186 42.8267H42.1763C42.5271 40.3761 43.3003 38.1321 44.3878 36.2419C45.39 36.4589 46.4647 36.6376 47.5961 36.7723C46.7122 38.5602 46.0939 40.6136 45.8186 42.8267Z" fill="#B7EBFB"/>
<path d="M46.4716 51.7983H42.7275C42.6594 51.3326 42.5733 50.8689 42.4692 50.4085C42.1414 48.9591 41.9648 47.4188 41.9648 45.8223C41.9648 44.7976 42.0376 43.7959 42.1763 42.8267H45.8187C45.7129 43.6776 45.6578 44.5521 45.6578 45.4443C45.6578 47.0409 45.8343 48.581 46.1621 50.0304C46.2944 50.6152 46.3976 51.2053 46.4716 51.7983Z" fill="#EFCC80"/>
</svg>
