<svg width="77" height="100" viewBox="0 0 77 100" fill="none" xmlns="http://www.w3.org/2000/svg">
<path d="M0 38.3333C0 17.1624 17.1624 0 38.3333 0C59.5043 0 76.6667 17.1624 76.6667 38.3333V83.3333C76.6667 92.5381 69.2048 100 60 100H16.6667C7.46191 100 0 92.5381 0 83.3333V38.3333Z" fill="#38DA8B"/>
<rect x="28" y="29" width="6" height="12.6667" rx="3" fill="black"/>
<rect x="41.333" y="29" width="6" height="12.6667" rx="3" fill="black"/>
<path d="M46 52H30C28.8954 52 27.9794 52.9009 28.1232 53.9961C28.7547 58.8031 31.8658 61.6667 38.6667 61.6667C43.1128 61.6667 47.0318 59.0309 47.8455 53.9938C48.0216 52.9033 47.1046 52 46 52Z" stroke="black" stroke-width="2" stroke-linecap="round"/>
</svg>
