<svg width="112" height="99" viewBox="0 0 112 99" fill="none" xmlns="http://www.w3.org/2000/svg">
<rect x="1.5" y="1.5" width="109" height="96" rx="14.5" fill="white" stroke="#ADC6F7" stroke-width="3"/>
<path d="M76.3412 31.1424C76.3412 31.1424 77.1562 29.7885 77.9026 30.385C78.65 30.981 79.0317 32.4627 79.0317 32.4627L77.0259 34.4775L75.5723 33.0989L76.3412 31.1424" fill="#77591D"/>
<path d="M34.3436 26.3325C33.8072 28.0934 35.1121 32.5517 35.3387 33.146C37.1957 38.0075 40.893 41.6076 45.1321 43.736C55.7919 49.0893 65.0881 45.7057 70.3654 42.7087C75.6427 39.7123 77.1012 36.1706 77.6876 34.6569C78.2745 33.1427 76.7807 31.9502 76.3416 31.1422C75.9026 30.3336 66.7841 35.3399 55.8972 35.5355C48.295 35.6721 42.1499 30.9913 36.2916 26.2223C35.999 25.9844 35.7063 25.7123 35.3505 25.6423C34.8111 25.536 34.4998 25.8202 34.3436 26.3325" fill="#F79C0F"/>
<path d="M78.2874 46.4751C78.2874 46.4751 79.5297 45.3085 80.1655 46.2052C80.8018 47.102 80.8057 48.8194 80.8057 48.8194L78.1088 50.2812L76.9297 48.3022L78.2874 46.4751" fill="#77591D"/>
<path d="M34.6603 26.7914C33.6051 28.4901 33.7823 33.7124 33.863 34.4268C34.5208 40.272 37.4933 45.4045 41.448 49.1495C51.3918 58.5678 62.264 58.1652 68.7301 56.7849C75.1968 55.4045 77.7253 52.1195 78.7668 50.7028C79.8084 49.2855 78.5363 47.4926 78.2872 46.4758C78.0385 45.459 66.9123 47.659 55.209 44.1002C47.0371 41.6155 41.7402 34.4791 36.7747 27.3478C36.5266 26.9919 36.2882 26.5992 35.9265 26.4015C35.3778 26.1013 34.9672 26.2974 34.6603 26.7914" fill="#FBC20B"/>
<path d="M33.971 28.8525C33.971 28.8525 34.5633 24.0219 34.2672 22.8558C33.971 21.6897 32.7871 21.3565 33.5271 20.0235C34.2672 18.6911 36.9317 18.5247 37.5235 19.8572C38.1157 21.1901 36.6356 22.3562 36.4873 23.1885C36.3395 24.0219 35.8956 30.0186 35.8956 30.0186L33.971 28.8525" fill="#77591D"/>
<path d="M75.861 61.0022C75.861 61.0022 77.4894 60.1694 77.9334 61.3349C78.3773 62.5015 77.9334 64.3341 77.9334 64.3341L74.6765 65L73.937 62.5015L75.861 61.0022" fill="#77591D"/>
<path d="M34.4961 25.5981C32.9284 27.06 31.7537 32.6854 31.6529 33.4731C30.8291 39.9215 32.6577 46.3742 35.8954 51.6742C44.0365 65.0005 55.7305 68.1655 62.9837 68.8321C70.2364 69.4984 73.7889 66.8331 75.269 65.667C76.7495 64.5004 75.8612 62.1688 75.8612 61.0027C75.8612 59.8367 63.4276 58.5043 51.8814 50.8413C43.8197 45.4907 40.0367 36.133 36.6046 26.8903C36.4338 26.4288 36.2816 25.9308 35.9478 25.6003C35.4412 25.0996 34.9523 25.1724 34.4961 25.5981Z" fill="#F9E105"/>
<path d="M62.1099 65.2251C57.9006 63.7527 53.8548 63.7649 49.7855 61.4074C45.9286 59.1738 42.593 56.0667 39.7498 52.3961C39.4669 52.0309 38.9324 52.5035 39.1566 52.9105C43.3923 60.6081 53.5308 68.9932 62.1099 66.5525C62.7129 66.3812 62.6694 65.4206 62.1099 65.2251" fill="#FBC20B"/>
<path d="M69.0226 65.3929C68.2909 65.2894 67.565 65.2872 66.8323 65.3841C66.4535 65.4343 66.1353 65.7108 66.1314 66.174C66.1275 66.5893 66.4554 66.9782 66.8323 66.9628C67.5024 66.9352 68.1558 66.9864 68.8121 67.1407C69.9252 67.4023 70.1733 65.5554 69.0226 65.3929Z" fill="#FBC20B"/>
<path d="M73.3355 51.6484C71.7467 51.4253 70.0532 52.3909 68.4615 52.6465C66.6603 52.9362 64.8077 53.0067 62.9904 53.0436C62.383 53.0552 62.3061 53.9783 62.8514 54.1959C64.8028 54.9764 66.6647 55.2149 68.7341 54.9119C70.387 54.6707 72.662 54.3347 73.7559 52.7897C74.0941 52.311 73.8641 51.7233 73.3355 51.6484Z" fill="#F79C0F"/>
<path d="M76.1085 50.3322C75.8785 50.2342 75.6739 50.254 75.4433 50.3388C74.8511 50.5542 75.1047 51.6101 75.7013 51.3925C75.972 51.2939 76.156 51.1667 76.3126 50.8973C76.4438 50.6726 76.3028 50.4148 76.1085 50.3322Z" fill="#F79C0F"/>
<path d="M60.4714 46.7358C59.4455 45.8061 57.8959 45.8358 56.6331 45.5125C55.0297 45.1016 53.4664 44.4703 51.8943 43.9339C51.3784 43.7576 51.1522 44.542 51.5477 44.8587C52.9911 46.0165 54.5006 46.7127 56.2073 47.2503C57.4647 47.6469 59.1827 48.2357 60.3838 47.4993C60.609 47.3616 60.6873 46.9319 60.4714 46.7358" fill="#F9E105"/>
<path d="M64.829 47.5934C64.4707 47.1489 63.7243 47.1946 63.228 47.1152C62.784 47.0447 62.5746 47.763 63.0361 47.8963C63.5696 48.0505 64.2397 48.4124 64.7668 48.1343C64.9548 48.0346 64.9504 47.7437 64.829 47.5934" fill="#F9E105"/>
<path d="M66.3906 35.6839C64.2982 35.533 62.1407 36.7525 59.9969 36.9039C57.788 37.0598 55.677 36.5002 53.4876 36.4622C53.0721 36.455 52.9326 37.0967 53.2791 37.3297C56.4527 39.4691 64.0211 39.8073 66.7087 36.5481C66.9833 36.2149 66.7802 35.712 66.3906 35.6839Z" fill="#FBC20B"/>
<path d="M69.4902 34.1784C69.0282 34.3855 68.6812 34.6917 68.1648 34.7171C67.5662 34.7468 67.3719 35.8044 68.0165 35.9498C68.7546 36.1167 69.5803 36.0677 70.1809 35.513C70.7158 35.02 70.1402 33.8875 69.4902 34.1784" fill="#FBC20B"/>
<path d="M72.1333 38.7743C70.9082 38.7313 69.8059 39.8318 68.7418 40.4333C67.4438 41.1665 66.1663 41.9437 64.8624 42.6641C64.4166 42.9103 64.7469 43.6071 65.1811 43.5151C66.6298 43.2078 67.9905 42.8283 69.3434 42.1673C70.4823 41.6104 72.0633 41.1037 72.6614 39.8098C72.8782 39.3427 72.61 38.7914 72.1333 38.7743Z" fill="#F37216"/>
<path d="M75.2433 36.2022C74.7103 36.2358 74.329 36.5426 73.8851 36.845C73.1274 37.3633 73.7926 38.6153 74.5752 38.1741C75.0446 37.9091 75.4518 37.7141 75.7626 37.2212C76.023 36.8081 75.6765 36.1757 75.2433 36.2022" fill="#F37216"/>
<path d="M58.7468 56.5877C57.1791 54.9969 54.817 54.4781 52.9962 53.252C50.8006 51.773 48.7909 49.8892 47.0264 47.8094C46.6691 47.3875 45.9746 47.9542 46.2917 48.4467C47.7821 50.7595 49.4668 52.7171 51.5568 54.3475C53.3868 55.7752 56.0773 57.8606 58.4027 57.5208C58.7806 57.4657 59.0939 56.9402 58.7468 56.5877" fill="#F6F12B"/>
<path d="M44.7208 45.4309C44.4648 45.0145 44.0972 44.7341 43.8344 44.3243C43.3905 43.6314 42.4668 44.2174 42.8095 44.998C43.088 45.6336 43.435 46.1734 44.0311 46.4405C44.5196 46.6598 45.0116 45.9035 44.7208 45.4309" fill="#F6F12B"/>
<path d="M36.0537 84.9375H38.9658C39.5713 84.9375 40.0908 84.8398 40.5244 84.6445C40.9619 84.4453 41.2979 84.166 41.5322 83.8066C41.7705 83.4434 41.8896 83.0156 41.8896 82.5234V82.5117C41.8896 82.1523 41.8057 81.8262 41.6377 81.5332C41.4736 81.2402 41.2451 81.002 40.9521 80.8184C40.6631 80.6348 40.3311 80.5293 39.9561 80.502V80.3965C40.2451 80.3535 40.5049 80.2461 40.7354 80.0742C40.9658 79.9023 41.1475 79.6875 41.2803 79.4297C41.417 79.1719 41.4854 78.8945 41.4854 78.5977V78.5859C41.4854 78.1523 41.3799 77.7793 41.1689 77.4668C40.9619 77.1504 40.6631 76.9082 40.2725 76.7402C39.8857 76.5684 39.417 76.4824 38.8662 76.4824H36.0537V77.7949H38.415C38.8369 77.7949 39.1631 77.8926 39.3936 78.0879C39.6279 78.2793 39.7451 78.5469 39.7451 78.8906V78.9023C39.7451 79.25 39.6182 79.5195 39.3643 79.7109C39.1104 79.9023 38.7451 79.998 38.2686 79.998H36.0537V81.1641H38.4736C38.8213 81.1641 39.1143 81.2109 39.3525 81.3047C39.5947 81.3945 39.7764 81.5293 39.8975 81.709C40.0225 81.8887 40.085 82.1094 40.085 82.3711V82.3828C40.085 82.7852 39.9502 83.0918 39.6807 83.3027C39.415 83.5137 39.0264 83.6191 38.5146 83.6191H36.0537V84.9375ZM35.1689 84.9375H36.9385V76.4824H35.1689V84.9375ZM45.0771 85.0371C45.3584 85.0371 45.6182 85 45.8564 84.9258C46.0986 84.8477 46.3096 84.7383 46.4893 84.5977C46.6729 84.4531 46.8193 84.2812 46.9287 84.082H47.0342V84.9375H48.7217V80.5312C48.7217 80.0742 48.6162 79.6836 48.4053 79.3594C48.1982 79.0312 47.8955 78.7812 47.4971 78.6094C47.0986 78.4336 46.6143 78.3457 46.0439 78.3457C45.5049 78.3457 45.0303 78.4238 44.6201 78.5801C44.2139 78.7363 43.8896 78.9551 43.6475 79.2363C43.4092 79.5176 43.2666 79.8477 43.2197 80.2266L43.2139 80.2793H44.7959L44.8076 80.2559C44.874 80.0645 45.0029 79.918 45.1943 79.8164C45.3896 79.7109 45.6416 79.6582 45.9502 79.6582C46.3018 79.6582 46.5693 79.7344 46.7529 79.8867C46.9404 80.0352 47.0342 80.25 47.0342 80.5312V82.5879C47.0342 82.8145 46.9736 83.0195 46.8525 83.2031C46.7314 83.3828 46.5674 83.5254 46.3604 83.6309C46.1533 83.7363 45.917 83.7891 45.6514 83.7891C45.3545 83.7891 45.1123 83.7188 44.9248 83.5781C44.7373 83.4375 44.6436 83.2441 44.6436 82.998V82.9863C44.6436 82.752 44.7334 82.5664 44.9131 82.4297C45.0928 82.293 45.3662 82.2148 45.7334 82.1953L47.8779 82.0547V81.0117L45.4756 81.1582C44.6748 81.2051 44.0576 81.3945 43.624 81.7266C43.1904 82.0547 42.9736 82.5098 42.9736 83.0918V83.1035C42.9736 83.4941 43.0635 83.8359 43.2432 84.1289C43.4229 84.418 43.6709 84.6426 43.9873 84.8027C44.3076 84.959 44.6709 85.0371 45.0771 85.0371ZM50.3975 84.9375H52.1084V81.2051C52.1084 80.9121 52.1592 80.6582 52.2607 80.4434C52.3662 80.2285 52.5127 80.0625 52.7002 79.9453C52.8916 79.8242 53.1182 79.7637 53.3799 79.7637C53.7861 79.7637 54.085 79.8809 54.2764 80.1152C54.4678 80.3496 54.5635 80.6953 54.5635 81.1523V84.9375H56.2744V80.7656C56.2744 79.9922 56.085 79.3965 55.7061 78.9785C55.3311 78.5566 54.7842 78.3457 54.0654 78.3457C53.6045 78.3457 53.2178 78.4473 52.9053 78.6504C52.5928 78.8535 52.3623 79.1309 52.2139 79.4824H52.1084V78.4863H50.3975V84.9375ZM59.6904 85.0371C59.9717 85.0371 60.2314 85 60.4697 84.9258C60.7119 84.8477 60.9229 84.7383 61.1025 84.5977C61.2861 84.4531 61.4326 84.2812 61.542 84.082H61.6475V84.9375H63.335V80.5312C63.335 80.0742 63.2295 79.6836 63.0186 79.3594C62.8115 79.0312 62.5088 78.7812 62.1104 78.6094C61.7119 78.4336 61.2275 78.3457 60.6572 78.3457C60.1182 78.3457 59.6436 78.4238 59.2334 78.5801C58.8271 78.7363 58.5029 78.9551 58.2607 79.2363C58.0225 79.5176 57.8799 79.8477 57.833 80.2266L57.8271 80.2793H59.4092L59.4209 80.2559C59.4873 80.0645 59.6162 79.918 59.8076 79.8164C60.0029 79.7109 60.2549 79.6582 60.5635 79.6582C60.915 79.6582 61.1826 79.7344 61.3662 79.8867C61.5537 80.0352 61.6475 80.25 61.6475 80.5312V82.5879C61.6475 82.8145 61.5869 83.0195 61.4658 83.2031C61.3447 83.3828 61.1807 83.5254 60.9736 83.6309C60.7666 83.7363 60.5303 83.7891 60.2646 83.7891C59.9678 83.7891 59.7256 83.7188 59.5381 83.5781C59.3506 83.4375 59.2568 83.2441 59.2568 82.998V82.9863C59.2568 82.752 59.3467 82.5664 59.5264 82.4297C59.7061 82.293 59.9795 82.2148 60.3467 82.1953L62.4912 82.0547V81.0117L60.0889 81.1582C59.2881 81.2051 58.6709 81.3945 58.2373 81.7266C57.8037 82.0547 57.5869 82.5098 57.5869 83.0918V83.1035C57.5869 83.4941 57.6768 83.8359 57.8564 84.1289C58.0361 84.418 58.2842 84.6426 58.6006 84.8027C58.9209 84.959 59.2842 85.0371 59.6904 85.0371ZM65.0107 84.9375H66.7217V81.2051C66.7217 80.9121 66.7725 80.6582 66.874 80.4434C66.9795 80.2285 67.126 80.0625 67.3135 79.9453C67.5049 79.8242 67.7314 79.7637 67.9932 79.7637C68.3994 79.7637 68.6982 79.8809 68.8896 80.1152C69.0811 80.3496 69.1768 80.6953 69.1768 81.1523V84.9375H70.8877V80.7656C70.8877 79.9922 70.6982 79.3965 70.3193 78.9785C69.9443 78.5566 69.3975 78.3457 68.6787 78.3457C68.2178 78.3457 67.8311 78.4473 67.5186 78.6504C67.2061 78.8535 66.9756 79.1309 66.8271 79.4824H66.7217V78.4863H65.0107V84.9375ZM74.3037 85.0371C74.585 85.0371 74.8447 85 75.083 84.9258C75.3252 84.8477 75.5361 84.7383 75.7158 84.5977C75.8994 84.4531 76.0459 84.2812 76.1553 84.082H76.2607V84.9375H77.9482V80.5312C77.9482 80.0742 77.8428 79.6836 77.6318 79.3594C77.4248 79.0312 77.1221 78.7812 76.7236 78.6094C76.3252 78.4336 75.8408 78.3457 75.2705 78.3457C74.7314 78.3457 74.2568 78.4238 73.8467 78.5801C73.4404 78.7363 73.1162 78.9551 72.874 79.2363C72.6357 79.5176 72.4932 79.8477 72.4463 80.2266L72.4404 80.2793H74.0225L74.0342 80.2559C74.1006 80.0645 74.2295 79.918 74.4209 79.8164C74.6162 79.7109 74.8682 79.6582 75.1768 79.6582C75.5283 79.6582 75.7959 79.7344 75.9795 79.8867C76.167 80.0352 76.2607 80.25 76.2607 80.5312V82.5879C76.2607 82.8145 76.2002 83.0195 76.0791 83.2031C75.958 83.3828 75.7939 83.5254 75.5869 83.6309C75.3799 83.7363 75.1436 83.7891 74.8779 83.7891C74.5811 83.7891 74.3389 83.7188 74.1514 83.5781C73.9639 83.4375 73.8701 83.2441 73.8701 82.998V82.9863C73.8701 82.752 73.96 82.5664 74.1396 82.4297C74.3193 82.293 74.5928 82.2148 74.96 82.1953L77.1045 82.0547V81.0117L74.7021 81.1582C73.9014 81.2051 73.2842 81.3945 72.8506 81.7266C72.417 82.0547 72.2002 82.5098 72.2002 83.0918V83.1035C72.2002 83.4941 72.29 83.8359 72.4697 84.1289C72.6494 84.418 72.8975 84.6426 73.2139 84.8027C73.5342 84.959 73.8975 85.0371 74.3037 85.0371Z" fill="black"/>
</svg>
