<svg width="112" height="99" viewBox="0 0 112 99" fill="none" xmlns="http://www.w3.org/2000/svg">
<rect x="1.5" y="1.5" width="109" height="96" rx="14.5" fill="white" stroke="#ADC6F7" stroke-width="3"/>
<path d="M47.7337 67.1602C47.7337 68.6935 46.4893 69.9379 44.9559 69.9379H42.1782C40.6448 69.9379 39.4004 68.6935 39.4004 67.1602V57.4379C39.4004 55.9046 40.6448 54.6602 42.1782 54.6602H44.9559C46.4893 54.6602 47.7337 55.9046 47.7337 57.4379V67.1602ZM75.5115 67.1602C75.5115 68.6935 74.2671 69.9379 72.7337 69.9379H69.9559C68.4226 69.9379 67.1782 68.6935 67.1782 67.1602V57.4379C67.1782 55.9046 68.4226 54.6602 69.9559 54.6602H72.7337C74.2671 54.6602 75.5115 55.9046 75.5115 57.4379V67.1602Z" fill="#292F33"/>
<path d="M36.6227 43.5486C36.6227 44.3167 36.0005 44.9375 35.2338 44.9375H33.8449C33.0783 44.9375 32.4561 44.3167 32.4561 43.5486V33.8264C32.4561 33.0597 33.0783 32.4375 33.8449 32.4375H35.2338C36.0005 32.4375 36.6227 33.0597 36.6227 33.8264V43.5486ZM82.4561 43.5486C82.4561 44.3167 81.8352 44.9375 81.0672 44.9375H79.6783C78.9102 44.9375 78.2894 44.3167 78.2894 43.5486V33.8264C78.2894 33.0597 78.9102 32.4375 79.6783 32.4375H81.0672C81.8352 32.4375 82.4561 33.0597 82.4561 33.8264V43.5486Z" fill="#99AAB5"/>
<path d="M81.0669 35.2151C81.0669 35.9817 80.4461 36.6039 79.6781 36.6039H35.2336C34.4669 36.6039 33.8447 35.9817 33.8447 35.2151C33.8447 34.4484 34.4669 33.8262 35.2336 33.8262H79.6781C80.4461 33.8262 81.0669 34.4484 81.0669 35.2151ZM81.0669 40.7706C81.0669 41.5387 80.4461 42.1595 79.6781 42.1595H35.2336C34.4669 42.1595 33.8447 41.5387 33.8447 40.7706C33.8447 40.0026 34.4669 39.3817 35.2336 39.3817H79.6781C80.4461 39.3817 81.0669 40.0026 81.0669 40.7706Z" fill="#99AAB5"/>
<path d="M65.7897 22.7153C65.7897 24.2486 64.5453 25.4931 63.0119 25.4931H51.9008C50.3675 25.4931 49.123 24.2486 49.123 22.7153C49.123 21.1819 50.3675 19.9375 51.9008 19.9375H63.0119C64.5453 19.9375 65.7897 21.1819 65.7897 22.7153Z" fill="#CCD6DD"/>
<path d="M71.3451 22.7148H43.5673C40.4992 22.7148 38.0117 25.2023 38.0117 28.2704V64.3815H76.9006V28.2704C76.9006 25.2023 74.4131 22.7148 71.3451 22.7148Z" fill="#CCD6DD"/>
<path d="M38.0117 42.1602H76.9006V64.3824H38.0117V42.1602Z" fill="#FFCC4D"/>
<path d="M78.2897 64.3824C78.2897 65.1504 77.6689 65.7713 76.9008 65.7713H38.0119C37.2453 65.7713 36.623 65.1504 36.623 64.3824V62.9935C36.623 62.2254 37.2453 61.6046 38.0119 61.6046H76.9008C77.6689 61.6046 78.2897 62.2254 78.2897 62.9935V64.3824ZM76.9008 43.549C76.9008 45.8504 75.0355 47.7157 72.7342 47.7157H42.1786C39.8772 47.7157 38.0119 45.8504 38.0119 43.549V33.8268C38.0119 31.5254 39.8772 29.6602 42.1786 29.6602H72.7342C75.0355 29.6602 76.9008 31.5254 76.9008 33.8268V43.549Z" fill="#66757F"/>
<path d="M74.1224 42.1597C74.1224 43.6931 72.8779 44.9375 71.3446 44.9375H43.5668C42.0335 44.9375 40.7891 43.6944 40.7891 42.1597V35.2153C40.7891 33.6819 42.0335 32.4375 43.5668 32.4375H71.3446C72.8779 32.4375 74.1224 33.6806 74.1224 35.2153V42.1597Z" fill="#88C9F9"/>
<path d="M38.0117 54.6602H76.9006V61.6046H38.0117V54.6602Z" fill="#FFAC33"/>
<path d="M40.7891 54.6602H49.1224V58.8268H40.7891V54.6602ZM65.7891 54.6602H74.1224V58.8268H65.7891V54.6602Z" fill="white"/>
<path d="M38.0117 54.6602H40.7895V58.8268H38.0117V54.6602ZM74.1228 54.6602H76.9006V58.8268H74.1228V54.6602Z" fill="#DD2E44"/>
<path d="M51.9004 54.6602H63.0115V58.8268H51.9004V54.6602Z" fill="#66757F"/>
<path d="M63.0115 24.7982C63.0115 25.9496 62.0782 26.8815 60.9282 26.8815H53.9837C52.8323 26.8815 51.9004 25.9496 51.9004 24.7982C51.9004 23.6468 52.8323 22.7148 53.9837 22.7148H60.9282C62.0782 22.7148 63.0115 23.6468 63.0115 24.7982Z" fill="#292F33"/>
<path d="M47.04 84.9375H49.9521C50.5576 84.9375 51.0771 84.8398 51.5107 84.6445C51.9482 84.4453 52.2842 84.166 52.5186 83.8066C52.7568 83.4434 52.876 83.0156 52.876 82.5234V82.5117C52.876 82.1523 52.792 81.8262 52.624 81.5332C52.46 81.2402 52.2314 81.002 51.9385 80.8184C51.6494 80.6348 51.3174 80.5293 50.9424 80.502V80.3965C51.2314 80.3535 51.4912 80.2461 51.7217 80.0742C51.9521 79.9023 52.1338 79.6875 52.2666 79.4297C52.4033 79.1719 52.4717 78.8945 52.4717 78.5977V78.5859C52.4717 78.1523 52.3662 77.7793 52.1553 77.4668C51.9482 77.1504 51.6494 76.9082 51.2588 76.7402C50.8721 76.5684 50.4033 76.4824 49.8525 76.4824H47.04V77.7949H49.4014C49.8232 77.7949 50.1494 77.8926 50.3799 78.0879C50.6143 78.2793 50.7314 78.5469 50.7314 78.8906V78.9023C50.7314 79.25 50.6045 79.5195 50.3506 79.7109C50.0967 79.9023 49.7314 79.998 49.2549 79.998H47.04V81.1641H49.46C49.8076 81.1641 50.1006 81.2109 50.3389 81.3047C50.5811 81.3945 50.7627 81.5293 50.8838 81.709C51.0088 81.8887 51.0713 82.1094 51.0713 82.3711V82.3828C51.0713 82.7852 50.9365 83.0918 50.667 83.3027C50.4014 83.5137 50.0127 83.6191 49.501 83.6191H47.04V84.9375ZM46.1553 84.9375H47.9248V76.4824H46.1553V84.9375ZM56.4385 85.0723C56.8994 85.0723 57.29 84.9727 57.6104 84.7734C57.9307 84.5703 58.1631 84.293 58.3076 83.9414H58.4131V84.9375H60.124V78.4863H58.4131V82.2129C58.4131 82.502 58.3623 82.7559 58.2607 82.9746C58.1631 83.1895 58.0166 83.3574 57.8213 83.4785C57.6299 83.5957 57.3936 83.6543 57.1123 83.6543C56.7061 83.6543 56.4111 83.5371 56.2275 83.3027C56.0479 83.0684 55.958 82.7227 55.958 82.2656V78.4863H54.2471V82.6582C54.2471 83.1699 54.3291 83.6074 54.4932 83.9707C54.6572 84.3301 54.9014 84.6035 55.2256 84.791C55.5537 84.9785 55.958 85.0723 56.4385 85.0723ZM64.4072 85.0723C64.958 85.0723 65.4463 84.9863 65.8721 84.8145C66.2979 84.6387 66.6318 84.3926 66.874 84.0762C67.1162 83.7598 67.2373 83.3887 67.2373 82.9629V82.957C67.2373 82.4805 67.083 82.1016 66.7744 81.8203C66.4658 81.5391 65.9893 81.3281 65.3447 81.1875L64.2725 80.959C63.9404 80.8887 63.7061 80.7988 63.5693 80.6895C63.4326 80.5801 63.3643 80.4395 63.3643 80.2676V80.2617C63.3643 80.1172 63.4072 79.9922 63.4932 79.8867C63.583 79.7812 63.7041 79.6992 63.8564 79.6406C64.0088 79.582 64.1826 79.5527 64.3779 79.5527C64.6982 79.5527 64.9521 79.6211 65.1396 79.7578C65.3271 79.8906 65.4443 80.0449 65.4912 80.2207L65.4971 80.25H67.085V80.2266C67.0615 79.8789 66.9424 79.5645 66.7275 79.2832C66.5166 78.998 66.2139 78.7715 65.8193 78.6035C65.4248 78.4316 64.9463 78.3457 64.3838 78.3457C63.8486 78.3457 63.3779 78.4297 62.9717 78.5977C62.5693 78.7656 62.2549 79.002 62.0283 79.3066C61.8057 79.6074 61.6943 79.9609 61.6943 80.3672V80.373C61.6943 80.8535 61.8467 81.2461 62.1514 81.5508C62.46 81.8555 62.9209 82.0742 63.5342 82.207L64.6123 82.4355C64.9404 82.5098 65.1748 82.6035 65.3154 82.7168C65.4561 82.8301 65.5264 82.9727 65.5264 83.1445V83.1562C65.5264 83.2969 65.4795 83.4199 65.3857 83.5254C65.292 83.6309 65.1631 83.7148 64.999 83.7773C64.835 83.8359 64.6436 83.8652 64.4248 83.8652C64.0889 83.8652 63.8213 83.8008 63.6221 83.6719C63.4268 83.543 63.2939 83.3789 63.2236 83.1797L63.2119 83.1562H61.5303L61.5361 83.1797C61.5752 83.5469 61.71 83.873 61.9404 84.1582C62.1748 84.4434 62.4971 84.668 62.9072 84.832C63.3213 84.9922 63.8213 85.0723 64.4072 85.0723Z" fill="black"/>
</svg>
