<svg width="107" height="95" viewBox="0 0 107 95" fill="none" xmlns="http://www.w3.org/2000/svg">
<rect x="1.82812" y="1.98389" width="103.343" height="91" rx="14.5" fill="white" stroke="#ADC6F7" stroke-width="3"/>
<path d="M45.8281 51.2617C44.3003 51.2617 43.0503 52.5117 43.0503 54.0395V67.9284C43.0503 69.4562 44.3003 70.7062 45.8281 70.7062C47.3558 70.7062 48.6058 69.4562 48.6058 67.9284V54.0395C48.6058 52.5117 47.3558 51.2617 45.8281 51.2617ZM70.8281 51.2617C69.3003 51.2617 68.0503 52.5117 68.0503 54.0395V67.9284C68.0503 69.4562 69.3003 70.7062 70.8281 70.7062C72.3558 70.7062 73.6058 69.4562 73.6058 67.9284V54.0395C73.6058 52.5117 72.3558 51.2617 70.8281 51.2617Z" fill="#A4523A"/>
<path d="M47.2168 26.2617H69.439V37.3728H47.2168V26.2617Z" fill="#C1694F"/>
<path d="M51.3837 35.9839H54.1615V54.0394H51.3837V35.9839ZM56.9393 35.9839H59.7171V54.0394H56.9393V35.9839ZM62.4948 35.9839H65.2726V54.0394H62.4948V35.9839ZM38.8837 55.4283C37.356 55.4283 36.106 56.6783 36.106 58.2061V70.7061C36.106 72.2339 37.356 73.4839 38.8837 73.4839C40.4115 73.4839 41.6615 72.2339 41.6615 70.7061V58.2061C41.6615 56.6783 40.4115 55.4283 38.8837 55.4283Z" fill="#C1694F"/>
<path d="M63.8836 52.6506C62.3558 52.6506 61.1058 53.9006 61.1058 55.4283V70.7061C61.1058 72.2339 62.3558 73.4839 63.8836 73.4839C65.4114 73.4839 66.6614 72.2339 66.6614 70.7061V55.4283C66.6614 53.9006 65.4114 52.6506 63.8836 52.6506ZM45.8281 23.4839C44.3003 23.4839 43.0503 24.7339 43.0503 26.2617V54.0394H48.6058V26.2617C48.6058 24.7339 47.3558 23.4839 45.8281 23.4839ZM70.8281 23.4839C69.3003 23.4839 68.0503 24.7339 68.0503 26.2617V54.0394H73.6058V26.2617C73.6058 24.7339 72.3558 23.4839 70.8281 23.4839Z" fill="#C1694F"/>
<path d="M48.606 26.2617H49.9948V37.3728H48.606V26.2617ZM68.0504 37.3728H66.6615V26.2617H68.0504V37.3728Z" fill="#A4523A"/>
<path d="M71.8963 51.2617H43.5241C43.2144 51.2617 42.9102 51.3464 42.6449 51.5048L34.3755 55.7284C34.3755 55.7284 65.9394 59.0867 68.7172 59.0867L72.9241 55.9409C73.3533 55.6187 73.606 55.1117 73.606 54.5728V52.9714C73.606 52.027 72.8408 51.2617 71.8963 51.2617Z" fill="#D99E82"/>
<path d="M51.3837 37.3726H54.1615V38.7614H51.3837V37.3726ZM36.106 59.5948H41.6615V60.9837H36.106V59.5948ZM61.106 59.5948H66.6615V60.9837H61.106V59.5948ZM56.9393 37.3726H59.7171V38.7614H56.9393V37.3726ZM62.4948 37.3726H65.2726V38.7614H62.4948V37.3726Z" fill="#A4523A"/>
<path d="M67.2726 59.5949H35.4948C34.2976 59.5949 33.3281 58.6616 33.3281 57.5116C33.3281 56.3616 34.2976 55.4282 35.4948 55.4282H67.2726C68.4698 55.4282 69.4392 56.3616 69.4392 57.5116C69.4392 58.6616 68.4698 59.5949 67.2726 59.5949Z" fill="#C1694F"/>
</svg>
