<svg width="112" height="99" viewBox="0 0 112 99" fill="none" xmlns="http://www.w3.org/2000/svg">
<rect x="1.5" y="1.5" width="109" height="96" rx="14.5" fill="white" stroke="#ADC6F7" stroke-width="3"/>
<path d="M40.7498 48.4201C40.508 49.8243 40.3519 51.2645 40.5383 52.6788C40.5749 52.9568 40.6346 53.2509 40.8258 53.4409C41.017 53.6289 41.3795 53.6289 41.4914 53.3769C41.3353 53.5849 41.4111 53.943 41.6352 54.057C41.8593 54.171 42.1625 54.005 42.2103 53.7409C42.0423 54.021 42.4019 54.383 42.7018 54.311C43.0018 54.239 43.1963 53.935 43.3605 53.6529C45.5678 49.8703 47.8199 45.9677 48.5602 41.5671C48.7713 40.3109 48.8325 38.9307 48.419 37.7125C48.0636 36.6663 47.1743 35.2761 46.2505 36.3423C44.3988 38.4766 42.9439 40.915 41.9755 43.6554C41.4307 45.1976 41.029 46.7979 40.7498 48.4201Z" fill="#917163"/>
<path d="M66.3652 34.8179C67.6151 33.8558 68.5386 32.4295 69.0164 30.8513C69.1448 30.4272 69.2659 29.9571 69.607 29.7051C69.9483 29.4551 70.563 29.6731 70.5153 30.1152C70.6098 29.7931 70.8369 29.4731 71.1484 29.4551C71.4599 29.4371 71.7295 29.9072 71.4961 30.1312C71.7757 29.8431 72.2772 30.0172 72.4856 30.3692C72.6938 30.7193 72.6875 31.1673 72.6561 31.5854C72.4185 34.7079 71.141 37.6543 69.4443 40.1927C68.4682 41.6549 67.328 43.0231 65.9071 43.9653C64.4863 44.9074 62.7536 45.3915 61.125 45.0095C60.3777 44.8334 59.6367 44.4534 59.1926 43.7793C58.5749 42.8431 58.6598 41.5729 58.8682 40.4448C59.0296 39.5686 59.2584 38.6865 59.7408 37.9624C60.3943 36.9822 61.5356 36.0681 62.6696 36.0641C64.0091 36.0621 65.2629 35.666 66.3652 34.8179Z" fill="#917163"/>
<path d="M63.1465 36.7863L61.9952 35.7902C62.2686 35.6282 61.9895 35.1861 61.714 35.0281C60.152 34.13 58.3646 33.7039 56.5982 33.7839C55.9145 33.5298 55.2059 33.3558 54.4871 33.2678C52.1491 32.9858 49.7244 33.6379 47.7804 35.0721C47.5227 35.2621 47.2898 35.7322 47.5782 35.8622L46.5349 36.9884C42.7317 48.4221 45.1415 60.612 48.3511 65.1547C48.9964 66.0688 49.3047 67.291 50.2079 67.8951C51.0086 68.4332 51.9962 68.4932 52.9373 68.5392C53.1251 68.5492 53.3264 68.5552 53.4856 68.4452C53.7544 68.2612 53.7773 67.8371 53.669 67.513C53.5607 67.189 53.3566 66.911 53.2617 66.5829C53.1123 66.0648 53.2519 65.5087 53.3815 64.9866C53.5592 64.2705 53.7174 63.5384 53.8383 62.8023C54.9045 62.7963 55.9822 62.6303 57.0225 62.3863C57.4198 62.2922 57.8156 62.1882 58.2081 62.0702C58.4381 63.2144 58.7863 64.3425 59.1776 65.4287C59.3594 65.9328 59.5544 66.4689 59.4583 66.9989C59.3973 67.337 59.2226 67.6391 59.1479 67.9731C59.073 68.3072 59.1388 68.7272 59.4247 68.8792C59.5938 68.9672 59.7933 68.9373 59.9791 68.9072C60.9098 68.7492 61.8852 68.5712 62.6268 67.9431C63.4631 67.235 63.8486 66.0848 64.1947 64.9986C65.3718 61.3001 67.4223 44.6255 63.1465 36.7863Z" fill="#917163"/>
<path d="M43.0602 24.183C42.4266 23.5309 42.1637 22.4208 42.5973 21.5987C42.7689 21.2746 43.0312 21.0166 43.3094 20.7925C43.8892 20.3284 44.572 19.9884 45.2913 19.9304C46.0111 19.8704 46.7674 20.1144 47.2747 20.6685C47.782 21.2246 47.9954 22.1047 47.7188 22.8269C47.5197 23.3449 47.1083 23.729 46.7112 24.091C46.0543 24.6891 45.7822 25.0892 44.9297 25.0232C44.2512 24.9712 43.5581 24.6911 43.0602 24.183Z" fill="#917163"/>
<path d="M46.1188 24.168C45.7202 24.148 45.3122 24.078 44.9702 23.8559C44.6282 23.6339 44.3632 23.2318 44.3749 22.8017C44.3948 22.0696 45.1595 21.6156 45.8356 21.5916C46.2969 21.5776 46.7903 21.7076 47.0976 22.0816C47.405 22.4537 47.4398 23.1038 47.0854 23.4238C46.7032 23.7679 46.0822 23.6099 45.6914 23.9419L46.1188 24.168Z" fill="#BC9182"/>
<path d="M65.9764 23.7445C66.7256 23.2584 67.2059 22.2363 66.948 21.3321C66.8457 20.9741 66.6418 20.66 66.4152 20.378C65.9428 19.7879 65.3445 19.2958 64.6542 19.0678C63.9638 18.8417 63.1768 18.8997 62.5699 19.3238C61.9629 19.7459 61.5772 20.554 61.7022 21.3241C61.7921 21.8782 62.1167 22.3483 62.4314 22.7943C62.952 23.5324 63.1372 23.9885 63.9823 24.1245C64.6549 24.2345 65.3878 24.1245 65.9764 23.7445Z" fill="#917163"/>
<path d="M62.9943 23.0122C63.3873 23.0842 63.7998 23.1123 64.1784 22.9762C64.557 22.8402 64.8959 22.5122 64.9713 22.0881C65.0991 21.37 64.4444 20.7439 63.789 20.5638C63.342 20.4398 62.8338 20.4518 62.4588 20.7439C62.0841 21.0359 61.9192 21.662 62.2009 22.0561C62.5045 22.4822 63.1425 22.4741 63.457 22.8902L62.9943 23.0122Z" fill="#BC9182"/>
<path d="M45.87 39.0443C45.9908 40.7826 46.8782 42.4069 48.0592 43.7131C49.24 45.0193 50.7059 46.0454 52.1812 47.0256C53.827 48.1197 55.6472 49.3719 56.0228 51.2822C56.2349 50.1521 56.9968 49.2039 57.7626 48.3318C59.4917 46.3635 61.3977 44.4832 62.5587 42.1508C63.7197 39.8185 63.997 36.858 62.4648 34.7397C60.9539 32.6514 58.1399 31.9153 55.5316 31.6872C53.9779 31.5532 52.3841 31.5472 50.8912 31.9893C47.9743 32.8534 45.6613 36.0339 45.87 39.0443Z" fill="#BC9182"/>
<path d="M47.4419 21.1439C45.5138 22.6741 44.5841 25.3685 44.5904 27.9569C44.5968 30.5513 45.4602 33.1257 46.9607 35.148C48.461 37.1723 50.5836 38.6366 52.9016 39.2987C54.6772 39.8047 56.5905 39.8447 58.3341 39.2206C61.927 37.9345 64.2807 33.9938 64.9383 29.9612C65.2319 28.161 65.2406 26.2767 64.7289 24.5344C64.2173 22.7921 63.1478 21.2019 61.6528 20.3518C60.3354 19.5996 58.8029 19.4616 57.3184 19.3396C54.276 19.0876 50.0167 19.0996 47.4419 21.1439Z" fill="#917163"/>
<path d="M53.3103 26.3284C52.7333 27.3445 52.2402 28.4167 51.8388 29.5289C51.2844 31.0631 50.9451 32.9334 51.8534 34.2556C52.6597 35.4297 54.1757 35.7318 55.5237 35.6258C56.1667 35.5758 56.8394 35.4377 57.3297 34.9857C57.9215 34.4376 58.1271 33.5435 58.1682 32.7033C58.2769 30.475 57.456 28.2846 56.2513 26.4744C55.3162 25.0702 54.2306 24.7061 53.3103 26.3284Z" fill="#BC9182"/>
<path d="M53.491 29.927C53.116 30.0271 52.7045 30.2831 52.6803 30.6992C52.6609 31.0332 52.9084 31.3192 53.1757 31.4893C53.4433 31.6593 53.7491 31.7613 53.989 31.9733C54.1379 32.1054 54.256 32.2754 54.4109 32.3974C54.566 32.5214 54.7814 32.5914 54.9502 32.4914C55.0334 32.4414 55.0937 32.3574 55.1638 32.2894C55.5825 31.8773 56.3311 31.9833 56.6611 31.4853C56.8643 31.1792 56.8131 30.7291 56.599 30.4331C56.3849 30.1351 56.0401 29.975 55.6949 29.923C55.3396 29.869 54.9877 29.949 54.6387 29.885C54.2499 29.815 53.879 29.823 53.491 29.927Z" fill="#493832"/>
<path d="M48.3931 26.4209C48.3483 25.8948 48.4831 25.3307 48.8384 24.9687C49.1939 24.6066 49.7893 24.5086 50.1793 24.8267C50.4232 25.0247 50.5559 25.3427 50.6606 25.6528C50.7913 26.0388 50.8952 26.4429 50.8974 26.8549C50.9009 27.497 50.4389 28.6632 49.6854 28.2412C49.0089 27.8651 48.4653 27.269 48.3931 26.4209Z" fill="#7C5F56"/>
<path d="M59.6898 25.4323C59.8595 24.9362 60.2067 24.4902 60.6718 24.3302C61.1368 24.1721 61.7127 24.3622 61.9377 24.8302C62.0782 25.1223 62.071 25.4723 62.0414 25.8004C62.0046 26.2104 61.9368 26.6225 61.7741 26.9945C61.5206 27.5746 60.6378 28.4108 60.1264 27.6787C59.6676 27.0226 59.4156 26.2304 59.6898 25.4323Z" fill="#7C5F56"/>
<path d="M49.1144 27.2888C49.1963 27.6688 49.4656 27.9869 49.794 28.1489C49.9362 28.2189 50.0975 28.2629 50.249 28.2209C50.4215 28.1729 50.5537 28.0189 50.6393 27.8489C50.808 27.5148 50.8239 27.0927 50.6648 26.7527C50.5006 26.4026 50.0171 26.0426 49.6359 26.1346C49.205 26.2406 49.0271 26.8827 49.1144 27.2888Z" fill="#493832"/>
<path d="M49.8007 26.4704C49.6517 26.5265 49.5287 26.6585 49.4757 26.8185C49.4224 26.9805 49.44 27.1665 49.5221 27.3126C49.5543 27.3686 49.5977 27.4226 49.655 27.4466C49.7125 27.4706 49.7855 27.4606 49.8245 27.4086C49.8957 27.3146 49.8205 27.1626 49.8758 27.0566C49.905 27.0005 49.9636 26.9725 50.0067 26.9285C50.0813 26.8505 50.1035 26.7205 50.059 26.6205C50.0146 26.5205 49.9068 26.4564 49.8048 26.4724L49.8007 26.4704Z" fill="white"/>
<path d="M59.802 26.3751C59.7075 26.7531 59.8057 27.1712 60.0237 27.4813C60.1182 27.6173 60.2411 27.7393 60.3929 27.7793C60.5661 27.8253 60.7499 27.7573 60.8993 27.6513C61.1942 27.4433 61.3935 27.0792 61.4018 26.6992C61.4105 26.3071 61.1428 25.741 60.7663 25.627C60.3408 25.499 59.903 25.973 59.802 26.3751Z" fill="#493832"/>
<path d="M60.7648 26.0065C60.6089 25.9805 60.4429 26.0325 60.3257 26.1465C60.2085 26.2625 60.1423 26.4345 60.1506 26.6046C60.1539 26.6726 60.1691 26.7406 60.209 26.7926C60.249 26.8426 60.3177 26.8706 60.3749 26.8446C60.4784 26.7986 60.4791 26.6266 60.574 26.5626C60.6243 26.5266 60.6884 26.5326 60.7457 26.5145C60.845 26.4865 60.9215 26.3825 60.9265 26.2725C60.9313 26.1605 60.8641 26.0505 60.7675 26.0105L60.7648 26.0065Z" fill="white"/>
<path d="M54.6248 31.8994C54.6131 32.4954 54.6394 33.0895 54.7037 33.6796C54.7135 33.7696 54.768 33.8477 54.859 33.8477C54.9355 33.8477 55.0243 33.7716 55.0145 33.6796C54.9503 33.0895 54.9239 32.4954 54.9355 31.8994C54.9396 31.6833 54.6288 31.6833 54.6248 31.8994Z" fill="#493832"/>
<path d="M53.3612 33.4781C54.4817 34.1742 55.8857 34.0042 56.8401 33.066C56.9881 32.92 56.768 32.682 56.6202 32.828C55.7692 33.6662 54.5145 33.8062 53.518 33.1881C53.3444 33.0801 53.1876 33.3701 53.3612 33.4781Z" fill="#493832"/>
<path d="M42.9434 53.6753C44.3798 50.6368 44.6495 47.1043 45.858 43.9518C45.2261 46.7602 45.111 49.6687 45.013 52.5571C44.968 53.8813 44.9281 55.2255 45.2219 56.5117C44.7904 54.9575 44.5809 53.3292 44.6033 51.707C44.3139 52.5011 43.8338 53.1952 43.357 53.8753C43.2171 54.0753 43.068 54.2834 42.8567 54.3854C42.6763 54.4734 42.4243 54.4634 42.2993 54.2874C42.5635 54.0913 42.7796 54.0213 42.9434 53.6753Z" fill="#7C5F56"/>
<path d="M63.6665 42.7791C65.4073 42.5931 67.0239 41.6589 68.3563 40.4328C69.977 38.9405 71.2379 36.9962 71.9824 34.8379C70.962 38.6065 68.7352 41.977 65.7715 44.2394C65.6932 44.2994 65.6111 44.3633 65.5711 44.4574C65.5364 44.5394 65.5388 44.6334 65.5419 44.7234C65.619 46.9978 65.9758 52.4426 65.5621 54.877C65.5763 53.3067 65.6124 51.8085 65.4356 50.2503C65.2498 48.608 65.0061 46.9657 64.5772 45.3755C64.3374 44.4854 64.0396 43.6133 63.6665 42.7791Z" fill="#7C5F56"/>
<path d="M70.1224 31.3954C69.8976 31.6594 69.8161 32.0394 69.8551 32.3955C69.8704 32.5375 69.905 32.6795 69.9817 32.7956C70.1575 33.0596 70.5243 33.1096 70.797 32.9736C71.0696 32.8356 71.2572 32.5515 71.3774 32.2535C71.4685 32.0275 71.5282 31.7714 71.4667 31.5334C71.3064 30.9153 70.4467 31.0153 70.1224 31.3954Z" fill="#BC9182"/>
<path d="M69.7032 30.3673C69.6847 30.4673 69.6842 30.5713 69.7019 30.6733C69.713 30.7353 69.7337 30.8013 69.7805 30.8413C69.8295 30.8833 69.9007 30.8893 69.9587 30.8633C70.0168 30.8373 70.0624 30.7853 70.0929 30.7273C70.1734 30.5713 70.1467 30.3612 70.0328 30.2332C69.8888 30.0712 69.7411 30.1632 69.7032 30.3673Z" fill="#BC9182"/>
<path d="M70.7925 30.4235C70.792 30.4976 70.8006 30.5796 70.8478 30.6336C70.8912 30.6836 70.9611 30.6996 71.0231 30.6856C71.085 30.6716 71.139 30.6296 71.1802 30.5776C71.3035 30.4216 71.3318 30.0935 71.1497 29.9695C70.9158 29.8075 70.7936 30.2495 70.7925 30.4235Z" fill="#BC9182"/>
<path d="M71.7772 30.553C71.7129 30.657 71.655 30.7751 71.6589 30.9011C71.6628 31.0271 71.7502 31.1571 71.8665 31.1591C71.9473 31.1611 72.0186 31.1031 72.073 31.0371C72.1375 30.9611 72.1889 30.8671 72.2085 30.7671C72.2758 30.417 71.9648 30.247 71.7772 30.553Z" fill="#BC9182"/>
<path d="M52.9414 61.5082C55.2254 61.7302 57.5538 61.4102 59.7132 60.5741C58.9359 62.2023 59.1393 64.1506 59.3623 65.9649C59.0574 64.7507 58.6586 63.5625 58.1714 62.4203C56.984 62.8224 55.7077 62.7484 54.4785 62.9584C54.3855 62.9724 54.2894 62.9924 54.2128 63.0504C54.1217 63.1224 54.0723 63.2385 54.0281 63.3485C53.6243 64.3646 53.4398 65.4128 53.154 66.4609C53.1433 65.8909 53.2457 65.3128 53.2725 64.7447C53.3237 63.6545 53.2135 62.5583 52.9414 61.5082Z" fill="#7C5F56"/>
<path d="M46.5936 37.9669C46.5187 38.511 46.6246 39.0691 46.913 39.5251C46.9605 39.5992 47.0495 39.6332 47.1256 39.5852C47.194 39.5411 47.229 39.4291 47.1815 39.3551C46.9432 38.9791 46.8306 38.511 46.8932 38.0569C46.9056 37.9669 46.8723 37.8769 46.7847 37.8509C46.7113 37.8289 46.6059 37.8769 46.5936 37.9669Z" fill="#C99A8D"/>
<path d="M47.5446 38.0046C47.6417 38.3327 47.7981 38.6347 48.005 38.8968C48.0578 38.9648 48.1712 38.9608 48.2248 38.8968C48.2854 38.8248 48.2812 38.7308 48.2248 38.6588L48.1913 38.6167L48.175 38.5947H48.1754C48.1542 38.5647 48.1336 38.5347 48.114 38.5047C48.0732 38.4407 48.0355 38.3747 48.0007 38.3067C47.9669 38.2407 47.9377 38.1727 47.9085 38.1047C47.8987 38.0827 47.9177 38.1287 47.9088 38.1066L47.899 38.0807L47.8802 38.0266C47.8674 37.9906 47.8556 37.9526 47.8443 37.9146C47.8197 37.8306 47.7352 37.7686 47.6531 37.7966C47.5757 37.8246 47.5182 37.9146 47.5446 38.0046Z" fill="#C99A8D"/>
<path d="M47.9228 40.1348C48.1457 40.4648 48.3685 40.7929 48.5915 41.121C48.6394 41.191 48.7285 41.235 48.8041 41.181C48.8688 41.137 48.9113 41.0269 48.8597 40.9509C48.637 40.6229 48.414 40.2948 48.1912 39.9668C48.1431 39.8947 48.0542 39.8527 47.9786 39.9048C47.9139 39.9508 47.8714 40.0608 47.9228 40.1348Z" fill="#C99A8D"/>
<path d="M47.9888 41.7208C48.3658 42.2509 48.8021 42.7209 49.2956 43.125C49.3625 43.181 49.4693 43.137 49.5082 43.065C49.5548 42.979 49.5196 42.8889 49.4525 42.8349C49.0047 42.4689 48.5991 42.0328 48.2571 41.5508C48.2062 41.4787 48.1234 41.4407 48.0447 41.4907C47.9792 41.5308 47.9374 41.6468 47.9888 41.7208Z" fill="#C99A8D"/>
<path d="M50.8094 44.3376L50.8297 44.3397C50.8051 44.3377 50.8016 44.3357 50.8186 44.3397L50.8589 44.3476C50.8856 44.3516 50.9122 44.3597 50.9384 44.3657C50.9647 44.3737 50.9908 44.3837 51.0164 44.3917L51.0547 44.4077L51.0738 44.4157C51.0538 44.4077 51.0494 44.4057 51.0601 44.4097C51.1081 44.4337 51.1551 44.4597 51.2002 44.4897C51.2233 44.5057 51.2459 44.5217 51.2681 44.5377L51.2845 44.5517C51.2666 44.5357 51.2642 44.5337 51.2773 44.5457L51.3087 44.5737C51.3707 44.6297 51.4687 44.6437 51.5284 44.5737C51.5816 44.5117 51.5946 44.3957 51.5284 44.3356C51.3224 44.1456 51.0778 44.0336 50.8094 44.0016C50.7724 43.9976 50.7247 44.0236 50.6994 44.0516C50.6726 44.0796 50.6522 44.1276 50.6539 44.1696C50.6582 44.2697 50.7225 44.3276 50.8094 44.3376Z" fill="#C99A8D"/>
<path d="M50.3205 41.7391C50.4906 41.8491 50.6609 41.9571 50.831 42.0671C50.9009 42.1111 51.0046 42.0871 51.0436 42.0071C51.0831 41.9251 51.0624 41.825 50.9877 41.777C50.8177 41.667 50.6476 41.557 50.4773 41.449C50.4074 41.403 50.3039 41.429 50.2649 41.509C50.2253 41.589 50.2458 41.6911 50.3205 41.7391Z" fill="#C99A8D"/>
<path d="M50.1715 39.7484C50.2876 39.8064 50.3946 39.8784 50.4976 39.9584L50.4902 39.9524L50.51 39.9704L50.545 40.0024C50.5695 40.0244 50.5932 40.0464 50.6165 40.0704C50.6629 40.1184 50.7065 40.1704 50.748 40.2244C50.8003 40.2905 50.9143 40.2865 50.9676 40.2244C51.0286 40.1524 51.0234 40.0584 50.9676 39.9864C50.7949 39.7624 50.5731 39.5804 50.3285 39.4583C50.2895 39.4403 50.2517 39.4283 50.2087 39.4423C50.1726 39.4523 50.1336 39.4824 50.1159 39.5184C50.0798 39.5924 50.0926 39.7104 50.1715 39.7484Z" fill="#C99A8D"/>
<path d="M52.5736 40.4493C52.7528 40.6974 52.9767 40.9094 53.2261 41.0714C53.2958 41.1154 53.3998 41.0894 53.4387 41.0114C53.4784 40.9294 53.4573 40.8294 53.383 40.7814C53.324 40.7434 53.2667 40.7014 53.2113 40.6573L53.1732 40.6273C53.2072 40.6493 53.1785 40.6313 53.1713 40.6253L53.1549 40.6114C53.1275 40.5874 53.1007 40.5613 53.0743 40.5373C52.9717 40.4373 52.8777 40.3293 52.7933 40.2113C52.7705 40.1813 52.7184 40.1633 52.6834 40.1633C52.6453 40.1633 52.5997 40.1813 52.5736 40.2113C52.5464 40.2453 52.5261 40.2853 52.5279 40.3313C52.53 40.3793 52.5468 40.4133 52.5736 40.4493Z" fill="#C99A8D"/>
<path d="M52.7084 42.6115C52.8151 42.7695 52.9116 42.9336 52.9963 43.1056C53.0379 43.1896 53.0767 43.2776 53.1125 43.3636C53.1318 43.4116 53.1377 43.4256 53.1565 43.4776C53.1734 43.5236 53.1891 43.5696 53.2044 43.6177C53.2316 43.6997 53.3117 43.7637 53.3956 43.7337C53.471 43.7077 53.5332 43.6157 53.5041 43.5276C53.3771 43.1396 53.2018 42.7735 52.9769 42.4435C52.9288 42.3715 52.8399 42.3295 52.7642 42.3815C52.6995 42.4275 52.657 42.5375 52.7084 42.6115Z" fill="#C99A8D"/>
<path d="M52.6065 45.6557C52.6446 45.6837 52.6825 45.7137 52.7199 45.7437L52.7493 45.7677L52.7528 45.7697C52.7703 45.7857 52.7877 45.7997 52.8049 45.8157C52.8778 45.8777 52.9488 45.9437 53.0177 46.0117C53.1542 46.1458 53.2827 46.2878 53.4032 46.4378C53.4564 46.5058 53.5688 46.5018 53.6228 46.4378C53.6833 46.3678 53.68 46.2718 53.6228 46.1998C53.3697 45.8837 53.0798 45.6057 52.7633 45.3656C52.6968 45.3136 52.5879 45.3496 52.5509 45.4256C52.5087 45.5117 52.5354 45.6017 52.6065 45.6557Z" fill="#C99A8D"/>
<path d="M55.3492 47.8465C55.4812 48.1785 55.6132 48.5106 55.745 48.8427C55.7774 48.9247 55.8931 48.9487 55.9576 48.9027C56.0356 48.8487 56.0478 48.7606 56.0135 48.6726C55.8814 48.3406 55.7494 48.0085 55.6174 47.6765C55.5853 47.5964 55.4695 47.5704 55.405 47.6164C55.3272 47.6705 55.3148 47.7605 55.3492 47.8465Z" fill="#C99A8D"/>
<path d="M55.6364 45.6092C55.673 45.0031 55.6822 44.397 55.6639 43.7909C55.6575 43.5769 55.3467 43.5749 55.3532 43.7909C55.3715 44.397 55.3622 45.0031 55.3256 45.6092C55.3125 45.8253 55.6233 45.8233 55.6364 45.6092Z" fill="#C99A8D"/>
<path d="M56.9626 46.2602C56.9987 46.0982 57.046 45.9401 57.1044 45.7861C57.1114 45.7661 57.1122 45.7641 57.1066 45.7801L57.119 45.7481L57.1381 45.7041C57.1552 45.6621 57.1732 45.6221 57.192 45.5841C57.2272 45.5101 57.2654 45.4361 57.3057 45.366C57.3483 45.29 57.3231 45.178 57.2499 45.136C57.1741 45.092 57.083 45.116 57.0375 45.196C56.8665 45.4961 56.7393 45.8281 56.6631 46.1722C56.6441 46.2562 56.6879 46.3582 56.7716 46.3782C56.8513 46.3982 56.9423 46.3522 56.9626 46.2602Z" fill="#C99A8D"/>
<path d="M58.696 45.8318C59.1619 45.2017 59.6779 44.6176 60.2382 44.0855C60.3889 43.9415 60.1683 43.7054 60.0186 43.8474C59.458 44.3795 58.942 44.9636 58.4763 45.5937C58.424 45.6637 58.4124 45.7618 58.4763 45.8318C58.5307 45.8898 58.6433 45.9018 58.696 45.8318Z" fill="#C99A8D"/>
<path d="M58.4905 43.4512C58.6118 43.1231 58.733 42.793 58.8543 42.465C58.8845 42.381 58.8214 42.275 58.7458 42.2569C58.6561 42.2349 58.587 42.287 58.5546 42.375C58.4334 42.703 58.3121 43.0331 58.1908 43.3631C58.1607 43.4451 58.2237 43.5512 58.2993 43.5692C58.389 43.5912 58.4581 43.5392 58.4905 43.4512Z" fill="#C99A8D"/>
<path d="M56.26 41.535C56.2475 41.3989 56.244 41.2629 56.2504 41.1269C56.2534 41.0609 56.2595 40.9949 56.2667 40.9289C56.2628 40.9629 56.2687 40.9129 56.2691 40.9089L56.2761 40.8629C56.282 40.8249 56.2885 40.7888 56.2955 40.7528C56.3122 40.6668 56.2724 40.5668 56.1872 40.5448C56.1092 40.5268 56.014 40.5708 55.996 40.6628C55.9404 40.9489 55.9224 41.2429 55.9493 41.535C55.9572 41.623 56.0149 41.707 56.1046 41.703C56.1818 41.699 56.2685 41.629 56.26 41.535Z" fill="#C99A8D"/>
<path d="M58.621 41.3948C58.7894 41.1367 58.9576 40.8787 59.126 40.6206C59.1732 40.5486 59.1403 40.4306 59.0704 40.3906C58.9907 40.3446 58.9081 40.3746 58.8578 40.4506C58.6894 40.7087 58.5211 40.9667 58.3525 41.2247C58.3056 41.2967 58.3385 41.4148 58.4084 41.4548C58.488 41.5008 58.5707 41.4708 58.621 41.3948Z" fill="#C99A8D"/>
<path d="M60.8678 42.1169C61.1445 41.6989 61.4217 41.2808 61.6984 40.8628C61.7472 40.7888 61.7104 40.6747 61.6426 40.6327C61.5646 40.5827 61.4792 40.6187 61.4302 40.6927C61.1532 41.1108 60.8765 41.5289 60.5995 41.9469C60.5507 42.0209 60.5875 42.1329 60.6551 42.1769C60.7334 42.225 60.8188 42.191 60.8678 42.1169Z" fill="#C99A8D"/>
<path d="M60.9629 39.4152C61.0986 39.1211 61.2345 38.8271 61.3702 38.533C61.4064 38.455 61.3918 38.349 61.3144 38.303C61.2441 38.263 61.1406 38.281 61.1017 38.365C60.9662 38.6571 60.8303 38.9511 60.6946 39.2451C60.6584 39.3232 60.673 39.4312 60.7505 39.4752C60.8207 39.5152 60.9241 39.4992 60.9629 39.4152Z" fill="#C99A8D"/>
<path d="M62.7658 39.2127C62.8706 38.5345 62.9754 37.8544 63.0803 37.1763C63.0941 37.0863 63.0586 36.9943 62.9718 36.9703C62.8974 36.9463 62.7946 36.9963 62.7808 37.0863C62.6759 37.7644 62.5711 38.4445 62.4663 39.1226C62.4524 39.2127 62.4881 39.3047 62.5748 39.3287C62.6491 39.3507 62.7519 39.3027 62.7658 39.2127Z" fill="#C99A8D"/>
<path d="M44.4443 84.9375H47.3564C47.9619 84.9375 48.4814 84.8398 48.915 84.6445C49.3525 84.4453 49.6885 84.166 49.9229 83.8066C50.1611 83.4434 50.2803 83.0156 50.2803 82.5234V82.5117C50.2803 82.1523 50.1963 81.8262 50.0283 81.5332C49.8643 81.2402 49.6357 81.002 49.3428 80.8184C49.0537 80.6348 48.7217 80.5293 48.3467 80.502V80.3965C48.6357 80.3535 48.8955 80.2461 49.126 80.0742C49.3564 79.9023 49.5381 79.6875 49.6709 79.4297C49.8076 79.1719 49.876 78.8945 49.876 78.5977V78.5859C49.876 78.1523 49.7705 77.7793 49.5596 77.4668C49.3525 77.1504 49.0537 76.9082 48.6631 76.7402C48.2764 76.5684 47.8076 76.4824 47.2568 76.4824H44.4443V77.7949H46.8057C47.2275 77.7949 47.5537 77.8926 47.7842 78.0879C48.0186 78.2793 48.1357 78.5469 48.1357 78.8906V78.9023C48.1357 79.25 48.0088 79.5195 47.7549 79.7109C47.501 79.9023 47.1357 79.998 46.6592 79.998H44.4443V81.1641H46.8643C47.2119 81.1641 47.5049 81.2109 47.7432 81.3047C47.9854 81.3945 48.167 81.5293 48.2881 81.709C48.4131 81.8887 48.4756 82.1094 48.4756 82.3711V82.3828C48.4756 82.7852 48.3408 83.0918 48.0713 83.3027C47.8057 83.5137 47.417 83.6191 46.9053 83.6191H44.4443V84.9375ZM43.5596 84.9375H45.3291V76.4824H43.5596V84.9375ZM54.5459 85.0723C55.0186 85.0723 55.4268 85.0137 55.7705 84.8965C56.1182 84.7754 56.4072 84.6191 56.6377 84.4277C56.8721 84.2363 57.0557 84.0312 57.1885 83.8125C57.3213 83.5898 57.4131 83.377 57.4639 83.1738L57.4756 83.1152H55.8818L55.8643 83.1504C55.8252 83.2324 55.751 83.3242 55.6416 83.4258C55.5361 83.5234 55.3955 83.6094 55.2197 83.6836C55.0439 83.7578 54.8311 83.7949 54.5811 83.7949C54.2725 83.7949 54.0068 83.7266 53.7842 83.5898C53.5615 83.4531 53.3896 83.2559 53.2686 82.998C53.1475 82.7402 53.0869 82.4297 53.0869 82.0664V81.375C53.0869 81 53.1475 80.6836 53.2686 80.4258C53.3936 80.1641 53.5615 79.9668 53.7725 79.834C53.9873 79.6973 54.2314 79.6289 54.5049 79.6289C54.7822 79.6289 55.0244 79.6953 55.2314 79.8281C55.4424 79.957 55.6064 80.1504 55.7236 80.4082C55.8447 80.666 55.9053 80.9883 55.9053 81.375V82.0605L56.708 81.0469H52.249V82.1191H57.5283V81.5859C57.5283 80.9336 57.4053 80.3652 57.1592 79.8809C56.9131 79.3965 56.5615 79.0195 56.1045 78.75C55.6475 78.4805 55.1045 78.3457 54.4756 78.3457C53.8506 78.3457 53.3057 78.4844 52.8408 78.7617C52.3799 79.0391 52.0225 79.4297 51.7686 79.9336C51.5186 80.4375 51.3936 81.0312 51.3936 81.7148V81.7207C51.3936 82.4121 51.5205 83.0078 51.7744 83.5078C52.0283 84.0078 52.3896 84.3945 52.8584 84.668C53.3311 84.9375 53.8936 85.0723 54.5459 85.0723ZM60.6865 85.0371C60.9678 85.0371 61.2275 85 61.4658 84.9258C61.708 84.8477 61.9189 84.7383 62.0986 84.5977C62.2822 84.4531 62.4287 84.2812 62.5381 84.082H62.6436V84.9375H64.3311V80.5312C64.3311 80.0742 64.2256 79.6836 64.0146 79.3594C63.8076 79.0312 63.5049 78.7812 63.1064 78.6094C62.708 78.4336 62.2236 78.3457 61.6533 78.3457C61.1143 78.3457 60.6396 78.4238 60.2295 78.5801C59.8232 78.7363 59.499 78.9551 59.2568 79.2363C59.0186 79.5176 58.876 79.8477 58.8291 80.2266L58.8232 80.2793H60.4053L60.417 80.2559C60.4834 80.0645 60.6123 79.918 60.8037 79.8164C60.999 79.7109 61.251 79.6582 61.5596 79.6582C61.9111 79.6582 62.1787 79.7344 62.3623 79.8867C62.5498 80.0352 62.6436 80.25 62.6436 80.5312V82.5879C62.6436 82.8145 62.583 83.0195 62.4619 83.2031C62.3408 83.3828 62.1768 83.5254 61.9697 83.6309C61.7627 83.7363 61.5264 83.7891 61.2607 83.7891C60.9639 83.7891 60.7217 83.7188 60.5342 83.5781C60.3467 83.4375 60.2529 83.2441 60.2529 82.998V82.9863C60.2529 82.752 60.3428 82.5664 60.5225 82.4297C60.7021 82.293 60.9756 82.2148 61.3428 82.1953L63.4873 82.0547V81.0117L61.085 81.1582C60.2842 81.2051 59.667 81.3945 59.2334 81.7266C58.7998 82.0547 58.583 82.5098 58.583 83.0918V83.1035C58.583 83.4941 58.6729 83.8359 58.8525 84.1289C59.0322 84.418 59.2803 84.6426 59.5967 84.8027C59.917 84.959 60.2803 85.0371 60.6865 85.0371ZM66.0068 84.9375H67.7178V81.3281C67.7178 81.0234 67.7822 80.7617 67.9111 80.543C68.04 80.3242 68.2236 80.1562 68.4619 80.0391C68.7002 79.918 68.9814 79.8574 69.3057 79.8574C69.4385 79.8574 69.5693 79.8672 69.6982 79.8867C69.8311 79.9023 69.9619 79.9258 70.0908 79.957V78.4629C70.0049 78.4395 69.9053 78.4199 69.792 78.4043C69.6826 78.3887 69.5693 78.3809 69.4521 78.3809C69.0342 78.3809 68.6846 78.4785 68.4033 78.6738C68.1221 78.8652 67.9287 79.1367 67.8232 79.4883H67.7178V78.4863H66.0068V84.9375Z" fill="black"/>
</svg>
