<svg width="107" height="94" viewBox="0 0 107 94" fill="none" xmlns="http://www.w3.org/2000/svg">
<rect x="1.5" y="1.5" width="103.343" height="91" rx="14.5" fill="white" stroke="#ADC6F7" stroke-width="3"/>
<path d="M50.3662 39.1921C51.1085 36.8907 52.7696 34.9737 53.9748 32.8525C55.1799 30.7335 55.904 28.076 54.6805 25.9657C54.1077 24.9757 53.1545 24.2092 52.6413 23.1888C52.4259 22.7589 52.4351 22.062 52.9346 22.0034C53.127 21.9795 53.3126 22.0794 53.4753 22.1814C56.2865 23.9248 57.6383 27.5224 56.6256 30.5576C56.2247 31.7669 55.5007 32.8525 54.8569 33.9619C54.0641 35.3341 53.3699 36.793 53.182 38.3454C52.9919 39.8999 53.3607 41.5717 54.4719 42.7289C55.0241 43.3021 55.7413 43.7406 56.172 44.4006C57.8927 47.0386 53.0124 47.0364 51.6423 45.8488C49.9812 44.4115 49.7704 41.0463 50.3662 39.1921Z" fill="#39B23C"/>
<path d="M59.0037 31.5717C61.9021 30.0672 65.1189 29.2139 68.3174 28.4301C68.173 29.8717 67.378 31.1853 66.4478 32.3338C64.7386 34.4354 62.5321 36.118 60.1356 37.4685C58.7998 38.2219 54.6024 40.8989 53.026 40.4321C51.4245 39.9588 52.6778 37.3882 53.2162 36.4937C54.4924 34.366 56.7767 32.7289 59.0037 31.5717Z" fill="#39B23C"/>
<path d="M42.29 24.9847C45.6375 24.3355 49.1109 24.2834 52.4766 24.8327C53.0952 24.9347 53.7184 25.0585 54.2752 25.3321C55.3681 25.8683 56.7061 27.7463 56.0302 28.9665C55.391 30.1194 53.054 29.6482 51.9313 29.5071C48.3159 29.0512 44.8516 27.4554 42.29 24.9847Z" fill="#39B23C"/>
<path d="M53.5487 43.6191C53.48 43.6191 52.8706 43.6191 51.8854 43.6191C46.508 43.6191 30 43.6191 30 43.6191L32.6166 56.292H35.9593L39.1579 72H51.8854H53.5487H66.2762L69.4724 56.292H72.8153L75.4318 43.6191C75.4318 43.6191 58.9239 43.6191 53.5487 43.6191Z" fill="#49BCDB"/>
<path d="M66.4205 43.6191L63.804 56.292H60.4612L57.2627 72H66.2762L69.4724 56.292H72.8152L75.4317 43.6191C75.4317 43.6191 71.2549 43.6191 66.4205 43.6191Z" fill="#3890A5"/>
<path d="M63.8043 56.2919H41.0483L63.8043 61.939V56.2919Z" fill="#3890A5"/>
<path d="M38.8925 53.6953C38.7435 53.6953 38.5923 53.691 38.4434 53.6823C38.141 53.6649 37.8225 53.6237 37.5842 53.4478C37.3322 53.2611 37.2153 52.9593 37.1122 52.6727C36.6151 51.2984 36.182 49.9024 35.8154 48.4911C35.5978 47.6531 35.403 46.7803 35.5817 45.9336C35.7238 45.2583 36.8098 44.9349 37.9141 44.9349C38.9246 44.9349 39.9533 45.2084 40.2786 45.7338C40.5238 46.1311 40.5467 46.611 40.565 47.0691C40.6383 49.0187 40.714 50.9684 40.7873 52.9159C40.7942 53.0852 40.7941 53.2698 40.6796 53.3979C40.5788 53.5086 40.4207 53.5455 40.2695 53.5716C39.8158 53.6541 39.3553 53.6953 38.8925 53.6953Z" fill="#6BC9E2"/>
<path d="M43.0096 68.2244C42.9936 68.2244 42.9798 68.2222 42.9638 68.2222C42.5101 68.2005 42.1412 67.8726 41.8594 67.5339C40.3083 65.669 40.1685 63.1157 40.0929 60.7405C40.0769 60.2238 40.0792 59.6571 40.4206 59.2555C40.6176 59.0253 40.9223 58.9298 41.2568 58.9298C42.0083 58.9298 42.9156 59.4096 43.1195 59.9372C43.296 60.3931 43.2364 60.8947 43.2112 61.3788C43.1402 62.6685 43.3258 63.969 43.7519 65.1935C43.9559 65.7819 44.2216 66.3767 44.1712 66.9955C44.1208 67.5969 43.6397 68.2244 43.0096 68.2244Z" fill="#6BC9E2"/>
</svg>
