<svg width="112" height="99" viewBox="0 0 112 99" fill="none" xmlns="http://www.w3.org/2000/svg">
<rect x="1.5" y="1.5" width="109" height="96" rx="14.5" fill="white" stroke="#ADC6F7" stroke-width="3"/>
<path d="M83.3097 34.3304C83.212 35.4836 83.0943 36.6645 82.9449 37.8626C82.7841 39.1505 82.5889 40.4591 82.3534 41.7711V41.7746C81.0927 42.7586 79.7171 43.5528 78.3214 44.157C75.7771 45.2585 73.1207 45.8178 70.4442 46.2356C69.0486 46.4531 67.6443 46.6361 66.2486 46.8364C64.1494 47.1368 62.0358 47.4924 59.9796 48.0829H59.9738C58.044 48.6388 56.1573 49.4018 54.3912 50.524C51.7922 52.1744 49.4575 54.7329 48.0848 57.8888L48.0822 57.8922C47.9392 58.2203 47.8083 58.5552 47.6899 58.8936C47.5814 58.7589 47.4726 58.6208 47.3666 58.4827C46.6309 57.5159 45.9591 56.4766 45.3521 55.3786C45.6358 54.4049 46.0358 53.4796 46.5223 52.644C47.8157 50.4204 49.6795 48.7907 51.663 47.5891C55.761 45.1065 60.3673 44.3504 64.8845 43.6011C65.1057 43.5631 65.3296 43.5252 65.5536 43.4872C69.8526 42.7656 74.2062 41.9093 78.0687 39.4681C80.0473 38.2148 81.8881 36.4573 83.3097 34.3304Z" fill="#72AF83"/>
<path d="M82.3538 41.7742C80.7744 50.5684 77.3714 59.4559 70.2839 63.4232C67.8515 64.7836 64.9884 65.5674 61.6141 65.5674C58.2398 65.5674 55.3738 64.7836 52.9414 63.4232H52.9385C51.5285 62.6325 50.2649 61.6519 49.1317 60.5125C48.6257 60.0015 48.1445 59.4594 47.6904 58.8931C47.8087 58.5547 47.9397 58.2198 48.0827 57.8918L48.0853 57.8884C49.458 54.7325 51.7927 52.174 54.3916 50.5235C56.1578 49.4014 58.0445 48.6383 59.9743 48.0824H59.9801C62.0362 47.492 64.1498 47.1364 66.2491 46.836C67.6448 46.6357 69.049 46.4527 70.4447 46.2352C73.1212 45.8174 75.7775 45.258 78.3219 44.1566C79.7176 43.5524 81.0932 42.7582 82.3538 41.7742Z" fill="#ECE7DF"/>
<path d="M83.6088 28.602C83.5657 30.3733 83.4767 32.3034 83.3101 34.3267V34.3302C81.8886 36.4571 80.0478 38.2146 78.0692 39.4679C74.2067 41.9091 69.8531 42.7654 65.5541 43.487C65.3301 43.525 65.1061 43.5629 64.885 43.6009C60.3678 44.3502 55.7615 45.1063 51.6635 47.5889C49.68 48.7905 47.8162 50.4202 46.5228 52.6438C46.0363 53.4794 45.6363 54.4047 45.3525 55.3784C44.9921 54.7258 44.6538 54.056 44.3357 53.3689L44.3331 53.3654C43.7455 52.0879 43.2272 50.7551 42.7705 49.3878C40.704 43.1866 39.9218 36.2396 39.6797 30.5494C39.6527 29.9244 39.6329 29.3167 39.6179 28.7297C39.6033 28.0875 39.5933 27.4695 39.5884 26.8721C42.0696 28.6434 44.6886 30.0901 47.4929 30.722C52.0253 31.7371 56.8642 30.4527 60.6693 27.2243C63.1333 25.1319 65.1464 22.2419 66.499 18.9376H83.3705C83.3705 18.9376 83.7409 22.9428 83.6088 28.602Z" fill="#ECE7DF"/>
<path d="M66.4983 18.9376C65.1457 22.2419 63.1327 25.1319 60.6687 27.2243C56.8636 30.4527 52.0247 31.7371 47.4922 30.722C44.688 30.0901 42.069 28.6434 39.5878 26.8721C39.5829 25.9261 39.5878 25.0456 39.6027 24.2377C42.0936 25.5877 44.6607 26.6995 47.3466 27.0897C51.4934 27.6835 55.7982 26.4543 59.3218 23.6645C60.9386 22.3835 62.3889 20.778 63.6065 18.9376H66.4983Z" fill="#72AF83"/>
<path d="M63.6068 18.9375C62.3892 20.7779 60.939 22.3834 59.3222 23.6644C55.7985 26.4543 51.4938 27.6835 47.347 27.0896C44.661 26.6994 42.094 25.5876 39.603 24.2376C39.6079 23.9234 39.6154 23.6195 39.6229 23.326C39.6401 22.6838 39.6622 22.1003 39.6869 21.5789C39.761 19.9112 39.8523 18.9375 39.8523 18.9375H63.6068Z" fill="#ECE7DF"/>
<path d="M44.3326 53.3652C16.7214 27.4934 35.1594 28.2392 39.6175 28.7295C39.6324 29.3165 39.6523 29.9242 39.6793 30.5491C39.6793 30.5491 18.8223 27.0273 42.7701 49.3876C43.2267 50.7549 43.7451 52.0877 44.3326 53.3652Z" fill="#C6BFAD"/>
<path d="M71.7393 66.0648V66.0958C71.7393 67.66 70.7084 68.9375 69.4563 68.9375H53.7679C52.5101 68.9375 51.4849 67.66 51.4849 66.0958V66.0648C51.4849 64.8701 52.0879 63.8343 52.938 63.4234H52.9408C55.3732 64.7838 58.2392 65.5676 61.6135 65.5676C64.9878 65.5676 67.851 64.7838 70.2833 63.4234C71.1334 63.8343 71.7393 64.8701 71.7393 66.0648Z" fill="#C6BFAD"/>
<path d="M49.3638 55.3301C48.6398 54.4116 48.0333 52.9649 47.5259 51.1695C48.0844 50.4582 48.7044 49.8229 49.3638 49.2532V55.3301Z" fill="#DEE5E0"/>
<path d="M47.5257 51.1694C45.9779 45.6898 45.3504 36.9646 45.1025 29.9796C45.8845 30.2869 46.6806 30.539 47.4924 30.722C48.1119 30.8601 48.7362 30.9568 49.3637 31.0086V49.2531C48.7043 49.8228 48.0843 50.4582 47.5257 51.1694Z" fill="#F8F7F5"/>
<path d="M49.3642 31.0088C48.7367 30.957 48.1124 30.8603 47.493 30.7222C46.6811 30.5392 45.8851 30.2871 45.1031 29.9798C45.0606 28.7852 45.0293 27.6389 45.0063 26.5685C45.7771 26.7964 46.5571 26.9725 47.3474 27.0899C47.366 27.0899 47.3847 27.0933 47.4034 27.0968C48.0547 27.1865 48.7092 27.2349 49.3642 27.2349V31.0088Z" fill="#DEE5E0"/>
<path d="M49.3636 27.2344C48.7086 27.2344 48.0541 27.186 47.4028 27.0963C47.3841 27.0928 47.3654 27.0894 47.3468 27.0894C46.5565 26.972 45.7765 26.7959 45.0057 26.568C44.9104 22.1242 44.9604 18.996 44.9604 18.996H49.3636V27.2344Z" fill="#F8F7F5"/>
<path d="M48.9736 85.1543C49.6572 85.1543 50.2627 85.0293 50.79 84.7793C51.3174 84.5254 51.7432 84.1758 52.0674 83.7305C52.3916 83.2852 52.585 82.7676 52.6475 82.1777V82.1074H50.9248L50.9131 82.1602C50.8545 82.4609 50.7354 82.7246 50.5557 82.9512C50.3799 83.1738 50.1572 83.3477 49.8877 83.4727C49.6221 83.5938 49.3193 83.6543 48.9795 83.6543C48.5342 83.6543 48.1494 83.5352 47.8252 83.2969C47.501 83.0586 47.251 82.7188 47.0752 82.2773C46.9033 81.8359 46.8174 81.3145 46.8174 80.7129V80.7012C46.8174 80.0957 46.9033 79.5742 47.0752 79.1367C47.251 78.6953 47.501 78.3574 47.8252 78.123C48.1494 77.8848 48.5322 77.7656 48.9736 77.7656C49.3096 77.7656 49.6123 77.832 49.8818 77.9648C50.1553 78.0977 50.3818 78.2852 50.5615 78.5273C50.7412 78.7656 50.8604 79.043 50.9189 79.3594L50.9248 79.4004H52.6416V79.3242C52.5869 78.7305 52.3955 78.2031 52.0674 77.7422C51.7393 77.2812 51.3076 76.9199 50.7725 76.6582C50.2412 76.3965 49.6416 76.2656 48.9736 76.2656C48.1533 76.2656 47.4463 76.4453 46.8525 76.8047C46.2627 77.1602 45.8076 77.6699 45.4873 78.334C45.167 78.998 45.0068 79.7871 45.0068 80.7012V80.7129C45.0068 81.627 45.167 82.416 45.4873 83.0801C45.8076 83.7441 46.2646 84.2559 46.8584 84.6152C47.4521 84.9746 48.1572 85.1543 48.9736 85.1543ZM56.2393 85.0723C56.7002 85.0723 57.0908 84.9727 57.4111 84.7734C57.7314 84.5703 57.9639 84.293 58.1084 83.9414H58.2139V84.9375H59.9248V78.4863H58.2139V82.2129C58.2139 82.502 58.1631 82.7559 58.0615 82.9746C57.9639 83.1895 57.8174 83.3574 57.6221 83.4785C57.4307 83.5957 57.1943 83.6543 56.9131 83.6543C56.5068 83.6543 56.2119 83.5371 56.0283 83.3027C55.8486 83.0684 55.7588 82.7227 55.7588 82.2656V78.4863H54.0479V82.6582C54.0479 83.1699 54.1299 83.6074 54.2939 83.9707C54.458 84.3301 54.7021 84.6035 55.0264 84.791C55.3545 84.9785 55.7588 85.0723 56.2393 85.0723ZM61.6416 87.0762H63.3525V83.9062H63.458C63.5674 84.1406 63.7158 84.3418 63.9033 84.5098C64.0947 84.6777 64.3154 84.8086 64.5654 84.9023C64.8193 84.9922 65.0947 85.0371 65.3916 85.0371C65.9346 85.0371 66.4014 84.9043 66.792 84.6387C67.1826 84.373 67.4834 83.9922 67.6943 83.4961C67.9053 83 68.0107 82.4062 68.0107 81.7148V81.7031C68.0107 81.0156 67.9033 80.4258 67.6885 79.9336C67.4775 79.4375 67.1768 79.0547 66.7861 78.7852C66.3955 78.5156 65.9307 78.3809 65.3916 78.3809C65.0869 78.3809 64.8096 78.4258 64.5596 78.5156C64.3096 78.6016 64.0908 78.7266 63.9033 78.8906C63.7197 79.0547 63.5713 79.252 63.458 79.4824H63.3525V78.4863H61.6416V87.0762ZM64.8057 83.6191C64.5088 83.6191 64.249 83.543 64.0264 83.3906C63.8076 83.2383 63.6377 83.0195 63.5166 82.7344C63.3955 82.4453 63.335 82.1055 63.335 81.7148V81.7031C63.335 81.3047 63.3936 80.9648 63.5107 80.6836C63.6318 80.3984 63.8018 80.1797 64.0205 80.0273C64.2432 79.875 64.5049 79.7988 64.8057 79.7988C65.1104 79.7988 65.3701 79.875 65.585 80.0273C65.8037 80.1797 65.9717 80.3984 66.0889 80.6836C66.21 80.9688 66.2705 81.3086 66.2705 81.7031V81.7148C66.2705 82.1094 66.21 82.4492 66.0889 82.7344C65.9717 83.0195 65.8037 83.2383 65.585 83.3906C65.3701 83.543 65.1104 83.6191 64.8057 83.6191Z" fill="black"/>
</svg>
