<svg width="107" height="95" viewBox="0 0 107 95" fill="none" xmlns="http://www.w3.org/2000/svg">
<rect x="1.82812" y="1.98389" width="103.343" height="91" rx="14.5" fill="white" stroke="#ADC6F7" stroke-width="3"/>
<path d="M49.5272 72.0916L47.5691 71.7268C44.9569 71.2402 43.2338 68.7282 43.7204 66.116L51.4527 24.6092C51.6774 23.4028 52.8376 22.6072 54.0438 22.8319L61.093 24.1451C62.2994 24.3698 63.0952 25.5298 62.8704 26.7362L55.1381 68.243C54.6515 70.8552 52.1395 72.5783 49.5272 72.0916Z" fill="#292827"/>
<path d="M61.1498 23.8404L54.1006 22.5272C53.7648 22.4647 53.4266 22.4698 53.0954 22.5426C52.7757 22.6126 52.476 22.7424 52.2051 22.9284C51.9341 23.1143 51.7051 23.347 51.5245 23.62C51.3374 23.9029 51.2109 24.2166 51.1482 24.5524L43.4159 66.0592C43.2894 66.7386 43.2997 67.4228 43.4466 68.0925C43.5885 68.7394 43.8511 69.3454 44.2273 69.8936C44.6034 70.442 45.0741 70.9052 45.6264 71.2705C46.1984 71.6487 46.8328 71.9048 47.5124 72.0314L49.4706 72.3961C50.1502 72.5227 50.8342 72.5123 51.504 72.3654C52.1508 72.2235 52.7567 71.9608 53.305 71.5847C53.8534 71.2087 54.3166 70.7379 54.6819 70.1856C55.0601 69.6137 55.3161 68.9791 55.4427 68.2997L63.1749 26.7928C63.2376 26.4571 63.2325 26.1189 63.1598 25.7875C63.0896 25.4679 62.9598 25.1682 62.7739 24.8972C62.588 24.6263 62.3553 24.3972 62.0822 24.2166C61.7994 24.0295 61.4858 23.9031 61.1498 23.8404ZM61.0931 24.145C62.2994 24.3697 63.0952 25.5298 62.8705 26.7361L55.1381 68.2429C54.6516 70.8551 52.1395 72.5782 49.5273 72.0915L47.5691 71.7267C44.9569 71.2402 43.2338 68.7281 43.7205 66.1159L51.4528 24.6091C51.6775 23.4027 52.8377 22.6071 54.0439 22.8319L61.0931 24.145Z" fill="#1B1918"/>
<path d="M53.7853 29.004L52.6333 28.7893C52.26 28.7198 52.0115 28.3574 52.081 27.984C52.1505 27.6105 52.5129 27.362 52.8863 27.4317L54.0383 27.6462C54.4116 27.7158 54.6602 28.0782 54.5906 28.4515C54.5211 28.8249 54.1588 29.0735 53.7853 29.004Z" fill="#E0E2A7"/>
<path d="M57.0823 29.6182L55.9302 29.4036C55.557 29.3341 55.3082 28.9717 55.3779 28.5982C55.4474 28.2248 55.8098 27.9762 56.1832 28.0459L57.3352 28.2604C57.7085 28.3301 57.9571 28.6925 57.8876 29.0657C57.8181 29.4392 57.4557 29.6877 57.0823 29.6182Z" fill="#E0E2A7"/>
<path d="M60.3796 30.232L59.2276 30.0173C58.8542 29.9478 58.6056 29.5855 58.6753 29.212C58.7448 28.8387 59.1072 28.59 59.4806 28.6597L60.6326 28.8742C61.0059 28.9439 61.2544 29.3062 61.1849 29.6795C61.1154 30.0529 60.7531 30.3015 60.3796 30.232Z" fill="#E0E2A7"/>
<path d="M53.3713 31.2286L52.2193 31.0139C51.846 30.9444 51.5974 30.5819 51.6669 30.2086C51.7364 29.8352 52.099 29.5866 52.4722 29.6561L53.6243 29.8708C53.9977 29.9403 54.2463 30.3028 54.1766 30.6761C54.1071 31.0495 53.7447 31.2981 53.3713 31.2286Z" fill="#E0E2A7"/>
<path d="M56.6681 31.8428L55.5161 31.6282C55.1429 31.5587 54.8943 31.1963 54.9638 30.8229C55.0333 30.4494 55.3957 30.2009 55.7691 30.2705L56.9211 30.485C57.2946 30.5547 57.5431 30.9171 57.4735 31.2903C57.404 31.6638 57.0416 31.9123 56.6681 31.8428Z" fill="#E0E2A7"/>
<path d="M59.965 32.4571L58.813 32.2424C58.4397 32.1729 58.1912 31.8106 58.2607 31.4371C58.3302 31.0637 58.6926 30.8151 59.066 30.8848L60.218 31.0993C60.5915 31.169 60.84 31.5313 60.7703 31.9046C60.7008 32.278 60.3385 32.5266 59.965 32.4571Z" fill="#E0E2A7"/>
<path d="M52.9538 33.4703L51.8018 33.2556C51.4285 33.1861 51.1799 32.8237 51.2495 32.4503C51.319 32.0769 51.6813 31.8283 52.0548 31.898L53.2068 32.1125C53.5801 32.1821 53.8286 32.5445 53.7591 32.9178C53.6896 33.2912 53.3272 33.5398 52.9538 33.4703Z" fill="#E0E2A7"/>
<path d="M56.2502 34.0845L55.0982 33.8699C54.7249 33.8004 54.4762 33.438 54.5459 33.0646C54.6154 32.6913 54.9778 32.4426 55.3512 32.5122L56.5032 32.7267C56.8765 32.7964 57.125 33.1588 57.0555 33.532C56.986 33.9055 56.6237 34.154 56.2502 34.0845Z" fill="#E0E2A7"/>
<path d="M59.5471 34.6988L58.3951 34.4841C58.0216 34.4146 57.7731 34.0523 57.8428 33.6788C57.9123 33.3055 58.2746 33.057 58.6481 33.1265L59.8001 33.3411C60.1734 33.4107 60.4219 33.773 60.3524 34.1465C60.2829 34.5197 59.9205 34.7683 59.5471 34.6988Z" fill="#E0E2A7"/>
<path d="M52.5436 35.67L51.3916 35.4553C51.0183 35.3858 50.7698 35.0234 50.8393 34.65C50.9088 34.2766 51.2712 34.028 51.6446 34.0977L52.7966 34.3122C53.1699 34.3818 53.4185 34.7442 53.3489 35.1175C53.2794 35.4909 52.9171 35.7395 52.5436 35.67Z" fill="#E0E2A7"/>
<path d="M55.8405 36.2838L54.6885 36.0691C54.3152 35.9996 54.0667 35.6372 54.1362 35.2638C54.2057 34.8903 54.568 34.6418 54.9415 34.7114L56.0935 34.9259C56.4668 34.9956 56.7153 35.358 56.6458 35.7313C56.5763 36.1047 56.2139 36.3533 55.8405 36.2838Z" fill="#E0E2A7"/>
<path d="M59.1374 36.898L57.9854 36.6833C57.6121 36.6138 57.3634 36.2515 57.4331 35.878C57.5026 35.5048 57.865 35.256 58.2384 35.3257L59.3904 35.5402C59.7637 35.6099 60.0123 35.9722 59.9427 36.3455C59.8732 36.719 59.5109 36.9675 59.1374 36.898Z" fill="#E0E2A7"/>
<path d="M52.134 37.8692L50.982 37.6545C50.6087 37.585 50.3601 37.2227 50.4296 36.8492C50.4991 36.4758 50.8615 36.2272 51.2349 36.2969L52.387 36.5114C52.7602 36.5809 53.0088 36.9434 52.9393 37.3167C52.8698 37.6901 52.5074 37.9387 52.134 37.8692Z" fill="#E0E2A7"/>
<path d="M49.3567 52.5664L48.2047 52.3519C47.8312 52.2823 47.5827 51.9199 47.6523 51.5466C47.7218 51.1732 48.0842 50.9246 48.4577 50.9941L49.6097 51.2088C49.9829 51.2783 50.2315 51.6407 50.162 52.0141C50.0925 52.3874 49.7301 52.6361 49.3567 52.5664Z" fill="#E0E2A7"/>
<path d="M55.904 53.7862L54.752 53.5715C54.3786 53.502 54.13 53.1397 54.1997 52.7662C54.2692 52.3928 54.6316 52.1442 55.005 52.2139L56.1569 52.4284C56.5303 52.4981 56.7789 52.8604 56.7094 53.2337C56.6398 53.6071 56.2773 53.8557 55.904 53.7862Z" fill="#E0E2A7"/>
<path d="M51.2067 40.1831L50.2469 40.0044C49.9358 39.9465 49.7286 39.6444 49.7866 39.3333C49.8447 39.0222 50.1466 38.8151 50.4576 38.8732L51.4175 39.0519C51.7286 39.1098 51.9357 39.4119 51.8778 39.7229C51.8199 40.034 51.5178 40.2412 51.2067 40.1831Z" fill="#E11B2E"/>
<path d="M53.8034 40.667L52.8436 40.4883C52.5325 40.4302 52.3253 40.1283 52.3832 39.8173C52.4412 39.5062 52.7432 39.299 53.0543 39.3569L54.0142 39.5358C54.3252 39.5937 54.5324 39.8956 54.4743 40.2069C54.4164 40.518 54.1145 40.725 53.8034 40.667Z" fill="#2B8A5A"/>
<path d="M56.362 41.1436L55.4022 40.9647C55.0911 40.9068 54.8839 40.6049 54.9418 40.2938C54.9999 39.9826 55.3018 39.7756 55.6129 39.8335L56.5728 40.0124C56.8838 40.0703 57.091 40.3722 57.0331 40.6833C56.975 40.9944 56.6731 41.2015 56.362 41.1436Z" fill="#EA962B"/>
<path d="M58.9205 41.6202L57.9606 41.4414C57.6496 41.3834 57.4424 41.0815 57.5005 40.7704C57.5584 40.4593 57.8603 40.2521 58.1714 40.3102L59.1312 40.4889C59.4423 40.5469 59.6495 40.8489 59.5916 41.16C59.5336 41.4711 59.2316 41.6781 58.9205 41.6202Z" fill="#6971C0"/>
<path d="M47.03 61.1988L46.0701 61.0199C45.7591 60.962 45.5519 60.6599 45.6098 60.3488C45.6679 60.0377 45.9698 59.8307 46.2809 59.8887L47.2407 60.0674C47.5518 60.1255 47.759 60.4274 47.701 60.7385C47.643 61.0495 47.3411 61.2567 47.03 61.1988Z" fill="#E0E2A7"/>
<path d="M49.6271 61.6822L48.6673 61.5035C48.3562 61.4455 48.1491 61.1435 48.207 60.8324C48.2649 60.5213 48.567 60.3141 48.878 60.3722L49.8379 60.5509C50.149 60.6089 50.356 60.9109 50.298 61.222C50.2401 61.5331 49.9382 61.7401 49.6271 61.6822Z" fill="#E0E2A7"/>
<path d="M49.3864 63.6299L48.4266 63.4511C48.1155 63.3931 47.9083 63.0911 47.9663 62.78C48.0244 62.4689 48.3262 62.2619 48.6373 62.3198L49.5972 62.4985C49.9083 62.5566 50.1154 62.8585 50.0575 63.1696C49.9994 63.4807 49.6975 63.6879 49.3864 63.6299Z" fill="#E0E2A7"/>
<path d="M52.1853 62.1592L51.2254 61.9803C50.9143 61.9224 50.7072 61.6205 50.7651 61.3094C50.823 60.9984 51.1251 60.7912 51.4362 60.8491L52.396 61.028C52.7071 61.0859 52.9142 61.3878 52.8563 61.6989C52.7982 62.01 52.4963 62.2172 52.1853 62.1592Z" fill="#E0E2A7"/>
<path d="M54.7437 62.6357L53.7839 62.457C53.4728 62.3991 53.2656 62.097 53.3237 61.786C53.3817 61.4749 53.6835 61.2679 53.9946 61.3258L54.9545 61.5045C55.2656 61.5624 55.4727 61.8645 55.4148 62.1756C55.3569 62.4867 55.0548 62.6938 54.7437 62.6357Z" fill="#E0E2A7"/>
<path d="M46.0274 61.9605C45.7833 61.9152 45.5476 62.0767 45.5021 62.3209C45.4567 62.565 45.6183 62.8006 45.8625 62.8461L46.732 63.0081C46.9761 63.0536 47.2118 62.8919 47.2573 62.6478C47.3027 62.4037 47.1411 62.168 46.8971 62.1226L46.0274 61.9605ZM46.7061 63.1476L45.8364 62.9856C45.5153 62.9258 45.3028 62.6159 45.3626 62.2948C45.4224 61.9738 45.7323 61.7612 46.0533 61.821L46.923 61.983C47.2441 62.0428 47.4566 62.3527 47.3968 62.6739C47.337 62.9948 47.0271 63.2074 46.7061 63.1476Z" fill="#E0E2A7"/>
<path d="M50.7637 57.7405C50.5196 57.695 50.284 57.8565 50.2385 58.1006C50.193 58.3448 50.3547 58.5804 50.5986 58.6259L51.4683 58.7879C51.7125 58.8334 51.9481 58.6717 51.9936 58.4276C52.0391 58.1834 51.8774 57.948 51.6334 57.9025L50.7637 57.7405ZM51.4424 58.9274L50.5727 58.7654C50.2516 58.7056 50.0391 58.3957 50.0989 58.0747C50.1587 57.7536 50.4686 57.541 50.7896 57.6008L51.6593 57.7628C51.9805 57.8226 52.1929 58.1325 52.1331 58.4536C52.0733 58.7748 51.7634 58.9872 51.4424 58.9274Z" fill="#E0E2A7"/>
<path d="M51.5904 53.2428C51.3462 53.1973 51.1106 53.359 51.0653 53.6031C51.0198 53.8472 51.1813 54.0828 51.4255 54.1282L52.2952 54.2902C52.5393 54.3357 52.7749 54.1741 52.8204 53.93C52.8657 53.6859 52.7042 53.4503 52.4601 53.4048L51.5904 53.2428ZM52.2691 54.4299L51.3994 54.2679C51.0784 54.2081 50.8658 53.8982 50.9256 53.577C50.9854 53.2561 51.2953 53.0434 51.6164 53.1032L52.4861 53.2653C52.8071 53.325 53.0197 53.6349 52.9599 53.9561C52.9001 54.2771 52.5902 54.4897 52.2691 54.4299Z" fill="#E0E2A7"/>
<path d="M48.2378 64.3274C47.9937 64.2819 47.7581 64.4434 47.7126 64.6876C47.6671 64.9317 47.8288 65.1673 48.0727 65.2128L48.9425 65.3748C49.1866 65.4203 49.4222 65.2586 49.4677 65.0147C49.5132 64.7705 49.3515 64.5349 49.1074 64.4894L48.2378 64.3274ZM48.9166 65.5143L48.0469 65.3523C47.7257 65.2925 47.5133 64.9826 47.5731 64.6617C47.6329 64.3405 47.9428 64.1279 48.2637 64.1879L49.1334 64.3499C49.4546 64.4097 49.667 64.7196 49.6072 65.0405C49.5474 65.3617 49.2375 65.5741 48.9166 65.5143Z" fill="#E0E2A7"/>
<path d="M51.1519 62.9152C50.9078 62.8698 50.6723 63.0314 50.6268 63.2756C50.5813 63.5195 50.7428 63.7551 50.987 63.8006L51.8567 63.9627C52.1008 64.0081 52.3364 63.8466 52.3819 63.6025C52.4274 63.3584 52.2657 63.1227 52.0216 63.0773L51.1519 62.9152ZM51.8306 64.1022L50.9611 63.9402C50.6399 63.8804 50.4273 63.5706 50.4871 63.2495C50.5469 62.9284 50.8568 62.7159 51.178 62.7757L52.0477 62.9377C52.3686 62.9975 52.5813 63.3074 52.5215 63.6284C52.4617 63.9495 52.1518 64.1621 51.8306 64.1022Z" fill="#E0E2A7"/>
<path d="M53.7144 63.3928C53.4703 63.3473 53.2346 63.5088 53.1892 63.753C53.1438 63.9971 53.3053 64.2327 53.5495 64.2782L54.4192 64.4402C54.6633 64.4857 54.8989 64.324 54.9444 64.0799C54.9897 63.8359 54.8282 63.6003 54.5841 63.5548L53.7144 63.3928ZM54.3931 64.5798L53.5234 64.4177C53.2024 64.3579 52.9898 64.0481 53.0496 63.7271C53.1094 63.4059 53.4193 63.1933 53.7405 63.2531L54.6102 63.4153C54.9311 63.4751 55.1438 63.7848 55.084 64.106C55.0242 64.4271 54.7143 64.6396 54.3931 64.5798Z" fill="#E0E2A7"/>
<path d="M45.6753 63.8502C45.4312 63.8047 45.1956 63.9664 45.1501 64.2105C45.1046 64.4545 45.2663 64.6901 45.5104 64.7356L46.38 64.8976C46.6241 64.9431 46.8597 64.7816 46.9052 64.5374C46.9507 64.2933 46.7892 64.0577 46.545 64.0122L45.6753 63.8502ZM46.3541 65.0373L45.4844 64.8753C45.1632 64.8153 44.9508 64.5056 45.0106 64.1844C45.0704 63.8633 45.3803 63.6509 45.7012 63.7107L46.5709 63.8727C46.8921 63.9325 47.1047 64.2424 47.0447 64.5633C46.9849 64.8845 46.675 65.0971 46.3541 65.0373Z" fill="#E0E2A7"/>
<path d="M50.7998 64.8049C50.5559 64.7594 50.3203 64.921 50.2748 65.1651C50.2293 65.4092 50.3908 65.6448 50.6349 65.6903L51.5046 65.8523C51.7488 65.8978 51.9844 65.7362 52.0299 65.492C52.0754 65.2479 51.9137 65.0124 51.6696 64.967L50.7998 64.8049ZM51.4786 65.9919L50.609 65.8299C50.2879 65.7701 50.0753 65.4602 50.1351 65.1392C50.195 64.8181 50.5048 64.6054 50.8259 64.6652L51.6956 64.8273C52.0168 64.8871 52.2292 65.1969 52.1694 65.5181C52.1096 65.8392 51.7997 66.0517 51.4786 65.9919Z" fill="#E0E2A7"/>
<path d="M53.3623 65.2818C53.1182 65.2363 52.8826 65.398 52.8373 65.6421C52.7918 65.8863 52.9533 66.1219 53.1974 66.1674L54.0671 66.3294C54.3113 66.3749 54.5469 66.2132 54.5924 65.9691C54.6379 65.7249 54.4762 65.4893 54.2321 65.4438L53.3623 65.2818ZM54.0411 66.4689L53.1714 66.3069C52.8504 66.2471 52.6378 65.9372 52.6976 65.6161C52.7574 65.2951 53.0673 65.0825 53.3884 65.1423L54.2581 65.3043C54.5791 65.3641 54.7917 65.674 54.7319 65.9951C54.6721 66.3161 54.3622 66.5287 54.0411 66.4689Z" fill="#E0E2A7"/>
<path d="M46.6849 56.9363L47.1835 54.2596C47.2929 53.6725 47.8628 53.2815 48.4498 53.3909C49.0371 53.5004 49.4279 54.0703 49.3185 54.6574L48.8199 57.3341C48.7105 57.9212 48.1406 58.3122 47.5536 58.2028C46.9663 58.0935 46.5755 57.5236 46.6849 56.9363Z" fill="#E0E2A7"/>
<path d="M53.5716 58.2192L54.0702 55.5424C54.1796 54.9552 54.7495 54.5644 55.3366 54.6737C55.9238 54.7831 56.3146 55.353 56.2053 55.9401L55.7066 58.6169C55.5972 59.2041 55.0274 59.5949 54.4403 59.4856C53.853 59.3762 53.4622 58.8063 53.5716 58.2192Z" fill="#E0E2A7"/>
<path d="M55.4308 38.4835L54.2788 38.2688C53.9056 38.1993 53.657 37.8369 53.7265 37.4635C53.796 37.09 54.1584 36.8415 54.5318 36.9112L55.6838 37.1256C56.0571 37.1953 56.3057 37.5577 56.2362 37.931C56.1666 38.3044 55.8043 38.553 55.4308 38.4835Z" fill="#E0E2A7"/>
<path d="M58.7278 39.0977L57.5757 38.8831C57.2025 38.8135 56.9537 38.4512 57.0234 38.0777C57.0929 37.7043 57.4553 37.4557 57.8287 37.5254L58.9808 37.7399C59.354 37.8096 59.6026 38.1719 59.5331 38.5452C59.4636 38.9187 59.1012 39.1672 58.7278 39.0977Z" fill="#E0E2A7"/>
<path d="M56.1449 43.2106C55.5389 42.4154 54.0927 42.1108 54.0927 42.1108C54.0927 42.1108 52.6337 41.8741 51.782 42.398C51.6505 42.4787 51.5723 42.6253 51.5818 42.7791C51.582 42.7815 51.5822 42.784 51.5823 42.7864C51.5859 42.8352 51.6019 42.8823 51.6278 42.9239L52.311 44.0219C52.4582 44.2584 52.7533 44.3626 53.0127 44.2615C53.0199 44.2586 53.027 44.2557 53.0342 44.2526C53.1528 44.2022 53.2795 44.1739 53.4083 44.1758C53.5008 44.1771 53.9007 44.2516 53.9876 44.2836C54.1084 44.3282 54.2164 44.4003 54.3089 44.4901C54.3143 44.4955 54.32 44.5008 54.3256 44.5059C54.5314 44.6938 54.844 44.7029 55.0665 44.5352L56.0992 43.7568C56.1384 43.7275 56.1703 43.6892 56.1912 43.6451C56.1923 43.6429 56.1933 43.6406 56.1943 43.6384C56.2587 43.4982 56.2384 43.3335 56.1449 43.2106Z" fill="#E0E2A7"/>
<path d="M50.5033 49.2614C51.1093 50.0566 52.5555 50.3612 52.5555 50.3612C52.5555 50.3612 54.0145 50.5979 54.8662 50.074C54.9975 49.9933 55.0759 49.8467 55.0664 49.6927C55.0662 49.6903 55.066 49.688 55.0659 49.6856C55.0623 49.6367 55.0461 49.5897 55.0204 49.5481L54.337 48.4501C54.1898 48.2136 53.8949 48.1094 53.6353 48.2105C53.6283 48.2133 53.6212 48.2162 53.614 48.2192C53.4954 48.2698 53.3687 48.2981 53.2399 48.2962C53.1474 48.2949 52.7475 48.2204 52.6606 48.1884C52.5398 48.1436 52.4318 48.0715 52.3393 47.9819C52.3337 47.9765 52.3281 47.9712 52.3226 47.9661C52.1168 47.7782 51.8042 47.7691 51.5817 47.9368L50.549 48.715C50.5098 48.7445 50.4779 48.7828 50.457 48.8269C50.4559 48.8291 50.4549 48.8314 50.4539 48.8336C50.3895 48.9738 50.4098 49.1385 50.5033 49.2614Z" fill="#E0E2A7"/>
<path d="M50.285 43.449C49.4898 44.0548 49.1852 45.5012 49.1852 45.5012C49.1852 45.5012 48.9485 46.9602 49.4722 47.8119C49.5532 47.9432 49.6997 48.0216 49.8535 48.0119C49.8559 48.0119 49.8584 48.0117 49.8608 48.0115C49.9096 48.008 49.9567 47.9918 49.9983 47.9661L51.0963 47.2827C51.3328 47.1355 51.4371 46.8406 51.3359 46.581C51.333 46.574 51.3301 46.5668 51.327 46.5597C51.2766 46.4411 51.2483 46.3144 51.2502 46.1856C51.2515 46.0931 51.326 45.6932 51.358 45.6063C51.4026 45.4855 51.4747 45.3774 51.5645 45.285C51.5699 45.2794 51.5752 45.2738 51.5803 45.2682C51.7682 45.0625 51.7773 44.7497 51.6096 44.5272L50.8312 43.4946C50.8019 43.4555 50.7636 43.4236 50.7195 43.4026C50.7173 43.4016 50.715 43.4006 50.7128 43.3996C50.5726 43.3352 50.4079 43.3555 50.285 43.449Z" fill="#E0E2A7"/>
<path d="M56.3914 49.1007C57.1867 48.4947 57.4913 47.0485 57.4913 47.0485C57.4913 47.0485 57.7279 45.5895 57.2041 44.7378C57.1233 44.6063 56.9768 44.5281 56.823 44.5376C56.8204 44.5378 56.818 44.538 56.8156 44.5382C56.7669 44.5417 56.7197 44.5577 56.6781 44.5836L55.5801 45.2668C55.3437 45.414 55.2394 45.7091 55.3406 45.9685C55.3435 45.9757 55.3464 45.9828 55.3495 45.99C55.3999 46.1084 55.4282 46.2353 55.4263 46.3641C55.4249 46.4566 55.3505 46.8565 55.3185 46.9434C55.2738 47.0642 55.2016 47.1722 55.112 47.2645C55.1065 47.2701 55.1012 47.2758 55.0961 47.2814C54.9082 47.4872 54.8992 47.7998 55.0668 48.0223L55.8451 49.055C55.8745 49.0941 55.9129 49.1261 55.957 49.147C55.9592 49.1481 55.9614 49.1491 55.9636 49.1501C56.1038 49.2145 56.2686 49.1942 56.3914 49.1007Z" fill="#E0E2A7"/>
<path d="M54.485 46.4882C54.3683 47.1148 53.7655 47.5281 53.1389 47.4114C52.5123 47.2947 52.0988 46.6922 52.2155 46.0654C52.3324 45.4388 52.935 45.0255 53.5616 45.1422C54.1883 45.2589 54.6017 45.8615 54.485 46.4882Z" fill="#E11B2E"/>
<path d="M52.5865 56.1091C52.4801 56.6798 51.9314 57.0561 51.3607 56.9498C50.7899 56.8435 50.4136 56.2948 50.5199 55.724C50.6262 55.1533 51.175 54.777 51.7457 54.8833C52.3164 54.9896 52.6928 55.5383 52.5865 56.1091Z" fill="#E0E2A7"/>
<path d="M54.203 26.7637L53.051 26.5491C52.6775 26.4796 52.429 26.117 52.4985 25.7438C52.5682 25.3703 52.9305 25.1218 53.3038 25.1913L54.4558 25.4059C54.8292 25.4754 55.0778 25.838 55.0083 26.2112C54.9386 26.5847 54.5763 26.8332 54.203 26.7637Z" fill="#E11B2E"/>
<path d="M53.6617 26.4704C53.6558 26.4694 53.6498 26.4682 53.6437 26.4668C53.5222 26.4392 53.4193 26.3668 53.354 26.2629C53.2914 26.1632 53.2712 26.046 53.2971 25.9327C53.3292 25.7934 53.429 25.6777 53.5644 25.623C53.6018 25.608 53.6442 25.6261 53.6592 25.6632C53.6663 25.6809 53.6662 25.7007 53.6587 25.7186C53.651 25.7365 53.6369 25.7504 53.619 25.7578C53.5275 25.7946 53.4602 25.8722 53.4387 25.9653C53.4215 26.0406 53.4351 26.1189 53.4771 26.1855C53.5217 26.2566 53.5922 26.3062 53.6759 26.3251C53.8433 26.3631 54.0101 26.2632 54.0471 26.1026C54.0709 25.9988 54.0347 25.8889 53.9524 25.8157C53.9226 25.7891 53.9198 25.7431 53.9464 25.7131C53.9732 25.6833 54.0192 25.6806 54.049 25.7072C54.1709 25.8157 54.2244 25.9796 54.1887 26.1351C54.1352 26.3682 53.9038 26.5155 53.6617 26.4704Z" fill="white"/>
<path d="M53.7429 26.0339C53.7036 26.0266 53.6775 25.9886 53.6848 25.9491L53.7715 25.4835C53.7789 25.4441 53.817 25.418 53.8564 25.4254C53.8957 25.4327 53.9218 25.4707 53.9145 25.51L53.8278 25.9758C53.8203 26.0152 53.7823 26.0412 53.7429 26.0339Z" fill="white"/>
<path d="M49.2341 63.0161C49.2113 63.1387 49.0934 63.2197 48.9707 63.1968C48.8481 63.174 48.7672 63.0561 48.79 62.9334C48.8128 62.8108 48.9307 62.7299 49.0534 62.7527C49.176 62.7755 49.257 62.8936 49.2341 63.0161Z" fill="#E11B2E"/>
<path d="M53.3569 43.1929L53.9285 42.9912L54.389 43.3853L53.3569 43.1929Z" fill="#110F0E"/>
<path d="M50.3482 46.1597L50.1465 45.5883L50.5405 45.1278L50.3482 46.1597Z" fill="#110F0E"/>
<path d="M56.3169 46.2956L56.5186 46.8671L56.1245 47.3276L56.3169 46.2956Z" fill="#110F0E"/>
<path d="M53.2972 49.2464L52.7256 49.4482L52.2651 49.0542L53.2972 49.2464Z" fill="#110F0E"/>
</svg>
