<svg width="107" height="94" viewBox="0 0 107 94" fill="none" xmlns="http://www.w3.org/2000/svg">
<rect x="1.53027" y="1.5" width="103.343" height="91" rx="14.5" fill="white" stroke="#ADC6F7" stroke-width="3"/>
<path d="M56.75 39.6674C55.8858 41.5513 54.3597 45.2829 54.2209 48.3181H51.9694C51.8307 45.2847 50.3045 41.5531 49.4404 39.6693C50.5685 40.4054 52.1172 40.5922 53.0959 40.632C53.9359 40.5976 55.2012 40.4543 56.2568 39.9448C56.4287 39.8614 56.5931 39.7708 56.75 39.6674Z" fill="#D3D1CB"/>
<path d="M53.0957 72C48.3951 69.9348 51.2061 54.1602 51.8953 49.8901C51.9722 49.3987 51.9934 48.8711 51.9692 48.3199H54.2207C54.1951 48.8711 54.2162 49.3987 54.2961 49.8901C54.9823 54.1602 57.7948 69.9348 53.0957 72Z" fill="#6396E6"/>
<path d="M58.1568 37.0601C58.1568 38.3148 57.5642 39.1344 56.7498 39.6675C56.593 39.7708 56.4286 39.8615 56.2567 39.9449C55.2011 40.4544 53.9358 40.5976 53.0958 40.6321C52.1171 40.5922 50.5683 40.4054 49.4403 39.6693C48.626 39.1362 48.0303 38.3167 48.0303 37.0601C48.0303 33.7982 49.0844 25.1621 49.4689 22.1159C49.4885 21.9564 49.6831 21.9636 49.6967 22.125L50.5653 32.8681C50.5759 33.0258 50.7659 33.0294 50.7825 32.8735L51.8984 22.1957C51.915 22.0398 52.1035 22.0416 52.1171 22.1993L52.9993 32.859C53.0114 32.9986 53.1788 32.9986 53.1908 32.859L54.073 22.1993C54.0851 22.0416 54.2736 22.0398 54.2902 22.1957L55.4031 32.8191C55.4197 32.9841 55.6158 32.9805 55.6308 32.8173L56.4919 22.1413C56.504 21.9781 56.7016 21.9709 56.7227 22.1322C57.1087 25.1929 58.1568 33.8055 58.1568 37.0601Z" fill="#EDEBE3"/>
<path d="M52.7442 39.3938C52.7442 39.3938 52.1968 39.3104 50.2484 39.0239C48.2985 38.7356 48.6408 35.9814 48.6408 35.9814L49.4401 23.9781L50.6812 36.5163L52.1289 29.8565L52.7442 39.3938Z" fill="#F8F7F4"/>
</svg>
