<svg width="900" height="500" viewBox="0 0 900 500" fill="none" xmlns="http://www.w3.org/2000/svg">
<path d="M0 500H900V-3.05176e-05H0V500Z" fill="#DEE8FC"/>
<path d="M655.078 308.407C655.078 308.407 644.423 282.38 655.87 253.247C655.87 253.247 663.215 274.417 655.078 308.407Z" fill="#02A595"/>
<path d="M657.268 312.065C657.268 312.065 651.58 284.522 668.185 257.992C668.185 257.992 671.513 280.152 657.268 312.065Z" fill="#02A595"/>
<path d="M651.108 314.345C651.108 314.345 635.803 290.752 641.635 260.002C641.635 260.002 652.788 279.437 651.108 314.345Z" fill="#06BFAD"/>
<path d="M656.393 309.613C656.393 309.613 648.795 289.598 660.34 268.798C660.34 268.798 665.388 284.988 656.393 309.613Z" fill="#06BFAD"/>
<path d="M655.177 310.682C655.177 310.682 642.267 293.605 647.51 270.4C647.51 270.4 656.897 284.522 655.177 310.682Z" fill="#2BD8C3"/>
<path d="M655.46 310.732C655.46 310.732 637.41 299.22 634.245 275.642C634.245 275.642 647.963 285.61 655.46 310.732Z" fill="#02A595"/>
<path d="M655.743 313.615C655.743 313.615 655.46 292.208 673.43 276.623C673.43 276.623 672.628 293.56 655.743 313.615Z" fill="#2BD8C3"/>
<path d="M655.113 300.257H644.398C643.665 300.257 643.125 300.942 643.293 301.655L647.2 318.092C647.32 318.605 647.778 318.965 648.303 318.965H654.368H655.113H661.175C661.703 318.965 662.158 318.605 662.28 318.092L666.188 301.655C666.355 300.942 665.815 300.257 665.083 300.257H655.113Z" fill="#FEB546"/>
<path d="M661.175 318.965H648.303C647.778 318.965 647.32 318.605 647.2 318.092L643.293 301.655C643.273 301.567 643.263 301.477 643.263 301.39C643.263 301.477 643.273 301.567 643.293 301.655L647.2 318.092C647.32 318.605 647.778 318.965 648.303 318.965H654.368H655.113H661.175C661.703 318.965 662.158 318.605 662.28 318.092L662.425 317.485L662.28 318.092C662.158 318.605 661.703 318.965 661.175 318.965Z" fill="#C0DAE8"/>
<path d="M661.175 318.965H648.303C647.778 318.965 647.32 318.605 647.2 318.092L643.293 301.655C643.273 301.567 643.263 301.477 643.263 301.39C643.263 300.782 643.755 300.257 644.398 300.257H645.328C647.975 307.692 655.11 313.392 662.425 317.485L662.28 318.092C662.158 318.605 661.703 318.965 661.175 318.965Z" fill="#F2A940"/>
<path d="M726.617 237.432C726.592 236.71 726.477 235.815 726.19 234.738C726.48 235.813 726.595 236.71 726.62 237.432C726.62 237.432 726.62 237.432 726.617 237.432Z" fill="#E8B2B4"/>
<path d="M735.722 230.782L735.285 229.597C735.285 229.595 735.285 229.595 735.287 229.592L735.725 230.77C735.725 230.772 735.722 230.777 735.722 230.782Z" fill="#FD7982"/>
<path d="M638.648 319.007L622.795 461.647H625.298L647.268 322.932L638.648 319.007Z" fill="#3D3A55"/>
<path d="M752.14 319.007L767.99 461.647H765.488L743.518 322.932L752.14 319.007Z" fill="#3D3A55"/>
<path d="M755.405 323.655H635.383C635.188 323.655 635.033 323.5 635.033 323.305V319.315C635.033 319.122 635.188 318.965 635.383 318.965H755.405C755.598 318.965 755.755 319.122 755.755 319.315V323.305C755.755 323.5 755.598 323.655 755.405 323.655Z" fill="#3D3A55"/>
<path d="M755.405 356.675H635.383C635.188 356.675 635.033 356.518 635.033 356.325V352.335C635.033 352.14 635.188 351.985 635.383 351.985H755.405C755.598 351.985 755.755 352.14 755.755 352.335V356.325C755.755 356.518 755.598 356.675 755.405 356.675Z" fill="#3D3A55"/>
<path d="M631.203 325.952C630.295 309.757 619.063 295.985 603.378 291.847C575.288 284.437 524.585 275.53 450.355 279.077C376.123 275.53 325.42 284.437 297.33 291.847C281.645 295.985 270.413 309.757 269.505 325.952L267.705 358.03L279.25 376.802L292.565 420.075L419.883 428.442L420.745 432.39L450.355 430.445L479.963 432.39L480.825 428.442L608.143 420.075L621.458 376.802L633.003 358.03L631.203 325.952Z" fill="#67A2DA"/>
<path d="M606.199 464.045H609.119L601.837 440.63L599.094 441.202L606.199 464.045Z" fill="#3D3A55"/>
<path d="M293.992 464.045H291.072L298.354 440.63L301.097 441.202L293.992 464.045Z" fill="#3D3A55"/>
<path d="M596.945 403.355H303.763C300.16 403.355 297.24 400.432 297.24 396.83V396.565C297.24 392.962 300.16 390.04 303.763 390.04H596.945C600.548 390.04 603.467 392.962 603.467 396.565V396.83C603.467 400.432 600.548 403.355 596.945 403.355Z" fill="#B7DBFF"/>
<path d="M613.733 351.095H613.73C604.57 351.095 597.145 358.522 597.145 367.682V403.355H303.565V367.682C303.565 358.522 296.138 351.095 286.978 351.095C272.608 351.095 260.958 362.745 260.958 377.115V430.315C260.958 438.22 267.365 444.63 275.27 444.63H299.57H303.565H597.145H601.138H625.438C633.343 444.63 639.75 438.22 639.75 430.315V377.115C639.75 362.745 628.1 351.095 613.733 351.095Z" fill="#8FBCE6"/>
<path d="M625.713 447.125H274.423C273.748 447.125 273.2 446.577 273.2 445.902V445.852C273.2 445.177 273.748 444.63 274.423 444.63H625.713C626.388 444.63 626.935 445.177 626.935 445.852V445.902C626.935 446.577 626.388 447.125 625.713 447.125Z" fill="#3D3A55"/>
<path d="M172.773 211.655H182.531V172.177H172.773V211.655Z" fill="#A0D3F9"/>
<path d="M228.721 211.19H268.2V203.435H228.721V211.19Z" fill="white"/>
<path d="M233.974 203.41H273.453V195.654H233.974V203.41Z" fill="#77BDF5"/>
<path d="M225.803 195.822V188.067H265.283V195.822H225.803Z" fill="#97CEF7"/>
<path d="M193.816 211.073H183.837V156.275H193.816V211.073Z" fill="white"/>
<path d="M171.613 211.073H162.422V162.315H171.613V211.073Z" fill="#97CEF7"/>
<path d="M223.472 206.585L215.212 210.617L193.822 166.802L202.082 162.77L223.472 206.585Z" fill="#97CEF7"/>
<path d="M299.993 157.947C297.573 157.947 295.61 159.91 295.61 162.33V167.212C295.61 168.107 294.883 168.835 293.988 168.835H291.983V159.94C291.983 156.695 289.353 154.065 286.108 154.065C282.863 154.065 280.233 156.695 280.233 159.94V178.66H279.103C277.673 178.66 276.515 177.502 276.515 176.072V172.155C276.515 169.735 274.553 167.772 272.133 167.772C269.713 167.772 267.75 169.735 267.75 172.155V178.66C267.75 183.5 271.675 187.425 276.515 187.425H280.233V198.605H291.983V177.6H295.61C300.45 177.6 304.375 173.675 304.375 168.835V162.33C304.375 159.91 302.413 157.947 299.993 157.947Z" fill="#97CEF7"/>
<path d="M280.232 159.913C280.232 159.91 280.232 159.908 280.232 159.903C280.232 159.908 280.232 159.91 280.232 159.913ZM280.232 159.893C280.232 159.89 280.232 159.888 280.232 159.885C280.232 159.888 280.232 159.89 280.232 159.893ZM280.232 159.85V159.848V159.85ZM280.232 159.833C280.232 159.83 280.232 159.83 280.232 159.828C280.232 159.83 280.232 159.83 280.232 159.833ZM280.232 159.813V159.81V159.813ZM280.232 159.795C280.232 159.793 280.232 159.793 280.232 159.79C280.232 159.793 280.232 159.793 280.232 159.795ZM280.235 159.775V159.773V159.775ZM280.235 159.755C280.235 159.755 280.235 159.755 280.235 159.753C280.235 159.755 280.235 159.755 280.235 159.755ZM280.235 159.74C280.235 159.738 280.235 159.735 280.235 159.735C280.235 159.735 280.235 159.738 280.235 159.74ZM280.235 159.72C280.235 159.718 280.235 159.718 280.235 159.715C280.235 159.718 280.235 159.718 280.235 159.72ZM280.237 159.7C280.237 159.698 280.237 159.698 280.237 159.698V159.7ZM280.237 159.683C280.237 159.68 280.237 159.68 280.237 159.678C280.237 159.68 280.237 159.68 280.237 159.683ZM280.237 159.663V159.66V159.663ZM280.24 159.625V159.623V159.625ZM280.242 159.588V159.585V159.588Z" fill="#A0D3F9"/>
<path d="M286.018 198.605H280.233V187.425H276.515C271.675 187.425 267.75 183.5 267.75 178.66V172.155C267.75 169.735 269.713 167.772 272.133 167.772C274.553 167.772 276.515 169.735 276.515 172.155V176.072C276.515 177.502 277.673 178.66 279.103 178.66H280.233V159.94C280.233 159.932 280.233 159.922 280.233 159.912C280.233 159.91 280.233 159.907 280.233 159.902C280.233 159.9 280.233 159.897 280.233 159.892C280.233 159.89 280.233 159.887 280.233 159.885C280.233 159.872 280.233 159.862 280.233 159.85V159.847C280.233 159.842 280.233 159.837 280.233 159.832C280.233 159.83 280.233 159.83 280.233 159.827C280.233 159.822 280.233 159.817 280.233 159.812V159.81C280.233 159.805 280.233 159.8 280.233 159.795C280.233 159.792 280.233 159.792 280.233 159.79C280.233 159.785 280.233 159.78 280.235 159.775V159.772C280.235 159.767 280.235 159.762 280.235 159.755C280.235 159.755 280.235 159.755 280.235 159.752C280.235 159.747 280.235 159.745 280.235 159.74C280.235 159.737 280.235 159.735 280.235 159.735C280.235 159.73 280.235 159.725 280.235 159.72C280.235 159.717 280.235 159.717 280.235 159.715C280.235 159.71 280.235 159.705 280.238 159.7V159.697C280.238 159.692 280.238 159.687 280.238 159.682C280.238 159.68 280.238 159.68 280.238 159.677C280.238 159.672 280.238 159.667 280.238 159.662V159.66C280.238 159.647 280.24 159.637 280.24 159.625V159.622C280.24 159.617 280.24 159.61 280.24 159.605C280.243 159.597 280.243 159.592 280.243 159.587V159.585C280.425 156.535 282.933 154.117 286.018 154.07V198.605Z" fill="#78BAF3"/>
<path d="M312.982 215.255H155.128V210.795H312.982V215.255Z" fill="#3D3A55"/>
<path d="M360.933 213.08H418.968V155.046H360.933V213.08Z" fill="#3D3A55"/>
<path d="M366.88 207.133H413.02V160.992H366.88V207.133Z" fill="#97CEF7"/>
<path d="M491.183 149.333H433.15V91.3H491.183V149.333Z" fill="#3D3A55"/>
<path d="M485.238 143.385H439.095V97.2449H485.238V143.385Z" fill="#97CEF7"/>
<path d="M477.213 244.31H551.208V170.315H477.213V244.31Z" fill="#3D3A55"/>
<path d="M484.792 236.73H543.625V177.898H484.792V236.73Z" fill="#97CEF7"/>
<path d="M288.522 210.795H283.242C280.105 210.795 277.56 208.252 277.56 205.112V198.605H294.205V205.112C294.205 208.252 291.66 210.795 288.522 210.795Z" fill="white"/>
<path d="M617.97 165.707H527.295L568.942 73.6999H659.617L617.97 165.707Z" fill="#D9F0FE"/>
<path d="M722.47 165.707H631.795L673.442 73.6999H764.117L722.47 165.707Z" fill="#D9F0FE"/>
<path d="M572.148 266.932H485.373L484.728 259.74L488.303 251.847C488.303 251.847 489 250.5 493 244.31H551.208V174.925H613.795L572.148 266.932Z" fill="#D9F0FE"/>
<path d="M551.207 244.31H493C493.655 243.48 494.135 242.445 494.5 241.5C494.5 241.5 495.5 240 496 236.73H543.625V177.897H521.775L523.12 174.925H551.207V244.31Z" fill="#787588"/>
<path d="M543.625 236.73H496C496.5 235 497.5 233 498.242 229.885L521.775 177.897H543.625V236.73Z" fill="#B6DDF9"/>
<path d="M676.65 266.932H668.48C668.668 261.2 668.185 257.992 668.185 257.992C666.318 260.972 664.735 263.965 663.393 266.932H658.42C657.558 258.115 655.87 253.247 655.87 253.247C654.033 257.92 652.765 262.512 651.933 266.932H644.69C642.993 262.367 641.635 260.002 641.635 260.002C641.188 262.355 640.865 264.67 640.65 266.932H585.973L627.623 174.925H718.298L676.65 266.932Z" fill="#D9F0FE"/>
<path d="M658.42 266.932H651.932C652.765 262.512 654.032 257.92 655.87 253.247C655.87 253.247 657.557 258.115 658.42 266.932Z" fill="#4EC0B5"/>
<path d="M668.48 266.932H663.392C664.735 263.965 666.317 260.972 668.185 257.992C668.185 257.992 668.667 261.2 668.48 266.932Z" fill="#4EC0B5"/>
<path d="M644.69 266.932H640.65C640.865 264.67 641.187 262.355 641.635 260.002C641.635 260.002 642.992 262.367 644.69 266.932Z" fill="#51D2C6"/>
<path d="M160.343 398.042C160.157 394.725 159.596 391.39 160.061 388.102C160.453 385.325 161.561 382.707 162.352 380.015C163.835 374.972 164.203 369.68 164.562 364.435C165.214 354.902 165.867 345.367 166.52 335.835C167.534 321.017 168.554 306.155 171.331 291.565C172.101 287.512 172.967 283.122 171.142 279.425C170.758 278.645 170.001 277.817 169.171 278.077C168.58 278.262 168.29 278.912 168.076 279.492C162.007 295.952 159.713 313.672 152.939 329.855C151.316 333.732 149.428 337.545 148.588 341.662C147.579 346.607 148.133 351.715 148.264 356.76C148.45 363.995 147.745 371.285 145.743 378.24C144.695 381.877 143.293 385.435 142.719 389.177C142.003 393.845 142.604 398.597 143.052 403.297C143.913 412.332 144.205 421.425 143.925 430.497C143.761 435.83 148.273 435.69 151.262 432.415C153.352 430.122 153.333 427.607 154.048 424.752C156.398 415.387 160.914 408.195 160.343 398.042Z" fill="#02A595"/>
<path d="M150.654 392.192C148.807 385.81 145.94 379.732 144.504 373.245C143.11 366.952 143.099 360.447 143.094 354.002C143.089 346.94 143.084 339.88 143.079 332.817C143.076 328.42 143.071 324 142.343 319.665C140.777 310.335 135.918 301.707 135.095 292.285C134.739 288.21 135.152 284.09 134.703 280.025C134.447 277.702 133.85 275.33 132.772 273.27C131.613 271.055 128.412 271.152 127.362 273.422C125.002 278.525 123.505 284.04 124.459 289.507C125.031 292.787 126.454 295.845 127.517 299C132.249 313.047 129.737 328.6 133.399 342.965C134.504 347.302 136.175 351.552 136.37 356.025C136.835 366.725 128.827 376.497 129.562 387.182C130.164 395.942 136.475 403.192 139.124 411.562C140.607 416.25 140.925 421.252 142.514 425.905C143.748 429.517 146.618 433.907 151.077 432.81C155.31 431.77 154.031 428.32 153.842 425.027C153.202 413.887 153.804 403.077 150.654 392.192Z" fill="#2BD8C3"/>
<path d="M142.103 396.627C141.669 392.802 141.154 388.887 139.374 385.475C137.21 381.322 133.408 378.325 130.087 375.027C123.881 368.86 119.105 361.265 116.239 353C114.023 346.607 112.918 339.8 109.863 333.765C107.998 330.08 105.455 326.785 103.336 323.237C98.3292 314.857 95.6042 304.952 88.8142 297.94C87.5075 306.442 90.0897 315.467 95.6972 321.995C97.3692 323.94 99.3087 325.695 100.583 327.922C102.895 331.967 102.685 336.9 102.956 341.55C103.465 350.29 105.933 358.91 110.126 366.595C114.581 374.757 121.011 382.027 123.393 391.017C125.178 397.752 124.647 405.31 128.453 411.147C128.865 411.78 129.337 412.417 129.438 413.165C129.495 413.585 129.429 414.012 129.363 414.43C129.278 414.972 129.193 415.515 129.108 416.057C128.242 421.572 127.348 428.587 132.095 432.712C135.386 435.572 139.62 435.637 141.984 431.837C144.363 428.012 144.152 422.415 143.975 418.11C143.681 410.942 142.912 403.755 142.103 396.627Z" fill="#06BFAD"/>
<path d="M171.516 413.97C172.659 411.02 173.812 408.03 174.189 404.89C174.608 401.397 174.052 397.825 174.65 394.36C175.419 389.902 178.022 385.982 179.311 381.647C180.242 378.517 180.471 375.23 181.03 372.012C182.628 362.81 186.963 353.82 185.719 344.565C185.448 342.552 184.538 340.205 182.536 339.862C180.723 339.552 179.073 341.205 178.602 342.982C178.131 344.76 178.482 346.635 178.612 348.47C178.972 353.585 177.51 358.81 174.546 362.995C171.699 367.015 167.568 370.042 165.005 374.25C161.862 379.412 161.434 385.712 159.831 391.54C156.641 403.127 148.642 413.235 147.183 425.165C146.603 429.912 147.72 435.682 152.11 437.577C164.807 443.062 168.64 421.392 171.516 413.97Z" fill="#06BFAD"/>
<path d="M132.154 412.505C128.165 406.107 120.216 402.472 117.666 395.375C117.018 393.57 116.764 391.63 115.971 389.882C114.21 386.002 110.208 383.807 106.272 382.022C105.726 381.775 105.105 382.17 105.096 382.77C105.083 383.725 105.536 384.635 106.329 385.167C109.36 387.202 111.664 390.317 112.69 393.825C113.905 397.982 113.378 402.542 114.889 406.602C116.157 410.01 118.769 412.797 119.995 416.22C121.117 419.35 120.999 422.77 121.526 426.052C122.053 429.335 123.514 432.817 126.534 434.207C137.463 439.232 134.731 416.637 132.154 412.505Z" fill="#02A595"/>
<path d="M177.608 410.395C177.438 413.487 177.912 416.73 176.699 419.58C175.923 421.402 174.527 422.877 173.382 424.495C169.359 430.172 167.9 438.22 161.718 441.415C161.311 441.627 160.856 441.815 160.404 441.73C159.771 441.612 159.356 441.005 159.101 440.412C157.586 436.89 159.286 432.92 160.293 429.217C160.469 428.57 160.617 427.85 160.308 427.252C159.967 426.597 159.192 426.315 158.662 425.8C157.606 424.775 157.705 423.08 157.915 421.622C158.439 417.982 159.176 414.372 160.12 410.82C160.655 408.805 161.274 406.77 162.437 405.04C163.718 403.135 165.579 401.715 167.32 400.22C175.017 393.61 180.913 384.925 184.214 375.332C184.928 373.257 185.565 371.065 187.041 369.437C188.516 367.812 191.147 366.975 192.944 368.237C194.223 369.135 188.985 377.542 188.375 378.55C186.63 381.43 186.606 383.937 185.62 387.137C183.203 394.977 178.071 401.995 177.608 410.395Z" fill="#02A595"/>
<path d="M115.506 423.702H179.741C182.054 423.702 183.881 425.712 183.609 428.01C182.029 441.345 173.203 452.455 161.18 457.31H164.696C166.384 457.31 167.857 458.612 167.908 460.3C167.96 462.047 166.56 463.48 164.825 463.48H130.552C128.863 463.48 127.39 462.177 127.34 460.49C127.287 458.742 128.687 457.31 130.422 457.31H134.068C122.045 452.455 113.219 441.345 111.639 428.01C111.366 425.712 113.194 423.702 115.506 423.702Z" fill="white"/>
<path d="M164.825 463.48H130.552C129.081 463.48 127.774 462.492 127.428 461.12C127.376 460.917 127.346 460.707 127.34 460.49C127.339 460.455 127.338 460.422 127.338 460.387C127.342 458.687 128.721 457.31 130.422 457.31H134.068C122.045 452.455 113.219 441.345 111.639 428.01C111.62 427.857 111.612 427.705 111.612 427.557C111.611 425.455 113.347 423.702 115.506 423.702H117.775C124.251 433.255 135.194 439.532 147.604 439.532C160.014 439.532 170.957 433.255 177.433 423.702H179.741C181.9 423.702 183.636 425.455 183.636 427.557C183.636 427.705 183.627 427.857 183.609 428.01C182.029 441.345 173.203 452.455 161.18 457.31H164.696C166.384 457.31 167.857 458.612 167.908 460.3C167.909 460.332 167.91 460.367 167.91 460.402C167.906 461.745 167.043 462.887 165.842 463.307C165.523 463.417 165.181 463.48 164.825 463.48Z" fill="#EFF9FE"/>
<path d="M386.9 174.867C386.903 174.865 386.903 174.86 386.905 174.857C386.905 174.86 386.903 174.865 386.9 174.867ZM386.918 174.83C386.92 174.825 386.923 174.82 386.925 174.815C386.923 174.82 386.92 174.825 386.918 174.83ZM386.933 174.792C386.935 174.787 386.938 174.78 386.943 174.775C386.938 174.78 386.935 174.787 386.933 174.792ZM386.95 174.757C386.953 174.75 386.955 174.745 386.958 174.737C386.955 174.745 386.953 174.75 386.95 174.757ZM386.965 174.72C386.968 174.712 386.973 174.707 386.975 174.7C386.973 174.707 386.968 174.715 386.965 174.72ZM386.983 174.685C386.985 174.677 386.988 174.67 386.99 174.665C386.988 174.67 386.985 174.677 386.983 174.685ZM386.998 174.647C387 174.64 387.005 174.635 387.008 174.627C387.005 174.635 387 174.64 386.998 174.647ZM387.013 174.612C387.018 174.605 387.02 174.597 387.023 174.592C387.02 174.597 387.018 174.605 387.013 174.612ZM387.03 174.577C387.033 174.57 387.038 174.562 387.04 174.555C387.038 174.562 387.033 174.57 387.03 174.577ZM387.048 174.54C387.05 174.535 387.053 174.527 387.055 174.52C387.053 174.527 387.05 174.535 387.048 174.54ZM387.063 174.505C387.065 174.497 387.07 174.49 387.073 174.482C387.07 174.49 387.065 174.497 387.063 174.505ZM387.08 174.47C387.083 174.462 387.085 174.455 387.09 174.45C387.085 174.455 387.083 174.462 387.08 174.47ZM387.095 174.435C387.1 174.427 387.103 174.42 387.105 174.412C387.103 174.42 387.1 174.427 387.095 174.435ZM387.113 174.4C387.115 174.392 387.118 174.385 387.123 174.377C387.118 174.385 387.115 174.392 387.113 174.4ZM387.128 174.365C387.133 174.357 387.135 174.35 387.14 174.342C387.135 174.35 387.133 174.357 387.128 174.365ZM387.145 174.332C387.148 174.325 387.153 174.315 387.155 174.307C387.153 174.315 387.148 174.325 387.145 174.332ZM387.16 174.297C387.165 174.29 387.168 174.28 387.173 174.272C387.168 174.28 387.165 174.29 387.16 174.297ZM387.178 174.262C387.18 174.255 387.185 174.247 387.188 174.24C387.185 174.247 387.18 174.255 387.178 174.262ZM387.193 174.227C387.198 174.22 387.203 174.212 387.205 174.205C387.203 174.212 387.198 174.22 387.193 174.227ZM387.21 174.195C387.213 174.187 387.218 174.18 387.223 174.17C387.218 174.18 387.213 174.187 387.21 174.195ZM387.228 174.16C387.23 174.152 387.235 174.145 387.24 174.135C387.235 174.145 387.23 174.152 387.228 174.16ZM387.24 174.132C387.245 174.122 387.25 174.112 387.255 174.102C387.25 174.112 387.245 174.122 387.24 174.132ZM387.258 174.1C387.288 174.037 387.32 173.972 387.353 173.91C387.32 173.972 387.288 174.037 387.258 174.1ZM387.355 173.905C387.36 173.895 387.365 173.885 387.37 173.877C387.365 173.887 387.36 173.895 387.355 173.905ZM387.373 173.872C387.378 173.862 387.383 173.855 387.385 173.847C387.383 173.855 387.378 173.862 387.373 173.872ZM387.39 173.84C387.395 173.83 387.4 173.822 387.403 173.812C387.4 173.822 387.395 173.83 387.39 173.84ZM387.408 173.807C387.41 173.8 387.415 173.792 387.42 173.782C387.415 173.792 387.41 173.8 387.408 173.807ZM387.425 173.772C387.428 173.765 387.433 173.76 387.435 173.752C387.433 173.76 387.428 173.765 387.425 173.772ZM387.443 173.74C387.445 173.732 387.45 173.727 387.453 173.72C387.45 173.727 387.445 173.735 387.443 173.74ZM387.46 173.707C387.463 173.7 387.468 173.695 387.47 173.687C387.468 173.695 387.463 173.7 387.46 173.707ZM387.475 173.677C387.48 173.67 387.483 173.662 387.488 173.655C387.483 173.662 387.48 173.67 387.475 173.677ZM387.493 173.645C387.498 173.637 387.5 173.63 387.505 173.622C387.5 173.63 387.498 173.637 387.493 173.645ZM387.51 173.612C387.515 173.605 387.518 173.6 387.523 173.592C387.518 173.6 387.515 173.605 387.51 173.612ZM387.528 173.58C387.533 173.572 387.535 173.567 387.54 173.56C387.535 173.567 387.533 173.572 387.528 173.58ZM387.545 173.55C387.55 173.542 387.553 173.535 387.558 173.53C387.553 173.535 387.55 173.542 387.545 173.55ZM387.565 173.515C387.568 173.51 387.57 173.505 387.573 173.497C387.57 173.505 387.568 173.51 387.565 173.515ZM387.58 173.485C387.585 173.48 387.588 173.472 387.59 173.467C387.588 173.472 387.585 173.477 387.58 173.485ZM387.598 173.455C387.603 173.447 387.605 173.442 387.61 173.435C387.605 173.442 387.603 173.447 387.598 173.455ZM387.615 173.425C387.62 173.417 387.623 173.41 387.625 173.405C387.623 173.41 387.62 173.417 387.615 173.425ZM387.633 173.392C387.638 173.385 387.64 173.38 387.645 173.372C387.64 173.38 387.638 173.385 387.633 173.392ZM387.65 173.362C387.655 173.355 387.658 173.35 387.663 173.342C387.658 173.35 387.655 173.355 387.65 173.362ZM387.665 173.335C387.675 173.317 387.688 173.3 387.698 173.28C387.688 173.3 387.675 173.317 387.665 173.335ZM387.698 173.28C387.713 173.252 387.73 173.225 387.745 173.197C387.73 173.225 387.713 173.252 387.698 173.28ZM387.75 173.192C387.753 173.185 387.758 173.18 387.76 173.172C387.758 173.18 387.753 173.185 387.75 173.192ZM387.768 173.162C387.77 173.155 387.773 173.15 387.778 173.145C387.773 173.152 387.77 173.155 387.768 173.162ZM387.785 173.13C387.788 173.127 387.79 173.122 387.793 173.117C387.79 173.122 387.788 173.127 387.785 173.13ZM387.803 173.102C387.808 173.095 387.81 173.09 387.813 173.085C387.81 173.09 387.808 173.095 387.803 173.102ZM387.82 173.072C387.825 173.067 387.828 173.062 387.83 173.057C387.828 173.062 387.825 173.067 387.82 173.072ZM387.84 173.042C387.843 173.037 387.845 173.032 387.848 173.027C387.845 173.032 387.843 173.037 387.84 173.042ZM387.858 173.012C387.86 173.007 387.863 173.005 387.865 173C387.863 173.005 387.86 173.007 387.858 173.012ZM387.875 172.982C387.878 172.977 387.88 172.972 387.885 172.97C387.88 172.975 387.878 172.977 387.875 172.982ZM387.893 172.955C387.895 172.95 387.898 172.945 387.903 172.94C387.898 172.945 387.895 172.95 387.893 172.955ZM387.913 172.925C387.915 172.92 387.918 172.915 387.92 172.912C387.918 172.917 387.915 172.92 387.913 172.925ZM387.93 172.895C387.933 172.89 387.935 172.887 387.938 172.882C387.935 172.887 387.933 172.89 387.93 172.895ZM387.948 172.865C387.95 172.862 387.953 172.857 387.955 172.852C387.953 172.857 387.95 172.862 387.948 172.865ZM387.965 172.837C387.968 172.835 387.97 172.83 387.975 172.825C387.97 172.83 387.968 172.832 387.965 172.837ZM387.985 172.807C387.988 172.805 387.99 172.802 387.993 172.797C387.99 172.802 387.988 172.805 387.985 172.807ZM388.005 172.777C388.005 172.775 388.008 172.772 388.01 172.77C388.008 172.772 388.005 172.775 388.005 172.777ZM388.023 172.75C388.025 172.747 388.025 172.745 388.028 172.74C388.028 172.745 388.025 172.747 388.023 172.75ZM388.04 172.72C388.043 172.717 388.045 172.715 388.045 172.712C388.045 172.715 388.043 172.717 388.04 172.72ZM388.06 172.692C388.063 172.69 388.063 172.687 388.065 172.685C388.063 172.687 388.063 172.69 388.06 172.692ZM388.08 172.662C388.08 172.66 388.083 172.66 388.083 172.657C388.083 172.66 388.08 172.66 388.08 172.662ZM388.098 172.635C388.1 172.632 388.1 172.63 388.103 172.63C388.1 172.63 388.1 172.632 388.098 172.635ZM388.25 172.41C388.253 172.407 388.253 172.407 388.253 172.405C388.253 172.407 388.253 172.407 388.25 172.41ZM388.27 172.382C388.27 172.38 388.27 172.38 388.27 172.38C388.27 172.38 388.27 172.38 388.27 172.382ZM388.288 172.355C388.29 172.355 388.29 172.352 388.29 172.352C388.29 172.352 388.29 172.355 388.288 172.355ZM388.325 172.302C388.328 172.3 388.328 172.3 388.328 172.3C388.328 172.3 388.328 172.3 388.325 172.302ZM388.345 172.275C388.345 172.275 388.345 172.272 388.348 172.272L388.345 172.275ZM388.365 172.25C388.365 172.247 388.365 172.247 388.365 172.247C388.365 172.247 388.365 172.247 388.365 172.25ZM388.383 172.222L388.385 172.22C388.385 172.22 388.385 172.222 388.383 172.222ZM388.403 172.197C388.403 172.195 388.403 172.195 388.405 172.192C388.403 172.195 388.403 172.195 388.403 172.197ZM388.423 172.17C388.423 172.17 388.423 172.17 388.423 172.167C388.423 172.17 388.423 172.17 388.423 172.17ZM388.44 172.142C388.44 172.142 388.44 172.142 388.443 172.142C388.44 172.142 388.44 172.142 388.44 172.142ZM390.625 169.955C390.628 169.952 390.628 169.952 390.63 169.952C390.628 169.952 390.628 169.952 390.625 169.955ZM390.645 169.94C390.645 169.94 390.648 169.94 390.648 169.937C390.648 169.94 390.645 169.94 390.645 169.94ZM390.663 169.927C390.665 169.925 390.668 169.925 390.668 169.922C390.668 169.925 390.665 169.925 390.663 169.927ZM390.683 169.915C390.685 169.912 390.685 169.91 390.688 169.91C390.685 169.91 390.685 169.912 390.683 169.915ZM390.7 169.902C390.703 169.9 390.705 169.897 390.71 169.895C390.705 169.897 390.703 169.9 390.7 169.902ZM390.72 169.887C390.723 169.885 390.725 169.885 390.728 169.882C390.725 169.885 390.723 169.885 390.72 169.887ZM390.738 169.875C390.74 169.872 390.745 169.87 390.748 169.867C390.745 169.87 390.74 169.872 390.738 169.875ZM390.758 169.862C390.76 169.86 390.763 169.857 390.765 169.855C390.763 169.857 390.76 169.86 390.758 169.862ZM390.775 169.85C390.778 169.847 390.783 169.845 390.785 169.842C390.783 169.845 390.778 169.847 390.775 169.85ZM390.793 169.837C390.798 169.835 390.8 169.832 390.803 169.83C390.8 169.832 390.798 169.835 390.793 169.837ZM390.813 169.825C390.815 169.822 390.82 169.82 390.823 169.817C390.82 169.82 390.815 169.822 390.813 169.825ZM390.83 169.812C390.835 169.81 390.838 169.807 390.843 169.805C390.838 169.807 390.835 169.81 390.83 169.812ZM390.848 169.8C390.853 169.797 390.858 169.795 390.86 169.792C390.858 169.795 390.853 169.797 390.848 169.8ZM390.865 169.79C390.87 169.785 390.875 169.782 390.88 169.78C390.875 169.782 390.87 169.785 390.865 169.79ZM390.883 169.777C391.16 169.592 391.433 169.437 391.695 169.305C391.433 169.437 391.16 169.592 390.883 169.777Z" fill="#8DC9F6"/>
<path d="M435.817 458.067L435.377 454.077C435.377 454.08 435.377 454.08 435.377 454.082L435.817 458.067Z" fill="#C4C5C8"/>
<path d="M387.628 459.65C387.625 459.65 387.625 459.65 387.625 459.65C387.625 459.65 387.625 459.65 387.628 459.65ZM387.625 459.645H387.623H387.625ZM387.623 459.64C387.623 459.64 387.623 459.64 387.62 459.64H387.623Z" fill="#C9D3C7"/>
<path d="M304.135 421.137C304.137 421.127 304.137 421.117 304.14 421.105C304.137 421.117 304.137 421.127 304.135 421.137ZM304.14 421.105C304.14 421.095 304.142 421.085 304.142 421.075C304.142 421.085 304.14 421.095 304.14 421.105ZM304.142 421.075C304.145 421.065 304.145 421.055 304.147 421.045C304.145 421.055 304.145 421.065 304.142 421.075ZM304.147 421.045C304.167 420.89 304.19 420.742 304.217 420.602C304.19 420.742 304.167 420.89 304.147 421.045Z" fill="#8FA9B5"/>
<path d="M304.217 420.603C304.272 420.305 304.342 420.04 304.425 419.8C304.342 420.038 304.272 420.305 304.217 420.603ZM304.425 419.798C304.427 419.79 304.43 419.785 304.432 419.78C304.43 419.785 304.427 419.79 304.425 419.798ZM304.435 419.77C304.435 419.765 304.437 419.763 304.437 419.76C304.437 419.763 304.435 419.765 304.435 419.77ZM304.442 419.745C304.445 419.743 304.445 419.74 304.445 419.74C304.445 419.74 304.445 419.743 304.442 419.745ZM304.45 419.723C304.452 419.723 304.452 419.72 304.452 419.72C304.452 419.72 304.452 419.723 304.45 419.723ZM304.457 419.703C304.46 419.7 304.46 419.7 304.46 419.7C304.46 419.7 304.46 419.7 304.457 419.703Z" fill="#070747"/>
<path d="M256.535 450.98C255.1 450.93 253.665 450.775 252.935 450.392L238.262 404.517L252.935 450.392C253.618 450.735 254.945 450.897 256.53 450.95C256.533 450.96 256.533 450.97 256.535 450.98Z" fill="#C9BDD6"/>
<path d="M257.702 450.997C257.322 450.997 256.93 450.992 256.535 450.98C256.532 450.97 256.532 450.96 256.53 450.95C256.952 450.962 257.395 450.97 257.845 450.97C258.73 450.97 259.655 450.945 260.57 450.907C260.382 450.92 259.152 450.997 257.702 450.997Z" fill="#FF9B9E"/>
<path d="M842.2 468.027H90.3186C88.4148 468.027 86.8713 466.485 86.8713 464.58C86.8713 462.677 88.4148 461.132 90.3186 461.132H842.2C844.105 461.132 845.648 462.677 845.648 464.58C845.648 466.485 844.105 468.027 842.2 468.027Z" fill="#333333"/>
<path d="M489.38 311.695L489.25 310.24L489.38 311.695Z" fill="#6783B9"/>
<path d="M419.33 220.753C419.33 220.75 419.33 220.75 419.33 220.75C419.33 220.75 419.33 220.75 419.33 220.753ZM419.33 220.748C419.33 220.748 419.33 220.748 419.33 220.745C419.33 220.748 419.33 220.748 419.33 220.748ZM419.33 220.745C419.33 220.745 419.33 220.745 419.33 220.743C419.33 220.745 419.33 220.745 419.33 220.745ZM419.33 220.743C419.33 220.743 419.33 220.74 419.333 220.74C419.33 220.74 419.33 220.743 419.33 220.743ZM419.333 220.74V220.738V220.74ZM419.333 220.738C419.333 220.735 419.333 220.735 419.333 220.735C419.333 220.735 419.333 220.735 419.333 220.738ZM419.333 220.733C419.335 220.733 419.335 220.733 419.335 220.73C419.335 220.733 419.335 220.733 419.333 220.733ZM419.335 220.73V220.728V220.73ZM419.338 220.728V220.725V220.728ZM419.338 220.725C419.34 220.723 419.34 220.723 419.34 220.72C419.34 220.723 419.34 220.723 419.338 220.725ZM419.34 220.72C419.34 220.72 419.343 220.72 419.343 220.718C419.343 220.72 419.34 220.72 419.34 220.72ZM419.343 220.718C419.343 220.715 419.345 220.713 419.348 220.71C419.345 220.713 419.343 220.715 419.343 220.718ZM419.348 220.71C419.348 220.71 419.35 220.71 419.35 220.708C419.35 220.71 419.348 220.71 419.348 220.71ZM419.35 220.708C419.35 220.705 419.353 220.705 419.353 220.705C419.353 220.705 419.35 220.705 419.35 220.708ZM419.353 220.705C419.7 220.305 423.955 219.11 429.428 217.705C423.955 219.11 419.7 220.305 419.353 220.705ZM429.59 217.663C429.6 217.66 429.608 217.658 429.618 217.658C429.61 217.658 429.6 217.66 429.59 217.663Z" fill="#C9BDD6"/>
</svg>
