<svg width="107" height="95" viewBox="0 0 107 95" fill="none" xmlns="http://www.w3.org/2000/svg">
<rect x="1.82812" y="1.98389" width="103.343" height="91" rx="14.5" fill="white" stroke="#ADC6F7" stroke-width="3"/>
<path d="M78.3281 47.4841C78.3281 61.2911 67.1353 72.4839 53.3281 72.4839C39.5209 72.4839 28.3281 61.2911 28.3281 47.4841C28.3281 33.677 39.5209 22.4841 53.3281 22.4841C67.1353 22.4841 78.3281 33.677 78.3281 47.4841Z" fill="url(#paint0_linear_211_14350)"/>
<path d="M75.7829 47.9517C75.7829 60.2751 65.7927 70.2651 53.4692 70.2651C41.146 70.2651 31.1558 60.2751 31.1558 47.9517C31.1558 35.6282 41.146 25.6382 53.4692 25.6382C65.7927 25.6382 75.7829 35.6282 75.7829 47.9517Z" fill="url(#paint1_linear_211_14350)"/>
<path d="M73.5243 47.4207C73.5243 58.5745 64.4822 67.6167 53.3283 67.6167C42.1745 67.6167 33.1323 58.5745 33.1323 47.4207C33.1323 36.2669 42.1745 27.2247 53.3283 27.2247C64.4822 27.2247 73.5243 36.2669 73.5243 47.4207Z" fill="url(#paint2_radial_211_14350)"/>
<path d="M54.276 68.502H52.917V64.3616H54.276V68.502Z" fill="#EBEBEB"/>
<path d="M54.1498 30.1646H52.7905V26.0242H54.1498V30.1646Z" fill="#E8E8E8"/>
<path d="M70.3315 47.9897V46.6308H74.4719V47.9897H70.3315Z" fill="#E7E7E7"/>
<path d="M32.373 47.9263V46.5673H36.5134V47.9263H32.373Z" fill="#F2F2F2"/>
<path d="M62.7236 31.7075L61.8477 31.2018L62.4774 30.1111L63.3533 30.6169L62.7236 31.7075Z" fill="#E5E5E5"/>
<path d="M44.1713 64.8613L43.2954 64.3556L43.9254 63.2649L44.8013 63.7707L44.1713 64.8613Z" fill="#EFEFEF"/>
<path d="M36.8973 57.7998L36.3916 56.9239L37.4825 56.2942L37.9882 57.1701L36.8973 57.7998Z" fill="#F0F0F0"/>
<path d="M69.2239 38.361L68.7926 37.6141C68.7722 37.5787 68.7843 37.5332 68.82 37.5125L69.7819 36.9573C69.8174 36.9367 69.8629 36.9487 69.8835 36.9844L70.3148 37.7313C70.3354 37.767 70.3231 37.8126 70.2876 37.8329L69.3257 38.3884C69.29 38.4091 69.2445 38.3967 69.2239 38.361Z" fill="#E4E4E4"/>
<path d="M69.0093 57.0412L69.5281 56.1729L70.6094 56.8189L70.0906 57.687L69.0093 57.0412Z" fill="#E0E0E0"/>
<path d="M36.1357 37.9958L36.6545 37.1274L37.7359 37.7735L37.2171 38.6416L36.1357 37.9958Z" fill="#F1F1F1"/>
<path d="M43.3052 30.8278L44.1886 30.3351L44.802 31.4353L43.9185 31.9277L43.3052 30.8278Z" fill="#EFEFEF"/>
<path d="M62.1313 63.4767L63.0145 62.984L63.6279 64.0843L62.7447 64.5767L62.1313 63.4767Z" fill="#EFEFEF"/>
<path d="M48.997 58.6929C48.9195 58.741 47.8568 59.3976 47.7024 59.4167C47.6314 59.4255 47.5809 59.3988 47.5809 59.3988C47.5809 59.3988 47.5334 59.3739 47.5027 59.3168C47.4315 59.1856 47.2955 57.9377 47.2852 57.8424C48.3404 55.7184 49.3956 53.5947 50.451 51.471C51.5062 49.3472 52.5614 47.2235 53.6166 45.0997L55.3285 45.9502L52.1626 52.3217L48.997 58.6929Z" fill="#6079DE"/>
<path d="M46.792 32.2813C46.801 32.1646 46.9278 30.5665 47.0098 30.4113C47.0477 30.3399 47.1018 30.3223 47.1018 30.3223C47.1018 30.3223 47.1529 30.3057 47.22 30.3361C47.3752 30.4065 48.5046 31.548 48.5908 31.6352C50.7996 37.7846 53.008 43.9338 55.2168 50.083L53.418 50.729L46.792 32.2813Z" fill="#ECECEC"/>
<path d="M48.8729 58.719C48.7955 58.7668 47.7327 59.4234 47.5783 59.4425C47.5072 59.4513 47.4569 59.4249 47.4569 59.4249C47.4569 59.4249 47.4093 59.4 47.3787 59.343C47.3075 59.2114 47.1714 57.9638 47.1611 57.8683C49.2715 53.6208 51.3822 49.3733 53.4926 45.1259L55.2044 45.9764L48.8729 58.719Z" fill="#EBEBEB"/>
<path d="M54.5933 47.4839C54.5933 48.182 54.0272 48.748 53.3291 48.748C52.6308 48.748 52.0649 48.182 52.0649 47.4839C52.0649 46.7855 52.6308 46.2194 53.3291 46.2194C54.0272 46.2194 54.5933 46.7855 54.5933 47.4839Z" fill="url(#paint3_linear_211_14350)"/>
<defs>
<linearGradient id="paint0_linear_211_14350" x1="28.3281" y1="47.4841" x2="78.3281" y2="47.4841" gradientUnits="userSpaceOnUse">
<stop stop-color="#A4B2F2"/>
<stop offset="1" stop-color="#7587E7"/>
</linearGradient>
<linearGradient id="paint1_linear_211_14350" x1="31.1558" y1="47.9517" x2="75.7827" y2="47.9517" gradientUnits="userSpaceOnUse">
<stop stop-color="#4264E2"/>
<stop offset="1" stop-color="#AAB6F8"/>
</linearGradient>
<radialGradient id="paint2_radial_211_14350" cx="0" cy="0" r="1" gradientUnits="userSpaceOnUse" gradientTransform="translate(53.3283 47.4207) scale(20.1959)">
<stop stop-color="#8C9EF0"/>
<stop offset="1" stop-color="#8C9EF0"/>
</radialGradient>
<linearGradient id="paint3_linear_211_14350" x1="52.0649" y1="47.4839" x2="54.5934" y2="47.4839" gradientUnits="userSpaceOnUse">
<stop stop-color="#FAFAFA"/>
<stop offset="1" stop-color="#C8C8C8"/>
</linearGradient>
</defs>
</svg>
