<svg width="112" height="99" viewBox="0 0 112 99" fill="none" xmlns="http://www.w3.org/2000/svg">
<rect x="1.5" y="1.5" width="109" height="96" rx="14.5" fill="white" stroke="#ADC6F7" stroke-width="3"/>
<path d="M75.5119 60.9101C75.5119 62.0601 74.5786 62.9934 73.4286 62.9934C72.2786 62.9934 71.3452 62.0601 71.3452 60.9101V27.5765C71.3452 26.4251 72.2786 25.4932 73.4286 25.4932C74.5786 25.4932 75.5119 26.4251 75.5119 27.5765V60.9101Z" fill="#CCD6DD"/>
<path d="M80.9037 64.3823C80.9551 64.1545 80.9898 63.9239 80.9898 63.6878C80.9898 61.0031 77.5689 58.8267 73.3509 58.8267C69.1328 58.8267 65.7119 61.0031 65.7119 63.6878C65.7119 63.9239 65.7466 64.1545 65.798 64.3823H80.9037Z" fill="#CCD6DD"/>
<path d="M82.3788 32.4376C82.8427 34.0001 81.1344 35.2154 79.601 35.2154H67.101C65.5676 35.2154 63.919 33.8265 64.3232 32.4376L67.101 22.7153C67.4482 21.2097 68.3454 19.9375 69.8788 19.9375H76.8232C78.358 19.9375 79.2538 21.5 79.601 22.7153L82.3788 32.4376Z" fill="#FCAB40"/>
<path d="M72.7425 60.356C72.7425 62.0435 71.3299 63.4102 69.5883 63.4102H41.2006C39.4589 63.4102 38.0464 62.0435 38.0464 60.356V46.6059C38.0464 44.9184 39.4589 43.5503 41.2006 43.5503H69.5883C71.3299 43.5503 72.7425 44.9184 72.7425 46.6059V60.356Z" fill="#5D9040"/>
<path d="M70.6509 63.41C70.6509 65.0975 69.2829 66.4656 67.5954 66.4656H41.623C39.9354 66.4656 38.5674 65.0975 38.5674 63.41V61.8822C38.5674 60.1947 39.9354 58.8267 41.623 58.8267H67.5954C69.2829 58.8267 70.6509 60.1947 70.6509 61.8822V63.41Z" fill="#3F7123"/>
<path d="M55.3952 55.0072C64.9712 55.0072 72.7342 51.1985 72.7342 46.5002C72.7342 41.8019 64.9712 37.9932 55.3952 37.9932C45.8191 37.9932 38.0562 41.8019 38.0562 46.5002C38.0562 51.1985 45.8191 55.0072 55.3952 55.0072Z" fill="#5D9040"/>
<path d="M41.6228 52.7171C41.6228 55.2477 39.57 57.3004 37.0394 57.3004C34.5088 57.3004 32.4561 55.2477 32.4561 52.7171C32.4561 50.1837 34.5088 48.1323 37.0394 48.1323C39.5714 48.1323 41.6228 50.1837 41.6228 52.7171Z" fill="#78B159"/>
<path d="M41.6229 66.4658C41.6229 68.1533 40.2548 69.5214 38.5673 69.5214C36.8798 69.5214 35.5117 68.1533 35.5117 66.4658V52.7171C35.5117 51.0296 36.8798 49.6615 38.5673 49.6615C40.2548 49.6615 41.6229 51.0296 41.6229 52.7171V66.4658ZM69.1231 52.7171C69.1231 55.2477 71.1745 57.3004 73.7064 57.3004C76.2356 57.3004 78.2898 55.2477 78.2898 52.7171C78.2898 50.1851 76.2356 48.1323 73.7064 48.1323C71.1758 48.1323 69.1231 50.1837 69.1231 52.7171Z" fill="#78B159"/>
<path d="M69.1227 66.4654C69.1227 68.1529 70.4894 69.521 72.1769 69.521C73.8644 69.521 75.2325 68.1529 75.2325 66.4654V52.7167C75.2325 51.0292 73.8644 49.6611 72.1769 49.6611C70.4894 49.6611 69.1227 51.0292 69.1227 52.7167V66.4654ZM55.3727 58.8265C55.3727 60.514 54.0046 61.8821 52.3171 61.8821H44.6781C42.9906 61.8821 41.6226 60.514 41.6226 58.8265C41.6226 57.139 42.9906 55.7709 44.6781 55.7709H52.3171C54.0046 55.7709 55.3727 57.139 55.3727 58.8265ZM69.1227 58.8265C69.1227 60.514 67.7547 61.8821 66.0672 61.8821H58.4282C56.7407 61.8821 55.3727 60.514 55.3727 58.8265C55.3727 57.139 56.7407 55.7709 58.4282 55.7709H66.0672C67.7547 55.7709 69.1227 57.139 69.1227 58.8265Z" fill="#78B159"/>
<path d="M40.7896 58.8267H69.9564V62.9934H40.7896V58.8267Z" fill="#78B159"/>
<path d="M46.8408 85.1543C47.5439 85.1543 48.1494 85.043 48.6572 84.8203C49.1689 84.5938 49.5615 84.2773 49.835 83.8711C50.1123 83.4609 50.251 82.9766 50.251 82.418V82.4121C50.251 81.752 50.0459 81.2324 49.6357 80.8535C49.2295 80.4746 48.5791 80.1934 47.6846 80.0098L46.7881 79.8281C46.292 79.7266 45.9326 79.5898 45.71 79.418C45.4912 79.2422 45.3818 79.0176 45.3818 78.7441V78.7383C45.3818 78.5273 45.4424 78.3457 45.5635 78.1934C45.6846 78.0371 45.8545 77.916 46.0732 77.8301C46.292 77.7441 46.5459 77.7012 46.835 77.7012C47.1318 77.7012 47.3916 77.7461 47.6143 77.8359C47.8408 77.9219 48.0205 78.041 48.1533 78.1934C48.29 78.3457 48.376 78.5234 48.4111 78.7266L48.4229 78.7969H50.0869L50.0811 78.7207C50.0459 78.248 49.8955 77.8281 49.6299 77.4609C49.3643 77.0898 48.9951 76.7988 48.5225 76.5879C48.0537 76.373 47.4912 76.2656 46.835 76.2656C46.21 76.2656 45.6553 76.375 45.1709 76.5938C44.6865 76.8086 44.3057 77.1113 44.0283 77.502C43.751 77.8926 43.6123 78.3496 43.6123 78.873V78.8789C43.6123 79.5195 43.8115 80.0449 44.21 80.4551C44.6084 80.8652 45.2471 81.1602 46.126 81.3398L47.0166 81.5215C47.5439 81.6309 47.9189 81.7695 48.1416 81.9375C48.3682 82.1055 48.4814 82.3281 48.4814 82.6055V82.6113C48.4814 82.8262 48.4131 83.0176 48.2764 83.1855C48.1436 83.3496 47.958 83.4785 47.7197 83.5723C47.4814 83.666 47.2041 83.7129 46.8877 83.7129C46.5596 83.7129 46.2686 83.668 46.0146 83.5781C45.7607 83.4883 45.5576 83.3652 45.4053 83.209C45.2568 83.0488 45.1709 82.8633 45.1475 82.6523L45.1416 82.5938H43.4365L43.4424 82.6875C43.4775 83.1875 43.6357 83.623 43.917 83.9941C44.2021 84.3613 44.5928 84.6465 45.0889 84.8496C45.585 85.0527 46.1689 85.1543 46.8408 85.1543ZM54.6221 85.0723C55.2861 85.0723 55.8545 84.9395 56.3271 84.6738C56.8037 84.4043 57.1689 84.0195 57.4229 83.5195C57.6768 83.0156 57.8037 82.4141 57.8037 81.7148V81.7031C57.8037 81.0078 57.6748 80.4102 57.417 79.9102C57.1592 79.4062 56.792 79.0195 56.3154 78.75C55.8428 78.4805 55.2783 78.3457 54.6221 78.3457C53.9658 78.3457 53.3994 78.4824 52.9229 78.7559C52.4502 79.0254 52.085 79.4102 51.8271 79.9102C51.5693 80.4102 51.4404 81.0078 51.4404 81.7031V81.7148C51.4404 82.4141 51.5674 83.0156 51.8213 83.5195C52.0752 84.0195 52.4404 84.4043 52.917 84.6738C53.3936 84.9395 53.9619 85.0723 54.6221 85.0723ZM54.6221 83.7305C54.3174 83.7305 54.0576 83.6523 53.8428 83.4961C53.6318 83.3359 53.4697 83.1055 53.3564 82.8047C53.2471 82.5039 53.1924 82.1406 53.1924 81.7148V81.7031C53.1924 81.2812 53.249 80.9219 53.3623 80.625C53.4756 80.3242 53.6377 80.0938 53.8486 79.9336C54.0635 79.7695 54.3213 79.6875 54.6221 79.6875C54.9229 79.6875 55.1787 79.7695 55.3896 79.9336C55.6045 80.0938 55.7686 80.3242 55.8818 80.625C55.9951 80.9219 56.0518 81.2812 56.0518 81.7031V81.7148C56.0518 82.1367 55.9951 82.498 55.8818 82.7988C55.7686 83.0996 55.6064 83.3301 55.3955 83.4902C55.1846 83.6504 54.9268 83.7305 54.6221 83.7305ZM59.6963 84.9375H61.4072V79.7754H62.7373V78.4863H61.3721V78C61.3721 77.7188 61.4404 77.5039 61.5771 77.3555C61.7139 77.2031 61.9482 77.127 62.2803 77.127C62.3896 77.127 62.4873 77.1309 62.5732 77.1387C62.6631 77.1426 62.7354 77.1504 62.79 77.1621V76.0195C62.665 76 62.5303 75.9844 62.3857 75.9727C62.2451 75.9609 62.0869 75.9551 61.9111 75.9551C61.1338 75.9551 60.5693 76.1172 60.2178 76.4414C59.8701 76.7617 59.6963 77.2422 59.6963 77.8828V78.4863H58.6533V79.7754H59.6963V84.9375ZM65.6553 85.0371C65.9365 85.0371 66.1963 85 66.4346 84.9258C66.6768 84.8477 66.8877 84.7383 67.0674 84.5977C67.251 84.4531 67.3975 84.2812 67.5068 84.082H67.6123V84.9375H69.2998V80.5312C69.2998 80.0742 69.1943 79.6836 68.9834 79.3594C68.7764 79.0312 68.4736 78.7812 68.0752 78.6094C67.6768 78.4336 67.1924 78.3457 66.6221 78.3457C66.083 78.3457 65.6084 78.4238 65.1982 78.5801C64.792 78.7363 64.4678 78.9551 64.2256 79.2363C63.9873 79.5176 63.8447 79.8477 63.7979 80.2266L63.792 80.2793H65.374L65.3857 80.2559C65.4521 80.0645 65.5811 79.918 65.7725 79.8164C65.9678 79.7109 66.2197 79.6582 66.5283 79.6582C66.8799 79.6582 67.1475 79.7344 67.3311 79.8867C67.5186 80.0352 67.6123 80.25 67.6123 80.5312V82.5879C67.6123 82.8145 67.5518 83.0195 67.4307 83.2031C67.3096 83.3828 67.1455 83.5254 66.9385 83.6309C66.7314 83.7363 66.4951 83.7891 66.2295 83.7891C65.9326 83.7891 65.6904 83.7188 65.5029 83.5781C65.3154 83.4375 65.2217 83.2441 65.2217 82.998V82.9863C65.2217 82.752 65.3115 82.5664 65.4912 82.4297C65.6709 82.293 65.9443 82.2148 66.3115 82.1953L68.4561 82.0547V81.0117L66.0537 81.1582C65.2529 81.2051 64.6357 81.3945 64.2021 81.7266C63.7686 82.0547 63.5518 82.5098 63.5518 83.0918V83.1035C63.5518 83.4941 63.6416 83.8359 63.8213 84.1289C64.001 84.418 64.249 84.6426 64.5654 84.8027C64.8857 84.959 65.249 85.0371 65.6553 85.0371Z" fill="black"/>
</svg>
