<svg width="107" height="95" viewBox="0 0 107 95" fill="none" xmlns="http://www.w3.org/2000/svg">
<rect x="1.82812" y="1.98438" width="103.343" height="91" rx="14.5" fill="white" stroke="#ADC6F7" stroke-width="3"/>
<path d="M38.707 45.1318C38.707 45.1318 38.7116 45.194 38.7253 45.3117C38.876 46.5883 39.776 54.3717 39.7897 58.8055C39.8034 63.6466 37.5557 68.9092 37.743 70.1837C37.9303 71.4572 40.2146 71.9477 41.6857 72.4592C43.1567 72.9703 46.5375 65.5319 49.1507 64.3242C51.7639 63.117 57.5979 60.4585 57.5979 60.4585L54.4776 58.6189C54.4776 58.6189 48.5522 60.6399 47.9857 60.7458C47.4192 60.8512 49.1781 55.4179 49.1781 55.4179L46.6425 50.4581L43.9014 57.5146C43.9014 57.5146 42.042 49.615 41.8182 48.4787" fill="#BFE36C"/>
<path d="M33.54 38.5035C33.54 38.5035 31.0136 41.8551 33.6314 46.9954C36.2492 52.1361 40.9868 49.5506 40.9868 49.5506C40.9868 49.5506 40.0365 54.9633 47.1315 52.5927C47.1315 52.5927 47.1452 61.3611 54.6741 60.3493C54.6741 60.3493 56.2183 64.5122 60.6498 63.0305C60.6498 63.0305 66.3834 69.5538 72.2539 62.8295C78.1291 56.1052 73.4143 51.748 73.4143 51.748C73.4143 51.748 76.9458 45.7224 72.5326 44.1892C72.5326 44.1892 74.7438 37.1004 71.258 33.1694C67.7722 29.2379 65.2046 30.7638 65.2046 30.7638C65.2046 30.7638 65.8488 26.4549 62.8884 24.5197C59.928 22.585 56.0036 25.15 56.0036 25.15C56.0036 25.15 52.3442 20.8576 47.6843 23.1676C43.0243 25.477 43.6594 29.023 43.6594 29.023C43.6594 29.023 40.667 25.2621 38.9081 26.7675C37.1538 28.2734 37.9259 30.3546 37.9259 30.3546C37.9259 30.3546 33.4167 28.1844 31.7766 31.2404C30.1319 34.2959 33.54 38.5035 33.54 38.5035Z" fill="#46BC52"/>
<path d="M44.116 42.6177C43.6317 42.6095 43.1246 42.7334 42.7089 42.4023C42.2383 42.0341 42.1287 41.3971 42.1698 40.7977C42.2246 40.0373 41.2789 40.0861 41.0871 40.681C40.9272 41.1899 40.9089 41.7375 40.9957 42.2676C40.2876 42.4624 39.552 42.5652 38.9352 42.0012C38.0398 41.1848 38.3825 40.0285 38.8987 39.1221C39.3099 38.4008 38.4693 37.8111 37.9256 38.0964C36.2809 38.954 36.418 41.7853 37.4414 43.1282C38.4602 44.4634 40.4109 44.8757 41.8317 44.1102C42.4896 44.8906 43.4353 45.3076 44.4449 44.8917C45.5414 44.4387 45.3084 42.6377 44.116 42.6177Z" fill="#3A9F48"/>
<path d="M63.3179 57.1059C63.962 56.5429 63.5829 55.3008 62.7057 55.5717C61.9154 55.8165 61.2118 56.1378 60.3758 55.8843C60.2159 55.836 60.0651 55.7686 59.9143 55.6931C59.7727 55.5183 59.5945 55.3964 59.3981 55.3671C58.9184 54.9918 58.5255 54.4766 58.2514 53.89C58.0047 53.3682 57.3376 53.7671 57.4473 54.2941C57.5752 54.9059 57.8402 55.4792 58.1874 55.9836C57.7488 56.1841 57.3422 56.1434 56.7483 55.8632C56.1087 55.5625 53.9158 54.5327 54.8204 53.3466C55.0123 53.0936 54.7518 52.7332 54.4914 52.8952C52.6823 54.0175 54.3452 56.1877 55.3686 57.1069C56.5519 58.1676 58.7539 58.9948 59.8321 57.4617C60.9422 58.0339 62.2397 58.0457 63.3179 57.1059Z" fill="#3A9F48"/>
<path d="M71.313 56.6462C71.1119 56.3573 70.8561 56.2889 70.5592 56.4421C70.0064 56.729 69.9561 57.6035 69.3713 57.9295C68.7911 58.2549 68.0556 58.0457 67.5942 57.5758C67.3886 57.3676 67.119 57.6467 67.2333 57.9069C67.681 58.9161 68.6404 59.4914 69.6317 59.2734C70.4632 59.0899 72.0759 57.7562 71.313 56.6462Z" fill="#3A9F48"/>
<path d="M61.9242 34.7832C62.0979 32.793 60.8095 31.8259 59.3293 31.1025C59.2791 31.0774 59.2242 31.0578 59.174 31.0342C59.2745 29.3329 57.9953 27.755 56.5608 27.3448C55.2085 26.9566 52.7963 27.5124 52.4491 29.2882C52.3577 29.7478 52.6821 30.2013 53.1069 30.1843C54.0161 30.1473 54.7151 29.3643 55.6653 29.4789C56.4466 29.573 56.8577 30.0172 57.173 30.647C56.5334 30.7272 55.9349 31.0408 55.4597 31.7236C55.0623 32.2958 55.6516 33.3411 56.2455 32.8069C56.9445 32.1745 57.7806 32.4362 58.5253 32.8346C59.1649 33.1765 60.1791 33.6691 60.1882 34.5971C60.2019 35.6896 61.8283 35.922 61.9242 34.7832Z" fill="#81CF64"/>
<path d="M70.157 40.2314C69.6134 39.1374 67.8362 37.7641 66.7672 38.7446C66.493 38.9939 66.3286 39.5127 66.6712 39.814C67.2606 40.3337 68.0418 40.3193 68.5032 41.0674C69.0149 41.9008 68.7179 42.7054 68.2931 43.4776C67.7677 44.4411 69.0149 45.3182 69.6819 44.5881C70.6824 43.4951 70.8286 41.5728 70.157 40.2314Z" fill="#81CF64"/>
<path d="M47.0769 32.7683C47.6708 30.9134 44.9708 30.7766 44.0251 31.0213C43.0566 31.2712 40.7084 32.8038 41.9647 34.1544C42.2708 34.4793 42.819 34.392 43.0063 33.9565C43.2759 33.3231 43.5089 32.9961 44.1485 32.739C44.4546 32.6156 44.7789 32.5498 45.1033 32.5565C45.254 32.5601 45.4002 32.573 45.5464 32.6084C45.6424 32.6161 45.7292 32.648 45.8114 32.6969C45.9073 33.4285 46.8256 33.5647 47.0769 32.7683Z" fill="#81CF64"/>
<path d="M60.7184 45.896C60.8007 44.7192 59.357 43.6734 58.4159 43.1804C58.5666 41.4617 57.3194 39.9183 55.8803 39.4962C54.3087 39.0365 52.8331 39.8262 52.0382 41.3773C51.6818 42.0673 52.5179 42.5963 52.9839 42.1367C53.6052 41.5311 54.7017 41.2067 55.4875 41.5691C56.0128 41.8118 56.3235 42.2699 56.593 42.7732C56.0905 42.8221 55.5971 43.003 55.1402 43.3213C54.6651 43.6544 54.9986 44.5871 55.5514 44.3588C56.4971 43.9701 57.4976 44.3434 58.288 44.9824C58.9413 45.5104 59.4209 46.4734 60.2935 46.4112C60.5494 46.3927 60.7002 46.1721 60.7184 45.896Z" fill="#81CF64"/>
<path d="M49.9413 49.3394C49.6398 49.3101 49.288 49.4623 49.0047 49.3014C48.7215 49.1405 48.6392 48.7765 48.6438 48.449C48.6575 47.7225 47.7666 47.7241 47.5885 48.3359C47.3463 49.1724 47.5702 50.1194 48.155 50.707C48.8174 51.3697 49.8682 51.5456 50.5352 50.8104C51.0651 50.2258 50.558 49.3981 49.9413 49.3394Z" fill="#3A9F48"/>
</svg>
