<svg width="112" height="99" viewBox="0 0 112 99" fill="none" xmlns="http://www.w3.org/2000/svg">
<rect x="1.5" y="1.5" width="109" height="96" rx="14.5" fill="white" stroke="#ADC6F7" stroke-width="3"/>
<path d="M37.2291 59.3052C37.5152 59.3052 37.7472 59.0114 37.7472 58.6489V27.5932C37.7472 27.2306 37.5152 26.9373 37.2291 26.9373C36.9429 26.9373 36.7109 27.2306 36.7109 27.5932V58.6489C36.7109 59.0114 36.9429 59.3052 37.2291 59.3052Z" fill="#392722"/>
<path d="M33.4523 61.2816V48.1541C33.4523 47.792 33.2203 47.4982 32.9341 47.4982C32.648 47.4982 32.416 47.792 32.416 48.1541V61.2816C32.416 61.6438 32.648 61.9375 32.9341 61.9375C33.2203 61.9375 33.4523 61.6438 33.4523 61.2816Z" fill="#392722"/>
<path d="M75.645 59.3052C75.9311 59.3052 76.1631 59.0114 76.1631 58.6489V27.5932C76.1631 27.2306 75.9311 26.9373 75.645 26.9373C75.359 26.9373 75.127 27.2306 75.127 27.5932V58.6489C75.127 59.0114 75.359 59.3052 75.645 59.3052Z" fill="#392722"/>
<path d="M80.4574 61.2816V48.1541C80.4574 47.792 80.2253 47.4982 79.9393 47.4982C79.6529 47.4982 79.4209 47.792 79.4209 48.1541V61.2816C79.4209 61.6438 79.6529 61.9375 79.9393 61.9375C80.2253 61.9375 80.4574 61.6438 80.4574 61.2816Z" fill="#392722"/>
<path d="M79.2106 43.4998H33.7013L31.4561 47.0537H81.4561L79.2106 43.4998Z" fill="#975C4B"/>
<path d="M78.3905 36.1973H34.8242V42.0356H78.3905V36.1973Z" fill="#975C4B"/>
<path d="M78.3905 28.8218H34.8242V34.6602H78.3905V28.8218Z" fill="#975C4B"/>
<path d="M81.4561 47.0543H31.4561V48.4272H81.4561V47.0543Z" fill="#7A4134"/>
<path d="M75.8719 29.7356C75.8719 29.577 75.7702 29.4483 75.6449 29.4483C75.5196 29.4483 75.418 29.577 75.418 29.7356C75.418 29.8943 75.5196 30.0229 75.6449 30.0229C75.7702 30.0229 75.8719 29.8943 75.8719 29.7356Z" fill="#999492"/>
<path d="M75.8719 33.7464C75.8719 33.5877 75.7702 33.459 75.6449 33.459C75.5196 33.459 75.418 33.5877 75.418 33.7464C75.418 33.905 75.5196 34.0337 75.6449 34.0337C75.7702 34.0337 75.8719 33.905 75.8719 33.7464Z" fill="#999492"/>
<path d="M75.8719 37.1111C75.8719 36.9525 75.7702 36.8238 75.6449 36.8238C75.5196 36.8238 75.418 36.9525 75.418 37.1111C75.418 37.2697 75.5196 37.3984 75.6449 37.3984C75.7702 37.3984 75.8719 37.2697 75.8719 37.1111Z" fill="#999492"/>
<path d="M75.8719 41.1209C75.8719 40.9623 75.7702 40.8336 75.6449 40.8336C75.5196 40.8336 75.418 40.9623 75.418 41.1209C75.418 41.2795 75.5196 41.4082 75.6449 41.4082C75.7702 41.4082 75.8719 41.2795 75.8719 41.1209Z" fill="#999492"/>
<path d="M37.4559 29.7356C37.4559 29.577 37.3543 29.4483 37.2289 29.4483C37.1036 29.4483 37.002 29.577 37.002 29.7356C37.002 29.8943 37.1036 30.0229 37.2289 30.0229C37.3543 30.0229 37.4559 29.8943 37.4559 29.7356Z" fill="#999492"/>
<path d="M37.4559 33.7464C37.4559 33.5877 37.3543 33.459 37.2289 33.459C37.1036 33.459 37.002 33.5877 37.002 33.7464C37.002 33.905 37.1036 34.0337 37.2289 34.0337C37.3543 34.0337 37.4559 33.905 37.4559 33.7464Z" fill="#999492"/>
<path d="M37.4559 37.1111C37.4559 36.9525 37.3543 36.8238 37.2289 36.8238C37.1036 36.8238 37.002 36.9525 37.002 37.1111C37.002 37.2697 37.1036 37.3984 37.2289 37.3984C37.3543 37.3984 37.4559 37.2697 37.4559 37.1111Z" fill="#999492"/>
<path d="M37.4559 41.1209C37.4559 40.9623 37.3543 40.8336 37.2289 40.8336C37.1036 40.8336 37.002 40.9623 37.002 41.1209C37.002 41.2795 37.1036 41.4082 37.2289 41.4082C37.3543 41.4082 37.4559 41.2795 37.4559 41.1209Z" fill="#999492"/>
<path d="M39.5049 84.9375H42.417C43.0225 84.9375 43.542 84.8398 43.9756 84.6445C44.4131 84.4453 44.749 84.166 44.9834 83.8066C45.2217 83.4434 45.3408 83.0156 45.3408 82.5234V82.5117C45.3408 82.1523 45.2568 81.8262 45.0889 81.5332C44.9248 81.2402 44.6963 81.002 44.4033 80.8184C44.1143 80.6348 43.7822 80.5293 43.4072 80.502V80.3965C43.6963 80.3535 43.9561 80.2461 44.1865 80.0742C44.417 79.9023 44.5986 79.6875 44.7314 79.4297C44.8682 79.1719 44.9365 78.8945 44.9365 78.5977V78.5859C44.9365 78.1523 44.8311 77.7793 44.6201 77.4668C44.4131 77.1504 44.1143 76.9082 43.7236 76.7402C43.3369 76.5684 42.8682 76.4824 42.3174 76.4824H39.5049V77.7949H41.8662C42.2881 77.7949 42.6143 77.8926 42.8447 78.0879C43.0791 78.2793 43.1963 78.5469 43.1963 78.8906V78.9023C43.1963 79.25 43.0693 79.5195 42.8154 79.7109C42.5615 79.9023 42.1963 79.998 41.7197 79.998H39.5049V81.1641H41.9248C42.2725 81.1641 42.5654 81.2109 42.8037 81.3047C43.0459 81.3945 43.2275 81.5293 43.3486 81.709C43.4736 81.8887 43.5361 82.1094 43.5361 82.3711V82.3828C43.5361 82.7852 43.4014 83.0918 43.1318 83.3027C42.8662 83.5137 42.4775 83.6191 41.9658 83.6191H39.5049V84.9375ZM38.6201 84.9375H40.3896V76.4824H38.6201V84.9375ZM49.6064 85.0723C50.0791 85.0723 50.4873 85.0137 50.8311 84.8965C51.1787 84.7754 51.4678 84.6191 51.6982 84.4277C51.9326 84.2363 52.1162 84.0312 52.249 83.8125C52.3818 83.5898 52.4736 83.377 52.5244 83.1738L52.5361 83.1152H50.9424L50.9248 83.1504C50.8857 83.2324 50.8115 83.3242 50.7021 83.4258C50.5967 83.5234 50.4561 83.6094 50.2803 83.6836C50.1045 83.7578 49.8916 83.7949 49.6416 83.7949C49.333 83.7949 49.0674 83.7266 48.8447 83.5898C48.6221 83.4531 48.4502 83.2559 48.3291 82.998C48.208 82.7402 48.1475 82.4297 48.1475 82.0664V81.375C48.1475 81 48.208 80.6836 48.3291 80.4258C48.4541 80.1641 48.6221 79.9668 48.833 79.834C49.0479 79.6973 49.292 79.6289 49.5654 79.6289C49.8428 79.6289 50.085 79.6953 50.292 79.8281C50.5029 79.957 50.667 80.1504 50.7842 80.4082C50.9053 80.666 50.9658 80.9883 50.9658 81.375V82.0605L51.7686 81.0469H47.3096V82.1191H52.5889V81.5859C52.5889 80.9336 52.4658 80.3652 52.2197 79.8809C51.9736 79.3965 51.6221 79.0195 51.165 78.75C50.708 78.4805 50.165 78.3457 49.5361 78.3457C48.9111 78.3457 48.3662 78.4844 47.9014 78.7617C47.4404 79.0391 47.083 79.4297 46.8291 79.9336C46.5791 80.4375 46.4541 81.0312 46.4541 81.7148V81.7207C46.4541 82.4121 46.5811 83.0078 46.835 83.5078C47.0889 84.0078 47.4502 84.3945 47.9189 84.668C48.3916 84.9375 48.9541 85.0723 49.6064 85.0723ZM53.9893 84.9375H55.7002V81.2051C55.7002 80.9121 55.751 80.6582 55.8525 80.4434C55.958 80.2285 56.1045 80.0625 56.292 79.9453C56.4834 79.8242 56.71 79.7637 56.9717 79.7637C57.3779 79.7637 57.6768 79.8809 57.8682 80.1152C58.0596 80.3496 58.1553 80.6953 58.1553 81.1523V84.9375H59.8662V80.7656C59.8662 79.9922 59.6768 79.3965 59.2979 78.9785C58.9229 78.5566 58.376 78.3457 57.6572 78.3457C57.1963 78.3457 56.8096 78.4473 56.4971 78.6504C56.1846 78.8535 55.9541 79.1309 55.8057 79.4824H55.7002V78.4863H53.9893V84.9375ZM64.3662 85.0723C64.9287 85.0723 65.4131 84.9785 65.8193 84.791C66.2256 84.5996 66.5479 84.3301 66.7861 83.9824C67.0244 83.6348 67.1748 83.2285 67.2373 82.7637V82.7227L65.6553 82.7285L65.6436 82.7461C65.5693 83.0742 65.4268 83.3203 65.2158 83.4844C65.0049 83.6484 64.7236 83.7305 64.3721 83.7305C64.0674 83.7305 63.8096 83.6523 63.5986 83.4961C63.3877 83.3398 63.2256 83.1113 63.1123 82.8105C63.0029 82.5059 62.9482 82.1367 62.9482 81.7031V81.6914C62.9482 81.2578 63.0029 80.8926 63.1123 80.5957C63.2217 80.2988 63.3818 80.0742 63.5928 79.9219C63.8076 79.7656 64.0674 79.6875 64.3721 79.6875C64.7393 79.6875 65.0283 79.7832 65.2393 79.9746C65.4541 80.1621 65.5908 80.4121 65.6494 80.7246L65.6553 80.7363H67.2432V80.7188C67.1924 80.2383 67.0479 79.8203 66.8096 79.4648C66.5713 79.1094 66.2471 78.834 65.8369 78.6387C65.4268 78.4434 64.9365 78.3457 64.3662 78.3457C63.6943 78.3457 63.1221 78.4785 62.6494 78.7441C62.1807 79.0059 61.8232 79.3848 61.5771 79.8809C61.3311 80.377 61.208 80.9805 61.208 81.6914V81.7031C61.208 82.418 61.3311 83.0273 61.5771 83.5312C61.8232 84.0312 62.1807 84.4141 62.6494 84.6797C63.1221 84.9414 63.6943 85.0723 64.3662 85.0723ZM68.6377 84.9375H70.3486V81.2051C70.3486 80.9121 70.3994 80.6582 70.501 80.4434C70.6064 80.2285 70.7529 80.0625 70.9404 79.9453C71.1318 79.8242 71.3584 79.7637 71.6201 79.7637C72.0264 79.7637 72.3252 79.8809 72.5166 80.1152C72.708 80.3496 72.8037 80.6953 72.8037 81.1523V84.9375H74.5146V80.7656C74.5146 80.25 74.4287 79.8125 74.2568 79.4531C74.0889 79.0938 73.8408 78.8203 73.5127 78.6328C73.1885 78.4414 72.7861 78.3457 72.3057 78.3457C71.8447 78.3457 71.458 78.4473 71.1455 78.6504C70.833 78.8535 70.6025 79.1309 70.4541 79.4824H70.3486V76.0195H68.6377V84.9375Z" fill="black"/>
</svg>
