<svg width="209" height="251" viewBox="0 0 209 251" fill="none" xmlns="http://www.w3.org/2000/svg">
<path d="M2.24951 16.1577C3.03809 16.1577 3.50293 15.6763 3.50293 14.8545V10.9531H8.89844V14.8545C8.89844 15.6763 9.36328 16.1577 10.1519 16.1577C10.9404 16.1577 11.4053 15.6763 11.4053 14.8545V5.16748C11.4053 4.3374 10.9404 3.85596 10.1519 3.85596C9.36328 3.85596 8.89844 4.3374 8.89844 5.16748V8.88623H3.50293V5.16748C3.50293 4.3374 3.03809 3.85596 2.24951 3.85596C1.46094 3.85596 0.996094 4.3374 0.996094 5.16748V14.8545C0.996094 15.6763 1.46094 16.1577 2.24951 16.1577ZM17.2822 16.1909C19.0005 16.1909 20.3784 15.5435 20.9678 14.4478C21.0757 14.2485 21.1338 14.0493 21.1338 13.8584C21.1338 13.3022 20.7104 12.9702 20.1875 12.9702C19.8721 12.9702 19.6562 13.0615 19.3989 13.3271C18.7432 14.0991 18.1621 14.3979 17.2739 14.3979C16.0454 14.3979 15.2485 13.5347 15.2485 12.2148V12.1069H20.3286C21.001 12.1069 21.3828 11.7251 21.3828 11.0527C21.3828 8.63721 19.6895 6.91064 17.166 6.91064C14.5347 6.91064 12.8662 8.72852 12.8662 11.5923C12.8662 14.4727 14.5015 16.1909 17.2822 16.1909ZM15.2734 10.6211C15.3564 9.48389 16.1284 8.70361 17.1909 8.70361C18.2534 8.70361 19.0005 9.45898 19.0503 10.6211H15.2734ZM24.0142 19.2954C25.9648 19.2954 26.9941 18.4487 27.8242 16.1494L30.5552 8.72852C30.6382 8.49609 30.688 8.21387 30.688 8.01465C30.688 7.37549 30.2065 6.91895 29.5093 6.91895C28.8867 6.91895 28.5381 7.20947 28.3389 7.88184L26.4048 14.0576H26.3633L24.4292 7.89844C24.23 7.19287 23.8979 6.91895 23.2588 6.91895C22.5449 6.91895 22.0054 7.39209 22.0054 8.04785C22.0054 8.24707 22.0552 8.5127 22.1465 8.76172L24.9854 16.249L24.8608 16.5645C24.5703 17.187 24.1138 17.3696 23.6904 17.3696C23.5244 17.3696 23.4331 17.3613 23.2671 17.3613C22.7192 17.3613 22.3789 17.6685 22.3789 18.1582C22.3789 18.8887 22.9517 19.2954 24.0142 19.2954ZM32.2153 13.7837C31.5845 13.7837 31.1777 14.0908 31.0947 14.7881L30.6714 17.8179C30.6631 17.8428 30.6548 17.8843 30.6548 17.9507C30.6299 18.4653 30.9536 18.8472 31.5347 18.8472C32.1074 18.8472 32.3979 18.5898 32.5225 18.0337L33.1948 15.2363C33.2363 15.062 33.2529 14.9043 33.2529 14.7466C33.2529 14.1489 32.8462 13.7837 32.2153 13.7837ZM41.0142 16.1411C42.3838 16.1411 43.3633 15.4272 43.7534 14.4312H43.7949V14.9458C43.7949 15.7593 44.3179 16.1743 45.0151 16.1743C45.7207 16.1743 46.2188 15.751 46.2188 14.9458V5.10938C46.2188 4.2793 45.7207 3.83936 45.0068 3.83936C44.3013 3.83936 43.7949 4.2793 43.7949 5.10938V8.62891H43.7451C43.3135 7.64111 42.3174 6.96045 41.0308 6.96045C38.7979 6.96045 37.3867 8.71191 37.3867 11.5342C37.3867 14.3813 38.7896 16.1411 41.0142 16.1411ZM41.8359 14.1904C40.6157 14.1904 39.8687 13.186 39.8687 11.5508C39.8687 9.92383 40.6157 8.90283 41.8359 8.90283C43.0396 8.90283 43.8115 9.93213 43.8115 11.5508C43.8115 13.1777 43.0396 14.1904 41.8359 14.1904ZM51.9214 16.1909C54.6108 16.1909 56.3291 14.4727 56.3291 11.5425C56.3291 8.65381 54.5859 6.91064 51.9214 6.91064C49.2568 6.91064 47.5137 8.66211 47.5137 11.5425C47.5137 14.4644 49.2319 16.1909 51.9214 16.1909ZM51.9214 14.3398C50.7261 14.3398 49.9707 13.3354 49.9707 11.5508C49.9707 9.78271 50.7427 8.76172 51.9214 8.76172C53.1001 8.76172 53.8638 9.78271 53.8638 11.5508C53.8638 13.3354 53.1084 14.3398 51.9214 14.3398ZM62.4634 19.2954C64.4141 19.2954 65.4434 18.4487 66.2734 16.1494L69.0044 8.72852C69.0874 8.49609 69.1372 8.21387 69.1372 8.01465C69.1372 7.37549 68.6558 6.91895 67.9585 6.91895C67.3359 6.91895 66.9873 7.20947 66.7881 7.88184L64.854 14.0576H64.8125L62.8784 7.89844C62.6792 7.19287 62.3472 6.91895 61.708 6.91895C60.9941 6.91895 60.4546 7.39209 60.4546 8.04785C60.4546 8.24707 60.5044 8.5127 60.5957 8.76172L63.4346 16.249L63.3101 16.5645C63.0195 17.187 62.563 17.3696 62.1396 17.3696C61.9736 17.3696 61.8823 17.3613 61.7163 17.3613C61.1685 17.3613 60.8281 17.6685 60.8281 18.1582C60.8281 18.8887 61.4009 19.2954 62.4634 19.2954ZM74.0181 16.1909C76.7075 16.1909 78.4258 14.4727 78.4258 11.5425C78.4258 8.65381 76.6826 6.91064 74.0181 6.91064C71.3535 6.91064 69.6104 8.66211 69.6104 11.5425C69.6104 14.4644 71.3286 16.1909 74.0181 16.1909ZM74.0181 14.3398C72.8228 14.3398 72.0674 13.3354 72.0674 11.5508C72.0674 9.78271 72.8394 8.76172 74.0181 8.76172C75.1968 8.76172 75.9604 9.78271 75.9604 11.5508C75.9604 13.3354 75.2051 14.3398 74.0181 14.3398ZM82.8418 16.166C84.1865 16.166 85.0664 15.5186 85.5063 14.3979H85.5562V14.9458C85.5562 15.751 86.0293 16.1743 86.7266 16.1743C87.4238 16.1743 87.897 15.751 87.897 14.9458V8.18896C87.897 7.35889 87.3989 6.91895 86.6851 6.91895C85.9795 6.91895 85.4731 7.35889 85.4731 8.18896V12.1982C85.4731 13.377 84.8008 14.1489 83.7217 14.1489C82.6509 14.1489 82.0615 13.5181 82.0615 12.3311V8.18896C82.0615 7.35889 81.5635 6.91895 80.8496 6.91895C80.144 6.91895 79.6377 7.35889 79.6377 8.18896V12.8374C79.6377 14.9126 80.916 16.166 82.8418 16.166ZM94.0562 16.1743C94.77 16.1743 95.2681 15.7427 95.2681 14.9126V10.895C95.2681 9.74121 95.957 8.94434 97.0444 8.94434C98.1318 8.94434 98.6797 9.6084 98.6797 10.7705V14.9126C98.6797 15.7427 99.1777 16.1743 99.8916 16.1743C100.597 16.1743 101.104 15.7427 101.104 14.9126V10.2642C101.104 8.18066 99.9912 6.93555 98.0156 6.93555C96.646 6.93555 95.7495 7.5415 95.2764 8.64551H95.2266V8.14746C95.2266 7.38379 94.7451 6.91895 94.0146 6.91895C93.2842 6.91895 92.8442 7.38379 92.8442 8.13916V14.9126C92.8442 15.7427 93.3506 16.1743 94.0562 16.1743ZM106.731 16.1909C108.45 16.1909 109.828 15.5435 110.417 14.4478C110.525 14.2485 110.583 14.0493 110.583 13.8584C110.583 13.3022 110.16 12.9702 109.637 12.9702C109.321 12.9702 109.105 13.0615 108.848 13.3271C108.192 14.0991 107.611 14.3979 106.723 14.3979C105.495 14.3979 104.698 13.5347 104.698 12.2148V12.1069H109.778C110.45 12.1069 110.832 11.7251 110.832 11.0527C110.832 8.63721 109.139 6.91064 106.615 6.91064C103.984 6.91064 102.315 8.72852 102.315 11.5923C102.315 14.4727 103.951 16.1909 106.731 16.1909ZM104.723 10.6211C104.806 9.48389 105.578 8.70361 106.64 8.70361C107.703 8.70361 108.45 9.45898 108.5 10.6211H104.723ZM116.178 16.1909C117.896 16.1909 119.274 15.5435 119.863 14.4478C119.971 14.2485 120.029 14.0493 120.029 13.8584C120.029 13.3022 119.606 12.9702 119.083 12.9702C118.768 12.9702 118.552 13.0615 118.294 13.3271C117.639 14.0991 117.058 14.3979 116.169 14.3979C114.941 14.3979 114.144 13.5347 114.144 12.2148V12.1069H119.224C119.896 12.1069 120.278 11.7251 120.278 11.0527C120.278 8.63721 118.585 6.91064 116.062 6.91064C113.43 6.91064 111.762 8.72852 111.762 11.5923C111.762 14.4727 113.397 16.1909 116.178 16.1909ZM114.169 10.6211C114.252 9.48389 115.024 8.70361 116.086 8.70361C117.149 8.70361 117.896 9.45898 117.946 10.6211H114.169ZM124.835 16.1411C126.205 16.1411 127.185 15.4272 127.575 14.4312H127.616V14.9458C127.616 15.7593 128.139 16.1743 128.836 16.1743C129.542 16.1743 130.04 15.751 130.04 14.9458V5.10938C130.04 4.2793 129.542 3.83936 128.828 3.83936C128.123 3.83936 127.616 4.2793 127.616 5.10938V8.62891H127.566C127.135 7.64111 126.139 6.96045 124.852 6.96045C122.619 6.96045 121.208 8.71191 121.208 11.5342C121.208 14.3813 122.611 16.1411 124.835 16.1411ZM125.657 14.1904C124.437 14.1904 123.69 13.186 123.69 11.5508C123.69 9.92383 124.437 8.90283 125.657 8.90283C126.861 8.90283 127.633 9.93213 127.633 11.5508C127.633 13.1777 126.861 14.1904 125.657 14.1904ZM137.66 16.1411C138.772 16.1411 139.885 15.585 140.383 14.6387H140.433V15.0952C140.482 15.8091 140.939 16.1743 141.595 16.1743C142.284 16.1743 142.773 15.7593 142.773 14.9541V9.88232C142.773 8.08936 141.288 6.91064 139.005 6.91064C137.162 6.91064 135.734 7.56641 135.319 8.62891C135.236 8.81152 135.195 8.98584 135.195 9.17676C135.195 9.72461 135.618 10.1064 136.208 10.1064C136.598 10.1064 136.905 9.95703 137.17 9.6582C137.71 8.96094 138.158 8.72021 138.897 8.72021C139.81 8.72021 140.391 9.20166 140.391 10.0317V10.6211L138.15 10.7539C135.925 10.8867 134.68 11.8247 134.68 13.4434C134.68 15.0454 135.967 16.1411 137.66 16.1411ZM138.457 14.3896C137.644 14.3896 137.096 13.9746 137.096 13.3105C137.096 12.6797 137.61 12.2729 138.515 12.2065L140.391 12.0903V12.7378C140.391 13.7007 139.52 14.3896 138.457 14.3896ZM145.554 16.1743C146.268 16.1743 146.766 15.7427 146.766 14.9126V10.895C146.766 9.74121 147.455 8.94434 148.542 8.94434C149.63 8.94434 150.178 9.6084 150.178 10.7705V14.9126C150.178 15.7427 150.676 16.1743 151.39 16.1743C152.095 16.1743 152.602 15.7427 152.602 14.9126V10.2642C152.602 8.18066 151.489 6.93555 149.514 6.93555C148.144 6.93555 147.248 7.5415 146.774 8.64551H146.725V8.14746C146.725 7.38379 146.243 6.91895 145.513 6.91895C144.782 6.91895 144.342 7.38379 144.342 8.13916V14.9126C144.342 15.7427 144.849 16.1743 145.554 16.1743ZM155.598 19.2954C157.549 19.2954 158.578 18.4487 159.408 16.1494L162.139 8.72852C162.222 8.49609 162.272 8.21387 162.272 8.01465C162.272 7.37549 161.791 6.91895 161.093 6.91895C160.471 6.91895 160.122 7.20947 159.923 7.88184L157.989 14.0576H157.947L156.013 7.89844C155.814 7.19287 155.482 6.91895 154.843 6.91895C154.129 6.91895 153.589 7.39209 153.589 8.04785C153.589 8.24707 153.639 8.5127 153.73 8.76172L156.569 16.249L156.445 16.5645C156.154 17.187 155.698 17.3696 155.274 17.3696C155.108 17.3696 155.017 17.3613 154.851 17.3613C154.303 17.3613 153.963 17.6685 153.963 18.1582C153.963 18.8887 154.536 19.2954 155.598 19.2954ZM167.958 16.1743C168.672 16.1743 169.17 15.7427 169.17 14.9126V10.9199C169.17 9.74951 169.842 8.94434 170.988 8.94434C172.092 8.94434 172.656 9.6416 172.656 10.7871V14.9126C172.656 15.7427 173.163 16.1743 173.868 16.1743C174.582 16.1743 175.08 15.7427 175.08 14.9126V10.2725C175.08 8.21387 173.951 6.93555 171.976 6.93555C170.623 6.93555 169.651 7.56641 169.178 8.68701H169.128V5.08447C169.128 4.3042 168.688 3.83936 167.941 3.83936C167.194 3.83936 166.746 4.3042 166.746 5.08447V14.9126C166.746 15.7427 167.252 16.1743 167.958 16.1743ZM180.725 16.1909C182.443 16.1909 183.821 15.5435 184.41 14.4478C184.518 14.2485 184.576 14.0493 184.576 13.8584C184.576 13.3022 184.153 12.9702 183.63 12.9702C183.314 12.9702 183.099 13.0615 182.841 13.3271C182.186 14.0991 181.604 14.3979 180.716 14.3979C179.488 14.3979 178.691 13.5347 178.691 12.2148V12.1069H183.771C184.443 12.1069 184.825 11.7251 184.825 11.0527C184.825 8.63721 183.132 6.91064 180.608 6.91064C177.977 6.91064 176.309 8.72852 176.309 11.5923C176.309 14.4727 177.944 16.1909 180.725 16.1909ZM178.716 10.6211C178.799 9.48389 179.571 8.70361 180.633 8.70361C181.696 8.70361 182.443 9.45898 182.493 10.6211H178.716ZM187.349 16.1743C188.062 16.1743 188.561 15.7427 188.561 14.9126V5.10938C188.561 4.2793 188.062 3.83936 187.349 3.83936C186.643 3.83936 186.137 4.2793 186.137 5.10938V14.9126C186.137 15.7427 186.643 16.1743 187.349 16.1743ZM191.408 19.1709C192.122 19.1709 192.62 18.7393 192.62 17.9092V14.5059H192.669C193.143 15.5103 194.139 16.1411 195.434 16.1411C197.658 16.1411 199.036 14.4146 199.036 11.5508C199.036 8.67871 197.65 6.96045 195.392 6.96045C194.105 6.96045 193.118 7.60791 192.636 8.65381H192.586V8.17236C192.586 7.35059 192.088 6.91895 191.391 6.91895C190.694 6.91895 190.196 7.35059 190.196 8.16406V17.9092C190.196 18.7393 190.702 19.1709 191.408 19.1709ZM194.579 14.1904C193.392 14.1904 192.611 13.1611 192.611 11.5508C192.611 9.95703 193.392 8.90283 194.579 8.90283C195.791 8.90283 196.554 9.94043 196.554 11.5508C196.554 13.1694 195.791 14.1904 194.579 14.1904ZM203.651 12.5137C204.241 12.5137 204.564 12.1899 204.689 11.6338C204.797 10.9365 205.046 10.5796 206.15 9.94043C207.32 9.25146 207.926 8.39648 207.926 7.14307C207.926 5.20898 206.341 3.91406 203.983 3.91406C202.199 3.91406 200.871 4.61963 200.339 5.71533C200.173 6.03076 200.09 6.34619 200.09 6.70312C200.09 7.33398 200.497 7.74072 201.153 7.74072C201.659 7.74072 202.033 7.5083 202.24 6.97705C202.506 6.23828 203.054 5.83984 203.867 5.83984C204.78 5.83984 205.411 6.4043 205.411 7.21777C205.411 7.98145 205.087 8.39648 204.017 9.03564C203.037 9.6084 202.531 10.2559 202.531 11.2354V11.3516C202.531 12.0322 202.946 12.5137 203.651 12.5137ZM203.668 16.2075C204.423 16.2075 205.029 15.6348 205.029 14.9043C205.029 14.1738 204.423 13.6011 203.668 13.6011C202.921 13.6011 202.315 14.1738 202.315 14.9043C202.315 15.6348 202.921 16.2075 203.668 16.2075Z" fill="#FF5C5C"/>
<path d="M90.6436 60C96.802 49.3333 112.198 49.3333 118.356 60L157.761 128.25C163.919 138.917 156.221 152.25 143.904 152.25H65.0959C52.7791 152.25 45.081 138.917 51.2394 128.25L90.6436 60Z" fill="#FD4046"/>
<path d="M90 87L96 93L90 99" stroke="black" stroke-width="3" stroke-linecap="round"/>
<path d="M118 87L112 93L118 99" stroke="black" stroke-width="3" stroke-linecap="round"/>
<path d="M119.891 119.677C115.686 116.643 106.031 113.425 101.052 124.831" stroke="black" stroke-width="2" stroke-linecap="round"/>
<path d="M64.3076 217.158C65.0962 217.158 65.561 216.676 65.561 215.854V206.167C65.561 205.337 65.0962 204.856 64.3076 204.856C63.519 204.856 63.0542 205.337 63.0542 206.167V215.854C63.0542 216.676 63.519 217.158 64.3076 217.158ZM67.9932 214.726C67.9932 216.294 68.8149 217.1 70.4336 217.1H70.5166C71.5376 217.1 72.2349 216.734 72.2349 216.021C72.2349 215.456 71.9111 215.207 71.3135 215.141L71.1558 215.124C70.6328 215.083 70.417 214.817 70.417 214.186V209.928H71.272C71.8447 209.928 72.2017 209.571 72.2017 209.015C72.2017 208.458 71.8447 208.102 71.272 208.102H70.417V207.114C70.417 206.333 69.9604 205.852 69.2051 205.852C68.4497 205.852 67.9932 206.333 67.9932 207.114V208.102H67.5283C66.9556 208.102 66.5903 208.45 66.5903 209.015C66.5903 209.579 66.9556 209.928 67.5283 209.928H67.9932V214.726ZM74.4429 209.903C75.0073 209.903 75.3062 209.646 75.4307 209.081L76.103 206.275C76.1362 206.118 76.1611 205.96 76.1611 205.802C76.1611 205.205 75.7544 204.839 75.1152 204.839C74.4927 204.839 74.0859 205.138 73.9946 205.835L73.5713 208.874C73.5713 208.898 73.563 208.94 73.563 209.006C73.5298 209.513 73.8618 209.903 74.4429 209.903ZM80.6851 217.191C83.0342 217.191 84.6196 216.045 84.6196 214.277C84.6196 212.949 83.8394 212.252 81.9468 211.854L80.4775 211.538C79.5894 211.347 79.2407 211.04 79.2407 210.575C79.2407 210.002 79.8135 209.612 80.6353 209.612C81.5068 209.612 81.9883 210.027 82.4116 210.567C82.6274 210.824 82.9761 210.94 83.2915 210.94C83.9141 210.94 84.2212 210.6 84.2212 210.11C84.2212 209.994 84.1963 209.878 84.1631 209.753C83.8726 208.749 82.5195 207.911 80.6768 207.911C78.3691 207.911 76.8999 209.006 76.8999 210.708C76.8999 212.028 77.7798 212.916 79.5229 213.29L81.0171 213.605C81.8887 213.796 82.1958 214.053 82.1958 214.535C82.1958 215.124 81.623 215.489 80.7432 215.489C79.8218 215.489 79.2739 215.207 78.8008 214.584C78.4688 214.211 78.1367 214.037 77.7466 214.037C77.1821 214.037 76.7671 214.41 76.7671 214.966C76.7671 215.099 76.8003 215.257 76.8584 215.415C77.2817 216.46 78.6431 217.191 80.6851 217.191ZM91.8247 217.141C92.937 217.141 94.0493 216.585 94.5474 215.639H94.5972V216.095C94.647 216.809 95.1035 217.174 95.7593 217.174C96.4482 217.174 96.938 216.759 96.938 215.954V210.882C96.938 209.089 95.4521 207.911 93.1694 207.911C91.3267 207.911 89.8989 208.566 89.4839 209.629C89.4009 209.812 89.3594 209.986 89.3594 210.177C89.3594 210.725 89.7827 211.106 90.3721 211.106C90.7622 211.106 91.0693 210.957 91.335 210.658C91.8745 209.961 92.3228 209.72 93.0615 209.72C93.9746 209.72 94.5557 210.202 94.5557 211.032V211.621L92.3145 211.754C90.0898 211.887 88.8447 212.825 88.8447 214.443C88.8447 216.045 90.1313 217.141 91.8247 217.141ZM92.6216 215.39C91.8081 215.39 91.2603 214.975 91.2603 214.311C91.2603 213.68 91.7749 213.273 92.6797 213.207L94.5557 213.09V213.738C94.5557 214.701 93.6841 215.39 92.6216 215.39ZM99.7769 217.174C100.491 217.174 100.989 216.743 100.989 215.913V206.109C100.989 205.279 100.491 204.839 99.7769 204.839C99.0713 204.839 98.5649 205.279 98.5649 206.109V215.913C98.5649 216.743 99.0713 217.174 99.7769 217.174ZM103.836 217.174C104.575 217.174 105.048 216.718 105.048 215.913V211.961C105.048 210.907 105.438 210.285 106.542 210.268C107.015 210.26 107.364 210.152 107.596 209.953C107.829 209.753 107.945 209.463 107.945 209.081C107.945 208.666 107.829 208.367 107.596 208.185C107.422 208.035 107.165 207.96 106.841 207.96C105.953 207.96 105.222 208.616 104.99 209.72H104.94V209.139C104.94 208.367 104.475 207.919 103.794 207.919C103.097 207.919 102.624 208.367 102.624 209.139V215.913C102.624 216.718 103.105 217.174 103.836 217.174ZM110.07 206.998C110.8 206.998 111.365 206.441 111.365 205.744C111.365 205.039 110.8 204.491 110.07 204.491C109.339 204.491 108.775 205.039 108.775 205.744C108.775 206.441 109.339 206.998 110.07 206.998ZM110.07 217.174C110.817 217.174 111.282 216.701 111.282 215.913V209.189C111.282 208.4 110.817 207.919 110.07 207.919C109.314 207.919 108.858 208.4 108.858 209.189V215.913C108.858 216.701 109.314 217.174 110.07 217.174ZM116.876 220.345C119.74 220.362 121.417 218.967 121.417 216.651V209.147C121.417 208.326 120.911 207.919 120.213 207.919C119.516 207.919 118.993 208.326 118.993 209.147V209.637H118.943C118.479 208.633 117.507 207.96 116.229 207.96C113.938 207.96 112.577 209.612 112.577 212.401C112.577 215.116 113.971 216.809 116.188 216.809C117.474 216.809 118.512 216.17 118.927 215.215H118.977V216.635C118.977 217.747 118.196 218.478 116.868 218.469C116.063 218.461 115.432 218.121 114.776 217.498C114.502 217.249 114.253 217.149 113.938 217.149C113.332 217.149 112.95 217.531 112.95 218.038C112.95 218.262 113 218.486 113.133 218.71C113.706 219.648 115.059 220.337 116.876 220.345ZM117.009 215.008C115.806 215.008 115.059 214.053 115.059 212.426C115.059 210.816 115.814 209.803 117.009 209.803C118.221 209.803 119.001 210.833 119.001 212.435C119.001 214.045 118.221 215.008 117.009 215.008ZM124.264 217.174C124.978 217.174 125.476 216.743 125.476 215.913V211.92C125.476 210.75 126.148 209.944 127.294 209.944C128.398 209.944 128.962 210.642 128.962 211.787V215.913C128.962 216.743 129.469 217.174 130.174 217.174C130.888 217.174 131.386 216.743 131.386 215.913V211.272C131.386 209.214 130.257 207.936 128.282 207.936C126.929 207.936 125.958 208.566 125.484 209.687H125.435V206.084C125.435 205.304 124.995 204.839 124.248 204.839C123.5 204.839 123.052 205.304 123.052 206.084V215.913C123.052 216.743 123.559 217.174 124.264 217.174ZM133.586 214.726C133.586 216.294 134.408 217.1 136.026 217.1H136.109C137.13 217.1 137.828 216.734 137.828 216.021C137.828 215.456 137.504 215.207 136.906 215.141L136.749 215.124C136.226 215.083 136.01 214.817 136.01 214.186V209.928H136.865C137.438 209.928 137.794 209.571 137.794 209.015C137.794 208.458 137.438 208.102 136.865 208.102H136.01V207.114C136.01 206.333 135.553 205.852 134.798 205.852C134.042 205.852 133.586 206.333 133.586 207.114V208.102H133.121C132.548 208.102 132.183 208.45 132.183 209.015C132.183 209.579 132.548 209.928 133.121 209.928H133.586V214.726ZM140.882 213.173C141.571 213.173 141.937 212.758 141.961 212.053L142.086 206.309C142.094 206.226 142.094 206.126 142.094 206.06C142.094 205.296 141.629 204.839 140.891 204.839C140.144 204.839 139.67 205.296 139.67 206.06C139.67 206.126 139.679 206.226 139.679 206.309L139.812 212.053C139.828 212.758 140.193 213.173 140.882 213.173ZM140.882 217.208C141.638 217.208 142.235 216.635 142.235 215.904C142.235 215.174 141.638 214.601 140.882 214.601C140.127 214.601 139.529 215.174 139.529 215.904C139.529 216.635 140.127 217.208 140.882 217.208Z" fill="#5B8DEE"/>
<path d="M14.3701 237H20.3052C20.7285 237 21.019 236.726 21.019 236.328C21.019 235.929 20.7285 235.655 20.3052 235.655H15.1172V225.678C15.1172 225.205 14.8267 224.906 14.3701 224.906C13.9136 224.906 13.623 225.205 13.623 225.678V236.228C13.623 236.701 13.9136 237 14.3701 237ZM25.6841 237.149C27.2612 237.149 28.4731 236.485 29.0293 235.315C29.0957 235.157 29.1372 235.008 29.1372 234.892C29.1372 234.51 28.8799 234.261 28.498 234.261C28.2739 234.261 28.1079 234.344 27.9585 234.551C27.2861 235.531 26.6553 235.896 25.626 235.896C24.082 235.896 23.1274 234.817 23.1274 233.074H28.5229C29.021 233.074 29.3198 232.758 29.3198 232.235C29.3198 229.87 27.7676 228.218 25.5596 228.218C23.1772 228.218 21.6416 229.994 21.6416 232.717C21.6416 235.506 23.1357 237.149 25.6841 237.149ZM23.1357 231.945C23.2271 230.459 24.1899 229.471 25.5347 229.471C26.8711 229.471 27.7925 230.451 27.8257 231.945H23.1357ZM31.2456 235.008C31.2456 236.386 31.9429 237.066 33.3374 237.066H33.4287C34.2339 237.066 34.4829 236.834 34.4829 236.394C34.4829 236.054 34.2671 235.863 33.7939 235.83L33.6694 235.821C32.9473 235.771 32.6899 235.423 32.6899 234.692V229.554H33.8022C34.2173 229.554 34.4497 229.338 34.4497 228.957C34.4497 228.583 34.2173 228.367 33.8022 228.367H32.6899V226.89C32.6899 226.433 32.3911 226.118 31.9678 226.118C31.5444 226.118 31.2456 226.433 31.2456 226.89V228.367H30.5234C30.1084 228.367 29.876 228.583 29.876 228.957C29.876 229.338 30.1084 229.554 30.5234 229.554H31.2456V235.008ZM36.4751 229.363C36.8237 229.363 37.0146 229.197 37.106 228.84L37.8696 225.985C37.9194 225.802 37.936 225.678 37.936 225.528C37.936 225.122 37.6372 224.873 37.2139 224.873C36.8237 224.873 36.5913 225.047 36.5 225.503L35.9106 228.583C35.9023 228.633 35.8857 228.716 35.8857 228.84C35.8857 229.172 36.1431 229.363 36.4751 229.363ZM41.8789 237.149C43.9292 237.149 45.3154 236.112 45.3154 234.568C45.3154 233.298 44.6514 232.667 42.8501 232.227L41.5635 231.912C40.6172 231.679 40.1523 231.264 40.1523 230.667C40.1523 229.928 40.8745 229.405 41.9121 229.405C42.792 229.405 43.3481 229.72 43.7217 230.442C43.8794 230.741 44.0786 230.833 44.3608 230.833C44.7095 230.833 44.9253 230.608 44.9253 230.268C44.9253 230.202 44.917 230.135 44.9004 230.052C44.6763 229.015 43.4146 228.218 41.9951 228.218C40.0444 228.218 38.7246 229.239 38.7246 230.741C38.7246 231.953 39.5298 232.742 41.1982 233.157L42.5181 233.489C43.4893 233.729 43.8462 234.062 43.8462 234.684C43.8462 235.489 43.0991 235.971 41.9951 235.971C40.8911 235.971 40.3765 235.63 39.9448 234.875C39.7788 234.576 39.5713 234.443 39.314 234.443C38.9404 234.443 38.6582 234.659 38.6582 235.041C38.6582 235.149 38.6748 235.257 38.7246 235.381C39.1396 236.46 40.3433 237.149 41.8789 237.149ZM53.8486 237.149C55.4175 237.149 56.7871 236.286 57.2021 235.091C57.2437 234.958 57.2686 234.833 57.2686 234.726C57.2686 234.352 57.0195 234.095 56.646 234.095C56.3306 234.095 56.1729 234.211 55.9653 234.601C55.5171 235.431 54.8862 235.879 53.8486 235.879C52.3628 235.879 51.3335 234.667 51.3335 232.684C51.3335 230.75 52.3462 229.488 53.8486 229.488C54.8447 229.488 55.5005 229.911 55.957 230.766C56.1562 231.14 56.3306 231.272 56.646 231.272C57.0195 231.272 57.2603 231.023 57.2603 230.642C57.2603 230.55 57.2437 230.442 57.2104 230.334C56.8784 229.139 55.459 228.218 53.832 228.218C51.4414 228.218 49.8643 229.986 49.8643 232.7C49.8643 235.431 51.458 237.149 53.8486 237.149ZM61.3193 237.149C62.4814 237.149 63.5854 236.502 64.1001 235.514H64.1333V236.419C64.1333 236.851 64.4155 237.149 64.8223 237.149C65.2207 237.149 65.5029 236.851 65.5029 236.419V231.032C65.5029 229.313 64.2246 228.218 62.1992 228.218C60.7964 228.218 59.5347 228.84 59.0449 229.787C58.9287 229.994 58.8706 230.202 58.8706 230.384C58.8706 230.774 59.1362 231.032 59.5098 231.032C59.7837 231.032 59.9746 230.924 60.1074 230.683C60.5889 229.828 61.228 229.488 62.166 229.488C63.3613 229.488 64.0586 230.119 64.0586 231.173V231.895L61.5767 232.036C59.5845 232.152 58.4473 233.082 58.4473 234.56C58.4473 236.112 59.6011 237.149 61.3193 237.149ZM61.6431 235.921C60.6055 235.921 59.9165 235.381 59.9165 234.56C59.9165 233.746 60.5806 233.231 61.7427 233.157L64.0586 233.016V233.721C64.0586 234.966 63.0044 235.921 61.6431 235.921ZM68.1343 237.149C68.5576 237.149 68.8564 236.834 68.8564 236.377V225.645C68.8564 225.188 68.5576 224.873 68.1343 224.873C67.7109 224.873 67.4121 225.188 67.4121 225.645V236.377C67.4121 236.834 67.7109 237.149 68.1343 237.149ZM71.604 237.149C72.0273 237.149 72.3262 236.834 72.3262 236.377V225.645C72.3262 225.188 72.0273 224.873 71.604 224.873C71.1807 224.873 70.8818 225.188 70.8818 225.645V236.377C70.8818 236.834 71.1807 237.149 71.604 237.149ZM78.6099 240.229C80.0376 240.229 80.7432 239.59 81.4902 237.606L84.6777 229.264C84.7275 229.123 84.7524 228.99 84.7524 228.882C84.7524 228.492 84.4619 228.218 84.0469 228.218C83.6899 228.218 83.499 228.367 83.3662 228.749L80.9756 235.556H80.9507L78.5684 228.749C78.4355 228.367 78.2197 228.218 77.8794 228.218C77.4644 228.218 77.1572 228.483 77.1572 228.882C77.1572 228.99 77.1821 229.123 77.2319 229.264L80.2036 237.008L80.0044 237.614C79.6641 238.66 79.1411 238.992 78.5933 238.992C78.3691 238.992 78.311 238.984 78.1035 238.984C77.7383 238.984 77.5225 239.2 77.5225 239.515C77.5225 239.972 77.9126 240.229 78.6099 240.229ZM89.3594 237.149C91.7417 237.149 93.3521 235.431 93.3521 232.684C93.3521 229.928 91.7417 228.218 89.3594 228.218C86.9688 228.218 85.3584 229.928 85.3584 232.684C85.3584 235.431 86.9688 237.149 89.3594 237.149ZM89.3594 235.879C87.832 235.879 86.8276 234.717 86.8276 232.684C86.8276 230.65 87.832 229.488 89.3594 229.488C90.8867 229.488 91.8828 230.65 91.8828 232.684C91.8828 234.717 90.8867 235.879 89.3594 235.879ZM97.7598 237.149C99.0879 237.149 99.9844 236.593 100.499 235.597H100.532V236.419C100.532 236.834 100.806 237.149 101.221 237.149C101.636 237.149 101.902 236.834 101.902 236.419V228.99C101.902 228.533 101.603 228.218 101.18 228.218C100.756 228.218 100.458 228.533 100.458 228.99V233.439C100.458 234.908 99.6108 235.871 98.208 235.871C96.8716 235.871 96.2158 235.116 96.2158 233.713V228.99C96.2158 228.533 95.917 228.218 95.4937 228.218C95.0703 228.218 94.7715 228.533 94.7715 228.99V233.97C94.7715 235.929 95.8755 237.149 97.7598 237.149ZM104.5 237.149C104.923 237.149 105.222 236.834 105.222 236.377V231.638C105.222 230.534 105.778 229.596 107.082 229.596C107.397 229.596 107.621 229.538 107.771 229.413C107.92 229.297 107.995 229.131 107.995 228.907C107.995 228.708 107.937 228.542 107.812 228.425C107.671 228.292 107.447 228.218 107.131 228.218C106.268 228.218 105.421 228.882 105.172 229.778H105.139V228.948C105.139 228.517 104.857 228.218 104.458 228.218C104.06 228.218 103.778 228.517 103.778 228.948V236.377C103.778 236.834 104.077 237.149 104.5 237.149ZM113.232 237.149C113.672 237.149 113.955 236.817 113.955 236.377V231.588C113.955 230.393 114.785 229.496 115.93 229.496C117.001 229.496 117.698 230.177 117.698 231.214V236.377C117.698 236.817 117.98 237.149 118.42 237.149C118.86 237.149 119.143 236.817 119.143 236.377V231.513C119.143 230.343 119.948 229.496 121.093 229.496C122.23 229.496 122.886 230.193 122.886 231.372V236.377C122.886 236.817 123.168 237.149 123.608 237.149C124.048 237.149 124.331 236.817 124.331 236.377V231.04C124.331 229.33 123.227 228.218 121.517 228.218C120.305 228.218 119.292 228.832 118.811 229.861H118.777C118.404 228.815 117.532 228.218 116.354 228.218C115.191 228.218 114.312 228.832 113.905 229.745H113.872V228.948C113.872 228.517 113.589 228.218 113.191 228.218C112.792 228.218 112.51 228.517 112.51 228.948V236.377C112.51 236.817 112.792 237.149 113.232 237.149ZM129.751 237.149C132.133 237.149 133.744 235.431 133.744 232.684C133.744 229.928 132.133 228.218 129.751 228.218C127.36 228.218 125.75 229.928 125.75 232.684C125.75 235.431 127.36 237.149 129.751 237.149ZM129.751 235.879C128.224 235.879 127.219 234.717 127.219 232.684C127.219 230.65 128.224 229.488 129.751 229.488C131.278 229.488 132.274 230.65 132.274 232.684C132.274 234.717 131.278 235.879 129.751 235.879ZM135.927 237.149C136.367 237.149 136.649 236.817 136.649 236.377V231.588C136.649 230.393 137.479 229.496 138.625 229.496C139.695 229.496 140.393 230.177 140.393 231.214V236.377C140.393 236.817 140.675 237.149 141.115 237.149C141.555 237.149 141.837 236.817 141.837 236.377V231.513C141.837 230.343 142.642 229.496 143.788 229.496C144.925 229.496 145.581 230.193 145.581 231.372V236.377C145.581 236.817 145.863 237.149 146.303 237.149C146.743 237.149 147.025 236.817 147.025 236.377V231.04C147.025 229.33 145.921 228.218 144.211 228.218C142.999 228.218 141.986 228.832 141.505 229.861H141.472C141.098 228.815 140.227 228.218 139.048 228.218C137.886 228.218 137.006 228.832 136.599 229.745H136.566V228.948C136.566 228.517 136.284 228.218 135.885 228.218C135.487 228.218 135.205 228.517 135.205 228.948V236.377C135.205 236.817 135.487 237.149 135.927 237.149ZM155.932 237.149C158.314 237.149 159.924 235.431 159.924 232.684C159.924 229.928 158.314 228.218 155.932 228.218C153.541 228.218 151.931 229.928 151.931 232.684C151.931 235.431 153.541 237.149 155.932 237.149ZM155.932 235.879C154.404 235.879 153.4 234.717 153.4 232.684C153.4 230.65 154.404 229.488 155.932 229.488C157.459 229.488 158.455 230.65 158.455 232.684C158.455 234.717 157.459 235.879 155.932 235.879ZM162.107 237.149C162.531 237.149 162.83 236.834 162.83 236.377V231.638C162.83 230.534 163.386 229.596 164.689 229.596C165.004 229.596 165.229 229.538 165.378 229.413C165.527 229.297 165.602 229.131 165.602 228.907C165.602 228.708 165.544 228.542 165.419 228.425C165.278 228.292 165.054 228.218 164.739 228.218C163.875 228.218 163.029 228.882 162.78 229.778H162.747V228.948C162.747 228.517 162.464 228.218 162.066 228.218C161.667 228.218 161.385 228.517 161.385 228.948V236.377C161.385 236.834 161.684 237.149 162.107 237.149ZM173.388 237.149C174.741 237.149 175.638 236.485 176.111 235.456H176.136V236.444C176.136 236.867 176.468 237.149 176.875 237.149C177.29 237.149 177.58 236.859 177.58 236.444V225.645C177.58 225.188 177.281 224.873 176.858 224.873C176.435 224.873 176.136 225.188 176.136 225.645V229.77H176.103C175.588 228.824 174.592 228.218 173.355 228.218C171.18 228.218 169.694 229.978 169.694 232.684C169.694 235.39 171.188 237.149 173.388 237.149ZM173.662 235.879C172.135 235.879 171.172 234.643 171.172 232.684C171.172 230.733 172.135 229.488 173.662 229.488C175.148 229.488 176.144 230.758 176.144 232.684C176.144 234.618 175.148 235.879 173.662 235.879ZM182.046 237.149C183.208 237.149 184.312 236.502 184.827 235.514H184.86V236.419C184.86 236.851 185.142 237.149 185.549 237.149C185.947 237.149 186.229 236.851 186.229 236.419V231.032C186.229 229.313 184.951 228.218 182.926 228.218C181.523 228.218 180.261 228.84 179.771 229.787C179.655 229.994 179.597 230.202 179.597 230.384C179.597 230.774 179.863 231.032 180.236 231.032C180.51 231.032 180.701 230.924 180.834 230.683C181.315 229.828 181.955 229.488 182.893 229.488C184.088 229.488 184.785 230.119 184.785 231.173V231.895L182.303 232.036C180.311 232.152 179.174 233.082 179.174 234.56C179.174 236.112 180.328 237.149 182.046 237.149ZM182.37 235.921C181.332 235.921 180.643 235.381 180.643 234.56C180.643 233.746 181.307 233.231 182.469 233.157L184.785 233.016V233.721C184.785 234.966 183.731 235.921 182.37 235.921ZM191.334 237.149C192.688 237.149 193.584 236.485 194.057 235.456H194.082V236.444C194.082 236.867 194.414 237.149 194.821 237.149C195.236 237.149 195.526 236.859 195.526 236.444V225.645C195.526 225.188 195.228 224.873 194.804 224.873C194.381 224.873 194.082 225.188 194.082 225.645V229.77H194.049C193.534 228.824 192.538 228.218 191.301 228.218C189.126 228.218 187.641 229.978 187.641 232.684C187.641 235.39 189.135 237.149 191.334 237.149ZM191.608 235.879C190.081 235.879 189.118 234.643 189.118 232.684C189.118 230.733 190.081 229.488 191.608 229.488C193.094 229.488 194.09 230.758 194.09 232.684C194.09 234.618 193.094 235.879 191.608 235.879Z" fill="black"/>
</svg>
