<svg width="900" height="483" viewBox="0 0 900 483" fill="none" xmlns="http://www.w3.org/2000/svg">
<path d="M0 482.642H900V-3.05176e-05H0L0 482.642Z" fill="#F5F5F5"/>
<path d="M329.4 188.776H285.213C283.185 188.776 281.526 187.352 281.526 185.61V149.018C281.526 147.276 283.185 145.852 285.213 145.852H329.4C331.431 145.852 333.09 147.276 333.09 149.018V185.61C333.09 187.352 331.431 188.776 329.4 188.776Z" fill="#C0D8FB"/>
<path d="M327.488 186.915H287.128C285.275 186.915 283.759 185.615 283.759 184.024V150.604C283.759 149.013 285.275 147.713 287.128 147.713H327.488C329.338 147.713 330.854 149.013 330.854 150.604V184.024C330.854 185.615 329.338 186.915 327.488 186.915Z" fill="#DFEBFD"/>
<path d="M306.239 151.629C306.239 151.123 306.717 150.712 307.308 150.712C307.899 150.712 308.377 151.123 308.377 151.629C308.377 152.136 307.899 152.546 307.308 152.546C306.717 152.546 306.239 152.136 306.239 151.629Z" fill="#B7D3F3"/>
<path d="M314.86 152.925C315.144 152.484 315.797 152.324 316.312 152.568C316.827 152.814 317.012 153.374 316.725 153.816C316.441 154.257 315.788 154.417 315.273 154.17C314.758 153.924 314.572 153.367 314.86 152.925Z" fill="#B7D3F3"/>
<path d="M322.243 157.959C322.738 157.684 323.399 157.807 323.72 158.232C324.041 158.657 323.897 159.224 323.402 159.499C322.904 159.774 322.243 159.651 321.925 159.226C321.604 158.799 321.747 158.232 322.243 157.959Z" fill="#B7D3F3"/>
<path d="M325.899 165.749C326.49 165.749 326.969 166.159 326.969 166.666C326.969 167.17 326.49 167.583 325.899 167.583C325.311 167.583 324.833 167.17 324.833 166.666C324.833 166.159 325.311 165.749 325.899 165.749Z" fill="#B7D3F3"/>
<path d="M324.032 174.791C324.452 175.148 324.452 175.728 324.032 176.087C323.616 176.444 322.94 176.444 322.521 176.087C322.104 175.728 322.104 175.148 322.521 174.791C322.94 174.432 323.616 174.432 324.032 174.791Z" fill="#B7D3F3"/>
<path d="M317.327 180.559C317.744 180.918 317.744 181.498 317.327 181.857C316.908 182.214 316.232 182.214 315.813 181.857C315.397 181.498 315.397 180.918 315.813 180.559C316.232 180.202 316.908 180.202 317.327 180.559Z" fill="#B7D3F3"/>
<path d="M306.239 183.534C306.239 183.028 306.717 182.617 307.308 182.617C307.899 182.617 308.377 183.028 308.377 183.534C308.377 184.041 307.899 184.451 307.308 184.451C306.717 184.451 306.239 184.041 306.239 183.534Z" fill="#B7D3F3"/>
<path d="M299.724 152.925C299.437 152.484 298.787 152.324 298.272 152.568C297.754 152.814 297.568 153.374 297.855 153.816C298.142 154.257 298.792 154.417 299.31 154.17C299.825 153.924 300.011 153.367 299.724 152.925Z" fill="#B7D3F3"/>
<path d="M292.34 157.959C291.845 157.684 291.18 157.807 290.862 158.232C290.542 158.657 290.685 159.224 291.18 159.499C291.676 159.774 292.337 159.651 292.658 159.226C292.979 158.799 292.835 158.232 292.34 157.959Z" fill="#B7D3F3"/>
<path d="M288.681 165.749C288.093 165.749 287.615 166.159 287.615 166.666C287.615 167.17 288.093 167.583 288.681 167.583C289.272 167.583 289.751 167.17 289.751 166.666C289.751 166.159 289.272 165.749 288.681 165.749Z" fill="#B7D3F3"/>
<path d="M290.548 174.791C290.132 175.148 290.132 175.728 290.548 176.087C290.968 176.444 291.643 176.444 292.06 176.087C292.479 175.728 292.479 175.148 292.06 174.791C291.643 174.432 290.968 174.432 290.548 174.791Z" fill="#B7D3F3"/>
<path d="M297.256 180.559C296.84 180.918 296.84 181.498 297.256 181.857C297.673 182.214 298.351 182.214 298.767 181.857C299.187 181.498 299.187 180.918 298.767 180.559C298.351 180.202 297.673 180.202 297.256 180.559Z" fill="#B7D3F3"/>
<path d="M307.021 166.666C307.021 166.159 307.5 165.749 308.088 165.749C308.679 165.749 309.157 166.159 309.157 166.666C309.157 167.17 308.679 167.583 308.088 167.583C307.5 167.583 307.021 167.17 307.021 166.666Z" fill="#B7D3F3"/>
<path d="M308.233 166.666H307.941V155.215H308.233V166.666Z" fill="#B7D3F3"/>
<path d="M308.221 166.944L307.681 166.355L314.758 161.589L315.298 162.18L308.221 166.944Z" fill="#B7D3F3"/>
<path d="M500.707 268.323H493.973C493.245 268.323 492.649 267.811 492.649 267.184C492.649 266.559 493.245 266.047 493.973 266.047H500.707C501.438 266.047 502.034 266.559 502.034 267.184C502.034 267.811 501.438 268.323 500.707 268.323Z" fill="#95B3EF"/>
<path d="M547.784 268.323H541.051C540.323 268.323 539.726 267.811 539.726 267.184C539.726 266.559 540.323 266.047 541.051 266.047H547.784C548.513 266.047 549.112 266.559 549.112 267.184C549.112 267.811 548.513 268.323 547.784 268.323Z" fill="#95B3EF"/>
<path d="M537.77 291.895H504.864C501.787 291.895 499.292 289.754 499.292 287.114V258.805H543.342V287.114C543.342 289.754 540.847 291.895 537.77 291.895Z" fill="#AFCDFB"/>
<path d="M543.518 260.011H499.114C498.67 260.011 498.307 259.7 498.307 259.319C498.307 258.938 498.67 258.626 499.114 258.626H543.518C543.962 258.626 544.325 258.938 544.325 259.319C544.325 259.7 543.962 260.011 543.518 260.011Z" fill="#95B3EF"/>
<path d="M496.434 117.451H444.223V82.3025C459.818 72.8644 477.48 65.4534 496.434 60.002V117.451Z" fill="#DBE6F9"/>
<path d="M432.717 135.864H507.945V117.453H432.717V135.864Z" fill="#CCD8F8"/>
<path d="M540.506 169.101H400.153L434.401 135.864H509.627L540.506 169.101Z" fill="#DBE6F9"/>
<path d="M390.33 178.467H553.981V169.1H390.33V178.467Z" fill="#CCD8F8"/>
<path d="M244.862 427.788H560.169V295.558H244.862V427.788Z" fill="#C4D1F7"/>
<path d="M561.279 302.368H245.441V295.761C245.441 295.647 245.547 295.558 245.678 295.558H561.279C563.152 295.558 564.671 296.859 564.671 298.469V299.458C564.671 301.065 563.152 302.368 561.279 302.368Z" fill="#9DB0F4"/>
<path d="M398.278 362.361H258.355V309.487H398.278V362.361ZM259.962 310.868V360.983H396.672V310.868H259.962Z" fill="#9FB2E9"/>
<path d="M398.278 421.166H258.355V368.292H398.278V421.166ZM259.962 369.673V419.788H396.672V369.673H259.962Z" fill="#9FB2E9"/>
<path d="M547.835 362.361H407.914V309.487H547.835V362.361ZM409.52 310.868V360.983H546.23V310.868H409.52Z" fill="#9FB2E9"/>
<path d="M547.835 421.166H407.914V368.292H547.835V421.166ZM409.52 369.673V419.788H546.23V369.673H409.52Z" fill="#9FB2E9"/>
<path d="M338.546 319.027H318.088C317.171 319.027 316.42 318.382 316.42 317.596C316.42 316.809 317.171 316.165 318.088 316.165H338.546C339.463 316.165 340.214 316.809 340.214 317.596C340.214 318.382 339.463 319.027 338.546 319.027Z" fill="#7B94DB"/>
<path d="M338.546 376.939H318.088C317.171 376.939 316.42 376.295 316.42 375.508C316.42 374.721 317.171 374.077 318.088 374.077H338.546C339.463 374.077 340.214 374.721 340.214 375.508C340.214 376.295 339.463 376.939 338.546 376.939Z" fill="#7B94DB"/>
<path d="M489.368 319.027H468.91C467.993 319.027 467.242 318.382 467.242 317.596C467.242 316.809 467.993 316.165 468.91 316.165H489.368C490.285 316.165 491.036 316.809 491.036 317.596C491.036 318.382 490.285 319.027 489.368 319.027Z" fill="#7B94DB"/>
<path d="M489.368 376.939H468.91C467.993 376.939 467.242 376.295 467.242 375.508C467.242 374.721 467.993 374.077 468.91 374.077H489.368C490.285 374.077 491.036 374.721 491.036 375.508C491.036 376.295 490.285 376.939 489.368 376.939Z" fill="#7B94DB"/>
<path d="M708.758 425.36H570.046V105.025H708.758V425.36ZM622.833 133.661C620.53 133.661 618.663 135.263 618.663 137.237V149.327C618.663 151.301 620.53 152.904 622.833 152.904H655.97C658.274 152.904 660.138 151.301 660.138 149.327V137.237C660.138 135.263 658.274 133.661 655.97 133.661H622.833Z" fill="#DBE6F9"/>
<path d="M577.901 273.736V273.292C577.901 271.581 579.518 270.193 581.512 270.193H606.524C608.518 270.193 610.135 271.581 610.135 273.292V273.736C610.135 275.447 608.518 276.834 606.524 276.834H581.512C579.518 276.834 577.901 275.447 577.901 273.736Z" fill="#9DB0F4"/>
<path d="M655.971 152.904H622.834C620.53 152.904 618.663 151.301 618.663 149.327V137.237C618.663 135.263 620.53 133.661 622.834 133.661H655.971C658.274 133.661 660.139 135.263 660.139 137.237V149.327C660.139 151.301 658.274 152.904 655.971 152.904Z" fill="#B0C4F5"/>
<path d="M708.758 284.974H570.046V283.475H708.758V284.974Z" fill="#C4D1F7"/>
<path d="M290.666 241.106H274.257C273.354 241.106 272.616 240.472 272.616 239.7C272.616 238.925 273.354 238.29 274.257 238.29H290.666C291.566 238.29 292.306 238.925 292.306 239.7C292.306 240.472 291.566 241.106 290.666 241.106ZM301.981 235.788H262.939C260.987 235.788 259.403 237.146 259.403 238.821V292.636C259.403 294.311 260.987 295.669 262.939 295.669H301.981C303.935 295.669 305.519 294.311 305.519 292.636V238.821C305.519 237.146 303.935 235.788 301.981 235.788Z" fill="#F9DDBF"/>
<path d="M311.879 253.366H299.158C298.457 253.366 297.886 252.873 297.886 252.272C297.886 251.674 298.457 251.182 299.158 251.182H311.879C312.579 251.182 313.153 251.674 313.153 252.272C313.153 252.873 312.579 253.366 311.879 253.366ZM320.654 249.241H290.383C288.869 249.241 287.64 250.294 287.64 251.594V293.316C287.64 294.617 288.869 295.669 290.383 295.669H320.654C322.169 295.669 323.396 294.617 323.396 293.316V251.594C323.396 250.294 322.169 249.241 320.654 249.241Z" fill="#F99746"/>
<path d="M388.53 241.357H326.276V235.414H388.53V241.357Z" fill="#BDD1F9"/>
<path d="M380.984 271.054C380.984 271.38 380.677 271.643 380.3 271.643C379.921 271.643 379.614 271.38 379.614 271.054V264.483C379.614 264.16 379.921 263.897 380.3 263.897C380.677 263.897 380.984 264.16 380.984 264.483V271.054ZM377.904 271.054C377.904 271.38 377.595 271.643 377.218 271.643C376.838 271.643 376.532 271.38 376.532 271.054V264.483C376.532 264.16 376.838 263.897 377.218 263.897C377.595 263.897 377.904 264.16 377.904 264.483V271.054ZM374.819 271.054C374.819 271.38 374.512 271.643 374.135 271.643C373.756 271.643 373.449 271.38 373.449 271.054V264.483C373.449 264.16 373.756 263.897 374.135 263.897C374.512 263.897 374.819 264.16 374.819 264.483V271.054ZM383.524 271.798V264.213C383.524 263.829 383.366 263.46 383.076 263.168L382.055 262.135C380.84 260.904 379.055 260.195 377.176 260.195C375.227 260.195 373.385 260.958 372.17 262.263L371.32 263.178C371.056 263.465 370.91 263.82 370.91 264.186V271.798C370.91 272.553 371.624 273.164 372.501 273.164H381.932C382.812 273.164 383.524 272.553 383.524 271.798Z" fill="#BDD1F9"/>
<path d="M377.906 237.752H376.107V261.199H377.906V237.752Z" fill="#BDD1F9"/>
<path d="M362.061 268.46V265.439C362.061 264.264 361.696 263.129 361.032 262.234L360.959 262.135C360.048 260.904 358.709 260.195 357.297 260.195C355.837 260.195 354.456 260.958 353.545 262.263C352.932 263.141 352.6 264.23 352.6 265.354V268.46C352.6 271.059 354.44 273.164 356.709 273.164H357.95C360.219 273.164 362.061 271.059 362.061 268.46Z" fill="#BDD1F9"/>
<path d="M358.015 237.752H356.22V261.199H358.015V237.752Z" fill="#BDD1F9"/>
<path d="M343.603 267.413V264.42C343.603 263.257 343.13 262.133 342.264 261.247L342.169 261.148C340.982 259.932 339.238 259.23 337.401 259.23C335.497 259.23 333.697 259.983 332.513 261.276C331.714 262.145 331.281 263.223 331.281 264.336V267.413C331.281 269.985 333.678 272.07 336.636 272.07H338.248C341.207 272.07 343.603 269.985 343.603 267.413Z" fill="#BDD1F9"/>
<path d="M338.128 237.752H336.332V261.199H338.128V237.752Z" fill="#BDD1F9"/>
<path d="M337.306 239.782H337.154C337.002 239.782 336.875 239.673 336.875 239.54V238.628C336.875 238.495 337.002 238.387 337.154 238.387H337.306C337.46 238.387 337.587 238.495 337.587 238.628V239.54C337.587 239.673 337.46 239.782 337.306 239.782Z" fill="#BDD1F9"/>
<path d="M357.193 239.782H357.044C356.889 239.782 356.763 239.673 356.763 239.54V238.628C356.763 238.495 356.889 238.387 357.044 238.387H357.193C357.348 238.387 357.475 238.495 357.475 238.628V239.54C357.475 239.673 357.348 239.782 357.193 239.782Z" fill="#BDD1F9"/>
<path d="M377.081 239.782H376.932C376.777 239.782 376.65 239.673 376.65 239.54V238.628C376.65 238.495 376.777 238.387 376.932 238.387H377.081C377.236 238.387 377.362 238.495 377.362 238.628V239.54C377.362 239.673 377.236 239.782 377.081 239.782Z" fill="#BDD1F9"/>
<path d="M101.545 427.689H245.527V205.452H101.545V427.689Z" fill="#C4D1F7"/>
<path d="M233.674 266.339H115.043V215.189H233.674V266.339Z" fill="#718DDB"/>
<path d="M233.412 266.264H205.693V215.208H233.412V266.264Z" fill="#86A2F2"/>
<path d="M216.312 237.376C216.312 235.609 217.98 234.178 220.037 234.178C222.095 234.178 223.763 235.609 223.763 237.376C223.763 239.14 222.095 240.573 220.037 240.573C217.98 240.573 216.312 239.14 216.312 237.376Z" fill="white"/>
<path d="M230.098 226.058H209.83V218.002H230.098V226.058Z" fill="#2B478B"/>
<path d="M216.088 249.413H212.189V246.07H216.088V249.413Z" fill="white"/>
<path d="M222.363 249.413H218.465V246.07H222.363V249.413Z" fill="white"/>
<path d="M228.587 249.413H224.688V246.07H228.587V249.413Z" fill="white"/>
<path d="M216.088 255.031H212.189V251.688H216.088V255.031Z" fill="white"/>
<path d="M222.363 255.031H218.465V251.688H222.363V255.031Z" fill="white"/>
<path d="M228.587 255.031H224.688V251.688H228.587V255.031Z" fill="white"/>
<path d="M216.088 260.649H212.189V257.306H216.088V260.649Z" fill="white"/>
<path d="M222.363 260.649H218.465V257.306H222.363V260.649Z" fill="white"/>
<path d="M228.587 260.649H224.688V257.306H228.587V260.649Z" fill="white"/>
<path d="M116.885 263.779H231.993V217.655H116.885V263.779ZM235.678 266.94H113.2V214.493H235.678V266.94Z" fill="#86A2F2"/>
<path d="M115.043 352.529H233.675V281.429H115.043V352.529Z" fill="#A5B9F4"/>
<path d="M233.349 298.116H111.868C110.105 298.116 108.675 296.89 108.675 295.377V294.335C108.675 292.821 110.105 291.596 111.868 291.596H233.349C235.112 291.596 236.541 292.821 236.541 294.335V295.377C236.541 296.89 235.112 298.116 233.349 298.116Z" fill="#EBF3FA"/>
<path d="M233.675 289.1H114.447V279.554H233.675V289.1Z" fill="#86A2F2"/>
<path d="M227.515 347.413H122.594V301.207H227.515V347.413Z" fill="#718DDB"/>
<path d="M238.787 421.388H115.372V368.983H238.787V421.388ZM117.181 370.537V419.836H236.978V370.537H117.181Z" fill="#9FB2E9"/>
<path d="M187.057 377.747H166.541C165.639 377.747 164.902 377.115 164.902 376.343C164.902 375.568 165.639 374.936 166.541 374.936H187.057C187.958 374.936 188.696 375.568 188.696 376.343C188.696 377.115 187.958 377.747 187.057 377.747Z" fill="#7B94DB"/>
<path d="M871.847 427.809H57.466C56.9775 427.809 56.5781 427.467 56.5781 427.047V426.859C56.5781 426.439 56.9775 426.096 57.466 426.096H871.847C872.336 426.096 872.736 426.439 872.736 426.859V427.047C872.736 427.467 872.336 427.809 871.847 427.809Z" fill="#2E3552"/>
<path d="M176.326 285.331C176.326 283.914 177.665 282.766 179.315 282.766C180.966 282.766 182.304 283.914 182.304 285.331C182.304 286.745 180.966 287.894 179.315 287.894C177.665 287.894 176.326 286.745 176.326 285.331Z" fill="#2B478B"/>
<path d="M187.375 285.331C187.375 283.914 188.713 282.766 190.363 282.766C192.014 282.766 193.352 283.914 193.352 285.331C193.352 286.745 192.014 287.894 190.363 287.894C188.713 287.894 187.375 286.745 187.375 285.331Z" fill="#2B478B"/>
<path d="M226.44 288.077H203.171V282.582H226.44V288.077Z" fill="#2B478B"/>
<path d="M213.767 181.355V200.898C213.767 203.243 210.801 205.164 207.176 205.164H187.467C183.842 205.164 180.876 203.243 180.876 200.898V181.355H213.767Z" fill="#F99746"/>
<path d="M191.465 181.384C191.435 181.182 188.312 161.094 176.156 151.127L176.485 150.833C188.763 160.899 191.906 181.128 191.937 181.331L191.465 181.384Z" fill="#A8D29F"/>
<path d="M197.084 181.365C196.575 168.592 200.491 141.875 200.53 141.607L201.002 141.658C200.963 141.926 197.052 168.611 197.559 181.351L197.084 181.365Z" fill="#A8D29F"/>
<path d="M204.48 181.377L204.006 181.338C204.678 175.156 209.28 171.553 213.024 169.62C217.065 167.532 221.005 166.888 221.045 166.883L221.131 167.284C221.093 167.291 217.225 167.923 213.256 169.975C209.613 171.862 205.132 175.371 204.48 181.377Z" fill="#A8D29F"/>
<path d="M177.867 152.346C177.867 152.346 176.87 144.735 172.338 144.619C167.806 144.501 163.321 145.326 163.321 145.326C163.321 145.326 166.616 146.837 168.173 148.475C169.729 150.116 177.867 152.346 177.867 152.346Z" fill="#A8D29F"/>
<path d="M180.806 155.531C180.806 155.531 175.13 154.829 173.025 156.243C170.919 157.658 171.652 161.977 171.652 161.977C171.652 161.977 174.398 161.35 176.32 160.249C178.243 159.149 179.158 158.526 179.983 157.03C180.806 155.531 180.806 155.531 180.806 155.531Z" fill="#A8D29F"/>
<path d="M191.701 180.82C191.701 180.82 184.071 177.135 180.165 178.15C176.259 179.169 174.526 185.665 174.526 185.665C174.526 185.665 178.84 186.071 182.284 185.414C185.727 184.758 187.432 184.302 189.566 182.562C191.701 180.82 191.701 180.82 191.701 180.82Z" fill="#82B378"/>
<path d="M200.765 141.793C200.926 141.904 198.293 137.845 195.478 138.318C192.663 138.789 189.299 141.086 189.299 141.086C189.299 141.086 193.281 141.557 195.032 142.03C196.783 142.5 199.735 141.086 200.765 141.793Z" fill="#82B378"/>
<path d="M220.104 167.351C220.109 167.513 218.112 163.061 220.09 162.233C222.067 161.408 225.913 161.84 225.913 161.84C225.913 161.84 224.089 163.939 223.513 165.078C222.936 166.217 220.076 166.331 220.104 167.351Z" fill="#A8D29F"/>
<path d="M200.765 141.752C200.765 141.752 200.719 140.005 203.055 139.064C203.055 139.064 203.559 140.2 203.055 141.026C202.551 141.851 200.765 141.752 200.765 141.752Z" fill="#82B378"/>
<path d="M208.638 172.752C208.638 172.752 206.661 172.323 206.225 170.141C206.225 170.141 207.64 170.03 208.433 170.665C209.225 171.302 208.638 172.752 208.638 172.752Z" fill="#A8D29F"/>
<path d="M200.58 143.176C200.58 143.176 202.64 142.469 203.968 142.626C205.295 142.783 206.623 145.69 206.623 145.69C206.623 145.69 203.876 145.652 202.961 145.336C202.045 145.022 201.404 143.099 200.58 143.176Z" fill="#82B378"/>
<path d="M213.343 169.849C213.343 169.849 215.186 168.79 216.523 168.705C217.859 168.623 219.863 171.227 219.863 171.227C219.863 171.227 217.168 171.681 216.196 171.536C215.224 171.394 214.13 169.625 213.343 169.849Z" fill="#A8D29F"/>
<path d="M199.94 147.645C199.94 147.645 196.369 145.348 193.532 145.69C190.694 146.031 187.947 149.175 187.947 149.175C187.947 149.175 191.151 150.039 192.937 149.803C194.722 149.566 197.056 148.565 197.674 148.036C198.292 147.505 199.94 147.645 199.94 147.645Z" fill="#A8D29F"/>
<path d="M199.381 147.047C199.381 147.047 199.947 145.671 198.886 144.785C197.824 143.9 197.502 143.634 197.502 143.634C197.502 143.634 197.197 144.66 197.513 145.488C197.828 146.315 199.381 147.047 199.381 147.047Z" fill="#82B378"/>
<path d="M199.323 152.853C199.323 152.853 205.09 150.254 208.867 152.081C212.643 153.907 213.879 158.208 213.879 158.208C213.879 158.208 207.219 158.09 205.022 156.617C202.824 155.143 203.003 153.024 202.021 152.906C201.039 152.788 199.323 152.853 199.323 152.853Z" fill="#A8D29F"/>
<path d="M198.209 163.437C198.209 163.437 199.926 160.025 202.769 159.615C205.612 159.204 208.346 160.985 208.346 160.985C208.346 160.985 204.844 163.314 202.99 163.341C201.136 163.367 200.195 162.206 199.63 162.496C199.065 162.788 198.209 163.437 198.209 163.437Z" fill="#A8D29F"/>
<path d="M206.225 175.354C206.225 175.354 213.878 171.905 218.888 174.328C223.899 176.751 225.539 182.458 225.539 182.458C225.539 182.458 216.702 182.301 213.787 180.347C210.871 178.392 211.108 175.578 209.805 175.424C208.503 175.267 206.225 175.354 206.225 175.354Z" fill="#A8D29F"/>
<path d="M218.411 167.593C218.411 167.593 224.179 164.994 227.955 166.82C231.731 168.647 232.967 172.948 232.967 172.948C232.967 172.948 226.307 172.829 224.11 171.357C221.913 169.883 222.091 167.762 221.109 167.646C220.127 167.528 218.411 167.593 218.411 167.593Z" fill="#A8D29F"/>
<path d="M198.816 155.358C198.816 155.358 198.276 152.691 195.4 152.346C192.524 152.001 189.663 155.358 189.663 155.358C189.663 155.358 192.341 156.125 193.852 156.125C195.362 156.125 196.898 154.1 197.641 154.544C198.383 154.986 198.816 155.358 198.816 155.358Z" fill="#82B378"/>
<path d="M198.383 166.753C198.383 166.753 193.928 162.182 188.007 164.246C182.085 166.307 180.944 175.407 180.944 175.407C180.944 175.407 187.032 174.338 189.911 172.909C192.789 171.48 193.114 166.171 195.098 166.311C197.082 166.454 198.383 166.753 198.383 166.753Z" fill="#A8D29F"/>
<path d="M206.629 175.479C206.629 175.479 207.099 172.605 204.785 171.647C202.472 170.689 198.886 173.565 198.886 173.565C198.886 173.565 200.884 174.919 202.162 175.235C203.44 175.551 205.443 173.775 205.917 174.391C206.391 175.004 206.629 175.479 206.629 175.479Z" fill="#82B378"/>
<path d="M556.365 295.558H450.373V291.984H556.365V295.558Z" fill="#91B5F8"/>
<path d="M298.924 283.434C298.918 283.929 298.865 284.399 298.786 284.848C298.747 285.111 298.693 285.367 298.64 285.621C297.253 291.224 291.688 293.089 291.688 293.089L293.443 295.696H275.549L277.3 293.089C277.3 293.089 270.879 290.932 270.124 284.313C270.094 284.093 270.077 283.878 270.071 283.644C270.041 283.217 270.041 282.768 270.071 282.298C270.071 282.213 270.077 282.119 270.087 282.027C270.094 281.895 270.111 281.762 270.124 281.636C270.369 279.44 271.264 277.654 272.441 276.216H296.55C297.788 277.741 298.719 279.655 298.902 282.027C298.918 282.252 298.935 282.476 298.935 282.696C298.941 282.947 298.941 283.19 298.924 283.434Z" fill="white"/>
<path d="M298.931 282.693C298.94 282.944 298.94 283.19 298.923 283.434C298.262 283.666 297.539 283.796 297.123 283.48C296.985 283.374 296.861 283.241 296.738 283.104C296.4 282.734 296.06 282.37 294.828 282.411C293.919 282.438 293.45 282.952 292.997 283.453C292.626 283.864 292.271 284.252 291.703 284.286C291.087 284.32 290.648 284.001 290.218 283.692C289.793 283.381 289.346 283.065 288.694 283.017C287.954 282.959 287.383 283.268 286.784 283.598C286.32 283.849 285.845 284.115 285.268 284.214C283.958 284.438 282.827 284.127 281.364 283.137C280.586 282.609 280.093 282.86 279.139 283.434C278.862 283.605 278.569 283.777 278.253 283.936C277.676 284.221 277.006 284.392 276.329 284.392C275.336 284.392 274.327 284.028 273.573 283.116C272.98 282.389 271.271 282.264 270.07 282.298C270.07 282.211 270.078 282.119 270.085 282.027C270.093 281.895 270.108 281.762 270.124 281.636C271.379 281.61 273.38 281.735 274.204 282.734C275.259 284.009 276.837 283.869 277.868 283.362C278.169 283.217 278.438 283.05 278.7 282.898C279.624 282.336 280.578 281.762 281.84 282.614C283.128 283.487 284.042 283.758 285.113 283.567C285.552 283.492 285.952 283.275 286.376 283.043C287.023 282.688 287.76 282.278 288.753 282.358C289.656 282.423 290.246 282.845 290.716 283.183C291.11 283.466 291.357 283.644 291.65 283.625C291.872 283.613 292.119 283.347 292.395 283.043C292.873 282.515 293.534 281.788 294.805 281.75C296.445 281.704 296.96 282.278 297.345 282.701C297.438 282.807 297.531 282.906 297.638 282.99C297.747 283.077 298.293 282.959 298.931 282.693Z" fill="#F99746"/>
<path d="M298.785 284.848C298.746 285.111 298.692 285.37 298.639 285.621C298.062 285.792 297.477 285.852 297.123 285.575C296.954 285.449 296.822 285.283 296.698 285.119C296.338 284.662 296.02 284.272 294.907 284.498C294.606 284.556 294.113 284.947 293.68 285.29C293.028 285.804 292.356 286.34 291.695 286.381C291.087 286.412 290.648 286.096 290.218 285.785C289.793 285.476 289.346 285.157 288.694 285.111C287.937 285.051 287.383 285.362 286.784 285.693C286.32 285.944 285.845 286.207 285.268 286.308C284.835 286.386 284.427 286.419 284.028 286.419C282.903 286.419 281.902 286.115 280.994 285.507C280.093 284.894 279.747 285.111 279.054 285.553C278.916 285.64 278.777 285.732 278.623 285.818C277.114 286.678 275.259 286.313 274.342 285.476C273.057 284.286 271.217 284.221 270.124 284.313C270.093 284.095 270.078 283.876 270.07 283.644C271.317 283.54 273.396 283.625 274.912 285.02C275.605 285.666 277.03 285.929 278.2 285.263C278.338 285.184 278.469 285.104 278.592 285.027C279.3 284.571 280.109 284.062 281.471 284.986C282.518 285.7 283.682 285.91 285.113 285.659C285.552 285.587 285.952 285.37 286.376 285.138C287.023 284.781 287.754 284.378 288.753 284.45C289.656 284.518 290.246 284.94 290.716 285.275C291.11 285.56 291.357 285.732 291.65 285.719C292.032 285.7 292.657 285.203 293.157 284.807C293.711 284.366 294.234 283.955 294.727 283.856C296.361 283.526 296.946 284.259 297.331 284.749C297.438 284.88 297.539 285.005 297.638 285.085C297.739 285.164 298.217 285.073 298.785 284.848Z" fill="#F99746"/>
<path d="M276.007 281.533C276.007 281.25 276.273 281.021 276.601 281.021C276.929 281.021 277.195 281.25 277.195 281.533C277.195 281.813 276.929 282.039 276.601 282.039C276.273 282.039 276.007 281.813 276.007 281.533Z" fill="#F99746"/>
<path d="M279.327 286.554C279.327 286.272 279.593 286.045 279.921 286.045C280.249 286.045 280.515 286.272 280.515 286.554C280.515 286.834 280.249 287.064 279.921 287.064C279.593 287.064 279.327 286.834 279.327 286.554Z" fill="#F99746"/>
<path d="M287.684 286.554C287.684 286.272 287.949 286.045 288.275 286.045C288.604 286.045 288.872 286.272 288.872 286.554C288.872 286.834 288.604 287.064 288.275 287.064C287.949 287.064 287.684 286.834 287.684 286.554Z" fill="#F99746"/>
<path d="M294.613 286.05C294.613 285.768 294.88 285.541 295.206 285.541C295.536 285.541 295.8 285.768 295.8 286.05C295.8 286.33 295.536 286.559 295.206 286.559C294.88 286.559 294.613 286.33 294.613 286.05Z" fill="#F99746"/>
<path d="M272.934 286.05C272.934 285.768 273.2 285.541 273.528 285.541C273.856 285.541 274.121 285.768 274.121 286.05C274.121 286.33 273.856 286.559 273.528 286.559C273.2 286.559 272.934 286.33 272.934 286.05Z" fill="#F99746"/>
<path d="M283.9 281.861C283.9 281.581 284.167 281.351 284.493 281.351C284.823 281.351 285.087 281.581 285.087 281.861C285.087 282.143 284.823 282.37 284.493 282.37C284.167 282.37 283.9 282.143 283.9 281.861Z" fill="#F99746"/>
<path d="M290.939 281.861C290.939 281.581 291.206 281.351 291.533 281.351C291.862 281.351 292.126 281.581 292.126 281.861C292.126 282.143 291.862 282.37 291.533 282.37C291.206 282.37 290.939 282.143 290.939 281.861Z" fill="#F99746"/>
<path d="M296.954 280.842C296.954 280.562 297.219 280.333 297.548 280.333C297.874 280.333 298.142 280.562 298.142 280.842C298.142 281.125 297.874 281.352 297.548 281.352C297.219 281.352 296.954 281.125 296.954 280.842Z" fill="#F99746"/>
<path d="M271.597 280.842C271.597 280.562 271.863 280.333 272.191 280.333C272.519 280.333 272.784 280.562 272.784 280.842C272.784 281.125 272.519 281.352 272.191 281.352C271.863 281.352 271.597 281.125 271.597 280.842Z" fill="#F99746"/>
<path d="M277.3 293.092C277.3 293.092 283.537 294.853 291.687 293.092C291.687 293.092 289.134 294.899 283.9 294.907C279.328 294.916 277.3 293.092 277.3 293.092Z" fill="#EBF3FA"/>
<path d="M786.721 424.563H742.7L739.536 374.563H790.754L786.721 424.563Z" fill="#F99746"/>
<path d="M792.234 376.135H738.057C738.057 374.537 739.567 373.243 741.426 373.243H788.864C790.724 373.243 792.234 374.537 792.234 376.135Z" fill="#ED7D2B"/>
<path d="M786.721 424.563H742.686V426.194H786.721V424.563Z" fill="#ED7D2B"/>
<path d="M764.706 395.52C754.176 395.52 745.612 388.172 745.612 379.139C745.612 378.565 746.154 378.099 746.824 378.099C747.496 378.099 748.039 378.565 748.039 379.139C748.039 387.023 755.515 393.44 764.706 393.44C773.894 393.44 781.373 387.023 781.373 379.139C781.373 378.565 781.915 378.099 782.585 378.099C783.254 378.099 783.797 378.565 783.797 379.139C783.797 388.172 775.233 395.52 764.706 395.52Z" fill="#2C3A64"/>
<path d="M752.012 373.243C752.012 373.243 749.25 378.157 750.462 378.562C751.677 378.968 753.561 376.134 753.966 376.134C754.371 376.134 751.877 381.106 753.966 381.859C756.056 382.609 760.84 377.754 762.322 373.243H752.012Z" fill="#FFB93E"/>
<path d="M731.838 404.511L731.914 424.297C731.917 425.222 731.045 425.972 729.968 425.977L720.99 426.001C719.913 426.004 719.036 425.258 719.033 424.334L719.008 417.697C718.999 415.569 719.919 413.518 721.587 411.942L724.773 408.932C726.548 407.258 727.572 405.098 727.665 402.837L727.918 399.27C727.954 398.37 728.812 397.745 729.861 397.742C730.938 397.738 731.816 398.573 731.819 399.499L731.838 404.511Z" fill="#9DB0F4"/>
<path d="M731.11 394.108L722.068 394.132C721.315 394.135 720.707 394.661 720.71 395.307C720.713 395.838 721.129 396.299 721.728 396.434C723.134 396.755 725.609 397.47 726.506 398.708C726.76 399.055 727.198 399.272 727.676 399.27L732.292 399.258C733.006 399.255 733.583 398.775 733.636 398.165C733.661 397.873 733.718 397.525 733.833 397.134C734.28 395.597 732.958 394.103 731.11 394.108Z" fill="#9DB0F4"/>
<path d="M723.676 402.315C723.733 402.315 723.789 402.306 723.842 402.286C727.302 401.012 728.323 397.972 728.365 397.844C728.427 397.651 728.297 397.45 728.072 397.397C727.845 397.344 727.614 397.455 727.549 397.648C727.535 397.696 726.576 400.491 723.508 401.62C723.294 401.698 723.196 401.912 723.286 402.096C723.356 402.233 723.513 402.318 723.676 402.315Z" fill="#9DB0F4"/>
<path d="M719.022 421.247L731.903 421.211L731.881 415.402L719 415.438L719.022 421.247Z" fill="#F99746"/>
<path d="M528.52 174.516C528.52 173.908 529.094 173.416 529.8 173.416C530.509 173.416 531.083 173.908 531.083 174.516C531.083 175.122 530.509 175.614 529.8 175.614C529.094 175.614 528.52 175.122 528.52 174.516Z" fill="#2C3A64"/>
<path d="M534.523 174.516C534.523 173.908 535.097 173.416 535.804 173.416C536.513 173.416 537.087 173.908 537.087 174.516C537.087 175.122 536.513 175.614 535.804 175.614C535.097 175.614 534.523 175.122 534.523 174.516Z" fill="#2C3A64"/>
<path d="M540.528 174.516C540.528 173.908 541.1 173.416 541.809 173.416C542.515 173.416 543.089 173.908 543.089 174.516C543.089 175.122 542.515 175.614 541.809 175.614C541.1 175.614 540.528 175.122 540.528 174.516Z" fill="#2C3A64"/>
</svg>
