<svg width="112" height="99" viewBox="0 0 112 99" fill="none" xmlns="http://www.w3.org/2000/svg">
<rect x="1.5" y="1.5" width="109" height="96" rx="14.5" fill="white" stroke="#ADC6F7" stroke-width="3"/>
<path d="M41.8349 41.5849C41.8349 41.5849 41.8395 41.6471 41.8532 41.7648C42.004 43.0414 42.9039 50.8248 42.9177 55.2586C42.9314 60.0997 40.6836 65.3623 40.871 66.6368C41.0583 67.9103 43.3425 68.4008 44.8136 68.9124C46.2847 69.4234 49.6654 61.985 52.2786 60.7773C54.8918 59.5701 60.7258 56.9116 60.7258 56.9116L57.6055 55.072C57.6055 55.072 51.6801 57.0931 51.1136 57.199C50.5471 57.3044 52.306 51.8711 52.306 51.8711L49.7705 46.9113L47.0293 53.9677C47.0293 53.9677 45.17 46.0681 44.9461 44.9319" fill="#BFE36C"/>
<path d="M36.668 34.9566C36.668 34.9566 34.1416 38.3082 36.7593 43.4485C39.3771 48.5893 44.1147 46.0037 44.1147 46.0037C44.1147 46.0037 43.1645 51.4165 50.2594 49.0458C50.2594 49.0458 50.2731 57.8143 57.8021 56.8025C57.8021 56.8025 59.3463 60.9654 63.7778 59.4837C63.7778 59.4837 69.5113 66.0069 75.3819 59.2826C81.257 52.5583 76.5423 48.2011 76.5423 48.2011C76.5423 48.2011 80.0738 42.1755 75.6605 40.6424C75.6605 40.6424 77.8717 33.5536 74.3859 29.6225C70.9001 25.691 68.3326 27.2169 68.3326 27.2169C68.3326 27.2169 68.9768 22.908 66.0163 20.9728C63.0559 19.0382 59.1315 21.6032 59.1315 21.6032C59.1315 21.6032 55.4721 17.3107 50.8122 19.6207C46.1523 21.9301 46.7873 25.4761 46.7873 25.4761C46.7873 25.4761 43.7949 21.7152 42.036 23.2206C40.2817 24.7265 41.0538 26.8077 41.0538 26.8077C41.0538 26.8077 36.5446 24.6375 34.9045 27.6935C33.2599 30.749 36.668 34.9566 36.668 34.9566Z" fill="#46BC52"/>
<path d="M47.2439 39.0708C46.7597 39.0626 46.2526 39.1865 45.8368 38.8554C45.3663 38.4873 45.2566 37.8503 45.2977 37.2508C45.3526 36.4904 44.4069 36.5392 44.215 37.1341C44.0551 37.6431 44.0368 38.1906 44.1236 38.7207C43.4155 38.9155 42.6799 39.0184 42.0632 38.4544C41.1677 37.6379 41.5104 36.4817 42.0266 35.5752C42.4378 34.8539 41.5972 34.2642 41.0535 34.5496C39.4089 35.4071 39.5459 38.2384 40.5693 39.5813C41.5881 40.9165 43.5388 41.3289 44.9597 40.5633C45.6175 41.3438 46.5632 41.7607 47.5729 41.3448C48.6693 40.8919 48.4363 39.0909 47.2439 39.0708Z" fill="#3A9F48"/>
<path d="M66.4458 53.559C67.09 52.996 66.7108 51.7539 65.8336 52.0249C65.0433 52.2696 64.3397 52.5909 63.5037 52.3374C63.3438 52.2891 63.193 52.2218 63.0422 52.1462C62.9006 51.9714 62.7224 51.8495 62.526 51.8202C62.0463 51.4449 61.6534 50.9298 61.3793 50.3431C61.1326 49.8213 60.4656 50.2203 60.5752 50.7472C60.7031 51.3591 60.9681 51.9323 61.3153 52.4367C60.8767 52.6372 60.4701 52.5966 59.8762 52.3164C59.2366 52.0156 57.0437 50.9858 57.9483 49.7997C58.1402 49.5468 57.8798 49.1864 57.6194 49.3483C55.8102 50.4706 57.4732 52.6408 58.4965 53.56C59.6798 54.6207 61.8818 55.4479 62.96 53.9148C64.0702 54.487 65.3676 54.4988 66.4458 53.559Z" fill="#3A9F48"/>
<path d="M74.4409 53.0994C74.2399 52.8104 73.984 52.742 73.6871 52.8952C73.1343 53.1821 73.084 54.0567 72.4993 54.3826C71.9191 54.7081 71.1835 54.4988 70.7221 54.0289C70.5165 53.8207 70.247 54.0998 70.3612 54.36C70.8089 55.3692 71.7683 55.9445 72.7597 55.7266C73.5912 55.543 75.2038 54.2094 74.4409 53.0994Z" fill="#3A9F48"/>
<path d="M65.0522 31.2363C65.2258 29.2461 63.9375 28.279 62.4572 27.5557C62.407 27.5305 62.3522 27.5109 62.3019 27.4873C62.4024 25.786 61.1233 24.2082 59.6887 23.7979C58.3364 23.4097 55.9242 23.9655 55.577 25.7413C55.4857 26.2009 55.81 26.6544 56.2349 26.6374C57.144 26.6004 57.843 25.8174 58.7933 25.932C59.5745 26.0261 59.9857 26.4703 60.3009 27.1001C59.6613 27.1803 59.0628 27.494 58.5877 28.1767C58.1902 28.749 58.7796 29.7942 59.3735 29.26C60.0725 28.6276 60.9085 28.8893 61.6532 29.2878C62.2928 29.6297 63.307 30.1222 63.3161 31.0502C63.3298 32.1427 64.9562 32.3751 65.0522 31.2363Z" fill="#81CF64"/>
<path d="M73.285 36.6845C72.7413 35.5905 70.9641 34.2172 69.8951 35.1977C69.621 35.447 69.4565 35.9658 69.7992 36.2671C70.3885 36.7869 71.1697 36.7725 71.6311 37.5205C72.1428 38.3539 71.8459 39.1585 71.421 39.9308C70.8956 40.8942 72.1428 41.7713 72.8098 41.0413C73.8103 39.9482 73.9565 38.0259 73.285 36.6845Z" fill="#81CF64"/>
<path d="M50.2048 29.2215C50.7987 27.3665 48.0987 27.2297 47.153 27.4744C46.1845 27.7243 43.8363 29.2569 45.0926 30.6075C45.3987 30.9325 45.9469 30.8451 46.1343 30.4096C46.4038 29.7762 46.6368 29.4492 47.2764 29.1921C47.5825 29.0688 47.9068 29.0029 48.2312 29.0096C48.382 29.0132 48.5282 29.0261 48.6744 29.0616C48.7703 29.0693 48.8571 29.1012 48.9393 29.15C49.0353 29.8816 49.9535 30.0178 50.2048 29.2215Z" fill="#81CF64"/>
<path d="M63.8464 42.3492C63.9286 41.1723 62.4849 40.1266 61.5438 39.6335C61.6946 37.9148 60.4473 36.3714 59.0083 35.9493C57.4367 35.4897 55.9611 36.2793 55.1661 37.8305C54.8098 38.5204 55.6458 39.0495 56.1118 38.5898C56.7331 37.9842 57.8296 37.6598 58.6154 38.0222C59.1408 38.2649 59.4514 38.723 59.7209 39.2263C59.2184 39.2752 58.725 39.4562 58.2681 39.7744C57.793 40.1076 58.1265 41.0402 58.6793 40.8119C59.625 40.4232 60.6255 40.7965 61.4159 41.4355C62.0692 41.9636 62.5489 42.9265 63.4215 42.8643C63.6773 42.8458 63.8281 42.6252 63.8464 42.3492Z" fill="#81CF64"/>
<path d="M53.0692 45.7926C52.7677 45.7633 52.4159 45.9154 52.1327 45.7545C51.8494 45.5936 51.7672 45.2296 51.7717 44.9021C51.7854 44.1756 50.8946 44.1772 50.7164 44.789C50.4743 45.6255 50.6981 46.5725 51.2829 47.1601C51.9454 47.8229 52.9961 47.9987 53.6631 47.2635C54.1931 46.6789 53.686 45.8512 53.0692 45.7926Z" fill="#3A9F48"/>
<path d="M33.6748 84.9375H36.5869C37.1924 84.9375 37.7119 84.8398 38.1455 84.6445C38.583 84.4453 38.9189 84.166 39.1533 83.8066C39.3916 83.4434 39.5107 83.0156 39.5107 82.5234V82.5117C39.5107 82.1523 39.4268 81.8262 39.2588 81.5332C39.0947 81.2402 38.8662 81.002 38.5732 80.8184C38.2842 80.6348 37.9521 80.5293 37.5771 80.502V80.3965C37.8662 80.3535 38.126 80.2461 38.3564 80.0742C38.5869 79.9023 38.7686 79.6875 38.9014 79.4297C39.0381 79.1719 39.1064 78.8945 39.1064 78.5977V78.5859C39.1064 78.1523 39.001 77.7793 38.79 77.4668C38.583 77.1504 38.2842 76.9082 37.8936 76.7402C37.5068 76.5684 37.0381 76.4824 36.4873 76.4824H33.6748V77.7949H36.0361C36.458 77.7949 36.7842 77.8926 37.0146 78.0879C37.249 78.2793 37.3662 78.5469 37.3662 78.8906V78.9023C37.3662 79.25 37.2393 79.5195 36.9854 79.7109C36.7314 79.9023 36.3662 79.998 35.8896 79.998H33.6748V81.1641H36.0947C36.4424 81.1641 36.7354 81.2109 36.9736 81.3047C37.2158 81.3945 37.3975 81.5293 37.5186 81.709C37.6436 81.8887 37.7061 82.1094 37.7061 82.3711V82.3828C37.7061 82.7852 37.5713 83.0918 37.3018 83.3027C37.0361 83.5137 36.6475 83.6191 36.1357 83.6191H33.6748V84.9375ZM32.79 84.9375H34.5596V76.4824H32.79V84.9375ZM40.9404 84.9375H42.6514V81.3281C42.6514 81.0234 42.7158 80.7617 42.8447 80.543C42.9736 80.3242 43.1572 80.1562 43.3955 80.0391C43.6338 79.918 43.915 79.8574 44.2393 79.8574C44.3721 79.8574 44.5029 79.8672 44.6318 79.8867C44.7646 79.9023 44.8955 79.9258 45.0244 79.957V78.4629C44.9385 78.4395 44.8389 78.4199 44.7256 78.4043C44.6162 78.3887 44.5029 78.3809 44.3857 78.3809C43.9678 78.3809 43.6182 78.4785 43.3369 78.6738C43.0557 78.8652 42.8623 79.1367 42.7568 79.4883H42.6514V78.4863H40.9404V84.9375ZM48.8916 85.0723C49.5557 85.0723 50.124 84.9395 50.5967 84.6738C51.0732 84.4043 51.4385 84.0195 51.6924 83.5195C51.9463 83.0156 52.0732 82.4141 52.0732 81.7148V81.7031C52.0732 81.0078 51.9443 80.4102 51.6865 79.9102C51.4287 79.4062 51.0615 79.0195 50.585 78.75C50.1123 78.4805 49.5479 78.3457 48.8916 78.3457C48.2354 78.3457 47.6689 78.4824 47.1924 78.7559C46.7197 79.0254 46.3545 79.4102 46.0967 79.9102C45.8389 80.4102 45.71 81.0078 45.71 81.7031V81.7148C45.71 82.4141 45.8369 83.0156 46.0908 83.5195C46.3447 84.0195 46.71 84.4043 47.1865 84.6738C47.6631 84.9395 48.2314 85.0723 48.8916 85.0723ZM48.8916 83.7305C48.5869 83.7305 48.3271 83.6523 48.1123 83.4961C47.9014 83.3359 47.7393 83.1055 47.626 82.8047C47.5166 82.5039 47.4619 82.1406 47.4619 81.7148V81.7031C47.4619 81.2812 47.5186 80.9219 47.6318 80.625C47.7451 80.3242 47.9072 80.0938 48.1182 79.9336C48.333 79.7695 48.5908 79.6875 48.8916 79.6875C49.1924 79.6875 49.4482 79.7695 49.6592 79.9336C49.874 80.0938 50.0381 80.3242 50.1514 80.625C50.2646 80.9219 50.3213 81.2812 50.3213 81.7031V81.7148C50.3213 82.1367 50.2646 82.498 50.1514 82.7988C50.0381 83.0996 49.876 83.3301 49.665 83.4902C49.4541 83.6504 49.1963 83.7305 48.8916 83.7305ZM56.3096 85.0723C56.8721 85.0723 57.3564 84.9785 57.7627 84.791C58.1689 84.5996 58.4912 84.3301 58.7295 83.9824C58.9678 83.6348 59.1182 83.2285 59.1807 82.7637V82.7227L57.5986 82.7285L57.5869 82.7461C57.5127 83.0742 57.3701 83.3203 57.1592 83.4844C56.9482 83.6484 56.667 83.7305 56.3154 83.7305C56.0107 83.7305 55.7529 83.6523 55.542 83.4961C55.3311 83.3398 55.1689 83.1113 55.0557 82.8105C54.9463 82.5059 54.8916 82.1367 54.8916 81.7031V81.6914C54.8916 81.2578 54.9463 80.8926 55.0557 80.5957C55.165 80.2988 55.3252 80.0742 55.5361 79.9219C55.751 79.7656 56.0107 79.6875 56.3154 79.6875C56.6826 79.6875 56.9717 79.7832 57.1826 79.9746C57.3975 80.1621 57.5342 80.4121 57.5928 80.7246L57.5986 80.7363H59.1865V80.7188C59.1357 80.2383 58.9912 79.8203 58.7529 79.4648C58.5146 79.1094 58.1904 78.834 57.7803 78.6387C57.3701 78.4434 56.8799 78.3457 56.3096 78.3457C55.6377 78.3457 55.0654 78.4785 54.5928 78.7441C54.124 79.0059 53.7666 79.3848 53.5205 79.8809C53.2744 80.377 53.1514 80.9805 53.1514 81.6914V81.7031C53.1514 82.418 53.2744 83.0273 53.5205 83.5312C53.7666 84.0312 54.124 84.4141 54.5928 84.6797C55.0654 84.9414 55.6377 85.0723 56.3096 85.0723ZM63.3643 85.0723C63.9268 85.0723 64.4111 84.9785 64.8174 84.791C65.2236 84.5996 65.5459 84.3301 65.7842 83.9824C66.0225 83.6348 66.1729 83.2285 66.2354 82.7637V82.7227L64.6533 82.7285L64.6416 82.7461C64.5674 83.0742 64.4248 83.3203 64.2139 83.4844C64.0029 83.6484 63.7217 83.7305 63.3701 83.7305C63.0654 83.7305 62.8076 83.6523 62.5967 83.4961C62.3857 83.3398 62.2236 83.1113 62.1104 82.8105C62.001 82.5059 61.9463 82.1367 61.9463 81.7031V81.6914C61.9463 81.2578 62.001 80.8926 62.1104 80.5957C62.2197 80.2988 62.3799 80.0742 62.5908 79.9219C62.8057 79.7656 63.0654 79.6875 63.3701 79.6875C63.7373 79.6875 64.0264 79.7832 64.2373 79.9746C64.4521 80.1621 64.5889 80.4121 64.6475 80.7246L64.6533 80.7363H66.2412V80.7188C66.1904 80.2383 66.0459 79.8203 65.8076 79.4648C65.5693 79.1094 65.2451 78.834 64.835 78.6387C64.4248 78.4434 63.9346 78.3457 63.3643 78.3457C62.6924 78.3457 62.1201 78.4785 61.6475 78.7441C61.1787 79.0059 60.8213 79.3848 60.5752 79.8809C60.3291 80.377 60.2061 80.9805 60.2061 81.6914V81.7031C60.2061 82.418 60.3291 83.0273 60.5752 83.5312C60.8213 84.0312 61.1787 84.4141 61.6475 84.6797C62.1201 84.9414 62.6924 85.0723 63.3643 85.0723ZM70.4424 85.0723C71.1064 85.0723 71.6748 84.9395 72.1475 84.6738C72.624 84.4043 72.9893 84.0195 73.2432 83.5195C73.4971 83.0156 73.624 82.4141 73.624 81.7148V81.7031C73.624 81.0078 73.4951 80.4102 73.2373 79.9102C72.9795 79.4062 72.6123 79.0195 72.1357 78.75C71.6631 78.4805 71.0986 78.3457 70.4424 78.3457C69.7861 78.3457 69.2197 78.4824 68.7432 78.7559C68.2705 79.0254 67.9053 79.4102 67.6475 79.9102C67.3896 80.4102 67.2607 81.0078 67.2607 81.7031V81.7148C67.2607 82.4141 67.3877 83.0156 67.6416 83.5195C67.8955 84.0195 68.2607 84.4043 68.7373 84.6738C69.2139 84.9395 69.7822 85.0723 70.4424 85.0723ZM70.4424 83.7305C70.1377 83.7305 69.8779 83.6523 69.6631 83.4961C69.4521 83.3359 69.29 83.1055 69.1768 82.8047C69.0674 82.5039 69.0127 82.1406 69.0127 81.7148V81.7031C69.0127 81.2812 69.0693 80.9219 69.1826 80.625C69.2959 80.3242 69.458 80.0938 69.6689 79.9336C69.8838 79.7695 70.1416 79.6875 70.4424 79.6875C70.7432 79.6875 70.999 79.7695 71.21 79.9336C71.4248 80.0938 71.5889 80.3242 71.7021 80.625C71.8154 80.9219 71.8721 81.2812 71.8721 81.7031V81.7148C71.8721 82.1367 71.8154 82.498 71.7021 82.7988C71.5889 83.0996 71.4268 83.3301 71.2158 83.4902C71.0049 83.6504 70.7471 83.7305 70.4424 83.7305ZM75.0771 84.9375H76.7881V76.0195H75.0771V84.9375ZM78.5693 84.9375H80.2803V78.4863H78.5693V84.9375ZM79.4307 77.4961C79.6963 77.4961 79.9229 77.4043 80.1104 77.2207C80.2979 77.0332 80.3916 76.8086 80.3916 76.5469C80.3916 76.2812 80.2979 76.0566 80.1104 75.873C79.9229 75.6855 79.6963 75.5918 79.4307 75.5918C79.1689 75.5918 78.9424 75.6855 78.751 75.873C78.5596 76.0566 78.4639 76.2812 78.4639 76.5469C78.4639 76.8086 78.5596 77.0332 78.751 77.2207C78.9424 77.4043 79.1689 77.4961 79.4307 77.4961Z" fill="black"/>
</svg>
