<svg width="112" height="99" viewBox="0 0 112 99" fill="none" xmlns="http://www.w3.org/2000/svg">
<rect x="1.5" y="1.5" width="109" height="96" rx="14.5" fill="white" stroke="#ADC6F7" stroke-width="3"/>
<path d="M49.3063 25.6165L48.082 26.103C51.2579 34.0849 56.7633 47.9291 62.1021 61.4106L63.296 60.9363C55.6813 41.6898 51.554 31.2725 49.3063 25.6165Z" fill="#742B59"/>
<path d="M47.4061 19.6C47.1837 19.057 46.5656 18.7962 46.0212 19.015L46.0196 19.0155C45.4748 19.2343 45.2092 19.8511 45.4263 20.3966C45.8718 21.5156 46.6791 23.5416 47.7515 26.2344L49.7448 25.4423C48.4351 22.1464 47.7605 20.4657 47.4061 19.6Z" fill="#300B1D"/>
<path d="M69.8301 61.2021C69.2284 61.3769 68.9202 62.0231 69.1578 62.621L69.2182 62.7726C69.6747 63.9217 69.1566 65.2735 68.0033 65.7195C67.4165 65.9465 66.7721 65.9139 66.2053 65.6238C65.7115 65.3709 65.344 64.9219 65.1404 64.4058C64.6584 63.1836 64.1895 61.9952 63.7328 60.8374C63.5689 60.4225 63.0998 60.2201 62.6851 60.3849L62.2408 60.5617C61.8276 60.7258 61.6257 61.1947 61.7891 61.6081C62.2699 62.8256 62.7492 64.0393 63.2246 65.2446C63.8051 66.716 65.1282 67.7527 66.8027 67.9496C67.0011 67.9727 67.2022 67.9777 67.4016 67.9645C70.5021 67.7577 72.2367 64.7089 71.195 62.0879L71.105 61.8614C70.9039 61.3548 70.3537 61.0502 69.8301 61.2021Z" fill="#300B1D"/>
<path d="M51.7057 47.2096C51.7057 47.2096 44.8049 44.5519 41.5808 50.2415C41.5808 50.2415 41.563 50.2343 41.5371 50.2243C42.2218 52.883 42.9183 54.5801 42.9183 54.5801C46.22 48.7537 53.2869 51.4756 53.2869 51.4756C53.2869 51.4756 52.6234 49.7987 51.7545 47.128C51.7383 47.1556 51.7219 47.1817 51.7057 47.2096Z" fill="#7E97D5"/>
<path d="M40.7449 46.4893C43.9714 40.8153 50.5798 43.4347 50.5798 43.4347L50.6118 43.381C49.0026 37.7287 47.3443 30.0686 47.7902 23.5996C39.7589 29.636 39.5837 39.5123 40.7449 46.4893Z" fill="#F4718C"/>
<path d="M51.1441 45.1872C50.9693 44.6127 50.791 44.0093 50.612 43.3808L50.58 43.4345C50.58 43.4345 43.9716 40.815 40.7451 46.489C40.846 47.0953 40.9569 47.6791 41.0738 48.2372C41.0997 48.2472 41.1172 48.2544 41.1172 48.2544C44.1187 42.9576 50.304 44.8946 51.1441 45.1872Z" fill="#FABB5A"/>
<path d="M41.1167 48.2545C41.1167 48.2545 41.0991 48.2473 41.0732 48.2374C41.2212 48.9447 41.3784 49.6102 41.5365 50.2241C41.5624 50.234 41.5802 50.2412 41.5802 50.2412C44.8043 44.5516 51.7051 47.2093 51.7051 47.2093C51.7213 47.1815 51.7377 47.1554 51.7538 47.1278C51.5589 46.5286 51.3538 45.8792 51.1435 45.1873C50.3034 44.8947 44.1181 42.9577 41.1167 48.2545Z" fill="white"/>
<path d="M40.738 46.5004L40.7451 46.489C39.5838 39.512 39.759 29.6357 47.7903 23.5993C34.9409 28.1348 31.9924 38.8492 31.6914 46.7085C35.6091 44.4603 40.738 46.5004 40.738 46.5004Z" fill="#F1426B"/>
<path d="M41.0732 48.2374C40.9563 47.6793 40.8454 47.0955 40.7445 46.4891L40.7374 46.5006C40.7374 46.5006 35.6085 44.4604 31.6908 46.7087C31.6612 47.4814 31.6565 48.227 31.6711 48.936C35.4202 46.1383 40.5744 48.043 41.0732 48.2374Z" fill="#FABB5A"/>
<path d="M41.5362 50.2241C41.3781 49.6102 41.221 48.9447 41.073 48.2374C40.5742 48.043 35.4199 46.1383 31.6709 48.936C31.6877 49.7433 31.7289 50.502 31.784 51.2026C35.5526 48.0044 41.0198 50.0227 41.5362 50.2241Z" fill="white"/>
<path d="M31.7842 51.2027C32.0099 54.0713 32.4713 55.9429 32.4713 55.9429C36.5177 51.9498 42.9176 54.5799 42.9176 54.5799C42.9176 54.5799 42.2211 52.8829 41.5364 50.2242C41.0199 50.0228 35.5528 48.0045 31.7842 51.2027Z" fill="#7E97D5"/>
<path d="M59.7129 39.7397C60.0408 40.4099 60.3521 41.0606 60.6442 41.6831C63.6376 34.143 69.6439 36.6663 69.6439 36.6663L69.6538 36.6484C69.2705 35.9982 68.8526 35.3225 68.3996 34.6341C67.5612 34.3315 62.4536 32.8209 59.7129 39.7397Z" fill="#FABB5A"/>
<path d="M60.6445 41.6833C61.0085 42.4592 61.3424 43.1896 61.6422 43.8579C64.425 36.8626 69.8021 38.0301 70.5497 38.2307C70.277 37.7278 69.9774 37.1972 69.6542 36.6485L69.6442 36.6664C69.6442 36.6664 63.6379 34.1432 60.6445 41.6833Z" fill="white"/>
<path d="M59.7133 39.7397C62.4541 32.821 67.5616 34.3316 68.4 34.6341C64.2473 28.3225 57.1953 21.0007 47.79 23.5995C51.8612 25.086 56.5601 33.2958 59.7133 39.7397Z" fill="#F4718C"/>
<path d="M61.6426 43.8576C62.6922 46.1976 63.3197 47.7661 63.3197 47.7661C66.3827 40.0239 72.6772 42.6722 72.6772 42.6722C72.6772 42.6722 71.9488 40.8086 70.55 38.2304C69.8024 38.0298 64.4254 36.8623 61.6426 43.8576Z" fill="#7E97D5"/>
<path d="M68.519 34.6796C68.519 34.6796 68.4772 34.6617 68.4004 34.6341C68.8534 35.3226 69.2713 35.9983 69.6547 36.6484C72.0262 32.051 75.4564 31.9282 76.9787 32.1383C76.5436 31.5085 76.0725 30.8741 75.5648 30.2448C73.7183 30.1255 70.6041 30.622 68.519 34.6796Z" fill="#FABB5A"/>
<path d="M78.2545 34.1236C77.8669 33.4764 77.443 32.8104 76.9783 32.1384C75.456 31.9283 72.0259 32.0511 69.6543 36.6486C69.9775 37.1972 70.2771 37.7278 70.5498 38.2307C70.6067 38.2459 70.6378 38.2559 70.6378 38.2559C73.3286 33.0192 77.2187 33.8021 78.2545 34.1236Z" fill="white"/>
<path d="M78.2545 34.1234C77.2187 33.8019 73.3286 33.0191 70.6378 38.2557C70.6378 38.2557 70.6067 38.2457 70.5498 38.2306C71.9485 40.8087 72.677 42.6724 72.677 42.6724C75.8804 36.4383 80.4405 38.2475 80.4405 38.2475C79.8956 37.1028 79.1798 35.6673 78.2545 34.1234Z" fill="#7E97D5"/>
<path d="M68.4 34.6342C68.4768 34.6618 68.5186 34.6797 68.5186 34.6797C70.6037 30.622 73.7179 30.1255 75.5644 30.2449C70.6204 24.1202 62.1209 18.5412 47.79 23.5996C57.1953 21.0008 64.2473 28.3225 68.4 34.6342Z" fill="#F1426B"/>
<path d="M60.6377 41.6994C60.6377 41.6994 55.1142 38.535 51.2418 45.2228C51.2418 45.2228 51.2057 45.2093 51.1436 45.1875C51.3539 45.8794 51.559 46.5288 51.7539 47.1279C55.6286 40.551 61.6312 43.8847 61.6312 43.8847L61.6422 43.8579C61.3423 43.1896 61.0084 42.4591 60.6445 41.6832L60.6377 41.6994Z" fill="white"/>
<path d="M51.2416 45.2227C55.114 38.5349 60.6376 41.6993 60.6376 41.6993L60.6443 41.6831C60.3522 41.0606 60.0409 40.4099 59.713 39.7397L59.7105 39.7456C59.7105 39.7456 54.4808 36.7642 50.6113 43.3809C50.7903 44.0094 50.9686 44.6128 51.1434 45.1874C51.2055 45.2092 51.2416 45.2227 51.2416 45.2227Z" fill="#FABB5A"/>
<path d="M50.6121 43.3809C54.4816 36.7642 59.7112 39.7456 59.7112 39.7456L59.7137 39.7396C56.5605 33.2957 51.8616 25.0859 47.7905 23.5994C47.3446 30.0684 49.0028 37.7285 50.6121 43.3809Z" fill="#F1426B"/>
<path d="M61.6312 43.8848C61.6312 43.8848 55.6286 40.5511 51.7539 47.128C52.6228 49.7987 53.2864 51.4756 53.2864 51.4756C57.2523 44.6264 63.3193 47.7665 63.3193 47.7665C63.3193 47.7665 62.6918 46.1979 61.6422 43.858L61.6312 43.8848Z" fill="#7E97D5"/>
<path d="M33.487 55.9427C33.487 56.5033 33.0324 56.958 32.4715 56.958C31.9107 56.958 31.4561 56.5033 31.4561 55.9427C31.4561 55.3818 31.9107 54.9271 32.4715 54.9271C33.0324 54.9271 33.487 55.3818 33.487 55.9427Z" fill="#8467BA"/>
<path d="M43.9332 54.5796C43.9332 55.1405 43.4786 55.5952 42.9178 55.5952C42.3569 55.5952 41.9023 55.1405 41.9023 54.5796C41.9023 54.019 42.3569 53.5643 42.9178 53.5643C43.4786 53.5643 43.9332 54.019 43.9332 54.5796Z" fill="#548CD1"/>
<path d="M54.3015 51.4754C54.3015 52.036 53.8467 52.4907 53.2861 52.4907C52.7252 52.4907 52.2705 52.036 52.2705 51.4754C52.2705 50.9145 52.7252 50.4598 53.2861 50.4598C53.8467 50.4598 54.3015 50.9145 54.3015 51.4754Z" fill="#40BC80"/>
<path d="M64.3347 47.7661C64.3347 48.327 63.8799 48.7817 63.3193 48.7817C62.7584 48.7817 62.3037 48.327 62.3037 47.7661C62.3037 47.2055 62.7584 46.7508 63.3193 46.7508C63.8799 46.7508 64.3347 47.2055 64.3347 47.7661Z" fill="#FABB5A"/>
<path d="M73.6921 42.6722C73.6921 43.233 73.2374 43.6875 72.6767 43.6875C72.1159 43.6875 71.6611 43.233 71.6611 42.6722C71.6611 42.1113 72.1159 41.6568 72.6767 41.6568C73.2374 41.6568 73.6921 42.1113 73.6921 42.6722Z" fill="#F1426B"/>
<path d="M81.4558 38.2473C81.4558 38.8082 81.001 39.2627 80.4402 39.2627C79.8793 39.2627 79.4248 38.8082 79.4248 38.2473C79.4248 37.6865 79.8793 37.232 80.4402 37.232C81.001 37.232 81.4558 37.6865 81.4558 38.2473Z" fill="#F4718C"/>
<path d="M69.6888 26.6314C70.2157 26.8224 70.7084 27.0877 71.1726 27.3957C71.6377 27.7032 72.0738 28.0558 72.4753 28.4446C72.8756 28.8344 73.248 29.2546 73.571 29.7108C73.8954 30.165 74.1804 30.6486 74.3894 31.1672C74.4121 31.2232 74.3852 31.2868 74.3295 31.3094C74.2868 31.3268 74.239 31.3146 74.2089 31.2831L73.0984 30.1016C72.7264 29.7183 72.3538 29.3404 71.9662 28.9774C71.5798 28.6132 71.185 28.2576 70.7847 27.9026C70.3837 27.5478 69.9765 27.1958 69.5762 26.8137C69.5322 26.7722 69.5305 26.7028 69.572 26.659C69.6028 26.6265 69.6493 26.6173 69.6888 26.6314Z" fill="white"/>
<path d="M57.9464 23.3762C58.8621 23.2748 59.7775 23.2969 60.6882 23.3797C61.5991 23.4607 62.5031 23.6161 63.3929 23.8314C63.8384 23.9366 64.2794 24.0624 64.7168 24.1969C65.1491 24.3495 65.5879 24.4815 66.0076 24.668C66.8603 25.0014 67.6728 25.4372 68.441 25.928C68.491 25.9601 68.5057 26.0267 68.4736 26.0767C68.4463 26.1197 68.3936 26.1366 68.3473 26.1204L68.3431 26.1187C67.4888 25.8189 66.6585 25.4962 65.801 25.2455C65.5897 25.1749 65.3754 25.1143 65.1605 25.0546L64.5189 24.8706C64.0848 24.769 63.6594 24.6384 63.2228 24.5487C62.3564 24.346 61.4832 24.1668 60.6036 24.0124C59.7245 23.8573 58.8377 23.718 57.9477 23.5905L57.9429 23.59C57.884 23.5816 57.8432 23.5269 57.8517 23.4679C57.8587 23.4185 57.8987 23.3814 57.9464 23.3762Z" fill="white"/>
<path d="M33.7217 85.1543C34.4482 85.1543 35.0752 85.0234 35.6025 84.7617C36.1338 84.5 36.542 84.1348 36.8271 83.666C37.1162 83.1934 37.2607 82.6445 37.2607 82.0195V76.4824H35.4912V81.8613C35.4912 82.4082 35.3389 82.8438 35.0342 83.168C34.7295 83.4922 34.292 83.6543 33.7217 83.6543C33.1553 83.6543 32.7178 83.4922 32.4092 83.168C32.1006 82.8438 31.9463 82.4082 31.9463 81.8613V76.4824H30.1768V82.0195C30.1768 82.6484 30.3213 83.1973 30.6104 83.666C30.9033 84.1348 31.3135 84.5 31.8408 84.7617C32.3721 85.0234 32.999 85.1543 33.7217 85.1543ZM39.1416 84.9375H40.8525V81.0469C40.8525 80.8008 40.9014 80.582 40.999 80.3906C41.0967 80.1953 41.2295 80.043 41.3975 79.9336C41.5693 79.8203 41.7666 79.7637 41.9893 79.7637C42.3213 79.7637 42.5811 79.8613 42.7686 80.0566C42.9561 80.248 43.0498 80.5156 43.0498 80.8594V84.9375H44.7607V80.9707C44.7607 80.7363 44.8076 80.5293 44.9014 80.3496C44.9951 80.1699 45.126 80.0273 45.2939 79.9219C45.4658 79.8164 45.667 79.7637 45.8975 79.7637C46.2568 79.7637 46.5244 79.8613 46.7002 80.0566C46.876 80.252 46.9639 80.5449 46.9639 80.9355V84.9375H48.6748V80.5078C48.6748 80.0625 48.5889 79.6797 48.417 79.3594C48.249 79.0352 48.0088 78.7852 47.6963 78.6094C47.3877 78.4336 47.0186 78.3457 46.5889 78.3457C46.2881 78.3457 46.0088 78.3965 45.751 78.498C45.4932 78.5957 45.2686 78.7344 45.0771 78.9141C44.8857 79.0898 44.7412 79.2969 44.6436 79.5352H44.5381C44.4482 79.2852 44.3193 79.0723 44.1514 78.8965C43.9834 78.7207 43.7803 78.5859 43.542 78.4922C43.3037 78.3945 43.0381 78.3457 42.7451 78.3457C42.3232 78.3457 41.9541 78.4473 41.6377 78.6504C41.3213 78.8496 41.0947 79.1309 40.958 79.4941H40.8525V78.4863H39.1416V84.9375ZM54.1416 85.0371C54.6807 85.0371 55.1455 84.9043 55.5361 84.6387C55.9268 84.3691 56.2275 83.9863 56.4385 83.4902C56.6533 82.9941 56.7607 82.4023 56.7607 81.7148V81.7031C56.7607 81.0117 56.6553 80.418 56.4443 79.9219C56.2334 79.4258 55.9326 79.0449 55.542 78.7793C55.1514 78.5137 54.6846 78.3809 54.1416 78.3809C53.7002 78.3809 53.3076 78.4824 52.9639 78.6855C52.624 78.8887 52.3721 79.166 52.208 79.5176H52.1025V76.0195H50.3916V84.9375H52.1025V83.9355H52.208C52.376 84.2832 52.626 84.5547 52.958 84.75C53.29 84.9414 53.6846 85.0371 54.1416 85.0371ZM53.5557 83.6191C53.2549 83.6191 52.9932 83.543 52.7705 83.3906C52.5518 83.2383 52.3818 83.0195 52.2607 82.7344C52.1436 82.4492 52.085 82.1113 52.085 81.7207V81.709C52.085 81.3105 52.1455 80.9707 52.2666 80.6895C52.3877 80.4043 52.5576 80.1855 52.7764 80.0332C52.999 79.877 53.2588 79.7988 53.5557 79.7988C53.8604 79.7988 54.1201 79.877 54.335 80.0332C54.5537 80.1855 54.7217 80.4043 54.8389 80.6895C54.96 80.9707 55.0205 81.3086 55.0205 81.7031V81.7148C55.0205 82.1094 54.96 82.4492 54.8389 82.7344C54.7217 83.0195 54.5537 83.2383 54.335 83.3906C54.1201 83.543 53.8604 83.6191 53.5557 83.6191ZM58.1494 84.9375H59.8604V81.3281C59.8604 81.0234 59.9248 80.7617 60.0537 80.543C60.1826 80.3242 60.3662 80.1562 60.6045 80.0391C60.8428 79.918 61.124 79.8574 61.4482 79.8574C61.5811 79.8574 61.7119 79.8672 61.8408 79.8867C61.9736 79.9023 62.1045 79.9258 62.2334 79.957V78.4629C62.1475 78.4395 62.0479 78.4199 61.9346 78.4043C61.8252 78.3887 61.7119 78.3809 61.5947 78.3809C61.1768 78.3809 60.8271 78.4785 60.5459 78.6738C60.2646 78.8652 60.0713 79.1367 59.9658 79.4883H59.8604V78.4863H58.1494V84.9375ZM66.0713 85.0723C66.5439 85.0723 66.9521 85.0137 67.2959 84.8965C67.6436 84.7754 67.9326 84.6191 68.1631 84.4277C68.3975 84.2363 68.5811 84.0312 68.7139 83.8125C68.8467 83.5898 68.9385 83.377 68.9893 83.1738L69.001 83.1152H67.4072L67.3896 83.1504C67.3506 83.2324 67.2764 83.3242 67.167 83.4258C67.0615 83.5234 66.9209 83.6094 66.7451 83.6836C66.5693 83.7578 66.3564 83.7949 66.1064 83.7949C65.7979 83.7949 65.5322 83.7266 65.3096 83.5898C65.0869 83.4531 64.915 83.2559 64.7939 82.998C64.6729 82.7402 64.6123 82.4297 64.6123 82.0664V81.375C64.6123 81 64.6729 80.6836 64.7939 80.4258C64.9189 80.1641 65.0869 79.9668 65.2979 79.834C65.5127 79.6973 65.7568 79.6289 66.0303 79.6289C66.3076 79.6289 66.5498 79.6953 66.7568 79.8281C66.9678 79.957 67.1318 80.1504 67.249 80.4082C67.3701 80.666 67.4307 80.9883 67.4307 81.375V82.0605L68.2334 81.0469H63.7744V82.1191H69.0537V81.5859C69.0537 80.9336 68.9307 80.3652 68.6846 79.8809C68.4385 79.3965 68.0869 79.0195 67.6299 78.75C67.1729 78.4805 66.6299 78.3457 66.001 78.3457C65.376 78.3457 64.8311 78.4844 64.3662 78.7617C63.9053 79.0391 63.5479 79.4297 63.2939 79.9336C63.0439 80.4375 62.9189 81.0312 62.9189 81.7148V81.7207C62.9189 82.4121 63.0459 83.0078 63.2998 83.5078C63.5537 84.0078 63.915 84.3945 64.3838 84.668C64.8564 84.9375 65.4189 85.0723 66.0713 85.0723ZM70.5127 84.9375H72.2236V76.0195H70.5127V84.9375ZM74.0518 84.9375H75.7627V76.0195H74.0518V84.9375ZM79.29 85.0371C79.5713 85.0371 79.8311 85 80.0693 84.9258C80.3115 84.8477 80.5225 84.7383 80.7021 84.5977C80.8857 84.4531 81.0322 84.2812 81.1416 84.082H81.2471V84.9375H82.9346V80.5312C82.9346 80.0742 82.8291 79.6836 82.6182 79.3594C82.4111 79.0312 82.1084 78.7812 81.71 78.6094C81.3115 78.4336 80.8271 78.3457 80.2568 78.3457C79.7178 78.3457 79.2432 78.4238 78.833 78.5801C78.4268 78.7363 78.1025 78.9551 77.8604 79.2363C77.6221 79.5176 77.4795 79.8477 77.4326 80.2266L77.4268 80.2793H79.0088L79.0205 80.2559C79.0869 80.0645 79.2158 79.918 79.4072 79.8164C79.6025 79.7109 79.8545 79.6582 80.1631 79.6582C80.5146 79.6582 80.7822 79.7344 80.9658 79.8867C81.1533 80.0352 81.2471 80.25 81.2471 80.5312V82.5879C81.2471 82.8145 81.1865 83.0195 81.0654 83.2031C80.9443 83.3828 80.7803 83.5254 80.5732 83.6309C80.3662 83.7363 80.1299 83.7891 79.8643 83.7891C79.5674 83.7891 79.3252 83.7188 79.1377 83.5781C78.9502 83.4375 78.8564 83.2441 78.8564 82.998V82.9863C78.8564 82.752 78.9463 82.5664 79.126 82.4297C79.3057 82.293 79.5791 82.2148 79.9463 82.1953L82.0908 82.0547V81.0117L79.6885 81.1582C78.8877 81.2051 78.2705 81.3945 77.8369 81.7266C77.4033 82.0547 77.1865 82.5098 77.1865 83.0918V83.1035C77.1865 83.4941 77.2764 83.8359 77.4561 84.1289C77.6357 84.418 77.8838 84.6426 78.2002 84.8027C78.5205 84.959 78.8838 85.0371 79.29 85.0371Z" fill="black"/>
</svg>
