<svg width="107" height="95" viewBox="0 0 107 95" fill="none" xmlns="http://www.w3.org/2000/svg">
<rect x="1.82812" y="1.98389" width="103.343" height="91" rx="14.5" fill="white" stroke="#ADC6F7" stroke-width="3"/>
<path d="M44.6058 70.7061C44.6058 72.2394 43.3613 73.4838 41.828 73.4838H39.0502C37.5169 73.4838 36.2725 72.2394 36.2725 70.7061V60.9838C36.2725 59.4505 37.5169 58.2061 39.0502 58.2061H41.828C43.3613 58.2061 44.6058 59.4505 44.6058 60.9838V70.7061ZM72.3836 70.7061C72.3836 72.2394 71.1391 73.4838 69.6058 73.4838H66.828C65.2947 73.4838 64.0502 72.2394 64.0502 70.7061V60.9838C64.0502 59.4505 65.2947 58.2061 66.828 58.2061H69.6058C71.1391 58.2061 72.3836 59.4505 72.3836 60.9838V70.7061Z" fill="#292F33"/>
<path d="M33.4948 47.095C33.4948 47.8631 32.8726 48.4839 32.1059 48.4839H30.717C29.9503 48.4839 29.3281 47.8631 29.3281 47.095V37.3728C29.3281 36.6061 29.9503 35.9839 30.717 35.9839H32.1059C32.8726 35.9839 33.4948 36.6061 33.4948 37.3728V47.095ZM79.3281 47.095C79.3281 47.8631 78.7073 48.4839 77.9392 48.4839H76.5503C75.7823 48.4839 75.1615 47.8631 75.1615 47.095V37.3728C75.1615 36.6061 75.7823 35.9839 76.5503 35.9839H77.9392C78.7073 35.9839 79.3281 36.6061 79.3281 37.3728V47.095Z" fill="#99AAB5"/>
<path d="M77.939 38.7614C77.939 39.5281 77.3182 40.1503 76.5501 40.1503H32.1057C31.339 40.1503 30.7168 39.5281 30.7168 38.7614C30.7168 37.9948 31.339 37.3726 32.1057 37.3726H76.5501C77.3182 37.3726 77.939 37.9948 77.939 38.7614ZM77.939 44.317C77.939 45.0851 77.3182 45.7059 76.5501 45.7059H32.1057C31.339 45.7059 30.7168 45.0851 30.7168 44.317C30.7168 43.5489 31.339 42.9281 32.1057 42.9281H76.5501C77.3182 42.9281 77.939 43.5489 77.939 44.317Z" fill="#99AAB5"/>
<path d="M62.6618 26.2617C62.6618 27.795 61.4173 29.0394 59.884 29.0394H48.7729C47.2396 29.0394 45.9951 27.795 45.9951 26.2617C45.9951 24.7283 47.2396 23.4839 48.7729 23.4839H59.884C61.4173 23.4839 62.6618 24.7283 62.6618 26.2617Z" fill="#CCD6DD"/>
<path d="M68.2171 26.2617H40.4393C37.3713 26.2617 34.8838 28.7492 34.8838 31.8173V67.9284H73.7727V31.8173C73.7727 28.7492 71.2852 26.2617 68.2171 26.2617Z" fill="#CCD6DD"/>
<path d="M34.8838 45.7061H73.7727V67.9283H34.8838V45.7061Z" fill="#FFCC4D"/>
<path d="M75.1618 67.9283C75.1618 68.6963 74.541 69.3172 73.7729 69.3172H34.884C34.1173 69.3172 33.4951 68.6963 33.4951 67.9283V66.5394C33.4951 65.7713 34.1173 65.1505 34.884 65.1505H73.7729C74.541 65.1505 75.1618 65.7713 75.1618 66.5394V67.9283ZM73.7729 47.0949C73.7729 49.3963 71.9076 51.2616 69.6062 51.2616H39.0507C36.7493 51.2616 34.884 49.3963 34.884 47.0949V37.3727C34.884 35.0713 36.7493 33.2061 39.0507 33.2061H69.6062C71.9076 33.2061 73.7729 35.0713 73.7729 37.3727V47.0949Z" fill="#66757F"/>
<path d="M70.9945 45.7061C70.9945 47.2394 69.75 48.4839 68.2167 48.4839H40.4389C38.9056 48.4839 37.6611 47.2408 37.6611 45.7061V38.7617C37.6611 37.2283 38.9056 35.9839 40.4389 35.9839H68.2167C69.75 35.9839 70.9945 37.2269 70.9945 38.7617V45.7061Z" fill="#88C9F9"/>
<path d="M34.8838 58.2061H73.7727V65.1505H34.8838V58.2061Z" fill="#FFAC33"/>
<path d="M37.6611 58.2061H45.9945V62.3727H37.6611V58.2061ZM62.6611 58.2061H70.9945V62.3727H62.6611V58.2061Z" fill="white"/>
<path d="M34.8838 58.2061H37.6616V62.3727H34.8838V58.2061ZM70.9949 58.2061H73.7727V62.3727H70.9949V58.2061Z" fill="#DD2E44"/>
<path d="M48.7725 58.2061H59.8836V62.3727H48.7725V58.2061Z" fill="#66757F"/>
<path d="M59.8836 28.3451C59.8836 29.4964 58.9502 30.4284 57.8002 30.4284H50.8558C49.7044 30.4284 48.7725 29.4964 48.7725 28.3451C48.7725 27.1937 49.7044 26.2617 50.8558 26.2617H57.8002C58.9502 26.2617 59.8836 27.1937 59.8836 28.3451Z" fill="#292F33"/>
</svg>
