<svg width="112" height="99" viewBox="0 0 112 99" fill="none" xmlns="http://www.w3.org/2000/svg">
<rect x="1.5" y="1.5" width="109" height="96" rx="14.5" fill="white" stroke="#ADC6F7" stroke-width="3"/>
<path d="M36.0192 76.3944H41.5504V74.9354H37.7887V67.9393H36.0192V76.3944ZM44.7438 76.494C45.025 76.494 45.2848 76.4569 45.5231 76.3827C45.7653 76.3046 45.9762 76.1952 46.1559 76.0546C46.3395 75.91 46.486 75.7382 46.5953 75.5389H46.7008V76.3944H48.3883V71.9882C48.3883 71.5311 48.2828 71.1405 48.0719 70.8163C47.8649 70.4882 47.5621 70.2382 47.1637 70.0663C46.7653 69.8905 46.2809 69.8026 45.7106 69.8026C45.1715 69.8026 44.6969 69.8807 44.2867 70.037C43.8805 70.1932 43.5563 70.412 43.3141 70.6932C43.0758 70.9745 42.9332 71.3046 42.8864 71.6835L42.8805 71.7362H44.4625L44.4742 71.7128C44.5407 71.5214 44.6696 71.3749 44.861 71.2733C45.0563 71.1678 45.3082 71.1151 45.6168 71.1151C45.9684 71.1151 46.236 71.1913 46.4196 71.3436C46.6071 71.4921 46.7008 71.7069 46.7008 71.9882V74.0448C46.7008 74.2714 46.6403 74.4764 46.5192 74.66C46.3981 74.8397 46.234 74.9823 46.027 75.0878C45.8199 75.1932 45.5836 75.246 45.318 75.246C45.0211 75.246 44.7789 75.1757 44.5914 75.035C44.4039 74.8944 44.3102 74.701 44.3102 74.455V74.4432C44.3102 74.2089 44.4 74.0233 44.5797 73.8866C44.7594 73.7499 45.0328 73.6718 45.4 73.6522L47.5446 73.5116V72.4686L45.1422 72.6151C44.3414 72.662 43.7242 72.8514 43.2907 73.1835C42.8571 73.5116 42.6403 73.9667 42.6403 74.5487V74.5604C42.6403 74.951 42.7301 75.2928 42.9098 75.5858C43.0895 75.8749 43.3375 76.0995 43.6539 76.2596C43.9742 76.4159 44.3375 76.494 44.7438 76.494ZM50.0641 78.5331H51.775V75.3632H51.8805C51.9899 75.5975 52.1383 75.7987 52.3258 75.9667C52.5172 76.1346 52.7379 76.2655 52.9879 76.3593C53.2418 76.4491 53.5172 76.494 53.8141 76.494C54.3571 76.494 54.8239 76.3612 55.2145 76.0956C55.6051 75.83 55.9059 75.4491 56.1168 74.953C56.3278 74.4569 56.4332 73.8632 56.4332 73.1718V73.16C56.4332 72.4725 56.3258 71.8827 56.111 71.3905C55.9 70.8944 55.5992 70.5116 55.2086 70.2421C54.818 69.9725 54.3532 69.8378 53.8141 69.8378C53.5094 69.8378 53.2321 69.8827 52.9821 69.9725C52.7321 70.0585 52.5133 70.1835 52.3258 70.3475C52.1422 70.5116 51.9938 70.7089 51.8805 70.9393H51.775V69.9432H50.0641V78.5331ZM53.2282 75.076C52.9313 75.076 52.6715 74.9999 52.4489 74.8475C52.2301 74.6952 52.0602 74.4764 51.9391 74.1913C51.818 73.9022 51.7574 73.5624 51.7574 73.1718V73.16C51.7574 72.7616 51.816 72.4218 51.9332 72.1405C52.0543 71.8553 52.2242 71.6366 52.443 71.4843C52.6657 71.3319 52.9274 71.2557 53.2282 71.2557C53.5328 71.2557 53.7926 71.3319 54.0074 71.4843C54.2262 71.6366 54.3942 71.8553 54.5114 72.1405C54.6324 72.4257 54.693 72.7655 54.693 73.16V73.1718C54.693 73.5663 54.6324 73.9061 54.5114 74.1913C54.3942 74.4764 54.2262 74.6952 54.0074 74.8475C53.7926 74.9999 53.5328 75.076 53.2282 75.076ZM60.5114 76.4178C60.6793 76.4178 60.8375 76.41 60.986 76.3944C61.1344 76.3788 61.2614 76.3612 61.3668 76.3417V75.0702C61.2848 75.078 61.2067 75.0858 61.1324 75.0936C61.0621 75.0975 60.9723 75.0995 60.8629 75.0995C60.5739 75.0995 60.3629 75.0331 60.2301 74.9003C60.1012 74.7635 60.0367 74.5507 60.0367 74.2616V71.2323H61.3668V69.9432H60.0367V68.4022H58.3082V69.9432H57.3121V71.2323H58.3082V74.6542C58.3082 75.2792 58.4801 75.7303 58.8239 76.0077C59.1676 76.2811 59.7301 76.4178 60.5114 76.4178ZM65.609 76.5292C66.2731 76.5292 66.8414 76.3964 67.3141 76.1307C67.7907 75.8612 68.1559 75.4764 68.4098 74.9764C68.6637 74.4725 68.7907 73.871 68.7907 73.1718V73.16C68.7907 72.4647 68.6617 71.8671 68.4039 71.3671C68.1461 70.8632 67.7789 70.4764 67.3024 70.2069C66.8297 69.9374 66.2653 69.8026 65.609 69.8026C64.9528 69.8026 64.3864 69.9393 63.9098 70.2128C63.4371 70.4823 63.0719 70.8671 62.8141 71.3671C62.5563 71.8671 62.4274 72.4647 62.4274 73.16V73.1718C62.4274 73.871 62.5543 74.4725 62.8082 74.9764C63.0621 75.4764 63.4274 75.8612 63.9039 76.1307C64.3805 76.3964 64.9489 76.5292 65.609 76.5292ZM65.609 75.1874C65.3043 75.1874 65.0446 75.1093 64.8297 74.953C64.6188 74.7928 64.4567 74.5624 64.3434 74.2616C64.234 73.9608 64.1793 73.5975 64.1793 73.1718V73.16C64.1793 72.7382 64.236 72.3788 64.3492 72.0819C64.4625 71.7811 64.6246 71.5507 64.8356 71.3905C65.0504 71.2264 65.3082 71.1444 65.609 71.1444C65.9098 71.1444 66.1657 71.2264 66.3766 71.3905C66.5914 71.5507 66.7555 71.7811 66.8688 72.0819C66.9821 72.3788 67.0387 72.7382 67.0387 73.16V73.1718C67.0387 73.5936 66.9821 73.955 66.8688 74.2557C66.7555 74.5565 66.5934 74.787 66.3824 74.9471C66.1715 75.1073 65.9137 75.1874 65.609 75.1874ZM70.1852 78.5331H71.8961V75.3632H72.0016C72.111 75.5975 72.2594 75.7987 72.4469 75.9667C72.6383 76.1346 72.859 76.2655 73.109 76.3593C73.3629 76.4491 73.6383 76.494 73.9352 76.494C74.4781 76.494 74.9449 76.3612 75.3356 76.0956C75.7262 75.83 76.027 75.4491 76.2379 74.953C76.4489 74.4569 76.5543 73.8632 76.5543 73.1718V73.16C76.5543 72.4725 76.4469 71.8827 76.2321 71.3905C76.0211 70.8944 75.7203 70.5116 75.3297 70.2421C74.9391 69.9725 74.4742 69.8378 73.9352 69.8378C73.6305 69.8378 73.3531 69.8827 73.1031 69.9725C72.8531 70.0585 72.6344 70.1835 72.4469 70.3475C72.2633 70.5116 72.1149 70.7089 72.0016 70.9393H71.8961V69.9432H70.1852V78.5331ZM73.3492 75.076C73.0524 75.076 72.7926 74.9999 72.5699 74.8475C72.3512 74.6952 72.1813 74.4764 72.0602 74.1913C71.9391 73.9022 71.8785 73.5624 71.8785 73.1718V73.16C71.8785 72.7616 71.9371 72.4218 72.0543 72.1405C72.1754 71.8553 72.3453 71.6366 72.5641 71.4843C72.7867 71.3319 73.0485 71.2557 73.3492 71.2557C73.6539 71.2557 73.9137 71.3319 74.1285 71.4843C74.3473 71.6366 74.5153 71.8553 74.6324 72.1405C74.7535 72.4257 74.8141 72.7655 74.8141 73.16V73.1718C74.8141 73.5663 74.7535 73.9061 74.6324 74.1913C74.5153 74.4764 74.3473 74.6952 74.1285 74.8475C73.9137 74.9999 73.6539 75.076 73.3492 75.076Z" fill="black"/>
<path d="M76.2081 50.0267C75.7053 48.8582 75.1277 47.5901 73.7964 47.5901H72.5905C73.9218 47.5901 75.0023 46.4991 75.0023 45.1534V24.4367C75.0023 23.0909 73.9218 22 72.5905 22H41.2383C39.907 22 38.8266 23.0909 38.8266 24.4367V45.1534C38.8266 46.4991 39.907 47.5901 41.2383 47.5901H40.0324C38.7011 47.5901 38.0222 48.8084 37.6207 50.0267L35.209 55.9668C35.209 57.3138 36.2894 58.4047 37.6207 58.4047H76.2081C77.5394 58.4047 78.6198 57.3137 78.6198 55.968L76.2081 50.0267Z" fill="#CCD6DD"/>
<path d="M35.2183 56.0688L35.2255 56.138L35.4305 56.9777C35.8115 57.8174 36.646 58.4048 37.6203 58.4048H76.2078C77.5053 58.4048 78.5556 57.3672 78.6098 56.0688H35.2183Z" fill="#9AAAB4"/>
<path d="M72.5906 43.9338C72.5906 44.6073 72.0515 45.1522 71.3847 45.1522H42.4441C41.7785 45.1522 41.2383 44.6073 41.2383 43.9338V25.6563C41.2383 24.9828 41.7785 24.4379 42.4441 24.4379H71.3847C72.0515 24.4379 72.5906 24.984 72.5906 25.6563V43.9338Z" fill="#5DADEC"/>
<path d="M74.8883 52.3882L73.9719 49.7488C73.6837 49.1906 73.2062 48.7332 72.5393 48.7332H41.3703C40.7047 48.7332 40.2778 49.2283 39.9764 49.9903L39.1467 52.3894C38.8826 53.1126 39.687 53.6077 40.3526 53.6077H49.4906C49.4906 53.6077 50.6205 53.5507 50.8206 52.8699C51.0522 52.0836 51.3211 50.8992 51.3789 50.6905C51.4682 50.3701 51.8468 50.0461 52.4112 50.0461H62.755C63.3579 50.0461 63.6546 50.3532 63.7329 50.733C63.7836 50.9805 64.1092 52.1176 64.2611 52.8954C64.395 53.5883 65.7335 53.6065 65.7335 53.6065H73.6849C74.3493 53.6065 75.1524 53.035 74.8883 52.3882Z" fill="#AEBBC1"/>
<path d="M62.191 54.9014H52.8082C52.356 54.9014 52.1595 54.4851 52.2246 54.0823C52.2897 53.6806 52.6575 51.9065 52.6864 51.7002C52.7141 51.4927 53.0168 51.2451 53.3183 51.2451H61.7774C62.1355 51.2451 62.3682 51.4429 62.4406 51.8385C62.5117 52.2353 62.8048 53.8298 62.8277 54.1939C62.8506 54.5592 62.6239 54.9014 62.191 54.9014Z" fill="#9AAAB4"/>
</svg>
