<svg width="107" height="94" viewBox="0 0 107 94" fill="none" xmlns="http://www.w3.org/2000/svg">
<rect x="1.87402" y="1.5" width="103.343" height="91" rx="14.5" fill="white" stroke="#ADC6F7" stroke-width="3"/>
<path d="M61.4005 26.4911C60.9023 25.4985 59.9296 24.6457 58.7774 24.581C57.8783 24.5305 57.0274 24.9537 56.2751 25.426C55.5228 25.8984 54.7944 26.4419 53.9307 26.6852C53.2542 26.8754 52.4588 26.9065 51.9949 27.4125C51.5737 27.8732 51.6166 28.6367 52.0478 29.0883C52.4789 29.5413 53.224 29.6655 53.8162 29.4313C54.045 29.3407 54.2529 29.2048 54.4886 29.1311C55.1349 28.9305 55.819 29.2436 56.4307 29.5258C57.899 30.2039 59.5664 30.7616 61.1379 30.3436C61.9817 30.1197 62.1465 29.7328 62.0433 28.99C61.9242 28.132 61.7964 27.2805 61.4005 26.4911Z" fill="#F2D24C"/>
<path d="M57.9029 23.0995C57.9221 22.939 57.9811 22.7449 58.1291 22.7191C58.3193 22.6867 58.4199 22.952 58.4502 23.1578C58.5099 23.5628 58.5697 23.9679 58.6294 24.3716C58.6656 24.6175 58.7041 24.8711 58.8227 25.0834C58.9414 25.2969 59.1609 25.4639 59.3892 25.4341C59.5731 25.4095 59.7274 25.2633 59.8222 25.0911C59.9171 24.919 59.9628 24.7223 60.0124 24.5282C60.1385 24.0365 60.2968 23.555 60.4858 23.0866C60.5206 23.0012 60.5646 22.9067 60.6467 22.8756C60.7497 22.8368 60.8637 22.9248 60.904 23.0348C60.9443 23.1435 60.9307 23.2665 60.9166 23.3842C60.8397 24.0209 60.7627 24.6589 60.6857 25.2956C60.6566 25.5363 60.6225 25.79 60.4815 25.9789C60.2776 26.252 59.9185 26.305 59.5954 26.3348C58.9256 26.3982 57.8142 26.3451 57.7469 25.3629C57.728 25.0899 57.8646 24.8207 57.8988 24.5528C57.9602 24.0714 57.8444 23.5874 57.9029 23.0995Z" fill="#F2D24C"/>
<path d="M57.5241 23.2469C57.4507 23.1757 57.38 23.098 57.3379 23.001C57.2392 22.7745 57.3264 22.4924 57.4945 22.3203C57.6624 22.1482 57.8938 22.0679 58.1217 22.0252C58.3928 21.9735 58.7136 21.9851 58.8883 22.2168C59.003 22.3669 59.0241 22.5817 58.9866 22.7732C58.9489 22.9647 58.8598 23.1395 58.7718 23.3103C58.6774 23.494 58.555 23.6985 58.3622 23.7231C58.283 23.7322 58.2041 23.7089 58.1274 23.6856C57.9033 23.6157 57.6958 23.4125 57.5241 23.2469Z" fill="#C6985C"/>
<path d="M59.9578 23.1159C59.9144 23.0202 59.8761 22.9192 59.8708 22.8131C59.858 22.5634 60.0373 22.3356 60.2527 22.245C60.4682 22.1544 60.7103 22.1751 60.9363 22.2282C61.2053 22.2903 61.4985 22.4327 61.5802 22.7161C61.6338 22.9037 61.5786 23.1108 61.4773 23.2738C61.3759 23.4356 61.2326 23.5611 61.0916 23.6828C60.9403 23.8148 60.7559 23.9545 60.5688 23.8976C60.4921 23.8743 60.4272 23.8212 60.3645 23.7682C60.1807 23.6129 60.0591 23.3398 59.9578 23.1159Z" fill="#C6985C"/>
<path d="M41.187 51.6098C40.4864 50.8139 39.1782 51.1465 38.3746 50.4749C38.3638 51.1737 38.5081 51.8751 38.7915 52.5027C39.1264 53.2429 39.721 53.9185 40.4775 54.022C41.7563 54.1967 41.8565 52.3694 41.187 51.6098Z" fill="#C6985C"/>
<path d="M53.1953 29.0032C53.5619 28.8259 53.9018 28.5787 54.2866 28.4545C54.9895 28.228 55.7496 28.4363 56.4277 28.7392C57.1056 29.042 57.7539 29.4419 58.4694 29.6166C59.3442 29.8301 60.3489 29.6502 60.9641 28.9449C60.8983 29.284 60.8272 29.636 60.6327 29.9103C60.377 30.2727 59.9485 30.4422 59.5318 30.5095C59.1422 30.5716 58.7427 30.56 58.3567 30.4758C57.9997 30.3982 57.6569 30.2584 57.316 30.1187C56.8765 29.9401 56.4369 29.7602 55.9973 29.5816C55.7129 29.4652 55.4244 29.3487 55.1219 29.3176C54.7109 29.2749 54.3024 29.394 53.901 29.4988C53.4997 29.6036 53.0802 29.6955 52.677 29.5997C52.2737 29.504 51.8902 29.1714 51.8413 28.7275C51.9202 29.4445 52.7924 29.1986 53.1953 29.0032Z" fill="#E5BE45"/>
<path d="M57.6328 25.7405C57.8065 25.6343 58.0236 25.5942 58.2076 25.677C58.3918 25.7599 58.5248 25.9837 58.4807 26.1947C58.4531 26.3267 58.3659 26.4328 58.2765 26.526C58.165 26.6437 58.0431 26.7537 57.9015 26.8236C57.6808 26.9323 57.2017 26.9401 57.2208 26.5661C57.2377 26.2296 57.3523 25.9113 57.6328 25.7405Z" fill="#E5BE45"/>
<path d="M57.4377 26.0667C57.3162 26.1573 57.245 26.3152 57.237 26.4744C57.2336 26.5443 57.2423 26.6167 57.2798 26.6724C57.3225 26.7371 57.3965 26.7681 57.4688 26.7785C57.6113 26.7979 57.7625 26.741 57.8579 26.6245C57.9564 26.5041 58.0109 26.2518 57.9212 26.1081C57.8198 25.9477 57.5673 25.9697 57.4377 26.0667Z" fill="#493832"/>
<path d="M57.8279 26.2259C57.7857 26.1742 57.721 26.1431 57.6564 26.1457C57.5919 26.147 57.529 26.1819 57.49 26.2376C57.4749 26.2596 57.4629 26.2854 57.4629 26.3126C57.4629 26.3398 57.4776 26.3683 57.5015 26.3773C57.5452 26.3916 57.5875 26.3385 57.6329 26.345C57.6569 26.3489 57.6758 26.3683 57.6978 26.3799C57.736 26.3993 57.785 26.389 57.8136 26.3553C57.8423 26.3217 57.8483 26.2686 57.8278 26.2285L57.8279 26.2259Z" fill="white"/>
<path d="M51.6777 27.9988C51.5653 28.4324 51.6608 28.9319 51.9499 29.2554C52.3295 29.6825 52.9466 29.742 53.4852 29.6372C54.0239 29.5336 54.5371 29.2955 55.0804 29.2256C55.0852 28.9733 55.0899 28.7196 55.0949 28.4673C55.1014 28.1269 55.1071 27.7788 55.0144 27.4527C54.9215 27.1266 54.7116 26.8199 54.4119 26.7151C54.1556 26.6245 53.8775 26.6918 53.6153 26.7591C52.8225 26.9609 51.9401 26.9985 51.6777 27.9988Z" fill="#C6985C"/>
<path d="M51.9121 29.2115C51.9981 29.3215 52.1543 29.3474 52.2783 29.3578C52.4806 29.3746 52.6907 29.3383 52.8814 29.2646C53.085 29.1869 53.275 29.0653 53.448 28.9268C53.5885 28.8142 53.7273 28.6874 53.8255 28.5295C53.871 28.4558 53.7611 28.3859 53.7158 28.4596C53.6305 28.5968 53.5056 28.7107 53.3839 28.8078C53.2291 28.9333 53.059 29.0459 52.8782 29.1209C52.7076 29.1908 52.5241 29.2283 52.3414 29.2232C52.2343 29.2206 52.0777 29.2115 52.0019 29.1145C51.9487 29.0472 51.8593 29.1455 51.9121 29.2115Z" fill="#493832"/>
<path d="M53.7429 28.3571C53.7542 28.3571 53.7655 28.3584 53.7768 28.3597L53.76 28.3571C53.7795 28.3597 53.7984 28.3662 53.8166 28.3739L53.8014 28.3675C53.8148 28.3739 53.8276 28.3804 53.8396 28.3895L53.8473 28.3959L53.8523 28.3998L53.8443 28.3934L53.8606 28.4089L53.8744 28.4244C53.8777 28.4283 53.8852 28.4399 53.8734 28.4218L53.8787 28.4296C53.8871 28.4425 53.8939 28.4568 53.8998 28.471C53.9057 28.4865 53.9241 28.4982 53.9377 28.5034C53.9529 28.5072 53.9731 28.5059 53.9866 28.4956C54.0003 28.4865 54.0121 28.4723 54.0158 28.4542C54.0199 28.4361 54.0167 28.4192 54.0095 28.4024C53.9652 28.2911 53.8528 28.2187 53.7429 28.2199C53.7096 28.2212 53.6778 28.251 53.6792 28.2885C53.6808 28.3261 53.7072 28.3584 53.7429 28.3571Z" fill="#493832"/>
<path d="M52.0129 27.898C51.9582 27.9976 51.9427 28.1193 51.9708 28.2305C51.9824 28.2758 52.0029 28.3224 52.0404 28.3457L52.0655 28.3496L52.0741 28.3315C52.0834 28.2836 52.0877 28.2357 52.1054 28.1917C52.1589 28.0584 52.3119 28.0118 52.4011 27.9031C52.4988 27.7841 52.3894 27.6961 52.2736 27.7038C52.1674 27.7116 52.066 27.8022 52.0129 27.898Z" fill="#493832"/>
<path d="M51.817 66.6151C52.1427 67.9027 52.4684 69.1916 52.7941 70.4805C52.8508 70.7044 52.9116 70.9374 53.0543 71.1108C53.1969 71.2855 53.4472 71.3799 53.6326 71.2622C53.8473 71.125 53.8668 70.8041 53.861 70.5336C53.8092 68.1719 53.7574 65.8114 53.7057 63.4497C53.6784 62.2073 53.6511 60.9637 53.5075 59.7304C53.3865 58.6926 53.1475 57.5926 52.4381 56.8808C52.3083 56.7501 52.1597 56.6336 51.9873 56.5896C51.4926 56.4628 51.0552 56.9688 50.8361 57.4644C50.287 58.7081 50.3597 60.1355 50.6128 61.4438C50.9495 63.1844 51.3838 64.9004 51.817 66.6151Z" fill="#EABC4B"/>
<path d="M67.3742 58.1465C67.6955 58.527 68.0173 58.9139 68.2523 59.363C68.5771 59.9842 68.7214 60.6985 68.7881 61.409C68.9113 62.7173 68.7832 64.0528 68.4143 65.3068C68.2783 65.7688 68.0148 66.2968 67.5668 66.311C67.4685 66.2463 67.4552 66.1001 67.4569 65.9759C67.4671 65.2149 67.6244 64.4656 67.6855 63.7073C67.7468 62.9477 67.7021 62.1453 67.3438 61.4905C66.8374 60.5639 65.8221 60.1239 64.8538 59.8767C64.3612 59.7512 63.8574 59.6567 63.392 59.4419C62.7943 59.165 62.2668 58.6758 61.9976 58.0365C61.7283 57.3959 61.7452 56.6027 62.1092 56.0203C62.6764 55.1132 63.8485 54.976 64.6566 55.5014C65.7053 56.1834 66.5569 57.176 67.3742 58.1465Z" fill="#EABC4B"/>
<path d="M60.2132 44.4626C60.1578 45.406 60.0567 46.3998 59.5379 47.1608C58.9328 48.0472 57.8963 48.4264 56.9315 48.781C54.9751 49.4992 53.0488 50.3132 51.1606 51.2191C50.6177 51.4805 50.0664 51.7562 49.6388 52.2026C48.839 53.0373 48.6054 54.312 48.4962 55.5091C48.3568 57.0322 48.3536 58.5709 48.4863 60.0953C48.5148 60.4253 48.555 60.7683 48.7304 61.0388C48.9601 61.3946 49.37 61.5473 49.7552 61.6664C53.218 62.7327 56.9551 62.7366 60.4196 61.6755C61.8968 61.2238 64.8026 60.2079 65.0233 54.1606C65.3468 45.2921 64.4564 36.2269 62.1694 29.2155C61.8016 28.0883 61.3959 26.2248 59.9478 26.5729C58.8697 26.833 58.7107 27.8269 58.9788 28.7858C59.8414 31.8697 60.0732 35.0001 60.224 38.2302C60.3209 40.3059 60.3351 42.3881 60.2132 44.4626Z" fill="#F2D24C"/>
<path d="M48.8875 52.764C48.4494 53.094 48.0082 53.4266 47.521 53.6634C46.4401 54.1862 45.1975 54.2017 44.0338 53.9636C42.9294 53.7372 41.8639 53.2881 40.9078 52.6488C40.8627 52.6191 40.8156 52.588 40.7627 52.5828C40.646 52.5725 40.5503 52.7032 40.5489 52.83C40.5473 52.9568 40.6139 53.072 40.689 53.1691C40.9539 53.5133 41.3385 53.7178 41.7158 53.9002C43.1876 54.6133 44.7595 55.1542 46.3721 55.184C47.9848 55.2124 49.6488 54.6857 50.8253 53.4926C51.1295 53.1846 51.4102 52.8067 51.4572 52.3576C51.4702 52.2334 51.4599 52.0949 51.3792 52.0069C51.3168 51.9371 51.2247 51.9125 51.137 51.8944C50.1332 51.6912 49.6852 52.1635 48.8875 52.764Z" fill="#F2D24C"/>
<path d="M60.1667 47.3327C60.1749 47.9862 60.3723 48.6164 60.5675 49.235C60.5902 49.3062 60.6166 49.3838 60.6753 49.4239C60.7233 49.4576 60.7833 49.4602 60.8403 49.4615C61.3367 49.4757 61.8332 49.4899 62.3297 49.5029C62.38 49.5042 62.4333 49.5055 62.4764 49.477C62.5186 49.4498 62.543 49.3994 62.5654 49.3515C62.8019 48.8507 63.0384 48.3498 63.2749 47.849C63.3873 47.6109 63.5031 47.3469 63.4458 47.0868C63.3128 46.4812 62.4587 46.4837 62.1192 45.9829C61.7251 45.4006 61.5133 45.068 60.8422 45.6296C60.361 46.0321 60.1586 46.683 60.1667 47.3327Z" fill="#C6985C"/>
<path d="M56.9726 49.4355C56.7893 49.6723 56.7125 49.9816 56.6408 50.2805C56.4889 50.9134 56.337 51.5475 56.1849 52.1803C56.1676 52.2528 56.1506 52.3304 56.176 52.4003C56.2074 52.4857 56.2928 52.5297 56.3712 52.5659C57.049 52.8752 57.7597 53.0991 58.4848 53.2311C58.5512 53.244 58.6202 53.2557 58.6851 53.2363C58.7724 53.2091 58.8376 53.1328 58.8976 53.059C59.1454 52.7562 59.3929 52.4546 59.6404 52.1518C59.8888 51.8477 60.1516 51.5048 60.1514 51.0997C60.1511 50.674 59.8611 50.3207 59.5982 50.0023C59.3352 49.6853 59.0661 49.3009 59.1199 48.8777C59.1378 48.738 58.1488 48.9101 58.0316 48.9347C57.6393 49.0175 57.2461 49.0809 56.9726 49.4355Z" fill="#C6985C"/>
<path d="M52.3253 52.5595C52.1983 52.8105 52.1972 53.1198 52.27 53.3942C52.3429 53.6698 52.4833 53.917 52.6303 54.1551C52.8609 54.5278 53.1838 54.9238 53.5975 54.8966C53.7643 54.885 53.9189 54.8034 54.0686 54.7232C54.275 54.6132 54.4815 54.5019 54.6879 54.3919C54.8258 54.3182 54.9677 54.2405 55.0685 54.115C55.2339 53.9092 55.2571 53.6129 55.2502 53.3385C55.2434 53.0706 55.215 52.8015 55.1655 52.5388C55.1523 52.4689 55.1365 52.3964 55.0952 52.3408C55.0202 52.2385 54.8863 52.2217 54.7668 52.2114C54.2715 52.1712 53.7203 52.091 53.409 51.6717C53.3637 51.6109 53.3132 51.5371 53.2409 51.5371C53.1874 51.5371 53.1429 51.5798 53.104 51.62C52.8325 51.8982 52.5071 52.201 52.3253 52.5595Z" fill="#C6985C"/>
<path d="M56.9782 55.9386C56.9467 55.945 56.9127 55.9541 56.8918 55.9813C56.8734 56.0046 56.869 56.0369 56.8656 56.068C56.8217 56.4523 56.7778 56.8354 56.7339 57.2197C56.7102 57.4268 56.6954 57.6636 56.829 57.8137C56.9058 57.9004 57.0168 57.938 57.1241 57.9664C57.4657 58.0583 57.8202 58.0946 58.1716 58.0713C58.3078 58.0622 58.4513 58.0415 58.5585 57.9496C58.6587 57.8642 58.7115 57.7309 58.7571 57.6015C58.9056 57.1809 59.0204 56.7461 59.0995 56.3035C59.108 56.2569 59.1159 56.2064 59.0987 56.1612C59.082 56.1172 59.0452 56.0887 59.0093 56.0615C58.3334 55.5698 57.7246 55.7703 56.9782 55.9386Z" fill="#C6985C"/>
<path d="M50.5007 52.2387C50.1855 52.2167 49.8834 52.5196 49.879 52.8612C49.875 53.1601 50.0606 53.4164 50.2367 53.6454C50.3403 53.7813 50.4665 53.9276 50.6287 53.9263C50.752 53.925 50.858 53.8357 50.9521 53.749C51.1394 53.5781 51.329 53.3879 51.4041 53.1356C51.489 52.8496 51.3986 52.5118 51.1852 52.319C50.9718 52.1275 50.6489 52.0912 50.4042 52.2336L50.5007 52.2387Z" fill="#C6985C"/>
<path d="M53.9266 62.4595C55.895 62.4608 57.8634 62.2822 59.8045 61.9289C60.3246 61.8344 60.8457 61.7257 61.3384 61.5225C61.0328 60.2582 60.8139 58.9693 60.6844 57.67C60.5161 58.0582 60.5671 58.5138 60.4666 58.9279C60.2651 59.7574 59.5032 60.2737 58.7596 60.5688C57.4018 61.1084 55.9296 61.1887 54.4836 61.2339C53.6857 61.2598 52.8877 61.2767 52.0894 61.2844C52.0542 61.2857 52.016 61.2844 51.9875 61.2624C51.9348 61.2197 51.9458 61.133 51.9603 61.0644C52.1662 60.077 51.9006 58.9887 51.2711 58.2407C51.239 59.6254 50.5969 60.9803 49.5755 61.8176C49.5428 61.8435 49.9696 61.9832 50.0154 61.9845C50.1391 61.9871 50.2352 61.9405 50.3607 61.9574C50.7461 62.0091 51.139 62.2058 51.5282 62.2796C52.3192 62.4284 53.1251 62.4595 53.9266 62.4595Z" fill="#EFC44B"/>
<path d="M48.2299 57.1163C48.0466 59.3603 48.1854 61.6185 48.1779 63.8716C48.1704 66.1246 48.0079 68.4164 47.2549 70.5168C47.1903 70.6967 47.1203 70.8946 47.1749 71.0784C47.2409 71.3023 47.4775 71.4252 47.6936 71.411C48.2418 71.3773 48.5367 70.7161 48.7166 70.1557C49.059 69.0868 49.4015 68.0191 49.7438 66.9502C50.5854 64.3258 51.4292 61.6923 51.9638 58.9747C52.1948 57.8009 52.3192 56.4227 51.5633 55.544C51.0219 54.9151 49.9755 53.4178 49.2687 53.7478C48.4227 54.1425 48.3103 56.1328 48.2299 57.1163Z" fill="#F2D24C"/>
<path d="M61.4416 69.6173C61.4663 70.2669 61.489 70.9256 61.6716 71.5455C61.7256 71.7279 61.8131 71.9272 61.9827 71.9855C62.1523 72.0424 62.3389 71.9246 62.4328 71.7616C62.5266 71.5972 62.5493 71.3992 62.5694 71.209C63.0074 67.0381 63.2298 62.8064 64.3271 58.7804C64.5856 57.8318 64.8698 56.7215 64.3265 55.9256C63.9766 55.4132 63.3412 55.1854 62.757 55.2617C62.1727 55.3394 61.6407 55.6849 61.2187 56.1301C60.3864 57.0049 60.6015 57.6843 60.7015 58.7131C60.8199 59.927 60.9272 61.1435 61.0218 62.3612C61.2096 64.776 61.3495 67.1947 61.4416 69.6173Z" fill="#F2D24C"/>
<path d="M62.0189 52.6075C61.8921 52.6308 61.759 52.6567 61.6594 52.7447C61.4809 52.9026 61.4758 53.1886 61.4509 53.4357C61.385 54.0905 61.0814 54.6949 61.0003 55.3484C60.9902 55.4312 60.9856 55.5218 61.0318 55.5878C61.0674 55.6383 61.1257 55.6629 61.1811 55.6849C61.7268 55.9036 62.2726 56.1236 62.8185 56.3423C62.8693 56.363 62.9246 56.3837 62.9767 56.3669C63.0253 56.3513 63.0606 56.3073 63.093 56.2659C63.2941 56.0058 63.495 55.7444 63.6961 55.4843C63.8762 55.2514 64.059 55.0132 64.1712 54.7337C64.2833 54.4555 64.3173 54.1242 64.1963 53.8498C64.0475 53.5121 63.6959 53.3167 63.5594 52.9737C63.2743 52.2568 62.6123 52.5001 62.0189 52.6075Z" fill="#C6985C"/>
<path d="M50.4187 58.1916C50.4468 58.2252 50.4767 58.2615 50.5166 58.2757C50.5712 58.2951 50.63 58.2705 50.6831 58.2472C51.1391 58.0428 51.6382 57.793 51.8271 57.2999C51.904 57.0994 51.9195 56.8781 51.9261 56.6607C51.937 56.3009 51.9258 55.9411 51.9147 55.5827C51.9123 55.5024 51.9065 55.4144 51.8532 55.3601C51.8018 55.307 51.7232 55.3031 51.6521 55.3018C51.0892 55.2954 50.5264 55.2915 49.9636 55.2902C49.911 55.2902 49.8556 55.2915 49.8105 55.3213C49.766 55.3497 49.7391 55.4015 49.7154 55.4507C49.5301 55.8415 49.2768 56.5714 49.434 57.0088C49.5752 57.4009 50.1555 57.8732 50.4187 58.1916Z" fill="#C6985C"/>
<path d="M48.8784 69.6651C48.8327 69.8191 48.7871 69.9731 48.7414 70.1284C48.6547 70.4221 48.5658 70.7198 48.4032 70.9734C48.2405 71.2258 47.99 71.4315 47.7058 71.4522C47.5932 71.4613 47.476 71.438 47.3812 71.372C47.2279 71.2646 47.1561 71.0562 47.1553 70.8582C47.1543 70.6602 47.2133 70.4687 47.2717 70.2811C47.3451 70.0442 47.3959 69.7401 47.5164 69.5331C47.7021 69.6638 47.8427 69.7233 48.0815 69.744C48.1772 69.7531 48.8469 69.7841 48.8784 69.6651Z" fill="#493832"/>
<path d="M52.7703 70.4752C52.8197 70.6913 52.8722 70.9165 52.9993 71.0925C53.1265 71.2685 53.3505 71.3837 53.5439 71.3047C53.6704 71.253 53.7623 71.1287 53.8109 70.9916C53.8594 70.8557 53.8703 70.7069 53.8768 70.5606C53.8923 70.2035 53.8839 69.845 53.8517 69.4891C53.7117 69.6806 53.4807 69.7738 53.2556 69.7881C53.1138 69.7971 52.6343 69.7855 52.6343 69.7855C52.6343 69.7855 52.7393 70.3381 52.7703 70.4752Z" fill="#493832"/>
<path d="M62.1215 70.6295C62.3211 70.6489 62.5266 70.5907 62.6919 70.469C62.6668 70.7058 62.6418 70.9427 62.6168 71.1795C62.5982 71.3555 62.5784 71.5354 62.5056 71.6932C62.4326 71.8524 62.2947 71.987 62.1313 71.9987C61.972 72.0103 61.8212 71.9016 61.7315 71.7579C61.6418 71.6156 61.603 71.4435 61.573 71.2727C61.5216 70.9828 61.4254 70.5648 61.4886 70.2736C61.5507 70.3228 61.5846 70.4134 61.6472 70.469C61.7686 70.5764 61.9684 70.6152 62.1215 70.6295Z" fill="#493832"/>
<path d="M68.4849 65.0554C68.395 65.2728 68.3078 66.2369 68.1942 66.3637C68.0804 66.4918 67.911 66.5759 67.7521 66.5332C67.5971 66.4918 67.4837 66.3391 67.438 66.1735C67.3922 66.0078 67.4033 65.8305 67.422 65.6597C67.4539 65.3659 67.4952 65.0191 67.5661 64.6788C67.6114 64.7461 67.6724 64.8431 67.7167 64.9169C67.8025 65.0579 68.2931 65.1188 68.4849 65.0554Z" fill="#493832"/>
</svg>
