<svg width="112" height="99" viewBox="0 0 112 99" fill="none" xmlns="http://www.w3.org/2000/svg">
<rect x="1.5" y="1.5" width="109" height="96" rx="14.5" fill="white" stroke="#ADC6F7" stroke-width="3"/>
<path d="M76.5116 49.5489H48.7338V48.16C48.7338 45.092 46.2463 42.6045 43.1783 42.6045H39.0116C35.9436 42.6045 33.4561 45.092 33.4561 48.16V52.3267C33.4561 55.3948 35.9436 57.8823 39.0116 57.8823H77.9005C80.9686 57.8823 83.4561 55.3948 83.4561 52.3267V49.5489H76.5116Z" fill="#99AAB5"/>
<path d="M47.3449 31.4932H43.3811C39.0116 31.4932 37.6227 34.2709 37.6227 34.2709L33.4561 42.5473V49.5487H51.5116V35.6598C51.5116 33.3584 49.6463 31.4932 47.3449 31.4932Z" fill="#FFCC4D"/>
<path d="M45.9556 42.6038H36.2334L39.0112 37.0483C39.0112 37.0483 40.4001 34.2705 43.1778 34.2705H45.9556V42.6038Z" fill="#55ACEE"/>
<path d="M41.789 63.4373C44.8572 63.4373 47.3445 60.95 47.3445 57.8817C47.3445 54.8135 44.8572 52.3262 41.789 52.3262C38.7207 52.3262 36.2334 54.8135 36.2334 57.8817C36.2334 60.95 38.7207 63.4373 41.789 63.4373Z" fill="#292F33"/>
<path d="M41.7895 60.66C43.3236 60.66 44.5673 59.4164 44.5673 57.8823C44.5673 56.3481 43.3236 55.1045 41.7895 55.1045C40.2554 55.1045 39.0117 56.3481 39.0117 57.8823C39.0117 59.4164 40.2554 60.66 41.7895 60.66Z" fill="#CCD6DD"/>
<path d="M75.1229 63.4373C78.1912 63.4373 80.6785 60.95 80.6785 57.8817C80.6785 54.8135 78.1912 52.3262 75.1229 52.3262C72.0547 52.3262 69.5674 54.8135 69.5674 57.8817C69.5674 60.95 72.0547 63.4373 75.1229 63.4373Z" fill="#292F33"/>
<path d="M75.1225 60.66C76.6566 60.66 77.9003 59.4164 77.9003 57.8823C77.9003 56.3481 76.6566 55.1045 75.1225 55.1045C73.5884 55.1045 72.3447 56.3481 72.3447 57.8823C72.3447 59.4164 73.5884 60.66 75.1225 60.66Z" fill="#CCD6DD"/>
<path d="M61.2343 63.4373C64.3025 63.4373 66.7898 60.95 66.7898 57.8817C66.7898 54.8135 64.3025 52.3262 61.2343 52.3262C58.166 52.3262 55.6787 54.8135 55.6787 57.8817C55.6787 60.95 58.166 63.4373 61.2343 63.4373Z" fill="#292F33"/>
<path d="M61.2338 60.66C62.768 60.66 64.0116 59.4164 64.0116 57.8823C64.0116 56.3481 62.768 55.1045 61.2338 55.1045C59.6997 55.1045 58.4561 56.3481 58.4561 57.8823C58.4561 59.4164 59.6997 60.66 61.2338 60.66Z" fill="#CCD6DD"/>
<path d="M77.9002 25.9375H59.8446C56.7766 25.9375 54.2891 28.425 54.2891 31.4931V49.5486H83.4557V31.4931C83.4557 28.425 80.9682 25.9375 77.9002 25.9375Z" fill="#77B255"/>
<path d="M42.3877 84.9375H44.1572V77.9414H46.6943V76.4824H39.8506V77.9414H42.3877V84.9375ZM47.4209 84.9375H49.1318V81.3281C49.1318 81.0234 49.1963 80.7617 49.3252 80.543C49.4541 80.3242 49.6377 80.1562 49.876 80.0391C50.1143 79.918 50.3955 79.8574 50.7197 79.8574C50.8525 79.8574 50.9834 79.8672 51.1123 79.8867C51.2451 79.9023 51.376 79.9258 51.5049 79.957V78.4629C51.4189 78.4395 51.3193 78.4199 51.2061 78.4043C51.0967 78.3887 50.9834 78.3809 50.8662 78.3809C50.4482 78.3809 50.0986 78.4785 49.8174 78.6738C49.5361 78.8652 49.3428 79.1367 49.2373 79.4883H49.1318V78.4863H47.4209V84.9375ZM54.7803 85.0723C55.2412 85.0723 55.6318 84.9727 55.9521 84.7734C56.2725 84.5703 56.5049 84.293 56.6494 83.9414H56.7549V84.9375H58.4658V78.4863H56.7549V82.2129C56.7549 82.502 56.7041 82.7559 56.6025 82.9746C56.5049 83.1895 56.3584 83.3574 56.1631 83.4785C55.9717 83.5957 55.7354 83.6543 55.4541 83.6543C55.0479 83.6543 54.7529 83.5371 54.5693 83.3027C54.3896 83.0684 54.2998 82.7227 54.2998 82.2656V78.4863H52.5889V82.6582C52.5889 83.1699 52.6709 83.6074 52.835 83.9707C52.999 84.3301 53.2432 84.6035 53.5674 84.791C53.8955 84.9785 54.2998 85.0723 54.7803 85.0723ZM63.0244 85.0723C63.5869 85.0723 64.0713 84.9785 64.4775 84.791C64.8838 84.5996 65.2061 84.3301 65.4443 83.9824C65.6826 83.6348 65.833 83.2285 65.8955 82.7637V82.7227L64.3135 82.7285L64.3018 82.7461C64.2275 83.0742 64.085 83.3203 63.874 83.4844C63.6631 83.6484 63.3818 83.7305 63.0303 83.7305C62.7256 83.7305 62.4678 83.6523 62.2568 83.4961C62.0459 83.3398 61.8838 83.1113 61.7705 82.8105C61.6611 82.5059 61.6064 82.1367 61.6064 81.7031V81.6914C61.6064 81.2578 61.6611 80.8926 61.7705 80.5957C61.8799 80.2988 62.04 80.0742 62.251 79.9219C62.4658 79.7656 62.7256 79.6875 63.0303 79.6875C63.3975 79.6875 63.6865 79.7832 63.8975 79.9746C64.1123 80.1621 64.249 80.4121 64.3076 80.7246L64.3135 80.7363H65.9014V80.7188C65.8506 80.2383 65.7061 79.8203 65.4678 79.4648C65.2295 79.1094 64.9053 78.834 64.4951 78.6387C64.085 78.4434 63.5947 78.3457 63.0244 78.3457C62.3525 78.3457 61.7803 78.4785 61.3076 78.7441C60.8389 79.0059 60.4814 79.3848 60.2354 79.8809C59.9893 80.377 59.8662 80.9805 59.8662 81.6914V81.7031C59.8662 82.418 59.9893 83.0273 60.2354 83.5312C60.4814 84.0312 60.8389 84.4141 61.3076 84.6797C61.7803 84.9414 62.3525 85.0723 63.0244 85.0723ZM67.2959 84.9375H69.0068V76.0195H67.2959V84.9375ZM71.3564 84.9375H73.3779L70.6533 81.1113L69.376 82.1367L71.3564 84.9375ZM68.8896 82.8984L69.6396 82.1016L70.5537 81.416L73.208 78.4863H71.2686L69.1123 81.0352H68.8311L68.8896 82.8984Z" fill="black"/>
</svg>
