<svg width="108" height="94" viewBox="0 0 108 94" fill="none" xmlns="http://www.w3.org/2000/svg">
<rect x="2.18701" y="1.5" width="103.343" height="91" rx="14.5" fill="white" stroke="#ADC6F7" stroke-width="3"/>
<path d="M53.5498 70.2014C53.5874 70.4269 53.6199 70.6812 53.4984 70.8685C53.356 71.0883 53.0716 71.1189 52.8239 71.138C51.6993 71.2259 50.5887 71.5183 49.5527 72C51.5681 71.8184 53.5938 71.6349 55.61 71.805C55.2334 71.612 54.8567 71.417 54.4803 71.224C54.3699 71.1666 54.2577 71.1093 54.1674 71.0195C54.0134 70.8685 53.9395 70.6448 53.883 70.4289C53.6839 69.6662 53.6275 68.8692 53.5966 68.0779C53.5537 66.975 53.5583 65.8722 53.6106 64.7693C53.6441 64.064 53.0778 63.6817 52.6575 64.3469C52.3816 64.7827 52.6019 65.1611 52.7384 65.6065C53.1841 67.0553 53.299 68.6991 53.5498 70.2014Z" fill="#513E38"/>
<path d="M57.9725 70.2014C58.0101 70.4269 58.0428 70.6812 57.9213 70.8685C57.7789 71.0883 57.4944 71.1189 57.2468 71.138C56.1222 71.2259 55.0115 71.5183 53.9756 72C55.9907 71.8184 58.0166 71.6349 60.0329 71.805C59.6562 71.612 59.2796 71.417 58.9029 71.224C58.7927 71.1666 58.6805 71.1093 58.5901 71.0195C58.436 70.8685 58.3624 70.6448 58.3058 70.4289C58.1067 69.6662 58.0502 68.8692 58.0193 68.0779C57.9765 66.975 57.9811 65.8722 58.0334 64.7693C58.067 64.064 57.5006 63.6817 57.0802 64.3469C56.8044 64.7827 57.0247 65.1611 57.1613 65.6065C57.6068 67.0553 57.7218 68.6991 57.9725 70.2014Z" fill="#513E38"/>
<path d="M51.5634 64.4158C51.9279 65.1651 52.4783 65.9946 53.2604 65.964C53.9713 65.9354 54.4671 65.1976 54.7593 64.4961C55.1872 63.4678 55.4275 62.3477 55.4624 61.2219C55.4866 60.4421 55.4057 59.6317 55.0485 58.9551C54.6041 58.1102 53.7623 57.5617 52.879 57.3877C51.9955 57.2157 51.0767 57.3877 50.2385 57.7356C50.0307 57.8216 49.8189 57.9248 49.6763 58.1083C49.1495 58.7888 49.9975 60.5147 50.2323 61.1971C50.6123 62.298 51.0569 63.3741 51.5634 64.4158Z" fill="#7C5F56"/>
<path d="M34.687 37.3468C36.0259 37.4404 37.4252 37.5876 38.5497 38.3789C38.3659 37.6105 38.2398 36.8288 38.172 36.0375C38.1138 35.3628 38.2426 34.5543 38.1015 33.9082C37.6418 33.9808 37.1415 35.3685 36.8322 35.7527C36.4269 36.2554 35.3747 37.3946 34.687 37.3468Z" fill="#513E38"/>
<path d="M37.5269 36.3283C37.744 38.7061 39.6332 40.7799 41.8274 41.0494C41.614 44.4153 42.0954 47.829 43.2262 50.9732C43.7576 52.4507 44.4339 53.8746 45.309 55.1457C47.4023 58.1867 50.5337 60.2185 53.7902 61.6214C56.4072 62.7472 59.1949 63.5232 62.0109 63.4487C63.4888 63.4104 65.0884 63.0626 66.0542 61.8527C66.5353 61.2487 66.8101 60.488 67.0391 59.7311C69.4279 51.8295 66.8939 43.7253 61.4849 37.8211C56.1428 31.9914 47.7586 28.2853 40.484 30.9631C38.5637 31.6703 37.3357 34.2335 37.5269 36.3283Z" fill="#917163"/>
<path d="M67.198 65.8795C67.6874 66.1241 68.2409 66.3554 68.7526 66.17C69.2644 65.9865 69.5727 65.1761 69.1581 64.8015C70.0491 65.6405 71.0547 66.3363 72.1319 66.8581C72.3529 66.9651 72.6534 67.0473 72.8034 66.8409C72.8875 66.7262 72.8835 66.5637 72.8702 66.4185C72.6697 64.2108 71.3225 62.3587 70.3588 60.4015C69.5651 58.7883 69.013 57.0356 68.7307 55.2351C68.5412 54.0252 68.4719 52.7904 68.1895 51.6016C67.907 50.4127 67.3782 49.241 66.4658 48.5109C65.627 47.8419 64.5305 47.6126 63.4949 47.7444C62.4592 47.8744 61.4789 48.3389 60.5981 48.9429C58.6778 50.2579 57.0928 52.5286 57.3059 54.977C57.5484 57.7657 59.7768 59.2948 61.283 61.2788C62.83 63.3182 65.0031 64.7766 67.198 65.8795Z" fill="#917163"/>
<path d="M43.3442 27.3426C42.9603 25.7237 41.2902 24.5386 39.8004 24.9802C39.6662 25.0203 39.5218 25.0719 39.3922 25.0165C39.2277 24.9477 39.1574 24.7374 39.1358 24.5482C39.062 23.9002 39.3408 23.2427 39.7851 22.8012C40.2294 22.3616 40.8208 22.1246 41.4176 22.0367C41.84 21.9755 42.2749 21.9851 42.6858 22.1074C43.5242 22.3597 44.2059 23.0784 44.5693 23.9327C44.9329 24.7871 45.0009 25.7657 44.8824 26.6985C44.6714 28.3556 43.7145 30.4715 42.2885 31.2686C42.4275 30.6703 42.9492 30.202 43.1693 29.619C43.4394 28.9004 43.5233 28.0995 43.3442 27.3426Z" fill="#513E38"/>
<path d="M44.3983 39.5314C44.6882 39.2562 44.9744 38.9733 45.203 38.6369C46.0614 37.3773 45.8912 35.4296 44.8297 34.3669C46.222 34.7836 47.1595 36.3547 47.1978 37.9182C47.2361 39.4798 46.5 40.9802 45.4632 42.0697C44.4264 43.1592 43.1112 43.8836 41.7747 44.478C42.0191 44.3691 41.3264 41.4218 41.7147 40.9879C41.8933 40.7891 42.7529 40.7298 43.0338 40.5808C43.5348 40.3151 43.9807 39.9252 44.3983 39.5314Z" fill="#EACCAD"/>
<path d="M41.7448 29.9442C43.3372 29.3135 45.0792 29.2428 46.7649 29.4416C47.6655 29.5467 49.5495 30.3265 50.3579 30.768C48.5707 30.575 45.7489 30.4909 44.2664 31.588C43.3967 32.2321 42.6505 33.0674 41.7347 33.6313C41.1492 33.9906 40.5014 34.2295 39.836 34.3385C39.3902 34.4111 38.254 34.6156 37.9786 34.155C37.4435 33.2586 39.2901 31.5269 39.8215 31.0834C40.4021 30.5979 41.056 30.2157 41.7448 29.9442Z" fill="#E5893C"/>
<path d="M39.8286 34.4647C39.8591 34.824 40.0462 35.1508 40.2861 35.4012C40.8217 35.9593 41.6508 36.1677 42.3558 35.9116C43.0609 35.6535 43.6062 34.9368 43.6905 34.1359C43.7133 33.9199 43.7044 33.6982 43.65 33.4879C43.485 32.8553 42.9105 32.4138 42.311 32.2991C41.2662 32.0984 39.7211 33.1955 39.8286 34.4647Z" fill="#454C8C"/>
<path d="M40.3555 34.7016C40.4136 35.0151 40.6864 35.2292 40.9616 35.3439C41.3515 35.5063 41.8064 35.5293 42.1786 35.3228C43.04 34.8469 42.8022 33.7001 42.0042 33.3255C41.3252 33.0043 40.1995 33.8625 40.3555 34.7016Z" fill="#513E38"/>
<path d="M50.5218 45.8202C50.7739 47.8711 51.7328 49.7634 52.9828 51.3307C54.4942 53.2229 56.4508 54.6966 58.6165 55.572C59.5295 55.9428 60.5832 56.197 61.4518 55.7192C62.0156 56.3996 62.6492 57.0495 63.4364 57.3802C64.2236 57.7108 65.1963 57.6611 65.8219 57.0457C66.6424 58.3874 67.9612 59.3584 69.4146 59.6948C69.5359 58.8729 69.4965 58.0281 69.3377 57.212C68.7364 54.1251 66.547 51.7493 64.6598 49.3448C63.2094 47.4984 61.884 45.5278 60.2903 43.8229C59.0306 42.4753 57.6099 41.3037 56.0751 40.348C55.5552 40.0231 55.0128 39.7192 54.4247 39.5892C51.2851 38.8992 50.2028 43.2227 50.5218 45.8202Z" fill="#513E38"/>
<path d="M51.3528 41.1679C50.4913 43.3678 50.897 45.9692 51.9731 48.0545C53.0493 50.1398 54.724 51.7836 56.4673 53.2477C57.6454 54.2378 59.0656 55.2145 60.5251 54.88C61.0699 54.7557 61.6338 54.3563 61.6902 53.758C62.1626 54.75 62.7427 55.7669 63.6721 56.2523C64.6015 56.7397 65.9522 56.4225 66.2842 55.3655C66.6375 56.4874 67.6877 57.3093 68.7843 57.3208C68.9819 57.3208 69.196 57.2921 69.3384 57.143C69.4654 57.0112 69.5082 56.8124 69.537 56.6232C69.7525 55.2126 69.5153 53.7676 69.2006 52.378C68.3723 48.7197 67.0002 45.2047 65.1532 42.0127C64.2365 40.4262 63.178 38.8933 61.764 37.8191C58.3888 35.256 52.9761 37.0259 51.3528 41.1679Z" fill="#454C8C"/>
<path d="M55.4622 50.2124C56.2024 49.7976 56.7217 48.9547 56.7898 48.0563C57.4399 48.7081 58.5025 48.7005 59.266 48.2131C60.0293 47.7257 60.5243 46.8541 60.8093 45.9462C61.029 46.2578 61.4198 46.3954 61.7807 46.3533C62.1416 46.3094 62.4737 46.1087 62.75 45.8545C63.2433 45.3995 63.5862 44.7573 63.7042 44.0673C64.0843 44.4668 64.7779 44.3082 65.0916 43.8475C65.4054 43.3869 65.3941 42.7389 65.2036 42.2057C65.3376 42.6759 65.5596 43.1136 65.6912 43.5876C65.8228 44.0597 65.8538 44.5987 65.6179 45.0211C65.3822 45.4435 64.8122 45.6614 64.4467 45.3651C64.8233 46.1756 64.4456 47.2517 63.7204 47.7066C62.9952 48.1615 62.0356 48.0391 61.3403 47.5326C61.5401 48.5265 61.0644 49.6332 60.2334 50.1092C59.4024 50.5832 58.2889 50.3844 57.6434 49.6447C57.8653 50.5793 57.6234 51.6268 57.0217 52.3397C56.8641 52.5251 56.6756 52.6952 56.4497 52.7583C56.2384 52.8195 56.014 52.7812 55.8017 52.7258C54.8774 52.4812 53.9731 51.8351 53.4536 50.9616C53.058 50.2965 53.3062 50.3443 53.8653 50.457C54.4024 50.5641 54.9756 50.4838 55.4622 50.2124Z" fill="#513E38"/>
<path d="M55.6235 64.7518C55.988 65.501 56.5385 66.3305 57.3204 66.3C58.0314 66.2713 58.5273 65.5335 58.8193 64.832C59.2472 63.8037 59.4874 62.6837 59.5224 61.5579C59.5468 60.778 59.4659 59.9676 59.1087 59.291C58.6642 58.4462 57.8222 57.8976 56.9389 57.7237C56.0557 57.5516 55.1369 57.7237 54.2984 58.0715C54.0909 58.1575 53.879 58.2589 53.7363 58.4443C53.2097 59.1247 54.0576 60.8507 54.2924 61.533C54.6722 62.634 55.1171 63.7101 55.6235 64.7518Z" fill="#917163"/>
<path d="M42.8581 45.4031C42.8917 46.1046 43.0176 46.7984 43.2367 47.4598C43.2925 47.628 43.543 47.5553 43.4865 47.3852C43.2752 46.7468 43.1498 46.0798 43.1173 45.4031C43.1088 45.2235 42.8495 45.2215 42.8581 45.4031Z" fill="#EACCAD"/>
<path d="M43.911 45.1319C43.9936 45.4568 44.0761 45.7836 44.1588 46.1105C44.2028 46.2844 44.453 46.2099 44.4086 46.0359C44.3261 45.7091 44.2434 45.3822 44.1609 45.0573C44.1169 44.8834 43.8668 44.956 43.911 45.1319Z" fill="#EACCAD"/>
<path d="M44.4714 48.3924C44.6352 48.8721 44.7988 49.3538 44.9624 49.8336C44.9866 49.9043 45.0502 49.9521 45.1219 49.931C45.1849 49.9119 45.2365 49.8297 45.2123 49.759C45.0487 49.2793 44.885 48.7976 44.7214 48.3178C44.6972 48.2471 44.6334 48.1974 44.562 48.2185C44.4988 48.2376 44.4472 48.3198 44.4714 48.3924Z" fill="#EACCAD"/>
<path d="M44.1149 50.5412C44.2942 50.847 44.4737 51.1547 44.6532 51.4624C44.6905 51.5255 44.7686 51.5504 44.8304 51.5121C44.8894 51.4739 44.9145 51.3841 44.8769 51.321C44.6976 51.0133 44.5181 50.7055 44.3386 50.3997C44.3013 50.3347 44.2232 50.3099 44.1614 50.3481C44.1026 50.3863 44.0773 50.4762 44.1149 50.5412Z" fill="#EACCAD"/>
<path d="M46.1251 53.9967C46.1863 54.0387 46.246 54.0827 46.3041 54.1305L46.3278 54.1496L46.3295 54.1515L46.371 54.1859C46.4 54.2127 46.4288 54.2375 46.4569 54.2643C46.5668 54.3675 46.6696 54.4783 46.7652 54.5968C46.8099 54.6523 46.9033 54.6504 46.9484 54.5968C46.9985 54.5395 46.9961 54.4592 46.9484 54.4C46.7473 54.1496 46.5127 53.9336 46.2559 53.7539C46.1988 53.7138 46.1103 53.7386 46.0787 53.8036C46.0446 53.8743 46.0642 53.9546 46.1251 53.9967Z" fill="#EACCAD"/>
<path d="M46.1265 51.9326C46.2818 52.1753 46.4371 52.42 46.5926 52.6647C46.6309 52.7239 46.7079 52.7564 46.7699 52.7144C46.8252 52.6761 46.8574 52.5863 46.8162 52.5232C46.6609 52.2786 46.5057 52.0339 46.3504 51.7912C46.3119 51.73 46.2348 51.6975 46.173 51.7396C46.1175 51.7778 46.0854 51.8676 46.1265 51.9326Z" fill="#EACCAD"/>
<path d="M46.8692 49.0082C46.9425 49.2548 47.0452 49.4937 47.1761 49.7116C47.213 49.7728 47.2925 49.8034 47.3533 49.7613C47.41 49.7212 47.4393 49.6352 47.3997 49.5702C47.3384 49.467 47.283 49.3599 47.2345 49.251C47.2232 49.2261 47.2123 49.1994 47.2017 49.1726L47.1927 49.1516L47.1757 49.1057C47.155 49.0484 47.1363 48.991 47.1192 48.9337C47.0985 48.863 47.0284 48.8114 46.9597 48.8362C46.8952 48.8572 46.8471 48.9337 46.8692 49.0082Z" fill="#EACCAD"/>
<path d="M45.9543 45.652C46.0322 45.8947 46.1104 46.1355 46.1885 46.3783C46.2108 46.4471 46.2783 46.5006 46.3479 46.4757C46.4109 46.4528 46.4623 46.3764 46.4383 46.3037C46.3602 46.061 46.2821 45.8201 46.2042 45.5774C46.1818 45.5086 46.1145 45.4551 46.0447 45.4799C45.9817 45.5029 45.9302 45.5774 45.9543 45.652Z" fill="#EACCAD"/>
<path d="M45.5923 43.7329C45.6214 43.8208 45.6507 43.9069 45.6799 43.9948C45.6915 44.0292 45.709 44.0579 45.7394 44.077C45.7672 44.0961 45.8081 44.1037 45.8394 44.0923C45.8707 44.0808 45.9009 44.0598 45.9168 44.0273C45.9323 43.9967 45.9417 43.9547 45.9299 43.9202C45.9005 43.8323 45.8714 43.7444 45.8422 43.6584C45.8304 43.624 45.8131 43.5934 45.7827 43.5743C45.7548 43.5571 45.714 43.5494 45.6827 43.5609C45.6514 43.5705 45.6212 43.5915 45.6053 43.624C45.5898 43.6565 45.5804 43.6966 45.5923 43.7329Z" fill="#EACCAD"/>
<path d="M46.9625 42.3411C46.9927 42.5132 47.0229 42.6871 47.0533 42.8591C47.0658 42.9318 47.1497 42.9795 47.2126 42.9566C47.2838 42.9318 47.3167 42.861 47.3031 42.7846C47.2729 42.6126 47.2427 42.4386 47.2125 42.2666C47.1997 42.194 47.1158 42.1462 47.0529 42.1691C46.9817 42.194 46.9489 42.2647 46.9625 42.3411Z" fill="#EACCAD"/>
<path d="M48.928 42.8191C48.8899 43.3505 48.9231 43.8856 49.0216 44.4074C49.0549 44.5833 49.3048 44.5087 49.2714 44.3329C49.1776 43.834 49.1508 43.3256 49.187 42.8191C49.1925 42.7446 49.1236 42.6796 49.0575 42.6796C48.983 42.6796 48.9333 42.7426 48.928 42.8191Z" fill="#EACCAD"/>
<path d="M47.9942 46.659C48.1663 47.0565 48.3383 47.4541 48.5104 47.8517C48.5401 47.9205 48.6312 47.9377 48.6878 47.9014C48.7526 47.8612 48.7641 47.779 48.7342 47.7102C48.5622 47.3127 48.3901 46.9151 48.2179 46.5175C48.1883 46.4487 48.097 46.4315 48.0407 46.4659C47.9757 46.508 47.9643 46.5902 47.9942 46.659Z" fill="#EACCAD"/>
<path d="M49.3301 50.7935C49.5407 51.1605 49.7706 51.5141 50.0163 51.8562C50.0592 51.9155 50.1543 51.904 50.1995 51.8562C50.2541 51.797 50.2426 51.7186 50.1995 51.6575C49.9675 51.3363 49.7527 50.998 49.5538 50.6521C49.517 50.5871 49.4381 50.5622 49.3766 50.6005C49.3172 50.6387 49.293 50.7285 49.3301 50.7935Z" fill="#EACCAD"/>
<path d="M48.915 52.7887C49.09 52.9779 49.2651 53.1671 49.4404 53.3563C49.4882 53.4079 49.5762 53.4118 49.6236 53.3563C49.6711 53.3009 49.6748 53.213 49.6236 53.1576C49.4485 52.9683 49.2734 52.7791 49.0982 52.5899C49.0501 52.5383 48.9623 52.5345 48.915 52.5899C48.8675 52.6453 48.8637 52.7332 48.915 52.7887Z" fill="#EACCAD"/>
<path d="M48.7054 56.061C48.881 56.1987 49.0566 56.3363 49.2322 56.472C49.2873 56.516 49.3788 56.4854 49.4096 56.4223C49.4449 56.3497 49.4218 56.277 49.3629 56.2312C49.1873 56.0935 49.0117 55.9559 48.8361 55.8183C48.781 55.7763 48.6893 55.8068 48.659 55.8699C48.6234 55.9425 48.6464 56.0152 48.7054 56.061Z" fill="#EACCAD"/>
<path d="M50.3114 59.2206C50.7434 59.3009 51.1355 59.5321 51.4299 59.8838C51.542 60.0176 51.7249 59.8189 51.613 59.6851C51.2922 59.3028 50.8517 59.039 50.3803 58.9511C50.3114 58.9377 50.2408 58.9702 50.2208 59.0486C50.2038 59.1155 50.242 59.2091 50.3114 59.2206Z" fill="#EACCAD"/>
<path d="M51.1647 57.9495C51.3521 58.1425 51.5873 58.282 51.8404 58.3413C51.9065 58.3566 51.9837 58.3203 51.9998 58.2438C52.0148 58.1731 51.9802 58.0871 51.9093 58.0699C51.854 58.0584 51.7996 58.0412 51.7464 58.0202L51.703 58.003L51.7056 58.0049L51.6867 57.9953C51.6602 57.982 51.6339 57.9686 51.6083 57.9533C51.5583 57.9246 51.5101 57.8921 51.464 57.8577L51.4309 57.831L51.4329 57.8329L51.417 57.8195C51.3931 57.7965 51.3702 57.7755 51.3479 57.7526C51.2986 57.701 51.2128 57.6952 51.1647 57.7526C51.1181 57.8061 51.1121 57.8959 51.1647 57.9495Z" fill="#EACCAD"/>
<path d="M51.6368 54.8051C51.7029 54.8701 51.7642 54.9427 51.82 55.0192L51.8292 55.0307L51.8227 55.0211L51.8428 55.0517C51.8559 55.0708 51.8688 55.0899 51.8813 55.111C51.9069 55.153 51.931 55.195 51.9536 55.239C51.9866 55.304 52.0728 55.3288 52.1308 55.2887C52.1908 55.2467 52.2127 55.1664 52.1774 55.0976C52.0831 54.916 51.9615 54.7478 51.82 54.6064C51.7702 54.5567 51.6854 54.549 51.6368 54.6064C51.5909 54.6599 51.5836 54.7516 51.6368 54.8051Z" fill="#EACCAD"/>
<path d="M51.7447 51.7967C51.836 52.0815 51.9955 52.3376 52.2112 52.5288C52.2637 52.5747 52.3439 52.588 52.3946 52.5288C52.4382 52.4772 52.4506 52.3797 52.3946 52.33C52.3465 52.2879 52.3008 52.2421 52.2584 52.1924C52.2377 52.1694 52.2178 52.1446 52.1987 52.1197L52.1828 52.0987L52.1845 52.1006L52.155 52.0567C52.1202 52.0032 52.089 51.9477 52.0611 51.8885C52.0462 51.8579 52.033 51.8273 52.0199 51.7948C52.0121 51.7776 52.0279 51.8177 52.0211 51.7986L52.012 51.7738L51.9946 51.7222C51.9724 51.6534 51.9049 51.5999 51.8353 51.6247C51.7721 51.6476 51.721 51.7222 51.7447 51.7967Z" fill="#EACCAD"/>
<path d="M47.5264 56.4985C47.6932 56.4985 47.6936 56.2176 47.5264 56.2176C47.3599 56.2176 47.3595 56.4985 47.5264 56.4985Z" fill="#EACCAD"/>
<path d="M47.5786 56.5596C47.6825 56.6954 47.8187 56.7928 47.9687 56.8559C47.998 56.8693 48.0425 56.8578 48.0685 56.8425C48.0955 56.8253 48.1211 56.7928 48.1282 56.7584C48.1356 56.7221 48.134 56.682 48.1151 56.6514L48.0948 56.6227C48.0785 56.6055 48.0595 56.5921 48.0376 56.5864L48.0174 56.5768L48.0483 56.5921C47.9828 56.5616 47.9213 56.5214 47.865 56.4755L47.8911 56.4966C47.8438 56.4564 47.8005 56.4106 47.762 56.3609C47.7418 56.3341 47.7005 56.3207 47.6703 56.3207C47.6385 56.3207 47.6005 56.336 47.5786 56.3609C47.556 56.3876 47.5392 56.422 47.5406 56.4603C47.5424 56.5004 47.5556 56.5291 47.5786 56.5596Z" fill="#EACCAD"/>
<path d="M53.8841 59.9699C54.1144 60.2203 54.395 60.4095 54.7029 60.528C54.7668 60.5528 54.8474 60.4993 54.8622 60.4286C54.8788 60.3502 54.8403 60.2833 54.7718 60.2566C54.7375 60.2432 54.7036 60.2298 54.67 60.2145C54.6483 60.205 54.6971 60.2279 54.6598 60.2107L54.6365 60.1992L54.59 60.1744C54.5229 60.14 54.4575 60.0999 54.3944 60.0578C54.3639 60.0368 54.3337 60.0138 54.3042 59.9909L54.2628 59.9584L54.2584 59.9565L54.2335 59.9336C54.1752 59.8839 54.1201 59.8284 54.0674 59.7711C54.0196 59.7195 53.9314 59.7157 53.8841 59.7711C53.8366 59.8265 53.8332 59.9144 53.8841 59.9699Z" fill="#EACCAD"/>
<path d="M52.5638 57.1126C52.7747 57.2426 52.9857 57.3744 53.1968 57.5044C53.2556 57.5407 53.3411 57.5216 53.374 57.4528C53.4067 57.3878 53.3904 57.2999 53.3275 57.2617C53.1166 57.1317 52.9057 57.0017 52.6945 56.8718C52.6357 56.8354 52.5502 56.8545 52.5174 56.9214C52.4848 56.9883 52.5009 57.0744 52.5638 57.1126Z" fill="#EACCAD"/>
<path d="M53.9334 55.7303C54.0905 55.8698 54.2473 56.0113 54.4044 56.1508C54.4314 56.1757 54.4595 56.1929 54.4961 56.1929C54.5277 56.1929 54.5659 56.1776 54.5876 56.1508C54.6314 56.0992 54.6434 56.0036 54.5876 55.954C54.4305 55.8125 54.2737 55.6711 54.1168 55.5315C54.0896 55.5067 54.0615 55.4895 54.0251 55.4895C53.9933 55.4895 53.9553 55.5048 53.9334 55.5315C53.8896 55.5831 53.8778 55.6787 53.9334 55.7303Z" fill="#EACCAD"/>
<path d="M56.2474 58.8058C56.4814 58.9912 56.7595 59.1154 57.0466 59.1613C57.1132 59.1709 57.1891 59.1422 57.2059 59.0619C57.2199 58.9969 57.187 58.9014 57.1155 58.8899C56.8349 58.8459 56.6055 58.7446 56.3783 58.565C56.3233 58.521 56.2313 58.5516 56.2009 58.6147C56.1652 58.6873 56.1889 58.7599 56.2474 58.8058Z" fill="#EACCAD"/>
<path d="M58.0941 61.407C58.3015 61.4376 58.5089 61.4701 58.7163 61.5006C58.7523 61.5064 58.7834 61.5064 58.8161 61.4854C58.843 61.4701 58.8688 61.4357 58.8758 61.4032C58.8896 61.3363 58.8571 61.2407 58.7852 61.2292C58.5778 61.1987 58.3704 61.1681 58.163 61.1375C58.127 61.1318 58.096 61.1298 58.0632 61.1509C58.0363 61.1681 58.0107 61.2006 58.0037 61.235C57.9897 61.3 58.0222 61.3974 58.0941 61.407Z" fill="#EACCAD"/>
<path d="M41.3904 33.7135C41.1711 33.7193 40.9576 33.8511 40.8425 34.0518C40.7274 34.2544 40.7143 34.5201 40.809 34.7342C40.863 34.8565 40.9563 34.9655 41.077 35.0018C41.198 35.0381 41.3451 34.9865 41.3987 34.8623C41.445 34.7571 41.4146 34.631 41.4312 34.5144C41.4467 34.4054 41.5063 34.3041 41.5911 34.243C41.6826 34.1761 41.8112 34.1436 41.8447 34.0289C41.8776 33.9181 41.7847 33.8015 41.6797 33.7747C41.5746 33.7479 41.4656 33.7843 41.3632 33.8206L41.3904 33.7135Z" fill="white"/>
</svg>
