<svg width="437" height="149" viewBox="0 0 437 149" fill="none" xmlns="http://www.w3.org/2000/svg">
<rect width="343" height="120" rx="20" fill="white"/>
<path d="M33.9092 26.1162C34.3657 26.1162 34.6562 25.8174 34.6562 25.3442V20.812H39.3794C39.7944 20.812 40.085 20.5464 40.085 20.1479C40.085 19.7495 39.7944 19.4839 39.3794 19.4839H34.6562V15.3667H39.8442C40.2676 15.3667 40.5581 15.0928 40.5581 14.6943C40.5581 14.2959 40.2676 14.022 39.8442 14.022H33.9092C33.4526 14.022 33.1621 14.3208 33.1621 14.7939V25.3442C33.1621 25.8174 33.4526 26.1162 33.9092 26.1162ZM42.7163 15.9146C43.2144 15.9146 43.6211 15.5078 43.6211 15.0181C43.6211 14.52 43.2144 14.1216 42.7163 14.1216C42.2266 14.1216 41.8198 14.52 41.8198 15.0181C41.8198 15.5078 42.2266 15.9146 42.7163 15.9146ZM42.7163 26.1494C43.1396 26.1494 43.4385 25.834 43.4385 25.3774V17.9897C43.4385 17.5332 43.1396 17.2178 42.7163 17.2178C42.293 17.2178 41.9941 17.5332 41.9941 17.9897V25.3774C41.9941 25.834 42.293 26.1494 42.7163 26.1494ZM46.1113 26.1494C46.5347 26.1494 46.8335 25.834 46.8335 25.3774V20.6377C46.8335 19.5337 47.3896 18.5957 48.6929 18.5957C49.0083 18.5957 49.2324 18.5376 49.3818 18.4131C49.5312 18.2969 49.606 18.1309 49.606 17.9067C49.606 17.7075 49.5479 17.5415 49.4233 17.4253C49.2822 17.2925 49.0581 17.2178 48.7427 17.2178C47.8794 17.2178 47.0327 17.8818 46.7837 18.7783H46.7505V17.9482C46.7505 17.5166 46.4683 17.2178 46.0698 17.2178C45.6714 17.2178 45.3892 17.5166 45.3892 17.9482V25.3774C45.3892 25.834 45.688 26.1494 46.1113 26.1494ZM53.6318 26.1494C55.6821 26.1494 57.0684 25.1118 57.0684 23.5679C57.0684 22.2979 56.4043 21.667 54.603 21.2271L53.3164 20.9116C52.3701 20.6792 51.9053 20.2642 51.9053 19.6665C51.9053 18.9277 52.6274 18.4048 53.665 18.4048C54.5449 18.4048 55.1011 18.7202 55.4746 19.4424C55.6323 19.7412 55.8315 19.8325 56.1138 19.8325C56.4624 19.8325 56.6782 19.6084 56.6782 19.2681C56.6782 19.2017 56.6699 19.1353 56.6533 19.0522C56.4292 18.0146 55.1675 17.2178 53.748 17.2178C51.7974 17.2178 50.4775 18.2388 50.4775 19.7412C50.4775 20.9531 51.2827 21.7417 52.9512 22.1567L54.271 22.4888C55.2422 22.7295 55.5991 23.0615 55.5991 23.6841C55.5991 24.4893 54.8521 24.9707 53.748 24.9707C52.644 24.9707 52.1294 24.6304 51.6978 23.875C51.5317 23.5762 51.3242 23.4434 51.0669 23.4434C50.6934 23.4434 50.4111 23.6592 50.4111 24.041C50.4111 24.1489 50.4277 24.2568 50.4775 24.3813C50.8926 25.4604 52.0962 26.1494 53.6318 26.1494ZM59.019 24.0078C59.019 25.3857 59.7163 26.0664 61.1108 26.0664H61.2021C62.0073 26.0664 62.2563 25.834 62.2563 25.394C62.2563 25.0537 62.0405 24.8628 61.5674 24.8296L61.4429 24.8213C60.7207 24.7715 60.4634 24.4229 60.4634 23.6924V18.5542H61.5757C61.9907 18.5542 62.2231 18.3384 62.2231 17.9565C62.2231 17.583 61.9907 17.3672 61.5757 17.3672H60.4634V15.8896C60.4634 15.4331 60.1646 15.1177 59.7412 15.1177C59.3179 15.1177 59.019 15.4331 59.019 15.8896V17.3672H58.2969C57.8818 17.3672 57.6494 17.583 57.6494 17.9565C57.6494 18.3384 57.8818 18.5542 58.2969 18.5542H59.019V24.0078ZM64.8794 24.0742C64.4893 24.0742 64.2568 24.2485 64.1655 24.7051L63.5762 27.7847C63.5679 27.8345 63.5513 27.9175 63.5513 28.042C63.5513 28.374 63.8086 28.5649 64.1406 28.5649C64.4893 28.5649 64.6802 28.3989 64.7715 28.042L65.5352 25.1865C65.585 25.0039 65.6016 24.8794 65.6016 24.73C65.6016 24.3232 65.3027 24.0742 64.8794 24.0742ZM71.5034 29.229C72.9312 29.229 73.6367 28.5898 74.3838 26.606L77.5713 18.2637C77.6211 18.1226 77.646 17.9897 77.646 17.8818C77.646 17.4917 77.3555 17.2178 76.9404 17.2178C76.5835 17.2178 76.3926 17.3672 76.2598 17.749L73.8691 24.5557H73.8442L71.4619 17.749C71.3291 17.3672 71.1133 17.2178 70.7729 17.2178C70.3579 17.2178 70.0508 17.4834 70.0508 17.8818C70.0508 17.9897 70.0757 18.1226 70.1255 18.2637L73.0972 26.0083L72.8979 26.6143C72.5576 27.6602 72.0347 27.9922 71.4868 27.9922C71.2627 27.9922 71.2046 27.9839 70.9971 27.9839C70.6318 27.9839 70.416 28.1997 70.416 28.5151C70.416 28.9717 70.8062 29.229 71.5034 29.229ZM82.2529 26.1494C84.6353 26.1494 86.2456 24.4312 86.2456 21.6836C86.2456 18.9277 84.6353 17.2178 82.2529 17.2178C79.8623 17.2178 78.252 18.9277 78.252 21.6836C78.252 24.4312 79.8623 26.1494 82.2529 26.1494ZM82.2529 24.8794C80.7256 24.8794 79.7212 23.7173 79.7212 21.6836C79.7212 19.6499 80.7256 18.4878 82.2529 18.4878C83.7803 18.4878 84.7764 19.6499 84.7764 21.6836C84.7764 23.7173 83.7803 24.8794 82.2529 24.8794ZM90.6533 26.1494C91.9814 26.1494 92.8779 25.5933 93.3926 24.5972H93.4258V25.4189C93.4258 25.834 93.6997 26.1494 94.1147 26.1494C94.5298 26.1494 94.7954 25.834 94.7954 25.4189V17.9897C94.7954 17.5332 94.4966 17.2178 94.0732 17.2178C93.6499 17.2178 93.3511 17.5332 93.3511 17.9897V22.439C93.3511 23.9082 92.5044 24.8711 91.1016 24.8711C89.7651 24.8711 89.1094 24.1157 89.1094 22.7129V17.9897C89.1094 17.5332 88.8105 17.2178 88.3872 17.2178C87.9639 17.2178 87.665 17.5332 87.665 17.9897V22.9702C87.665 24.9292 88.769 26.1494 90.6533 26.1494ZM102.59 26.1494C103.046 26.1494 103.362 25.9087 103.495 25.4521L105.279 19.3179H105.312L107.105 25.4521C107.247 25.9419 107.521 26.1494 108.002 26.1494C108.45 26.1494 108.749 25.917 108.882 25.4521L110.99 18.2139C111.032 18.0728 111.048 17.9482 111.048 17.8403C111.048 17.4585 110.774 17.2178 110.343 17.2178C109.986 17.2178 109.795 17.3838 109.687 17.8071L107.985 24.3896H107.952L106.126 17.8569C106.01 17.4336 105.736 17.2178 105.304 17.2178C104.864 17.2178 104.574 17.4419 104.458 17.8652L102.648 24.3896H102.615L100.913 17.8071C100.805 17.3838 100.614 17.2178 100.257 17.2178C99.8257 17.2178 99.5518 17.4585 99.5518 17.8403C99.5518 17.9482 99.5684 18.0728 99.6099 18.2139L101.718 25.4521C101.859 25.9336 102.133 26.1494 102.59 26.1494ZM113.124 15.9146C113.622 15.9146 114.028 15.5078 114.028 15.0181C114.028 14.52 113.622 14.1216 113.124 14.1216C112.634 14.1216 112.227 14.52 112.227 15.0181C112.227 15.5078 112.634 15.9146 113.124 15.9146ZM113.124 26.1494C113.547 26.1494 113.846 25.834 113.846 25.3774V17.9897C113.846 17.5332 113.547 17.2178 113.124 17.2178C112.7 17.2178 112.401 17.5332 112.401 17.9897V25.3774C112.401 25.834 112.7 26.1494 113.124 26.1494ZM116.593 26.1494C117.017 26.1494 117.315 25.834 117.315 25.3774V14.6445C117.315 14.188 117.017 13.8726 116.593 13.8726C116.17 13.8726 115.871 14.188 115.871 14.6445V25.3774C115.871 25.834 116.17 26.1494 116.593 26.1494ZM120.063 26.1494C120.486 26.1494 120.785 25.834 120.785 25.3774V14.6445C120.785 14.188 120.486 13.8726 120.063 13.8726C119.64 13.8726 119.341 14.188 119.341 14.6445V25.3774C119.341 25.834 119.64 26.1494 120.063 26.1494ZM126.969 26.1494C127.384 26.1494 127.675 25.8589 127.675 25.4438V24.5391H127.708C128.272 25.5352 129.26 26.1494 130.522 26.1494C132.73 26.1494 134.191 24.3979 134.191 21.6836C134.191 18.9775 132.722 17.2178 130.547 17.2178C129.327 17.2178 128.322 17.8237 127.774 18.8115H127.741V14.6445C127.741 14.188 127.442 13.8726 127.019 13.8726C126.596 13.8726 126.297 14.188 126.297 14.6445V25.4438C126.297 25.8672 126.562 26.1494 126.969 26.1494ZM130.24 24.8794C128.779 24.8794 127.733 23.6094 127.733 21.6836C127.733 19.7661 128.779 18.4878 130.24 18.4878C131.767 18.4878 132.713 19.7246 132.713 21.6836C132.713 23.6592 131.767 24.8794 130.24 24.8794ZM139.271 26.1494C140.848 26.1494 142.06 25.4854 142.616 24.3149C142.683 24.1572 142.724 24.0078 142.724 23.8916C142.724 23.5098 142.467 23.2607 142.085 23.2607C141.861 23.2607 141.695 23.3438 141.545 23.5513C140.873 24.5308 140.242 24.896 139.213 24.896C137.669 24.896 136.714 23.8169 136.714 22.0737H142.11C142.608 22.0737 142.907 21.7583 142.907 21.2354C142.907 18.8696 141.354 17.2178 139.146 17.2178C136.764 17.2178 135.229 18.9941 135.229 21.7168C135.229 24.5059 136.723 26.1494 139.271 26.1494ZM136.723 20.9448C136.814 19.459 137.777 18.4712 139.122 18.4712C140.458 18.4712 141.379 19.4507 141.413 20.9448H136.723ZM151.34 29.2539C153.797 29.2788 155.325 27.8843 155.325 25.8257V17.9648C155.325 17.5166 155.018 17.2178 154.603 17.2178C154.188 17.2178 153.88 17.5166 153.88 17.9648V18.7866H153.855C153.283 17.8154 152.328 17.2178 151.108 17.2178C148.875 17.2178 147.431 18.9443 147.431 21.6504C147.431 24.3315 148.875 26.0664 151.075 26.0664C152.287 26.0664 153.316 25.4521 153.847 24.5142H153.88V25.8755C153.88 27.1621 152.942 28.0503 151.398 28.0254C150.519 28.0088 149.913 27.6934 149.174 26.8799C148.95 26.6309 148.809 26.5479 148.568 26.5479C148.186 26.5479 147.92 26.8052 147.92 27.1704C147.92 27.3613 147.97 27.5273 148.086 27.71C148.692 28.6646 149.896 29.2373 151.34 29.2539ZM151.365 24.7964C149.879 24.7964 148.908 23.5845 148.908 21.6504C148.908 19.7163 149.879 18.4878 151.365 18.4878C152.868 18.4878 153.88 19.7495 153.88 21.6504C153.88 23.5513 152.868 24.7964 151.365 24.7964ZM157.998 15.9146C158.496 15.9146 158.902 15.5078 158.902 15.0181C158.902 14.52 158.496 14.1216 157.998 14.1216C157.508 14.1216 157.101 14.52 157.101 15.0181C157.101 15.5078 157.508 15.9146 157.998 15.9146ZM157.998 26.1494C158.421 26.1494 158.72 25.834 158.72 25.3774V17.9897C158.72 17.5332 158.421 17.2178 157.998 17.2178C157.574 17.2178 157.275 17.5332 157.275 17.9897V25.3774C157.275 25.834 157.574 26.1494 157.998 26.1494ZM163.833 26.1494C164.298 26.1494 164.605 25.917 164.796 25.4189L167.535 18.2554C167.585 18.1309 167.61 18.0063 167.61 17.8818C167.61 17.4834 167.328 17.2178 166.896 17.2178C166.581 17.2178 166.365 17.3921 166.232 17.7656L163.858 24.4644H163.825L161.459 17.7656C161.326 17.3921 161.11 17.2178 160.787 17.2178C160.355 17.2178 160.064 17.4834 160.064 17.8818C160.064 18.0063 160.089 18.1309 160.139 18.2554L162.887 25.4189C163.094 25.9419 163.36 26.1494 163.833 26.1494ZM172.258 26.1494C173.835 26.1494 175.047 25.4854 175.604 24.3149C175.67 24.1572 175.711 24.0078 175.711 23.8916C175.711 23.5098 175.454 23.2607 175.072 23.2607C174.848 23.2607 174.682 23.3438 174.533 23.5513C173.86 24.5308 173.229 24.896 172.2 24.896C170.656 24.896 169.702 23.8169 169.702 22.0737H175.097C175.595 22.0737 175.894 21.7583 175.894 21.2354C175.894 18.8696 174.342 17.2178 172.134 17.2178C169.751 17.2178 168.216 18.9941 168.216 21.7168C168.216 24.5059 169.71 26.1494 172.258 26.1494ZM169.71 20.9448C169.801 19.459 170.764 18.4712 172.109 18.4712C173.445 18.4712 174.367 19.4507 174.4 20.9448H169.71ZM178.077 26.1494C178.5 26.1494 178.799 25.834 178.799 25.3774V20.9199C178.799 19.459 179.688 18.4961 181.049 18.4961C182.377 18.4961 183.033 19.2598 183.033 20.6543V25.3774C183.033 25.834 183.332 26.1494 183.755 26.1494C184.178 26.1494 184.477 25.834 184.477 25.3774V20.397C184.477 18.438 183.381 17.2178 181.489 17.2178C180.152 17.2178 179.231 17.8154 178.75 18.7451H178.716V17.9482C178.716 17.5166 178.434 17.2178 178.036 17.2178C177.637 17.2178 177.355 17.5166 177.355 17.9482V25.3774C177.355 25.834 177.654 26.1494 178.077 26.1494ZM192.321 26.1494C193.483 26.1494 194.587 25.502 195.102 24.5142H195.135V25.4189C195.135 25.8506 195.417 26.1494 195.824 26.1494C196.223 26.1494 196.505 25.8506 196.505 25.4189V20.0317C196.505 18.3135 195.227 17.2178 193.201 17.2178C191.798 17.2178 190.537 17.8403 190.047 18.7866C189.931 18.9941 189.873 19.2017 189.873 19.3843C189.873 19.7744 190.138 20.0317 190.512 20.0317C190.786 20.0317 190.977 19.9238 191.109 19.6831C191.591 18.8281 192.23 18.4878 193.168 18.4878C194.363 18.4878 195.061 19.1187 195.061 20.1729V20.895L192.579 21.0361C190.586 21.1523 189.449 22.082 189.449 23.5596C189.449 25.1118 190.603 26.1494 192.321 26.1494ZM192.645 24.9209C191.607 24.9209 190.918 24.3813 190.918 23.5596C190.918 22.7461 191.583 22.2314 192.745 22.1567L195.061 22.0156V22.7212C195.061 23.9663 194.006 24.9209 192.645 24.9209ZM199.062 26.1494C199.485 26.1494 199.784 25.834 199.784 25.3774V20.9199C199.784 19.459 200.672 18.4961 202.033 18.4961C203.361 18.4961 204.017 19.2598 204.017 20.6543V25.3774C204.017 25.834 204.316 26.1494 204.739 26.1494C205.163 26.1494 205.461 25.834 205.461 25.3774V20.397C205.461 18.438 204.366 17.2178 202.473 17.2178C201.137 17.2178 200.215 17.8154 199.734 18.7451H199.701V17.9482C199.701 17.5166 199.418 17.2178 199.02 17.2178C198.622 17.2178 198.339 17.5166 198.339 17.9482V25.3774C198.339 25.834 198.638 26.1494 199.062 26.1494ZM214.368 26.1494C216.75 26.1494 218.361 24.4312 218.361 21.6836C218.361 18.9277 216.75 17.2178 214.368 17.2178C211.978 17.2178 210.367 18.9277 210.367 21.6836C210.367 24.4312 211.978 26.1494 214.368 26.1494ZM214.368 24.8794C212.841 24.8794 211.836 23.7173 211.836 21.6836C211.836 19.6499 212.841 18.4878 214.368 18.4878C215.896 18.4878 216.892 19.6499 216.892 21.6836C216.892 23.7173 215.896 24.8794 214.368 24.8794ZM220.569 26.1494C220.984 26.1494 221.274 25.8589 221.274 25.4438V24.5391H221.308C221.872 25.5352 222.86 26.1494 224.122 26.1494C226.33 26.1494 227.791 24.3979 227.791 21.6836C227.791 18.9775 226.321 17.2178 224.146 17.2178C222.926 17.2178 221.922 17.8237 221.374 18.8115H221.341V14.6445C221.341 14.188 221.042 13.8726 220.619 13.8726C220.195 13.8726 219.896 14.188 219.896 14.6445V25.4438C219.896 25.8672 220.162 26.1494 220.569 26.1494ZM223.839 24.8794C222.378 24.8794 221.333 23.6094 221.333 21.6836C221.333 19.7661 222.378 18.4878 223.839 18.4878C225.367 18.4878 226.313 19.7246 226.313 21.6836C226.313 23.6592 225.367 24.8794 223.839 24.8794ZM230.048 15.9146C230.546 15.9146 230.953 15.5078 230.953 15.0181C230.953 14.52 230.546 14.1216 230.048 14.1216C229.559 14.1216 229.152 14.52 229.152 15.0181C229.152 15.5078 229.559 15.9146 230.048 15.9146ZM230.048 17.2178C229.625 17.2178 229.326 17.5332 229.326 17.9897V26.4897C229.326 27.2534 229.085 27.627 228.413 27.7266L228.355 27.7349C227.898 27.8013 227.708 28.0254 227.708 28.3408C227.708 28.7144 228.031 28.9634 228.562 28.9634C229.957 28.9634 230.771 28.1748 230.771 26.6309V17.9897C230.771 17.5332 230.472 17.2178 230.048 17.2178ZM236.34 26.1494C237.917 26.1494 239.129 25.4854 239.686 24.3149C239.752 24.1572 239.793 24.0078 239.793 23.8916C239.793 23.5098 239.536 23.2607 239.154 23.2607C238.93 23.2607 238.764 23.3438 238.615 23.5513C237.942 24.5308 237.312 24.896 236.282 24.896C234.738 24.896 233.784 23.8169 233.784 22.0737H239.179C239.677 22.0737 239.976 21.7583 239.976 21.2354C239.976 18.8696 238.424 17.2178 236.216 17.2178C233.833 17.2178 232.298 18.9941 232.298 21.7168C232.298 24.5059 233.792 26.1494 236.34 26.1494ZM233.792 20.9448C233.883 19.459 234.846 18.4712 236.191 18.4712C237.527 18.4712 238.449 19.4507 238.482 20.9448H233.792ZM244.998 26.1494C246.567 26.1494 247.937 25.2861 248.352 24.0908C248.393 23.958 248.418 23.8335 248.418 23.7256C248.418 23.3521 248.169 23.0947 247.795 23.0947C247.48 23.0947 247.322 23.2109 247.115 23.6011C246.667 24.4312 246.036 24.8794 244.998 24.8794C243.512 24.8794 242.483 23.6675 242.483 21.6836C242.483 19.7495 243.496 18.4878 244.998 18.4878C245.994 18.4878 246.65 18.9111 247.106 19.7661C247.306 20.1396 247.48 20.2725 247.795 20.2725C248.169 20.2725 248.41 20.0234 248.41 19.6416C248.41 19.5503 248.393 19.4424 248.36 19.3345C248.028 18.1392 246.608 17.2178 244.981 17.2178C242.591 17.2178 241.014 18.9858 241.014 21.7002C241.014 24.4312 242.607 26.1494 244.998 26.1494ZM250.418 24.0078C250.418 25.3857 251.116 26.0664 252.51 26.0664H252.602C253.407 26.0664 253.656 25.834 253.656 25.394C253.656 25.0537 253.44 24.8628 252.967 24.8296L252.842 24.8213C252.12 24.7715 251.863 24.4229 251.863 23.6924V18.5542H252.975C253.39 18.5542 253.623 18.3384 253.623 17.9565C253.623 17.583 253.39 17.3672 252.975 17.3672H251.863V15.8896C251.863 15.4331 251.564 15.1177 251.141 15.1177C250.717 15.1177 250.418 15.4331 250.418 15.8896V17.3672H249.696C249.281 17.3672 249.049 17.583 249.049 17.9565C249.049 18.3384 249.281 18.5542 249.696 18.5542H250.418V24.0078ZM259.035 24.0078C259.035 25.3857 259.732 26.0664 261.126 26.0664H261.218C262.023 26.0664 262.272 25.834 262.272 25.394C262.272 25.0537 262.056 24.8628 261.583 24.8296L261.458 24.8213C260.736 24.7715 260.479 24.4229 260.479 23.6924V18.5542H261.591C262.006 18.5542 262.239 18.3384 262.239 17.9565C262.239 17.583 262.006 17.3672 261.591 17.3672H260.479V15.8896C260.479 15.4331 260.18 15.1177 259.757 15.1177C259.333 15.1177 259.035 15.4331 259.035 15.8896V17.3672H258.312C257.897 17.3672 257.665 17.583 257.665 17.9565C257.665 18.3384 257.897 18.5542 258.312 18.5542H259.035V24.0078ZM267.028 26.1494C269.411 26.1494 271.021 24.4312 271.021 21.6836C271.021 18.9277 269.411 17.2178 267.028 17.2178C264.638 17.2178 263.027 18.9277 263.027 21.6836C263.027 24.4312 264.638 26.1494 267.028 26.1494ZM267.028 24.8794C265.501 24.8794 264.497 23.7173 264.497 21.6836C264.497 19.6499 265.501 18.4878 267.028 18.4878C268.556 18.4878 269.552 19.6499 269.552 21.6836C269.552 23.7173 268.556 24.8794 267.028 24.8794ZM277.155 26.1494C277.595 26.1494 277.877 25.8506 277.877 25.3857V18.5542H279.147C279.521 18.5542 279.762 18.3384 279.762 17.9648C279.762 17.6079 279.521 17.3672 279.147 17.3672H277.869V16.4541C277.869 15.5659 278.201 15.1841 278.965 15.1841C279.147 15.1841 279.289 15.1675 279.413 15.1343C279.679 15.0596 279.803 14.8936 279.803 14.6279C279.803 14.2046 279.396 13.9556 278.633 13.9556C277.222 13.9556 276.433 14.7524 276.433 16.4043V17.3672H275.719C275.346 17.3672 275.105 17.6079 275.105 17.9648C275.105 18.3384 275.346 18.5542 275.719 18.5542H276.433V25.3857C276.433 25.8506 276.715 26.1494 277.155 26.1494ZM281.928 15.9146C282.426 15.9146 282.833 15.5078 282.833 15.0181C282.833 14.52 282.426 14.1216 281.928 14.1216C281.438 14.1216 281.032 14.52 281.032 15.0181C281.032 15.5078 281.438 15.9146 281.928 15.9146ZM281.928 26.1494C282.352 26.1494 282.65 25.834 282.65 25.3774V17.9897C282.65 17.5332 282.352 17.2178 281.928 17.2178C281.505 17.2178 281.206 17.5332 281.206 17.9897V25.3774C281.206 25.834 281.505 26.1494 281.928 26.1494ZM285.323 26.1494C285.747 26.1494 286.045 25.834 286.045 25.3774V20.9199C286.045 19.459 286.934 18.4961 288.295 18.4961C289.623 18.4961 290.279 19.2598 290.279 20.6543V25.3774C290.279 25.834 290.578 26.1494 291.001 26.1494C291.424 26.1494 291.723 25.834 291.723 25.3774V20.397C291.723 18.438 290.627 17.2178 288.735 17.2178C287.398 17.2178 286.477 17.8154 285.996 18.7451H285.962V17.9482C285.962 17.5166 285.68 17.2178 285.282 17.2178C284.883 17.2178 284.601 17.5166 284.601 17.9482V25.3774C284.601 25.834 284.9 26.1494 285.323 26.1494ZM296.836 26.1494C298.189 26.1494 299.086 25.4854 299.559 24.4561H299.584V25.4438C299.584 25.8672 299.916 26.1494 300.323 26.1494C300.738 26.1494 301.028 25.8589 301.028 25.4438V14.6445C301.028 14.188 300.729 13.8726 300.306 13.8726C299.883 13.8726 299.584 14.188 299.584 14.6445V18.77H299.551C299.036 17.8237 298.04 17.2178 296.803 17.2178C294.628 17.2178 293.143 18.9775 293.143 21.6836C293.143 24.3896 294.637 26.1494 296.836 26.1494ZM297.11 24.8794C295.583 24.8794 294.62 23.6426 294.62 21.6836C294.62 19.7329 295.583 18.4878 297.11 18.4878C298.596 18.4878 299.592 19.7578 299.592 21.6836C299.592 23.6177 298.596 24.8794 297.11 24.8794ZM35.4531 46.1494C36.6152 46.1494 37.7192 45.502 38.2339 44.5142H38.2671V45.4189C38.2671 45.8506 38.5493 46.1494 38.9561 46.1494C39.3545 46.1494 39.6367 45.8506 39.6367 45.4189V40.0317C39.6367 38.3135 38.3584 37.2178 36.333 37.2178C34.9302 37.2178 33.6685 37.8403 33.1787 38.7866C33.0625 38.9941 33.0044 39.2017 33.0044 39.3843C33.0044 39.7744 33.27 40.0317 33.6436 40.0317C33.9175 40.0317 34.1084 39.9238 34.2412 39.6831C34.7227 38.8281 35.3618 38.4878 36.2998 38.4878C37.4951 38.4878 38.1924 39.1187 38.1924 40.1729V40.895L35.7104 41.0361C33.7183 41.1523 32.5811 42.082 32.5811 43.5596C32.5811 45.1118 33.7349 46.1494 35.4531 46.1494ZM35.7769 44.9209C34.7393 44.9209 34.0503 44.3813 34.0503 43.5596C34.0503 42.7461 34.7144 42.2314 35.8765 42.1567L38.1924 42.0156V42.7212C38.1924 43.9663 37.1382 44.9209 35.7769 44.9209ZM42.1934 46.1494C42.6167 46.1494 42.9155 45.834 42.9155 45.3774V40.6377C42.9155 39.5337 43.4717 38.5957 44.7749 38.5957C45.0903 38.5957 45.3145 38.5376 45.4639 38.4131C45.6133 38.2969 45.688 38.1309 45.688 37.9067C45.688 37.7075 45.6299 37.5415 45.5054 37.4253C45.3643 37.2925 45.1401 37.2178 44.8247 37.2178C43.9614 37.2178 43.1147 37.8818 42.8657 38.7783H42.8325V37.9482C42.8325 37.5166 42.5503 37.2178 42.1519 37.2178C41.7534 37.2178 41.4712 37.5166 41.4712 37.9482V45.3774C41.4712 45.834 41.77 46.1494 42.1934 46.1494ZM49.8799 46.1494C52.2622 46.1494 53.8726 44.4312 53.8726 41.6836C53.8726 38.9277 52.2622 37.2178 49.8799 37.2178C47.4893 37.2178 45.8789 38.9277 45.8789 41.6836C45.8789 44.4312 47.4893 46.1494 49.8799 46.1494ZM49.8799 44.8794C48.3525 44.8794 47.3481 43.7173 47.3481 41.6836C47.3481 39.6499 48.3525 38.4878 49.8799 38.4878C51.4072 38.4878 52.4033 39.6499 52.4033 41.6836C52.4033 43.7173 51.4072 44.8794 49.8799 44.8794ZM58.2803 46.1494C59.6084 46.1494 60.5049 45.5933 61.0195 44.5972H61.0527V45.4189C61.0527 45.834 61.3267 46.1494 61.7417 46.1494C62.1567 46.1494 62.4224 45.834 62.4224 45.4189V37.9897C62.4224 37.5332 62.1235 37.2178 61.7002 37.2178C61.2769 37.2178 60.978 37.5332 60.978 37.9897V42.439C60.978 43.9082 60.1313 44.8711 58.7285 44.8711C57.3921 44.8711 56.7363 44.1157 56.7363 42.7129V37.9897C56.7363 37.5332 56.4375 37.2178 56.0142 37.2178C55.5908 37.2178 55.292 37.5332 55.292 37.9897V42.9702C55.292 44.9292 56.396 46.1494 58.2803 46.1494ZM65.0205 46.1494C65.4438 46.1494 65.7427 45.834 65.7427 45.3774V40.9199C65.7427 39.459 66.6309 38.4961 67.9922 38.4961C69.3203 38.4961 69.9761 39.2598 69.9761 40.6543V45.3774C69.9761 45.834 70.2749 46.1494 70.6982 46.1494C71.1216 46.1494 71.4204 45.834 71.4204 45.3774V40.397C71.4204 38.438 70.3247 37.2178 68.4321 37.2178C67.0957 37.2178 66.1743 37.8154 65.6929 38.7451H65.6597V37.9482C65.6597 37.5166 65.3774 37.2178 64.979 37.2178C64.5806 37.2178 64.2983 37.5166 64.2983 37.9482V45.3774C64.2983 45.834 64.5972 46.1494 65.0205 46.1494ZM76.5337 46.1494C77.8867 46.1494 78.7832 45.4854 79.2563 44.4561H79.2812V45.4438C79.2812 45.8672 79.6133 46.1494 80.02 46.1494C80.4351 46.1494 80.7256 45.8589 80.7256 45.4438V34.6445C80.7256 34.188 80.4268 33.8726 80.0034 33.8726C79.5801 33.8726 79.2812 34.188 79.2812 34.6445V38.77H79.248C78.7334 37.8237 77.7373 37.2178 76.5005 37.2178C74.3257 37.2178 72.8398 38.9775 72.8398 41.6836C72.8398 44.3896 74.334 46.1494 76.5337 46.1494ZM76.8076 44.8794C75.2803 44.8794 74.3174 43.6426 74.3174 41.6836C74.3174 39.7329 75.2803 38.4878 76.8076 38.4878C78.2935 38.4878 79.2896 39.7578 79.2896 41.6836C79.2896 43.6177 78.2935 44.8794 76.8076 44.8794ZM87.0093 49.229C88.437 49.229 89.1426 48.5898 89.8896 46.606L93.0771 38.2637C93.127 38.1226 93.1519 37.9897 93.1519 37.8818C93.1519 37.4917 92.8613 37.2178 92.4463 37.2178C92.0894 37.2178 91.8984 37.3672 91.7656 37.749L89.375 44.5557H89.3501L86.9678 37.749C86.835 37.3672 86.6191 37.2178 86.2788 37.2178C85.8638 37.2178 85.5566 37.4834 85.5566 37.8818C85.5566 37.9897 85.5815 38.1226 85.6313 38.2637L88.603 46.0083L88.4038 46.6143C88.0635 47.6602 87.5405 47.9922 86.9927 47.9922C86.7686 47.9922 86.7104 47.9839 86.5029 47.9839C86.1377 47.9839 85.9219 48.1997 85.9219 48.5151C85.9219 48.9717 86.312 49.229 87.0093 49.229ZM97.7588 46.1494C100.141 46.1494 101.751 44.4312 101.751 41.6836C101.751 38.9277 100.141 37.2178 97.7588 37.2178C95.3682 37.2178 93.7578 38.9277 93.7578 41.6836C93.7578 44.4312 95.3682 46.1494 97.7588 46.1494ZM97.7588 44.8794C96.2314 44.8794 95.2271 43.7173 95.2271 41.6836C95.2271 39.6499 96.2314 38.4878 97.7588 38.4878C99.2861 38.4878 100.282 39.6499 100.282 41.6836C100.282 43.7173 99.2861 44.8794 97.7588 44.8794ZM106.159 46.1494C107.487 46.1494 108.384 45.5933 108.898 44.5972H108.932V45.4189C108.932 45.834 109.206 46.1494 109.621 46.1494C110.036 46.1494 110.301 45.834 110.301 45.4189V37.9897C110.301 37.5332 110.002 37.2178 109.579 37.2178C109.156 37.2178 108.857 37.5332 108.857 37.9897V42.439C108.857 43.9082 108.01 44.8711 106.607 44.8711C105.271 44.8711 104.615 44.1157 104.615 42.7129V37.9897C104.615 37.5332 104.316 37.2178 103.893 37.2178C103.47 37.2178 103.171 37.5332 103.171 37.9897V42.9702C103.171 44.9292 104.275 46.1494 106.159 46.1494ZM113.397 46.083C113.929 46.083 114.344 45.668 114.344 45.1367C114.344 44.6055 113.929 44.1904 113.397 44.1904C112.866 44.1904 112.451 44.6055 112.451 45.1367C112.451 45.668 112.866 46.083 113.397 46.083ZM124.13 46.1992C127.102 46.1992 128.887 44.3564 128.887 41.7998V34.6777C128.887 34.2046 128.596 33.9058 128.14 33.9058C127.683 33.9058 127.393 34.2046 127.393 34.6777V41.7002C127.393 43.5098 126.206 44.8213 124.13 44.8213C122.055 44.8213 120.868 43.5098 120.868 41.7002V34.6777C120.868 34.2046 120.578 33.9058 120.121 33.9058C119.665 33.9058 119.374 34.2046 119.374 34.6777V41.7998C119.374 44.3564 121.159 46.1992 124.13 46.1992ZM133.983 46.1494C136.034 46.1494 137.42 45.1118 137.42 43.5679C137.42 42.2979 136.756 41.667 134.955 41.2271L133.668 40.9116C132.722 40.6792 132.257 40.2642 132.257 39.6665C132.257 38.9277 132.979 38.4048 134.017 38.4048C134.896 38.4048 135.453 38.7202 135.826 39.4424C135.984 39.7412 136.183 39.8325 136.465 39.8325C136.814 39.8325 137.03 39.6084 137.03 39.2681C137.03 39.2017 137.021 39.1353 137.005 39.0522C136.781 38.0146 135.519 37.2178 134.1 37.2178C132.149 37.2178 130.829 38.2388 130.829 39.7412C130.829 40.9531 131.634 41.7417 133.303 42.1567L134.623 42.4888C135.594 42.7295 135.951 43.0615 135.951 43.6841C135.951 44.4893 135.204 44.9707 134.1 44.9707C132.996 44.9707 132.481 44.6304 132.049 43.875C131.883 43.5762 131.676 43.4434 131.418 43.4434C131.045 43.4434 130.763 43.6592 130.763 44.041C130.763 44.1489 130.779 44.2568 130.829 44.3813C131.244 45.4604 132.448 46.1494 133.983 46.1494ZM142.525 46.1494C144.102 46.1494 145.314 45.4854 145.87 44.3149C145.937 44.1572 145.978 44.0078 145.978 43.8916C145.978 43.5098 145.721 43.2607 145.339 43.2607C145.115 43.2607 144.949 43.3438 144.799 43.5513C144.127 44.5308 143.496 44.896 142.467 44.896C140.923 44.896 139.968 43.8169 139.968 42.0737H145.364C145.862 42.0737 146.161 41.7583 146.161 41.2354C146.161 38.8696 144.608 37.2178 142.4 37.2178C140.018 37.2178 138.482 38.9941 138.482 41.7168C138.482 44.5059 139.977 46.1494 142.525 46.1494ZM139.977 40.9448C140.068 39.459 141.031 38.4712 142.375 38.4712C143.712 38.4712 144.633 39.4507 144.667 40.9448H139.977ZM151.573 44.0078C151.573 45.3857 152.27 46.0664 153.665 46.0664H153.756C154.561 46.0664 154.81 45.834 154.81 45.394C154.81 45.0537 154.594 44.8628 154.121 44.8296L153.997 44.8213C153.274 44.7715 153.017 44.4229 153.017 43.6924V38.5542H154.129C154.544 38.5542 154.777 38.3384 154.777 37.9565C154.777 37.583 154.544 37.3672 154.129 37.3672H153.017V35.8896C153.017 35.4331 152.718 35.1177 152.295 35.1177C151.872 35.1177 151.573 35.4331 151.573 35.8896V37.3672H150.851C150.436 37.3672 150.203 37.583 150.203 37.9565C150.203 38.3384 150.436 38.5542 150.851 38.5542H151.573V44.0078ZM157.035 46.1494C157.458 46.1494 157.757 45.834 157.757 45.3774V40.9697C157.757 39.4756 158.645 38.4961 160.081 38.4961C161.434 38.4961 162.123 39.3179 162.123 40.6875V45.3774C162.123 45.834 162.422 46.1494 162.845 46.1494C163.269 46.1494 163.567 45.834 163.567 45.3774V40.4219C163.567 38.4961 162.422 37.2178 160.529 37.2178C159.218 37.2178 158.271 37.7822 157.79 38.7451H157.757V34.6279C157.757 34.1797 157.475 33.8726 157.035 33.8726C156.603 33.8726 156.312 34.1797 156.312 34.6279V45.3774C156.312 45.834 156.611 46.1494 157.035 46.1494ZM169.021 46.1494C170.598 46.1494 171.81 45.4854 172.366 44.3149C172.433 44.1572 172.474 44.0078 172.474 43.8916C172.474 43.5098 172.217 43.2607 171.835 43.2607C171.611 43.2607 171.445 43.3438 171.295 43.5513C170.623 44.5308 169.992 44.896 168.963 44.896C167.419 44.896 166.464 43.8169 166.464 42.0737H171.86C172.358 42.0737 172.657 41.7583 172.657 41.2354C172.657 38.8696 171.104 37.2178 168.896 37.2178C166.514 37.2178 164.979 38.9941 164.979 41.7168C164.979 44.5059 166.473 46.1494 169.021 46.1494ZM166.473 40.9448C166.564 39.459 167.527 38.4712 168.872 38.4712C170.208 38.4712 171.129 39.4507 171.163 40.9448H166.473ZM181.165 46.1494C182.734 46.1494 184.104 45.2861 184.519 44.0908C184.56 43.958 184.585 43.8335 184.585 43.7256C184.585 43.3521 184.336 43.0947 183.962 43.0947C183.647 43.0947 183.489 43.2109 183.282 43.6011C182.833 44.4312 182.203 44.8794 181.165 44.8794C179.679 44.8794 178.65 43.6675 178.65 41.6836C178.65 39.7495 179.663 38.4878 181.165 38.4878C182.161 38.4878 182.817 38.9111 183.273 39.7661C183.473 40.1396 183.647 40.2725 183.962 40.2725C184.336 40.2725 184.577 40.0234 184.577 39.6416C184.577 39.5503 184.56 39.4424 184.527 39.3345C184.195 38.1392 182.775 37.2178 181.148 37.2178C178.758 37.2178 177.181 38.9858 177.181 41.7002C177.181 44.4312 178.774 46.1494 181.165 46.1494ZM188.636 46.1494C189.798 46.1494 190.902 45.502 191.417 44.5142H191.45V45.4189C191.45 45.8506 191.732 46.1494 192.139 46.1494C192.537 46.1494 192.819 45.8506 192.819 45.4189V40.0317C192.819 38.3135 191.541 37.2178 189.516 37.2178C188.113 37.2178 186.851 37.8403 186.361 38.7866C186.245 38.9941 186.187 39.2017 186.187 39.3843C186.187 39.7744 186.453 40.0317 186.826 40.0317C187.1 40.0317 187.291 39.9238 187.424 39.6831C187.905 38.8281 188.544 38.4878 189.482 38.4878C190.678 38.4878 191.375 39.1187 191.375 40.1729V40.895L188.893 41.0361C186.901 41.1523 185.764 42.082 185.764 43.5596C185.764 45.1118 186.917 46.1494 188.636 46.1494ZM188.959 44.9209C187.922 44.9209 187.233 44.3813 187.233 43.5596C187.233 42.7461 187.897 42.2314 189.059 42.1567L191.375 42.0156V42.7212C191.375 43.9663 190.321 44.9209 188.959 44.9209ZM195.376 46.1494C195.816 46.1494 196.098 45.8174 196.098 45.3774V40.5879C196.098 39.3926 196.928 38.4961 198.074 38.4961C199.145 38.4961 199.842 39.1768 199.842 40.2144V45.3774C199.842 45.8174 200.124 46.1494 200.564 46.1494C201.004 46.1494 201.286 45.8174 201.286 45.3774V40.5132C201.286 39.3428 202.091 38.4961 203.237 38.4961C204.374 38.4961 205.03 39.1934 205.03 40.3721V45.3774C205.03 45.8174 205.312 46.1494 205.752 46.1494C206.192 46.1494 206.474 45.8174 206.474 45.3774V40.04C206.474 38.3301 205.37 37.2178 203.66 37.2178C202.448 37.2178 201.436 37.832 200.954 38.8613H200.921C200.547 37.8154 199.676 37.2178 198.497 37.2178C197.335 37.2178 196.455 37.832 196.048 38.7451H196.015V37.9482C196.015 37.5166 195.733 37.2178 195.334 37.2178C194.936 37.2178 194.654 37.5166 194.654 37.9482V45.3774C194.654 45.8174 194.936 46.1494 195.376 46.1494ZM211.936 46.1494C213.513 46.1494 214.725 45.4854 215.281 44.3149C215.348 44.1572 215.389 44.0078 215.389 43.8916C215.389 43.5098 215.132 43.2607 214.75 43.2607C214.526 43.2607 214.36 43.3438 214.21 43.5513C213.538 44.5308 212.907 44.896 211.878 44.896C210.334 44.896 209.379 43.8169 209.379 42.0737H214.775C215.273 42.0737 215.572 41.7583 215.572 41.2354C215.572 38.8696 214.02 37.2178 211.812 37.2178C209.429 37.2178 207.894 38.9941 207.894 41.7168C207.894 44.5059 209.388 46.1494 211.936 46.1494ZM209.388 40.9448C209.479 39.459 210.442 38.4712 211.787 38.4712C213.123 38.4712 214.044 39.4507 214.078 40.9448H209.388ZM217.755 46.1494C218.178 46.1494 218.477 45.834 218.477 45.3774V40.6377C218.477 39.5337 219.033 38.5957 220.336 38.5957C220.652 38.5957 220.876 38.5376 221.025 38.4131C221.175 38.2969 221.25 38.1309 221.25 37.9067C221.25 37.7075 221.191 37.5415 221.067 37.4253C220.926 37.2925 220.702 37.2178 220.386 37.2178C219.523 37.2178 218.676 37.8818 218.427 38.7783H218.394V37.9482C218.394 37.5166 218.112 37.2178 217.713 37.2178C217.315 37.2178 217.033 37.5166 217.033 37.9482V45.3774C217.033 45.834 217.332 46.1494 217.755 46.1494ZM224.628 46.1494C225.79 46.1494 226.894 45.502 227.409 44.5142H227.442V45.4189C227.442 45.8506 227.724 46.1494 228.131 46.1494C228.529 46.1494 228.812 45.8506 228.812 45.4189V40.0317C228.812 38.3135 227.533 37.2178 225.508 37.2178C224.105 37.2178 222.843 37.8403 222.354 38.7866C222.237 38.9941 222.179 39.2017 222.179 39.3843C222.179 39.7744 222.445 40.0317 222.818 40.0317C223.092 40.0317 223.283 39.9238 223.416 39.6831C223.897 38.8281 224.537 38.4878 225.475 38.4878C226.67 38.4878 227.367 39.1187 227.367 40.1729V40.895L224.885 41.0361C222.893 41.1523 221.756 42.082 221.756 43.5596C221.756 45.1118 222.91 46.1494 224.628 46.1494ZM224.952 44.9209C223.914 44.9209 223.225 44.3813 223.225 43.5596C223.225 42.7461 223.889 42.2314 225.051 42.1567L227.367 42.0156V42.7212C227.367 43.9663 226.313 44.9209 224.952 44.9209ZM236.564 46.1494C237.021 46.1494 237.336 45.9087 237.469 45.4521L239.254 39.3179H239.287L241.08 45.4521C241.221 45.9419 241.495 46.1494 241.977 46.1494C242.425 46.1494 242.724 45.917 242.856 45.4521L244.965 38.2139C245.006 38.0728 245.023 37.9482 245.023 37.8403C245.023 37.4585 244.749 37.2178 244.317 37.2178C243.96 37.2178 243.77 37.3838 243.662 37.8071L241.96 44.3896H241.927L240.101 37.8569C239.984 37.4336 239.71 37.2178 239.279 37.2178C238.839 37.2178 238.548 37.4419 238.432 37.8652L236.623 44.3896H236.589L234.888 37.8071C234.78 37.3838 234.589 37.2178 234.232 37.2178C233.8 37.2178 233.526 37.4585 233.526 37.8403C233.526 37.9482 233.543 38.0728 233.584 38.2139L235.693 45.4521C235.834 45.9336 236.108 46.1494 236.564 46.1494ZM247.098 46.1494C247.521 46.1494 247.82 45.834 247.82 45.3774V40.9697C247.82 39.4756 248.708 38.4961 250.145 38.4961C251.498 38.4961 252.187 39.3179 252.187 40.6875V45.3774C252.187 45.834 252.485 46.1494 252.909 46.1494C253.332 46.1494 253.631 45.834 253.631 45.3774V40.4219C253.631 38.4961 252.485 37.2178 250.593 37.2178C249.281 37.2178 248.335 37.7822 247.854 38.7451H247.82V34.6279C247.82 34.1797 247.538 33.8726 247.098 33.8726C246.667 33.8726 246.376 34.1797 246.376 34.6279V45.3774C246.376 45.834 246.675 46.1494 247.098 46.1494ZM259.084 46.1494C260.662 46.1494 261.874 45.4854 262.43 44.3149C262.496 44.1572 262.538 44.0078 262.538 43.8916C262.538 43.5098 262.28 43.2607 261.898 43.2607C261.674 43.2607 261.508 43.3438 261.359 43.5513C260.687 44.5308 260.056 44.896 259.026 44.896C257.482 44.896 256.528 43.8169 256.528 42.0737H261.923C262.421 42.0737 262.72 41.7583 262.72 41.2354C262.72 38.8696 261.168 37.2178 258.96 37.2178C256.578 37.2178 255.042 38.9941 255.042 41.7168C255.042 44.5059 256.536 46.1494 259.084 46.1494ZM256.536 40.9448C256.627 39.459 257.59 38.4712 258.935 38.4712C260.271 38.4712 261.193 39.4507 261.226 40.9448H256.536ZM264.903 46.1494C265.327 46.1494 265.625 45.834 265.625 45.3774V40.9199C265.625 39.459 266.514 38.4961 267.875 38.4961C269.203 38.4961 269.859 39.2598 269.859 40.6543V45.3774C269.859 45.834 270.158 46.1494 270.581 46.1494C271.004 46.1494 271.303 45.834 271.303 45.3774V40.397C271.303 38.438 270.208 37.2178 268.315 37.2178C266.979 37.2178 266.057 37.8154 265.576 38.7451H265.542V37.9482C265.542 37.5166 265.26 37.2178 264.862 37.2178C264.463 37.2178 264.181 37.5166 264.181 37.9482V45.3774C264.181 45.834 264.48 46.1494 264.903 46.1494ZM33.7349 66.1494C34.1582 66.1494 34.457 65.834 34.457 65.3774V54.6445C34.457 54.188 34.1582 53.8726 33.7349 53.8726C33.3115 53.8726 33.0127 54.188 33.0127 54.6445V65.3774C33.0127 65.834 33.3115 66.1494 33.7349 66.1494ZM39.9854 66.1494C42.3677 66.1494 43.978 64.4312 43.978 61.6836C43.978 58.9277 42.3677 57.2178 39.9854 57.2178C37.5947 57.2178 35.9844 58.9277 35.9844 61.6836C35.9844 64.4312 37.5947 66.1494 39.9854 66.1494ZM39.9854 64.8794C38.458 64.8794 37.4536 63.7173 37.4536 61.6836C37.4536 59.6499 38.458 58.4878 39.9854 58.4878C41.5127 58.4878 42.5088 59.6499 42.5088 61.6836C42.5088 63.7173 41.5127 64.8794 39.9854 64.8794ZM49.0166 66.1494C51.3989 66.1494 53.0093 64.4312 53.0093 61.6836C53.0093 58.9277 51.3989 57.2178 49.0166 57.2178C46.626 57.2178 45.0156 58.9277 45.0156 61.6836C45.0156 64.4312 46.626 66.1494 49.0166 66.1494ZM49.0166 64.8794C47.4893 64.8794 46.4849 63.7173 46.4849 61.6836C46.4849 59.6499 47.4893 58.4878 49.0166 58.4878C50.5439 58.4878 51.54 59.6499 51.54 61.6836C51.54 63.7173 50.5439 64.8794 49.0166 64.8794ZM55.2671 66.1494C55.6904 66.1494 55.9893 65.834 55.9893 65.3774V62.7461L56.7944 61.9824L60.04 65.8838C60.2061 66.083 60.3555 66.1494 60.5796 66.1494C60.9531 66.1494 61.2437 65.8838 61.2437 65.5352C61.2437 65.3525 61.2021 65.2197 61.061 65.0454L57.8154 61.0942L60.7539 58.3052C60.9282 58.1392 60.9863 58.0146 60.9863 57.8154C60.9863 57.4917 60.7124 57.2178 60.3721 57.2178C60.1646 57.2178 60.0234 57.2842 59.8491 57.4585L55.9893 61.2021V54.6445C55.9893 54.188 55.6904 53.8726 55.2671 53.8726C54.8438 53.8726 54.5449 54.188 54.5449 54.6445V65.3774C54.5449 65.834 54.8438 66.1494 55.2671 66.1494ZM63.5181 55.9146C64.0161 55.9146 64.4229 55.5078 64.4229 55.0181C64.4229 54.52 64.0161 54.1216 63.5181 54.1216C63.0283 54.1216 62.6216 54.52 62.6216 55.0181C62.6216 55.5078 63.0283 55.9146 63.5181 55.9146ZM63.5181 66.1494C63.9414 66.1494 64.2402 65.834 64.2402 65.3774V57.9897C64.2402 57.5332 63.9414 57.2178 63.5181 57.2178C63.0947 57.2178 62.7959 57.5332 62.7959 57.9897V65.3774C62.7959 65.834 63.0947 66.1494 63.5181 66.1494ZM66.9131 66.1494C67.3364 66.1494 67.6353 65.834 67.6353 65.3774V60.9199C67.6353 59.459 68.5234 58.4961 69.8848 58.4961C71.2129 58.4961 71.8687 59.2598 71.8687 60.6543V65.3774C71.8687 65.834 72.1675 66.1494 72.5908 66.1494C73.0142 66.1494 73.313 65.834 73.313 65.3774V60.397C73.313 58.438 72.2173 57.2178 70.3247 57.2178C68.9883 57.2178 68.0669 57.8154 67.5854 58.7451H67.5522V57.9482C67.5522 57.5166 67.27 57.2178 66.8716 57.2178C66.4731 57.2178 66.1909 57.5166 66.1909 57.9482V65.3774C66.1909 65.834 66.4897 66.1494 66.9131 66.1494ZM78.6421 69.2539C81.0991 69.2788 82.6265 67.8843 82.6265 65.8257V57.9648C82.6265 57.5166 82.3193 57.2178 81.9043 57.2178C81.4893 57.2178 81.1821 57.5166 81.1821 57.9648V58.7866H81.1572C80.5845 57.8154 79.6299 57.2178 78.4097 57.2178C76.1768 57.2178 74.7324 58.9443 74.7324 61.6504C74.7324 64.3315 76.1768 66.0664 78.3765 66.0664C79.5884 66.0664 80.6177 65.4521 81.1489 64.5142H81.1821V65.8755C81.1821 67.1621 80.2441 68.0503 78.7002 68.0254C77.8203 68.0088 77.2144 67.6934 76.4756 66.8799C76.2515 66.6309 76.1104 66.5479 75.8696 66.5479C75.4878 66.5479 75.2222 66.8052 75.2222 67.1704C75.2222 67.3613 75.272 67.5273 75.3882 67.71C75.9941 68.6646 77.1978 69.2373 78.6421 69.2539ZM78.667 64.7964C77.1812 64.7964 76.21 63.5845 76.21 61.6504C76.21 59.7163 77.1812 58.4878 78.667 58.4878C80.1694 58.4878 81.1821 59.7495 81.1821 61.6504C81.1821 63.5513 80.1694 64.7964 78.667 64.7964ZM89.1758 66.1494C89.6157 66.1494 89.8979 65.8506 89.8979 65.3857V58.5542H91.168C91.5415 58.5542 91.7822 58.3384 91.7822 57.9648C91.7822 57.6079 91.5415 57.3672 91.168 57.3672H89.8896V56.4541C89.8896 55.5659 90.2217 55.1841 90.9854 55.1841C91.168 55.1841 91.3091 55.1675 91.4336 55.1343C91.6992 55.0596 91.8237 54.8936 91.8237 54.6279C91.8237 54.2046 91.417 53.9556 90.6533 53.9556C89.2422 53.9556 88.4536 54.7524 88.4536 56.4043V57.3672H87.7397C87.3662 57.3672 87.1255 57.6079 87.1255 57.9648C87.1255 58.3384 87.3662 58.5542 87.7397 58.5542H88.4536V65.3857C88.4536 65.8506 88.7358 66.1494 89.1758 66.1494ZM96.3145 66.1494C98.6968 66.1494 100.307 64.4312 100.307 61.6836C100.307 58.9277 98.6968 57.2178 96.3145 57.2178C93.9238 57.2178 92.3135 58.9277 92.3135 61.6836C92.3135 64.4312 93.9238 66.1494 96.3145 66.1494ZM96.3145 64.8794C94.7871 64.8794 93.7827 63.7173 93.7827 61.6836C93.7827 59.6499 94.7871 58.4878 96.3145 58.4878C97.8418 58.4878 98.8379 59.6499 98.8379 61.6836C98.8379 63.7173 97.8418 64.8794 96.3145 64.8794ZM102.49 66.1494C102.914 66.1494 103.212 65.834 103.212 65.3774V60.6377C103.212 59.5337 103.769 58.5957 105.072 58.5957C105.387 58.5957 105.611 58.5376 105.761 58.4131C105.91 58.2969 105.985 58.1309 105.985 57.9067C105.985 57.7075 105.927 57.5415 105.802 57.4253C105.661 57.2925 105.437 57.2178 105.122 57.2178C104.258 57.2178 103.412 57.8818 103.163 58.7783H103.129V57.9482C103.129 57.5166 102.847 57.2178 102.449 57.2178C102.05 57.2178 101.768 57.5166 101.768 57.9482V65.3774C101.768 65.834 102.067 66.1494 102.49 66.1494ZM110.965 64.0078C110.965 65.3857 111.663 66.0664 113.057 66.0664H113.148C113.954 66.0664 114.203 65.834 114.203 65.394C114.203 65.0537 113.987 64.8628 113.514 64.8296L113.389 64.8213C112.667 64.7715 112.41 64.4229 112.41 63.6924V58.5542H113.522C113.937 58.5542 114.169 58.3384 114.169 57.9565C114.169 57.583 113.937 57.3672 113.522 57.3672H112.41V55.8896C112.41 55.4331 112.111 55.1177 111.688 55.1177C111.264 55.1177 110.965 55.4331 110.965 55.8896V57.3672H110.243C109.828 57.3672 109.596 57.583 109.596 57.9565C109.596 58.3384 109.828 58.5542 110.243 58.5542H110.965V64.0078ZM116.427 66.1494C116.851 66.1494 117.149 65.834 117.149 65.3774V60.9697C117.149 59.4756 118.038 58.4961 119.474 58.4961C120.827 58.4961 121.516 59.3179 121.516 60.6875V65.3774C121.516 65.834 121.814 66.1494 122.238 66.1494C122.661 66.1494 122.96 65.834 122.96 65.3774V60.4219C122.96 58.4961 121.814 57.2178 119.922 57.2178C118.61 57.2178 117.664 57.7822 117.183 58.7451H117.149V54.6279C117.149 54.1797 116.867 53.8726 116.427 53.8726C115.996 53.8726 115.705 54.1797 115.705 54.6279V65.3774C115.705 65.834 116.004 66.1494 116.427 66.1494ZM128.414 66.1494C129.991 66.1494 131.203 65.4854 131.759 64.3149C131.825 64.1572 131.867 64.0078 131.867 63.8916C131.867 63.5098 131.609 63.2607 131.228 63.2607C131.003 63.2607 130.837 63.3438 130.688 63.5513C130.016 64.5308 129.385 64.896 128.355 64.896C126.812 64.896 125.857 63.8169 125.857 62.0737H131.252C131.75 62.0737 132.049 61.7583 132.049 61.2354C132.049 58.8696 130.497 57.2178 128.289 57.2178C125.907 57.2178 124.371 58.9941 124.371 61.7168C124.371 64.5059 125.865 66.1494 128.414 66.1494ZM125.865 60.9448C125.957 59.459 126.919 58.4712 128.264 58.4712C129.601 58.4712 130.522 59.4507 130.555 60.9448H125.865ZM140.574 66.1494C142.957 66.1494 144.567 64.4312 144.567 61.6836C144.567 58.9277 142.957 57.2178 140.574 57.2178C138.184 57.2178 136.573 58.9277 136.573 61.6836C136.573 64.4312 138.184 66.1494 140.574 66.1494ZM140.574 64.8794C139.047 64.8794 138.042 63.7173 138.042 61.6836C138.042 59.6499 139.047 58.4878 140.574 58.4878C142.102 58.4878 143.098 59.6499 143.098 61.6836C143.098 63.7173 142.102 64.8794 140.574 64.8794ZM146.775 66.1494C147.19 66.1494 147.48 65.8589 147.48 65.4438V64.5391H147.514C148.078 65.5352 149.066 66.1494 150.328 66.1494C152.536 66.1494 153.997 64.3979 153.997 61.6836C153.997 58.9775 152.527 57.2178 150.353 57.2178C149.132 57.2178 148.128 57.8237 147.58 58.8115H147.547V54.6445C147.547 54.188 147.248 53.8726 146.825 53.8726C146.401 53.8726 146.103 54.188 146.103 54.6445V65.4438C146.103 65.8672 146.368 66.1494 146.775 66.1494ZM150.045 64.8794C148.584 64.8794 147.539 63.6094 147.539 61.6836C147.539 59.7661 148.584 58.4878 150.045 58.4878C151.573 58.4878 152.519 59.7246 152.519 61.6836C152.519 63.6592 151.573 64.8794 150.045 64.8794ZM156.254 55.9146C156.752 55.9146 157.159 55.5078 157.159 55.0181C157.159 54.52 156.752 54.1216 156.254 54.1216C155.765 54.1216 155.358 54.52 155.358 55.0181C155.358 55.5078 155.765 55.9146 156.254 55.9146ZM156.254 57.2178C155.831 57.2178 155.532 57.5332 155.532 57.9897V66.4897C155.532 67.2534 155.292 67.627 154.619 67.7266L154.561 67.7349C154.104 67.8013 153.914 68.0254 153.914 68.3408C153.914 68.7144 154.237 68.9634 154.769 68.9634C156.163 68.9634 156.977 68.1748 156.977 66.6309V57.9897C156.977 57.5332 156.678 57.2178 156.254 57.2178ZM162.546 66.1494C164.124 66.1494 165.335 65.4854 165.892 64.3149C165.958 64.1572 166 64.0078 166 63.8916C166 63.5098 165.742 63.2607 165.36 63.2607C165.136 63.2607 164.97 63.3438 164.821 63.5513C164.148 64.5308 163.518 64.896 162.488 64.896C160.944 64.896 159.99 63.8169 159.99 62.0737H165.385C165.883 62.0737 166.182 61.7583 166.182 61.2354C166.182 58.8696 164.63 57.2178 162.422 57.2178C160.04 57.2178 158.504 58.9941 158.504 61.7168C158.504 64.5059 159.998 66.1494 162.546 66.1494ZM159.998 60.9448C160.089 59.459 161.052 58.4712 162.397 58.4712C163.733 58.4712 164.655 59.4507 164.688 60.9448H159.998ZM171.204 66.1494C172.773 66.1494 174.143 65.2861 174.558 64.0908C174.599 63.958 174.624 63.8335 174.624 63.7256C174.624 63.3521 174.375 63.0947 174.001 63.0947C173.686 63.0947 173.528 63.2109 173.321 63.6011C172.873 64.4312 172.242 64.8794 171.204 64.8794C169.718 64.8794 168.689 63.6675 168.689 61.6836C168.689 59.7495 169.702 58.4878 171.204 58.4878C172.2 58.4878 172.856 58.9111 173.312 59.7661C173.512 60.1396 173.686 60.2725 174.001 60.2725C174.375 60.2725 174.616 60.0234 174.616 59.6416C174.616 59.5503 174.599 59.4424 174.566 59.3345C174.234 58.1392 172.814 57.2178 171.188 57.2178C168.797 57.2178 167.22 58.9858 167.22 61.7002C167.22 64.4312 168.813 66.1494 171.204 66.1494ZM176.625 64.0078C176.625 65.3857 177.322 66.0664 178.716 66.0664H178.808C179.613 66.0664 179.862 65.834 179.862 65.394C179.862 65.0537 179.646 64.8628 179.173 64.8296L179.048 64.8213C178.326 64.7715 178.069 64.4229 178.069 63.6924V58.5542H179.181C179.596 58.5542 179.829 58.3384 179.829 57.9565C179.829 57.583 179.596 57.3672 179.181 57.3672H178.069V55.8896C178.069 55.4331 177.77 55.1177 177.347 55.1177C176.923 55.1177 176.625 55.4331 176.625 55.8896V57.3672H175.902C175.487 57.3672 175.255 57.583 175.255 57.9565C175.255 58.3384 175.487 58.5542 175.902 58.5542H176.625V64.0078ZM185.241 64.0078C185.241 65.3857 185.938 66.0664 187.333 66.0664H187.424C188.229 66.0664 188.478 65.834 188.478 65.394C188.478 65.0537 188.262 64.8628 187.789 64.8296L187.665 64.8213C186.942 64.7715 186.685 64.4229 186.685 63.6924V58.5542H187.797C188.212 58.5542 188.445 58.3384 188.445 57.9565C188.445 57.583 188.212 57.3672 187.797 57.3672H186.685V55.8896C186.685 55.4331 186.386 55.1177 185.963 55.1177C185.54 55.1177 185.241 55.4331 185.241 55.8896V57.3672H184.519C184.104 57.3672 183.871 57.583 183.871 57.9565C183.871 58.3384 184.104 58.5542 184.519 58.5542H185.241V64.0078ZM190.703 66.1494C191.126 66.1494 191.425 65.834 191.425 65.3774V60.9697C191.425 59.4756 192.313 58.4961 193.749 58.4961C195.102 58.4961 195.791 59.3179 195.791 60.6875V65.3774C195.791 65.834 196.09 66.1494 196.513 66.1494C196.937 66.1494 197.235 65.834 197.235 65.3774V60.4219C197.235 58.4961 196.09 57.2178 194.197 57.2178C192.886 57.2178 191.939 57.7822 191.458 58.7451H191.425V54.6279C191.425 54.1797 191.143 53.8726 190.703 53.8726C190.271 53.8726 189.98 54.1797 189.98 54.6279V65.3774C189.98 65.834 190.279 66.1494 190.703 66.1494ZM201.585 66.1494C202.747 66.1494 203.851 65.502 204.366 64.5142H204.399V65.4189C204.399 65.8506 204.681 66.1494 205.088 66.1494C205.486 66.1494 205.769 65.8506 205.769 65.4189V60.0317C205.769 58.3135 204.49 57.2178 202.465 57.2178C201.062 57.2178 199.8 57.8403 199.311 58.7866C199.194 58.9941 199.136 59.2017 199.136 59.3843C199.136 59.7744 199.402 60.0317 199.775 60.0317C200.049 60.0317 200.24 59.9238 200.373 59.6831C200.854 58.8281 201.494 58.4878 202.432 58.4878C203.627 58.4878 204.324 59.1187 204.324 60.1729V60.895L201.842 61.0361C199.85 61.1523 198.713 62.082 198.713 63.5596C198.713 65.1118 199.867 66.1494 201.585 66.1494ZM201.909 64.9209C200.871 64.9209 200.182 64.3813 200.182 63.5596C200.182 62.7461 200.846 62.2314 202.008 62.1567L204.324 62.0156V62.7212C204.324 63.9663 203.27 64.9209 201.909 64.9209ZM208.068 64.0078C208.068 65.3857 208.765 66.0664 210.16 66.0664H210.251C211.056 66.0664 211.305 65.834 211.305 65.394C211.305 65.0537 211.089 64.8628 210.616 64.8296L210.492 64.8213C209.77 64.7715 209.512 64.4229 209.512 63.6924V58.5542H210.625C211.04 58.5542 211.272 58.3384 211.272 57.9565C211.272 57.583 211.04 57.3672 210.625 57.3672H209.512V55.8896C209.512 55.4331 209.213 55.1177 208.79 55.1177C208.367 55.1177 208.068 55.4331 208.068 55.8896V57.3672H207.346C206.931 57.3672 206.698 57.583 206.698 57.9565C206.698 58.3384 206.931 58.5542 207.346 58.5542H208.068V64.0078ZM216.941 66.1494C217.381 66.1494 217.664 65.8174 217.664 65.3774V60.5879C217.664 59.3926 218.494 58.4961 219.639 58.4961C220.71 58.4961 221.407 59.1768 221.407 60.2144V65.3774C221.407 65.8174 221.689 66.1494 222.129 66.1494C222.569 66.1494 222.852 65.8174 222.852 65.3774V60.5132C222.852 59.3428 223.657 58.4961 224.802 58.4961C225.939 58.4961 226.595 59.1934 226.595 60.3721V65.3774C226.595 65.8174 226.877 66.1494 227.317 66.1494C227.757 66.1494 228.04 65.8174 228.04 65.3774V60.04C228.04 58.3301 226.936 57.2178 225.226 57.2178C224.014 57.2178 223.001 57.832 222.52 58.8613H222.486C222.113 57.8154 221.241 57.2178 220.062 57.2178C218.9 57.2178 218.021 57.832 217.614 58.7451H217.581V57.9482C217.581 57.5166 217.298 57.2178 216.9 57.2178C216.501 57.2178 216.219 57.5166 216.219 57.9482V65.3774C216.219 65.8174 216.501 66.1494 216.941 66.1494ZM232.397 66.1494C233.56 66.1494 234.664 65.502 235.178 64.5142H235.211V65.4189C235.211 65.8506 235.494 66.1494 235.9 66.1494C236.299 66.1494 236.581 65.8506 236.581 65.4189V60.0317C236.581 58.3135 235.303 57.2178 233.277 57.2178C231.875 57.2178 230.613 57.8403 230.123 58.7866C230.007 58.9941 229.949 59.2017 229.949 59.3843C229.949 59.7744 230.214 60.0317 230.588 60.0317C230.862 60.0317 231.053 59.9238 231.186 59.6831C231.667 58.8281 232.306 58.4878 233.244 58.4878C234.439 58.4878 235.137 59.1187 235.137 60.1729V60.895L232.655 61.0361C230.663 61.1523 229.525 62.082 229.525 63.5596C229.525 65.1118 230.679 66.1494 232.397 66.1494ZM232.721 64.9209C231.684 64.9209 230.995 64.3813 230.995 63.5596C230.995 62.7461 231.659 62.2314 232.821 62.1567L235.137 62.0156V62.7212C235.137 63.9663 234.083 64.9209 232.721 64.9209ZM238.88 64.0078C238.88 65.3857 239.578 66.0664 240.972 66.0664H241.063C241.869 66.0664 242.118 65.834 242.118 65.394C242.118 65.0537 241.902 64.8628 241.429 64.8296L241.304 64.8213C240.582 64.7715 240.325 64.4229 240.325 63.6924V58.5542H241.437C241.852 58.5542 242.084 58.3384 242.084 57.9565C242.084 57.583 241.852 57.3672 241.437 57.3672H240.325V55.8896C240.325 55.4331 240.026 55.1177 239.603 55.1177C239.179 55.1177 238.88 55.4331 238.88 55.8896V57.3672H238.158C237.743 57.3672 237.511 57.583 237.511 57.9565C237.511 58.3384 237.743 58.5542 238.158 58.5542H238.88V64.0078ZM246.857 66.1494C248.426 66.1494 249.796 65.2861 250.211 64.0908C250.252 63.958 250.277 63.8335 250.277 63.7256C250.277 63.3521 250.028 63.0947 249.655 63.0947C249.339 63.0947 249.182 63.2109 248.974 63.6011C248.526 64.4312 247.895 64.8794 246.857 64.8794C245.372 64.8794 244.342 63.6675 244.342 61.6836C244.342 59.7495 245.355 58.4878 246.857 58.4878C247.854 58.4878 248.509 58.9111 248.966 59.7661C249.165 60.1396 249.339 60.2725 249.655 60.2725C250.028 60.2725 250.269 60.0234 250.269 59.6416C250.269 59.5503 250.252 59.4424 250.219 59.3345C249.887 58.1392 248.468 57.2178 246.841 57.2178C244.45 57.2178 242.873 58.9858 242.873 61.7002C242.873 64.4312 244.467 66.1494 246.857 66.1494ZM252.61 66.1494C253.033 66.1494 253.332 65.834 253.332 65.3774V60.9697C253.332 59.4756 254.22 58.4961 255.656 58.4961C257.009 58.4961 257.698 59.3179 257.698 60.6875V65.3774C257.698 65.834 257.997 66.1494 258.42 66.1494C258.844 66.1494 259.143 65.834 259.143 65.3774V60.4219C259.143 58.4961 257.997 57.2178 256.104 57.2178C254.793 57.2178 253.847 57.7822 253.365 58.7451H253.332V54.6279C253.332 54.1797 253.05 53.8726 252.61 53.8726C252.178 53.8726 251.888 54.1797 251.888 54.6279V65.3774C251.888 65.834 252.187 66.1494 252.61 66.1494ZM264.596 66.1494C266.173 66.1494 267.385 65.4854 267.941 64.3149C268.008 64.1572 268.049 64.0078 268.049 63.8916C268.049 63.5098 267.792 63.2607 267.41 63.2607C267.186 63.2607 267.02 63.3438 266.871 63.5513C266.198 64.5308 265.567 64.896 264.538 64.896C262.994 64.896 262.04 63.8169 262.04 62.0737H267.435C267.933 62.0737 268.232 61.7583 268.232 61.2354C268.232 58.8696 266.68 57.2178 264.472 57.2178C262.089 57.2178 260.554 58.9941 260.554 61.7168C260.554 64.5059 262.048 66.1494 264.596 66.1494ZM262.048 60.9448C262.139 59.459 263.102 58.4712 264.447 58.4712C265.783 58.4712 266.705 59.4507 266.738 60.9448H262.048ZM272.689 66.1494C274.74 66.1494 276.126 65.1118 276.126 63.5679C276.126 62.2979 275.462 61.667 273.661 61.2271L272.374 60.9116C271.428 60.6792 270.963 60.2642 270.963 59.6665C270.963 58.9277 271.685 58.4048 272.723 58.4048C273.603 58.4048 274.159 58.7202 274.532 59.4424C274.69 59.7412 274.889 59.8325 275.171 59.8325C275.52 59.8325 275.736 59.6084 275.736 59.2681C275.736 59.2017 275.728 59.1353 275.711 59.0522C275.487 58.0146 274.225 57.2178 272.806 57.2178C270.855 57.2178 269.535 58.2388 269.535 59.7412C269.535 60.9531 270.34 61.7417 272.009 62.1567L273.329 62.4888C274.3 62.7295 274.657 63.0615 274.657 63.6841C274.657 64.4893 273.91 64.9707 272.806 64.9707C271.702 64.9707 271.187 64.6304 270.755 63.875C270.589 63.5762 270.382 63.4434 270.125 63.4434C269.751 63.4434 269.469 63.6592 269.469 64.041C269.469 64.1489 269.485 64.2568 269.535 64.3813C269.95 65.4604 271.154 66.1494 272.689 66.1494ZM281.563 64.0078C281.563 65.3857 282.26 66.0664 283.655 66.0664H283.746C284.551 66.0664 284.8 65.834 284.8 65.394C284.8 65.0537 284.584 64.8628 284.111 64.8296L283.987 64.8213C283.265 64.7715 283.007 64.4229 283.007 63.6924V58.5542H284.12C284.535 58.5542 284.767 58.3384 284.767 57.9565C284.767 57.583 284.535 57.3672 284.12 57.3672H283.007V55.8896C283.007 55.4331 282.708 55.1177 282.285 55.1177C281.862 55.1177 281.563 55.4331 281.563 55.8896V57.3672H280.841C280.426 57.3672 280.193 57.583 280.193 57.9565C280.193 58.3384 280.426 58.5542 280.841 58.5542H281.563V64.0078ZM287.025 66.1494C287.448 66.1494 287.747 65.834 287.747 65.3774V60.9697C287.747 59.4756 288.635 58.4961 290.071 58.4961C291.424 58.4961 292.113 59.3179 292.113 60.6875V65.3774C292.113 65.834 292.412 66.1494 292.835 66.1494C293.259 66.1494 293.558 65.834 293.558 65.3774V60.4219C293.558 58.4961 292.412 57.2178 290.52 57.2178C289.208 57.2178 288.262 57.7822 287.78 58.7451H287.747V54.6279C287.747 54.1797 287.465 53.8726 287.025 53.8726C286.593 53.8726 286.303 54.1797 286.303 54.6279V65.3774C286.303 65.834 286.602 66.1494 287.025 66.1494ZM299.011 66.1494C300.588 66.1494 301.8 65.4854 302.356 64.3149C302.423 64.1572 302.464 64.0078 302.464 63.8916C302.464 63.5098 302.207 63.2607 301.825 63.2607C301.601 63.2607 301.435 63.3438 301.286 63.5513C300.613 64.5308 299.982 64.896 298.953 64.896C297.409 64.896 296.455 63.8169 296.455 62.0737H301.85C302.348 62.0737 302.647 61.7583 302.647 61.2354C302.647 58.8696 301.095 57.2178 298.887 57.2178C296.504 57.2178 294.969 58.9941 294.969 61.7168C294.969 64.5059 296.463 66.1494 299.011 66.1494ZM296.463 60.9448C296.554 59.459 297.517 58.4712 298.862 58.4712C300.198 58.4712 301.12 59.4507 301.153 60.9448H296.463ZM36.499 86.1494C38.0679 86.1494 39.4375 85.2861 39.8525 84.0908C39.894 83.958 39.9189 83.8335 39.9189 83.7256C39.9189 83.3521 39.6699 83.0947 39.2964 83.0947C38.981 83.0947 38.8232 83.2109 38.6157 83.6011C38.1675 84.4312 37.5366 84.8794 36.499 84.8794C35.0132 84.8794 33.9839 83.6675 33.9839 81.6836C33.9839 79.7495 34.9966 78.4878 36.499 78.4878C37.4951 78.4878 38.1509 78.9111 38.6074 79.7661C38.8066 80.1396 38.981 80.2725 39.2964 80.2725C39.6699 80.2725 39.9106 80.0234 39.9106 79.6416C39.9106 79.5503 39.894 79.4424 39.8608 79.3345C39.5288 78.1392 38.1094 77.2178 36.4824 77.2178C34.0918 77.2178 32.5146 78.9858 32.5146 81.7002C32.5146 84.4312 34.1084 86.1494 36.499 86.1494ZM42.2515 86.1494C42.6748 86.1494 42.9736 85.834 42.9736 85.3774V74.6445C42.9736 74.188 42.6748 73.8726 42.2515 73.8726C41.8281 73.8726 41.5293 74.188 41.5293 74.6445V85.3774C41.5293 85.834 41.8281 86.1494 42.2515 86.1494ZM47.8711 86.1494C49.1992 86.1494 50.0957 85.5933 50.6104 84.5972H50.6436V85.4189C50.6436 85.834 50.9175 86.1494 51.3325 86.1494C51.7476 86.1494 52.0132 85.834 52.0132 85.4189V77.9897C52.0132 77.5332 51.7144 77.2178 51.291 77.2178C50.8677 77.2178 50.5688 77.5332 50.5688 77.9897V82.439C50.5688 83.9082 49.7222 84.8711 48.3193 84.8711C46.9829 84.8711 46.3271 84.1157 46.3271 82.7129V77.9897C46.3271 77.5332 46.0283 77.2178 45.605 77.2178C45.1816 77.2178 44.8828 77.5332 44.8828 77.9897V82.9702C44.8828 84.9292 45.9868 86.1494 47.8711 86.1494ZM57.5083 86.1494C59.0854 86.1494 60.2974 85.4854 60.8535 84.3149C60.9199 84.1572 60.9614 84.0078 60.9614 83.8916C60.9614 83.5098 60.7041 83.2607 60.3223 83.2607C60.0981 83.2607 59.9321 83.3438 59.7827 83.5513C59.1104 84.5308 58.4795 84.896 57.4502 84.896C55.9062 84.896 54.9517 83.8169 54.9517 82.0737H60.3472C60.8452 82.0737 61.144 81.7583 61.144 81.2354C61.144 78.8696 59.5918 77.2178 57.3838 77.2178C55.0015 77.2178 53.4658 78.9941 53.4658 81.7168C53.4658 84.5059 54.96 86.1494 57.5083 86.1494ZM54.96 80.9448C55.0513 79.459 56.0142 78.4712 57.3589 78.4712C58.6953 78.4712 59.6167 79.4507 59.6499 80.9448H54.96ZM63.8252 86.083C64.3564 86.083 64.7715 85.668 64.7715 85.1367C64.7715 84.6055 64.3564 84.1904 63.8252 84.1904C63.2939 84.1904 62.8789 84.6055 62.8789 85.1367C62.8789 85.668 63.2939 86.083 63.8252 86.083ZM70.5488 86.1162C71.0054 86.1162 71.2959 85.8174 71.2959 85.3442V80.812H76.019C76.4341 80.812 76.7246 80.5464 76.7246 80.1479C76.7246 79.7495 76.4341 79.4839 76.019 79.4839H71.2959V75.3667H76.4839C76.9072 75.3667 77.1978 75.0928 77.1978 74.6943C77.1978 74.2959 76.9072 74.022 76.4839 74.022H70.5488C70.0923 74.022 69.8018 74.3208 69.8018 74.7939V85.3442C69.8018 85.8174 70.0923 86.1162 70.5488 86.1162ZM79.356 75.9146C79.854 75.9146 80.2607 75.5078 80.2607 75.0181C80.2607 74.52 79.854 74.1216 79.356 74.1216C78.8662 74.1216 78.4595 74.52 78.4595 75.0181C78.4595 75.5078 78.8662 75.9146 79.356 75.9146ZM79.356 86.1494C79.7793 86.1494 80.0781 85.834 80.0781 85.3774V77.9897C80.0781 77.5332 79.7793 77.2178 79.356 77.2178C78.9326 77.2178 78.6338 77.5332 78.6338 77.9897V85.3774C78.6338 85.834 78.9326 86.1494 79.356 86.1494ZM82.751 86.1494C83.1743 86.1494 83.4731 85.834 83.4731 85.3774V80.9199C83.4731 79.459 84.3613 78.4961 85.7227 78.4961C87.0508 78.4961 87.7065 79.2598 87.7065 80.6543V85.3774C87.7065 85.834 88.0054 86.1494 88.4287 86.1494C88.8521 86.1494 89.1509 85.834 89.1509 85.3774V80.397C89.1509 78.438 88.0552 77.2178 86.1626 77.2178C84.8262 77.2178 83.9048 77.8154 83.4233 78.7451H83.3901V77.9482C83.3901 77.5166 83.1079 77.2178 82.7095 77.2178C82.311 77.2178 82.0288 77.5166 82.0288 77.9482V85.3774C82.0288 85.834 82.3276 86.1494 82.751 86.1494ZM94.2642 86.1494C95.6172 86.1494 96.5137 85.4854 96.9868 84.4561H97.0117V85.4438C97.0117 85.8672 97.3438 86.1494 97.7505 86.1494C98.1655 86.1494 98.4561 85.8589 98.4561 85.4438V74.6445C98.4561 74.188 98.1572 73.8726 97.7339 73.8726C97.3105 73.8726 97.0117 74.188 97.0117 74.6445V78.77H96.9785C96.4639 77.8237 95.4678 77.2178 94.231 77.2178C92.0562 77.2178 90.5703 78.9775 90.5703 81.6836C90.5703 84.3896 92.0645 86.1494 94.2642 86.1494ZM94.5381 84.8794C93.0107 84.8794 92.0479 83.6426 92.0479 81.6836C92.0479 79.7329 93.0107 78.4878 94.5381 78.4878C96.0239 78.4878 97.02 79.7578 97.02 81.6836C97.02 83.6177 96.0239 84.8794 94.5381 84.8794ZM106.408 86.1494C107.57 86.1494 108.674 85.502 109.189 84.5142H109.222V85.4189C109.222 85.8506 109.504 86.1494 109.911 86.1494C110.31 86.1494 110.592 85.8506 110.592 85.4189V80.0317C110.592 78.3135 109.313 77.2178 107.288 77.2178C105.885 77.2178 104.624 77.8403 104.134 78.7866C104.018 78.9941 103.959 79.2017 103.959 79.3843C103.959 79.7744 104.225 80.0317 104.599 80.0317C104.873 80.0317 105.063 79.9238 105.196 79.6831C105.678 78.8281 106.317 78.4878 107.255 78.4878C108.45 78.4878 109.147 79.1187 109.147 80.1729V80.895L106.666 81.0361C104.673 81.1523 103.536 82.082 103.536 83.5596C103.536 85.1118 104.69 86.1494 106.408 86.1494ZM106.732 84.9209C105.694 84.9209 105.005 84.3813 105.005 83.5596C105.005 82.7461 105.669 82.2314 106.832 82.1567L109.147 82.0156V82.7212C109.147 83.9663 108.093 84.9209 106.732 84.9209ZM113.223 86.1494C113.646 86.1494 113.945 85.834 113.945 85.3774V74.6445C113.945 74.188 113.646 73.8726 113.223 73.8726C112.8 73.8726 112.501 74.188 112.501 74.6445V85.3774C112.501 85.834 112.8 86.1494 113.223 86.1494ZM116.693 86.1494C117.116 86.1494 117.415 85.834 117.415 85.3774V74.6445C117.415 74.188 117.116 73.8726 116.693 73.8726C116.27 73.8726 115.971 74.188 115.971 74.6445V85.3774C115.971 85.834 116.27 86.1494 116.693 86.1494ZM123.317 84.0078C123.317 85.3857 124.014 86.0664 125.409 86.0664H125.5C126.305 86.0664 126.554 85.834 126.554 85.394C126.554 85.0537 126.338 84.8628 125.865 84.8296L125.741 84.8213C125.019 84.7715 124.761 84.4229 124.761 83.6924V78.5542H125.874C126.289 78.5542 126.521 78.3384 126.521 77.9565C126.521 77.583 126.289 77.3672 125.874 77.3672H124.761V75.8896C124.761 75.4331 124.462 75.1177 124.039 75.1177C123.616 75.1177 123.317 75.4331 123.317 75.8896V77.3672H122.595C122.18 77.3672 121.947 77.583 121.947 77.9565C121.947 78.3384 122.18 78.5542 122.595 78.5542H123.317V84.0078ZM128.779 86.1494C129.202 86.1494 129.501 85.834 129.501 85.3774V80.9697C129.501 79.4756 130.389 78.4961 131.825 78.4961C133.178 78.4961 133.867 79.3179 133.867 80.6875V85.3774C133.867 85.834 134.166 86.1494 134.589 86.1494C135.013 86.1494 135.312 85.834 135.312 85.3774V80.4219C135.312 78.4961 134.166 77.2178 132.273 77.2178C130.962 77.2178 130.016 77.7822 129.534 78.7451H129.501V74.6279C129.501 74.1797 129.219 73.8726 128.779 73.8726C128.347 73.8726 128.057 74.1797 128.057 74.6279V85.3774C128.057 85.834 128.355 86.1494 128.779 86.1494ZM140.765 86.1494C142.342 86.1494 143.554 85.4854 144.11 84.3149C144.177 84.1572 144.218 84.0078 144.218 83.8916C144.218 83.5098 143.961 83.2607 143.579 83.2607C143.355 83.2607 143.189 83.3438 143.04 83.5513C142.367 84.5308 141.736 84.896 140.707 84.896C139.163 84.896 138.208 83.8169 138.208 82.0737H143.604C144.102 82.0737 144.401 81.7583 144.401 81.2354C144.401 78.8696 142.849 77.2178 140.641 77.2178C138.258 77.2178 136.723 78.9941 136.723 81.7168C136.723 84.5059 138.217 86.1494 140.765 86.1494ZM138.217 80.9448C138.308 79.459 139.271 78.4712 140.616 78.4712C141.952 78.4712 142.874 79.4507 142.907 80.9448H138.217ZM152.926 86.1494C155.308 86.1494 156.918 84.4312 156.918 81.6836C156.918 78.9277 155.308 77.2178 152.926 77.2178C150.535 77.2178 148.925 78.9277 148.925 81.6836C148.925 84.4312 150.535 86.1494 152.926 86.1494ZM152.926 84.8794C151.398 84.8794 150.394 83.7173 150.394 81.6836C150.394 79.6499 151.398 78.4878 152.926 78.4878C154.453 78.4878 155.449 79.6499 155.449 81.6836C155.449 83.7173 154.453 84.8794 152.926 84.8794ZM159.126 86.1494C159.542 86.1494 159.832 85.8589 159.832 85.4438V84.5391H159.865C160.43 85.5352 161.417 86.1494 162.679 86.1494C164.887 86.1494 166.348 84.3979 166.348 81.6836C166.348 78.9775 164.879 77.2178 162.704 77.2178C161.484 77.2178 160.479 77.8237 159.932 78.8115H159.898V74.6445C159.898 74.188 159.6 73.8726 159.176 73.8726C158.753 73.8726 158.454 74.188 158.454 74.6445V85.4438C158.454 85.8672 158.72 86.1494 159.126 86.1494ZM162.397 84.8794C160.936 84.8794 159.89 83.6094 159.89 81.6836C159.89 79.7661 160.936 78.4878 162.397 78.4878C163.924 78.4878 164.871 79.7246 164.871 81.6836C164.871 83.6592 163.924 84.8794 162.397 84.8794ZM168.606 75.9146C169.104 75.9146 169.511 75.5078 169.511 75.0181C169.511 74.52 169.104 74.1216 168.606 74.1216C168.116 74.1216 167.709 74.52 167.709 75.0181C167.709 75.5078 168.116 75.9146 168.606 75.9146ZM168.606 77.2178C168.183 77.2178 167.884 77.5332 167.884 77.9897V86.4897C167.884 87.2534 167.643 87.627 166.971 87.7266L166.913 87.7349C166.456 87.8013 166.265 88.0254 166.265 88.3408C166.265 88.7144 166.589 88.9634 167.12 88.9634C168.515 88.9634 169.328 88.1748 169.328 86.6309V77.9897C169.328 77.5332 169.029 77.2178 168.606 77.2178ZM174.898 86.1494C176.475 86.1494 177.687 85.4854 178.243 84.3149C178.31 84.1572 178.351 84.0078 178.351 83.8916C178.351 83.5098 178.094 83.2607 177.712 83.2607C177.488 83.2607 177.322 83.3438 177.172 83.5513C176.5 84.5308 175.869 84.896 174.84 84.896C173.296 84.896 172.341 83.8169 172.341 82.0737H177.737C178.235 82.0737 178.534 81.7583 178.534 81.2354C178.534 78.8696 176.981 77.2178 174.773 77.2178C172.391 77.2178 170.855 78.9941 170.855 81.7168C170.855 84.5059 172.35 86.1494 174.898 86.1494ZM172.35 80.9448C172.441 79.459 173.404 78.4712 174.749 78.4712C176.085 78.4712 177.006 79.4507 177.04 80.9448H172.35ZM183.556 86.1494C185.125 86.1494 186.494 85.2861 186.909 84.0908C186.951 83.958 186.976 83.8335 186.976 83.7256C186.976 83.3521 186.727 83.0947 186.353 83.0947C186.038 83.0947 185.88 83.2109 185.672 83.6011C185.224 84.4312 184.593 84.8794 183.556 84.8794C182.07 84.8794 181.041 83.6675 181.041 81.6836C181.041 79.7495 182.053 78.4878 183.556 78.4878C184.552 78.4878 185.208 78.9111 185.664 79.7661C185.863 80.1396 186.038 80.2725 186.353 80.2725C186.727 80.2725 186.967 80.0234 186.967 79.6416C186.967 79.5503 186.951 79.4424 186.917 79.3345C186.585 78.1392 185.166 77.2178 183.539 77.2178C181.148 77.2178 179.571 78.9858 179.571 81.7002C179.571 84.4312 181.165 86.1494 183.556 86.1494ZM188.976 84.0078C188.976 85.3857 189.673 86.0664 191.068 86.0664H191.159C191.964 86.0664 192.213 85.834 192.213 85.394C192.213 85.0537 191.998 84.8628 191.524 84.8296L191.4 84.8213C190.678 84.7715 190.42 84.4229 190.42 83.6924V78.5542H191.533C191.948 78.5542 192.18 78.3384 192.18 77.9565C192.18 77.583 191.948 77.3672 191.533 77.3672H190.42V75.8896C190.42 75.4331 190.122 75.1177 189.698 75.1177C189.275 75.1177 188.976 75.4331 188.976 75.8896V77.3672H188.254C187.839 77.3672 187.606 77.583 187.606 77.9565C187.606 78.3384 187.839 78.5542 188.254 78.5542H188.976V84.0078ZM196.638 86.1494C198.688 86.1494 200.074 85.1118 200.074 83.5679C200.074 82.2979 199.41 81.667 197.609 81.2271L196.322 80.9116C195.376 80.6792 194.911 80.2642 194.911 79.6665C194.911 78.9277 195.633 78.4048 196.671 78.4048C197.551 78.4048 198.107 78.7202 198.48 79.4424C198.638 79.7412 198.837 79.8325 199.12 79.8325C199.468 79.8325 199.684 79.6084 199.684 79.2681C199.684 79.2017 199.676 79.1353 199.659 79.0522C199.435 78.0146 198.173 77.2178 196.754 77.2178C194.803 77.2178 193.483 78.2388 193.483 79.7412C193.483 80.9531 194.289 81.7417 195.957 82.1567L197.277 82.4888C198.248 82.7295 198.605 83.0615 198.605 83.6841C198.605 84.4893 197.858 84.9707 196.754 84.9707C195.65 84.9707 195.135 84.6304 194.704 83.875C194.538 83.5762 194.33 83.4434 194.073 83.4434C193.699 83.4434 193.417 83.6592 193.417 84.041C193.417 84.1489 193.434 84.2568 193.483 84.3813C193.898 85.4604 195.102 86.1494 196.638 86.1494ZM205.511 84.0078C205.511 85.3857 206.208 86.0664 207.603 86.0664H207.694C208.5 86.0664 208.749 85.834 208.749 85.394C208.749 85.0537 208.533 84.8628 208.06 84.8296L207.935 84.8213C207.213 84.7715 206.956 84.4229 206.956 83.6924V78.5542H208.068C208.483 78.5542 208.715 78.3384 208.715 77.9565C208.715 77.583 208.483 77.3672 208.068 77.3672H206.956V75.8896C206.956 75.4331 206.657 75.1177 206.233 75.1177C205.81 75.1177 205.511 75.4331 205.511 75.8896V77.3672H204.789C204.374 77.3672 204.142 77.583 204.142 77.9565C204.142 78.3384 204.374 78.5542 204.789 78.5542H205.511V84.0078ZM213.505 86.1494C215.887 86.1494 217.498 84.4312 217.498 81.6836C217.498 78.9277 215.887 77.2178 213.505 77.2178C211.114 77.2178 209.504 78.9277 209.504 81.6836C209.504 84.4312 211.114 86.1494 213.505 86.1494ZM213.505 84.8794C211.978 84.8794 210.973 83.7173 210.973 81.6836C210.973 79.6499 211.978 78.4878 213.505 78.4878C215.032 78.4878 216.028 79.6499 216.028 81.6836C216.028 83.7173 215.032 84.8794 213.505 84.8794ZM223.632 86.1494C224.072 86.1494 224.354 85.8506 224.354 85.3857V78.5542H225.624C225.998 78.5542 226.238 78.3384 226.238 77.9648C226.238 77.6079 225.998 77.3672 225.624 77.3672H224.346V76.4541C224.346 75.5659 224.678 75.1841 225.441 75.1841C225.624 75.1841 225.765 75.1675 225.89 75.1343C226.155 75.0596 226.28 74.8936 226.28 74.6279C226.28 74.2046 225.873 73.9556 225.109 73.9556C223.698 73.9556 222.91 74.7524 222.91 76.4043V77.3672H222.196C221.822 77.3672 221.582 77.6079 221.582 77.9648C221.582 78.3384 221.822 78.5542 222.196 78.5542H222.91V85.3857C222.91 85.8506 223.192 86.1494 223.632 86.1494ZM228.405 75.9146C228.903 75.9146 229.31 75.5078 229.31 75.0181C229.31 74.52 228.903 74.1216 228.405 74.1216C227.915 74.1216 227.508 74.52 227.508 75.0181C227.508 75.5078 227.915 75.9146 228.405 75.9146ZM228.405 86.1494C228.828 86.1494 229.127 85.834 229.127 85.3774V77.9897C229.127 77.5332 228.828 77.2178 228.405 77.2178C227.981 77.2178 227.683 77.5332 227.683 77.9897V85.3774C227.683 85.834 227.981 86.1494 228.405 86.1494ZM231.8 86.1494C232.223 86.1494 232.522 85.834 232.522 85.3774V80.9199C232.522 79.459 233.41 78.4961 234.771 78.4961C236.1 78.4961 236.755 79.2598 236.755 80.6543V85.3774C236.755 85.834 237.054 86.1494 237.478 86.1494C237.901 86.1494 238.2 85.834 238.2 85.3774V80.397C238.2 78.438 237.104 77.2178 235.211 77.2178C233.875 77.2178 232.954 77.8154 232.472 78.7451H232.439V77.9482C232.439 77.5166 232.157 77.2178 231.758 77.2178C231.36 77.2178 231.078 77.5166 231.078 77.9482V85.3774C231.078 85.834 231.376 86.1494 231.8 86.1494ZM240.839 75.9146C241.337 75.9146 241.744 75.5078 241.744 75.0181C241.744 74.52 241.337 74.1216 240.839 74.1216C240.35 74.1216 239.943 74.52 239.943 75.0181C239.943 75.5078 240.35 75.9146 240.839 75.9146ZM240.839 86.1494C241.263 86.1494 241.562 85.834 241.562 85.3774V77.9897C241.562 77.5332 241.263 77.2178 240.839 77.2178C240.416 77.2178 240.117 77.5332 240.117 77.9897V85.3774C240.117 85.834 240.416 86.1494 240.839 86.1494ZM246.509 86.1494C248.559 86.1494 249.945 85.1118 249.945 83.5679C249.945 82.2979 249.281 81.667 247.48 81.2271L246.193 80.9116C245.247 80.6792 244.782 80.2642 244.782 79.6665C244.782 78.9277 245.504 78.4048 246.542 78.4048C247.422 78.4048 247.978 78.7202 248.352 79.4424C248.509 79.7412 248.708 79.8325 248.991 79.8325C249.339 79.8325 249.555 79.6084 249.555 79.2681C249.555 79.2017 249.547 79.1353 249.53 79.0522C249.306 78.0146 248.044 77.2178 246.625 77.2178C244.674 77.2178 243.354 78.2388 243.354 79.7412C243.354 80.9531 244.16 81.7417 245.828 82.1567L247.148 82.4888C248.119 82.7295 248.476 83.0615 248.476 83.6841C248.476 84.4893 247.729 84.9707 246.625 84.9707C245.521 84.9707 245.006 84.6304 244.575 83.875C244.409 83.5762 244.201 83.4434 243.944 83.4434C243.57 83.4434 243.288 83.6592 243.288 84.041C243.288 84.1489 243.305 84.2568 243.354 84.3813C243.77 85.4604 244.973 86.1494 246.509 86.1494ZM252.228 86.1494C252.651 86.1494 252.95 85.834 252.95 85.3774V80.9697C252.95 79.4756 253.838 78.4961 255.274 78.4961C256.627 78.4961 257.316 79.3179 257.316 80.6875V85.3774C257.316 85.834 257.615 86.1494 258.039 86.1494C258.462 86.1494 258.761 85.834 258.761 85.3774V80.4219C258.761 78.4961 257.615 77.2178 255.723 77.2178C254.411 77.2178 253.465 77.7822 252.983 78.7451H252.95V74.6279C252.95 74.1797 252.668 73.8726 252.228 73.8726C251.796 73.8726 251.506 74.1797 251.506 74.6279V85.3774C251.506 85.834 251.805 86.1494 252.228 86.1494ZM261.815 86.083C262.347 86.083 262.762 85.668 262.762 85.1367C262.762 84.6055 262.347 84.1904 261.815 84.1904C261.284 84.1904 260.869 84.6055 260.869 85.1367C260.869 85.668 261.284 86.083 261.815 86.083ZM268.539 86H274.474C274.897 86 275.188 85.7261 275.188 85.3276C275.188 84.9292 274.897 84.6553 274.474 84.6553H269.286V74.6777C269.286 74.2046 268.996 73.9058 268.539 73.9058C268.083 73.9058 267.792 74.2046 267.792 74.6777V85.228C267.792 85.7012 268.083 86 268.539 86ZM279.853 86.1494C281.43 86.1494 282.642 85.4854 283.198 84.3149C283.265 84.1572 283.306 84.0078 283.306 83.8916C283.306 83.5098 283.049 83.2607 282.667 83.2607C282.443 83.2607 282.277 83.3438 282.127 83.5513C281.455 84.5308 280.824 84.896 279.795 84.896C278.251 84.896 277.296 83.8169 277.296 82.0737H282.692C283.19 82.0737 283.489 81.7583 283.489 81.2354C283.489 78.8696 281.937 77.2178 279.729 77.2178C277.346 77.2178 275.811 78.9941 275.811 81.7168C275.811 84.5059 277.305 86.1494 279.853 86.1494ZM277.305 80.9448C277.396 79.459 278.359 78.4712 279.704 78.4712C281.04 78.4712 281.961 79.4507 281.995 80.9448H277.305ZM285.415 84.0078C285.415 85.3857 286.112 86.0664 287.506 86.0664H287.598C288.403 86.0664 288.652 85.834 288.652 85.394C288.652 85.0537 288.436 84.8628 287.963 84.8296L287.838 84.8213C287.116 84.7715 286.859 84.4229 286.859 83.6924V78.5542H287.971C288.386 78.5542 288.619 78.3384 288.619 77.9565C288.619 77.583 288.386 77.3672 287.971 77.3672H286.859V75.8896C286.859 75.4331 286.56 75.1177 286.137 75.1177C285.713 75.1177 285.415 75.4331 285.415 75.8896V77.3672H284.692C284.277 77.3672 284.045 77.583 284.045 77.9565C284.045 78.3384 284.277 78.5542 284.692 78.5542H285.415V84.0078ZM290.644 78.3633C290.993 78.3633 291.184 78.1973 291.275 77.8403L292.039 74.9849C292.088 74.8022 292.105 74.6777 292.105 74.5283C292.105 74.1216 291.806 73.8726 291.383 73.8726C290.993 73.8726 290.76 74.0469 290.669 74.5034L290.08 77.583C290.071 77.6328 290.055 77.7158 290.055 77.8403C290.055 78.1724 290.312 78.3633 290.644 78.3633ZM296.048 86.1494C298.098 86.1494 299.484 85.1118 299.484 83.5679C299.484 82.2979 298.82 81.667 297.019 81.2271L295.732 80.9116C294.786 80.6792 294.321 80.2642 294.321 79.6665C294.321 78.9277 295.043 78.4048 296.081 78.4048C296.961 78.4048 297.517 78.7202 297.891 79.4424C298.048 79.7412 298.248 79.8325 298.53 79.8325C298.878 79.8325 299.094 79.6084 299.094 79.2681C299.094 79.2017 299.086 79.1353 299.069 79.0522C298.845 78.0146 297.583 77.2178 296.164 77.2178C294.213 77.2178 292.894 78.2388 292.894 79.7412C292.894 80.9531 293.699 81.7417 295.367 82.1567L296.687 82.4888C297.658 82.7295 298.015 83.0615 298.015 83.6841C298.015 84.4893 297.268 84.9707 296.164 84.9707C295.06 84.9707 294.545 84.6304 294.114 83.875C293.948 83.5762 293.74 83.4434 293.483 83.4434C293.109 83.4434 292.827 83.6592 292.827 84.041C292.827 84.1489 292.844 84.2568 292.894 84.3813C293.309 85.4604 294.512 86.1494 296.048 86.1494ZM33.4028 104.008C33.4028 105.386 34.1001 106.066 35.4946 106.066H35.5859C36.3911 106.066 36.6401 105.834 36.6401 105.394C36.6401 105.054 36.4243 104.863 35.9512 104.83L35.8267 104.821C35.1045 104.771 34.8472 104.423 34.8472 103.692V98.5542H35.9595C36.3745 98.5542 36.6069 98.3384 36.6069 97.9565C36.6069 97.583 36.3745 97.3672 35.9595 97.3672H34.8472V95.8896C34.8472 95.4331 34.5483 95.1177 34.125 95.1177C33.7017 95.1177 33.4028 95.4331 33.4028 95.8896V97.3672H32.6807C32.2656 97.3672 32.0332 97.583 32.0332 97.9565C32.0332 98.3384 32.2656 98.5542 32.6807 98.5542H33.4028V104.008ZM38.79 106.149C39.2134 106.149 39.5122 105.834 39.5122 105.377V100.638C39.5122 99.5337 40.0684 98.5957 41.3716 98.5957C41.687 98.5957 41.9111 98.5376 42.0605 98.4131C42.21 98.2969 42.2847 98.1309 42.2847 97.9067C42.2847 97.7075 42.2266 97.5415 42.1021 97.4253C41.9609 97.2925 41.7368 97.2178 41.4214 97.2178C40.5581 97.2178 39.7114 97.8818 39.4624 98.7783H39.4292V97.9482C39.4292 97.5166 39.147 97.2178 38.7485 97.2178C38.3501 97.2178 38.0679 97.5166 38.0679 97.9482V105.377C38.0679 105.834 38.3667 106.149 38.79 106.149ZM44.1606 109.229C45.5884 109.229 46.2939 108.59 47.041 106.606L50.2285 98.2637C50.2783 98.1226 50.3032 97.9897 50.3032 97.8818C50.3032 97.4917 50.0127 97.2178 49.5977 97.2178C49.2407 97.2178 49.0498 97.3672 48.917 97.749L46.5264 104.556H46.5015L44.1191 97.749C43.9863 97.3672 43.7705 97.2178 43.4302 97.2178C43.0151 97.2178 42.708 97.4834 42.708 97.8818C42.708 97.9897 42.7329 98.1226 42.7827 98.2637L45.7544 106.008L45.5552 106.614C45.2148 107.66 44.6919 107.992 44.144 107.992C43.9199 107.992 43.8618 107.984 43.6543 107.984C43.2891 107.984 43.0732 108.2 43.0732 108.515C43.0732 108.972 43.4634 109.229 44.1606 109.229ZM55.8647 95.9146C56.3628 95.9146 56.7695 95.5078 56.7695 95.0181C56.7695 94.52 56.3628 94.1216 55.8647 94.1216C55.375 94.1216 54.9683 94.52 54.9683 95.0181C54.9683 95.5078 55.375 95.9146 55.8647 95.9146ZM55.8647 106.149C56.2881 106.149 56.5869 105.834 56.5869 105.377V97.9897C56.5869 97.5332 56.2881 97.2178 55.8647 97.2178C55.4414 97.2178 55.1426 97.5332 55.1426 97.9897V105.377C55.1426 105.834 55.4414 106.149 55.8647 106.149ZM59.0024 104.008C59.0024 105.386 59.6997 106.066 61.0942 106.066H61.1855C61.9907 106.066 62.2397 105.834 62.2397 105.394C62.2397 105.054 62.0239 104.863 61.5508 104.83L61.4263 104.821C60.7041 104.771 60.4468 104.423 60.4468 103.692V98.5542H61.5591C61.9741 98.5542 62.2065 98.3384 62.2065 97.9565C62.2065 97.583 61.9741 97.3672 61.5591 97.3672H60.4468V95.8896C60.4468 95.4331 60.1479 95.1177 59.7246 95.1177C59.3013 95.1177 59.0024 95.4331 59.0024 95.8896V97.3672H58.2803C57.8652 97.3672 57.6328 97.583 57.6328 97.9565C57.6328 98.3384 57.8652 98.5542 58.2803 98.5542H59.0024V104.008ZM67.876 106.149C68.2993 106.149 68.5981 105.834 68.5981 105.377V100.92C68.5981 99.459 69.4863 98.4961 70.8477 98.4961C72.1758 98.4961 72.8315 99.2598 72.8315 100.654V105.377C72.8315 105.834 73.1304 106.149 73.5537 106.149C73.9771 106.149 74.2759 105.834 74.2759 105.377V100.397C74.2759 98.438 73.1802 97.2178 71.2876 97.2178C69.9512 97.2178 69.0298 97.8154 68.5483 98.7451H68.5151V97.9482C68.5151 97.5166 68.2329 97.2178 67.8345 97.2178C67.436 97.2178 67.1538 97.5166 67.1538 97.9482V105.377C67.1538 105.834 67.4526 106.149 67.876 106.149ZM79.6963 106.149C82.0786 106.149 83.689 104.431 83.689 101.684C83.689 98.9277 82.0786 97.2178 79.6963 97.2178C77.3057 97.2178 75.6953 98.9277 75.6953 101.684C75.6953 104.431 77.3057 106.149 79.6963 106.149ZM79.6963 104.879C78.1689 104.879 77.1646 103.717 77.1646 101.684C77.1646 99.6499 78.1689 98.4878 79.6963 98.4878C81.2236 98.4878 82.2197 99.6499 82.2197 101.684C82.2197 103.717 81.2236 104.879 79.6963 104.879ZM87.582 106.149C88.0386 106.149 88.354 105.909 88.4868 105.452L90.2715 99.3179H90.3047L92.0977 105.452C92.2388 105.942 92.5127 106.149 92.9941 106.149C93.4424 106.149 93.7412 105.917 93.874 105.452L95.9824 98.2139C96.0239 98.0728 96.0405 97.9482 96.0405 97.8403C96.0405 97.4585 95.7666 97.2178 95.335 97.2178C94.978 97.2178 94.7871 97.3838 94.6792 97.8071L92.9775 104.39H92.9443L91.1182 97.8569C91.002 97.4336 90.728 97.2178 90.2964 97.2178C89.8564 97.2178 89.5659 97.4419 89.4497 97.8652L87.6401 104.39H87.6069L85.9053 97.8071C85.7974 97.3838 85.6064 97.2178 85.2495 97.2178C84.8179 97.2178 84.5439 97.4585 84.5439 97.8403C84.5439 97.9482 84.5605 98.0728 84.6021 98.2139L86.7104 105.452C86.8516 105.934 87.1255 106.149 87.582 106.149ZM98.647 102.14C99.0537 102.14 99.2944 101.875 99.3027 101.451L99.3857 94.6196C99.3857 94.1714 99.062 93.8726 98.647 93.8726C98.2319 93.8726 97.9082 94.1714 97.9082 94.6196L97.9912 101.451C97.9995 101.875 98.2402 102.14 98.647 102.14ZM98.647 106.083C99.1865 106.083 99.5933 105.668 99.5933 105.137C99.5933 104.597 99.1865 104.19 98.647 104.19C98.1157 104.19 97.7007 104.597 97.7007 105.137C97.7007 105.668 98.1157 106.083 98.647 106.083Z" fill="black"/>
<path d="M343 94L354.258 113.5H331.742L343 94Z" fill="white"/>
<path d="M360 87.3333C360 66.1624 377.162 49 398.333 49C419.504 49 436.667 66.1624 436.667 87.3333V132.333C436.667 141.538 429.205 149 420 149H376.667C367.462 149 360 141.538 360 132.333V87.3333Z" fill="#74E903"/>
<rect x="380" y="77" width="7.80347" height="16.474" rx="3.90173" fill="black"/>
<rect x="397.341" y="77" width="7.80347" height="16.474" rx="3.90173" fill="black"/>
<path d="M401.676 120.352C405.289 121.219 413.121 120.959 415.549 112.982" stroke="black" stroke-width="2" stroke-linecap="round"/>
</svg>
